<svg xmlns="http://www.w3.org/2000/svg" xmlns:xlink="http://www.w3.org/1999/xlink" viewBox="0 0 125.05065 144.38277"><defs><style>.a{fill:url(#a);}.b{fill:#fff;}</style><linearGradient id="a" y1="72.19139" x2="125.05065" y2="72.19139" gradientUnits="userSpaceOnUse"><stop offset="0" stop-color="#65cbe4"/><stop offset="1" stop-color="#3a7c8d"/><stop offset="1" stop-color="#b8915e"/></linearGradient></defs><path class="a" d="M52.79747,2.07442C25.97581,12.845,0,78.11531,0,107.39071c0,29.268,31.6916,36.98707,60.98525,36.98707,29.28538,0,56.98578,1.0598,62.90693-27.70454C132.14563,76.582,95.03381-14.8896,52.79747,2.07442Zm49.15939,55.32641C98.14634,68.7126,80.35005,68.29926,61.53547,68.29926S22.35412,65.2627,22.35412,53.748c0-11.5148,16.68759-37.18993,33.9254-41.42914C83.4133,5.64459,107.25386,41.63186,101.95686,57.40083Z"/><path class="b" d="M39.869,93.53063a6.59938,6.59938,0,0,1,1.375-.10156h.22168a43.50366,43.50366,0,0,0-.2666-4.85059h-.04394a5.12454,5.12454,0,0,1-1.375-.20214l.57714-3.06446a35.4134,35.4134,0,0,0,4.03516.08106h2.94824c3.68067,0,4.0791.97363,4.0791,4.18066v7.02149H48.494v-5.9668c0-1.583-.31054-2.04981-1.707-2.04981H44.10336c.08886,1.03516.22168,3.77539.22168,4.8711l-.46485,3.14551H41.39926a14.76811,14.76811,0,0,0-2.12891.12207Z"/><path class="b" d="M59.55844,90.62829c0-1.583-.31055-2.04981-1.68457-2.04981H55.43441a10.03185,10.03185,0,0,1-2.416-.18261l.53222-3.1045a28.84752,28.84752,0,0,0,3.70215.10157h1.15332c3.6582,0,4.0791.97363,4.0791,4.18066v7.02149H59.55844Z"/><path class="b" d="M65.25863,92.39391a6.34788,6.34788,0,0,0,1.39746-2.90136c0-.58887-.377-.71094-1.24219-.89356-.4873-.12207-.95312-.22265-1.374-.36523l.53223-3.06446a13.09627,13.09627,0,0,0,1.41894.28418c2.81543.38575,3.63574,1.33985,3.63574,3.06446a8.576,8.576,0,0,1-2.084,4.89062Z"/><path class="b" d="M72.4432,91.23766a10.07439,10.07439,0,0,1,.24317-2.69922c-.4209-.041-1.30762-.10156-1.48536-.14257l.55469-3.1045a33.64337,33.64337,0,0,0,3.70215.10157H78.828c3.6582,0,4.03515,1.35937,4.03515,4.5459v6.65625H79.93637V90.72985c0-1.66406-.26563-2.15137-1.751-2.15137H75.3475v8.01661H72.4432Z"/><path class="b" d="M85.4139,93.53063c.77637-.10156,2.4834-.10156,3.43653-.10156h2.88183c0-.85254,0-2.334-.04394-3.04395-.11133-1.42089-.35449-1.80664-1.95117-1.80664H87.67562a10.52823,10.52823,0,0,1-2.43945-.18261l.57715-3.1045a20.84494,20.84494,0,0,0,3.21484.10157h1.81738c3.1709,0,3.68067,1.01465,3.68067,4.28222v1.41993a20.50806,20.50806,0,0,1-.11133,2.334h1.48633l-.53223,3.166h-7.3164c-1.08692,0-2.59473,0-3.21485.06054Z"/><path class="b" d="M39.159,114.29137v3.51075c0,.16211-.35449,2.11035-.57617,3.1455H28.51742v-6.39257a7.34378,7.34378,0,0,1,.19922-1.66407,5.73155,5.73155,0,0,1-1.44141-.16211l.55469-3.085a26.216,26.216,0,0,0,3.10352.10157h4.168C38.75961,109.74548,39.159,111.06481,39.159,114.29137ZM34.658,112.931H31.31039v4.85059h5.0332V115.184C36.34359,113.5404,36.033,112.931,34.658,112.931Z"/><path class="b" d="M41.95492,116.74645a6.34788,6.34788,0,0,0,1.39746-2.90136c0-.58887-.37695-.71094-1.24219-.89356-.4873-.12109-.95312-.22266-1.374-.36523l.53223-3.06446a13.09627,13.09627,0,0,0,1.41894.28418c2.81543.38575,3.63574,1.33985,3.63574,3.06446a8.56936,8.56936,0,0,1-2.084,4.89062Z"/><path class="b" d="M48.00863,117.88317c.48731-.08105,2.10645-.08105,3.23731-.08105H54.66a16.3643,16.3643,0,0,0,.19922-2.43555c0-2.0498-.6875-2.43555-2.54981-2.43555H50.492a12.67377,12.67377,0,0,1-2.66113-.18261l.57714-3.1045a21.43493,21.43493,0,0,0,2.97071.10157h1.707c3.81348,0,4.70019,1.25781,4.70019,5.35742a28.14949,28.14949,0,0,1-.7539,5.84472H50.66879c-1.08594,0-2.61621-.0205-3.23633.06055Z"/><path class="b" d="M65.701,114.98083c0-1.583-.31054-2.04981-1.68457-2.04981H61.577a10.032,10.032,0,0,1-2.416-.18261l.53223-3.1045a28.84752,28.84752,0,0,0,3.70215.10157h1.15332c3.6582,0,4.0791.97363,4.0791,4.18066v7.02148H65.701Z"/><path class="b" d="M71.35726,117.88317c.709-.08105,2.084-.10156,3.14746-.10156h2.32813a42.60408,42.60408,0,0,1-3.5918-3.75391c-.93066-1.01465-2.81543-3.207-3.67968-4.16113l4.36718-.24316c.82032,1.11621,1.86231,2.53711,3.01563,4.01855.64258-.28418.77539-.792.77539-1.48144a5.61848,5.61848,0,0,0-.665-2.27344l3.72461-.24317a4.9301,4.9301,0,0,1,.2666,1.5625,3.94675,3.94675,0,0,1-2.83789,4.09961,25.06634,25.06634,0,0,0,2.94824,3.02344l-.73144,2.61816h-6.2295c-1.24218,0-2.99316,0-3.68066.06055Z"/><path class="b" d="M84.43832,114.87927c.17773-1.25782-.50977-1.82618-1.77344-1.98829l.57617-3.30859c2.10645.14258,3.21485,1.15723,3.5918,2.61816a4.26431,4.26431,0,0,1,4.03516-2.61816c3.3916,0,4.25683,3.06445,4.25683,6.57617v1.7041c-.02246.28418-.44336,2.78028-.46582,3.085H90.29183c-.84277,0-1.752.02051-2.085.06055l.55469-3.10449a14.37473,14.37473,0,0,1,2.23926-.10156h1.13086q.06591-.76173.0664-1.52246c0-1.76563-.15527-3.51075-2.12793-3.51075-1.72949,0-2.32812,1.70508-2.63867,2.86133-.35449,1.13672-.84277,3.49121-1.1748,5.31738H83.3514C83.77328,118.85778,84.327,115.89391,84.43832,114.87927Z"/></svg>