<svg xmlns="http://www.w3.org/2000/svg" xmlns:xlink="http://www.w3.org/1999/xlink" viewBox="0 0 109.41658 94.26995"><defs><style>.a{fill:url(#a);}.b{fill:none;stroke:#006838;stroke-miterlimit:10;stroke-width:2px;}.c{fill:url(#b);}.d{fill:url(#c);}</style><linearGradient id="a" x1="-192.36733" y1="113.44894" x2="3.38391" y2="113.44894" gradientTransform="translate(22.19895 4.20951) rotate(6.79823)" gradientUnits="userSpaceOnUse"><stop offset="0" stop-color="#006c3a"/><stop offset="0.60204" stop-color="#009444"/><stop offset="1" stop-color="#006838"/></linearGradient><linearGradient id="b" x1="40.82943" y1="48.13497" x2="110.31385" y2="48.13497" gradientUnits="userSpaceOnUse"><stop offset="0" stop-color="#8dc63f"/><stop offset="0.30102" stop-color="#599d3f"/><stop offset="0.65306" stop-color="#8dc63f"/><stop offset="1" stop-color="#79c143"/></linearGradient><linearGradient id="c" x1="0.89727" y1="64.41448" x2="42.7933" y2="64.41448" xlink:href="#b"/></defs><path class="a" d="M13.6631,104.399c-1.782,14.94813-47.26382,26.28218-100.939,19.88349s-95.21795-28.10707-93.436-43.0552,43.03545,9.18733,96.71061,15.586S15.44509,89.45083,13.6631,104.399Z"/><path class="b" d="M-177.896,86.12348c24.9398,11.81239,55.88177,27.46728,91.33186,32.18864,24.1527,3.21674,50.66347-.8682,77.75563-5.989,6.418-1.21307,12.63243-2.66759,18.64287-4.32358"/><path class="b" d="M-177.24464,80.65945a308.22964,308.22964,0,0,0,91.09305,26.80533c24.15269,3.21675,50.90228,4.51511,77.99444-.60569,6.418-1.21308,12.63243-2.6676,18.64287-4.32358"/><path class="c" d="M40.82943,95.27c26.4138-51.62444,45.71766-70.58608,58.91629-77.90043,2.89411-1.60385,11.5635-9.04032,10.474-13.29068-.89756-3.50132-6.76354-3.03929-7.85551-3.075A36.35594,36.35594,0,0,0,87.30783,4.277c-10.274,4.89992-27.75621,24.58-45.16915,54.33391Z"/><path class="d" d="M41.0891,93.30607C31.432,72.34651,12.854,50.0568,7.00505,50.30819c-1.49735.06435-4.59121.49638-5.68067-1.14131C-.5743,46.31276,4.17643,38.01676,9.27732,36.04177c12.12816-4.69585,32.33713,23.9804,33.516,25.67955"/></svg>