<svg xmlns="http://www.w3.org/2000/svg" xmlns:xlink="http://www.w3.org/1999/xlink" viewBox="0 0 135.98761 29.45771"><defs><style>.a{fill:url(#a);}.b{fill:none;stroke:#006838;stroke-miterlimit:10;stroke-width:1.23519px;}.c{fill:url(#b);}</style><linearGradient id="a" y1="17.88476" x2="120.89545" y2="17.88476" gradientUnits="userSpaceOnUse"><stop offset="0" stop-color="#006c3a"/><stop offset="0.60204" stop-color="#009444"/><stop offset="1" stop-color="#006838"/></linearGradient><linearGradient id="b" x1="7.01494" y1="30.01453" x2="127.91039" y2="30.01453" gradientTransform="translate(12.20075 -21.03654) rotate(6.79823)" xlink:href="#a"/></defs><path class="a" d="M120.89545,9.88471c0,9.29729-27.06337,19.573-60.44773,19.573S0,19.182,0,9.88471s27.06337,2.488,60.44772,2.488S120.89545.58742,120.89545,9.88471Z"/><path class="b" d="M2.08477,12.68149c16.158,5.42074,36.27784,12.7591,58.363,13.06285,15.04694.207,31.00616-4.23628,47.2462-9.35726q5.77075-1.8197,11.11675-4.01438"/><path class="b" d="M2.08477,9.283a190.36229,190.36229,0,0,0,57.82294,9.779c15.04693.20695,31.54617-.95241,47.78621-6.07339q5.77075-1.81968,11.11675-4.01438"/><path class="c" d="M136.6059,15.96433c-1.10055,9.23193-29.19,16.23181-62.33964,12.28S15.4599,10.88547,16.56045,1.65354,43.139,7.32762,76.28867,11.27943,137.70645,6.7324,136.6059,15.96433Z"/><path class="b" d="M18.2995,4.67745c15.40276,7.29529,34.51244,16.96371,56.40632,19.87961,14.91664,1.98666,31.28962-.53619,48.02167-3.69879,3.96372-.74919,7.80175-1.6475,11.51379-2.67023"/><path class="b" d="M18.70179,1.30287A190.36207,190.36207,0,0,0,74.96061,17.85778c14.91664,1.98665,31.43712,2.78851,48.16917-.37408,3.96372-.74919,7.80175-1.6475,11.51378-2.67023"/></svg>