<svg xmlns="http://www.w3.org/2000/svg" xmlns:xlink="http://www.w3.org/1999/xlink" viewBox="0 0 252.55264 76.74088"><defs><style>.a{stroke:#231f20;stroke-miterlimit:10;fill:url(#a);}</style><linearGradient id="a" x1="126.27632" y1="76.24088" x2="126.27632" y2="0.5" gradientUnits="userSpaceOnUse"><stop offset="0" stop-color="#ed1c24"/><stop offset="0.29592" stop-color="#f7941d"/><stop offset="0.80612" stop-color="#f9ed32"/><stop offset="1" stop-color="#f9ed32"/></linearGradient></defs><path class="a" d="M6.80377,47.81236C4.48044,45.13969-3.414,35.23024,2.89179,25.24624c2.03967-3.2294,5.35816-6.13907,7.335-5.91017,3.08891.35767-.398,7.99653,6.846,11.01441,3.87987,1.61639,10.96482,1.95994,13.69192.26865,5.87079-3.64093-14.146-13.18214-8.31295-23.6407C24.62107,3.08874,29.75659.16485,31.74264.531c2.87989.53088-1.94838,7.77943,4.401,10.74577,3.99333,1.86564,7.865-.08505,12.71393,1.61187,6.38285,2.23372,6.81993,8.11452,7.335,15.04407.51008,6.863-1.24848,8.9756.978,9.6712,4.91291,1.5349,22.28022-6.00084,21.02689-12.62628-.7656-4.04718-8.27218-6.65943-7.335-7.2534,1.07617-.682,9.61412,3.62384,23.47188,5.64153,5.97577.87008,12.65289,1.84227,16.62591,0,5.5299-2.56419,1.08395-8.38419,4.401-9.1339,3.19762-.72273,12.33274,3.55484,14.18093,9.1339,2.33284,7.04206-8.36464,11.86945-4.401,14.50679,2.56519,1.70683,9.97041,1.631,13.69193-.26864,7.2057-3.67816-2.11085-12.80941,2.445-14.23815,3.35976-1.05364,12.9298,2.50024,16.62591,7.522,4.23858,5.75886-1.08965,10.9453,1.467,11.55171,2.39285.56754,9.922-3.29686,11.73594-8.328,2.32409-6.446-6.04673-11.165-3.912-12.089,2.55452-1.10563,18.59363,3.89774,23.47187,12.35764,4.3067,7.4687-2.65992,13.16668,1.956,14.77543,4.1088,1.432,14.58928-1.35391,17.60391-5.64153,4.17979-5.9448-7.66373-12.39983-4.401-13.9695,2.35906-1.13491,10.63605,1.23625,16.13692,4.29831,6.5866,3.66645,7.63885,7.45832,9.291,7.25339,1.9587-.243,2.0931-5.773.489-10.74577-1.46508-4.54173-3.6958-6.49664-2.445-6.98475,1.991-.77692,10.75254,2.96246,16.13691,7.79069,1.18346,1.06122,9.04356,8.10943,5.868,15.04408-3.51959,7.68586-14.596,17.65191-27.38385,20.417C205.65181,70.56717,95.15911,87.59659,32.72063,63.931,16.02523,57.60309,9.11208,50.46775,6.80377,47.81236Z"/></svg>