<svg xmlns="http://www.w3.org/2000/svg" xmlns:xlink="http://www.w3.org/1999/xlink" viewBox="0 0 417.57634 92.15445"><defs><style>.a,.ah,.ai,.l,.m{fill:none;}.b{clip-path:url(#a);}.c{fill:#ccc49b;}.d{fill:#a89e78;}.e{clip-path:url(#b);}.f{fill:#184551;}.aj,.g,.n,.z{fill:#fff;}.h{clip-path:url(#c);}.i{fill:#231f20;}.j{fill:url(#d);}.k{fill:#f1f2f2;}.ah,.ai,.aj,.l,.m,.n,.z{stroke:#f7941d;}.ah,.ai,.l,.m{stroke-linecap:round;}.ah,.aj,.l,.n,.z{stroke-miterlimit:10;}.l,.m{stroke-width:2.15523px;}.ai,.m{stroke-linejoin:round;}.n{stroke-width:1.61642px;}.o{clip-path:url(#e);}.p{clip-path:url(#f);}.q{clip-path:url(#g);}.r{clip-path:url(#h);}.s{clip-path:url(#i);}.t{clip-path:url(#j);}.u{clip-path:url(#k);}.v{clip-path:url(#l);}.w{clip-path:url(#m);}.x{clip-path:url(#n);}.y{clip-path:url(#o);}.z{stroke-width:1.91111px;}.aa{clip-path:url(#p);}.ab{clip-path:url(#q);}.ac{clip-path:url(#r);}.ad{clip-path:url(#s);}.ae{clip-path:url(#t);}.af{clip-path:url(#u);}.ag{clip-path:url(#v);}.ah,.ai{stroke-width:2.4116px;}.aj{stroke-width:1.8087px;}.ak{clip-path:url(#w);}.al{clip-path:url(#x);}.am{clip-path:url(#y);}</style><clipPath id="a"><rect class="a" x="324.63365" y="51.31914" width="35.41408" height="39.07225"/></clipPath><clipPath id="b"><path class="a" d="M96.27531,68.92734c-.14242-.44946-.279-.89724-.41333-1.34943C90.06743,47.84608,91.75852,26.45324,102.3638,5.917c10.7241-20.76631,29.00428-37.63173,51.4004-49.39991.22858-.11885.4594-.242.69605-.36356L253.9223,17.325l96.34994,59.25514,3.49877,2.15173-129.29995-4.921Z"/></clipPath><clipPath id="c"><polygon class="a" points="199.242 58.6 181.109 86.522 114.873 62.639 133.006 34.717 199.242 58.6"/></clipPath><radialGradient id="d" cx="-1251.27344" cy="1484.3727" r="51.09487" gradientTransform="matrix(0.18357, -0.28268, 0.59345, 0.21399, -486.98797, -608.21369)" gradientUnits="userSpaceOnUse"><stop offset="0" stop-color="#ffde17"/><stop offset="1" stop-color="#f5841f"/></radialGradient><clipPath id="e"><polygon class="a" points="212.055 -34.647 154.46 -43.964 353.771 78.614 212.055 -34.647"/></clipPath><clipPath id="f"><rect class="a" x="-0.8107" y="38.56571" width="32.8546" height="43.19582" transform="translate(50.71045 8.86098) rotate(48.92536)"/></clipPath><clipPath id="g"><path class="a" d="M-132.7671-113.32779c.28777-.42608.57771-.84687.87269-1.26927a106.311,106.311,0,0,1,55.35228-40.2423c23.84385-7.58419,49.04251-7.05033,72.502.06465.23837.07353.48174.14547.72727.22271L6.33361-40.55719,15.68017,69.86914l.3394,4.00993L-58.69466-20.12411Z"/></clipPath><clipPath id="h"><polygon class="a" points="24.127 -107.59 -3.215 -154.638 16.118 73.794 24.127 -107.59"/></clipPath><clipPath id="i"><polygon class="a" points="95.561 65.248 63.893 61.993 70.002 32.819 101.67 36.075 95.561 65.248"/></clipPath><clipPath id="j"><path class="a" d="M-136.95286,24.9751c-.05709-.34868-.10922-.69559-.15864-1.04556-2.09685-15.2657,2.75976-31.08351,15.45367-45.4423C-108.82171-36.03242-89.83865-46.94484-67.97191-53.673c.223-.06773.44864-.1385.67926-.20748L12.08485.93693,88.979,54.03743l2.79226,1.92825-114.85284-15.56Z"/></clipPath><clipPath id="k"><polygon class="a" points="-43.264 26.729 -63.843 45.911 -119.339 21.989 -98.76 2.808 -43.264 26.729"/></clipPath><clipPath id="l"><polygon class="a" points="-17.229 -41.717 -67.274 -53.968 91.79 55.878 -17.229 -41.717"/></clipPath><clipPath id="m"><polygon class="a" points="198.966 78.06 208.811 45.324 264.909 55.256 255.063 87.992 198.966 78.06"/></clipPath><clipPath id="n"><path class="a" d="M303.1174-160.31022c.68491-.0174,1.3658-.02984,2.05237-.03905,29.941-.34073,60.18559,6.66035,86.722,21.6838,26.83367,15.19176,45.96588,36.37666,56.6354,60.07059.10708.2415.21978.48618.32846.73582L333.376-1.46739,221.5129,72.5346l-4.0621,2.68724L260.46454-43.04977Z"/></clipPath><clipPath id="o"><polygon class="a" points="419.635 -26.958 449.025 -77.829 217.62 75.252 419.635 -26.958"/></clipPath><clipPath id="p"><polygon class="a" points="173.395 -9.005 201.558 14.359 162.619 43.569 134.456 20.205 173.395 -9.005"/></clipPath><clipPath id="q"><path class="a" d="M361.76667,181.0625c-.33467.43-.67231.85485-1.01614,1.28151-15.05638,18.57415-37.721,33.45149-66.62082,41.80741-29.22362,8.44953-60.56857,8.99776-90.10685,3.01992-.30021-.06195-.60654-.12213-.91584-.18741L184.97335,115.634,167.40481,7.76983l-.638-3.91689,97.92027,88.983Z"/></clipPath><clipPath id="r"><polygon class="a" points="269.592 120.852 311.838 111.941 340.71 173.494 298.464 182.405 269.592 120.852"/></clipPath><clipPath id="s"><polygon class="a" points="166.474 182.109 202.99 227.072 166.65 3.941 166.474 182.109"/></clipPath><clipPath id="t"><polygon class="a" points="77.562 91.217 91.887 62.78 146.292 75.723 131.966 104.16 77.562 91.217"/></clipPath><clipPath id="u"><path class="a" d="M214.148-113.47433c.68343.03453,1.36219.07319,2.04614.11513,29.81858,1.8836,58.9219,10.32818,83.22657,25.64681,24.577,15.49025,40.6658,35.75558,47.99227,57.63736.073.22291.15119.44906.22467.67934L222.22876,30.20539l-121.48171,57.737L96.33567,90.039l59.1556-102.19374Z"/></clipPath><clipPath id="v"><polygon class="a" points="186.876 -27.374 155.333 -51.184 215.381 -96.458 246.924 -72.648 186.876 -27.374"/></clipPath><clipPath id="w"><polygon class="a" points="311.53 13.803 347.802 -29.357 96.5 90.078 311.53 13.803"/></clipPath><clipPath id="x"><rect class="a" x="380.81474" y="22.53305" width="43.78921" height="57.57218" transform="matrix(0.26917, 0.96309, -0.96309, 0.26917, 343.73855, -350.34106)"/></clipPath><clipPath id="y"><polygon class="a" points="301.845 40.592 285.037 16.194 330.88 0.732 347.688 25.129 301.845 40.592"/></clipPath></defs><g class="b"><path class="c" d="M96.27531,68.92733c-.14242-.44946-.279-.89725-.41333-1.34943C90.06743,47.84607,91.75852,26.45323,102.3638,5.917c10.7241-20.76631,29.00428-37.63173,51.4004-49.39991.22858-.11885.4594-.242.69605-.36357L253.9223,17.32494l96.34994,59.25513,3.49877,2.15174-129.29995-4.921Z"/><polygon class="d" points="212.055 -34.529 154.46 -43.846 353.771 78.732 212.055 -34.529"/><g class="e"><polygon class="f" points="235.91 -9.05 171.073 90.79 110.39 68.909 175.227 -30.931 235.91 -9.05"/><polygon class="g" points="250.88 -3.652 186.043 96.188 135.981 78.137 200.818 -21.704 250.88 -3.652"/><path class="g" d="M147.25875,31.46392a1.201,1.201,0,0,1,.27637.165l1.1084.83789,5.24218,1.8916-.51367.791-5.26855-1.90039-.94629-.78028a.835.835,0,0,0-.24609-.13769.41118.41118,0,0,0-.36036.082,1.03364,1.03364,0,0,0-.32129.30664l-.57421.88281-.74317-.26758.72754-1.12109a1.87937,1.87937,0,0,1,.74316-.66016A1.072,1.072,0,0,1,147.25875,31.46392Z"/><path class="g" d="M149.791,27.23443l-.83887,1.292,6.13086,1.39746-.51367.791-6.13086-1.39746-.69434,1.06835-.74316-.26757,2.04687-3.15137Z"/><path class="g" d="M159.87789,22.54009l-2.43262,3.7461-.74414-.26758,1.91895-2.95606-3.02539-1.09082a2.18627,2.18627,0,0,0-2.87988.76074,1.90709,1.90709,0,0,0-.35254,1.46192,1.60014,1.60014,0,0,0,.76758,1.10351l3.58007,2.1211-.51367.791L152.625,26.07622a3.55632,3.55632,0,0,0-.46582-.25,2.46813,2.46813,0,0,0-1.28515-.02343l-1.24414.26757.582-.89648a5.506,5.506,0,0,1,1.87988-.2334,2.20783,2.20783,0,0,1-.48438-1.23242,2.69594,2.69594,0,0,1,.51465-1.47461,2.7891,2.7891,0,0,1,1.8086-1.30078,3.55972,3.55972,0,0,1,1.99218.18164Z"/><path class="g" d="M163.54293,16.89654l-.51367.791L158.35543,16.002a1.44631,1.44631,0,0,0-.93262-.084,1.67951,1.67951,0,0,0-.75586.72852l-1.82421,2.80859-.74317-.26758,1.97852-3.0459a2.02018,2.02018,0,0,1,2.56738-1.01171Z"/><path class="g" d="M164.3359,9.33794a3.38789,3.38789,0,0,1,1.7959,1.38086,1.99385,1.99385,0,0,1-.07324,2.30469l-1.69043,2.60156-.74414-.26855,1.64746-2.53614a1.376,1.376,0,0,0-.01465-1.60253,2.68371,2.68371,0,0,0-1.43555-1.08887,3.67455,3.67455,0,0,0-1.8164-.21777,2.39853,2.39853,0,0,0-1.68555,1.11132L159.33,12.546l1.70508,1.168a.52091.52091,0,0,0,.10254.05371c.165.05957.30859-.00391.42871-.18945l.835-1.28614.74414.26758-.959,1.47754a1.46446,1.46446,0,0,1-.6377.5586.971.971,0,0,1-.74707.043.91114.91114,0,0,1-.165-.07519L158.124,12.98931l1.52441-2.34668a3.3416,3.3416,0,0,1,2.249-1.4834A4.47637,4.47637,0,0,1,164.3359,9.33794Z"/><path class="g" d="M175.51266-1.5351l-.51367.791-4.77344-1.72168a1.16434,1.16434,0,0,0-.83008.043,1.441,1.441,0,0,0-.71582.57129L167.24117.36431l4.97071,1.793q.73242.26367.21,1.06738l-.71973,1.10742-.74414-.26855.72852-1.12109-4.959-1.78711L166.06735,2.17l-.74317-.26757,2.69824-4.15332a2.56306,2.56306,0,0,1,1.17188-.99317,1.83533,1.83533,0,0,1,1.37109-.07519Z"/><g class="h"><polygon class="i" points="193.441 56.509 175.308 84.43 114.873 62.639 133.006 34.717 193.441 56.509"/><polygon class="i" points="193.441 56.509 175.308 84.43 114.873 62.639 133.006 34.717 193.441 56.509"/><polygon class="j" points="207.627 65.44 193.592 87.053 120.813 60.811 134.849 39.198 207.627 65.44"/><ellipse class="i" cx="206.78391" cy="77.67567" rx="36.74846" ry="50.96491" transform="translate(117.23753 279.60273) rotate(-86.67271)"/></g><path class="k" d="M176.03414,69.27837l7.12207,2.58594-1.084,1.66992-7.66211-2.76367q-3.02345-1.08984-4.02246.44727l-.81836,1.25878,2.25781,1.30176.8457-1.30273,2.18164.78613-1.03613,1.5957a1.92012,1.92012,0,0,1-1.14258.78907,2.42758,2.42758,0,0,1-1.51953-.05078,3.25069,3.25069,0,0,1-.30566-.12793l-4.38477-2.35743,1.81641-2.79589Q170.29782,67.2105,176.03414,69.27837Z"/><path class="k" d="M183.50485,59.97661a3.01494,3.01494,0,0,1,2.16406,2.53028,4.35436,4.35436,0,0,1-.73242,3.10742,6.43,6.43,0,0,1-2.80664,2.34277,5.10828,5.10828,0,0,1-4.00586.30567l-6.89551-2.48633,1.084-1.66895,6.6211,2.38672a2.70147,2.70147,0,0,0,.47168.13379,1.71291,1.71291,0,0,0-1.09668-2.38281l-4.93164-1.77734,1.084-1.669,5.20605,1.877a2.93888,2.93888,0,0,1,2.11524,3.35059,4.94665,4.94665,0,0,0,.9375-1.14453,3.03457,3.03457,0,0,0,.63476-2.07715,1.63681,1.63681,0,0,0-1.208-1.25879l-6.6211-2.38672,1.084-1.66894Z"/><path class="k" d="M158.52926,71.05767q.2417-.4248.45508-.75293a3.43113,3.43113,0,0,1,.40722-.52734,2.27731,2.27731,0,0,1,.4375-.34473,1.74056,1.74056,0,0,1,.51465-.209,2.2656,2.2656,0,0,1,1.27539.12011l3.5752,1.28906-.31934.49122-3.584-1.293a1.371,1.371,0,0,0-1.74707.67871c-.13867.21289-.291.46191-.4541.749Z"/><path class="k" d="M162.9902,66.001a1.35939,1.35939,0,0,0-.4834.15723,1.04754,1.04754,0,0,0-.38086.35742,2.35316,2.35316,0,0,0-.22656.42578l-.541-.19434a1.92,1.92,0,0,1,.22266-.44043,1.71744,1.71744,0,0,1,.3955-.42773,1.83619,1.83619,0,0,1,.56055-.28613,2.70629,2.70629,0,0,1,.71387-.1211,4.97953,4.97953,0,0,1,1.9043.35059,5.21954,5.21954,0,0,1,.93359.43164,2.62936,2.62936,0,0,1,.61035.47949,1.44607,1.44607,0,0,1,.30176.50977,1.03867,1.03867,0,0,1,.03808.51855,1.3463,1.3463,0,0,1-.209.501,1.73309,1.73309,0,0,1-.39844.43359,1.93439,1.93439,0,0,1-.56836.29883,2.7423,2.7423,0,0,1-.72363.13965,3.87065,3.87065,0,0,1-.88476-.05762,5.94053,5.94053,0,0,1-1.03321-.27734l-2.5625-.92383.33106-.50977,2.5625.92383a4.81356,4.81356,0,0,0,1.56347.31934,1.5897,1.5897,0,0,0,.68067-.13086,1.068,1.068,0,0,0,.46484-.3877.84157.84157,0,0,0,.1582-.46679.69237.69237,0,0,0-.12988-.39356,1.46366,1.46366,0,0,0-.35742-.34668,4.48526,4.48526,0,0,0-1.10938-.5498q-.34569-.12452-.63867-.20508a4.3284,4.3284,0,0,0-.61621-.12012A2.46068,2.46068,0,0,0,162.9902,66.001Z"/><path class="k" d="M163.83492,62.836a1.95149,1.95149,0,0,1,1.36133-.85254,4.45623,4.45623,0,0,1,2.24707.31641,5.25084,5.25084,0,0,1,.9336.43164,2.552,2.552,0,0,1,.60937.48047,1.42565,1.42565,0,0,1,.30176.50879,1.05132,1.05132,0,0,1,.03906.51855,1.39788,1.39788,0,0,1-.209.50195,1.7649,1.7649,0,0,1-.39844.43262,1.96521,1.96521,0,0,1-.56934.29981,2.74277,2.74277,0,0,1-.72265.13867,3.86754,3.86754,0,0,1-.88477-.05762,5.94067,5.94067,0,0,1-1.0332-.27734,4.87274,4.87274,0,0,1-1.17578-.57911,1.92257,1.92257,0,0,1-.58594-.59668l-.21484.38965-.55957-.20215Q163.312,63.64165,163.83492,62.836Zm.92774,1.40234a5.06939,5.06939,0,0,0,1.00586.50391,6.94074,6.94074,0,0,0,.87793.26074,3.88292,3.88292,0,0,0,.75879.084,1.57224,1.57224,0,0,0,.67871-.13086,1.11039,1.11039,0,0,0,.48242-.41407.75006.75006,0,0,0,.13672-.53906.83669.83669,0,0,0-.28418-.47949,3.92506,3.92506,0,0,0-1.30664-.71484,3.99335,3.99335,0,0,0-1.83594-.31153,1.35442,1.35442,0,0,0-.49219.17285,1.12948,1.12948,0,0,0-.38476.36914l-.33594.53223A1.98963,1.98963,0,0,0,164.76266,64.23833Z"/><path class="k" d="M167.06344,58.0147l1.66406.59961c.2168.0791.40039.1543.54883.22461a2.78724,2.78724,0,0,1,.44336.26562.87093.87093,0,0,1,.3916.83887l2.11914-.14551-.35937.55371-2.74707.16016-1.19727.124a.50871.50871,0,0,0,.00684.21387q.1245.39111.84277.65137l1.90234.68555-.31836.49218-1.66406-.60058a2.8395,2.8395,0,0,1-1.166-.65821.90576.90576,0,0,1-.18262-.33007.891.891,0,0,1-.02051-.415l-2.09082.15234.36231-.55664,2.55078-.16113L169.5,59.98638a.664.664,0,0,0-.10254-.3125.95593.95593,0,0,0-.26562-.24609,2.15374,2.15374,0,0,0-.48438-.23535l-1.90332-.68653Z"/><path class="k" d="M168.541,55.58892a1.4655,1.4655,0,0,1,.998-.67676,2.761,2.761,0,0,1,1.42872.16992l3.5039,1.26368-.8457,1.30273-.5127-.18457.52637-.81152L170.67672,55.584q-1.17187-.42334-1.69141.376a.72332.72332,0,0,0-.11132.29883.71267.71267,0,0,0,.00976.2832,1.30827,1.30827,0,0,0,.16992.4004l.041.05859,3.83008,1.72851-.32129.49415-3.76074-1.69922c-.00977-.00391-.03907-.01465-.08692-.03223-.04785-.0166-.17773-.04688-.3916-.08984a3.31963,3.31963,0,0,0-.55273-.07129l-.29688-.01172.32129-.49414a2.63225,2.63225,0,0,1,.62988.05859l.0127-.02051a1.14091,1.14091,0,0,1-.165-.5166,1.32371,1.32371,0,0,1,.04492-.34961A1.3839,1.3839,0,0,1,168.541,55.58892Z"/><path class="i" d="M140.41247,49.89787c2.24267.80865,4.63566,3.711,3.31185,5.74947s-5.86312,2.44119-8.10579,1.63253-7.03012-4.57437-5.7063-6.61286S138.16981,49.08921,140.41247,49.89787Z"/><path class="i" d="M153.18814,58.7046c3.193,1.19147,6.218,2.1262,8.95689,2.89387l-1.149,1.76924c-2.71437-1.36289-5.49017-2.78351-8.17508-3.87573a55.25264,55.25264,0,0,0-9.902-2.92624q-1.2285-.25-2.58388-.47636l2.7553-1.86527q.44662.23358.95712.492A90.10083,90.10083,0,0,0,153.18814,58.7046Z"/><path class="i" d="M139.19342,41.488l12.66662,8.544c.4902.33066.17459.87955-.46964.81232a19.71026,19.71026,0,0,1-6.90428-2.03207c-3.48982-1.78993-5.71506-4.35125-6.40238-6.94792C137.96367,41.41063,138.70623,41.15935,139.19342,41.488Z"/><path class="i" d="M158.63044,54.44245c2.652,1.52874,5.20177,2.81351,7.52544,3.91046l-1.37673,1.30234c-2.18718-1.59457-4.41869-3.2479-6.63131-4.60952a51.22691,51.22691,0,0,0-8.372-4.093q-1.06041-.41252-2.23983-.826l2.84455-1.11937q.35809.27024.769.57192A81.43334,81.43334,0,0,0,158.63044,54.44245Z"/><polygon class="i" points="137.622 62.604 137.403 63.167 137.184 63.73 131.067 62.106 124.95 60.481 131.286 61.542 137.622 62.604"/><polygon class="i" points="138.391 60.609 138.172 61.173 137.953 61.736 131.836 60.111 125.72 58.486 132.055 59.548 138.391 60.609"/><polygon class="i" points="137.994 61.617 137.775 62.18 137.556 62.744 131.439 61.119 125.323 59.494 131.658 60.555 137.994 61.617"/><polygon class="i" points="138.772 59.661 138.553 60.224 138.335 60.788 132.218 59.163 126.101 57.538 132.437 58.599 138.772 59.661"/><polygon class="i" points="143.007 62.434 140.076 63.082 137.145 63.73 137.913 61.656 138.682 59.582 140.844 61.008 143.007 62.434"/><path class="i" d="M150.44838,63.23184c3.196.52366,6.15586.88366,8.80814,1.15445l-.37953,1.3532c-2.83962-.69066-5.75294-1.41582-8.472-1.91951a71.2452,71.2452,0,0,0-9.64189-1.08481q-1.15658-.05527-2.4153-.08161l1.74357-1.57753q.47052.12019,1.0053.25157C143.39868,61.89206,146.5792,62.59744,150.44838,63.23184Z"/><path class="i" d="M176.1943,36.26763l-.39453.6084-4.10157-1.47852a.361.361,0,0,0-.46289.16993L169.14059,38.794l-.57227-.207,2.27246-3.499a.9234.9234,0,0,1,.46387-.37109.77261.77261,0,0,1,.54-.01758ZM173.956,39.71587l-.39551.60938-3.2334-1.166.39453-.6084Z"/><path class="i" d="M179.541,31.11431l-1.87207,2.88281-.57227-.207,1.47656-2.27344-2.32617-.83886a1.68077,1.68077,0,0,0-2.21582.585,1.46544,1.46544,0,0,0-.27148,1.125,1.22225,1.22225,0,0,0,.59082.84863l2.7539,1.63184-.3955.60839-2.74707-1.6416a2.68685,2.68685,0,0,0-.35938-.19238,1.873,1.873,0,0,0-.9873-.01758l-.958.20606.44824-.69043a4.21864,4.21864,0,0,1,1.44629-.17969,1.6865,1.6865,0,0,1-.373-.94824,2.08125,2.08125,0,0,1,.39551-1.13379,2.15645,2.15645,0,0,1,1.3916-1.001,2.73763,2.73763,0,0,1,1.53321.14063Z"/><path class="i" d="M182.36031,26.77349l-.3955.6084L178.3691,26.086a1.1046,1.1046,0,0,0-.71582-.06445,1.28942,1.28942,0,0,0-.582.55957l-1.40332,2.16015-.57226-.20507,1.52148-2.34375a1.5552,1.5552,0,0,1,1.97656-.77735Z"/><path class="i" d="M184.18453,23.96392l-.39453.6084L179.66988,23.087a.34437.34437,0,0,0-.23925.0332.453.453,0,0,0-.21192.1543l-.73828,1.13672-.57226-.207.92285-1.41992a.78346.78346,0,0,1,.99609-.3916Z"/><path class="i" d="M186.3193,20.67779l-.39551.6084-1.59082-.43555a2.32008,2.32008,0,0,1,.37305,2.4375l-.6211-.22266a2.35074,2.35074,0,0,0-.04687-1.708,1.143,1.143,0,0,0-.83594-.76464l-1.66113-.38575a.40923.40923,0,0,0-.46582.208l-.5459.8418-.57227-.20606.71778-1.10644a1.01584,1.01584,0,0,1,.457-.42969.975.975,0,0,1,.57422.001Z"/><path class="i" d="M189.43453,15.87994l-.39551.60937-4.10156-1.47949a.35908.35908,0,0,0-.46191.1709l-2.0957,3.22558-.57227-.20605,2.27246-3.5a.92348.92348,0,0,1,.46387-.3711.78629.78629,0,0,1,.541-.01757Zm-2.23926,3.44921-.3955.6084-3.2334-1.166.39551-.6084Z"/><path class="i" d="M195.25094,6.92486l-.39551.6084L191.18356,6.209a.90415.90415,0,0,0-.63965.03222,1.11841,1.11841,0,0,0-.54981.44043l-1.10644,1.7041,3.82422,1.37891q.5625.20216.16015.82129l-.55273.85254-.57227-.207.55957-.86231-3.81445-1.375-.50684.78028-.57226-.20508,2.07422-3.19531a1.97221,1.97221,0,0,1,.90234-.76368,1.40413,1.40413,0,0,1,1.05469-.05859Z"/><path class="i" d="M197.02926,4.1856l-.39551.6084-4.12012-1.48535a.34848.34848,0,0,0-.23925.03222.45916.45916,0,0,0-.21192.15528l-.7373,1.13574-.57227-.20508.92188-1.4209a.78379.78379,0,0,1,.99609-.3916Z"/><path class="i" d="M199.06442,1.05181,197.4902,3.47564l-.57227-.207,1.166-1.79492L194.6611.52837a.77263.77263,0,0,0-.91895.38184l-.51367.79-.57227-.20606.74414-1.1455a1.277,1.277,0,0,1,.59864-.50391,1.06018,1.06018,0,0,1,.71386-.04883Z"/><path class="i" d="M183.76852,41.45806l3.61914,1.31738-.38867.59864-3.625-1.30664a2.69813,2.69813,0,0,0-1.38672-.14942,1.79693,1.79693,0,0,0-1.29492.835l-.71778,1.10547,1.33106.86816a.26816.26816,0,0,0,.41015-.10644l.44532-.68652.57324.206-.53711.82813a1.0922,1.0922,0,0,1-.5.42382.76554.76554,0,0,1-.57324.03223.74753.74753,0,0,1-.11817-.05469L179.06637,44.17l1.10644-1.7041a2.58446,2.58446,0,0,1,1.71582-1.21A3.54669,3.54669,0,0,1,183.76852,41.45806Z"/><path class="i" d="M188.665,35.55083a1.24165,1.24165,0,0,1,.81055,1.38086,3.857,3.857,0,0,1-.67774,1.89649A5.02385,5.02385,0,0,1,187.2236,40.376a2.21755,2.21755,0,0,1-1.94043.36426l-3.24219-1.169.39551-.6084,3.09863,1.11719a1.60438,1.60438,0,0,0,.59375.10156,2.3234,2.3234,0,0,0,.292-1.24707.91511.91511,0,0,0-.65039-.84765l-2.24023-.80762.39453-.6084,2.38476.85938q1.26856.457.501,2.50878a3.76394,3.76394,0,0,0,1.415-1.417,3.21057,3.21057,0,0,0,.57715-1.46972.94582.94582,0,0,0-.67578-1.04493l-3.09961-1.11718.3955-.6084Z"/><path class="i" d="M195.85543,27.74126l-.39551.6084-3.5957-1.29687a1.10493,1.10493,0,0,0-.71582-.06446,1.292,1.292,0,0,0-.582.56055L189.16305,29.709l-.57227-.20606,1.52149-2.34277a1.556,1.556,0,0,1,1.97656-.77832Z"/><path class="i" d="M197.22457,21.89947a1.53068,1.53068,0,0,1,1.082,1.123,2.304,2.304,0,0,1-.44726,1.75977,3.64364,3.64364,0,0,1-1.6377,1.38867,2.51033,2.51033,0,0,1-1.90039.12793l-2.957-1.06641.39551-.60839,2.91211,1.0498a1.92426,1.92426,0,0,0,1.41894-.07715,2.60244,2.60244,0,0,0,1.21582-1.01367,1.59735,1.59735,0,0,0,.31543-1.28223,1.20458,1.20458,0,0,0-.83691-.80761l-1.90235-.68653a.58932.58932,0,0,0-.50683.05567,1.22184,1.22184,0,0,0-.42871.4082c-.3125.48047-.2959.78223.0459.90527l.998.36036-.39453.60839-1.10449-.39746a.662.662,0,0,1-.4668-.69433,1.89475,1.89475,0,0,1,.34961-.98926,2.06073,2.06073,0,0,1,.90821-.81738,1.43579,1.43579,0,0,1,1.081-.01661Z"/><path class="i" d="M200.7568,16.8399a1.32634,1.32634,0,0,1,.88476,1.10156,2.18926,2.18926,0,0,1-.36132,1.62793,3.30349,3.30349,0,0,1-1.4795,1.24414,2.254,2.254,0,0,1-1.71093.13476l-2.62305-.94628-.23047.35546-.57227-.206,2.4961-3.84375a1.04022,1.04022,0,0,1,.45019-.43262.79638.79638,0,0,1,.55274.0293Zm-.49024.57421-2.52734-.91113-1.87695,2.89063,2.52734.91113a1.70752,1.70752,0,0,0,1.24707-.06348,2.23945,2.23945,0,0,0,1.07129-.87793,1.5345,1.5345,0,0,0,.2832-1.18066A1.03831,1.03831,0,0,0,200.26656,17.41411Z"/><path class="i" d="M206.03707,12.06255l-.46094.71-4.7539,1.32129q-.25927.76026,2.05566,1.74512l.64063-.98633.57226.207-.80468,1.23926a.46362.46362,0,0,1-.3877.19922.90375.90375,0,0,1-.40527-.04688q-2.43311-.876-2.37012-2.16992l-1.95117.61231-.06348-.04688.48242-.74219,3.6416-1.02343q-.4043-1.38722-.87207-1.55664c-.209-.0752-.36132-.042-.45312.10058l-.53516.82422-.57226-.206.68164-1.05078a.86963.86963,0,0,1,1.1289-.37891q.77345.27832,1.25,2.081l3.0918-.86328Z"/><path class="i" d="M209.37789,6.918,207.5068,9.79986l-.57227-.207,1.47657-2.27344L206.083,6.48052a1.68112,1.68112,0,0,0-2.21484.585,1.46141,1.46141,0,0,0-.27149,1.125,1.22837,1.22837,0,0,0,.5918.84863l2.75195,1.63184-.39453.6084-2.74707-1.6416a2.53658,2.53658,0,0,0-.3584-.19141,1.88553,1.88553,0,0,0-.98828-.01855l-.958.206.44825-.69043a4.22419,4.22419,0,0,1,1.44726-.17969,1.6954,1.6954,0,0,1-.374-.94824,2.07325,2.07325,0,0,1,.39551-1.13379,2.1507,2.1507,0,0,1,1.3916-1.001,2.74887,2.74887,0,0,1,1.53418.13964Z"/><path class="i" d="M211.47945-2.62592q.35449.126.73731,1.20312.38232,1.07813.80176,1.22852l.792.28613-.39453.6084-.82031-.2959a1.38175,1.38175,0,0,1-.71582-.74707L211.458-1.39546c-.15234-.38085-.31543-.60156-.4873-.66406l-.76368-.27539a.24072.24072,0,0,0-.30859.11426L208.21871.36626a.499.499,0,0,1-.39746.26953,1.33313,1.33313,0,0,1-.42773-.10449L206.458.19439l.39551-.60938.94433.3418,1.69336-2.60742a.72647.72647,0,0,1,.94043-.32422Z"/><path class="l" d="M223.67988-4.60189a9.07077,9.07077,0,0,0-2.29962,2.38142c-2.73814,4.21635-.37077,9.28837,5.28768,11.32868s12.46522.27627,15.20336-3.94008.37076-9.28837-5.28768-11.32867a14.894,14.894,0,0,0-7.44989-.64143"/><line class="m" x1="228.76022" y1="2.50112" x2="226.56793" y2="2.61014"/><path class="m" d="M235.25127,2.319l.40636-.62573c.59406-.91477.08044-2.0152-1.14721-2.45786L234.0461-.932c-1.84421-.665-4.68838-.31565-5.5808,1.05855-1.521,2.34205,2.4888,3.89562,4.36895,5.3046.46589.418,1.103.77393.93574,1.38814-.24383.89538-1.741.95518-2.7182.89307a11.35935,11.35935,0,0,1-3.09451-.58947c-4.187-1.50974-5.93873-5.26277-3.91265-8.38265,2.05638-3.16654,7.21407-4.46381,11.437-2.84581,4,1.53259,5.67923,5.19127,3.77889,8.229a6.49134,6.49134,0,0,1-1.36115,1.5399"/><polygon class="n" points="229.591 20.735 208.729 52.86 190.693 46.357 211.555 14.232 229.591 20.735"/><polygon class="i" points="216.685 38.057 215.107 40.488 199.756 34.952 201.334 32.522 216.685 38.057"/><polygon class="i" points="217.749 36.419 216.96 37.635 201.608 32.099 202.398 30.884 217.749 36.419"/><polygon class="i" points="220.571 32.073 220.177 32.681 204.825 27.146 205.22 26.538 220.571 32.073"/><polygon class="i" points="219.99 32.969 218.991 34.507 203.64 28.971 204.638 27.433 219.99 32.969"/><polygon class="i" points="218.71 34.94 217.921 36.155 202.569 30.62 203.358 29.404 218.71 34.94"/><polygon class="i" points="222.518 29.075 220.94 31.505 205.589 25.97 207.167 23.54 222.518 29.075"/><polygon class="i" points="223.582 27.437 222.793 28.652 207.442 23.117 208.231 21.902 223.582 27.437"/><polygon class="i" points="226.404 23.091 226.01 23.699 210.658 18.163 211.053 17.556 226.404 23.091"/><polygon class="i" points="225.823 23.987 224.824 25.525 209.473 19.989 210.472 18.451 225.823 23.987"/><polygon class="i" points="224.543 25.958 223.754 27.173 208.402 21.638 209.192 20.422 224.543 25.958"/><polygon class="i" points="210.912 46.947 209.334 49.377 193.982 43.842 195.561 41.412 210.912 46.947"/><polygon class="i" points="211.976 45.309 211.187 46.524 195.835 40.989 196.625 39.774 211.976 45.309"/><polygon class="i" points="214.798 40.963 214.404 41.571 199.052 36.036 199.447 35.428 214.798 40.963"/><polygon class="i" points="214.217 41.859 213.218 43.397 197.867 37.861 198.865 36.323 214.217 41.859"/><polygon class="i" points="212.937 43.83 212.147 45.045 196.796 39.51 197.585 38.294 212.937 43.83"/></g><g class="o"><polygon class="f" points="323.556 6.729 214.604 1.454 175.315 -31.055 284.267 -25.78 323.556 6.729"/><polygon class="g" points="333.248 14.748 224.296 9.473 191.884 -17.346 300.836 -12.071 333.248 14.748"/><polygon class="n" points="217.03 -26.925 258.932 7.698 238.959 6.746 197.057 -27.878 217.03 -26.925"/><polygon class="i" points="250.364 1.776 253.534 4.396 236.534 3.585 233.364 0.965 250.364 1.776"/><polygon class="i" points="248.228 0.011 249.813 1.321 232.813 0.51 231.228 -0.8 248.228 0.011"/></g></g><g class="p"><path class="c" d="M-132.76709-113.3278c.28777-.42608.57771-.84687.87269-1.26927a106.311,106.311,0,0,1,55.35228-40.2423c23.84386-7.58419,49.04252-7.05033,72.502.06465.23838.07353.48174.14547.72727.22271L6.33362-40.5572,15.68018,69.86913l.3394,4.00993L-58.69465-20.12412Z"/><polygon class="d" points="24.029 -107.504 -3.313 -154.552 16.02 73.879 24.029 -107.504"/><g class="r"><polygon class="f" points="57.61 0.445 -4.406 -79.584 -1.262 -130.675 60.755 -50.646 57.61 0.445"/><polygon class="g" points="56.835 13.049 -5.182 -66.98 -2.588 -109.129 59.429 -29.1 56.835 13.049"/></g></g><g class="s"><path class="c" d="M-136.95286,24.97509c-.05709-.34868-.10922-.69559-.15864-1.04557-2.09685-15.2657,2.75976-31.0835,15.45367-45.44229C-108.82171-36.03243-89.83864-46.94485-67.9719-53.673c.223-.06772.44863-.13849.67925-.20747L12.08485.93692,88.979,54.03742l2.79227,1.92824-114.85285-15.56Z"/><polygon class="d" points="-17.247 -41.629 -67.293 -53.88 91.771 55.966 -17.247 -41.629"/><g class="t"><polygon class="f" points="0.102 -20.412 -73.486 48.175 -124.329 26.259 -50.742 -42.328 0.102 -20.412"/><polygon class="g" points="12.644 -15.006 -60.943 53.582 -102.887 35.501 -29.3 -33.086 12.644 -15.006"/><g class="u"><ellipse class="i" cx="-39.50189" cy="41.6655" rx="27.9117" ry="45.76573" transform="translate(-77.96104 -0.96437) rotate(-85.52873)"/></g></g><g class="v"><polygon class="g" points="83.422 6.305 -13.18 -7.649 -37.971 -30.653 58.631 -16.699 83.422 6.305"/></g></g><g class="w"><path class="c" d="M303.11742-160.31022c.68491-.0174,1.3658-.02983,2.05237-.03905,29.941-.34072,60.18559,6.66035,86.722,21.6838,26.83367,15.19176,45.96588,36.37666,56.6354,60.07059.10708.2415.21978.48618.32846.73583L333.376-1.46739,221.51292,72.5346l-4.0621,2.68724L260.46456-43.04977Z"/><polygon class="d" points="419.466 -26.988 448.856 -77.859 217.451 75.222 419.466 -26.988"/><g class="x"><polygon class="g" points="364.34 1.053 239.02 -84.26 278.856 -125.948 404.175 -40.635 364.34 1.053"/></g><g class="y"><polygon class="f" points="329.23 65.594 367.095 -33.778 424.692 -61.833 386.827 37.54 329.23 65.594"/><polygon class="g" points="315.021 72.515 352.886 -26.858 400.402 -50.002 362.538 49.371 315.021 72.515"/><polygon class="z" points="407.164 -24.322 345.804 5.61 352.725 -12.61 414.086 -42.542 407.164 -24.322"/><polygon class="i" points="356.689 -0.804 352.047 1.461 357.938 -14.048 362.58 -16.313 356.689 -0.804"/></g></g><g class="aa"><path class="c" d="M361.76666,181.06251c-.33467.43-.67231.85485-1.01614,1.28151-15.05638,18.57416-37.721,33.45149-66.62083,41.80741-29.22361,8.44953-60.56856,8.99776-90.10684,3.01992-.30022-.06195-.60655-.12213-.91585-.18741L184.97334,115.634,167.4048,7.76984l-.638-3.91689,97.92026,88.983Z"/><polygon class="d" points="166.591 182.021 203.107 226.984 166.767 3.853 166.591 182.021"/><g class="ab"><g class="ac"><ellipse class="i" cx="282.60428" cy="101.61557" rx="42.90005" ry="54.65827" transform="translate(96.16914 337.05738) rotate(-71.40296)"/></g></g><g class="ad"><polygon class="f" points="119.038 77.616 200.424 153.439 199.27 203.663 117.884 127.839 119.038 77.616"/><polygon class="g" points="119.322 65.226 200.708 141.05 199.757 182.483 118.371 106.659 119.322 65.226"/></g></g><g class="ae"><path class="c" d="M214.148-113.47432c.68343.03453,1.36219.07319,2.04614.11513,29.81858,1.8836,58.9219,10.32817,83.22657,25.6468,24.577,15.49025,40.6658,35.75559,47.99227,57.63736.073.22291.15119.44906.22467.67934L222.22878,30.20539l-121.48171,57.737L96.33569,90.039l59.1556-102.19374Z"/><polygon class="d" points="311.366 13.764 347.638 -29.396 96.336 90.039 311.366 13.764"/><g class="af"><polygon class="f" points="266.24 24.479 153.449 -60.657 208.463 -102.135 321.254 -16.999 266.24 24.479"/><polygon class="g" points="252.668 34.712 139.878 -50.424 185.263 -84.643 298.054 0.493 252.668 34.712"/><g class="ag"><ellipse class="i" cx="157.26454" cy="-27.63732" rx="56.49064" ry="41.51046" transform="translate(8.74353 30.99261) rotate(-11.57479)"/></g><path class="i" d="M279.25777.74224l-.6875-.51953,1.251-1.13281a5.38084,5.38084,0,0,1-3.5459-.50879l.5625-.42383a5.41292,5.41292,0,0,0,2.39453.52734,1.87308,1.87308,0,0,0,1.4043-.418l1.209-1.207c.13964-.13769.10644-.28613-.10059-.4414l-.95117-.71778.51855-.39062,1.25.94336c.25977.19531.39746.36523.41406.50781a.58283.58283,0,0,1-.23437.46191Z"/><path class="i" d="M267.17672,2.73638a4.28448,4.28448,0,0,1-1.97363.19336,4.03936,4.03936,0,0,0-2.03614.2373l-.71777.541-.6875-.51953.74414-.56055a2.47449,2.47449,0,0,1,1.3291-.32715l1.6377.00977a2.185,2.185,0,0,0,1.12012-.1709l.69238-.52148q.17284-.13038-.03223-.28614L264.33-.874c-.19824-.14942-.27051-.28613-.21387-.40918a1.06976,1.06976,0,0,1,.31739-.30762l.84668-.63867.6875.51855-.85547.64551,2.94433,2.22266q.60792.45849.07129.86133Z"/><path class="i" d="M272.64547,9.05572a2.55322,2.55322,0,0,1-2.251.19238,6.91212,6.91212,0,0,1-2.36523-1.17188,4.76336,4.76336,0,0,1-1.51856-1.77734,1.24577,1.24577,0,0,1,.27637-1.67871l2.93945-2.21582.68848.51953L267.60543,5.042a1.17167,1.17167,0,0,0-.38183.44239,4.60566,4.60566,0,0,0,1.61816.64746,1.76083,1.76083,0,0,0,1.44336-.24121l2.03223-1.53125.6875.51855-2.16114,1.62988q-1.15137.86719-3.69726-.42871a3.54044,3.54044,0,0,0,1.40136,1.60547,5.52726,5.52726,0,0,0,1.8125.94922,1.89738,1.89738,0,0,0,1.72754-.19531l2.80957-2.11817.6875.51954Z"/><path class="ah" d="M264.99318,13.18523a8.972,8.972,0,0,0-2.38568-2.6354c-4.76323-3.59537-12.78314-3.37462-17.913.49306s-5.427,9.91767-.66381,13.513,12.78315,3.37462,17.913-.49306a9.75123,9.75123,0,0,0,3.9067-5.76954"/><line class="ai" x1="253.04787" y1="14.91161" x2="253.78288" y2="13.11516"/><path class="ai" d="M250.67572,20.18406l.70689.53357a3.41877,3.41877,0,0,0,3.88639-.107l.42094-.31738c1.67193-1.26056,2.336-3.66006.78359-4.83187-2.64583-1.99711-6.431.708-9.15343,1.75092a3.27452,3.27452,0,0,1-2.31136.29152c-1.1481-.49239-.62575-1.71437-.144-2.47847a8.5727,8.5727,0,0,1,2.07256-2.28953c3.79585-2.86191,9.73018-3.02525,13.25472-.36487,3.57726,2.70018,3.29722,7.27139-.6639,10.12626-3.752,2.7042-9.52566,2.84057-12.98662.30838a6.893,6.893,0,0,1-1.59357-1.60308"/><polygon class="aj" points="227.323 9.538 191.031 -17.855 207.382 -30.183 243.674 -2.79 227.323 9.538"/><polygon class="i" points="218.571 1.097 215.826 -0.976 229.743 -11.469 232.489 -9.396 218.571 1.097"/><polygon class="i" points="220.422 2.493 219.049 1.457 232.966 -9.036 234.339 -8 220.422 2.493"/><polygon class="i" points="225.331 6.199 224.645 5.681 238.562 -4.812 239.248 -4.294 225.331 6.199"/><polygon class="i" points="224.32 5.436 222.582 4.124 236.499 -6.369 238.237 -5.057 224.32 5.436"/><polygon class="i" points="222.093 3.755 220.72 2.719 234.637 -7.774 236.01 -6.738 222.093 3.755"/></g><g class="ak"><polygon class="f" points="208.815 89.629 260.233 3.891 321.391 -16.887 269.973 68.85 208.815 89.629"/><polygon class="g" points="193.728 94.755 245.146 9.017 295.6 -8.125 244.182 77.613 193.728 94.755"/><polygon class="aj" points="298.765 15.241 233.606 37.417 243.012 21.695 308.172 -0.481 298.765 15.241"/><polygon class="i" points="263.349 26.362 258.419 28.04 266.426 14.658 271.355 12.98 263.349 26.362"/><polygon class="i" points="266.672 25.232 264.207 26.071 272.213 12.688 274.678 11.85 266.672 25.232"/><polygon class="i" points="275.486 22.232 274.254 22.651 282.26 9.269 283.492 8.85 275.486 22.232"/><polygon class="i" points="273.67 22.85 270.551 23.912 278.557 10.529 281.676 9.468 273.67 22.85"/><polygon class="i" points="269.672 24.21 267.207 25.049 275.213 11.667 277.678 10.828 269.672 24.21"/><polygon class="i" points="281.568 20.162 276.638 21.84 284.644 8.458 289.574 6.78 281.568 20.162"/><polygon class="i" points="284.89 19.031 282.426 19.87 290.432 6.488 292.897 5.649 284.89 19.031"/><polygon class="i" points="293.705 16.031 292.473 16.451 300.479 3.069 301.711 2.649 293.705 16.031"/><polygon class="i" points="291.889 16.649 288.769 17.711 296.776 4.329 299.895 3.267 291.889 16.649"/><polygon class="i" points="287.891 18.01 285.426 18.849 293.432 5.467 295.897 4.628 287.891 18.01"/><polygon class="i" points="245.318 32.499 240.388 34.177 248.394 20.795 253.324 19.117 245.318 32.499"/><polygon class="i" points="248.64 31.368 246.175 32.207 254.181 18.825 256.646 17.986 248.64 31.368"/><polygon class="i" points="257.455 28.368 256.222 28.788 264.229 15.406 265.461 14.986 257.455 28.368"/><polygon class="i" points="255.639 28.987 252.519 30.048 260.525 16.666 263.645 15.604 255.639 28.987"/><polygon class="i" points="251.641 30.347 249.176 31.186 257.182 17.804 259.647 16.965 251.641 30.347"/></g></g><g class="al"><path class="c" d="M323.54922-242.47422c.59043-.34786,1.18042-.68812,1.77742-1.02741,26.07287-14.72636,56.99426-21.19716,89.66689-16.7127,33.03868,4.5347,63.05644,19.61476,87.21058,41.618.24474.22506.49638.45108.74759.6847L449.24658-75.20529,397.22507,63.035,395.336,68.055,359.28549-87.87455Z"/><polygon class="d" points="508.898 -145.63 502.952 -217.912 395.336 68.055 508.898 -145.63"/></g><g class="am"><path class="c" d="M201.83944-149.6213c.45975-.276.92031-.54729,1.38711-.81877,20.401-11.80066,46.30364-19.10161,75.432-19.92239A192.18473,192.18473,0,0,1,361.01421-154.501c.24793.11044.502.2207.75691.33564L337.20507-61.43578,313.41033,28.39148l-.86407,3.26191L256.95284-59.37174Z"/><polygon class="d" points="378.174 -110.8 361.771 -154.165 312.546 31.653 378.174 -110.8"/></g></svg>