<svg xmlns="http://www.w3.org/2000/svg" xmlns:xlink="http://www.w3.org/1999/xlink" viewBox="0 0 141.811 124.14586"><defs><style>.a{fill:url(#a);}.b{fill:#e2b246;}.b,.c,.d,.e,.f,.g,.h,.i,.j,.k,.l,.m,.n,.o,.p,.q,.r,.s{stroke:#fff;stroke-miterlimit:10;stroke-width:0.41832px;}.c{fill:url(#b);}.d{fill:url(#c);}.e{fill:url(#d);}.f{fill:url(#e);}.g{fill:url(#f);}.h{fill:url(#g);}.i{fill:url(#h);}.j{fill:url(#i);}.k{fill:url(#j);}.l{fill:url(#k);}.m{fill:url(#l);}.n{fill:url(#m);}.o{fill:url(#n);}.p{fill:url(#o);}.q{fill:url(#p);}.r{fill:url(#q);}.s{fill:url(#r);}.t{fill:#44563d;}.u{fill:none;}.v{fill:#6f8763;}.w{fill:#2d3f27;}.x{fill:#6e8268;}.y{fill:#2a3823;}.z{fill:#fff;}</style><linearGradient id="a" x1="27.33253" y1="28.79006" x2="123.44849" y2="28.79006" gradientUnits="userSpaceOnUse"><stop offset="0.0051" stop-color="#d1aa07"/><stop offset="1" stop-color="#e08534"/></linearGradient><linearGradient id="b" x1="67.04546" y1="43.48765" x2="81.4071" y2="43.48765" gradientUnits="userSpaceOnUse"><stop offset="0" stop-color="#e97f24"/><stop offset="0.10204" stop-color="#fcb316"/><stop offset="0.19898" stop-color="#e97f24"/><stop offset="0.29082" stop-color="#fcb316"/><stop offset="0.34184" stop-color="#e97f24"/><stop offset="0.40816" stop-color="#fcb316"/><stop offset="0.4898" stop-color="#e97f24"/><stop offset="0.56633" stop-color="#fcb316"/><stop offset="0.63265" stop-color="#e97f24"/><stop offset="0.71939" stop-color="#fcb316"/><stop offset="0.80612" stop-color="#e97f24"/><stop offset="0.87245" stop-color="#fcb316"/><stop offset="0.95408" stop-color="#e97f24"/></linearGradient><linearGradient id="c" x1="-155.99673" y1="173.7052" x2="-139.49794" y2="173.7052" gradientTransform="translate(163.83277 -171.07102) rotate(-20)" xlink:href="#b"/><linearGradient id="d" x1="-436.59432" y1="210.42357" x2="-416.80676" y2="210.42357" gradientTransform="matrix(0.74314, -0.66913, 0.66913, 0.74314, 267.30039, -400.44419)" xlink:href="#b"/><linearGradient id="e" x1="-716.51373" y1="126.26698" x2="-702.36962" y2="126.26698" gradientTransform="translate(280.82061 -656.71331) rotate(-65)" xlink:href="#b"/><linearGradient id="f" x1="-895.84328" y1="-21.24168" x2="-890.39028" y2="-21.24168" gradientTransform="translate(226.72939 -846.01618) rotate(-83)" xlink:href="#b"/><linearGradient id="g" x1="-1042.65292" y1="-308.16869" x2="-1033.548" y2="-308.16869" gradientTransform="matrix(-0.25416, -0.96716, 0.96716, -0.25416, 130.95642, -1045.00292)" xlink:href="#b"/><linearGradient id="h" x1="-1088.13165" y1="-541.01387" x2="-1071.15294" y2="-541.01387" gradientTransform="translate(-76.13634 -1159.97707) rotate(-124.72362)" xlink:href="#b"/><linearGradient id="i" x1="-1032.50733" y1="-806.52393" x2="-1014.04574" y2="-806.52393" gradientTransform="translate(-324.27459 -1201.75039) rotate(-146.72362)" xlink:href="#b"/><linearGradient id="j" x1="-862.47002" y1="-1046.58556" x2="-848.2894" y2="-1046.58556" gradientTransform="translate(-575.56487 -1149.69414) rotate(-169.72362)" xlink:href="#b"/><linearGradient id="k" x1="-667.79097" y1="-1181.52062" x2="-653.03199" y2="-1181.52062" gradientTransform="translate(-744.90396 -1049.26651) rotate(172.27638)" xlink:href="#b"/><linearGradient id="l" x1="-228.72817" y1="-1434.44079" x2="-209.59684" y2="-1434.44079" gradientTransform="matrix(-0.85661, 0.51596, -0.51596, -0.85661, -868.38929, -1081.56393)" xlink:href="#b"/><linearGradient id="m" x1="67.01048" y1="-1315.27297" x2="85.66238" y2="-1315.27297" gradientTransform="translate(-920.4651 -850.49126) rotate(128.93845)" xlink:href="#b"/><linearGradient id="n" x1="330.53822" y1="-1087.24331" x2="341.13859" y2="-1087.24331" gradientTransform="translate(-890.74981 -600.62208) rotate(106.93845)" xlink:href="#b"/><linearGradient id="o" x1="494.34618" y1="-773.16301" x2="499.00768" y2="-773.16301" gradientTransform="matrix(0.1056, 0.99441, -0.99441, 0.1056, -770.10717, -374.12261)" xlink:href="#b"/><linearGradient id="p" x1="525.32977" y1="-505.41886" x2="538.82319" y2="-505.41886" gradientTransform="translate(-626.09947 -239.87204) rotate(65.93845)" xlink:href="#b"/><linearGradient id="q" x1="548.40896" y1="-159.6248" x2="567.44009" y2="-159.6248" gradientTransform="matrix(0.75541, 0.65525, -0.65525, 0.75541, -468.55169, -203.43306)" xlink:href="#b"/><linearGradient id="r" x1="123.18601" y1="-19.95405" x2="130.78779" y2="-13.36025" gradientTransform="translate(-64.85149 45.77733) rotate(6.47782)" xlink:href="#b"/></defs><path class="a" d="M123.30359,36.61822C120.889,48.5253,101.83445,57.58013,75.35094,57.58013S28.80968,48.107,27.39828,36.61822C25.98926,25.14871,47.40992,0,73.89344,0S125.59328,25.3272,123.30359,36.61822Z"/><path class="b" d="M73.42313,26.73232c-25.427,0-46.03963,5.07578-46.03963,11.33707S47.99615,49.40647,73.42313,49.40647s46.03966-5.07578,46.03966-11.33708S98.85014,26.73232,73.42313,26.73232ZM76.18591,38.3247a5.75142,5.75142,0,0,1-1.24746.123,8.69388,8.69388,0,0,1-1.21972-.08822c-.26553-.04333-.50653-.09282-.73341-.14675-.3378-.08028-.49577-.18558-.51672-.29692-.021-.11184.20808-.2169.51672-.29692a5.79735,5.79735,0,0,1,1.24746-.123,5.88557,5.88557,0,0,1,1.24746.123c.03161.00751.06609.01423.098.02163a4.9948,4.9948,0,0,1,.60767.09034c.34642.07569.49628.18833.51672.29693C76.72231,38.13238,76.4919,38.25187,76.18591,38.3247Z"/><path class="c" d="M81.4071,47.34984c0,1.27483-4.29662.93491-7.87728.93491-3.58124,0-6.48436.45189-6.48436-.82294v-1.3997l1.12746-1.38678,2.06486-2.38117,3.19232-3.68138,3.29146,3.66158,2.15285,2.39484,1.13743,1.26506v.002C80.013,45.94961,81.4071,47.33645,81.4071,47.34984Z"/><path class="d" d="M94.17927,46.13405c1.83184,1.19794-2.6941,1.22831-6.05882,1.5198-3.36526.29154-5.444.95252-7.27581-.24542l-2.01128-1.3153-.93322-1.39492L76.4189,42.29254l-2.29009-3.71925L82.4832,41.7461l5.46423,2.07515,2.88665,1.09618.0028.00183C90.85723,44.93175,94.16,46.12146,94.17927,46.13405Z"/><path class="e" d="M105.51212,43.71173c3.58382.94738-.56478,1.37909-3.22572,1.94937-2.66138.57038-3.54845,1.36857-7.13227.42119L91.21924,45.0421,88.15859,43.832,82.9991,41.73354l-7.97682-3.24423L87.7618,40.68617,96.0941,42.123l4.40165.759.00549.00146C100.53976,42.89319,105.47447,43.70178,105.51212,43.71173Z"/><path class="f" d="M112.1792,40.25252c-.051-.00566-5.92078-.291-5.97225-.29643l-.00743-.00083-5.29766-.28927L90.87327,39.1183l-14.66062-.80069-.02674.00709c-.05511.01312-.11933.02553-.1871.03745l12.20971,2.16321,8.19406,1.45176,4.80388.82929,5.32964.59154c4.85411.53877,4.36037-.27847,5.87385-1.051C113.92322,41.5745,117.03334,40.79129,112.1792,40.25252Z"/><path class="g" d="M113.24632,37.24255c-.05584-.00163-6.00884.15871-6.06481.15735l-.00816-.00024-5.41393.11455L91.51063,37.731,76.701,38.04413a.12846.12846,0,0,1-.04929.08338L90.803,39.26514l9.6778.778,5.64542.43536,5.83675.17058c5.316.15536,3.78542-.58556,4.22188-1.43162C116.62126,38.37156,118.56233,37.39792,113.24632,37.24255Z"/><path class="h" d="M115.3771,35.49546c-.91-.82428-.62087-1.89979-5.80092-1.57578-.05442.0034-5.3353.67681-5.38942.68048l-.00793.00049-4.85131.58338-9.18389,1.10426L76.62312,37.914a.27647.27647,0,0,1,.05039.05539l15.1985-.19348,10.2003-.12985,5.92147-.09291,5.68749-.35575C118.86135,36.87335,116.28729,36.31988,115.3771,35.49546Z"/><path class="i" d="M109.10524,32.297c-2.03959-.70049-3.31328-1.73467-7.71537-1.0085-.04623.00762-4.041,1.07032-4.08659,1.07817l-.00674.00112-3.72047.94312-7.0433,1.78531L76.15828,37.72584l.02763.005c.05269.01152.09247.02529.13632.03838l13.97221-1.41589,9.39858-.95241,5.43085-.56936,4.83331-.7973C114.35929,33.30811,111.14518,32.99756,109.10524,32.297Z"/><path class="j" d="M97.40764,29.54235c-2.99355-.46763-5.8021-1.31294-8.74078-.24714-.03088.0112-2.06227,1.35271-2.09214,1.36406l-.0045.00163L84.605,31.86709l-3.72063,2.28332-5.59271,3.43212c.029.00511.05616.0106.08354.0161l10.97548-2.618,7.21527-1.72107,4.13932-1.01214,3.22655-1.17021C103.87049,30.01139,100.40168,30.01005,97.40764,29.54235Z"/><path class="k" d="M81.36805,28.05416c-3.52321-.152-7.49614-.66895-8.45162.58543-.01.01318.32225,1.437.31338,1.45019l-.00146.00192.171,1.29308.3234,2.44783.48387,3.66361.02615-.00033c.03777,0,.07578.0022.11375.00284l5.77083-3.41029,3.81644-2.25529,2.14873-1.31665,1.0491-1.37726C88.08711,27.88486,84.89186,28.20623,81.36805,28.05416Z"/><path class="l" d="M60.41469,29.15894c-.71981-1.26326,3.72977-1.06387,7.27794-1.17841,3.54875-.11456,6.17038-.65522,6.89019.608l.79032,1.387-.33421,1.41026-.70165,2.42562-1.08473,3.75011-5.329-3.52308L64.438,31.73425,62.59657,30.517l-.0011-.00193C62.58675,30.50188,60.42225,29.17221,60.41469,29.15894Z"/><path class="m" d="M72.77371,37.68256l-5.15048-3.48133-3.39288-2.29332-2.0403-1.32639-3.03414-1.199c-2.76344-1.092-4.27073-.34841-7.33846.0914-3.06724.43974-7.48462.67623-4.72118,1.76826.029.01148,4.22946,1.02826,4.2595,1.03958l.00422.00167,3.71664.944,7.03544,1.78706L72.711,37.70673C72.73135,37.69859,72.75145,37.69041,72.77371,37.68256Z"/><path class="n" d="M38.79092,33.85218c-4.166-.80121-.3548-1.383,1.89559-2.046,2.25076-.663,2.5986-1.48451,6.76456-.6833l4.57406.8797,3.82318,1.0803,6.4836,1.87881,10.02393,2.90472L58.32167,36.17457l-9.179-1.10655-4.84892-.58449-.00639-.00123C44.24284,34.4741,38.83468,33.86059,38.79092,33.85218Z"/><path class="o" d="M34.33389,37.319c-5.12358-.37142-2.50565-1.25071-1.46244-2.066,1.04337-.81543.073-1.60812,5.19659-1.2367l5.62548.40779,5.245.66075,8.96843,1.1639,13.86557,1.79943-15.675-.31733-10.25217-.20753-5.41574-.10958-.00785-.00057C40.36764,37.40947,34.38771,37.32285,34.33389,37.319Z"/><path class="p" d="M36.12128,41.10093c-5.326.13462-4.35959-.91824-4.7377-1.76575-.37816-.84765-2.57265-1.48707,2.75334-1.62169l5.84772-.14781,5.91272.12042,10.16611.23729,15.71723.36685L56.83089,39.456,47.053,40.2184l-5.1651.40281-.00816.0002C41.824,40.62311,36.17723,41.09952,36.12128,41.10093Z"/><path class="q" d="M41.73188,43.81036c-4.89054.51977-5.33835-.55264-6.79825-1.33086-1.46013-.77835-4.37736-1.22506.51319-1.74483l5.36961-.57069,5.77967-.32037,9.97662-.52207L71.997,38.51439,59.29226,40.72265,50.98284,42.167l-4.38935.763-.00749.0008C46.53511,42.93647,41.78325,43.8049,41.73188,43.81036Z"/><path class="r" d="M54.84252,46.21818c-3.50946.963-5.81944.03613-8.52431-.52232-2.70532-.55854-6.1424-.67-2.63293-1.633l3.85324-1.05736,4.66934-.87174,8.11492-1.47673,12.546-2.28309-7.59352,3.27936-4.96643,2.14486-2.62336,1.133-.00538.00147C57.6441,44.943,54.87939,46.20806,54.84252,46.21818Z"/><path class="s" d="M72.92153,38.74234,70.0992,42.42561l-1.84552,2.40972L67.27726,46.108l-.00431.00158c-.02.01213-.95144,1.4213-.97493,1.43334-2.03959,1.17891-5.46759.47432-8.77822.149-3.311-.32445-6.71882-.17059-4.67613-1.34856l2.24378-1.29425L58.349,43.86949l5.72624-2.01408Z"/><path class="t" d="M134.03858,106.71438a4.24354,4.24354,0,0,1,.95379,2.56431c0,8.21166-28.78889,14.86717-64.30021,14.86717S6.392,117.49035,6.392,109.27869a4.07653,4.07653,0,0,1,.7446-2.26729l-5.183-23.42182c3.55992,4.727,11.508,8.88933,22.34257,11.98074.02928.00834.05857.01672.08367.02509q3.25035,1.04162,6.95669,1.92009c3.38.80735,7.02779,1.506,10.89308,2.08325a184.81211,184.81211,0,0,0,27.1156,1.92009,191.13708,191.13708,0,0,0,21.64814-1.1964.142.142,0,0,1,.04182-.00419A164.04515,164.04515,0,0,0,109.709,97.457c9.51263-2.05816,17.42727-4.84836,23.0035-8.13217a22.583,22.583,0,0,0,7.14494-6.07823Z"/><path class="t" d="M43.34229,51.85519c-.01254.0251-.02091.0502-.03345.07948l.00416-.0711C43.32138,51.85938,43.33394,51.85938,43.34229,51.85519Z"/><polyline class="u" points="42.025 118.624 42.025 118.544 42.426 97.774 42.447 96.683 43.154 59.979 43.309 51.935 43.313 51.864 43.313 51.826 43.359 49.404"/><ellipse class="v" cx="70.9055" cy="79.83677" rx="70.9055" ry="23.32145"/><ellipse class="w" cx="69.47229" cy="83.65847" rx="62.95739" ry="19.73435"/><ellipse class="x" cx="74.05569" cy="86.40402" rx="38.76596" ry="9.34552"/><path class="y" d="M110.2405,81.60406c0,7.50857-16.57507,13.59544-37.02145,13.59544S36.19759,89.11263,36.19759,81.60406,52.77267,28.17,73.21905,28.17,110.2405,74.09549,110.2405,81.60406Z"/><path class="w" d="M67.06137,94.91l.0251.06276c-17.52769-1.0709-30.88888-6.66386-30.88888-13.4072,0-7.17841,15.14325-49.4498,34.33584-53.16868C63.93649,43.70322,56.67025,69.39234,67.06137,94.91Z"/><path class="v" d="M70.4665,28.38009,69.18225,94.98944c-17.76194-.70277-31.7548-6.02384-32.91772-12.62494,1.1713,6.32083,14.09325,11.45362,30.80518,12.47433l-.0251-.06274C56.67862,69.32121,63.8821,43.699,70.4665,28.38009Z"/><path class="v" d="M97.36278,91.36257a60.807,60.807,0,0,1-6.26648,1.62728l-.02091,1.09181-.33465-1.01652L70.11749,30.53861l-.46433-1.40974-.31374-.94957-.06276-.18825c.07111.046.15059.092.23426.1464.12968.08367.27611.17571.43924.28445.06694.04185.13386.08786.205.13387.11295.0753.23426.15478.35977.24263,4.13719,2.79439,14.63288,11.006,21.28837,27.48792a75.38518,75.38518,0,0,1,2.991,9.04411A85.1562,85.1562,0,0,1,97.36278,91.36257Z"/><path class="t" d="M92.22339,48.96151c-.01253.02509-.02091.05019-.03344.07948l.00416-.07111C92.20248,48.96569,92.215,48.96569,92.22339,48.96151Z"/><polyline class="u" points="92.24 46.51 92.194 48.932 92.194 48.97 92.19 49.041 92.035 57.085"/><path class="t" d="M110.2405,81.92942c0,4.07864-4.89436,7.74314-12.64585,10.23216a85.1562,85.1562,0,0,0-2.5685-26.03214,75.381,75.381,0,0,0-2.991-9.04411C85.17469,40.10146,74.23975,31.89818,70.387,29.35478l-.03763,1.98284L69.885,29.92788l-.31374-.94958c.05854-.01674.11293-.02928.1715-.04184.205-.05439.41413-.1004.61911-.14641.01256,0,.02509-.00418.03766-.00418a14.17248,14.17248,0,0,1,2.81948-.28865C93.66242,28.49722,110.2405,74.42057,110.2405,81.92942Z"/><path class="v" d="M70.39957,28.70639v.07948l-.01257.56891-.03763,1.98284L69.885,29.92788c.0962-.23842.1966-.47687.297-.707.05857-.1464.12133-.28864.17988-.43086C70.37447,28.76077,70.387,28.73567,70.39957,28.70639Z"/><path class="v" d="M70.182,29.22091c.067.04185.13387.08786.205.13387l-.03763,1.98284L69.885,29.92788l-.31374-.94958-.06276-.18825c.07111.046.15059.092.23426.14641C69.87248,29.02013,70.0189,29.11217,70.182,29.22091Z"/><path class="z" d="M38.00386,72.86142a7.34264,7.34264,0,0,1,1.67383-.13476h.26953a62.68943,62.68943,0,0,0-.32422-6.45117h-.05371a5.74663,5.74663,0,0,1-1.67383-.26953l.70215-4.07618a39.30432,39.30432,0,0,0,4.91309.10743h3.58984c4.48047,0,4.9668,1.29589,4.9668,5.56054V76.9376H48.50386V69.00205c0-2.10547-.37793-2.72656-2.07812-2.72656h-3.2666c.10839,1.37695.2705,5.02051.2705,6.47851l-.56738,4.1836H39.86617a16.3889,16.3889,0,0,0-2.59082.16211Z"/><path class="z" d="M53.87984,62.19932l4.3457-.29688c.59375,2.915,1.21485,6.88379,1.7002,10.87793a12.52311,12.52311,0,0,0,1.80859-.26953,3.64708,3.64708,0,0,0,3.18555-3.752,2.42392,2.42392,0,0,0-2.53711-2.72657,6.72279,6.72279,0,0,0-1.75488.24317l.70214-4.1836a6.73377,6.73377,0,0,1,2.10547-.2705c3.99512,0,5.10156,3.293,5.10156,6.18164a8.142,8.142,0,0,1-6.72167,8.44824,36.74173,36.74173,0,0,1-4.77735.70215A134.61649,134.61649,0,0,0,53.87984,62.19932Z"/><path class="z" d="M71.6191,71.34971a8.82494,8.82494,0,0,0,1.70117-3.85938c0-.7832-.459-.94531-1.51172-1.1875-.59375-.16211-1.16113-.29687-1.67383-.48633l.64746-4.07617a14.63048,14.63048,0,0,0,1.72754.37793c3.42871.5127,4.42676,1.78223,4.42676,4.07617a11.96952,11.96952,0,0,1-2.53711,6.50489Z"/><path class="z" d="M80.36617,69.81162a14.55755,14.55755,0,0,1,.29687-3.58984c-.51367-.05469-1.59277-.13575-1.80859-.18946l.6748-4.12988a37.41616,37.41616,0,0,0,4.50781.13477H88.1396c4.45411,0,4.91309,1.80859,4.91309,6.04687V76.9376H89.48921V69.13682c0-2.21387-.32422-2.86133-2.13183-2.86133H83.9023V76.9376H80.36617Z"/><path class="z" d="M96.34956,66.19443A10.51,10.51,0,0,1,95.081,66.006l.70117-4.10352a42.17823,42.17823,0,0,0,4.48145.13477h5.02051c3.85937,0,4.45312,1.75488,4.45312,4.85937,0,5.77637-3.69727,9.042-7.36816,9.77149a32.84046,32.84046,0,0,1-4.07618.48535C97.78023,74.50791,96.67281,67.94932,96.34956,66.19443Zm6.31641,6.42383c2.59082-.53906,3.48145-2.67187,3.48145-4.69629,0-1.26855-.459-1.64648-2.10547-1.64648h-4.0752c.24219,1.40332.86328,4.80468,1.16016,6.58593A14.7617,14.7617,0,0,0,102.666,72.61826Z"/><path class="z" d="M74.56148,104.18174c-.29688-3.10449-2.34766-7.18067-4.10254-9.55567l4.99316-.35058a22.32065,22.32065,0,0,1,2.457,7.34179A3.17268,3.17268,0,0,0,79.90621,98.378a9.64245,9.64245,0,0,0-.83692-3.752l4.5625-.32422a8.94563,8.94563,0,0,1,.37793,2.75391c0,4.02149-2.29492,6.37012-5.83105,7.63867.02734.26953.05371,1.05274.05371,2.59082v7.28809h-3.5625V106.503A16.637,16.637,0,0,0,74.56148,104.18174Z"/><path class="z" d="M87.25191,103.74912a8.82479,8.82479,0,0,0,1.70117-3.85937c0-.78321-.459-.94532-1.51172-1.1875-.59375-.16211-1.16113-.29688-1.67383-.48633l.64746-4.07617a14.63127,14.63127,0,0,0,1.72754.37792c3.42871.5127,4.42676,1.78223,4.42676,4.07618a11.96941,11.96941,0,0,1-2.53711,6.50488Z"/><path class="z" d="M96.51265,101.26572c.21582-1.67285-.62109-2.42871-2.15918-2.64453l.70117-4.40039a4.36832,4.36832,0,0,1,4.373,3.48242,5.22845,5.22845,0,0,1,4.91309-3.48242c4.12988,0,5.18261,4.07617,5.18261,8.74609v2.26758c-.02734.37793-.54,3.69727-.56738,4.10254h-5.31738c-1.02539,0-2.13282.02734-2.53711.08106l.6748-4.12989a16.05814,16.05814,0,0,1,2.72559-.13476h1.377q.08056-1.01221.08106-2.02442c0-2.34863-.18848-4.66992-2.5918-4.66992-2.10449,0-2.834,2.26758-3.21191,3.80567-.43165,1.51171-1.0254,4.64257-1.43067,7.07226H95.18941C95.70308,106.55674,96.37789,102.61533,96.51265,101.26572Z"/></svg>