<svg xmlns="http://www.w3.org/2000/svg" xmlns:xlink="http://www.w3.org/1999/xlink" viewBox="0 0 412.23529 309"><defs><style>.a{fill:url(#a);}.b{fill:none;}.c{fill:#a3c3d3;}.d{fill:url(#b);}.e{fill:url(#c);}.f{fill:url(#d);}.g{fill:url(#e);}</style><linearGradient id="a" x1="99.00898" y1="154.5" x2="306.57898" y2="154.5" gradientUnits="userSpaceOnUse"><stop offset="0.32143" stop-color="#a3c3d3"/><stop offset="0.62245" stop-color="#53879c"/></linearGradient><linearGradient id="b" x1="99.00974" y1="14.34175" x2="306.57823" y2="14.34175" gradientUnits="userSpaceOnUse"><stop offset="0.29592" stop-color="#53879c"/><stop offset="0.61735" stop-color="#406d7e"/></linearGradient><linearGradient id="c" x1="143.02036" y1="300.35001" x2="264.099" y2="300.35001" xlink:href="#a"/><linearGradient id="d" x1="115.05468" y1="215.14" x2="290.06469" y2="215.14" gradientUnits="userSpaceOnUse"><stop offset="0.0051" stop-color="#d1aa07"/><stop offset="0.46429" stop-color="#ca7916"/><stop offset="1" stop-color="#b25d19"/></linearGradient><linearGradient id="e" x1="113.12995" y1="123.61" x2="290.06469" y2="123.61" gradientUnits="userSpaceOnUse"><stop offset="0" stop-color="#ca7916"/><stop offset="0.47449" stop-color="#b25d19"/><stop offset="1" stop-color="#b04f19"/></linearGradient></defs><path class="a" d="M305.449,22.38l-39.96,275.97c1.35.69,2.07,1.41,2.07,2.15,0,4.69-28.56,8.5-63.78,8.5-31.59,0-57.82-3.07-62.88-7.09l-.36-2.51L100.489,22.79a4.8923,4.8923,0,0,1-1.48-3.29c0-10.77,46.47-19.5,103.78-19.5,57.32,0,103.79,8.73,103.79,19.5A4.59578,4.59578,0,0,1,305.449,22.38Z"/><line class="b" x1="100.48898" y1="22.79" x2="100.00898" y2="19.5"/><line class="b" x1="141.00898" y1="302.67" x2="140.89898" y2="301.91"/><line class="b" x1="306.00898" y1="18.5" x2="305.44898" y2="22.38"/><line class="b" x1="265.48898" y1="298.35" x2="265.00898" y2="301.67"/><path class="c" d="M140.899,301.91a1.86882,1.86882,0,0,1-.89-1.41,1.60365,1.60365,0,0,1,.53-1.1Z"/><ellipse class="d" cx="202.79398" cy="14.34175" rx="103.78425" ry="13.34175"/><ellipse class="e" cx="203.55968" cy="300.35001" rx="60.53932" ry="8.5"/><path class="f" d="M290.06469,123.61l-24.96,172.41c1.35.69,2.07,1.41,2.07,2.15,0,4.69-28.56,8.5-63.78,8.5-31.59,0-57.82-3.07-62.88-7.09l-.36-2.51-25.1-173.37c18.46,5.4,50.69,8.97,87.36,8.97C239.27471,132.67,271.65471,129.06,290.06469,123.61Z"/><ellipse class="g" cx="201.59732" cy="123.61" rx="88.46737" ry="8.5"/></svg>