<svg xmlns="http://www.w3.org/2000/svg" xmlns:xlink="http://www.w3.org/1999/xlink" viewBox="0 0 216.35494 192.13427"><defs><style>.a{fill:url(#a);}.b{fill:url(#b);}.c{fill:#687f55;}.d{fill:#2d3f27;}.e{fill:url(#c);}.f{fill:url(#d);}.g{fill:#006838;}</style><linearGradient id="a" x1="752.72061" y1="-355.12336" x2="751.94607" y2="-210.5984" gradientTransform="matrix(-0.96557, 0.00517, -0.00521, -0.97131, 820.59733, -165.15672)" gradientUnits="userSpaceOnUse"><stop offset="0" stop-color="#f15a29"/><stop offset="0.34184" stop-color="#f7901f"/><stop offset="0.6607" stop-color="#f78d20"/><stop offset="0.85877" stop-color="#f68524"/><stop offset="1" stop-color="#f47929"/></linearGradient><linearGradient id="b" x1="5.11327" y1="143.7821" x2="186.55218" y2="91.75533" gradientUnits="userSpaceOnUse"><stop offset="0" stop-color="#f15a29"/><stop offset="0.15693" stop-color="#f57b23"/><stop offset="0.27551" stop-color="#f7901f"/><stop offset="0.53997" stop-color="#f78d1f"/><stop offset="0.70441" stop-color="#f68521"/><stop offset="0.84157" stop-color="#f47624"/><stop offset="0.963" stop-color="#f26228"/><stop offset="1" stop-color="#f15a29"/></linearGradient><linearGradient id="c" x1="-91.97946" y1="-213.45774" x2="-91.97946" y2="-289.81033" gradientTransform="matrix(0.93423, 0.21805, -0.19128, 0.81951, 138.46169, 257.50557)" gradientUnits="userSpaceOnUse"><stop offset="0" stop-color="#475337"/><stop offset="0.37755" stop-color="#006838"/><stop offset="1" stop-color="#4c5a41"/></linearGradient><linearGradient id="d" x1="414.09964" y1="-614.53851" x2="449.00019" y2="-594.38866" gradientTransform="translate(-339.40744 -475.93533) rotate(100.81164)" gradientUnits="userSpaceOnUse"><stop offset="0" stop-color="#009444"/><stop offset="0.47449" stop-color="#006838"/><stop offset="1" stop-color="#008f43"/></linearGradient></defs><path class="a" d="M4.07984,120.9388A68.6458,68.6458,0,0,1,9.43557,93.80159,22.6095,22.6095,0,0,0,10.51914,90.603c6.92134-27.0478,42.64622-47.52064,85.58509-47.31178,38.55294.19286,71.14291,17.00384,82.20306,40.06611a67.87275,67.87275,0,0,1,8.8923,33.51614c.18655,34.80916-25.08475,63.17137-56.448,63.33946a51.84663,51.84663,0,0,1-22.54231-5.02826,22.138,22.138,0,0,0-20.69325,1.15745,52.08523,52.08523,0,0,1-26.31259,7.32751C29.84023,183.83773,4.26639,155.748,4.07984,120.9388Z"/><path class="b" d="M189.66658,112.69563a70.31356,70.31356,0,0,1-5.69716,27.90855,23.18241,23.18241,0,0,0-1.13993,3.287c-7.31806,27.80788-44.42939,48.68783-88.89694,48.23589-39.92545-.41126-73.58324-17.8982-84.90945-41.70213A69.556,69.556,0,0,1,0,115.87057C0,80.03306,26.3291,50.97322,58.81068,50.97322a53.95843,53.95843,0,0,1,23.31754,5.301,23.0465,23.0465,0,0,0,21.43695-1.07744,54.18562,54.18562,0,0,1,27.29073-7.39858C163.33748,47.79823,189.66658,76.85812,189.66658,112.69563Z"/><ellipse class="c" cx="91.27005" cy="59.0249" rx="11.71219" ry="6.1948"/><ellipse class="d" cx="93.64256" cy="58.94481" rx="8.81079" ry="5.10154"/><path class="e" d="M86.83372,60.99369c12.743-20.16813,14.26686-33.71281,12.89705-42.65542-.87225-5.69436-3.25113-11.69889-.37757-15.31772,3.2118-4.04479,12.21349-4.13724,14.76434.38941,3.47971,6.175-7.66427,16.297-10.92157,36.93574a68.89068,68.89068,0,0,0-.56949,16.96573"/><path class="f" d="M164.48562,78.71949c-10.613-5.84747-29.22846-23.41089-38.13548-41.90206-5.94392-12.3397,44.905.46268,55.65184,6.06028,4.11831,2.14506,13.34015,10.592,20.24022,20.793,10.58612,15.65045,17.87081,34.375,9.77843,32.56686C194.34955,92.28911,173.789,83.8454,164.48562,78.71949Z"/><path class="g" d="M110.18071,14.69324c6.27755,5.26527,15.75122,12.97268,28.10823,22.14272,40.69889,30.20236,77.52034,50.18268,78.06,54.7357.14553,1.22776-2.393.9467-4.57908.21643-7.62978-2.54874-20.80278-13.85524-24.55024-16.99951-11.9983-10.06708-35.52441-27.20491-86.41134-58.08424Z"/></svg>