<svg xmlns="http://www.w3.org/2000/svg" viewBox="0 0 217.10265 217.10265"><defs><style>.a,.b{fill:none;stroke:#f7941d;stroke-linecap:round;stroke-width:10px;}.a{stroke-miterlimit:10;}.b{stroke-linejoin:round;}</style></defs><path class="a" d="M143.837,11.16735a103.61815,103.61815,0,1,0,45.79236,32.963"/><line class="b" x1="85.90533" y1="90.54762" x2="76.01941" y2="73.17398"/><path class="b" d="M113.62984,142.73663h8.48731a22.46641,22.46641,0,0,0,22.4664-22.46641v-4.69284c0-18.63943-15.11024-40.07355-33.74967-40.07355-31.76718,0-32.95136,41.09956-40.98565,63.9901-2.74821,6.03853-4.1348,13.14878-11.54791,15.04551-10.80676,2.765-17.397-9.17765-20.587-17.51065-3.45739-9.03188-5.78451-18.767-5.7846-28.477a76.54488,76.54488,0,1,1,55.44038,73.65662"/></svg>