<svg xmlns="http://www.w3.org/2000/svg" xmlns:xlink="http://www.w3.org/1999/xlink" viewBox="0 0 188.82832 333.77924"><defs><style>.a{fill:none;}.b{clip-path:url(#a);}.c{fill:#231f20;}.d{fill:url(#b);}.e{fill:#f1f2f2;}</style><clipPath id="a"><rect class="a" width="188.82832" height="333.77924"/></clipPath><radialGradient id="b" cx="693.6837" cy="209.46076" r="144.66659" gradientTransform="translate(-373.52908 -18.45943) scale(0.67518 1.05623)" gradientUnits="userSpaceOnUse"><stop offset="0" stop-color="#ffde17"/><stop offset="1" stop-color="#f5841f"/></radialGradient></defs><g class="b"><rect class="c" width="188.82832" height="304.5464"/><rect class="c" width="188.82832" height="304.5464"/><rect class="d" x="21.75192" y="19.40611" width="146.16418" height="366.74786"/><ellipse class="c" cx="99.20329" cy="415.15397" rx="221.88844" ry="233.07261"/></g><path class="e" d="M84.45958,267.34l-.09766,35.93653H73.07481V264.66716q0-15.24464-10.39453-15.24609H54.16563l-2.67285,12.67187H60.3043V273.0822h-10.791a9.23279,9.23279,0,0,1-6.584-2.57422,8.37009,8.37009,0,0,1-2.72265-6.33594,12.508,12.508,0,0,1,.09961-1.584l4.25683-24.15625H63.47227Q84.45909,238.43181,84.45958,267.34Z"/><path class="e" d="M150.19493,273.18083q0,9.60352-9.58594,15.543a33.87452,33.87452,0,0,1-18.48047,5.24707,33.38344,33.38344,0,0,1-18.38183-5.24707q-9.5874-6.03808-9.58594-15.543v-34.749h11.28613v33.36328a9.91083,9.91083,0,0,0,.19824,2.27637q10.88965-2.67187,10.88965-10.791V238.43181h11.28614v26.23535q0,11.85206-14.1836,17.52246a30.07942,30.07942,0,0,0,8.126.792q8.12549,0,12.63672-2.91992a9.299,9.299,0,0,0,4.50879-8.2666V238.43181h11.28613Z"/><path class="e" d="M40.1295,200.58025q2.80224-.13991,5.02539-.14014a20.92412,20.92412,0,0,1,3.69336.27051,11.21763,11.21763,0,0,1,2.75293.8706,6.99922,6.99922,0,0,1,2.16211,1.54151,7.8433,7.8433,0,0,1,1.86133,5.52539V226.6657H52.30137V208.60808q0-5.34522-7.167-5.34522-2.1621,0-5.00488.14014Z"/><path class="e" d="M76.64512,205.38493a5.11639,5.11639,0,0,0-1.81152-1.56152,5.71276,5.71276,0,0,0-2.71289-.60059,17.11087,17.11087,0,0,0-2.78223.2002v-2.72266a13.46528,13.46528,0,0,1,2.85254-.26025,9.87994,9.87994,0,0,1,3.12305.48047,7.86821,7.86821,0,0,1,2.67285,1.53125,9.49994,9.49994,0,0,1,2.082,2.59277,17.62961,17.62961,0,0,1,1.8418,8.7085,21.85745,21.85745,0,0,1-.52051,4.95459,13.22874,13.22874,0,0,1-1.43164,3.76367,9.74166,9.74166,0,0,1-2.19238,2.583,8.4569,8.4569,0,0,1-2.7627,1.53125,10.652,10.652,0,0,1-6.32617,0,8.457,8.457,0,0,1-2.76269-1.53125,9.7203,9.7203,0,0,1-2.19141-2.583,13.171,13.171,0,0,1-1.43164-3.76367,21.80178,21.80178,0,0,1-.52051-4.95459V200.8405h3.44336v12.9126a17.122,17.122,0,0,0,1.34082,7.22705,5.64154,5.64154,0,0,0,2.0625,2.43262,5.46642,5.46642,0,0,0,3.043.8706,6.33974,6.33974,0,0,0,2.87305-.59033,5.30425,5.30425,0,0,0,1.90136-1.57178,8.29548,8.29548,0,0,0,1.19141-2.38232,19.08122,19.08122,0,0,0,.82031-5.98584q0-1.74169-.13965-3.15283a15.32889,15.32889,0,0,0-.56054-2.833A8.04224,8.04224,0,0,0,76.64512,205.38493Z"/><path class="e" d="M95.66368,200.44011a9.01812,9.01812,0,0,1,7.35742,3.30322q2.71288,3.30323,2.71289,10.00977a21.85745,21.85745,0,0,1-.52051,4.95459,13.22874,13.22874,0,0,1-1.43164,3.76367,9.74166,9.74166,0,0,1-2.19238,2.583,8.4569,8.4569,0,0,1-2.7627,1.53125,10.652,10.652,0,0,1-6.32617,0,8.457,8.457,0,0,1-2.76269-1.53125,9.72067,9.72067,0,0,1-2.19141-2.583,13.171,13.171,0,0,1-1.43164-3.76367,21.80178,21.80178,0,0,1-.52051-4.95459,20.50287,20.50287,0,0,1,.85059-6.33643,10.898,10.898,0,0,1,2.1123-3.97363l-2.5625.16016v-2.82276Q90.21788,200.4406,95.66368,200.44011Zm-5.85547,7.50732a21.6041,21.6041,0,0,0-.77051,5.44532,25.083,25.083,0,0,0,.31055,4.27392,13.24517,13.24517,0,0,0,1.03027,3.32324,5.651,5.651,0,0,0,2.0625,2.42286,6.40168,6.40168,0,0,0,6.44629,0,5.646,5.646,0,0,0,2.06153-2.43262,17.12126,17.12126,0,0,0,1.34179-7.22705q0-5.76562-1.92187-8.32813a5.23793,5.23793,0,0,0-1.92188-1.55127,6.23553,6.23553,0,0,0-2.7832-.59082l-3.583.04A11.03646,11.03646,0,0,0,89.80821,207.94743Z"/><path class="e" d="M128.45567,200.8405v8.38818a24.805,24.805,0,0,1-.13965,2.83252,12.643,12.643,0,0,1-.58105,2.5127,6.112,6.112,0,0,1-3.82324,3.82373l4.98437,8.26807h-3.74316l-6.30664-10.79053-3.043-4.56445a4.15016,4.15016,0,0,0-1.16114.60058q-1.90136,1.54174-1.90136,5.165v9.58936h-3.32324v-8.38819q0-4.38428,1.30078-6.50635a6.22939,6.22939,0,0,1,1.45214-1.61132,7.18078,7.18078,0,0,1,2.23145-1.19141l-4.96484-8.12793h3.76367l5.92578,9.98975,3.34375,5.18506a5.21358,5.21358,0,0,0,1.51172-1.24122,5.4323,5.4323,0,0,0,.82031-1.7417,9.08945,9.08945,0,0,0,.33008-2.60253V200.8405Z"/><path class="e" d="M144.67149,200.44011a6.94871,6.94871,0,0,1,5.67578,2.28223,9.56666,9.56666,0,0,1,1.8916,6.28613V226.6657h-8.80859v-2.58252h5.48535V209.14861q0-5.90553-5.40527-5.90577a5.40673,5.40673,0,0,0-1.85156.33008,5.9923,5.9923,0,0,0-1.53125.791,9.7006,9.7006,0,0,0-1.86231,1.76172l-.24023.32031-1.90137,20.21973h-3.34375l1.88184-19.85938v-.44043a14.56467,14.56467,0,0,0-.28028-1.8418,11.53036,11.53036,0,0,0-.70019-2.44238l-.52051-1.24121h3.34277a9.12577,9.12577,0,0,1,.9209,2.72266h.14063a8.66351,8.66351,0,0,1,2.50195-2.042,10.16993,10.16993,0,0,1,2.00195-.74072A9.81249,9.81249,0,0,1,144.67149,200.44011Z"/><path class="c" d="M120.27676,70.4959c0,11.30132-11.17558,28.768-24.96137,28.768S70.354,81.79722,70.354,70.4959,81.52961,29.66169,95.31539,29.66169,120.27676,59.1946,120.27676,70.4959Z"/><path class="c" d="M97.2616,146.01244a421.67293,421.67293,0,0,0,1.84,44.24544H87.1366c2.105-14.69692,4.405-29.79777,5.085-43.65671a205.9603,205.9603,0,0,0-3.53-48.19042q-1.05751-5.67894-2.495-11.81339l15.665,6.30419q-.39749,2.443-.805,5.21268A365.66479,365.66479,0,0,0,97.2616,146.01244Z"/><path class="c" d="M163.95129,43.21859l-21.79075,74.37454c-.84331,2.87832-4.47467,3.04508-5.37914.23633a73.41869,73.41869,0,0,1-2.50668-33.57918c2.91287-18.99555,12.55126-34.87308,25.422-44.56483C161.94531,37.99227,164.78942,40.35793,163.95129,43.21859Z"/><path class="c" d="M131.36973,156.9324c-3.13708,14.882-5.13919,28.69973-6.5589,41.09627l-9.85657-2.168c4.41622-13.1587,9.06677-26.65419,12.15618-39.29907a215.81824,215.81824,0,0,0,5.88665-45.037q.16522-5.42358.10055-11.33566l11.75408,8.64648q-.77328,2.17872-1.61444,4.65653A379.91487,379.91487,0,0,0,131.36973,156.9324Z"/><polygon class="c" points="45.14 92.791 41.62 93.391 38.1 93.991 34.918 64.708 31.737 35.424 38.439 64.107 45.14 92.791"/><polygon class="c" points="57.587 90.644 54.067 91.244 50.547 91.845 47.366 62.561 44.184 33.277 50.886 61.961 57.587 90.644"/><polygon class="c" points="51.282 91.694 47.762 92.294 44.241 92.894 41.06 63.611 37.879 34.327 44.58 63.011 51.282 91.694"/><polygon class="c" points="63.54 89.686 60.02 90.287 56.499 90.887 53.318 61.603 50.137 32.32 56.838 61.003 63.54 89.686"/><polygon class="c" points="56.707 114.33 47.366 104.081 38.025 93.832 50.91 91.47 63.795 89.107 60.251 101.719 56.707 114.33"/><path class="c" d="M67.04068,146.83019c3.44529,14.4382,7.32081,27.4782,11.07743,39.02578l-8.16494,2.03854c-1.826-13.42589-3.60866-27.24414-6.22109-39.68218a244.889,244.889,0,0,0-13.10641-42.24539q-1.9823-4.86906-4.325-10.07838l12.08927,2.93623q.27108,2.23986.60781,4.77182A434.62329,434.62329,0,0,0,67.04068,146.83019Z"/></svg>