<svg xmlns="http://www.w3.org/2000/svg" xmlns:xlink="http://www.w3.org/1999/xlink" viewBox="0 0 173.50988 133.94226"><defs><style>.a,.b,.c{stroke:#231f20;stroke-miterlimit:10;}.a{fill:url(#a);}.b{fill:url(#b);}.c{fill:url(#c);}.d{fill:#3c2415;}</style><linearGradient id="a" x1="219.47729" y1="320.71082" x2="361.88043" y2="320.71082" gradientTransform="matrix(0.012, -0.93354, 1.06578, 0.0137, -291.07608, 333.62103)" gradientUnits="userSpaceOnUse"><stop offset="0" stop-color="#754c29"/><stop offset="0.56122" stop-color="#c49a6c"/><stop offset="1" stop-color="#774f2a"/></linearGradient><radialGradient id="b" cx="289.67602" cy="354.85209" r="47.09548" gradientTransform="translate(-182.3838 -286.82765) scale(0.93362 1)" gradientUnits="userSpaceOnUse"><stop offset="0" stop-color="#3c2415"/><stop offset="0.56122" stop-color="#603913"/><stop offset="1" stop-color="#3c2415"/></radialGradient><linearGradient id="c" x1="235.43201" y1="396.85113" x2="294.79725" y2="396.85113" gradientTransform="translate(-270.17107 328.9106) rotate(-89.26363)" xlink:href="#a"/></defs><path class="a" d="M79.81464.5014C98.5712.74248,108.3859,30.633,107.91408,67.34324S96.86258,133.68187,78.106,133.4408.031,104.5126.5028,67.8024,61.05808.26033,79.81464.5014Z"/><ellipse class="b" cx="88.06341" cy="68.02445" rx="60.54548" ry="15.17934" transform="translate(18.91283 155.20637) rotate(-89.26364)"/><path class="c" d="M87.49642,40.9669c15.02918,8.31878,35.0553,15.80515,53.81469,9.142,12.2493-4.35081,17.22308-12.54821,22.88542-9.97567,13.64093,6.19741,10.61457,53.98-3.35821,58.5469-6.81469,2.22734-11.06461-8.77829-25.59574-12.13992-23.25309-5.37938-42.266,3.66631-48.06285,6.71335Z"/><path class="d" d="M20.5532,65.86807A8.02815,8.02815,0,0,1,22.62156,60.059a39.88753,39.88753,0,0,0-2.97071-3.0581l.06592-.11035,2.35449-.17578c1.12207,1.144,2.75049,2.99218,5.06055,5.85253A3.19889,3.19889,0,0,0,28.562,59.685a7.57369,7.57369,0,0,0-.65967-2.77246l2.15625-.19775a7.64647,7.64647,0,0,1,.418,2.59619,4.95339,4.95339,0,0,1-2.5083,4.33447c1.188,1.45215,3.05859,4.09277,3.71826,5.14893h-2.332a68.81506,68.81506,0,0,0-5.78711-7.56885,6.17243,6.17243,0,0,0-1.12207,4.1582,12.58062,12.58062,0,0,0,.61621,3.41065H20.94919A11.31836,11.31836,0,0,1,20.5532,65.86807Z"/><path class="d" d="M33.18064,66.90225a30.9514,30.9514,0,0,1,3.47656-.11036h3.34473c0-1.49609.022-3.58642-.022-4.70849-.04394-2.35449-.3081-3.25635-2.39843-3.25635H35.667a13.14785,13.14785,0,0,1-2.44239-.13232l.39649-1.958a20.96571,20.96571,0,0,0,2.8164.08789h1.7378c3.14648,0,3.49853,1.45215,3.49853,4.4668v3.63037c0,.46191-.04394,1.49609-.08789,1.87011h1.60645l-.374,2.00245H35.645c-.9458,0-2.332,0-2.83838.06591Z"/><path class="d" d="M53.39988,62.23721c0-2.44239-.22022-3.41016-2.28858-3.41016H47.37107a14.02837,14.02837,0,0,1-2.53076-.13232l.374-1.958a24.25358,24.25358,0,0,0,3.03662.08789H51.2656c3.12451,0,3.82861.90234,3.82861,4.51074v7.459H53.39988Zm-8.11914.26416H46.997v6.293h-1.7163Z"/></svg>