<svg xmlns="http://www.w3.org/2000/svg" xmlns:xlink="http://www.w3.org/1999/xlink" viewBox="0 0 100.01847 77.70857"><defs><style>.a{fill:url(#a);}.b,.c,.d{stroke:#c49a6c;stroke-miterlimit:10;stroke-width:6.11257px;}.b{fill:url(#b);}.c{fill:url(#c);}.d{fill:#d3bf9f;}</style><linearGradient id="a" x1="69.50488" y1="-81.38645" x2="580.50488" y2="-81.38645" gradientUnits="userSpaceOnUse"><stop offset="0" stop-color="#27aae1"/><stop offset="1" stop-color="#0e3354"/></linearGradient><linearGradient id="b" x1="-73.283" y1="-171.0768" x2="-31.66113" y2="-171.0768" gradientTransform="translate(-84.19924 74.64097) rotate(90)" gradientUnits="userSpaceOnUse"><stop offset="0" stop-color="#8c5f3c"/><stop offset="0.4949" stop-color="#a97c50"/><stop offset="1" stop-color="#8b5e3c"/></linearGradient><linearGradient id="c" x1="-73.283" y1="-127.70203" x2="-31.66113" y2="-127.70203" gradientTransform="matrix(0.41231, 0.91104, -0.91104, 0.41231, -47.34631, 140.50968)" gradientUnits="userSpaceOnUse"><stop offset="0" stop-color="#a97c50"/><stop offset="0.58163" stop-color="#d3bf9f"/><stop offset="1" stop-color="#c49a6c"/></linearGradient></defs><path class="a" d="M580.50488-152.38645c0,20.43454-114.39125,179-255.5,179s-255.5-158.56546-255.5-179,114.39124-37,255.5-37S580.50488-172.821,580.50488-152.38645Z"/><ellipse class="b" cx="86.87756" cy="22.16889" rx="5.81311" ry="20.81092" transform="translate(-1.41217 37.7924) rotate(-24.34993)"/><path class="c" d="M95.45809,41.12859,21.72142,74.49935c-2.925,1.32376-9.13825-6.09309-13.87654-16.56291C3.1066,47.46667,1.63537,37.90374,4.56037,36.58L78.297,3.20922C75.372,4.533,76.84327,14.0959,81.58155,24.56567,86.31984,35.03549,92.53309,42.45234,95.45809,41.12859Z"/><line class="d" x1="45.34974" y1="63.80596" x2="9.98926" y2="62.28615"/><line class="d" x1="64.90422" y1="54.95625" x2="5.79753" y2="52.92921"/><line class="d" x1="83.64392" y1="46.47528" x2="3.43746" y2="44.48153"/><line class="d" x1="90.56409" y1="38.7744" x2="9.58116" y2="34.6596"/><line class="d" x1="83.57998" y1="28.98144" x2="28.32086" y2="26.17864"/><line class="d" x1="79.35263" y1="19.64062" x2="47.74317" y2="17.03688"/><line class="d" x1="77.89649" y1="10.78384" x2="66.61505" y2="8.84796"/></svg>