<svg xmlns="http://www.w3.org/2000/svg" xmlns:xlink="http://www.w3.org/1999/xlink" viewBox="0 0 391.29217 221.37954"><defs><style>.a,.b,.c,.d,.e,.f,.g,.h,.i{stroke:#231f20;}.a,.aa,.ab,.ac,.ad,.ae,.af,.ag,.ah,.ai,.aj,.ak,.al,.am,.an,.ao,.ap,.aq,.ar,.as,.at,.au,.av,.aw,.ax,.ay,.az,.b,.ba,.bb,.bc,.bd,.be,.bf,.bg,.bh,.bi,.bj,.bk,.bl,.bm,.bn,.c,.d,.e,.f,.g,.h,.i,.j,.k,.l,.m,.n,.o,.p,.q,.r,.s,.t,.u,.v,.w,.x,.y,.z{stroke-miterlimit:10;}.a{fill:url(#a);}.b{fill:none;}.c{fill:#47484a;}.d{fill:#73797a;}.e{fill:#32393a;}.f{fill:url(#b);}.g{fill:#292a2b;}.h{fill:#3e4242;}.i{fill:#212323;}.aa,.ab,.ac,.ad,.ae,.af,.ag,.ah,.ai,.aj,.ak,.al,.am,.an,.ao,.ap,.aq,.ar,.as,.at,.au,.av,.aw,.ax,.ay,.az,.ba,.bb,.bc,.bd,.be,.bf,.bg,.bh,.bi,.bj,.bk,.bl,.bm,.bn,.j,.k,.l,.m,.n,.o,.p,.q,.r,.s,.t,.u,.v,.w,.x,.y,.z{stroke:#c49a6c;stroke-width:3px;}.j{fill:url(#c);}.k{fill:url(#d);}.l{fill:#d3bf9f;}.m{fill:url(#e);}.n{fill:url(#f);}.o{fill:url(#g);}.p{fill:url(#h);}.q{fill:url(#i);}.r{fill:url(#j);}.s{fill:url(#k);}.t{fill:url(#l);}.u{fill:url(#m);}.v{fill:url(#n);}.w{fill:url(#o);}.x{fill:url(#p);}.y{fill:url(#q);}.z{fill:url(#r);}.aa{fill:url(#s);}.ab{fill:url(#t);}.ac{fill:url(#u);}.ad{fill:url(#v);}.ae{fill:url(#w);}.af{fill:url(#x);}.ag{fill:url(#y);}.ah{fill:url(#z);}.ai{fill:url(#aa);}.aj{fill:url(#ab);}.ak{fill:url(#ac);}.al{fill:url(#ad);}.am{fill:url(#ae);}.an{fill:url(#af);}.ao{fill:url(#ag);}.ap{fill:url(#ah);}.aq{fill:url(#ai);}.ar{fill:url(#aj);}.as{fill:url(#ak);}.at{fill:url(#al);}.au{fill:url(#am);}.av{fill:url(#an);}.aw{fill:url(#ao);}.ax{fill:url(#ap);}.ay{fill:url(#aq);}.az{fill:url(#ar);}.ba{fill:url(#as);}.bb{fill:url(#at);}.bc{fill:url(#au);}.bd{fill:url(#av);}.be{fill:url(#aw);}.bf{fill:url(#ax);}.bg{fill:url(#ay);}.bh{fill:url(#az);}.bi{fill:url(#ba);}.bj{fill:url(#bb);}.bk{fill:url(#bc);}.bl{fill:url(#bd);}.bm{fill:url(#be);}.bn{fill:url(#bf);}</style><linearGradient id="a" x1="38.72946" y1="56.35267" x2="360.15133" y2="56.35267" gradientUnits="userSpaceOnUse"><stop offset="0" stop-color="#464646"/><stop offset="1"/></linearGradient><linearGradient id="b" x1="39.31463" y1="134.84255" x2="359.39662" y2="134.84255" gradientUnits="userSpaceOnUse"><stop offset="0" stop-color="#949494"/><stop offset="1"/></linearGradient><linearGradient id="c" x1="669.62013" y1="564.40739" x2="690.02431" y2="564.40739" gradientTransform="translate(769.77358 616.74287) rotate(180)" gradientUnits="userSpaceOnUse"><stop offset="0" stop-color="#8c5f3c"/><stop offset="0.4949" stop-color="#a97c50"/><stop offset="1" stop-color="#8b5e3c"/></linearGradient><linearGradient id="d" x1="669.62013" y1="585.67089" x2="690.02431" y2="585.67089" gradientTransform="translate(861.71552 -377.89009) rotate(111.16179)" gradientUnits="userSpaceOnUse"><stop offset="0" stop-color="#a97c50"/><stop offset="0.58163" stop-color="#d3bf9f"/><stop offset="1" stop-color="#c49a6c"/></linearGradient><linearGradient id="e" x1="335.3446" y1="348.55753" x2="355.74878" y2="348.55753" gradientTransform="translate(561.63864 -328.20384) rotate(90)" xlink:href="#c"/><linearGradient id="f" x1="335.3446" y1="369.82103" x2="355.74878" y2="369.82103" gradientTransform="matrix(0.41231, 0.91104, -0.91104, 0.41231, 388.16066, -441.1787)" xlink:href="#d"/><linearGradient id="g" x1="747.07488" y1="364.41812" x2="767.47906" y2="364.41812" gradientTransform="translate(1087.85329 408.81779) rotate(180)" xlink:href="#c"/><linearGradient id="h" x1="747.07488" y1="385.68162" x2="767.47906" y2="385.68162" gradientTransform="translate(848.93793 -617.09123) rotate(102.38531)" xlink:href="#d"/><linearGradient id="i" x1="374.68023" y1="278.07393" x2="395.08441" y2="278.07393" gradientTransform="translate(571.58713 -360.76395) rotate(90)" xlink:href="#c"/><linearGradient id="j" x1="374.68023" y1="299.33743" x2="395.08441" y2="299.33743" gradientTransform="matrix(0.41231, 0.91104, -0.91104, 0.41231, 388.16066, -441.1787)" xlink:href="#d"/><linearGradient id="k" x1="741.24525" y1="385.76868" x2="761.64943" y2="385.76868" gradientTransform="translate(1040.32653 435.33702) rotate(180)" xlink:href="#c"/><linearGradient id="l" x1="741.24525" y1="407.03217" x2="761.64943" y2="407.03217" gradientTransform="matrix(-0.25448, 0.96708, -0.96708, -0.25448, 853.17486, -578.97041)" xlink:href="#d"/><linearGradient id="m" x1="353.95566" y1="366.24864" x2="374.35984" y2="366.24864" gradientTransform="translate(570.88586 -322.5652) rotate(90)" xlink:href="#c"/><linearGradient id="n" x1="353.95566" y1="387.51214" x2="374.35984" y2="387.51214" gradientTransform="matrix(0.41231, 0.91104, -0.91104, 0.41231, 388.16066, -441.1787)" xlink:href="#d"/><linearGradient id="o" x1="937.77094" y1="400.358" x2="958.17512" y2="400.358" gradientTransform="translate(1205.75616 456.1746) rotate(180)" xlink:href="#c"/><linearGradient id="p" x1="937.77094" y1="421.6215" x2="958.17512" y2="421.6215" gradientTransform="translate(1108.12122 -523.7216) rotate(122.82824)" xlink:href="#d"/><linearGradient id="q" x1="361.43547" y1="334.21382" x2="381.83965" y2="334.21382" gradientTransform="translate(571.12017 -336.4388) rotate(90)" xlink:href="#c"/><linearGradient id="r" x1="361.43547" y1="355.47732" x2="381.83965" y2="355.47732" gradientTransform="matrix(0.41231, 0.91104, -0.91104, 0.41231, 388.16066, -441.1787)" xlink:href="#d"/><linearGradient id="s" x1="354.54197" y1="316.53285" x2="374.94615" y2="316.53285" gradientTransform="translate(566.7051 -343.1156) rotate(90)" xlink:href="#c"/><linearGradient id="t" x1="354.54197" y1="337.79634" x2="374.94615" y2="337.79634" gradientTransform="matrix(0.41231, 0.91104, -0.91104, 0.41231, 388.16066, -441.1787)" xlink:href="#d"/><linearGradient id="u" x1="1008.7727" y1="-413.64167" x2="1029.17688" y2="-413.64167" gradientTransform="translate(550.34036 1049.64325) rotate(-90)" xlink:href="#c"/><linearGradient id="v" x1="1008.7727" y1="-392.37817" x2="1029.17688" y2="-392.37817" gradientTransform="translate(1013.008 695.11639) rotate(-120.73519)" xlink:href="#d"/><linearGradient id="w" x1="334.32941" y1="396.57983" x2="354.73359" y2="396.57983" gradientTransform="translate(565.49192 -308.31353) rotate(90)" xlink:href="#c"/><linearGradient id="x" x1="334.32941" y1="417.84333" x2="354.73359" y2="417.84333" gradientTransform="matrix(0.41231, 0.91104, -0.91104, 0.41231, 388.16066, -441.1787)" xlink:href="#d"/><linearGradient id="y" x1="298.47576" y1="423.68296" x2="318.87994" y2="423.68296" gradientTransform="translate(553.12014 -293.9493) rotate(90)" xlink:href="#c"/><linearGradient id="z" x1="298.47576" y1="444.94645" x2="318.87994" y2="444.94645" gradientTransform="matrix(0.41231, 0.91104, -0.91104, 0.41231, 388.16066, -441.1787)" xlink:href="#d"/><linearGradient id="aa" x1="1067.49403" y1="-105.70648" x2="1087.89821" y2="-105.70648" gradientTransform="translate(213.30268 1137.66399) rotate(-90)" xlink:href="#c"/><linearGradient id="ab" x1="1067.49403" y1="-84.44298" x2="1087.89821" y2="-84.44298" gradientTransform="translate(1072.89663 550.67946) rotate(-147.45147)" xlink:href="#d"/><linearGradient id="ac" x1="305.02858" y1="458.43756" x2="325.43276" y2="458.43756" gradientTransform="translate(558.91354 -280.2026) rotate(90)" xlink:href="#c"/><linearGradient id="ad" x1="305.02858" y1="479.70105" x2="325.43276" y2="479.70105" gradientTransform="matrix(0.41231, 0.91104, -0.91104, 0.41231, 388.16066, -441.1787)" xlink:href="#d"/><linearGradient id="ae" x1="1052.91861" y1="1402.25349" x2="1073.32279" y2="1402.25349" gradientTransform="translate(-763.4284 -1348.17357)" xlink:href="#c"/><linearGradient id="af" x1="1052.91861" y1="1423.51698" x2="1073.32279" y2="1423.51698" gradientTransform="translate(-1386.80478 556.34286) rotate(-69.41664)" xlink:href="#d"/><linearGradient id="ag" x1="6.23188" y1="1209.13212" x2="26.63606" y2="1209.13212" gradientTransform="translate(-1032.21002 106.74778) rotate(-90)" xlink:href="#c"/><linearGradient id="ah" x1="6.23188" y1="1230.39562" x2="26.63606" y2="1230.39562" gradientTransform="translate(-912.63513 614.84751) rotate(-114.92836)" xlink:href="#d"/><linearGradient id="ai" x1="998.0466" y1="1250.93772" x2="1018.45078" y2="1250.93772" gradientTransform="translate(-949.08896 -1186.49318)" xlink:href="#c"/><linearGradient id="aj" x1="998.0466" y1="1272.20122" x2="1018.45078" y2="1272.20122" gradientTransform="translate(-1371.613 795.40283) rotate(-78.19313)" xlink:href="#d"/><linearGradient id="ak" x1="45.5675" y1="1138.64852" x2="65.97168" y2="1138.64852" gradientTransform="translate(-1042.22281 140.12023) rotate(-90)" xlink:href="#c"/><linearGradient id="al" x1="45.5675" y1="1159.91202" x2="65.97168" y2="1159.91202" gradientTransform="translate(-912.63513 614.84751) rotate(-114.92836)" xlink:href="#d"/><linearGradient id="am" x1="1028.4691" y1="1261.215" x2="1048.87328" y2="1261.215" gradientTransform="translate(-937.86864 -1202.35982)" xlink:href="#c"/><linearGradient id="an" x1="1028.4691" y1="1282.4785" x2="1048.87328" y2="1282.4785" gradientTransform="matrix(0.2447, -0.9696, 0.9696, 0.2447, -1376.23456, 757.32672)" xlink:href="#d"/><linearGradient id="ao" x1="24.84294" y1="1226.82323" x2="45.24712" y2="1226.82323" gradientTransform="translate(-1041.70248 101.02514) rotate(-90)" xlink:href="#c"/><linearGradient id="ap" x1="24.84294" y1="1248.08673" x2="45.24712" y2="1248.08673" gradientTransform="translate(-912.63513 614.84751) rotate(-114.92836)" xlink:href="#d"/><linearGradient id="aq" x1="1482.57506" y1="1143.38712" x2="1502.97924" y2="1143.38712" gradientTransform="translate(-1360.9432 -1091.09382)" xlink:href="#c"/><linearGradient id="ar" x1="1482.57506" y1="1164.65062" x2="1502.97924" y2="1164.65062" gradientTransform="translate(-1631.72569 704.65452) rotate(-57.7502)" xlink:href="#d"/><linearGradient id="as" x1="32.32275" y1="1194.78841" x2="52.72693" y2="1194.78841" gradientTransform="translate(-1041.8706 115.22418) rotate(-90)" xlink:href="#c"/><linearGradient id="at" x1="32.32275" y1="1216.05191" x2="52.72693" y2="1216.05191" gradientTransform="translate(-912.63513 614.84751) rotate(-114.92836)" xlink:href="#d"/><linearGradient id="au" x1="25.42925" y1="1177.10744" x2="45.83343" y2="1177.10744" gradientTransform="translate(-1037.31785 122.03421) rotate(-90)" xlink:href="#c"/><linearGradient id="av" x1="25.42925" y1="1198.37093" x2="45.83343" y2="1198.37093" gradientTransform="translate(-912.63513 614.84751) rotate(-114.92836)" xlink:href="#d"/><linearGradient id="aw" x1="1431.55108" y1="-1232.27605" x2="1451.95526" y2="-1232.27605" gradientTransform="translate(-979.10995 -1365.53541) rotate(90)" xlink:href="#c"/><linearGradient id="ax" x1="1431.55108" y1="-1211.01255" x2="1451.95526" y2="-1211.01255" gradientTransform="translate(-1548.92201 -515.08157) rotate(58.68638)" xlink:href="#d"/><linearGradient id="ay" x1="5.21669" y1="1257.15442" x2="25.62087" y2="1257.15442" gradientTransform="translate(-1036.2561 86.41254) rotate(-90)" xlink:href="#c"/><linearGradient id="az" x1="5.21669" y1="1278.41791" x2="25.62087" y2="1278.41791" gradientTransform="translate(-912.63513 614.84751) rotate(-114.92836)" xlink:href="#d"/><linearGradient id="ba" x1="-30.63697" y1="1284.25755" x2="-10.23279" y2="1284.25755" gradientTransform="translate(-1023.66938 71.64869) rotate(-90)" xlink:href="#c"/><linearGradient id="bb" x1="-30.63697" y1="1305.52104" x2="-10.23279" y2="1305.52104" gradientTransform="translate(-912.63513 614.84751) rotate(-114.92836)" xlink:href="#d"/><linearGradient id="bc" x1="1813.17393" y1="-646.87677" x2="1833.57811" y2="-646.87677" gradientTransform="translate(-364.90546 -1776.74997) rotate(90)" xlink:href="#c"/><linearGradient id="bd" x1="1813.17393" y1="-625.61327" x2="1833.57811" y2="-625.61327" gradientTransform="translate(-1607.34944 -370.0474) rotate(31.9701)" xlink:href="#d"/><linearGradient id="be" x1="-24.08414" y1="1319.01214" x2="-3.67996" y2="1319.01214" gradientTransform="translate(-1029.6692 57.61065) rotate(-90)" xlink:href="#c"/><linearGradient id="bf" x1="-24.08414" y1="1340.27564" x2="-3.67996" y2="1340.27564" gradientTransform="translate(-912.63513 614.84751) rotate(-114.92836)" xlink:href="#d"/></defs><ellipse class="a" cx="199.4404" cy="56.35267" rx="160.71093" ry="45.28263"/><line class="b" x1="359.39662" y1="171.82336" x2="359.39662" y2="167.2951"/><rect class="c" x="23.44536" y="91.59752" width="11.32066" height="28.46155" rx="5.66032" transform="translate(-80.62201 108.39784) rotate(-75.96376)"/><path class="d" d="M2.53813,108.86333l0,0a9.7917,9.7917,0,0,1,1.03946-13.113L30.21673,71.722a8.25334,8.25334,0,0,1,12.19854,1.17247l0,0a9.7917,9.7917,0,0,1-1.03946,13.113L14.73667,110.0358A8.25336,8.25336,0,0,1,2.53813,108.86333Z"/><path class="e" d="M16.6671,103.87511A8.0216,8.0216,0,0,1,8.833,112.08262,8.0216,8.0216,0,0,1,.542,104.337a7.914,7.914,0,0,1,2.7122-6.19143,8.07722,8.07722,0,0,1,13.41287,5.72958Z"/><path class="f" d="M359.39662,48.80556V167.2951c0,29.59216-71.64915,53.58444-160.041,53.58444s-160.041-23.99228-160.041-53.58444V48.80556c0,29.59217,71.64914,53.58444,160.041,53.58444S359.39662,78.39773,359.39662,48.80556Z"/><rect class="g" x="361.55563" y="79.52216" width="11.32066" height="28.46155" rx="5.66032" transform="translate(367.1625 472.74788) rotate(-104.314)"/><rect class="g" x="340.42374" y="101.40876" width="11.32066" height="28.46155" rx="5.66032" transform="translate(301.38312 477.78385) rotate(-101.43973)"/><path class="h" d="M348.87691,125.32216l0,0a9.79169,9.79169,0,0,1,1.03945-13.113L376.5555,88.18081A8.25335,8.25335,0,0,1,388.754,89.35327l0,0a9.79169,9.79169,0,0,1-1.03945,13.113l-26.63915,24.02831A8.25336,8.25336,0,0,1,348.87691,125.32216Z"/><path class="i" d="M363.00587,120.33394a8.0663,8.0663,0,0,1-16.12506.46185,7.914,7.914,0,0,1,2.7122-6.19143,8.07721,8.07721,0,0,1,13.41286,5.72958Z"/><ellipse class="j" cx="89.95137" cy="52.33548" rx="10.20208" ry="2.84975" transform="translate(8.67245 117.3277) rotate(-68.83821)"/><path class="k" d="M86.26839,61.8496,49.26678,47.526C47.799,46.95781,48.2584,42.237,50.2922,36.98311s4.87277-9.05352,6.34055-8.48533l37.0016,14.3236c-1.46778-.56819-4.30676,3.23152-6.34055,8.48533S84.8006,61.28141,86.26839,61.8496Z"/><line class="l" x1="61.12365" y1="52.11588" x2="49.50766" y2="39.22733"/><line class="l" x1="70.93623" y1="55.91441" x2="51.34002" y2="34.54695"/><line class="l" x1="80.33995" y1="59.55466" x2="53.48363" y2="30.81952"/><line class="l" x1="85.41046" y1="59.3293" x2="59.02916" y2="29.59396"/><line class="l" x1="86.43602" y1="53.52257" x2="68.43289" y2="33.23421"/><line class="l" x1="88.25051" y1="48.83528" x2="78.3022" y2="36.88619"/><line class="l" x1="90.84772" y1="45.28344" x2="87.64919" y2="40.67299"/><ellipse class="m" cx="213.0811" cy="17.34285" rx="2.84975" ry="10.20208" transform="translate(11.80417 89.39788) rotate(-24.34993)"/><path class="n" d="M217.28752,26.63741,181.13978,42.99668c-1.43391.64894-4.47982-2.987-6.80266-8.1196s-3.04407-9.82058-1.61015-10.46952L208.8747,8.0483c-1.43391.64894-.71267,5.337,1.61016,10.46952S215.8536,27.28635,217.28752,26.63741Z"/><line class="l" x1="192.72303" y1="37.75448" x2="175.38836" y2="37.00943"/><line class="l" x1="202.30917" y1="33.41611" x2="173.33346" y2="32.4224"/><line class="l" x1="211.49589" y1="29.25851" x2="172.17649" y2="28.28112"/><line class="l" x1="214.88835" y1="25.48332" x2="175.1883" y2="23.46614"/><line class="l" x1="211.46454" y1="20.68255" x2="184.37501" y2="19.30854"/><line class="l" x1="209.39218" y1="16.10342" x2="193.89636" y2="14.827"/><line class="l" x1="208.67834" y1="11.76159" x2="203.14787" y2="10.81257"/><ellipse class="o" cx="330.57633" cy="44.39967" rx="10.20208" ry="2.84975" transform="translate(216.30632 357.75954) rotate(-77.61469)"/><path class="p" d="M328.38813,54.36434l-38.75385-8.51017c-1.5373-.33759-1.80359-5.07327-.59523-10.5759s3.43432-9.691,4.97162-9.35342L332.76452,34.435c-1.53729-.33758-3.76327,3.85081-4.97162,9.35342S326.85084,54.02675,328.38813,54.36434Z"/><line class="l" x1="302.05264" y1="48.58118" x2="288.60612" y2="37.61591"/><line class="l" x1="312.3299" y1="50.83802" x2="289.70289" y2="32.71076"/><line class="l" x1="322.17895" y1="53.00083" x2="291.25266" y2="28.69989"/><line class="l" x1="327.1557" y1="52.00446" x2="296.54628" y2="26.64255"/><line class="l" x1="327.28326" y1="46.10923" x2="306.39532" y2="28.80535"/><line class="l" x1="328.36132" y1="41.19997" x2="316.70629" y2="30.9087"/><line class="l" x1="330.38617" y1="37.29343" x2="326.52163" y2="33.225"/><ellipse class="q" cx="293.5132" cy="24.11836" rx="2.84975" ry="10.20208" transform="translate(16.16546 123.16343) rotate(-24.34993)"/><path class="r" d="M297.71961,33.41292,261.57188,49.77219c-1.43391.64894-4.47982-2.987-6.80266-8.1196s-3.04407-9.82057-1.61016-10.46952L289.3068,14.82381c-1.43392.64894-.71268,5.337,1.61015,10.46952S296.2857,34.06187,297.71961,33.41292Z"/><line class="l" x1="273.15513" y1="44.52999" x2="255.82046" y2="43.78494"/><line class="l" x1="282.74127" y1="40.19162" x2="253.76556" y2="39.19791"/><line class="l" x1="291.92799" y1="36.03402" x2="252.60858" y2="35.05663"/><line class="l" x1="295.32044" y1="32.25884" x2="255.62039" y2="30.24165"/><line class="l" x1="291.89664" y1="27.45806" x2="264.80711" y2="26.08405"/><line class="l" x1="289.82428" y1="22.87893" x2="274.32846" y2="21.60251"/><line class="l" x1="289.11044" y1="18.5371" x2="283.57997" y2="17.58808"/><ellipse class="s" cx="288.8792" cy="49.56835" rx="10.20208" ry="2.84975" transform="translate(167.42921 316.32313) rotate(-75.25732)"/><path class="t" d="M286.283,59.43457l-38.371-10.097c-1.52211-.40053-1.59338-5.14316-.15971-10.59143s3.83-9.54154,5.35213-9.141l38.371,10.097c-1.52211-.40053-3.91848,3.69276-5.35214,9.141S284.76088,59.034,286.283,59.43457Z"/><line class="l" x1="260.20765" y1="52.57308" x2="247.22354" y2="41.064"/><line class="l" x1="270.38339" y1="55.25073" x2="248.52115" y2="36.20811"/><line class="l" x1="280.13514" y1="57.81682" x2="250.23458" y2="32.26438"/><line class="l" x1="285.14866" y1="57.026" x2="255.60834" y2="30.42652"/><line class="l" x1="285.5186" y1="51.14101" x2="265.36009" y2="32.99261"/><line class="l" x1="286.79767" y1="46.28024" x2="275.57581" y2="35.51829"/><line class="l" x1="288.9815" y1="42.4603" x2="285.28757" y2="38.23635"/><ellipse class="u" cx="204.63721" cy="41.59254" rx="2.84975" ry="10.20208" transform="translate(1.05469 88.07354) rotate(-24.34993)"/><path class="v" d="M208.84363,50.8871,172.69589,67.24637c-1.43391.64894-4.47982-2.987-6.80266-8.1196s-3.04407-9.82057-1.61015-10.46951L200.43081,32.298c-1.43391.64894-.71267,5.337,1.61016,10.46952S207.40971,51.53605,208.84363,50.8871Z"/><line class="l" x1="184.27914" y1="62.00417" x2="166.94447" y2="61.25912"/><line class="l" x1="193.86528" y1="57.6658" x2="164.88957" y2="56.67209"/><line class="l" x1="203.052" y1="53.5082" x2="163.7326" y2="52.53081"/><line class="l" x1="206.44446" y1="49.73302" x2="166.74441" y2="47.71583"/><line class="l" x1="203.02065" y1="44.93224" x2="175.93112" y2="43.55823"/><line class="l" x1="200.94829" y1="40.35311" x2="185.45247" y2="39.07669"/><line class="l" x1="200.23445" y1="36.01128" x2="194.70398" y2="35.06226"/><ellipse class="w" cx="257.78314" cy="55.81661" rx="10.20208" ry="2.84975" transform="matrix(0.54212, -0.8403, 0.8403, 0.54212, 71.13045, 242.17222)"/><path class="x" d="M252.25236,64.38942,218.91158,42.8795c-1.32256-.85326.082-5.3837,3.13615-10.11774s6.60285-7.88115,7.92542-7.02789L263.31392,47.2438c-1.32257-.85326-4.87125,2.29388-7.92542,7.02789S250.92979,63.53616,252.25236,64.38942Z"/><line class="l" x1="229.59537" y1="49.77218" x2="220.82559" y2="34.80097"/><line class="l" x1="238.43712" y1="55.47647" x2="223.56653" y2="30.58782"/><line class="l" x1="246.91046" y1="60.94308" x2="226.41959" y2="27.37085"/><line class="l" x1="251.92179" y1="61.74771" x2="232.09839" y2="27.292"/><line class="l" x1="254.10037" y1="56.26832" x2="240.57174" y2="32.75861"/><line class="l" x1="256.82521" y1="52.04477" x2="249.49868" y2="38.33085"/><line class="l" x1="260.08699" y1="49.0915" x2="257.88683" y2="43.92951"/><ellipse class="y" cx="236.90635" cy="35.19876" rx="2.84975" ry="10.20208" transform="translate(6.56142 100.80961) rotate(-24.34993)"/><path class="z" d="M241.11276,44.49332,204.965,60.85258c-1.43391.64894-4.47981-2.987-6.80266-8.11959s-3.04407-9.82058-1.61015-10.46952l36.14773-16.35926c-1.43391.64894-.71267,5.337,1.61016,10.46952S239.67884,45.14226,241.11276,44.49332Z"/><line class="l" x1="216.54827" y1="55.61039" x2="199.2136" y2="54.86534"/><line class="l" x1="226.13441" y1="51.27202" x2="197.1587" y2="50.27831"/><line class="l" x1="235.32113" y1="47.11442" x2="196.00173" y2="46.13702"/><line class="l" x1="238.71359" y1="43.33923" x2="199.01354" y2="41.32205"/><line class="l" x1="235.28978" y1="38.53845" x2="208.20025" y2="37.16444"/><line class="l" x1="233.21742" y1="33.95933" x2="217.7216" y2="32.68291"/><line class="l" x1="232.50358" y1="29.61749" x2="226.97311" y2="28.66847"/><ellipse class="aa" cx="250.17225" cy="21.62845" rx="2.84975" ry="10.20208" transform="translate(13.33665 105.0721) rotate(-24.34993)"/><path class="ab" d="M254.37866,30.923,218.23093,47.28228c-1.43392.64894-4.47982-2.987-6.80266-8.11959s-3.04407-9.82058-1.61016-10.46952L245.96585,12.3339c-1.43392.64894-.71268,5.337,1.61015,10.46952S252.94475,31.572,254.37866,30.923Z"/><line class="l" x1="229.81418" y1="42.04008" x2="212.47951" y2="41.29503"/><line class="l" x1="239.40032" y1="37.70172" x2="210.42461" y2="36.708"/><line class="l" x1="248.58703" y1="33.54411" x2="209.26763" y2="32.56672"/><line class="l" x1="251.97949" y1="29.76893" x2="212.27944" y2="27.75174"/><line class="l" x1="248.55569" y1="24.96815" x2="221.46616" y2="23.59414"/><line class="l" x1="246.48333" y1="20.38903" x2="230.9875" y2="19.1126"/><line class="l" x1="245.76949" y1="16.04719" x2="240.23901" y2="15.09817"/><ellipse class="ac" cx="136.6987" cy="30.66848" rx="2.84975" ry="10.20208" transform="translate(3.52713 74.17046) rotate(-30.73519)"/><path class="ad" d="M131.4847,21.89938,165.58883,1.62149c1.35285-.80438,4.78422,2.47026,7.66346,7.31268s4.11737,9.42112,2.76452,10.2255L141.91268,39.43756c1.35285-.80439.11472-5.3831-2.76451-10.2255S132.83755,21.095,131.4847,21.89938Z"/><line class="l" x1="154.66043" y1="8.11938" x2="171.97043" y2="6.93196"/><line class="l" x1="145.61625" y1="13.49694" x2="174.52272" y2="11.26201"/><line class="l" x1="136.9489" y1="18.65044" x2="176.13309" y2="15.24893"/><line class="l" x1="133.99734" y1="22.77949" x2="173.67545" y2="20.36899"/><line class="l" x1="137.93381" y1="27.16971" x2="165.0081" y2="25.52248"/><line class="l" x1="140.50258" y1="31.48996" x2="156.04423" y2="31.03512"/><line class="l" x1="141.69486" y1="35.72547" x2="147.29657" y2="36.05354"/><ellipse class="ae" cx="168.91209" cy="36.21796" rx="2.84975" ry="10.20208" transform="translate(0.09272 72.86567) rotate(-24.34993)"/><path class="af" d="M173.1185,45.51252,136.97077,61.87179c-1.43391.64894-4.47982-2.987-6.80266-8.1196S127.124,43.93162,128.558,43.28267l36.14773-16.35926c-1.43391.64894-.71268,5.33695,1.61016,10.46952S171.68459,46.16146,173.1185,45.51252Z"/><line class="l" x1="148.55402" y1="56.62959" x2="131.21935" y2="55.88454"/><line class="l" x1="158.14016" y1="52.29122" x2="129.16445" y2="51.29751"/><line class="l" x1="167.32688" y1="48.13362" x2="128.00748" y2="47.15623"/><line class="l" x1="170.71933" y1="44.35844" x2="131.01928" y2="42.34125"/><line class="l" x1="167.29553" y1="39.55766" x2="140.206" y2="38.18365"/><line class="l" x1="165.22317" y1="34.97853" x2="149.72735" y2="33.70211"/><line class="l" x1="164.50933" y1="30.6367" x2="158.97886" y2="29.68768"/><ellipse class="ag" cx="129.43718" cy="14.72854" rx="2.84975" ry="10.20208" transform="translate(5.44147 54.67822) rotate(-24.34993)"/><path class="ah" d="M133.64359,24.0231,97.49586,40.38237c-1.43392.64894-4.47982-2.987-6.80266-8.1196S87.64913,22.44219,89.083,21.79325L125.23077,5.434c-1.43391.64894-.71267,5.337,1.61016,10.46952S132.20968,24.672,133.64359,24.0231Z"/><line class="l" x1="109.07911" y1="35.14017" x2="91.74443" y2="34.39512"/><line class="l" x1="118.66525" y1="30.8018" x2="89.68953" y2="29.80809"/><line class="l" x1="127.85196" y1="26.6442" x2="88.53256" y2="25.66681"/><line class="l" x1="131.24442" y1="22.86901" x2="91.54437" y2="20.85183"/><line class="l" x1="127.82061" y1="18.06824" x2="100.73109" y2="16.69423"/><line class="l" x1="125.74825" y1="13.48911" x2="110.25243" y2="12.21269"/><line class="l" x1="125.03442" y1="9.14728" x2="119.50394" y2="8.19826"/><ellipse class="ai" cx="107.59621" cy="59.96788" rx="2.84975" ry="10.20208" transform="translate(-0.84112 118.40105) rotate(-57.45147)"/><path class="aj" d="M98.99649,54.479,120.3434,21.03363c.84679-1.32672,5.384.05568,10.13292,3.08671s7.91329,6.5643,7.0665,7.891L116.19591,65.45674c.84679-1.32672-2.31763-4.86-7.06649-7.891S99.84328,53.15229,98.99649,54.479Z"/><line class="l" x1="113.50295" y1="31.75093" x2="128.43117" y2="22.90818"/><line class="l" x1="107.8419" y1="40.62043" x2="132.65766" y2="25.62852"/><line class="l" x1="102.41672" y1="49.12036" x2="135.88852" y2="28.46583"/><line class="l" x1="101.63656" y1="54.13555" x2="135.99509" y2="34.14418"/><line class="l" x1="107.12652" y1="56.28735" x2="130.56991" y2="42.64411"/><line class="l" x1="111.36332" y1="58.99154" x2="125.04132" y2="51.59816"/><line class="l" x1="114.33248" y1="62.23887" x2="119.48367" y2="60.01354"/><ellipse class="ak" cx="100.47598" cy="35.02806" rx="2.84975" ry="10.20208" transform="translate(-5.50446 44.54304) rotate(-24.34993)"/><path class="al" d="M104.68239,44.32263,68.53466,60.68189c-1.43391.64894-4.47982-2.987-6.80266-8.11959s-3.04407-9.82058-1.61016-10.46952L96.26958,25.73351c-1.43392.64895-.71268,5.337,1.61015,10.46952S103.24848,44.97157,104.68239,44.32263Z"/><line class="l" x1="80.11791" y1="55.4397" x2="62.78324" y2="54.69464"/><line class="l" x1="89.70405" y1="51.10133" x2="60.72834" y2="50.10762"/><line class="l" x1="98.89077" y1="46.94372" x2="59.57136" y2="45.96633"/><line class="l" x1="102.28322" y1="43.16854" x2="62.58317" y2="41.15135"/><line class="l" x1="98.85942" y1="38.36776" x2="71.76989" y2="36.99375"/><line class="l" x1="96.78706" y1="33.78864" x2="81.29123" y2="32.51221"/><line class="l" x1="96.07322" y1="29.4468" x2="90.54274" y2="28.49778"/><ellipse class="am" cx="299.6923" cy="54.07992" rx="10.20208" ry="2.84975" transform="translate(143.702 315.6275) rotate(-69.41664)"/><path class="an" d="M303.279,44.52911l37.14432,13.94932c1.47345.55334,1.06173,5.2786-.91892,10.5527s-4.78112,9.10225-6.25457,8.54891L296.10555,63.63072c1.47345.55334,4.27392-3.27484,6.25457-8.54891S304.75249,45.08245,303.279,44.52911Z"/><line class="l" x1="328.52077" y1="54.00848" x2="340.26628" y2="66.77911"/><line class="l" x1="318.67034" y1="50.30921" x2="338.48126" y2="71.47774"/><line class="l" x1="309.23034" y1="46.76408" x2="336.3754" y2="75.22663"/><line class="l" x1="304.16238" y1="47.04061" x2="330.84251" y2="76.50811"/><line class="l" x1="303.19548" y1="52.8574" x2="321.40252" y2="72.96298"/><line class="l" x1="301.42841" y1="57.56277" x2="311.49685" y2="69.41082"/><line class="l" x1="298.86719" y1="61.14066" x2="302.1121" y2="65.71858"/><ellipse class="ao" cx="176.9221" cy="90.31382" rx="2.84975" ry="10.20208" transform="translate(-21.58304 82.98402) rotate(-24.92836)"/><path class="ap" d="M172.62208,81.06219l35.98073-16.72335c1.42729-.66339,4.50975,2.94162,6.88429,8.0505s3.143,9.78935,1.71576,10.45273L181.22213,99.56543c1.42729-.66339.65876-5.34388-1.71577-10.45273S174.04936,80.39881,172.62208,81.06219Z"/><line class="l" x1="197.07307" y1="69.6977" x2="214.41438" y2="70.26772"/><line class="l" x1="187.53122" y1="74.13263" x2="216.51549" y2="74.83376"/><line class="l" x1="178.38695" y1="78.38276" x2="217.71421" y2="78.96316"/><line class="l" x1="175.03277" y1="82.192" x2="214.75117" y2="83.80829"/><line class="l" x1="178.50487" y1="86.95797" x2="205.60689" y2="88.05843"/><line class="l" x1="180.62335" y1="91.51594" x2="196.13127" y2="92.63586"/><line class="l" x1="181.38099" y1="95.85035" x2="186.92076" y2="96.74349"/><ellipse class="aq" cx="59.15972" cy="64.44454" rx="10.20208" ry="2.84975" transform="translate(-16.02623 109.16639) rotate(-78.19313)"/><path class="ar" d="M61.24721,54.45829l38.83779,8.1185c1.54062.322,1.85471,5.0548.702,10.56935S97.45065,82.87132,95.91,82.54928L57.07224,74.43077c1.54062.32205,3.7242-3.8886,4.87693-9.40313S62.78783,54.78033,61.24721,54.45829Z"/><line class="l" x1="87.63974" y1="59.97528" x2="101.19627" y2="70.80425"/><line class="l" x1="77.34022" y1="57.82231" x2="100.14907" y2="75.72022"/><line class="l" x1="67.46984" y1="55.75904" x2="98.63988" y2="79.74653"/><line class="l" x1="62.5034" y1="56.80561" x2="93.3673" y2="81.85721"/><line class="l" x1="62.43536" y1="62.70182" x2="83.49692" y2="79.79394"/><line class="l" x1="61.40692" y1="67.62171" x2="73.16525" y2="77.79479"/><line class="l" x1="59.42161" y1="71.5485" x2="63.32702" y2="75.57771"/><ellipse class="as" cx="96.4257" cy="84.35065" rx="2.84975" ry="10.20208" transform="translate(-26.56906 48.50046) rotate(-24.92836)"/><path class="at" d="M92.12568,75.099l35.98073-16.72335c1.42729-.66339,4.50975,2.94162,6.88429,8.0505s3.143,9.78935,1.71576,10.45273L100.72573,93.60226c1.42729-.66339.65876-5.34388-1.71577-10.45273S93.553,74.43564,92.12568,75.099Z"/><line class="l" x1="116.57667" y1="63.73453" x2="133.91798" y2="64.30455"/><line class="l" x1="107.03482" y1="68.16946" x2="136.01909" y2="68.87059"/><line class="l" x1="97.89055" y1="72.41959" x2="137.21781" y2="72.99999"/><line class="l" x1="94.53637" y1="76.22883" x2="134.25477" y2="77.84512"/><line class="l" x1="98.00847" y1="80.9948" x2="125.11049" y2="82.09526"/><line class="l" x1="100.12695" y1="85.55277" x2="115.63487" y2="86.67269"/><line class="l" x1="100.88459" y1="89.88718" x2="106.42436" y2="90.78032"/><ellipse class="au" cx="100.80255" cy="58.85518" rx="10.20208" ry="2.84975" transform="translate(19.07005 142.19115) rotate(-75.83576)"/><path class="av" d="M103.299,48.96324l38.471,9.70912c1.52608.38514,1.64523,5.12681.26664,10.58928s-3.73351,9.57972-5.25959,9.19457l-38.471-9.70911c1.52607.38514,3.881-3.73213,5.25958-9.19458S104.82509,49.34838,103.299,48.96324Z"/><line class="l" x1="129.44229" y1="55.56115" x2="142.54193" y2="66.93856"/><line class="l" x1="119.24004" y1="52.98636" x2="141.29342" y2="71.8073"/><line class="l" x1="109.46288" y1="50.51885" x2="139.61988" y2="75.76812"/><line class="l" x1="104.4576" y1="51.36024" x2="134.26496" y2="77.66014"/><line class="l" x1="104.14709" y1="57.24866" x2="124.4878" y2="75.19263"/><line class="l" x1="102.91716" y1="62.1221" x2="114.24709" y2="72.77021"/><line class="l" x1="100.77201" y1="65.96389" x2="104.50839" y2="70.15033"/><ellipse class="aw" cx="185.12075" cy="65.98011" rx="2.84975" ry="10.20208" transform="translate(-10.56293 84.17259) rotate(-24.92836)"/><path class="ax" d="M180.82072,56.72849l35.98074-16.72336c1.42729-.66338,4.50975,2.94163,6.88428,8.05051s3.14306,9.78934,1.71577,10.45273L189.42078,75.23173c1.42728-.66339.65876-5.34388-1.71577-10.45273S182.248,56.06511,180.82072,56.72849Z"/><line class="l" x1="205.27172" y1="45.364" x2="222.61303" y2="45.93401"/><line class="l" x1="195.72987" y1="49.79892" x2="224.71414" y2="50.50006"/><line class="l" x1="186.58559" y1="54.04906" x2="225.91286" y2="54.62946"/><line class="l" x1="183.23142" y1="57.8583" x2="222.94981" y2="59.47459"/><line class="l" x1="186.70352" y1="62.62427" x2="213.80554" y2="63.72473"/><line class="l" x1="188.822" y1="67.18224" x2="204.32992" y2="68.30216"/><line class="l" x1="189.57964" y1="71.51664" x2="195.11941" y2="72.40979"/><ellipse class="ay" cx="131.83394" cy="52.29331" rx="10.20208" ry="2.84975" transform="translate(17.25981 135.88486) rotate(-57.7502)"/><path class="az" d="M137.27789,43.66509l33.55623,21.17224c1.33111.83987-.02761,5.38426-3.03385,10.14888s-6.523,7.94741-7.85406,7.10754L126.39,60.92151c1.33111.83986,4.84784-2.34293,7.85406-7.10754S138.609,44.505,137.27789,43.66509Z"/><line class="l" x1="160.0813" y1="58.05286" x2="169.00176" y2="72.93477"/><line class="l" x1="151.18241" y1="52.43812" x2="166.3035" y2="77.17538"/><line class="l" x1="142.65431" y1="47.05733" x2="163.48306" y2="80.42099"/><line class="l" x1="137.63512" y1="46.30333" x2="157.80535" y2="80.55716"/><line class="l" x1="135.51196" y1="51.80444" x2="149.27724" y2="75.17637"/><line class="l" x1="132.8299" y1="56.05528" x2="140.2945" y2="69.69454"/><line class="l" x1="129.5981" y1="59.04133" x2="131.85025" y2="64.18084"/><ellipse class="ba" cx="152.91782" cy="72.69934" rx="2.84975" ry="10.20208" transform="translate(-16.39515 71.22553) rotate(-24.92836)"/><path class="bb" d="M148.61779,63.44772l35.98073-16.72336c1.42729-.66338,4.50975,2.94163,6.88429,8.05051s3.143,9.78934,1.71576,10.45273L157.21784,81.951c1.42729-.66339.65876-5.34388-1.71577-10.45273S150.04508,62.78434,148.61779,63.44772Z"/><line class="l" x1="173.06878" y1="52.08323" x2="190.4101" y2="52.65324"/><line class="l" x1="163.52693" y1="56.51815" x2="192.5112" y2="57.21929"/><line class="l" x1="154.38266" y1="60.76829" x2="193.70992" y2="61.34869"/><line class="l" x1="151.02848" y1="64.57753" x2="190.74688" y2="66.19382"/><line class="l" x1="154.50058" y1="69.3435" x2="181.6026" y2="70.44396"/><line class="l" x1="156.61906" y1="73.90147" x2="172.12698" y2="75.02139"/><line class="l" x1="157.3767" y1="78.23587" x2="162.91647" y2="79.12902"/><ellipse class="bc" cx="139.78958" cy="86.40288" rx="2.84975" ry="10.20208" transform="translate(-23.39407 66.96887) rotate(-24.92836)"/><path class="bd" d="M135.48956,77.15126,171.47029,60.4279c1.42729-.66338,4.50975,2.94162,6.88429,8.05051s3.143,9.78934,1.71576,10.45273L144.08961,95.65449c1.42729-.66338.65876-5.34387-1.71577-10.45273S136.91684,76.48787,135.48956,77.15126Z"/><line class="l" x1="159.94055" y1="65.78677" x2="177.28186" y2="66.35678"/><line class="l" x1="150.3987" y1="70.22169" x2="179.38297" y2="70.92283"/><line class="l" x1="141.25443" y1="74.47183" x2="180.58169" y2="75.05222"/><line class="l" x1="137.90025" y1="78.28107" x2="177.61865" y2="79.89736"/><line class="l" x1="141.37235" y1="83.04703" x2="168.47437" y2="84.14749"/><line class="l" x1="143.49083" y1="87.60501" x2="158.99875" y2="88.72493"/><line class="l" x1="144.24847" y1="91.93941" x2="149.78824" y2="92.83255"/><ellipse class="be" cx="253.16609" cy="76.21776" rx="2.84975" ry="10.20208" transform="translate(-2.7347 142.67829) rotate(-31.31362)"/><path class="bf" d="M258.46835,84.93377l-33.89768,20.62115c-1.34465.818-4.80891-2.42183-7.73689-7.23494s-4.21227-9.37907-2.86761-10.19707l33.89767-20.62115c-1.34466.818-.06036,5.384,2.86761,10.19707S257.12369,85.75177,258.46835,84.93377Z"/><line class="l" x1="235.43291" y1="98.94703" x2="218.13578" y2="100.30914"/><line class="l" x1="244.42235" y1="93.47844" x2="215.53991" y2="96.00509"/><line class="l" x1="253.03723" y1="88.23771" x2="213.88938" y2="92.03462"/><line class="l" x1="255.94696" y1="84.07907" x2="216.2952" y2="86.89002"/><line class="l" x1="251.96636" y1="79.72881" x2="224.91008" y2="81.64928"/><line class="l" x1="249.35411" y1="75.43472" x2="233.81784" y2="76.04643"/><line class="l" x1="248.11913" y1="71.21146" x2="242.5144" y2="70.93996"/><ellipse class="bg" cx="220.89831" cy="70.99376" rx="2.84975" ry="10.20208" transform="translate(-9.3429 99.71938) rotate(-24.92836)"/><path class="bh" d="M216.59828,61.74214,252.579,45.01878c1.42729-.66338,4.50975,2.94162,6.88428,8.05051s3.14306,9.78934,1.71577,10.45273L225.19834,80.24537c1.42728-.66338.65875-5.34387-1.71577-10.45273S218.02557,61.07875,216.59828,61.74214Z"/><line class="l" x1="241.04928" y1="50.37765" x2="258.39059" y2="50.94766"/><line class="l" x1="231.50743" y1="54.81257" x2="260.4917" y2="55.51371"/><line class="l" x1="222.36315" y1="59.06271" x2="261.69042" y2="59.6431"/><line class="l" x1="219.00898" y1="62.87195" x2="258.72737" y2="64.48824"/><line class="l" x1="222.48108" y1="67.63791" x2="249.5831" y2="68.73837"/><line class="l" x1="224.59956" y1="72.19589" x2="240.10748" y2="73.31581"/><line class="l" x1="225.35719" y1="76.53029" x2="230.89697" y2="77.42343"/><ellipse class="bi" cx="260.58816" cy="92.08357" rx="2.84975" ry="10.20208" transform="translate(-14.53425 118.41287) rotate(-24.92836)"/><path class="bj" d="M256.28813,82.832l35.98074-16.72336c1.42729-.66338,4.50974,2.94162,6.88428,8.05051s3.14306,9.78934,1.71577,10.45273l-35.98074,16.72335c1.42729-.66338.65876-5.34387-1.71576-10.45273S257.71542,82.16856,256.28813,82.832Z"/><line class="l" x1="280.73913" y1="71.46746" x2="298.08044" y2="72.03747"/><line class="l" x1="271.19728" y1="75.90238" x2="300.18155" y2="76.60352"/><line class="l" x1="262.053" y1="80.15252" x2="301.38027" y2="80.73291"/><line class="l" x1="258.69883" y1="83.96176" x2="298.41722" y2="85.57805"/><line class="l" x1="262.17093" y1="88.72772" x2="289.27295" y2="89.82818"/><line class="l" x1="264.28941" y1="93.2857" x2="279.79733" y2="94.40562"/><line class="l" x1="265.04704" y1="97.6201" x2="270.58682" y2="98.51324"/><ellipse class="bk" cx="281.97131" cy="46.62604" rx="2.84975" ry="10.20208" transform="translate(93.12009 261.14183) rotate(-58.0299)"/><path class="bl" d="M290.626,52.02782,269.61782,85.687c-.83335,1.3352-5.38432-.00133-10.16357-2.98426s-7.97915-6.48408-7.14579-7.81927l21.00817-33.65919c-.83335,1.3352,2.36657,4.83635,7.1458,7.81927S289.79264,53.363,290.626,52.02782Z"/><line class="l" x1="276.34972" y1="74.90118" x2="261.51154" y2="83.8942"/><line class="l" x1="281.92095" y1="65.97499" x2="257.25781" y2="81.21666"/><line class="l" x1="287.26005" y1="57.42072" x2="253.99847" y2="78.41211"/><line class="l" x1="287.98953" y1="52.39791" x2="253.83458" y2="72.73512"/><line class="l" x1="282.47813" y1="50.30164" x2="259.17367" y2="64.18086"/><line class="l" x1="278.21425" y1="47.64036" x2="264.61159" y2="55.17146"/><line class="l" x1="275.21245" y1="44.42318" x2="270.08399" y2="46.70039"/><ellipse class="bm" cx="289.34295" cy="71.49271" rx="2.84975" ry="10.20208" transform="translate(-3.17659 128.61424) rotate(-24.92836)"/><path class="bn" d="M285.04292,62.24108l35.98074-16.72335c1.42729-.66339,4.50974,2.94162,6.88428,8.0505s3.14306,9.78935,1.71577,10.45273L293.643,80.74432c1.42729-.66339.65876-5.34388-1.71577-10.45273S286.47021,61.5777,285.04292,62.24108Z"/><line class="l" x1="309.49392" y1="50.87659" x2="326.83523" y2="51.4466"/><line class="l" x1="299.95207" y1="55.31151" x2="328.93633" y2="56.01265"/><line class="l" x1="290.80779" y1="59.56165" x2="330.13506" y2="60.14205"/><line class="l" x1="287.45362" y1="63.37089" x2="327.17201" y2="64.98718"/><line class="l" x1="290.92572" y1="68.13686" x2="318.02773" y2="69.23732"/><line class="l" x1="293.0442" y1="72.69483" x2="308.55212" y2="73.81475"/><line class="l" x1="293.80183" y1="77.02924" x2="299.34161" y2="77.92238"/></svg>