<svg xmlns="http://www.w3.org/2000/svg" xmlns:xlink="http://www.w3.org/1999/xlink" viewBox="0 0 379.30852 307.14328"><defs><style>.a,.j,.k{fill:none;}.a,.b,.c,.d,.e,.f,.g,.h,.i,.j,.k{stroke:#231f20;stroke-miterlimit:10;}.b{fill:url(#a);}.c{fill:#47484a;}.d{fill:#73797a;}.e{fill:#32393a;}.f{fill:url(#b);}.g{fill:#292a2b;}.h{fill:#3e4242;}.i{fill:#212323;}.j{stroke-width:0.51502px;}.k{stroke-width:0.52998px;}</style><linearGradient id="a" x1="37.55565" y1="120.89203" x2="349.10848" y2="120.89203" gradientUnits="userSpaceOnUse"><stop offset="0" stop-color="#464646"/><stop offset="1"/></linearGradient><linearGradient id="b" x1="38.12285" y1="196.97194" x2="348.37694" y2="196.97194" gradientUnits="userSpaceOnUse"><stop offset="0" stop-color="#949494"/><stop offset="1"/></linearGradient></defs><path class="a" d="M62.7605,250.87251c49.192-5.12937,98.205-4.39783,147.94956-1.47168,26.33536,2.19461,51.20763,5.12076,76.81145,12.43613,6.58384,2.19462,13.89921,3.65769,19.75151,8.77845.73154.73154,1.46308,0,2.19461.73154,4.38923,3.65769,4.38923,9.51.73154,13.89922-5.12076,5.8523-12.43614,7.31537-19.02,9.51-14.63076,5.12077-29.26151,7.31538-43.89226,8.77845-11.7046.73154-23.4092,2.19462-35.1138,2.19462-25.60382,1.46307-51.20763,1.46307-77.543-2.19462h-7.31538c-13.89921-1.46307-27.06689-5.12076-40.23456-9.51a17.27124,17.27124,0,0,1-6.58384-5.8523,7.0168,7.0168,0,0,1,1.46307-6.58384c5.8523-5.12077,12.43614-5.8523,19.75152-7.31538,9.51-2.19461,17.5569-4.38922,27.06689-5.12076,4.38922-.73154,8.77845,0,13.16767,0,18.28844-2.19461,37.30842.73154,55.59686,1.46307,2.19461,0,4.38922,1.46308,6.58384,1.46308a62.71934,62.71934,0,0,1,19.75151,3.65769c2.19461,1.46307,5.12076,2.19461,5.8523,5.12076s-2.92615,4.38923-4.38922,5.8523c-12.43614,5.12076-26.33536,5.8523-39.503,6.58384-13.89922.73154-27.79843-.73154-42.42918-2.92615-3.65769-.73154-8.77845-1.46308-9.51-5.8523,0-2.19461,2.92615-3.65769,5.12076-4.38923,17.55691-3.65769,35.11381-5.12076,52.67071-.73153,1.46307.73153,2.19461,2.19461,3.61659,3.50315-2.05651,1.39123-3.30865-4.65472,0,0-2.05651,1.39123-3.93592,2.94266-6.54,3.00883"/><ellipse class="b" cx="193.33207" cy="120.89203" rx="155.77641" ry="43.89225"/><line class="a" x1="348.37694" y1="232.81728" x2="348.37694" y2="228.42805"/><rect class="c" x="22.74084" y="155.05472" width="10.97306" height="27.58766" rx="5.48653" transform="translate(-142.42593 155.28135) rotate(-75.96376)"/><path class="d" d="M2.47555,171.7904l0,0A9.491,9.491,0,0,1,3.48308,159.08L29.3043,135.78944a7.99994,7.99994,0,0,1,11.824,1.13647l0,0a9.49106,9.49106,0,0,1-1.00754,12.71041L14.29954,172.92686A7.99994,7.99994,0,0,1,2.47555,171.7904Z"/><path class="e" d="M16.1707,166.95534a7.7753,7.7753,0,0,1-7.59353,7.9555A7.77531,7.77531,0,0,1,.54074,167.403a7.671,7.671,0,0,1,2.62892-6.00132,7.82922,7.82922,0,0,1,13.001,5.55366Z"/><path class="f" d="M348.37694,113.57666V228.42805c0,28.68356-69.4492,51.93917-155.127,51.93917s-155.127-23.25561-155.127-51.93917V113.57666c0,28.68356,69.44921,51.93916,155.12705,51.93916S348.37694,142.26022,348.37694,113.57666Z"/><rect class="g" x="350.46967" y="143.35012" width="10.97306" height="27.58766" rx="5.48653" transform="translate(291.6959 540.90123) rotate(-104.31401)"/><rect class="g" x="329.98661" y="164.56471" width="10.97306" height="27.58766" rx="5.48653" transform="matrix(-0.19834, -0.98013, 0.98013, -0.19834, 227.19466, 542.54224)"/><path class="h" d="M338.18023,187.74387l0,0a9.491,9.491,0,0,1,1.00754-12.7104L365.009,151.74291a7.99994,7.99994,0,0,1,11.824,1.13647l0,0a9.49106,9.49106,0,0,1-1.00754,12.71041l-25.82122,23.29053A7.99993,7.99993,0,0,1,338.18023,187.74387Z"/><path class="i" d="M351.87538,182.90881a7.81863,7.81863,0,0,1-15.63.44767,7.671,7.671,0,0,1,2.62893-6.00133,7.82921,7.82921,0,0,1,13.001,5.55366Z"/><path class="j" d="M96.38469,24.88505C66.27855,32.36924,58.62023,56.05386,79.26216,77.83929"/><path class="k" d="M77.948,77.90481c27.28442,21.4796,26.65,46.43-1.41848,55.78438"/><path class="j" d="M146.20059,37.10278C116.09446,44.587,108.43614,68.27159,129.07806,90.057"/><path class="k" d="M127.76388,90.12254c27.28442,21.4796,26.65,46.43-1.41848,55.78438"/><path class="j" d="M249.79173,45.554C219.6856,53.0382,212.02728,76.72282,232.6692,98.50826"/><path class="k" d="M231.355,98.57377c27.28443,21.4796,26.65,46.43-1.41847,55.78438"/><path class="j" d="M302.55187,10.5929c-30.10613,7.4842-37.76445,31.16881-17.12253,52.95425"/><path class="k" d="M284.11516,63.61266c27.28443,21.4796,26.65,46.43-1.41847,55.78438"/><path class="j" d="M194.33333.2499c-30.10614,7.4842-37.76446,31.16881-17.12253,52.95425"/><path class="k" d="M175.89662,53.26966c27.28442,21.4796,26.65,46.43-1.41848,55.78439"/></svg>