<svg xmlns="http://www.w3.org/2000/svg" xmlns:xlink="http://www.w3.org/1999/xlink" viewBox="0 0 538.23843 145.29871"><defs><style>.a,.b,.c,.d,.e{stroke:#231f20;stroke-miterlimit:10;}.a{fill:url(#a);}.b{fill:url(#b);}.c{fill:url(#c);}.d{fill:url(#d);}.e{fill:none;}</style><linearGradient id="a" x1="539.4696" y1="11.84516" x2="278.43535" y2="11.84516" gradientTransform="matrix(0.99367, 0.09699, 0, 1, 1.68101, -14.93916)" gradientUnits="userSpaceOnUse"><stop offset="0" stop-color="#231f20"/><stop offset="0.78818" stop-color="#808285"/></linearGradient><linearGradient id="b" x1="584.73893" y1="46.03068" x2="332.40133" y2="46.03068" gradientTransform="matrix(0.99345, 0.11824, -0.2776, 0.69372, -34.46982, -59.04265)" gradientUnits="userSpaceOnUse"><stop offset="0" stop-color="#414042"/><stop offset="0.78818" stop-color="#939598"/></linearGradient><linearGradient id="c" x1="76.26306" y1="110.14431" x2="232.94257" y2="-46.5352" gradientUnits="userSpaceOnUse"><stop offset="0" stop-color="#231f20"/><stop offset="0.78818" stop-color="#6d6e71"/></linearGradient><linearGradient id="d" x1="0.5" y1="64.78624" x2="307.47772" y2="64.78624" gradientUnits="userSpaceOnUse"><stop offset="0" stop-color="#0e0e0e"/><stop offset="0.78818" stop-color="#808285"/></linearGradient></defs><path class="a" d="M536.47674,40.2941c-8.63254,11.80495-62.73373,6.87439-68.35857,6.33763-11.09722-1.0647-18.95495-2.56226-19.3393-2.63046-21.52336-4.09-67.52278-6.52914-170.42363-1.53693V31.58505c26.62962-1.29333,49.44634-2.087,69.01135-2.47968,39.252,2.40064,66.54058,2.72495,85.5809,1.83286,6.39965.63078,11.59137,1.37082,15.83138,2.17757.38435.07435,8.24208,1.5658,19.3393,2.6305,5.44793.5256,56.41335,5.16852,67.42514-5.2868C537.825,33.52483,538.63638,37.343,536.47674,40.2941Z"/><path class="b" d="M278.35452,36.48278C381.26,31.493,427.25767,33.93127,448.78029,38.01692c.38189.07249,8.24532,1.56719,19.34215,2.631,5.61967.53873,59.72222,5.46744,68.35627-6.33769,3.13888-4.29172-1.32754-3.86578-4.83374-13.40388-1.78264-4.84942-10.21991-5.27107-12.77091-5.29154-27.0237-.21684-40.53555,2.13056-56.54653,5.92289-20.24382,4.79492-67.65616,6.66279-181.67818-3.53124"/><ellipse class="c" cx="154.60281" cy="31.80456" rx="153.48886" ry="31.30456"/><path class="d" d="M307.47772,35.6909c0,33.60177-68.72,60.84912-153.48886,60.84912S.5,69.29267.5,35.6909a23.95045,23.95045,0,0,1,.14734-2.65843C4.15919,49.68908,71.47323,62.96894,153.98886,62.96894S303.81853,49.68908,307.33038,33.03247A23.95045,23.95045,0,0,1,307.47772,35.6909Z"/><path class="e" d="M35.15618,89.02794c49.192-5.12937,98.205-4.39784,147.94957-1.47169,26.33535,2.19462,51.20762,5.12077,76.81144,12.43614,6.58384,2.19462,13.89921,3.65769,19.75151,8.77845.73154.73154,1.46308,0,2.19462.73154,4.38922,3.65769,4.38922,9.51.73153,13.89921-5.12076,5.8523-12.43614,7.31538-19.02,9.51-14.63075,5.12077-29.26151,7.31538-43.89226,8.77845-11.7046.73154-23.4092,2.19462-35.1138,2.19462-25.60381,1.46307-51.20763,1.46307-77.543-2.19462H99.71046c-13.89921-1.46307-27.06689-5.12076-40.23456-9.51a17.27115,17.27115,0,0,1-6.58384-5.8523,7.01676,7.01676,0,0,1,1.46308-6.58383c5.8523-5.12077,12.43613-5.8523,19.75151-7.31538,9.51-2.19461,17.5569-4.38922,27.06689-5.12076,4.38922-.73154,8.77845,0,13.16768,0,18.28843-2.19461,37.30841.73154,55.59685,1.46307,2.19461,0,4.38922,1.46308,6.58384,1.46308a62.71929,62.71929,0,0,1,19.75151,3.65769c2.19461,1.46307,5.12076,2.19461,5.8523,5.12076s-2.92615,4.38922-4.38922,5.8523c-12.43614,5.12076-26.33536,5.8523-39.503,6.58384-13.89921.73153-27.79843-.73154-42.42918-2.92615-3.65769-.73154-8.77845-1.46308-9.51-5.8523,0-2.19462,2.92615-3.65769,5.12077-4.38923,17.5569-3.65769,35.1138-5.12076,52.6707-.73154,1.46307.73154,2.19461,2.19462,3.61659,3.50315-2.05651,1.39124-3.30865-4.65472,0,0-2.05651,1.39124-3.93592,2.94267-6.54,3.00884"/></svg>