<svg xmlns="http://www.w3.org/2000/svg" xmlns:xlink="http://www.w3.org/1999/xlink" viewBox="0 0 1013.53191 274.45465"><defs><style>.a,.ae,.af,.al,.am,.at,.au,.bb,.bc,.h,.s,.t{fill:none;}.b,.c,.d,.e,.g,.h{stroke:#231f20;stroke-width:1.8848px;}.ae,.ag,.al,.ao,.at,.av,.b,.bb,.bd,.c,.d,.e,.g,.h,.s,.u{stroke-miterlimit:10;}.b{fill:url(#a);}.c{fill:url(#b);}.d{fill:url(#c);}.e{fill:url(#d);}.f{fill:url(#e);}.g{fill:url(#f);}.i{clip-path:url(#g);}.j{fill:#ccc49b;}.k{fill:#a89e78;}.l{clip-path:url(#h);}.m{fill:#184551;}.ag,.ao,.av,.bd,.n,.u{fill:#fff;}.o{clip-path:url(#i);}.p{fill:#231f20;}.q{fill:url(#j);}.r{fill:#f1f2f2;}.ae,.af,.ag,.al,.am,.ao,.at,.au,.av,.bb,.bc,.bd,.s,.t,.u{stroke:#f7941d;}.ae,.af,.al,.am,.at,.au,.bb,.bc,.s,.t{stroke-linecap:round;}.s,.t{stroke-width:2.15523px;}.af,.am,.au,.bc,.t{stroke-linejoin:round;}.u{stroke-width:1.61642px;}.v{clip-path:url(#k);}.w{clip-path:url(#l);}.x{clip-path:url(#m);}.y{clip-path:url(#n);}.z{clip-path:url(#o);}.aa{clip-path:url(#p);}.ab{clip-path:url(#q);}.ac{clip-path:url(#r);}.ad{fill:url(#s);}.ae,.af{stroke-width:1.77992px;}.ag{stroke-width:1.33494px;}.ah{clip-path:url(#t);}.ai{clip-path:url(#u);}.aj{clip-path:url(#v);}.ak{clip-path:url(#w);}.al,.am{stroke-width:2.54814px;}.an{clip-path:url(#x);}.ao{stroke-width:1.91111px;}.ap{clip-path:url(#y);}.aq{clip-path:url(#z);}.ar{clip-path:url(#aa);}.as{fill:url(#ab);}.at,.au{stroke-width:2.41154px;}.av{stroke-width:1.80866px;}.aw{clip-path:url(#ac);}.ax{clip-path:url(#ad);}.ay{clip-path:url(#ae);}.az{clip-path:url(#af);}.ba{fill:url(#ag);}.bb,.bc{stroke-width:2.4116px;}.bd{stroke-width:1.8087px;}.be{clip-path:url(#ah);}.bf{clip-path:url(#ai);}.bg{clip-path:url(#aj);}.bh{clip-path:url(#ak);}.bi{clip-path:url(#al);}</style><linearGradient id="a" x1="1030.8946" y1="-197.20087" x2="538.89602" y2="-197.20087" gradientTransform="matrix(0.99367, 0.09699, 0, 1, -11.78461, 191.53916)" gradientUnits="userSpaceOnUse"><stop offset="0" stop-color="#231f20"/><stop offset="0.78818" stop-color="#808285"/></linearGradient><linearGradient id="b" x1="1053.51346" y1="-243.88738" x2="577.90638" y2="-243.88738" gradientTransform="matrix(0.99345, 0.11824, -0.2776, 0.69372, -109.41306, 125.37739)" gradientUnits="userSpaceOnUse"><stop offset="0" stop-color="#414042"/><stop offset="0.78818" stop-color="#939598"/></linearGradient><linearGradient id="c" x1="142.79857" y1="209.13788" x2="438.10884" y2="-86.17238" gradientUnits="userSpaceOnUse"><stop offset="0" stop-color="#231f20"/><stop offset="0.78818" stop-color="#6d6e71"/></linearGradient><linearGradient id="d" y1="123.64678" x2="578.59304" y2="123.64678" gradientUnits="userSpaceOnUse"><stop offset="0" stop-color="#0e0e0e"/><stop offset="0.78818" stop-color="#808285"/></linearGradient><radialGradient id="e" cx="282.92786" cy="88.52359" r="164.71465" gradientUnits="userSpaceOnUse"><stop offset="0" stop-color="#c2b59b"/><stop offset="0.05325" stop-color="#c4a98f"/><stop offset="0.24389" stop-color="#ca8168"/><stop offset="0.41861" stop-color="#cf654c"/><stop offset="0.5703" stop-color="#d2533b"/><stop offset="0.68184" stop-color="#d34d35"/></radialGradient><linearGradient id="f" x1="282.80379" y1="235.50815" x2="282.80379" y2="92.75139" gradientUnits="userSpaceOnUse"><stop offset="0" stop-color="#ed1c24"/><stop offset="0.29592" stop-color="#f7941d"/><stop offset="0.80612" stop-color="#f9ed32"/><stop offset="1" stop-color="#f9ed32"/></linearGradient><clipPath id="g"><rect class="a" x="375.62404" y="74.30213" width="35.41408" height="39.07225"/></clipPath><clipPath id="h"><path class="a" d="M147.2657,91.91034c-.14242-.44946-.279-.89725-.41332-1.34943-5.79455-19.73183-4.10346-41.12467,6.50182-61.6609C164.07829,8.1337,182.35847-8.73172,204.7546-20.4999c.22857-.11885.45939-.242.696-.36357L304.91269,40.308l96.34994,59.25513,3.49877,2.15174-129.29995-4.921Z"/></clipPath><clipPath id="i"><polygon class="a" points="250.232 81.583 232.1 109.505 165.864 85.622 183.996 57.7 250.232 81.583"/></clipPath><radialGradient id="j" cx="485.56924" cy="1550.27571" r="51.09487" gradientTransform="matrix(0.18357, -0.28268, 0.59345, 0.21399, -793.94412, -108.37031)" gradientUnits="userSpaceOnUse"><stop offset="0" stop-color="#ffde17"/><stop offset="1" stop-color="#f5841f"/></radialGradient><clipPath id="k"><polygon class="a" points="263.045 -11.664 205.451 -20.981 404.761 101.597 263.045 -11.664"/></clipPath><clipPath id="l"><rect class="a" x="50.17969" y="61.54871" width="32.8546" height="43.19582" transform="translate(85.52386 -21.69613) rotate(48.92536)"/></clipPath><clipPath id="m"><path class="a" d="M-81.77671-90.34479c.28777-.42608.57771-.84688.87269-1.26927a106.311,106.311,0,0,1,55.35228-40.24231c23.84386-7.58419,49.04252-7.05033,72.502.06465.23838.07353.48175.14548.72728.22271L57.324-17.5742,66.67056,92.85214l.3394,4.00992L-7.70427,2.85888Z"/></clipPath><clipPath id="n"><polygon class="a" points="-10.406 -25.834 -44.729 -18.234 -65.199 -81.906 -30.876 -89.506 -10.406 -25.834"/></clipPath><clipPath id="o"><polygon class="a" points="75.117 -84.607 47.776 -131.655 67.108 96.777 75.117 -84.607"/></clipPath><clipPath id="p"><polygon class="a" points="146.552 88.231 114.884 84.976 120.992 55.802 152.66 59.058 146.552 88.231"/></clipPath><clipPath id="q"><path class="a" d="M-85.96247,47.9581c-.05709-.34869-.10922-.69559-.15864-1.04557-2.09684-15.2657,2.75976-31.08351,15.45367-45.4423C-57.83132-13.04942-38.84825-23.96184-16.98151-30.69c.223-.06773.44864-.13849.67925-.20747l79.3775,54.81739,76.89419,53.1005,2.79227,1.92824L27.90885,63.38862Z"/></clipPath><clipPath id="r"><polygon class="a" points="7.727 49.712 -12.853 68.894 -68.349 44.972 -47.769 25.791 7.727 49.712"/></clipPath><radialGradient id="s" cx="313.98398" cy="1252.5221" r="51.09487" gradientTransform="matrix(0.20834, -0.19419, 0.49722, 0.21433, -712.49843, -157.60659)" xlink:href="#j"/><clipPath id="t"><polygon class="a" points="33.761 -18.734 -16.284 -30.985 142.78 78.861 33.761 -18.734"/></clipPath><clipPath id="u"><polygon class="a" points="249.956 101.043 259.802 68.307 315.9 78.239 306.054 110.975 249.956 101.043"/></clipPath><clipPath id="v"><path class="a" d="M354.10779-137.32722c.68491-.01741,1.3658-.02984,2.05237-.03906,29.941-.34072,60.18559,6.66036,86.722,21.6838,26.83368,15.19177,45.96588,36.37667,56.6354,60.07059.10709.2415.21979.48618.32847.73583L384.36637,21.5156l-111.86308,74.002-4.0621,2.68725L311.45494-20.06678Z"/></clipPath><clipPath id="w"><polygon class="a" points="340.308 -39.522 305.26 -63.381 357.966 -118.537 393.013 -94.678 340.308 -39.522"/></clipPath><clipPath id="x"><polygon class="a" points="470.625 -3.975 500.015 -54.846 268.61 98.235 470.625 -3.975"/></clipPath><clipPath id="y"><polygon class="a" points="224.385 13.978 252.548 37.342 213.609 66.552 185.447 43.188 224.385 13.978"/></clipPath><clipPath id="z"><path class="a" d="M412.75706,204.0455c-.33466.43-.6723.85484-1.01613,1.2815-15.05639,18.57416-37.721,33.4515-66.62083,41.80742-29.22361,8.44953-60.56857,8.99776-90.10684,3.01992-.30022-.062-.60655-.12214-.91585-.18742L235.96374,138.617,218.39521,30.75282l-.638-3.91689L315.6775,115.819Z"/></clipPath><clipPath id="aa"><polygon class="a" points="320.582 143.835 362.828 134.924 391.7 196.477 349.454 205.388 320.582 143.835"/></clipPath><radialGradient id="ab" cx="524.56947" cy="1315.95498" r="51.09487" gradientTransform="matrix(-0.42769, 0.09021, -0.25868, -0.5515, 917.71321, 841.97947)" xlink:href="#j"/><clipPath id="ac"><polygon class="a" points="217.464 205.092 253.98 250.055 217.64 26.924 217.464 205.092"/></clipPath><clipPath id="ad"><polygon class="a" points="128.552 114.2 142.878 85.763 197.282 98.706 182.956 127.143 128.552 114.2"/></clipPath><clipPath id="ae"><path class="a" d="M265.13834-90.49133c.68344.03453,1.36219.07319,2.04615.11513,29.81857,1.8836,58.92189,10.32817,83.22656,25.6468,24.577,15.49025,40.6658,35.75559,47.99228,57.63736.073.22291.15118.44906.22466.67934L273.21916,53.18838l-121.48172,57.737-4.41138,2.09661L206.48166,10.8282Z"/></clipPath><clipPath id="af"><polygon class="a" points="237.866 -4.391 206.323 -28.201 266.371 -73.475 297.915 -49.665 237.866 -4.391"/></clipPath><radialGradient id="ag" cx="493.42332" cy="1361.18412" r="51.09487" gradientTransform="matrix(0.31934, 0.24104, -0.53801, 0.40564, 820.49921, -705.09829)" xlink:href="#j"/><clipPath id="ah"><polygon class="a" points="362.521 36.786 398.792 -6.374 147.49 113.061 362.521 36.786"/></clipPath><clipPath id="ai"><rect class="a" x="431.80513" y="45.51604" width="43.78921" height="57.57218" transform="matrix(0.26917, 0.96309, -0.96309, 0.26917, 403.1388, -382.65284)"/></clipPath><clipPath id="aj"><polygon class="a" points="560.056 -122.693 554.109 -194.975 446.493 90.991 560.056 -122.693"/></clipPath><clipPath id="ak"><polygon class="a" points="352.836 63.575 336.028 39.177 381.871 23.715 398.679 48.112 352.836 63.575"/></clipPath><clipPath id="al"><polygon class="a" points="429.303 -87.864 412.9 -131.229 363.675 54.59 429.303 -87.864"/></clipPath></defs><path class="b" d="M1010.21146,77.48387c-16.27064,22.25-118.24082,12.95689-128.84256,11.94521-20.91608-2.00675-35.72637-4.82936-36.45079-4.95791C804.35078,76.76234,717.65086,72.165,523.70285,81.57435V61.069c50.19164-2.43768,93.19669-3.93354,130.07293-4.67371,73.98239,4.52474,125.416,5.136,161.30327,3.45458,12.0621,1.1889,21.84747,2.58373,29.83906,4.10429.72442.14014,15.53471,2.95123,36.45079,4.958,10.26831.99065,106.32815,9.74166,127.08323-9.96458C1012.75269,64.72512,1014.282,71.92169,1010.21146,77.48387Z"/><path class="c" d="M523.7015,70.30028c193.9567-9.40474,280.65335-4.80909,321.21929,2.89155.71978.13664,15.54081,2.95386,36.45617,4.9589,10.592,1.0154,112.56472,10.305,128.83821-11.94532,5.91618-8.089-2.50214-7.28623-9.11064-25.26369-3.35993-9.14021-19.26255-9.93493-24.07068-9.97352-50.93439-.40871-76.40159,4.01568-106.57917,11.1635C832.299,51.16918,742.936,54.68976,528.02681,35.476"/><ellipse class="d" cx="290.45371" cy="61.48275" rx="289.29652" ry="59.00297"/><path class="e" d="M578.593,68.80775c0,63.33277-129.52383,114.6887-289.29652,114.6887S0,132.14052,0,68.80775a45.13885,45.13885,0,0,1,.27771-5.01063c6.61914,31.39446,133.493,56.4244,289.01881,56.4244s282.39966-25.02994,289.0188-56.4244A45.13885,45.13885,0,0,1,578.593,68.80775Z"/><path class="f" d="M513.01087,90.90258c-13.297,11.601-110.937,29.57251-232.56956,29.57251S52.18789,108.5489,52.18789,90.90258,158.80872,56.5721,280.44131,56.5721,523.70285,81.57435,513.01087,90.90258Z"/><path class="g" d="M57.62137,181.926c-4.379-5.03746-19.25851-23.71484-7.37331-42.53272,3.84436-6.0868,10.09908-11.571,13.825-11.13953,5.822.67414-.75009,15.07191,12.9033,20.76,7.3128,3.04657,20.66655,3.6941,25.80661.50635,11.06529-6.86245-26.6624-24.84576-15.6683-44.5581,4.08887-7.33131,13.76831-12.84226,17.51163-12.15221,5.428,1.00062-3.67232,14.66271,8.295,20.25368,7.52665,3.51637,14.824-.1603,23.96328,3.03806,12.03042,4.21014,12.85423,15.2943,13.825,28.35515.9614,12.93534-2.35313,16.91724,1.84333,18.22831,9.25987,2.893,41.99386-11.31041,39.63157-23.79807-1.443-7.62814-15.59144-12.55172-13.825-13.67124,2.02838-1.28551,18.12073,6.83023,44.2399,10.63318,11.26317,1.63993,23.84824,3.47231,31.3366,0,10.42278-4.833,2.043-15.80255,8.295-17.21562,6.02688-1.3622,23.2448,6.70019,26.72827,17.21562,4.397,13.27291-15.7657,22.37159-8.295,27.34247,4.83489,3.217,18.79228,3.07413,25.80661-.50634,13.58133-6.93261-3.97853-24.14323,4.60832-26.83613,6.33251-1.98591,24.37017,4.71245,31.3366,14.17758,7.9889,10.85432-2.05378,20.62976,2.765,21.7727,4.51,1.06972,18.701-6.21392,22.12-15.6966,4.38047-12.14947-11.39691-21.04392-7.37332-22.78539,4.81478-2.0839,35.04537,7.34649,44.2399,23.29173,8.11728,14.07705-5.01343,24.81663,3.68666,27.84881,7.74429,2.69906,27.49794-2.55186,33.17993-10.63318,7.87808-11.20479-14.44464-23.37126-8.295-26.32978,4.44636-2.13908,20.04688,2.33009,30.41493,8.10147,12.41445,6.91055,14.39774,14.05748,17.51162,13.67123,3.69178-.45793,3.94509-10.88092.92167-20.25368-2.76139-8.56028-6.96587-12.2449-4.60832-13.16489,3.75258-1.46435,20.26643,5.58366,30.41493,14.68392,2.23058,2.0002,17.04534,15.2847,11.06,28.35515-6.63374,14.48635-27.51054,33.27042-51.61321,38.482-34.42936,7.44444-242.68653,39.54156-360.37085-5.06342C75.002,200.37956,61.97207,186.93084,57.62137,181.926Z"/><path class="h" d="M65.32013,169.33765c92.7173-9.66787,185.09727-8.28906,278.856-2.77384,49.637,4.13641,96.51638,9.65163,144.77457,23.43969,12.40925,4.13642,26.1973,6.894,37.22775,16.54566,1.3788,1.37881,2.75761,0,4.13641,1.37881,8.27283,6.894,8.27283,17.92447,1.37881,26.1973-9.65164,11.03044-23.43969,13.78806-35.84894,17.92447-27.57611,9.65164-55.15222,13.78806-82.72833,16.54567-22.06088,1.3788-44.12177,4.13641-66.18266,4.13641-48.25819,2.75761-96.51637,2.75761-146.15337-4.13641h-13.788c-26.19731-2.75761-51.0158-9.65164-75.8343-17.92447A32.55284,32.55284,0,0,1,98.7488,239.64049c-1.3788-4.13641,0-9.65163,2.75761-12.40925,11.03045-9.65163,23.43969-11.03044,37.22775-13.78805,17.92447-4.13642,33.09133-8.27283,51.0158-9.65164,8.27283-1.3788,16.54566,0,24.81849,0,34.47014-4.13641,70.31908,1.37881,104.78922,2.75761,4.13641,0,8.27283,2.75761,12.40924,2.75761,12.40925,0,24.8185,2.75762,37.22775,6.894,4.13642,2.75761,9.65164,4.13642,11.03044,9.65164s-5.51522,8.27283-8.27283,11.03044c-23.43969,9.65164-49.637,11.03045-74.45549,12.40925-26.1973,1.37881-52.39461-1.3788-79.97071-5.51522-6.894-1.37881-16.54567-2.75761-17.92447-11.03044,0-4.13642,5.51522-6.894,9.65163-8.27284,33.09133-6.894,66.18266-9.65163,99.274-1.3788,2.75761,1.3788,4.13642,4.13641,6.81658,6.60275-3.87613,2.62221-6.23617-8.77323,0,0-3.87613,2.62221-7.41845,5.54635-12.32667,5.67107"/><g class="i"><path class="j" d="M147.2657,91.91033c-.14242-.44946-.279-.89725-.41332-1.34944-5.79455-19.73183-4.10346-41.12467,6.50182-61.6609,10.72409-20.76631,29.00427-37.63173,51.4004-49.39991.22857-.11885.45939-.242.696-.36356l99.46205,61.17141,96.34994,59.25514,3.49877,2.15174-129.29995-4.921Z"/><polygon class="k" points="263.045 -11.546 205.451 -20.863 404.761 101.715 263.045 -11.546"/><g class="l"><polygon class="m" points="286.901 13.933 222.063 113.773 161.38 91.892 226.218 -7.948 286.901 13.933"/><polygon class="n" points="301.871 19.331 237.033 119.171 186.971 101.12 251.809 1.279 301.871 19.331"/><path class="n" d="M198.249,54.44675a1.20109,1.20109,0,0,1,.27637.165l1.10839.83789,5.24219,1.89161-.51367.791-5.26856-1.90039-.94628-.78027a.8353.8353,0,0,0-.2461-.1377.41119.41119,0,0,0-.36035.082,1.03375,1.03375,0,0,0-.32129.30664l-.57422.88282-.74316-.26758.72754-1.12109a1.87937,1.87937,0,0,1,.74316-.66016A1.07194,1.07194,0,0,1,198.249,54.44675Z"/><path class="n" d="M200.78121,50.21725l-.83886,1.292,6.13086,1.39746-.51368.791-6.13085-1.39746-.69434,1.06836-.74316-.26758,2.04687-3.15137Z"/><path class="n" d="M210.86813,45.52292,208.43551,49.269l-.74414-.26758,1.91895-2.956-3.02539-1.09082a2.18628,2.18628,0,0,0-2.87989.76074,1.9071,1.9071,0,0,0-.35254,1.46191,1.60022,1.60022,0,0,0,.76758,1.10352l3.58008,2.12109-.51367.791-3.57129-2.13379a3.555,3.555,0,0,0-.46582-.25,2.46815,2.46815,0,0,0-1.28516-.02344l-1.24414.26758.582-.89648a5.50586,5.50586,0,0,1,1.87989-.2334,2.20786,2.20786,0,0,1-.48438-1.23242,2.69594,2.69594,0,0,1,.51465-1.47461,2.789,2.789,0,0,1,1.80859-1.30078,3.55975,3.55975,0,0,1,1.99219.18164Z"/><path class="n" d="M214.53317,39.87936l-.51367.791-4.67383-1.68555a1.44623,1.44623,0,0,0-.93262-.084,1.67948,1.67948,0,0,0-.75586.72851L205.833,42.438l-.74316-.26758,1.97851-3.0459a2.0202,2.0202,0,0,1,2.56739-1.01172Z"/><path class="n" d="M215.32614,32.32077a3.38777,3.38777,0,0,1,1.79589,1.38086,1.99381,1.99381,0,0,1-.07324,2.30469l-1.69043,2.60156-.74414-.26856,1.64746-2.53613a1.376,1.376,0,0,0-.01465-1.60254,2.68377,2.68377,0,0,0-1.43554-1.08887,3.67469,3.67469,0,0,0-1.81641-.21777,2.39859,2.39859,0,0,0-1.68555,1.11133l-.98925,1.52344,1.70508,1.168a.52167.52167,0,0,0,.10253.05371c.165.05957.3086-.00391.42872-.18946l.835-1.28613.74414.26758-.959,1.47754a1.46429,1.46429,0,0,1-.63769.55859.971.971,0,0,1-.74707.043.91148.91148,0,0,1-.165-.0752l-2.5127-1.57421,1.52442-2.34668a3.34155,3.34155,0,0,1,2.249-1.4834A4.47627,4.47627,0,0,1,215.32614,32.32077Z"/><path class="n" d="M226.50289,21.44772l-.51367.791-4.77344-1.72168a1.16426,1.16426,0,0,0-.83007.043,1.44084,1.44084,0,0,0-.71582.57129l-1.43848,2.21582,4.9707,1.793q.73242.26368.21,1.06739l-.71972,1.10742-.74414-.26856.72851-1.12109-4.959-1.78711-.66016,1.01465-.74316-.26758,2.69824-4.15332a2.56312,2.56312,0,0,1,1.17187-.99316,1.83541,1.83541,0,0,1,1.3711-.0752Z"/><path class="n" d="M229.19235,17.3071l-2.04688,3.15136-.74414-.26855,1.51563-2.334-4.44922-1.22949a1.00644,1.00644,0,0,0-1.19531.4961l-.668,1.02929-.74219-.26757.9668-1.49024a1.656,1.656,0,0,1,.77734-.65625,1.38828,1.38828,0,0,1,.92871-.06348Z"/><path class="n" d="M226.18844,11.896a3.88135,3.88135,0,0,1,.4375.22266l2.21387,1.25391-.51367.791-2.07032-1.21875a2.32687,2.32687,0,0,0-.35449-.16015.82231.82231,0,0,0-.59375.05468,1.09558,1.09558,0,0,0-.51758.40723l-.72851,1.12109-.74219-.26757.83887-1.292a2.18192,2.18192,0,0,1,.9541-.8125A1.41828,1.41828,0,0,1,226.18844,11.896Z"/><path class="n" d="M235.54586,7.52292l-3.47656,5.35351-.74414-.26758L233.46578,9.312a9.74316,9.74316,0,0,0-2.87109-1.79883q-1.68457-.60937-2.38769.47266l-1.66114,2.55761-.74414-.26757,1.73047-2.66407q1.147-1.7666,3.54-.90429A9.576,9.576,0,0,1,233.97946,8.521l.82226-1.26562Z"/><path class="n" d="M238.29391,3.2905l-.51367.791-2.06836-.56641a3.01511,3.01511,0,0,1,.48535,3.16993l-.80566-.291a3.05629,3.05629,0,0,0-.0625-2.21973,1.47885,1.47885,0,0,0-1.08692-.99316L232.083,2.67917a.53315.53315,0,0,0-.60547.26953l-.71093,1.09375-.74317-.26758.9336-1.43652a1.32054,1.32054,0,0,1,.59277-.55957,1.26619,1.26619,0,0,1,.74805.001Z"/><g class="o"><polygon class="p" points="244.431 79.492 226.299 107.413 165.864 85.622 183.996 57.7 244.431 79.492"/><polygon class="p" points="244.431 79.492 226.299 107.413 165.864 85.622 183.996 57.7 244.431 79.492"/><polygon class="q" points="258.618 88.423 244.582 110.036 171.803 83.794 185.839 62.181 258.618 88.423"/><ellipse class="p" cx="257.7743" cy="100.65866" rx="36.74846" ry="50.96491" transform="translate(142.32421 352.15624) rotate(-86.67271)"/></g><path class="r" d="M227.02438,92.2612l7.12207,2.58594-1.084,1.66992-7.6621-2.76367q-3.02345-1.08985-4.02247.44726l-.81836,1.25879,2.25782,1.30176.8457-1.30274,2.18164.78614-1.03613,1.5957a1.92011,1.92011,0,0,1-1.14258.78906,2.42744,2.42744,0,0,1-1.51953-.05078,3.24934,3.24934,0,0,1-.30567-.12793L217.456,96.09323l1.81641-2.7959Q221.28806,90.19333,227.02438,92.2612Z"/><path class="r" d="M234.49508,82.95944a3.01491,3.01491,0,0,1,2.16406,2.53027,4.35434,4.35434,0,0,1-.73242,3.10743,6.43,6.43,0,0,1-2.80664,2.34277,5.10823,5.10823,0,0,1-4.00586.30566l-6.89551-2.48632,1.084-1.66895,6.62109,2.38672a2.70236,2.70236,0,0,0,.47168.13379,1.7129,1.7129,0,0,0-1.09668-2.38281l-4.93164-1.77735,1.084-1.66894,5.20605,1.87695a2.93888,2.93888,0,0,1,2.11524,3.35059,4.947,4.947,0,0,0,.9375-1.14454,3.03462,3.03462,0,0,0,.63476-2.07714,1.63681,1.63681,0,0,0-1.208-1.25879l-6.62109-2.38672,1.084-1.66895Z"/><path class="r" d="M209.5195,94.0405q.2417-.42481.45507-.75293a3.43113,3.43113,0,0,1,.40723-.52735,2.27726,2.27726,0,0,1,.4375-.34472,1.74075,1.74075,0,0,1,.51465-.209,2.2657,2.2657,0,0,1,1.27539.12012l3.57519,1.28906-.31933.49121-3.584-1.293a1.371,1.371,0,0,0-1.74707.67871c-.13867.21289-.291.46192-.4541.749Z"/><path class="r" d="M213.98043,88.98385a1.35965,1.35965,0,0,0-.4834.15723,1.04768,1.04768,0,0,0-.38085.35742,2.3536,2.3536,0,0,0-.22657.42578l-.541-.19433a1.91975,1.91975,0,0,1,.22265-.44043,1.71771,1.71771,0,0,1,.39551-.42774,1.8363,1.8363,0,0,1,.56055-.28613,2.7067,2.7067,0,0,1,.71387-.12109,4.97923,4.97923,0,0,1,1.90429.35058,5.22,5.22,0,0,1,.9336.43164,2.62937,2.62937,0,0,1,.61035.4795,1.44618,1.44618,0,0,1,.30176.50976,1.03871,1.03871,0,0,1,.03808.51856,1.34632,1.34632,0,0,1-.209.501,1.733,1.733,0,0,1-.39844.4336,1.93475,1.93475,0,0,1-.56836.29883,2.7423,2.7423,0,0,1-.72363.13964,3.87014,3.87014,0,0,1-.88477-.05761,5.93985,5.93985,0,0,1-1.0332-.27735l-2.5625-.92383.33105-.50976,2.5625.92383a4.81331,4.81331,0,0,0,1.56348.31933,1.58966,1.58966,0,0,0,.68066-.13086,1.068,1.068,0,0,0,.46485-.38769.84158.84158,0,0,0,.1582-.4668.69244.69244,0,0,0-.12988-.39355,1.46348,1.46348,0,0,0-.35742-.34668,4.48525,4.48525,0,0,0-1.10938-.54981q-.34571-.12452-.63867-.20508a4.32728,4.32728,0,0,0-.61621-.12011A2.46135,2.46135,0,0,0,213.98043,88.98385Z"/><path class="r" d="M214.82516,85.81882a1.95145,1.95145,0,0,1,1.36133-.85254,4.45621,4.45621,0,0,1,2.24707.3164,5.25214,5.25214,0,0,1,.93359.43164,2.55237,2.55237,0,0,1,.60938.48047,1.4257,1.4257,0,0,1,.30175.50879,1.05126,1.05126,0,0,1,.03907.51856,1.39805,1.39805,0,0,1-.209.502,1.76466,1.76466,0,0,1-.39843.43262,1.96546,1.96546,0,0,1-.56934.2998,2.74277,2.74277,0,0,1-.72266.13867,3.8674,3.8674,0,0,1-.88476-.05761A5.94084,5.94084,0,0,1,216.5,88.26022a4.8735,4.8735,0,0,1-1.17578-.5791,1.92252,1.92252,0,0,1-.58593-.59668l-.21485.38965-.55957-.20215Q214.30222,86.62448,214.82516,85.81882Zm.92773,1.40234a5.07046,5.07046,0,0,0,1.00586.50391,6.94171,6.94171,0,0,0,.87793.26074,3.88307,3.88307,0,0,0,.75879.084,1.572,1.572,0,0,0,.67871-.13086,1.11034,1.11034,0,0,0,.48243-.41406.75006.75006,0,0,0,.13671-.53906.83655.83655,0,0,0-.28418-.47949,3.92478,3.92478,0,0,0-1.30664-.71485,3.9933,3.9933,0,0,0-1.83593-.31152,1.35442,1.35442,0,0,0-.49219.17285,1.1295,1.1295,0,0,0-.38477.36914l-.33593.53223A1.98968,1.98968,0,0,0,215.75289,87.22116Z"/><path class="r" d="M218.05368,80.99753l1.66406.59961c.21679.0791.40039.15429.54883.22461a2.78694,2.78694,0,0,1,.44336.26562.87092.87092,0,0,1,.3916.83887l2.11914-.14551-.35938.55371-2.74707.16016-1.19726.124a.50893.50893,0,0,0,.00683.21387q.12452.39111.84278.65136l1.90234.68555-.31836.49219-1.66406-.60059a2.83963,2.83963,0,0,1-1.166-.6582.90593.90593,0,0,1-.18261-.33008.89089.89089,0,0,1-.02051-.415l-2.09082.15235.3623-.55664,2.55078-.16114,1.35059-.123a.664.664,0,0,0-.10254-.3125.956.956,0,0,0-.26563-.2461,2.15408,2.15408,0,0,0-.48437-.23535l-1.90332-.68652Z"/><path class="r" d="M219.53121,78.57175a1.46547,1.46547,0,0,1,.99805-.67676,2.76092,2.76092,0,0,1,1.42871.16992l3.50391,1.26367-.8457,1.30274-.5127-.18457.52637-.81153L221.667,78.56686q-1.17187-.42333-1.69141.376a.72329.72329,0,0,0-.11133.29883.71266.71266,0,0,0,.00977.2832,1.30831,1.30831,0,0,0,.16992.40039l.041.05859,3.83007,1.72852-.32129.49414L219.833,80.50729c-.00976-.0039-.03906-.01465-.08691-.03222-.04785-.01661-.17774-.04688-.3916-.08985a3.3208,3.3208,0,0,0-.55274-.07129l-.29687-.01172.32129-.49414a2.63187,2.63187,0,0,1,.62988.0586l.01269-.02051a1.14081,1.14081,0,0,1-.165-.5166,1.32329,1.32329,0,0,1,.04492-.34961A1.38364,1.38364,0,0,1,219.53121,78.57175Z"/><path class="p" d="M191.40287,72.88086c2.24267.80866,4.63566,3.711,3.31184,5.74947s-5.86312,2.44119-8.10579,1.63254-7.03011-4.57438-5.7063-6.61286S189.1602,72.07221,191.40287,72.88086Z"/><path class="p" d="M204.17853,81.6876c3.193,1.19147,6.218,2.1262,8.9569,2.89386l-1.149,1.76925c-2.71437-1.36289-5.49016-2.78351-8.17508-3.87573a55.25222,55.25222,0,0,0-9.902-2.92625q-1.2285-.25-2.58388-.47636l2.7553-1.86527q.44663.23358.95712.492A90.10153,90.10153,0,0,0,204.17853,81.6876Z"/><path class="p" d="M190.18382,64.471l12.66662,8.544c.4902.33065.17458.87955-.46965.81231a19.71013,19.71013,0,0,1-6.90427-2.03206c-3.48983-1.78994-5.71506-4.35125-6.40238-6.94792C188.95406,64.39362,189.69662,64.14234,190.18382,64.471Z"/><path class="p" d="M209.62084,77.42545c2.652,1.52874,5.20176,2.8135,7.52544,3.91046l-1.37674,1.30234c-2.18717-1.59458-4.41868-3.24791-6.63131-4.60952a51.22635,51.22635,0,0,0-8.372-4.093q-1.06039-.4125-2.23983-.826l2.84455-1.11936q.35809.27024.769.57191A81.42818,81.42818,0,0,0,209.62084,77.42545Z"/><polygon class="p" points="188.612 85.587 188.393 86.15 188.174 86.713 182.057 85.089 175.941 83.464 182.276 84.525 188.612 85.587"/><polygon class="p" points="189.381 83.592 189.162 84.156 188.943 84.719 182.827 83.094 176.71 81.469 183.046 82.531 189.381 83.592"/><polygon class="p" points="188.984 84.6 188.765 85.163 188.546 85.727 182.43 84.102 176.313 82.477 182.649 83.538 188.984 84.6"/><polygon class="p" points="189.763 82.644 189.544 83.207 189.325 83.771 183.208 82.146 177.092 80.521 183.427 81.582 189.763 82.644"/><polygon class="p" points="193.997 85.417 191.066 86.065 188.135 86.713 188.904 84.639 189.672 82.564 191.835 83.991 193.997 85.417"/><path class="p" d="M201.43877,86.21484c3.196.52366,6.15586.88366,8.80814,1.15445l-.37952,1.3532c-2.83963-.69067-5.75295-1.41582-8.47206-1.91952a71.24718,71.24718,0,0,0-9.64188-1.0848q-1.15659-.05529-2.41531-.08162l1.74358-1.57752q.47051.12018,1.0053.25157C194.38908,84.87505,197.56959,85.58044,201.43877,86.21484Z"/><path class="p" d="M227.18453,59.25046l-.39453.60839-4.10156-1.47851a.361.361,0,0,0-.46289.16992l-2.09473,3.22656-.57226-.207,2.27246-3.499a.92348.92348,0,0,1,.46387-.3711.77266.77266,0,0,1,.54-.01757Zm-2.23828,3.44824-.3955.60937-3.2334-1.166.39453-.6084Z"/><path class="p" d="M230.53121,54.09714,228.65914,56.98l-.57226-.207,1.47656-2.27344-2.32617-.83887a1.68079,1.68079,0,0,0-2.21582.585,1.46549,1.46549,0,0,0-.27149,1.125,1.2223,1.2223,0,0,0,.59082.84864l2.75391,1.63183-.39551.6084-2.74707-1.6416a2.68634,2.68634,0,0,0-.35937-.19238,1.873,1.873,0,0,0-.98731-.01758l-.958.206.44824-.69043a4.2184,4.2184,0,0,1,1.44629-.17968,1.6865,1.6865,0,0,1-.373-.94825,2.08117,2.08117,0,0,1,.39551-1.13379,2.15635,2.15635,0,0,1,1.3916-1.001,2.73758,2.73758,0,0,1,1.5332.14062Z"/><path class="p" d="M233.35055,49.75632l-.39551.60839-3.5957-1.29589a1.10461,1.10461,0,0,0-.71582-.06446,1.28948,1.28948,0,0,0-.582.55957l-1.40332,2.16016-.57227-.20508,1.52149-2.34375a1.55519,1.55519,0,0,1,1.97656-.77734Z"/><path class="p" d="M235.17477,46.94675l-.39453.60839-4.12012-1.48535a.34441.34441,0,0,0-.23926.03321.453.453,0,0,0-.21191.15429l-.73828,1.13672-.57227-.207.92285-1.41992a.78346.78346,0,0,1,.9961-.3916Z"/><path class="p" d="M237.30953,43.66061l-.3955.6084-1.59082-.43555a2.3201,2.3201,0,0,1,.373,2.4375l-.62109-.22265a2.35069,2.35069,0,0,0-.04688-1.708,1.143,1.143,0,0,0-.83593-.76465l-1.66114-.38574a.4092.4092,0,0,0-.46582.208l-.54589.84179-.57227-.20605.71777-1.10645a1.01591,1.01591,0,0,1,.457-.42968.97511.97511,0,0,1,.57422.001Z"/><path class="p" d="M240.42477,38.86276l-.39551.60938-4.10156-1.4795a.35909.35909,0,0,0-.46192.1709l-2.0957,3.22559-.57226-.20606,2.27246-3.5a.92343.92343,0,0,1,.46386-.37109.78638.78638,0,0,1,.541-.01758ZM238.18551,42.312l-.39551.6084-3.23339-1.166.3955-.6084Z"/><path class="p" d="M246.24118,29.90768l-.39551.6084-3.67188-1.32422a.90415.90415,0,0,0-.63965.03223,1.11838,1.11838,0,0,0-.5498.44043l-1.10645,1.7041,3.82422,1.37891q.5625.20214.16016.82129l-.55274.85253-.57226-.207.55957-.8623-3.81445-1.375-.50684.78027-.57227-.20508,2.07422-3.19531a1.97232,1.97232,0,0,1,.90235-.76367,1.40411,1.40411,0,0,1,1.05468-.05859Z"/><path class="p" d="M248.0195,27.16842l-.39551.6084-4.12012-1.48535a.34853.34853,0,0,0-.23926.03223.45917.45917,0,0,0-.21191.15527l-.73731,1.13574-.57226-.20507.92187-1.4209a.78379.78379,0,0,1,.9961-.3916Z"/><path class="p" d="M250.05465,24.03464l-1.57422,2.42382-.57226-.207,1.166-1.79492-3.42285-.94531a.77262.77262,0,0,0-.91894.38183l-.51368.79-.57226-.20605.74414-1.14551a1.27705,1.27705,0,0,1,.59863-.50391,1.0602,1.0602,0,0,1,.71387-.04882Z"/><path class="p" d="M247.74411,19.87155a3.07238,3.07238,0,0,1,.33593.1709l1.7041.96582-.3955.6084-1.59278-.9375a1.62284,1.62284,0,0,0-.27343-.123.62781.62781,0,0,0-.45606.041.84574.84574,0,0,0-.39746.31445l-.56055.86133-.57226-.20606.64648-.99316a1.66262,1.66262,0,0,1,.73438-.625A1.08835,1.08835,0,0,1,247.74411,19.87155Z"/><path class="p" d="M254.94235,16.50827l-2.67481,4.11816-.57226-.207,1.64746-2.53515a7.47868,7.47868,0,0,0-2.209-1.38477q-1.29492-.46728-1.83593.36426l-1.27832,1.96777-.57227-.20605,1.33008-2.04883A2.06549,2.06549,0,0,1,251.5,15.88034a7.37587,7.37587,0,0,1,2.23731,1.39453l.63281-.97363Z"/><path class="p" d="M257.05661,13.25241l-.39551.6084-1.59082-.43653a2.3199,2.3199,0,0,1,.373,2.43848l-.62011-.22363a2.35311,2.35311,0,0,0-.04688-1.707,1.14094,1.14094,0,0,0-.83691-.76465l-1.66114-.38574a.40675.40675,0,0,0-.46484.208l-.54687.8418-.57227-.207.71777-1.10547a1.01591,1.01591,0,0,1,.457-.42969.96738.96738,0,0,1,.57421.001Z"/><path class="p" d="M234.75875,64.44089l3.61914,1.31738-.38867.59863-3.625-1.30664a2.6981,2.6981,0,0,0-1.38672-.14941,1.7969,1.7969,0,0,0-1.29492.835l-.71777,1.10547,1.33105.86816a.26817.26817,0,0,0,.41016-.10644l.44531-.68653.57324.20606-.53711.82812a1.09218,1.09218,0,0,1-.5.42383.76554.76554,0,0,1-.57324.03223.74874.74874,0,0,1-.11816-.05469l-1.93945-1.19922,1.10644-1.7041a2.58443,2.58443,0,0,1,1.71582-1.21A3.54665,3.54665,0,0,1,234.75875,64.44089Z"/><path class="p" d="M239.65524,58.53366a1.24164,1.24164,0,0,1,.81054,1.38086,3.85694,3.85694,0,0,1-.67773,1.89648,5.02367,5.02367,0,0,1-1.57422,1.54785,2.21748,2.21748,0,0,1-1.94043.36426l-3.24219-1.16894.39551-.6084,3.09864,1.11719a1.60435,1.60435,0,0,0,.59375.10156,2.3234,2.3234,0,0,0,.292-1.24707.91514.91514,0,0,0-.65039-.84766l-2.24024-.80762.39453-.60839,2.38477.85937q1.26855.457.501,2.50879a3.76408,3.76408,0,0,0,1.415-1.417,3.21049,3.21049,0,0,0,.57715-1.46973.94578.94578,0,0,0-.67578-1.04492l-3.09961-1.11719.39551-.6084Z"/><path class="p" d="M246.84567,50.72409l-.39551.6084-3.5957-1.29688a1.10492,1.10492,0,0,0-.71582-.06445,1.29188,1.29188,0,0,0-.582.56055l-1.40333,2.16015-.57226-.206L241.1025,50.143a1.556,1.556,0,0,1,1.97657-.77832Z"/><path class="p" d="M248.21481,44.88229a1.53071,1.53071,0,0,1,1.082,1.123,2.304,2.304,0,0,1-.44727,1.75976,3.6437,3.6437,0,0,1-1.63769,1.38868,2.51042,2.51042,0,0,1-1.90039.12793l-2.957-1.06641.3955-.6084,2.91211,1.04981a1.92438,1.92438,0,0,0,1.41895-.07715,2.60256,2.60256,0,0,0,1.21582-1.01367,1.59743,1.59743,0,0,0,.31543-1.28223,1.20459,1.20459,0,0,0-.83691-.80762l-1.90235-.68652a.58931.58931,0,0,0-.50683.05566,1.22181,1.22181,0,0,0-.42872.40821c-.3125.48046-.29589.78222.0459.90527l.99805.36035-.39453.6084L244.48239,46.73a.662.662,0,0,1-.4668-.69434,1.89463,1.89463,0,0,1,.34961-.98926,2.06083,2.06083,0,0,1,.9082-.81738,1.43582,1.43582,0,0,1,1.08106-.0166Z"/><path class="p" d="M251.747,39.82272a1.32636,1.32636,0,0,1,.88477,1.10156,2.18925,2.18925,0,0,1-.36133,1.62793,3.30335,3.30335,0,0,1-1.47949,1.24414,2.254,2.254,0,0,1-1.71094.13477l-2.623-.94629-.23047.35547-.57227-.206,2.4961-3.84375a1.04022,1.04022,0,0,1,.45019-.43262.79635.79635,0,0,1,.55273.02929Zm-.49023.57422-2.52734-.91113-1.877,2.89062,2.52735.91114a1.70762,1.70762,0,0,0,1.24707-.06348,2.23966,2.23966,0,0,0,1.07129-.87793,1.53452,1.53452,0,0,0,.2832-1.18066A1.0383,1.0383,0,0,0,251.2568,40.39694Z"/><path class="p" d="M257.02731,35.04538l-.46094.71-4.75391,1.32129q-.25927.76025,2.05567,1.74512l.64062-.98633.57227.207-.80469,1.23926a.46361.46361,0,0,1-.38769.19921.90379.90379,0,0,1-.40528-.04687q-2.43311-.876-2.37011-2.16992l-1.95118.6123-.06347-.04687.48242-.74219,3.6416-1.02344q-.40429-1.3872-.87207-1.55664c-.209-.07519-.36133-.042-.45312.10059l-.53516.82422L250.79,35.226l.68164-1.05078a.86965.86965,0,0,1,1.12891-.37891q.77345.27833,1.25,2.08106l3.0918-.86328Z"/><path class="p" d="M260.36813,29.90085l-1.8711,2.88183-.57226-.207,1.47656-2.27344-2.32812-.83886a1.68112,1.68112,0,0,0-2.21485.585,1.46136,1.46136,0,0,0-.27148,1.125,1.22839,1.22839,0,0,0,.5918.84863l2.75195,1.63184-.39453.60839-2.74707-1.6416a2.53615,2.53615,0,0,0-.3584-.1914,1.88552,1.88552,0,0,0-.98828-.01856l-.958.20606.44824-.69043a4.22428,4.22428,0,0,1,1.44727-.17969,1.69549,1.69549,0,0,1-.374-.94824,2.07333,2.07333,0,0,1,.39551-1.13379,2.15076,2.15076,0,0,1,1.3916-1.001,2.74887,2.74887,0,0,1,1.53418.13965Z"/><path class="p" d="M262.46969,20.3569q.3545.126.73731,1.20313.38232,1.07813.80175,1.22851l.792.28613-.39454.6084-.82031-.2959a1.38175,1.38175,0,0,1-.71582-.74707l-.42187-1.05273c-.15235-.38086-.31543-.60156-.48731-.66406l-.76367-.27539a.24072.24072,0,0,0-.30859.11425L259.209,23.34909a.499.499,0,0,1-.39746.26953,1.33323,1.33323,0,0,1-.42774-.10449l-.93554-.33692.3955-.60937.94434.3418,1.69336-2.60743a.72646.72646,0,0,1,.94043-.32421Z"/><path class="p" d="M268.05075,14.8071a1.24219,1.24219,0,0,1,.81054,1.38183,3.844,3.844,0,0,1-.67773,1.89551,5.02377,5.02377,0,0,1-1.57422,1.54785,2.21742,2.21742,0,0,1-1.94043.36524l-3.24219-1.169.39551-.6084,3.09863,1.11719a1.6077,1.6077,0,0,0,.59375.10156,2.31631,2.31631,0,0,0,.293-1.24707.91627.91627,0,0,0-.65137-.84863l-2.24023-.80762.39551-.6084,2.38379.85938q1.26855.45849.501,2.50976a3.75424,3.75424,0,0,0,1.415-1.418,3.20743,3.20743,0,0,0,.57715-1.46875.94519.94519,0,0,0-.67578-1.04493l-3.09961-1.11718.39551-.60938Z"/><path class="s" d="M274.67027,18.3811a9.071,9.071,0,0,0-2.29962,2.38143c-2.73814,4.21635-.37076,9.28837,5.28768,11.32867s12.46522.27628,15.20336-3.94007.37077-9.28837-5.28768-11.32868a14.89419,14.89419,0,0,0-7.44988-.64143"/><line class="t" x1="279.75061" y1="25.48411" x2="277.55832" y2="25.59314"/><path class="t" d="M286.24166,25.302l.40636-.62573c.59407-.91478.08044-2.0152-1.14721-2.45786l-.46432-.16743c-1.84421-.665-4.68838-.31565-5.5808,1.05855-1.521,2.34205,2.4888,3.89563,4.369,5.3046.46588.41805,1.103.77394.93573,1.38814-.24383.89538-1.741.95518-2.71819.89308a11.36,11.36,0,0,1-3.09451-.58947c-4.187-1.50974-5.93874-5.26277-3.91266-8.38265,2.05639-3.16654,7.21408-4.46381,11.437-2.84582,4,1.53259,5.67924,5.19127,3.77889,8.229a6.49136,6.49136,0,0,1-1.36114,1.53991"/><polygon class="u" points="280.581 43.718 259.719 75.843 241.683 69.34 262.545 37.215 280.581 43.718"/><polygon class="p" points="267.676 61.04 266.097 63.471 250.746 57.935 252.324 55.505 267.676 61.04"/><polygon class="p" points="268.739 59.402 267.95 60.617 252.599 55.082 253.388 53.867 268.739 59.402"/><polygon class="p" points="271.562 55.056 271.167 55.664 255.816 50.129 256.21 49.521 271.562 55.056"/><polygon class="p" points="270.98 55.952 269.981 57.49 254.63 51.954 255.629 50.416 270.98 55.952"/><polygon class="p" points="269.7 57.923 268.911 59.138 253.56 53.603 254.349 52.387 269.7 57.923"/><polygon class="p" points="273.509 52.058 271.93 54.488 256.579 48.953 258.158 46.523 273.509 52.058"/><polygon class="p" points="274.573 50.42 273.783 51.635 258.432 46.1 259.221 44.885 274.573 50.42"/><polygon class="p" points="277.395 46.074 277 46.682 261.649 41.146 262.043 40.539 277.395 46.074"/><polygon class="p" points="276.813 46.97 275.814 48.508 260.463 42.972 261.462 41.434 276.813 46.97"/><polygon class="p" points="275.533 48.941 274.744 50.156 259.393 44.62 260.182 43.405 275.533 48.941"/><polygon class="p" points="261.903 69.93 260.324 72.36 244.973 66.825 246.551 64.395 261.903 69.93"/><polygon class="p" points="262.966 68.292 262.177 69.507 246.826 63.972 247.615 62.757 262.966 68.292"/><polygon class="p" points="265.788 63.946 265.394 64.554 250.043 59.018 250.437 58.411 265.788 63.946"/><polygon class="p" points="265.207 64.842 264.208 66.38 248.857 60.844 249.856 59.306 265.207 64.842"/><polygon class="p" points="263.927 66.813 263.138 68.028 247.787 62.493 248.576 61.277 263.927 66.813"/></g><g class="v"><polygon class="m" points="374.546 29.712 265.594 24.437 226.305 -8.072 335.257 -2.797 374.546 29.712"/><polygon class="n" points="384.238 37.731 275.286 32.456 242.874 5.637 351.826 10.912 384.238 37.731"/><polygon class="u" points="268.021 -3.942 309.922 30.681 289.949 29.729 248.048 -4.895 268.021 -3.942"/><polygon class="p" points="289.759 15.178 292.93 17.798 275.929 16.987 272.759 14.367 289.759 15.178"/><polygon class="p" points="287.623 13.413 289.208 14.723 272.208 13.912 270.623 12.602 287.623 13.413"/><polygon class="p" points="281.955 8.729 282.747 9.384 265.747 8.573 264.954 7.918 281.955 8.729"/><polygon class="p" points="283.122 9.694 285.129 11.352 268.128 10.541 266.122 8.883 283.122 9.694"/><polygon class="p" points="285.693 11.818 287.278 13.128 270.278 12.317 268.693 11.007 285.693 11.818"/><polygon class="p" points="278.044 5.497 281.214 8.117 264.213 7.306 261.043 4.686 278.044 5.497"/><polygon class="p" points="275.907 3.732 277.492 5.042 260.492 4.231 258.907 2.921 275.907 3.732"/><polygon class="p" points="271.407 0.013 273.413 1.671 256.412 0.86 254.406 -0.798 271.407 0.013"/><polygon class="p" points="273.977 2.137 275.563 3.447 258.562 2.636 256.977 1.326 273.977 2.137"/><polygon class="p" points="301.355 24.759 304.525 27.379 287.525 26.568 284.354 23.948 301.355 24.759"/><polygon class="p" points="299.218 22.994 300.803 24.304 283.803 23.493 282.218 22.183 299.218 22.994"/><polygon class="p" points="293.55 18.31 294.342 18.965 277.342 18.154 276.549 17.499 293.55 18.31"/><polygon class="p" points="294.718 19.275 296.724 20.933 279.723 20.122 277.717 18.464 294.718 19.275"/><polygon class="p" points="297.289 21.399 298.874 22.709 281.873 21.898 280.288 20.588 297.289 21.399"/></g></g><g class="w"><path class="j" d="M-81.7767-90.3448c.28778-.42608.57771-.84688.8727-1.26927a106.31094,106.31094,0,0,1,55.35227-40.24231c23.84386-7.58419,49.04252-7.05033,72.502.06465.23838.07353.48175.14548.72728.22271L57.324-17.57421,66.67057,92.85213l.3394,4.00992L-7.70426,2.85887Z"/><polygon class="k" points="75.019 -84.521 47.678 -131.569 67.01 96.862 75.019 -84.521"/><g class="x"><g class="y"><ellipse class="p" cx="-21.70658" cy="-6.70363" rx="40.57454" ry="47.34242" transform="translate(0.05329 -13.23221) rotate(-33.86296)"/></g></g><g class="z"><polygon class="m" points="108.601 23.428 46.585 -56.601 49.729 -107.692 111.745 -27.663 108.601 23.428"/><polygon class="n" points="107.825 36.032 45.809 -43.997 48.403 -86.146 110.419 -6.117 107.825 36.032"/></g></g><g class="aa"><path class="j" d="M-85.96247,47.95809c-.05708-.34869-.10922-.69559-.15864-1.04557-2.09684-15.2657,2.75976-31.08351,15.45367-45.4423C-57.83132-13.04943-38.84825-23.96186-16.98151-30.69c.223-.06773.44864-.13849.67925-.20747L63.07525,23.91992l76.89418,53.10049,2.79227,1.92825L27.90885,63.38861Z"/><polygon class="k" points="33.743 -18.646 -16.302 -30.897 142.762 78.949 33.743 -18.646"/><g class="ab"><polygon class="m" points="51.092 2.571 -22.495 71.158 -73.338 49.242 0.249 -19.345 51.092 2.571"/><polygon class="n" points="63.634 7.977 -9.953 76.565 -51.897 58.484 21.69 -10.103 63.634 7.977"/><g class="ac"><polygon class="p" points="2.866 47.617 -17.713 66.799 -68.349 44.972 -47.769 25.791 2.866 47.617"/><polygon class="p" points="2.866 47.617 -17.713 66.799 -68.349 44.972 -47.769 25.791 2.866 47.617"/><polygon class="ad" points="14.156 55.59 -1.774 70.438 -62.752 44.153 -46.822 29.306 14.156 55.59"/><ellipse class="p" cx="11.48851" cy="64.6485" rx="27.9117" ry="45.76573" transform="translate(-53.85887 71.06209) rotate(-85.52873)"/></g><path class="p" d="M2.10055,20.20944l-.44922.418L.29782,20.15573A1.49836,1.49836,0,0,1,.25,22.01022l-.51953-.22363A1.53819,1.53819,0,0,0-.045,20.50729a.85108.85108,0,0,0-.6289-.64746l-1.42481-.44141a.43417.43417,0,0,0-.44726.11231l-.6211.57812-.47851-.20605.81445-.75977a1.01957,1.01957,0,0,1,.47461-.27929,1.02908,1.02908,0,0,1,.51367.05371Z"/><path class="p" d="M5.63668,16.91354l-.44922.418L1.75192,15.851a.37967.37967,0,0,0-.44043.085l-2.377,2.21582-.48046-.207,2.5791-2.40429a.92886.92886,0,0,1,.47363-.2334.81639.81639,0,0,1,.48633.03613Zm-2.542,2.36914-.44922.418-2.707-1.167.44824-.418Z"/><path class="p" d="M12.23727,10.7612l-.44824.418L8.71286,9.853a.95855.95855,0,0,0-.57618-.03418,1.12881,1.12881,0,0,0-.56054.27832L6.3193,11.26706l3.20313,1.38086q.47168.20508.01562.6289l-.627.585-.48047-.207.63574-.59179L5.87106,11.685l-.5752.53711-.47949-.207L7.17086,9.82077a1.99937,1.99937,0,0,1,.92481-.48828,1.50557,1.50557,0,0,1,.95312.05468Z"/><path class="p" d="M14.25582,8.88034l-.44824.418L10.35641,7.81a.38393.38393,0,0,0-.21973.00195.47493.47493,0,0,0-.21386.09668l-.83692.78027-.47949-.207,1.04687-.97461a.82428.82428,0,0,1,.95118-.20117Z"/><path class="p" d="M16.56539,6.727l-1.78613,1.665-.47949-.207L15.623,6.95163,12.70993,5.93112a.81855.81855,0,0,0-.88086.20117l-.583.543-.47949-.206.84472-.78809a1.29647,1.29647,0,0,1,.61426-.32129,1.14226,1.14226,0,0,1,.64648.0293Z"/><path class="p" d="M15.15036,3.40573a2.5858,2.5858,0,0,1,.27343.15918l1.37207.877-.44824.418-1.27734-.8457a1.33622,1.33622,0,0,0-.22364-.11719.66946.66946,0,0,0-.41406-.01074.854.854,0,0,0-.40527.19726l-.63574.5918-.4795-.206.7334-.68262a1.68646,1.68646,0,0,1,.75293-.39844A1.16848,1.16848,0,0,1,15.15036,3.40573Z"/><path class="p" d="M22.11325,1.55612,19.07711,4.3862l-.47851-.207L20.46774,2.437A6.17781,6.17781,0,0,0,18.709,1.20065a1.474,1.474,0,0,0-1.69824.10254L15.55953,2.65475l-.47851-.206,1.50976-1.4082a2.18374,2.18374,0,0,1,2.543-.26856A6.06336,6.06336,0,0,1,20.915,2.019l.71875-.66992Z"/><path class="p" d="M24.51266-.68021l-.44922.418L22.70993-.73392a1.49826,1.49826,0,0,1-.04786,1.85449L22.14254.89694a1.54016,1.54016,0,0,0,.22461-1.27832.85234.85234,0,0,0-.6289-.64844l-1.42481-.4414a.43219.43219,0,0,0-.44726.1123l-.6211.5791-.47949-.207.81543-.75976a1.01947,1.01947,0,0,1,.47461-.2793,1.0419,1.0419,0,0,1,.51367.05469Z"/><path class="p" d="M1.873,31.53073a.83493.83493,0,0,1,.50781,1.10449,2.96364,2.96364,0,0,1-.90234,1.35352A4.93438,4.93438,0,0,1-.17191,35.00046a2.391,2.391,0,0,1-1.79.09375l-2.7168-1.1709.44825-.418,2.59765,1.11914a1.56025,1.56025,0,0,0,.51465.12988A1.6707,1.6707,0,0,0-.66312,33.851a.63506.63506,0,0,0-.44922-.69336l-1.87695-.80859.44824-.418,1.99707.86035q1.06494.45851.05566,1.919A3.66955,3.66955,0,0,0,.999,33.78268a2.49871,2.49871,0,0,0,.74609-1.04492.64527.64527,0,0,0-.43945-.8418L-1.292,30.77682l.44824-.418Z"/><path class="p" d="M9.52438,26.35885l-.44922.418L6.06344,25.479a1.153,1.153,0,0,0-.63281-.11426,1.293,1.293,0,0,0-.60547.36524L3.23239,27.21432l-.48047-.207,1.72754-1.60937a1.63753,1.63753,0,0,1,1.88867-.39844Z"/><path class="p" d="M11.6611,22.12448a1.10735,1.10735,0,0,1,.793.9375,1.69386,1.69386,0,0,1-.67676,1.27344,3.67938,3.67938,0,0,1-1.67969.88476,2.68076,2.68076,0,0,1-1.7207-.0791L5.89938,24.0737l.44922-.418,2.43945,1.05176a2.03832,2.03832,0,0,0,1.28027.07226,2.63266,2.63266,0,0,0,1.2461-.64453,1.16555,1.16555,0,0,0,.4834-.92773.884.884,0,0,0-.62207-.68067L9.581,21.83932a.6357.6357,0,0,0-.46191-.00488,1.18637,1.18637,0,0,0-.44629.26563c-.35352.3291-.38868.55566-.10157.68066l.83692.35937-.44824.418-.92579-.39843a.44872.44872,0,0,1-.30664-.56055,1.43605,1.43605,0,0,1,.46485-.70606,2.06115,2.06115,0,0,1,.93945-.52734,1.52824,1.52824,0,0,1,.9707.08691Z"/><path class="p" d="M15.61129,18.67135a.927.927,0,0,1,.61914.90332,1.58774,1.58774,0,0,1-.5791,1.18262,3.3496,3.3496,0,0,1-1.51758.793,2.41848,2.41848,0,0,1-1.55078-.05664l-2.19629-.94727-.26172.24317-.48046-.20606,2.833-2.64062a1.03294,1.03294,0,0,1,.47168-.28125.81117.81117,0,0,1,.48828.07226Zm-.52832.38282-2.11719-.91211-2.13085,1.98535,2.11718.91309a1.8265,1.8265,0,0,0,1.125.06738,2.26632,2.26632,0,0,0,1.09571-.55762,1.10825,1.10825,0,0,0,.4375-.85547A.74529.74529,0,0,0,15.083,19.05417Z"/><path class="p" d="M21.08,15.58835l-.52343.4873-4.458.55078q-.3501.54492,1.56543,1.49219l.72754-.67773.47949.20605-.91406.85254a.4908.4908,0,0,1-.37793.1123.91937.91937,0,0,1-.35547-.07128q-2.03613-.87891-1.7793-1.8379L13.60446,16.98l-.04981-.041.54688-.50976,3.416-.42871q-.14355-1.07373-.53515-1.24317a.36471.36471,0,0,0-.4209.03321l-.60742.5664-.48047-.207.77441-.7207a.91755.91755,0,0,1,1.06836-.17969c.43066.18555.69629.74219.792,1.668l2.89942-.35938Z"/><path class="p" d="M24.872,12.05417l-2.125,1.98047-.47949-.207,1.67578-1.56152-1.95019-.84082a1.77742,1.77742,0,0,0-2.07129.2334,1.06549,1.06549,0,0,0-.41895.81445.829.829,0,0,0,.39454.68848l2.208,1.4707-.44824.418L19.457,13.57272a2.21809,2.21809,0,0,0-.29-.17578,1.98008,1.98008,0,0,0-.88184-.10449l-.88769.06543.50781-.47461a4.64922,4.64922,0,0,1,1.32226-.001,1.06532,1.06532,0,0,1-.18652-.74219,1.59552,1.59552,0,0,1,.53125-.81054,2.233,2.233,0,0,1,1.40039-.61914,2.82532,2.82532,0,0,1,1.35059.24609Z"/><path class="p" d="M28.24313,5.12155q.29589.12744.46973.9668.17577.83935.52636.99121l.66406.28515-.44921.418-.6875-.2959a.9993.9993,0,0,1-.52344-.623l-.21289-.8252c-.07617-.29785-.1875-.47851-.33106-.54l-.63965-.27539a.25272.25272,0,0,0-.293.05567L24.86032,7.05612a.51826.51826,0,0,1-.40039.16406,1.29271,1.29271,0,0,1-.36524-.11621l-.7832-.33789.44922-.418.791.34082,1.9209-1.791a.76787.76787,0,0,1,.8916-.15528Z"/><path class="p" d="M34.10055,1.49167a.83632.83632,0,0,1,.50781,1.10547A2.96375,2.96375,0,0,1,33.706,3.95065a4.93192,4.93192,0,0,1-1.65039,1.01074,2.38682,2.38682,0,0,1-1.79.09473l-2.7168-1.1709.44824-.41894,2.59766,1.11914a1.587,1.587,0,0,0,.51465.13086,1.67549,1.67549,0,0,0,.45605-.9043.635.635,0,0,0-.44921-.69238L29.23825,2.31l.44824-.418,1.99707.86133q1.06494.457.05566,1.91894a3.67311,3.67311,0,0,0,1.48731-.92871,2.4967,2.4967,0,0,0,.74609-1.044.64424.64424,0,0,0-.43945-.84179L30.93551.73874l.44824-.418Z"/><path class="ae" d="M39.45986,4.768a8.83017,8.83017,0,0,0-2.42865,1.56674c-3.10765,2.89649-1.78362,6.90121,2.95728,8.94477s11.10342,1.35213,14.21106-1.54436,1.78362-6.90121-2.95728-8.94478a15.39336,15.39336,0,0,0-6.56154-1.16375"/><line class="af" x1="42.89235" y1="10.53852" x2="40.91492" y2="10.4184"/><path class="af" d="M48.72523,10.99923l.46119-.42986c.67423-.62842.387-1.49728-.64161-1.94065l-.389-.16769c-1.54516-.666-4.14308-.66666-5.15593.27737-1.7262,1.60891,1.61651,3.1375,3.07751,4.36236.35125.355.86532.67927.61974,1.12249-.358.64614-1.70615.55317-2.57028.417a11.32553,11.32553,0,0,1-2.675-.7246c-3.50807-1.51215-4.48778-4.47543-2.18828-6.61869,2.33389-2.17531,7.14879-2.66982,10.672-1.07354,3.33728,1.512,4.2669,4.39819,2.09269,6.49164a6.19386,6.19386,0,0,1-1.4579,1.02467"/><polygon class="ag" points="40.785 24.23 17.107 46.298 1.996 39.785 25.673 17.716 40.785 24.23"/><polygon class="p" points="26.536 35.977 24.745 37.647 11.883 32.102 13.674 30.433 26.536 35.977"/><polygon class="p" points="27.743 34.852 26.848 35.687 13.986 30.142 14.881 29.308 27.743 34.852"/><polygon class="p" points="30.946 31.866 30.499 32.284 17.637 26.74 18.084 26.322 30.946 31.866"/><polygon class="p" points="30.287 32.481 29.153 33.538 16.291 27.994 17.425 26.937 30.287 32.481"/><polygon class="p" points="28.834 33.835 27.938 34.67 15.076 29.126 15.972 28.291 28.834 33.835"/><polygon class="p" points="33.156 29.806 31.365 31.476 18.503 25.932 20.294 24.262 33.156 29.806"/><polygon class="p" points="34.364 28.681 33.468 29.516 20.606 23.972 21.502 23.137 34.364 28.681"/><polygon class="p" points="37.567 25.696 37.119 26.113 24.257 20.569 24.705 20.152 37.567 25.696"/><polygon class="p" points="36.907 26.311 35.773 27.367 22.911 21.823 24.045 20.767 36.907 26.311"/><polygon class="p" points="35.454 27.665 34.558 28.5 21.696 22.956 22.592 22.121 35.454 27.665"/><polygon class="p" points="19.984 42.084 18.193 43.754 5.331 38.209 7.122 36.54 19.984 42.084"/><polygon class="p" points="21.191 40.959 20.296 41.794 7.433 36.249 8.329 35.415 21.191 40.959"/><polygon class="p" points="24.394 37.973 23.946 38.391 11.084 32.847 11.532 32.429 24.394 37.973"/><polygon class="p" points="23.734 38.588 22.601 39.645 9.739 34.101 10.872 33.044 23.734 38.588"/><polygon class="p" points="22.282 39.942 21.386 40.777 8.524 35.233 9.42 34.398 22.282 39.942"/></g><g class="ah"><polygon class="m" points="126.999 22.409 30.397 8.455 0.347 -19.429 96.949 -5.475 126.999 22.409"/><polygon class="n" points="134.413 29.288 37.81 15.334 13.019 -7.67 109.622 6.284 134.413 29.288"/><polygon class="ag" points="37.004 -12.511 69.06 17.193 51.348 14.645 19.292 -15.059 37.004 -12.511"/><polygon class="p" points="53.454 3.763 55.879 6.011 40.804 3.842 38.378 1.595 53.454 3.763"/><polygon class="p" points="51.819 2.249 53.032 3.373 37.957 1.204 36.744 0.081 51.819 2.249"/><polygon class="p" points="48.376 -0.942 49.911 0.481 34.836 -1.688 33.301 -3.11 48.376 -0.942"/><polygon class="p" points="50.343 0.881 51.555 2.005 36.48 -0.164 35.268 -1.287 50.343 0.881"/><polygon class="p" points="62.324 11.983 64.75 14.231 49.674 12.062 47.249 9.815 62.324 11.983"/><polygon class="p" points="60.69 10.469 61.903 11.592 46.827 9.424 45.615 8.3 60.69 10.469"/><polygon class="p" points="56.353 6.45 56.96 7.012 41.885 4.844 41.278 4.282 56.353 6.45"/><polygon class="p" points="57.247 7.278 58.782 8.7 43.706 6.532 42.172 5.11 57.247 7.278"/><polygon class="p" points="59.214 9.101 60.426 10.224 45.351 8.056 44.138 6.933 59.214 9.101"/></g></g><g class="ai"><path class="j" d="M354.10782-137.32722c.6849-.0174,1.36579-.02984,2.05236-.03906,29.941-.34072,60.18559,6.66036,86.722,21.68381,26.83368,15.19176,45.96588,36.37666,56.6354,60.07059.10709.2415.21979.48618.32847.73582L384.3664,21.51561l-111.86309,74.002-4.0621,2.68725L311.455-20.06677Z"/><polygon class="k" points="470.456 -4.005 499.846 -54.876 268.441 98.205 470.456 -4.005"/><g class="aj"><polygon class="m" points="427.242 11.57 301.923 -73.743 350.209 -124.276 475.529 -38.962 427.242 11.57"/><polygon class="n" points="415.33 24.036 290.011 -61.277 329.846 -102.965 455.166 -17.652 415.33 24.036"/><g class="ak"><ellipse class="p" cx="310.82342" cy="-37.39886" rx="55.95346" ry="46.78909" transform="translate(24.45047 89.09386) rotate(-16.97039)"/></g><path class="al" d="M424.25594-.86633a10.57943,10.57943,0,0,0-2.77978-2.73106A14.28154,14.28154,0,0,0,403.74091-1.5892C399.23837,3.12273,399.87863,9.86319,405.171,13.466a14.28152,14.28152,0,0,0,17.73524-2.00818,10.31619,10.31619,0,0,0,2.99217-6.72349"/><line class="am" x1="412.64534" y1="2.02432" x2="413.09832" y2="-0.0299"/><path class="am" d="M411.10213,8.07082l.78542.53469a3.0985,3.0985,0,0,0,3.84782-.4357l.36947-.38665c1.46748-1.53572,1.75668-4.25362.03179-5.42786-2.93974-2.00127-6.28509,1.31037-8.83076,2.6902-.72973.32439-1.41783.82286-2.25317.51212-1.21775-.453-.88737-1.85213-.52652-2.73966A8.57755,8.57755,0,0,1,406.23287.10729a10.5676,10.5676,0,0,1,13.12319-1.486c3.97464,2.70579,4.40323,7.80322.90613,11.29551a10.62693,10.62693,0,0,1-12.86535,1.40141,8.01121,8.01121,0,0,1-1.83249-1.64964"/></g><g class="an"><polygon class="m" points="380.22 88.577 418.085 -10.795 475.682 -38.85 437.818 60.523 380.22 88.577"/><polygon class="n" points="366.012 95.498 403.876 -3.875 451.393 -27.019 413.528 72.354 366.012 95.498"/><polygon class="ao" points="458.155 -1.339 396.795 28.593 403.716 10.373 465.076 -19.559 458.155 -1.339"/><polygon class="p" points="424.66 13.896 420.017 16.161 425.908 0.652 430.55 -1.613 424.66 13.896"/><polygon class="p" points="427.788 12.37 425.467 13.502 431.358 -2.007 433.679 -3.139 427.788 12.37"/><polygon class="p" points="436.089 8.321 434.928 8.887 440.819 -6.622 441.98 -7.188 436.089 8.321"/><polygon class="p" points="434.379 9.155 431.441 10.588 437.332 -4.921 440.27 -6.354 434.379 9.155"/><polygon class="p" points="430.614 10.991 428.293 12.124 434.184 -3.385 436.505 -4.517 430.614 10.991"/><polygon class="p" points="441.816 5.527 437.174 7.791 443.065 -7.717 447.707 -9.982 441.816 5.527"/><polygon class="p" points="444.945 4.001 442.623 5.133 448.514 -10.376 450.836 -11.508 444.945 4.001"/><polygon class="p" points="453.245 -0.049 452.085 0.518 457.976 -14.991 459.136 -15.557 453.245 -0.049"/><polygon class="p" points="451.535 0.786 448.598 2.219 454.488 -13.29 457.426 -14.723 451.535 0.786"/><polygon class="p" points="447.77 2.622 445.449 3.755 451.34 -11.754 453.661 -12.886 447.77 2.622"/><polygon class="p" points="407.68 22.179 403.037 24.444 408.928 8.935 413.57 6.67 407.68 22.179"/><polygon class="p" points="410.808 20.653 408.487 21.785 414.378 6.276 416.699 5.144 410.808 20.653"/><polygon class="p" points="419.109 16.604 417.948 17.17 423.839 1.661 425 1.095 419.109 16.604"/><polygon class="p" points="417.399 17.438 414.461 18.871 420.352 3.362 423.29 1.929 417.399 17.438"/><polygon class="p" points="413.634 19.274 411.313 20.407 417.204 4.898 419.525 3.766 413.634 19.274"/></g></g><g class="ap"><path class="j" d="M412.75705,204.04551c-.33467.43-.67231.85484-1.01614,1.28151-15.05638,18.57415-37.721,33.45149-66.62082,41.80741-29.22362,8.44953-60.56857,8.99776-90.10685,3.01992-.30021-.062-.60654-.12214-.91584-.18742L235.96373,138.617,218.39519,30.75283l-.638-3.91688L315.67749,115.819Z"/><polygon class="k" points="217.582 205.004 254.097 249.967 217.757 26.836 217.582 205.004"/><g class="aq"><polygon class="m" points="224.002 170.218 375.063 138.354 401.515 194.747 250.454 226.611 224.002 170.218"/><polygon class="n" points="217.477 156.306 368.538 124.443 390.36 170.965 239.299 202.829 217.477 156.306"/><path class="n" d="M334.87594,198.4155a.8724.8724,0,0,1-.05469-.30469l-.04589-1.35742-2.28614-4.87305,1.19727-.25293,2.29687,4.89648-.02539,1.209a.62658.62658,0,0,0,.0586.26562c.04394.09278.166.14942.36816.17578a1.74814,1.74814,0,0,0,.56152-.01757l1.33692-.28223.32422.69141-1.69629.35742a2.944,2.944,0,0,1-1.249.0039A1.03367,1.03367,0,0,1,334.87594,198.4155Z"/><path class="n" d="M328.64743,199.90671l1.95507-.41211-3.48437-5.08887,1.19726-.25293,3.48438,5.08887,1.61523-.34082.32422.6914-4.76758,1.00586Z"/><path class="n" d="M315.94625,196.76217l5.66895-1.19628.32422.6914-4.47168.94336,1.31836,2.81055a2.436,2.436,0,0,0,3.04883,1.332,3.18077,3.18077,0,0,0,1.7373-.85938,1.50792,1.50792,0,0,0,.48926-1.331l-.73242-3.94824,1.19629-.252.71386,3.95215a2.43582,2.43582,0,0,0,.1211.49219,2.12368,2.12368,0,0,0,.998.86621l1.25586.6211-1.35547.28613a5.3886,5.3886,0,0,1-1.72851-1.06543,2.562,2.562,0,0,1-.84278,1.24121,4.67826,4.67826,0,0,1-1.87793.76269,4.09939,4.09939,0,0,1-2.73437-.2207,2.95872,2.95872,0,0,1-1.4043-1.45019Z"/><path class="n" d="M307.40817,198.563l1.19629-.25293,2.03808,4.34375a1.212,1.212,0,0,0,.65723.67871,2.66464,2.66464,0,0,0,1.32715-.0459l4.25-.89649.32422.69141-4.6084.97168q-2.37452.501-3.05078-.93945Z"/><path class="n" d="M299.24508,203.69089a2.59755,2.59755,0,0,1-.05176-2.2168,3.01272,3.01272,0,0,1,2.3545-1.67481l3.93652-.83105.32422.69141-3.83692.80957a2.04982,2.04982,0,0,0-1.52929,2.96875,2.99034,2.99034,0,0,0,1.22851,1.3623,3.42767,3.42767,0,0,0,2.44727.28125l2.30469-.48633-.19336-1.998a.33961.33961,0,0,0-.02735-.10743c-.07226-.15429-.248-.20214-.52929-.14257l-1.94532.41015-.32422-.6914,2.23438-.47168a2.29655,2.29655,0,0,1,1.06445.00488.90389.90389,0,0,1,.63672.46.68118.68118,0,0,1,.05469.166l.43066,2.834-3.55175.749a4.794,4.794,0,0,1-3.26661-.374A3.74931,3.74931,0,0,1,299.24508,203.69089Z"/><path class="n" d="M279.52047,204.44479l1.19727-.252,2.08008,4.43555a1.07809,1.07809,0,0,0,.70312.51757,2.22936,2.22936,0,0,0,1.13965.04395l3.35059-.707-2.166-4.61914q-.31933-.68115.89844-.9375l1.67578-.35352.32422.69141-1.69629.35742,2.16113,4.6084,1.53711-.32422.32422.69141-6.28516,1.32617a3.98624,3.98624,0,0,1-1.92187-.03125,1.70154,1.70154,0,0,1-1.166-.84961Z"/><path class="n" d="M273.2568,205.76706l4.76758-1.00586.32422.6914-3.53125.74415,2.3125,3.85449q.38964.64159,1.44531.418l1.55664-.32813.32422.69141-2.25488.47558a2.56006,2.56006,0,0,1-1.27149-.02441,1.29986,1.29986,0,0,1-.80176-.56348Z"/><path class="n" d="M270.25289,211.7944a2.65546,2.65546,0,0,1-.126-.45508l-.51074-2.39843,1.19628-.25293.43262,2.27636a1.48807,1.48807,0,0,0,.12207.3545.77235.77235,0,0,0,.52637.35058,1.65061,1.65061,0,0,0,.81641.03711l1.69628-.3584.32422.69141-1.95507.41308a3.37712,3.37712,0,0,1-1.56739-.02343A1.34727,1.34727,0,0,1,270.25289,211.7944Z"/><path class="n" d="M258.45407,208.88913l8.09961-1.708.32421.69141-4.98828,1.05175a7.06132,7.06132,0,0,0,.49024,3.23926,1.94746,1.94746,0,0,0,2.37011,1.22168l3.87012-.8164.32422.6914-4.0293.85059a2.97919,2.97919,0,0,1-3.71679-1.66016,6.94142,6.94142,0,0,1-.50586-3.27344l-1.91407.40332Z"/><path class="n" d="M252.04977,210.23971l1.19726-.25195,1.08008,1.78809a4.15254,4.15254,0,0,1,2.77246-2.68848l.35059.74805a4.60964,4.60964,0,0,0-2.16211,1.70019,1.20408,1.20408,0,0,0-.125,1.46094l1.2168,1.7998q.21093.31056.75.19629l1.65527-.34863.32422.69141-2.17481.458a2.09362,2.09362,0,0,1-1.02929.02735,1.14159,1.14159,0,0,1-.59375-.49512Z"/><g class="ar"><polygon class="p" points="323.111 149.226 365.357 140.315 391.7 196.477 349.454 205.388 323.111 149.226"/><polygon class="p" points="323.111 149.226 365.357 140.315 391.7 196.477 349.454 205.388 323.111 149.226"/><polygon class="as" points="320.73 133.189 353.431 126.291 385.155 193.925 352.454 200.823 320.73 133.189"/><ellipse class="p" cx="333.59467" cy="124.59857" rx="42.90005" ry="54.65827" transform="translate(109.11524 401.03878) rotate(-71.40296)"/></g><path class="r" d="M349.67868,151.16159l-3.08594-6.63086,2.52539-.5332,3.33984,7.12011q1.31837,2.811,3.64453,2.32129l1.9043-.40234-.498-2.46289-1.9707.416-.95117-2.02636,2.41406-.50879a2.80534,2.80534,0,0,1,1.69531.16308,2.09808,2.09808,0,0,1,1.15723,1.04,2.19474,2.19474,0,0,1,.11523.29688l1.13672,4.65527-4.23047.89258Q352.18014,156.49265,349.67868,151.16159Z"/><path class="r" d="M334.46676,153.187a2.68422,2.68422,0,0,1,.79981-3.31836,7.3231,7.3231,0,0,1,3.68164-1.83984,9.9727,9.9727,0,0,1,4.5664.09961,4.8168,4.8168,0,0,1,3.48828,2.41406l3.00586,6.4082-2.52441.53223-2.88574-6.15332a2.00253,2.00253,0,0,0-.24219-.41016q-2.20312,1.00782-1.50195,2.50391l2.14843,4.583-2.52441.5332-2.26855-4.83789q-1.0254-2.18555,1.65625-3.90137a8.39057,8.39057,0,0,0-1.88672.23731,5.163,5.163,0,0,0-2.57325,1.13476,1.40509,1.40509,0,0,0-.29394,1.73731L339.997,159.062l-2.52441.5332Z"/><path class="r" d="M365.372,161.38132c-.41015.10449-.78125.19335-1.11328.26367a5.91655,5.91655,0,0,1-.84961.124,3.39265,3.39265,0,0,1-.6914-.03125,2.14571,2.14571,0,0,1-.61621-.18164,1.88211,1.88211,0,0,1-.89551-.93066l-1.55859-3.32325.74414-.15722,1.5625,3.33008q.46288.98583,2.06543.64746c.32226-.06836.69238-.1543,1.10742-.26172Z"/><path class="r" d="M356.7861,162.21921a1.55821,1.55821,0,0,0,.541.20117,1.6609,1.6609,0,0,0,.65918-.0166,4.27968,4.27968,0,0,0,.60449-.168l.23633.502a3.28369,3.28369,0,0,1-.61718.18262,2.7581,2.7581,0,0,1-.74024.05859,2.4955,2.4955,0,0,1-.72949-.15527,2.8205,2.8205,0,0,1-.69043-.38086,3.89271,3.89271,0,0,1-1.166-1.51953,3.80441,3.80441,0,0,1-.31152-.9375,1.97844,1.97844,0,0,1-.00488-.76172,1.4494,1.4494,0,0,1,.26758-.58008,1.52705,1.52705,0,0,1,.48535-.41211,2.41734,2.41734,0,0,1,.665-.23828,2.83437,2.83437,0,0,1,.75-.05957,2.605,2.605,0,0,1,.75.15039,2.9376,2.9376,0,0,1,.71484.37305,3.31507,3.31507,0,0,1,.64551.62695,4.41214,4.41214,0,0,1,.54394.88867l1.11719,2.38184-.76953.16211-1.11719-2.38184a3.70081,3.70081,0,0,0-.9248-1.26855,1.67355,1.67355,0,0,0-.67285-.35059,1.6209,1.6209,0,0,0-.75586-.01758,1.44,1.44,0,0,0-.5918.24512.84317.84317,0,0,0-.28906.37988,1.20388,1.20388,0,0,0-.06055.49512,3.2097,3.2097,0,0,0,.334,1.1416,6.18441,6.18441,0,0,0,.30469.5752,3.31147,3.31147,0,0,0,.36914.49609A2.14943,2.14943,0,0,0,356.7861,162.21921Z"/><path class="r" d="M352.958,164.02878a2.74722,2.74722,0,0,1-1.93164-.2627,3.58442,3.58442,0,0,1-1.47168-1.71777,3.82123,3.82123,0,0,1-.31347-.93848,1.95756,1.95756,0,0,1-.00391-.76172,1.44671,1.44671,0,0,1,.2666-.58008,1.52419,1.52419,0,0,1,.48535-.41113,2.394,2.394,0,0,1,.666-.23926,2.91215,2.91215,0,0,1,.75-.05957,2.65175,2.65175,0,0,1,.75.15039,2.918,2.918,0,0,1,.71387.374,3.28039,3.28039,0,0,1,.6455.626,4.445,4.445,0,0,1,.5459.88868,3.439,3.439,0,0,1,.35645,1.209,1.57983,1.57983,0,0,1-.12793.833l.55957-.15039.24414.52051Q354.17575,163.77145,352.958,164.02878Zm.66114-1.66114a3.59959,3.59959,0,0,0-.29883-1.041,4.86414,4.86414,0,0,0-.43848-.77246,3.1483,3.1483,0,0,0-.51758-.56446,1.6737,1.6737,0,0,0-.67187-.34961,1.70731,1.70731,0,0,0-.7959-.00878,1.25432,1.25432,0,0,0-.64551.31347.84166.84166,0,0,0-.252.54492,2.80448,2.80448,0,0,0,.32617,1.39551,3.14782,3.14782,0,0,0,1.15039,1.44531,1.5909,1.5909,0,0,0,.56348.19532,1.79268,1.79268,0,0,0,.67383-.02149l.79785-.17676A1.60978,1.60978,0,0,0,353.61911,162.36764Z"/><path class="r" d="M345.58883,165.50143l-.72656-1.54687a4.58106,4.58106,0,0,1-.21387-.52832,1.97668,1.97668,0,0,1-.08691-.49024.95314.95314,0,0,1,.52441-.88574l-1.83105-1.29.83789-.17676,2.34472,1.69239,1.0752.69824a.752.752,0,0,0,.208-.166.96327.96327,0,0,0-.02149-1.042l-.8291-1.76855.74414-.15723.72559,1.54785a2.0559,2.0559,0,0,1,.27051,1.26074.94731.94731,0,0,1-.1836.36524,1.31452,1.31452,0,0,1-.39844.32519l1.81446,1.26465-.8418.17774-2.18945-1.56153-1.19727-.7998a.83632.83632,0,0,0-.23047.30078.79227.79227,0,0,0-.0332.36035,1.562,1.562,0,0,0,.15039.49512l.83008,1.76855Z"/><path class="r" d="M341.99411,166.34128a2.11346,2.11346,0,0,1-1.46778-.15235,2.25243,2.25243,0,0,1-.96582-1.07031l-1.52734-3.25684,1.96972-.416.22461.47656L339,162.18112l1.292,2.75391a1.39618,1.39618,0,0,0,1.7207.835,1.22415,1.22415,0,0,0,.38477-.14942,1.04489,1.04489,0,0,0,.27343-.21679,1.52052,1.52052,0,0,0,.26563-.41309l.02539-.07129-1.32422-3.81836.74805-.1582,1.29687,3.751c.00586.00976.01758.0371.03906.082a2.84927,2.84927,0,0,0,.22168.32617,2.67615,2.67615,0,0,0,.36817.418l.22461.2041-.748.15723a2.19287,2.19287,0,0,1-.44238-.458l-.03125.00683a1.426,1.426,0,0,1-.38379.49512,2.02412,2.02412,0,0,1-.38281.22949A2.38061,2.38061,0,0,1,341.99411,166.34128Z"/><path class="p" d="M358.69294,189.1527c-.97756-2.08411.01186-5.83261,3.09613-6.48318s7.09544,2.04313,8.073,4.12724,1.03188,8.05778-2.05239,8.70836S359.67051,191.23682,358.69294,189.1527Z"/><path class="p" d="M357.30989,174.1403a81.23889,81.23889,0,0,0-4.2389-8.07263l2.67691-.56465a83.60241,83.60241,0,0,0,2.63865,8.29086,40.45755,40.45755,0,0,0,4.95824,8.72039q.72783.99737,1.58007,2.0608l-4.05-.42332q-.1224-.46927-.2708-.99928A64.1275,64.1275,0,0,0,357.30989,174.1403Z"/><path class="p" d="M351.28121,196.24409l-1.55821-14.744c-.0603-.5706.73771-.77272,1.183-.29744a14.5353,14.5353,0,0,1,3.46542,6.07417,10.12689,10.12689,0,0,1-1.83276,9.41807A.77119.77119,0,0,1,351.28121,196.24409Z"/><path class="p" d="M348.73435,173.73613a73.5046,73.5046,0,0,0-2.08742-7.88823l2.39273-.06533a77.53525,77.53525,0,0,0,.6797,7.821,36.46315,36.46315,0,0,0,2.57869,8.58323q.43218,1.008.958,2.09519l-3.37764-1.03983q-.01545-.43827-.04159-.93491A59.1666,59.1666,0,0,0,348.73435,173.73613Z"/><polygon class="p" points="373.575 181.495 374.31 181.219 375.046 180.942 378.291 186.192 381.536 191.442 377.555 186.469 373.575 181.495"/><polygon class="p" points="370.975 182.479 371.711 182.202 372.447 181.925 375.692 187.175 378.936 192.425 374.956 187.452 370.975 182.479"/><polygon class="p" points="372.295 181.987 373.031 181.711 373.767 181.434 377.011 186.684 380.256 191.934 376.276 186.961 372.295 181.987"/><polygon class="p" points="369.727 182.936 370.462 182.659 371.198 182.383 374.443 187.633 377.688 192.883 373.707 187.91 369.727 182.936"/><polygon class="p" points="369.124 178.069 372.1 179.518 375.076 180.968 372.398 182.011 369.72 183.055 369.422 180.562 369.124 178.069"/><path class="p" d="M364.00043,172.56332c-2.01972-2.5-4.01474-4.72187-5.85408-6.67412l1.6504-.76126c1.56988,2.38975,3.164,4.8539,4.82435,7.02435a57.41113,57.41113,0,0,0,6.58651,7.17212q.86468.80436,1.83941,1.65448l-2.9587.029q-.25439-.40026-.54874-.8513A93.44149,93.44149,0,0,0,364.00043,172.56332Z"/><path class="p" d="M316.65133,175.73385l.9209-.19335,1.78711,3.81054q.12451.26661.53906.17871l4.87988-1.02929.25.53125-5.29492,1.11718a1.39863,1.39863,0,0,1-.73828-.02929.70743.70743,0,0,1-.44824-.34278Zm5.21778-1.10058.92089-.19336,1.40918,3.00488-.9209.19336Z"/><path class="p" d="M308.85543,177.37839l4.36035-.91993.249.53125-3.43945.72657,1.01464,2.16211a1.87521,1.87521,0,0,0,2.34571,1.02539,2.45764,2.45764,0,0,0,1.33593-.66211,1.1591,1.1591,0,0,0,.376-1.02344l-.56348-3.03711.91993-.19434.54882,3.04a1.95835,1.95835,0,0,0,.09375.37989,1.63243,1.63243,0,0,0,.76758.665l.96582.47851-1.043.21973a4.13971,4.13971,0,0,1-1.3291-.81934,1.96157,1.96157,0,0,1-.64844.9541,3.5825,3.5825,0,0,1-1.44531.58692,3.15465,3.15465,0,0,1-2.10351-.16895,2.278,2.278,0,0,1-1.0791-1.11621Z"/><path class="p" d="M302.28805,178.76413l.91992-.19434,1.56641,3.3418a.93424.93424,0,0,0,.50586.52051,2.02816,2.02816,0,0,0,1.02148-.03418l3.26953-.68946.248.53125-3.54492.74805q-1.8252.38526-2.3457-.72266Z"/><path class="p" d="M298.0361,179.66061l.9209-.19433,1.79589,3.82812c.02442.05469.09864.09863.22266.13477a.68853.68853,0,0,0,.32324.02441l1.71875-.36328.249.53125-2.14844.4541q-.91992.19336-1.18262-.36426Z"/><path class="p" d="M293.06344,180.70944l.92188-.19434.83007,1.376a3.19414,3.19414,0,0,1,2.13282-2.06836l.26953.5752a3.54366,3.54366,0,0,0-1.66211,1.30859.92609.92609,0,0,0-.09766,1.123l.93555,1.38476a.5112.5112,0,0,0,.57812.15137l1.27344-.26855.249.53125-1.67286.35351a1.60778,1.60778,0,0,1-.791.02051.87292.87292,0,0,1-.457-.37988Z"/><path class="p" d="M285.80563,182.24069l.91992-.19434,1.78711,3.81055c.084.17774.26367.23828.53906.17969l4.88086-1.0293.249.53125-5.29395,1.11621a1.38855,1.38855,0,0,1-.73828-.02832.708.708,0,0,1-.44922-.34375Zm5.2168-1.10059.92187-.19433,1.4082,3.00488-.91992.19434Z"/><path class="p" d="M272.25485,185.09909l.9209-.19434,1.60058,3.41211a.82231.82231,0,0,0,.53906.39746,1.70205,1.70205,0,0,0,.877.03516l2.57812-.54395-1.666-3.55468c-.16407-.34766.0664-.58887.68945-.71973l1.28906-.27246.25.53125-1.30469.27539,1.66309,3.5459,1.18164-.249.249.53125-4.834,1.01954a3.06022,3.06022,0,0,1-1.47852-.02344,1.31158,1.31158,0,0,1-.89648-.6543Z"/><path class="p" d="M268.11129,185.97311l.9209-.19433,1.79492,3.82812c.02539.05371.09961.09863.22364.13477a.67509.67509,0,0,0,.32324.02343l1.71875-.3623.248.53125-2.14843.45312q-.91992.19483-1.18164-.36328Z"/><path class="p" d="M263.36911,186.97311l3.668-.77344.249.53125-2.7168.57325,1.7793,2.96679q.29883.49072,1.11133.32032l1.19726-.25293.249.53125-1.73339.36621a1.98266,1.98266,0,0,1-.97852-.01758,1.00426,1.00426,0,0,1-.61719-.43555Z"/><path class="p" d="M261.05758,191.60983a1.98418,1.98418,0,0,1-.0957-.34961l-.39453-1.84472.92187-.19434.332,1.751a1.19152,1.19152,0,0,0,.09375.27246.5944.5944,0,0,0,.40528.26953,1.27451,1.27451,0,0,0,.62793.02832l1.30468-.27442.249.53125-1.50391.31739a2.60068,2.60068,0,0,1-1.20605-.01856A1.03792,1.03792,0,0,1,261.05758,191.60983Z"/><path class="p" d="M251.98239,189.37546l6.23047-1.31446.249.53125-3.83594.80957a5.43049,5.43049,0,0,0,.375,2.49317,1.49949,1.49949,0,0,0,1.82422.93945l2.97656-.62793.25.53125-3.09961.65332a2.28925,2.28925,0,0,1-2.8584-1.27539,5.34967,5.34967,0,0,1-.38964-2.51953l-1.47266.31055Z"/><path class="p" d="M247.05563,190.41452l.9209-.19434.83105,1.376a3.19209,3.19209,0,0,1,2.13281-2.06836l.26954.5752a3.54762,3.54762,0,0,0-1.66211,1.30761.92616.92616,0,0,0-.09766,1.124l.93555,1.38476q.1626.23877.57812.15137l1.27344-.26856.24805.53125-1.67188.35254a1.61026,1.61026,0,0,1-.791.02149.873.873,0,0,1-.457-.37989Z"/><path class="p" d="M315.80075,166.8569l-1.56348-3.37109.90527-.19141,1.5791,3.36817a2.223,2.223,0,0,0,.95313,1.02539,2.55062,2.55062,0,0,0,1.86328.23144l1.67188-.35351-.19336-1.52735c-.0293-.18262-.17286-.24512-.43164-.19043l-1.03907.21875-.249-.53222,1.251-.26368a1.67826,1.67826,0,0,1,.82031.01172.71656.71656,0,0,1,.49023.35547.50782.50782,0,0,1,.03711.11817l.34766,2.17578-2.57813.54394a3.765,3.765,0,0,1-2.57031-.22754A2.89834,2.89834,0,0,1,315.80075,166.8569Z"/><path class="p" d="M306.02047,168.04342q-.375-.79687.73242-1.5664a6.66118,6.66118,0,0,1,2.42872-.96973,8.09762,8.09762,0,0,1,2.79394-.11914q1.53516.21534,1.90625,1.00684l1.41309,3.01269-.9209.19434-1.35059-2.87891a1.24414,1.24414,0,0,0-.37207-.46777,3.872,3.872,0,0,0-1.47363.73828.84519.84519,0,0,0-.32813,1.06348l.97657,2.082-.9209.19433-1.03906-2.21484q-.55225-1.17919,2.10253-2.207a6.03264,6.03264,0,0,0-2.53808.127,5.55876,5.55876,0,0,0-1.92383.71778q-.81738.55224-.50391,1.22656l1.35157,2.8789-.9209.19434Z"/><path class="p" d="M292.51852,169.13913l.92187-.19434,1.56641,3.34082a.92817.92817,0,0,0,.50586.52051,2.03887,2.03887,0,0,0,1.02051-.03516l3.26855-.68945.25.53125-3.54492.748q-1.8252.38525-2.3457-.72168Z"/><path class="p" d="M285.61032,172.602a1.30887,1.30887,0,0,1,.25683-1.55469,3.89315,3.89315,0,0,1,2.11035-1.01953,5.67086,5.67086,0,0,1,2.68457.042,2.35231,2.35231,0,0,1,1.63965,1.15918l1.28906,2.74707-.91992.19434-1.26953-2.70508a1.78365,1.78365,0,0,0-1.20508-.87891,4.01913,4.01913,0,0,0-1.97754-.04492,2.67055,2.67055,0,0,0-1.52832.751,1.00114,1.00114,0,0,0-.14062,1.15625l.8291,1.76855a.57183.57183,0,0,0,.458.292,1.96749,1.96749,0,0,0,.748-.02247q1.08984-.23.86523-.70605l-.43457-.92969.9209-.19336.48144,1.02637q.20655.44238-.32129.8252a3.88241,3.88241,0,0,1-2.79882.52246,1.29508,1.29508,0,0,1-.877-.70118Z"/><path class="p" d="M277.7568,174.05319a1.198,1.198,0,0,1,.39453-1.40723,3.675,3.675,0,0,1,1.91016-.97754,5.11338,5.11338,0,0,1,2.416.0459,2.12476,2.12476,0,0,1,1.49414,1.02832l1.14454,2.4375.5371-.11328.249.53125-5.81641,1.22656a1.65654,1.65654,0,0,1-.79.02637.67954.67954,0,0,1-.4082-.38672Zm.96289-.10449,1.10156,2.34765,4.373-.92187-1.10156-2.34766a1.5835,1.5835,0,0,0-1.05469-.77734,3.44531,3.44531,0,0,0-1.72656-.04981,2.56814,2.56814,0,0,0-1.40332.69532A.893.893,0,0,0,278.71969,173.9487Z"/><path class="p" d="M268.79684,174.143l1.07519-.22753,5.09766,2.14941q.9624-.3999.10352-2.66309l-1.49317.31543-.249-.53125,1.876-.3955a.61053.61053,0,0,1,.50683.10742.72792.72792,0,0,1,.27735.30175q1.05908,2.25879-.2793,3.18458l2.16211.83007.002.07618-1.12305.2373-3.91406-1.63867q-1.062,1.30664-.8584,1.74023a.37282.37282,0,0,0,.46.22364l1.24805-.2627.25.53125-1.59082.335q-.9624.20361-1.27441-.46094-.33692-.71776,1.08007-2.37988l-3.31933-1.39355Z"/><path class="p" d="M261.01266,175.78464l4.36035-.91993.249.53125-3.43945.72559,1.01465,2.16211a1.87358,1.87358,0,0,0,2.34473,1.02539,2.444,2.444,0,0,0,1.33593-.66211,1.15734,1.15734,0,0,0,.377-1.02441l-.56446-3.03516.9209-.19434.54883,3.03907a1.828,1.828,0,0,0,.09473.37988,1.62375,1.62375,0,0,0,.76758.666l.96582.47656-1.04395.2207a4.16251,4.16251,0,0,1-1.32812-.81934,1.9936,1.9936,0,0,1-.64844.95508,3.61686,3.61686,0,0,1-1.44531.58594,3.15942,3.15942,0,0,1-2.10352-.16894,2.27581,2.27581,0,0,1-1.08008-1.11622Z"/><path class="p" d="M249.82907,181.53268q-.15381-.32812.61523-1.38672.76758-1.05761.585-1.44726l-.34473-.73535.92188-.19434.35742.76172a1.14923,1.14923,0,0,1-.17578,1.0293l-.71289,1.06738c-.25781.38574-.34961.65723-.27441.81738l.332.708c.05566.11914.1748.1582.35937.11914l3.91309-.82519a.70714.70714,0,0,1,.58594.06152,1.01939,1.01939,0,0,1,.23535.3584l.40722.86914-.91992.19433-.41211-.87793-3.94336.832q-.81446.17138-1.07226-.377Z"/><path class="p" d="M239.86227,181.9985q-.375-.79687.73242-1.5664a6.66292,6.66292,0,0,1,2.42774-.96973,8.12715,8.12715,0,0,1,2.79492-.11914q1.53514.21533,1.90625,1.00684l1.41308,3.01269-.9209.19434-1.35156-2.87891a1.24169,1.24169,0,0,0-.37109-.46777,3.88458,3.88458,0,0,0-1.47461.73925.84432.84432,0,0,0-.32715,1.0625l.97656,2.082-.9209.19433L243.708,182.0737q-.55224-1.1792,2.10254-2.207a6.0489,6.0489,0,0,0-2.53808.12695,5.55869,5.55869,0,0,0-1.92383.71777c-.54492.36817-.71485.77735-.50391,1.22657l1.35156,2.8789-.92089.19434Z"/><path class="at" d="M238.16175,174.96132a14.85623,14.85623,0,0,0,4.202-.26318c6.37942-1.34564,9.55149-6.69926,7.085-11.95766s-9.63751-8.43033-16.01694-7.08469-9.55149,6.69925-7.085,11.95766a12.35094,12.35094,0,0,0,5.28521,5.39449"/><line class="au" x1="241.20042" y1="166.29949" x2="243.05247" y2="167.66433"/><path class="au" d="M235.857,162.15324l-.94674.1997a1.8421,1.8421,0,0,0-1.53716,2.59432l.20239.43149a5.60735,5.60735,0,0,0,5.493,2.89052c3.54358-.74746,1.90313-4.55428,1.81212-6.848.04612-.61988-.10585-1.30627.63926-1.65509,1.08623-.50851,2.33642.43451,3.05165,1.12565a8.75267,8.75267,0,0,1,1.87341,2.48225c1.82509,3.891-.52207,7.85239-5.24252,8.84809-4.791,1.01059-10.18548-1.42232-11.93124-5.41792-1.65361-3.78471.65719-7.62775,5.19574-8.64495a10.82851,10.82851,0,0,1,2.61708-.25322"/><polygon class="av" points="258.712 152.12 307.317 141.867 315.179 158.628 266.573 168.881 258.712 152.12"/><polygon class="p" points="286.238 147.685 289.915 146.909 296.606 161.175 292.929 161.951 286.238 147.685"/><polygon class="p" points="283.759 148.207 285.598 147.819 292.29 162.085 290.451 162.473 283.759 148.207"/><polygon class="p" points="277.184 149.594 278.103 149.4 284.795 163.666 283.876 163.86 277.184 149.594"/><polygon class="p" points="278.539 149.308 280.866 148.818 287.557 163.084 285.23 163.574 278.539 149.308"/><polygon class="p" points="281.521 148.679 283.36 148.292 290.051 162.558 288.212 162.945 281.521 148.679"/><polygon class="p" points="272.647 150.551 276.325 149.775 283.016 164.041 279.339 164.817 272.647 150.551"/><polygon class="p" points="270.169 151.074 272.008 150.686 278.699 164.952 276.861 165.34 270.169 151.074"/><polygon class="p" points="263.594 152.461 264.513 152.267 271.205 166.533 270.285 166.727 263.594 152.461"/><polygon class="p" points="264.948 152.175 267.275 151.684 273.967 165.95 271.64 166.441 264.948 152.175"/><polygon class="p" points="267.931 151.546 269.769 151.158 276.461 165.424 274.622 165.812 267.931 151.546"/><polygon class="p" points="299.688 144.847 303.365 144.072 310.057 158.338 306.379 159.113 299.688 144.847"/><polygon class="p" points="297.21 145.37 299.048 144.982 305.74 159.248 303.901 159.636 297.21 145.37"/><polygon class="p" points="290.634 146.757 291.554 146.563 298.245 160.829 297.326 161.023 290.634 146.757"/><polygon class="p" points="291.989 146.471 294.316 145.98 301.008 160.246 298.681 160.737 291.989 146.471"/><polygon class="p" points="294.971 145.842 296.81 145.454 303.502 159.72 301.663 160.108 294.971 145.842"/></g><g class="aw"><polygon class="m" points="170.028 100.599 251.414 176.422 250.261 226.646 168.875 150.822 170.028 100.599"/><polygon class="n" points="170.313 88.209 251.699 164.033 250.747 205.466 169.361 129.642 170.313 88.209"/><polygon class="av" points="221.203 196.037 222.386 142.509 237.32 156.398 236.137 209.926 221.203 196.037"/><polygon class="p" points="222.97 167.401 223.06 163.351 235.771 175.173 235.681 179.223 222.97 167.401"/><polygon class="p" points="222.91 170.13 222.955 168.105 235.666 179.927 235.621 181.952 222.91 170.13"/><polygon class="p" points="222.75 177.371 222.772 176.359 235.483 188.181 235.461 189.193 222.75 177.371"/><polygon class="p" points="222.783 175.88 222.839 173.317 235.551 185.139 235.494 187.702 222.783 175.88"/><polygon class="p" points="222.855 172.595 222.9 170.57 235.611 182.392 235.566 184.417 222.855 172.595"/><polygon class="p" points="222.639 182.368 222.729 178.318 235.44 190.14 235.35 194.19 222.639 182.368"/><polygon class="p" points="222.579 185.097 222.624 183.072 235.335 194.894 235.29 196.919 222.579 185.097"/><polygon class="p" points="222.419 192.338 222.441 191.326 235.152 203.148 235.13 204.16 222.419 192.338"/><polygon class="p" points="222.452 190.846 222.509 188.284 235.22 200.106 235.163 202.668 222.452 190.846"/><polygon class="p" points="222.524 187.562 222.569 185.537 235.28 197.359 235.236 199.384 222.524 187.562"/><polygon class="p" points="223.298 152.588 223.387 148.538 236.098 160.361 236.009 164.41 223.298 152.588"/><polygon class="p" points="223.237 155.318 223.282 153.293 235.993 165.115 235.948 167.14 223.237 155.318"/><polygon class="p" points="223.077 162.559 223.1 161.546 235.811 173.368 235.788 174.381 223.077 162.559"/><polygon class="p" points="223.11 161.067 223.167 158.504 235.878 170.326 235.821 172.889 223.11 161.067"/><polygon class="p" points="223.183 157.783 223.228 155.758 235.939 167.58 235.894 169.605 223.183 157.783"/></g></g><g class="ax"><path class="j" d="M265.13836-90.49133c.68344.03453,1.36219.07319,2.04615.11513,29.81857,1.8836,58.92189,10.32818,83.22656,25.64681,24.577,15.49025,40.6658,35.75558,47.99228,57.63736.073.22291.15118.44906.22466.67934L273.21918,53.18839l-121.48172,57.737-4.41138,2.09661,59.1556-102.19374Z"/><polygon class="k" points="362.357 36.747 398.628 -6.413 147.326 113.022 362.357 36.747"/><g class="ay"><polygon class="m" points="317.23 47.462 204.44 -37.674 259.454 -79.152 372.244 5.984 317.23 47.462"/><polygon class="n" points="303.659 57.695 190.868 -27.441 236.254 -61.66 349.044 23.476 303.659 57.695"/><path class="n" d="M335.874.00632l-3.55957-2.68653.6748-.50781,2.63672,1.99023,3.51172-3.166q.58155-.52734-.208-1.123l-1.16211-.87793.67481-.50879,1.68359,1.27149a1.38446,1.38446,0,0,1,.59668.84082.7921.7921,0,0,1-.28613.76758Z"/><path class="n" d="M344.624-.61185a4.33,4.33,0,0,1-.48633.27637L341.49508,1.0278,340.60153.353l2.5332-1.25879a2.21512,2.21512,0,0,0,.36719-.23145.46119.46119,0,0,0,.16406-.49512.87521.87521,0,0,0-.35742-.54882l-1.2666-.95606.6748-.50879,1.46,1.10156a1.83727,1.83727,0,0,1,.74317,1.03516A.80814.80814,0,0,1,344.624-.61185Z"/><path class="n" d="M346.9277,8.35007l-6.04785-4.56543.6748-.50782,3.72363,2.81055a13.10389,13.10389,0,0,0,3.667-1.708q1.52782-1.15283.30664-2.07519L346.36227.1235l.6748-.50879,3.00879,2.27051q1.99659,1.50732-.17285,3.14258a12.82056,12.82056,0,0,1-3.70117,1.7334l1.43066,1.08008Z"/><path class="n" d="M351.709,11.95846l-.89453-.6748,1.626-1.47266a6.99222,6.99222,0,0,1-4.60937-.65918l.73144-.55078a7.09176,7.09176,0,0,0,3.11426.68457,2.44539,2.44539,0,0,0,1.8252-.54394l1.57129-1.56739c.18164-.18066.13672-.37207-.13086-.57421l-1.23731-.9336.67481-.50879,1.625,1.22559q.50537.38232.53711.66113a.75073.75073,0,0,1-.30371.60059Z"/><g class="az"><polygon class="ba" points="224.951 0.076 200.534 -18.354 266.514 -68.1 290.93 -49.67 224.951 0.076"/><ellipse class="p" cx="208.25494" cy="-4.65432" rx="56.49064" ry="41.51046" transform="translate(5.16903 41.69106) rotate(-11.57479)"/></g><path class="p" d="M297.41989-1.05521l-.6875-.51855,2.93066-2.21.6875.51855Zm3.89648,2.94141-.6875-.51856,3.71777-2.80371c.17286-.12988.15528-.27343-.0498-.42871l-3.64453-2.751.51855-.39063L305.125-2.022a.73488.73488,0,0,1,.32715.49511.45449.45449,0,0,1-.19336.44043Z"/><path class="p" d="M311.43356,9.52292l-.6875-.51953,3.3291-2.50977a.52114.52114,0,0,0,.21191-.52344.89748.89748,0,0,0-.38964-.58789l-1.92481-1.45312-3.46777,2.61328q-.50977.38525-1.208-.1416l-.96289-.72657.51855-.3916.97364.73438,3.459-2.60742-.88281-.665.51855-.3916,3.61035,2.7246a1.65485,1.65485,0,0,1,.69825.97754.81938.81938,0,0,1-.34668.86621Z"/><path class="p" d="M314.52633,11.85788l-.6875-.51856,3.73535-2.8164a.19118.19118,0,0,0,.05176-.20215.34509.34509,0,0,0-.12988-.22266l-1.2832-.96875.51855-.39062,1.60352,1.21093q.68847.51856.14257.92872Z"/><path class="p" d="M318.06735,14.53073,315.33,12.46335l.51856-.39063,2.02734,1.53028,2.70215-2.43458q.44678-.40575-.15918-.86425l-.89453-.67481.51855-.39062,1.29493.97656a1.06176,1.06176,0,0,1,.459.64746.60539.60539,0,0,1-.21875.58984Z"/><path class="p" d="M324.79977,14.05417a3.68534,3.68534,0,0,1-.375.21386l-2.0332,1.04786-.6875-.51954,1.94921-.96777a1.79621,1.79621,0,0,0,.28223-.17773.35658.35658,0,0,0,.126-.38086.66858.66858,0,0,0-.27442-.42285l-.97363-.73536.51856-.39062,1.123.84766a1.40173,1.40173,0,0,1,.57032.79589A.61667.61667,0,0,1,324.79977,14.05417Z"/><path class="p" d="M326.5693,20.94772,321.91793,17.437l.51856-.3916,2.86426,2.16211a10.04731,10.04731,0,0,0,2.82031-1.31446q1.17627-.88623.2373-1.59668l-2.22363-1.67773.51855-.39062,2.31543,1.74707q1.53516,1.16014-.13378,2.417a9.83854,9.83854,0,0,1-2.84668,1.334l1.09961.83008Z"/><path class="p" d="M330.248,23.72507l-.6875-.51954,1.251-1.13281a5.38078,5.38078,0,0,1-3.5459-.50879l.5625-.42383a5.413,5.413,0,0,0,2.39453.52735,1.87313,1.87313,0,0,0,1.4043-.418l1.209-1.207c.13965-.1377.10645-.28613-.10058-.44141l-.95118-.71777.51856-.39063,1.25.94336c.25976.19532.39746.36524.41406.50782a.58283.58283,0,0,1-.23437.46191Z"/><path class="p" d="M282.20309,3.11276l-.6875-.51855,3.25977-2.457c.26464-.20019.39257-.38574.37988-.55468q-.01758-.25488-.54395-.65235l-2.44043-1.84277.51856-.39062,2.64648,1.998q1.36377,1.02833.28223,1.84278Z"/><path class="p" d="M289.78414,6.14694a2.73815,2.73815,0,0,1-2.00195.49805,4.50467,4.50467,0,0,1-2.26953-.94336,3.06217,3.06217,0,0,1-1.26953-1.77344,1.44962,1.44962,0,0,1,.59082-1.56934l2.67969-2.0205.6875.51855-2.63965,1.99024a1.11636,1.11636,0,0,0-.4668,1.165,2.16392,2.16392,0,0,0,.91992,1.31153,3.1306,3.1306,0,0,0,1.65625.67871,2.09215,2.09215,0,0,0,1.46582-.4043l1.72461-1.30078a.33619.33619,0,0,0,.127-.42383,1.11707,1.11707,0,0,0-.39551-.48047q-.813-.61377-1.2793-.26367l-.90527.6836-.6875-.51856,1.001-.75488a1.3154,1.3154,0,0,1,1.1543-.14551,3.40391,3.40391,0,0,1,1.23535.60742,1.81076,1.81076,0,0,1,.77246,1,.85987.85987,0,0,1-.41406.875Z"/><path class="p" d="M295.39938,10.66061a2.542,2.542,0,0,1-1.8916.34571,4.369,4.369,0,0,1-2.12012-.83008,2.78191,2.78191,0,0,1-1.13477-1.60059,1.29629,1.29629,0,0,1,.50586-1.418l2.37793-1.793-.40136-.30273.51855-.3916,4.34277,3.27832q.38966.29444.41895.50488c.02051.1416-.06836.28613-.26465.43359Zm-.60059-.585,2.291-1.72656-3.26563-2.46484-2.291,1.72656a.99964.99964,0,0,0-.417,1.02344,1.84084,1.84084,0,0,0,.79,1.15039,3.01365,3.01365,0,0,0,1.5293.61914A1.87137,1.87137,0,0,0,294.79879,10.07565Z"/><path class="p" d="M299.916,16.48288l-.80176-.60547.084-4.25488q-.95508-.46-3.2627,1.07226l1.11524.8418-.51954.39062-1.40136-1.05664a.29883.29883,0,0,1-.11914-.37793.609.609,0,0,1,.22851-.31054q2.2046-1.6626,3.98047-1.18262L299.15524,9.229l.09179-.03418.83887.63281-.05078,3.26172a5.0624,5.0624,0,0,0,2.52246-.18359q.28418-.21534.043-.39746l-.93164-.70313.51855-.39062,1.1875.89551q.71925.54345.07129,1.03222-.70018.52736-3.40429.31348l-.04785,2.76855Z"/><path class="p" d="M305.7275,20.8696l-3.25586-2.458.51954-.39063,2.56835,1.93848,2.10938-1.59082q1.34766-1.0166.082-1.97266a2.88682,2.88682,0,0,0-1.45605-.59082,2.54333,2.54333,0,0,0-1.4209.19336l-3.38574,1.6709-.6875-.51953,3.39746-1.66211a3.11488,3.11488,0,0,0,.41211-.22363,1.15091,1.15091,0,0,0,.4248-.78711l.10156-.83692.77832.5879a2.24309,2.24309,0,0,1-.334,1.2207,3.99625,3.99625,0,0,1,1.46973.01465,3.76407,3.76407,0,0,1,1.41992.69336,1.61328,1.61328,0,0,1,.83008,1.44824,1.80829,1.80829,0,0,1-.81543,1.18555Z"/><path class="p" d="M318.167,25.71921a4.28468,4.28468,0,0,1-1.97364.19336,4.0391,4.0391,0,0,0-2.03613.2373l-.71777.541-.6875-.51954.74414-.56054a2.4744,2.4744,0,0,1,1.3291-.32715l1.6377.00976a2.1851,2.1851,0,0,0,1.12011-.17089l.69239-.52149q.17284-.13037-.03223-.28613l-2.92285-2.20606c-.19825-.14941-.27051-.28613-.21387-.40918a1.06968,1.06968,0,0,1,.31738-.30761l.84668-.63867.6875.51855-.85547.64551,2.94434,2.22265q.60791.4585.07129.86133Z"/><path class="p" d="M323.63571,32.03854a2.55317,2.55317,0,0,1-2.251.19238,6.912,6.912,0,0,1-2.36523-1.17187,4.76325,4.76325,0,0,1-1.51856-1.77734,1.24576,1.24576,0,0,1,.27637-1.67871l2.93945-2.21583.68848.51954-2.80957,2.11816a1.17177,1.17177,0,0,0-.38184.44238,4.60525,4.60525,0,0,0,1.61817.64746,1.76076,1.76076,0,0,0,1.44336-.24121l2.03222-1.53125.6875.51856L321.834,29.49069q-1.15137.86719-3.69727-.42871a3.54064,3.54064,0,0,0,1.40137,1.60547,5.52707,5.52707,0,0,0,1.8125.94922,1.89741,1.89741,0,0,0,1.72754-.19532l2.80957-2.11816.6875.51953Z"/><path class="bb" d="M315.98357,36.16822a8.97226,8.97226,0,0,0-2.38567-2.6354c-4.76323-3.59537-12.78315-3.37462-17.913.49306s-5.427,9.91767-.6638,13.513,12.78314,3.37461,17.913-.49306a9.7513,9.7513,0,0,0,3.90671-5.76955"/><line class="bc" x1="304.03827" y1="37.89461" x2="304.77328" y2="36.09815"/><path class="bc" d="M301.66611,43.16705l.70689.53358a3.41877,3.41877,0,0,0,3.88639-.107l.42094-.31737c1.67193-1.26056,2.336-3.66006.78359-4.83187-2.64583-1.99712-6.431.708-9.15343,1.75091a3.27452,3.27452,0,0,1-2.31136.29153c-1.14809-.4924-.62574-1.71438-.144-2.47848a8.57231,8.57231,0,0,1,2.07255-2.28952c3.79586-2.86191,9.73018-3.02526,13.25472-.36487,3.57726,2.70017,3.29722,7.27138-.6639,10.12626-3.752,2.70419-9.52565,2.84057-12.98662.30837a6.89293,6.89293,0,0,1-1.59356-1.60307"/><polygon class="bd" points="278.313 32.521 242.022 5.128 258.373 -7.2 294.664 20.193 278.313 32.521"/><polygon class="p" points="259.414 16.42 256.669 14.348 270.586 3.855 273.332 5.927 259.414 16.42"/><polygon class="p" points="261.265 17.817 259.892 16.781 273.809 6.288 275.182 7.324 261.265 17.817"/><polygon class="p" points="266.174 21.523 265.488 21.005 279.405 10.512 280.092 11.03 266.174 21.523"/><polygon class="p" points="265.163 20.759 263.425 19.448 277.343 8.955 279.08 10.266 265.163 20.759"/><polygon class="p" points="262.936 19.079 261.563 18.042 275.481 7.549 276.853 8.586 262.936 19.079"/><polygon class="p" points="269.562 24.08 266.816 22.007 280.733 11.514 283.479 13.587 269.562 24.08"/><polygon class="p" points="271.412 25.476 270.039 24.44 283.956 13.947 285.329 14.983 271.412 25.476"/><polygon class="p" points="276.322 29.182 275.635 28.664 289.552 18.171 290.239 18.689 276.322 29.182"/><polygon class="p" points="275.31 28.419 273.573 27.107 287.49 16.614 289.227 17.926 275.31 28.419"/><polygon class="p" points="273.083 26.738 271.711 25.702 285.628 15.209 287.001 16.245 273.083 26.738"/><polygon class="p" points="249.372 8.84 246.626 6.767 260.543 -3.726 263.289 -1.653 249.372 8.84"/><polygon class="p" points="251.222 10.237 249.849 9.2 263.766 -1.293 265.139 -0.256 251.222 10.237"/><polygon class="p" points="256.132 13.942 255.445 13.424 269.362 2.931 270.049 3.449 256.132 13.942"/><polygon class="p" points="255.12 13.179 253.383 11.867 267.3 1.374 269.037 2.686 255.12 13.179"/><polygon class="p" points="252.893 11.498 251.52 10.462 265.438 -0.031 266.811 1.005 252.893 11.498"/></g><g class="be"><polygon class="m" points="259.806 112.612 311.223 26.874 372.381 6.096 320.963 91.833 259.806 112.612"/><polygon class="n" points="244.719 117.738 296.136 32 346.59 14.858 295.172 100.596 244.719 117.738"/><polygon class="bd" points="349.756 38.224 284.597 60.4 294.003 44.678 359.162 22.502 349.756 38.224"/><polygon class="p" points="314.34 49.345 309.41 51.023 317.416 37.641 322.346 35.963 314.34 49.345"/><polygon class="p" points="317.662 48.215 315.197 49.054 323.203 35.671 325.668 34.833 317.662 48.215"/><polygon class="p" points="326.477 45.215 325.244 45.634 333.25 32.252 334.483 31.833 326.477 45.215"/><polygon class="p" points="324.661 45.833 321.541 46.894 329.547 33.512 332.667 32.451 324.661 45.833"/><polygon class="p" points="320.663 47.193 318.198 48.032 326.204 34.65 328.669 33.811 320.663 47.193"/><polygon class="p" points="332.559 43.145 327.629 44.823 335.635 31.441 340.565 29.763 332.559 43.145"/><polygon class="p" points="335.881 42.014 333.416 42.853 341.422 29.471 343.887 28.632 335.881 42.014"/><polygon class="p" points="344.696 39.014 343.463 39.434 351.469 26.052 352.702 25.632 344.696 39.014"/><polygon class="p" points="342.88 39.632 339.76 40.694 347.766 27.312 350.886 26.25 342.88 39.632"/><polygon class="p" points="338.882 40.993 336.417 41.832 344.423 28.45 346.888 27.611 338.882 40.993"/><polygon class="p" points="296.308 55.482 291.379 57.16 299.385 43.778 304.314 42.1 296.308 55.482"/><polygon class="p" points="299.631 54.351 297.166 55.19 305.172 41.808 307.637 40.969 299.631 54.351"/><polygon class="p" points="308.445 51.351 307.213 51.771 315.219 38.389 316.451 37.969 308.445 51.351"/><polygon class="p" points="306.629 51.969 303.51 53.031 311.516 39.649 314.635 38.587 306.629 51.969"/><polygon class="p" points="302.631 53.33 300.166 54.169 308.173 40.787 310.637 39.948 302.631 53.33"/></g></g><g class="bf"><path class="j" d="M374.53961-219.49123c.59043-.34786,1.18043-.68811,1.77742-1.02741,26.07287-14.72635,56.99427-21.19716,89.6669-16.7127,33.03867,4.53471,63.05643,19.61477,87.21058,41.61795.24473.22507.49637.45108.74759.6847L500.237-52.22229,448.21546,86.018,446.3264,91.038,410.27589-64.89156Z"/><polygon class="k" points="559.888 -122.647 553.942 -194.929 446.326 91.038 559.888 -122.647"/><g class="bg"><polygon class="m" points="538.45 26.499 509.674 -105.34 542.73 -165.021 571.506 -33.182 538.45 26.499"/><polygon class="n" points="530.295 41.221 501.519 -90.617 528.79 -139.852 557.566 -8.014 530.295 41.221"/></g></g><g class="bh"><path class="j" d="M252.82983-126.6383c.45975-.276.92031-.54729,1.38711-.81877,20.401-11.80066,46.30364-19.10162,75.432-19.92239A192.18473,192.18473,0,0,1,412.0046-131.518c.24793.11044.502.22071.75692.33565L388.19546-38.45278,364.40072,51.37448l-.86406,3.26191L307.94323-36.38874Z"/><polygon class="k" points="429.164 -87.817 412.762 -131.182 363.537 54.636 429.164 -87.817"/><g class="bi"><polygon class="m" points="433.677 5.326 388.156 -71.821 407.651 -111.753 453.172 -34.606 433.677 5.326"/><polygon class="n" points="428.868 15.177 383.347 -61.97 399.43 -94.913 444.951 -17.766 428.868 15.177"/></g></g></svg>