<svg xmlns="http://www.w3.org/2000/svg" xmlns:xlink="http://www.w3.org/1999/xlink" viewBox="0 0 1015.09252 621.96347"><defs><style>.a,.g,.r,.s{fill:none;}.b,.c,.d,.e,.f,.g,.h,.i,.j,.k,.l,.m,.n,.o{stroke:#231f20;}.b,.c,.d,.e,.f,.g,.h,.i,.j,.k,.l,.m,.n,.o,.r{stroke-miterlimit:10;}.b,.c,.d,.e,.f,.g{stroke-width:1.8848px;}.b{fill:url(#a);}.c{fill:url(#b);}.d{fill:url(#c);}.e{fill:url(#d);}.f{fill:url(#e);}.h{stroke-width:1.45027px;fill:url(#f);}.i,.j,.k,.l,.m,.n,.o{stroke-width:0.77748px;}.i{fill:url(#g);}.j{fill:#151514;}.k{fill:#0e4356;}.l{fill:#0a5170;}.m{fill:#083642;}.n,.v{fill:#fff;}.o{fill:#94aab2;}.p{fill:#231f20;}.q{fill:#f1f2f2;}.r,.s{stroke:#f7941d;stroke-linecap:round;stroke-width:5.44233px;}.s{stroke-linejoin:round;}.t{clip-path:url(#h);}.u{fill:url(#i);}.w{fill:url(#j);}.x{fill:#a7a9ac;}</style><linearGradient id="a" x1="1013.45906" y1="456.04037" x2="521.46047" y2="456.04037" gradientTransform="matrix(0.99367, 0.09699, 0, 1, 8.04366, -112.50224)" gradientUnits="userSpaceOnUse"><stop offset="0" stop-color="#231f20"/><stop offset="0.78818" stop-color="#808285"/></linearGradient><linearGradient id="b" x1="1304.76641" y1="739.85449" x2="829.15934" y2="739.85449" gradientTransform="matrix(0.99345, 0.11824, -0.2776, 0.69372, -83.42693, -239.26578)" gradientUnits="userSpaceOnUse"><stop offset="0" stop-color="#414042"/><stop offset="0.78818" stop-color="#939598"/></linearGradient><linearGradient id="c" x1="145.30158" y1="556.6467" x2="440.61184" y2="261.33644" gradientUnits="userSpaceOnUse"><stop offset="0" stop-color="#231f20"/><stop offset="0.78818" stop-color="#6d6e71"/></linearGradient><linearGradient id="d" x1="2.50301" y1="471.15561" x2="581.09604" y2="471.15561" gradientUnits="userSpaceOnUse"><stop offset="0" stop-color="#0e0e0e"/><stop offset="0.78818" stop-color="#808285"/></linearGradient><linearGradient id="e" x1="285.30679" y1="583.01697" x2="285.30679" y2="440.26022" gradientUnits="userSpaceOnUse"><stop offset="0" stop-color="#ed1c24"/><stop offset="0.29592" stop-color="#f7941d"/><stop offset="0.80612" stop-color="#f9ed32"/><stop offset="1" stop-color="#f9ed32"/></linearGradient><linearGradient id="f" x1="-201.63253" y1="-157.931" x2="236.50617" y2="-157.931" gradientTransform="matrix(0.11276, -0.77263, 0.69149, 0.51255, 468.18758, 462.79247)" gradientUnits="userSpaceOnUse"><stop offset="0.18878" stop-color="#cec3ab"/><stop offset="1" stop-color="#fcfbf9"/><stop offset="1" stop-color="#fff"/></linearGradient><linearGradient id="g" x1="187.49489" y1="317.34006" x2="187.49489" y2="157.95743" gradientTransform="translate(-16.80365 -48.52235)" gradientUnits="userSpaceOnUse"><stop offset="0" stop-color="#fff"/><stop offset="0.26895" stop-color="#6c6d6f"/><stop offset="0.30542" stop-color="#58595b"/><stop offset="0.44828"/></linearGradient><clipPath id="h"><polygon class="a" points="44.349 166.965 31.507 112.542 71.301 52.136 84.143 106.559 44.349 166.965"/></clipPath><radialGradient id="i" cx="-199.25844" cy="1076.13541" r="31.35167" gradientTransform="matrix(0.21188, 0.89793, -0.58107, 0.88204, 721.10282, -654.10355)" gradientUnits="userSpaceOnUse"><stop offset="0" stop-color="#ffde17"/><stop offset="1" stop-color="#f5841f"/></radialGradient><linearGradient id="j" x1="233.34583" y1="132.80338" x2="233.34583" y2="110.7697" gradientTransform="translate(144.85701 -112.47575) rotate(33.37614)" gradientUnits="userSpaceOnUse"><stop offset="0" stop-color="#ed1c24"/><stop offset="1" stop-color="#97131f"/><stop offset="1" stop-color="#ed1c24"/></linearGradient></defs><path class="b" d="M1012.71447,424.99269c-16.27064,22.25-118.24082,12.9569-128.84256,11.94521-20.91608-2.00675-35.72637-4.82935-36.45079-4.95791-40.56734-7.70882-127.26725-12.30615-321.21526-2.89681V408.57784c50.19164-2.43767,93.19669-3.93354,130.07292-4.67371,73.98239,4.52474,125.416,5.136,161.30328,3.45459,12.06209,1.18889,21.84747,2.58372,29.83906,4.10429.72442.14013,15.53471,2.95122,36.45079,4.958,10.2683.99064,106.32815,9.74165,127.08323-9.96458C1015.2557,412.234,1016.785,419.43052,1012.71447,424.99269Z"/><path class="c" d="M526.20451,417.8091C720.1612,408.40437,806.85786,413,847.4238,420.70066c.71978.13663,15.54081,2.95385,36.45617,4.95889,10.592,1.0154,112.56472,10.305,128.83821-11.94532,5.91618-8.089-2.50215-7.28623-9.11064-25.26369-3.35993-9.1402-19.26255-9.93493-24.07068-9.97351-50.9344-.40871-76.40159,4.01567-106.57917,11.16349C834.802,398.678,745.439,402.19858,530.52981,382.98481"/><ellipse class="d" cx="292.95671" cy="408.99157" rx="289.29652" ry="59.00297"/><path class="e" d="M581.096,416.31658c0,63.33277-129.52382,114.68869-289.29652,114.68869S2.503,479.64935,2.503,416.31658a45.13889,45.13889,0,0,1,.27771-5.01064c6.61914,31.39447,133.493,56.42441,289.0188,56.42441s282.39967-25.02994,289.01881-56.42441A45.13889,45.13889,0,0,1,581.096,416.31658Z"/><path class="f" d="M60.12438,529.43478c-4.379-5.03746-19.25852-23.71485-7.37332-42.53273,3.84437-6.0868,10.09909-11.57095,13.825-11.13952,5.822.67414-.75009,15.07191,12.90331,20.76,7.3128,3.04657,20.66655,3.6941,25.8066.50634,11.06529-6.86244-26.6624-24.84576-15.66829-44.55809,4.08886-7.33132,13.76831-12.84227,17.51162-12.15221,5.428,1.00061-3.67232,14.6627,8.295,20.25368,7.52665,3.51636,14.824-.1603,23.96328,3.038,12.03043,4.21014,12.85424,15.2943,13.825,28.35515.96141,12.93535-2.35313,16.91724,1.84333,18.22831,9.25988,2.893,41.99386-11.31041,39.63158-23.79807-1.443-7.62814-15.59144-12.55171-13.825-13.67123,2.02838-1.28551,18.12073,6.83022,44.2399,10.63318,11.26316,1.63992,23.84824,3.47231,31.33659,0,10.42279-4.833,2.043-15.80256,8.295-17.21563,6.02687-1.3622,23.2448,6.70019,26.72827,17.21563,4.397,13.2729-15.7657,22.37159-8.295,27.34246,4.83488,3.217,18.79227,3.07414,25.80661-.50634,13.58133-6.93261-3.97854-24.14323,4.60832-26.83612,6.3325-1.98592,24.37016,4.71245,31.33659,14.17757,7.98891,10.85432-2.05377,20.62976,2.765,21.77271,4.51,1.06972,18.701-6.21392,22.11995-15.6966,4.38046-12.14948-11.39691-21.04393-7.37332-22.78539,4.81478-2.0839,35.04536,7.34648,44.2399,23.29173,8.11728,14.077-5.01344,24.81663,3.68666,27.84881,7.74428,2.69906,27.49794-2.55186,33.17992-10.63318,7.87809-11.2048-14.44463-23.37127-8.295-26.32979,4.44637-2.13908,20.04688,2.33009,30.41493,8.10147,12.41446,6.91055,14.39775,14.05748,17.51163,13.67124,3.69178-.45793,3.94509-10.88093.92166-20.25368-2.76139-8.56028-6.96586-12.24491-4.60832-13.16489,3.75259-1.46436,20.26644,5.58365,30.41493,14.68391,2.23058,2.0002,17.04534,15.28471,11.06,28.35516-6.63375,14.48634-27.51054,33.27041-51.61322,38.482-34.42935,7.44444-242.68652,39.54155-360.37085-5.06342C77.505,547.88838,64.47508,534.43966,60.12438,529.43478Z"/><path class="g" d="M67.82313,516.84647c92.71731-9.66787,185.09727-8.28906,278.856-2.77384,49.637,4.13642,96.51638,9.65164,144.77457,23.43969,12.40924,4.13642,26.1973,6.894,37.22774,16.54567,1.37881,1.3788,2.75761,0,4.13642,1.3788,8.27283,6.894,8.27283,17.92447,1.3788,26.19731-9.65163,11.03044-23.43969,13.788-35.84894,17.92447-27.57611,9.65163-55.15221,13.788-82.72832,16.54566-22.06089,1.37881-44.12177,4.13642-66.18266,4.13642-48.25819,2.75761-96.51638,2.75761-146.15337-4.13642H189.49535c-26.1973-2.75761-51.0158-9.65164-75.83429-17.92447a32.55283,32.55283,0,0,1-12.40925-11.03044c-1.37881-4.13642,0-9.65164,2.75761-12.40925,11.03044-9.65164,23.43969-11.03044,37.22774-13.78806,17.92447-4.13641,33.09133-8.27283,51.0158-9.65163,8.27284-1.37881,16.54567,0,24.8185,0,34.47014-4.13642,70.31908,1.3788,104.78921,2.75761,4.13642,0,8.27283,2.75761,12.40925,2.75761,12.40925,0,24.8185,2.75761,37.22775,6.894,4.13641,2.75761,9.65163,4.13641,11.03044,9.65163s-5.51522,8.27284-8.27283,11.03045c-23.4397,9.65163-49.637,11.03044-74.4555,12.40925-26.1973,1.3788-52.3946-1.37881-79.97071-5.51523-6.894-1.3788-16.54566-2.75761-17.92447-11.03044,0-4.13642,5.51522-6.894,9.65164-8.27283,33.09133-6.894,66.18266-9.65164,99.274-1.37881,2.75761,1.37881,4.13641,4.13642,6.81657,6.60276-3.87612,2.62221-6.23616-8.77324,0,0-3.87612,2.62221-7.41844,5.54635-12.32666,5.67106"/><path class="h" d="M464.74019,384.8183l37.08334,60.9741c-.06506,12.99455-48.38267,12.31012-61.273,13.954l-136.451,7.41935c-13.16605,1.679-70.79867,3.18769-73.832-9.73372l15.10074-138.80514q-.59868-2.55032-1.0011-5.1408L230.5994,224.8402c-3.65728-23.54787,43.98245-109.59245,62.35731-94.4187l62.86682,127.72514a46.33876,46.33876,0,0,0,5,6.61882c.00425.004,17.17765,8.57617,5.222,7.6636l90.59562,93.44033C453.82353,370.42906,464.77606,377.654,464.74019,384.8183Z"/><rect class="i" x="54.51293" y="109.43508" width="232.35662" height="159.38263" transform="translate(132.1956 -62.71161) rotate(33.37614)"/><polyline class="j" points="117.123 58.407 106.3 1.002 19.348 129.923 29.441 191.504"/><polygon class="k" points="106.692 1.259 117.514 58.664 311.55 186.492 295.691 125.769 106.692 1.259"/><rect class="l" x="91.08259" y="119.62073" width="232.35662" height="27.98914" transform="translate(107.68829 -91.98485) rotate(33.37614)"/><polygon class="m" points="102.116 82.038 117.942 58.015 106.692 1.259 89.761 23.527 102.116 82.038"/><rect class="n" x="78.67885" y="143.89139" width="232.35662" height="17.10448" transform="translate(116.00071 -82.05591) rotate(33.37614)"/><polyline class="o" points="89.761 23.527 102.544 81.388 93.134 95.672 79.655 38.379 87.782 26.043"/><path class="p" d="M177.07646,133.54722a3.937,3.937,0,0,1-2.18555,1.418,1.92208,1.92208,0,0,1-1.72949-.1582,2.13652,2.13652,0,0,1-.39648-.34766l-3.93848,3.2168a6.5127,6.5127,0,0,1-1.14649.75,4.3074,4.3074,0,0,1-1.2705.50195.92993.92993,0,0,1-.66016-.12207,1.58558,1.58558,0,0,1-.67285-1.35254,3.318,3.318,0,0,1,.38867-1.94726,2.279,2.279,0,0,1,.71875-.55274l.35645.02344.11718.07812a1.09424,1.09424,0,0,1,.55957.93555,1.61153,1.61153,0,0,0-.56445.49414.726.726,0,0,0,.00293.75781q.252.167,1.123-.61328l3.79394-3.38476a8.416,8.416,0,0,0-1.13769-.99024,2.918,2.918,0,0,0-.80371-.41211.65931.65931,0,0,0-.75879.32227.60927.60927,0,0,0-.02442.58008,1.176,1.176,0,0,0,.34961.48437l.001.53906a1.75125,1.75125,0,0,1-1.36719.40821,1.97642,1.97642,0,0,1-.69922-1.41309,2.60311,2.60311,0,0,1,.48243-1.51465,2.8954,2.8954,0,0,1,.79589-.82129,1.85255,1.85255,0,0,1,1.3711-.34863,3.74415,3.74415,0,0,1,1.31738.60645,11.58929,11.58929,0,0,1,1.72559,1.46386,3.00691,3.00691,0,0,1,3.00879-.49121,2.59853,2.59853,0,0,1,.73144.31543,1.5649,1.5649,0,0,1,.60254.69532A.90457.90457,0,0,1,177.07646,133.54722Zm-1.915-.18555c.1875-.28515.18652-.48828-.00293-.61328q-.1421-.09375-1.12305.55469a2.16041,2.16041,0,0,0,.40625.31152Q174.827,133.868,175.16142,133.36167Z"/><path class="p" d="M179.21122,140.40757a1.98089,1.98089,0,0,1-1.88867.749,3.92286,3.92286,0,0,1-2.06933-.61328,2.93176,2.93176,0,0,1-.28711-.22657c-.1377-.10937-.23242-.18164-.28614-.21777l.11915-.97559a4.28508,4.28508,0,0,0-1.41993,1.41407.95239.95239,0,0,0-.16113.709.88059.88059,0,0,0,.40625.58691q1.65381,1.08839,2.5625.749l.30859.459-.16406.24805a3.55066,3.55066,0,0,1-.96289.94336,4.40493,4.40493,0,0,1-2.291-.73047,2.85661,2.85661,0,0,1-1.49707-1.86621,2.76327,2.76327,0,0,1,.19531-1.29,7.432,7.432,0,0,1,.64746-1.13672,4.39493,4.39493,0,0,1,1.28223-1.207,7.65172,7.65172,0,0,1,1.5957-.81055,6.91059,6.91059,0,0,1,1.9834-.39453,3.30283,3.30283,0,0,1,1.97168.374Q180.7122,138.13072,179.21122,140.40757Zm-.97753-1.36425a1.15013,1.15013,0,0,0,.17675-.44336,4.1403,4.1403,0,0,0-3.19629.30273,2.03242,2.03242,0,0,0,.37891.37305,2.29946,2.29946,0,0,0,1.38574.35937A1.452,1.452,0,0,0,178.23369,139.04332Z"/><path class="p" d="M189.55205,149.45347a4.63477,4.63477,0,0,1-2.31153,1.67774,3.4111,3.4111,0,0,1-2.79785.12793,1.36538,1.36538,0,0,1,.06836-1.46192l.67285-.09473a1.33785,1.33785,0,0,0,1.14942.08887,6.0747,6.0747,0,0,0,1.09765-.48437,2.10117,2.10117,0,0,0,.7832-.64844.79584.79584,0,0,0,.1836-.65332,1.17719,1.17719,0,0,0-.5-.52246,10.86969,10.86969,0,0,0-3.29395-.96289,1.22226,1.22226,0,0,1,.00782-1.34668l.458-.30957a10.49045,10.49045,0,0,1,4.15332,1.55664,1.7238,1.7238,0,0,1,.84375,1.48047A2.7677,2.7677,0,0,1,189.55205,149.45347Z"/><path class="p" d="M196.0081,153.72105a4.27561,4.27561,0,0,1-2.74414,1.82519,4.01321,4.01321,0,0,1-3.23145-.51757,2.5215,2.5215,0,0,1-1.0664-2.0127,2.46212,2.46212,0,0,1,.43261-1.60547q.74122-1.12646,3.58887-1.92773a17.222,17.222,0,0,1,4.252-.68945l.4414.35644a1.88224,1.88224,0,0,1-.1709,1.25488,23.3261,23.3261,0,0,0-3.40722.30078q-2.45948.41016-2.99317,1.22071a1.24595,1.24595,0,0,0-.17773,1.06543,1.55594,1.55594,0,0,0,.67383.89941,2.43137,2.43137,0,0,0,1.44043.39453,1.503,1.503,0,0,0,1.27441-.65136q.41016-.624.13086-.80762a.61539.61539,0,0,0-.30469-.07715l-.11426-.64355a1.86111,1.86111,0,0,1,2.32715-.29883c.18555.123.2041.4414.05274.958A3.458,3.458,0,0,1,196.0081,153.72105Z"/><path class="p" d="M202.94951,158.01011a2.40089,2.40089,0,0,1-.63282.6084,6.96382,6.96382,0,0,1-1.21777.68945,5.01176,5.01176,0,0,1-2.57324.34473,5.61718,5.61718,0,0,1-2.47559-.88477,1.246,1.246,0,0,1-.50293-.80468,3.19776,3.19776,0,0,1,.58106-2.4834,3.41539,3.41539,0,0,1,1.57812-1.19238l-.48926-.5918.04-.06055a2.888,2.888,0,0,1,.7959-.80078,12.527,12.527,0,0,1,4.582,1.85547,1.82189,1.82189,0,0,1,.85157,1.55664A2.97426,2.97426,0,0,1,202.94951,158.01011Zm-1.14844-1.23633a.54292.54292,0,0,0,.10937-.53125,1.14672,1.14672,0,0,0-.416-.38379,5.01952,5.01952,0,0,0-2.48535-.74316,3.09922,3.09922,0,0,0-1.47168,1.207q-.71778,1.08984-.19629,1.4336a3.00918,3.00918,0,0,0,2.377.25586A3.18364,3.18364,0,0,0,201.80107,156.77378Z"/><path class="p" d="M211.33134,162.19371a1.48592,1.48592,0,0,1-.334.36132,1.7292,1.7292,0,0,1-1.21973-.04687,2.23115,2.23115,0,0,0-.35254-.34961,3.47425,3.47425,0,0,0-1.39453-.32129,9.462,9.462,0,0,0-1.91016.05078,1.54063,1.54063,0,0,0,.67481,1.46973,2.62308,2.62308,0,0,0,.84863.334l.041.02735q.37646.24756-.32324,1.30664a1.66188,1.66188,0,0,1-1.02442.13281l-.376-.2041a3.66653,3.66653,0,0,1-1.39746-3.27637c-.373.292-.69238.53516-.96.72656a3.65944,3.65944,0,0,1-.95605.5752.53535.53535,0,0,1-.35352-.09863,1.9975,1.9975,0,0,1-.6123-1.10157l.45215-.50976q.65478.08936,2.416-1.53614a14.56639,14.56639,0,0,0,2.27832-2.65234l.083-.12695,1.4707-.35449a2.58091,2.58091,0,0,1,.58106.90625q-2.061,2.06835-3.56055,3.37109a9.60347,9.60347,0,0,1,5.708.20312,4.01737,4.01737,0,0,1,.45019.74024C211.42021,162.0482,211.344,162.1732,211.33134,162.19371Z"/><path class="p" d="M220.35576,167.12046a13.75187,13.75187,0,0,0-3.042,1.39258q-.82031.49365-2.77441,1.88184l-.82129-.19922a16.20213,16.20213,0,0,0,.51856-4.25488,9.80037,9.80037,0,0,0-3.668,2.54394,2.68086,2.68086,0,0,1-1.36426-.46973l-.0791-.66308a56.16389,56.16389,0,0,1,5.43554-3.56934,3.52523,3.52523,0,0,1,1.123.25977l.28809.35742-.48145,3.39258q1.51172-.895,2.55078-1.47656c.40235-.23536,1.00684-.55567,1.81348-.96582l.62695.23242A2.32038,2.32038,0,0,1,220.35576,167.12046Z"/><path class="q" d="M129.30009,145.57847l-1.42187-.93652,4.64062-7.04395,1.42188.93555Zm12.40821-4.82422a4.86788,4.86788,0,0,1-.68262,1.502l-5.0752,7.70312-1.4209-.93555,5.08692-7.7207q1.50439-2.28516-1.55957-4.30469-1.35352-.89062-3.04981-1.873l-.62109-.36133.79492-1.207q2.08008,1.18652,3.73535,2.27734a7.72653,7.72653,0,0,1,2.39649,2.29688A3.32538,3.32538,0,0,1,141.7083,140.75425Z"/><path class="q" d="M137.27861,156.88609l-1.41211-.93067,7.12695-10.81933,1.41309.93066Zm7.11523-1.78223-.19238.291-1.41211-.92969.19141-.291a8.52447,8.52447,0,0,1,1.40136-1.51367q.99024-.88769,1.42285-1.26562.876-.78663,2.10059-1.8086l3.98731-3.38671-6.70313-4.416.72168-1.0957,8.12305,5.35156-.72168,1.0957-4.15918,3.51953q-.74121.64161-1.22266,1.05469-.48194.41309-.97363.84375c-.32813.28711-.6084.53711-.83985.75391q-.34863.32226-.71777.67968A7.54185,7.54185,0,0,0,144.39384,155.10386Z"/><path class="q" d="M150.07353,159.264l-1.4209-.93653,7.27344-11.042,1.42187.9375Z"/><path class="q" d="M152.81865,161.24449a4.30067,4.30067,0,0,1-.77637-.6836l.77246-1.17285c.37891.33106.5918.5127.6377.542q1.22314.80567,2.18261-.64843l4.80957-7.30078-1.28027-.6836.79492-1.207a44.4517,44.4517,0,0,1,4.35742,2.47754,7.24423,7.24423,0,0,1,2.24707,2.17969,3.37138,3.37138,0,0,1,.41211,2.65332,4.84017,4.84017,0,0,1-.68261,1.501l-5.0752,7.70411-1.42871-.94141,5.08594-7.7207q1.50585-2.28516-1.55078-4.29883-.37647-.249-1.38575-.83985l-4.7539,7.21582a3.882,3.882,0,0,1-2.00391,1.7002A2.72274,2.72274,0,0,1,152.81865,161.24449Z"/><path class="q" d="M175.87919,160.18589a3.55508,3.55508,0,0,1,1.78516,2.57422,4.90034,4.90034,0,0,1-.96191,3.22071l-4.97364,7.54882-3.7666-2.48047.72754-1.10546,2.3457,1.54492,4.20606-6.38477q1.66405-2.52539-.64844-4.04687a2.71674,2.71674,0,0,0-.88379-.38086,3.09287,3.09287,0,0,0-.87695-.09375,5.01552,5.01552,0,0,0-1.293.22851l-.19238.07032-6.50879,8.10937-1.42871-.94141,6.39746-7.96093c.01465-.02344.05664-.08594.124-.18946a7.29961,7.29961,0,0,0,.39942-.86523,5.90639,5.90639,0,0,0,.38769-1.24219l.12695-.67676,1.42969.94141a4.67287,4.67287,0,0,1-.37207,1.42285l.05859.03906a4.48958,4.48958,0,0,1,1.64551-.168,5.264,5.264,0,0,1,1.06446.248A4.94813,4.94813,0,0,1,175.87919,160.18589Z"/><path class="q" d="M178.97587,178.47593a4.29209,4.29209,0,0,1-.77636-.68261l.77246-1.17383q.56835.498.63769.543,1.22315.80566,2.18262-.64844l4.80957-7.30176-1.28027-.68359.79492-1.207a44.859,44.859,0,0,1,4.35742,2.47753,7.266,7.266,0,0,1,2.24707,2.17969,3.372,3.372,0,0,1,.41211,2.65332,4.83007,4.83007,0,0,1-.68262,1.501l-5.07519,7.7041-1.42871-.94043,5.08593-7.72168q1.50586-2.28369-1.55078-4.29785-.37645-.249-1.38574-.83984l-4.75391,7.21484a3.8747,3.8747,0,0,1-2.00293,1.70019A2.71792,2.71792,0,0,1,178.97587,178.47593Z"/><path class="q" d="M198.37236,176.64781a4.91337,4.91337,0,0,0-1.14551-.53418l.73828-1.1211a7.22258,7.22258,0,0,1,1.65039.83008q2.67042,1.75782.73731,4.69531l-3.67676,5.58008a13.75751,13.75751,0,0,1-.9834,1.31543,9.76862,9.76862,0,0,1-.82715.8916l-.2998.26954-5.084-3.34961.72754-1.1045,3.81738,2.51465a7.50426,7.50426,0,0,0,1.21973-1.47851l3.59766-5.46094a2.50882,2.50882,0,0,0,.53613-1.7832A2.07259,2.07259,0,0,0,198.37236,176.64781Z"/><path class="q" d="M209.56181,182.37437a3.55542,3.55542,0,0,1,1.78418,2.57422,4.89882,4.89882,0,0,1-.96191,3.2207l-4.97364,7.54981-3.7666-2.48145.72754-1.10449,2.3457,1.54492,4.20606-6.38476q1.66406-2.5254-.64746-4.04786a2.74538,2.74538,0,0,0-.88379-.37988,3.06422,3.06422,0,0,0-.87793-.09375,4.98156,4.98156,0,0,0-1.293.22852l-.19238.07031L198.51982,191.18l-1.42871-.9414,6.39746-7.96192c.01562-.02246.05664-.085.124-.18847a7.17958,7.17958,0,0,0,.39942-.86621,5.92744,5.92744,0,0,0,.38867-1.24121l.12695-.67774,1.42969.94238a4.68,4.68,0,0,1-.37305,1.42286l.05957.03906a4.44278,4.44278,0,0,1,1.64453-.168,5.19155,5.19155,0,0,1,1.06543.24805A4.97811,4.97811,0,0,1,209.56181,182.37437Z"/><path class="q" d="M213.13994,199.22691a4.53346,4.53346,0,0,0,3.73535.65625,7.73849,7.73849,0,0,0,3.94238-2.9375l3.60547-4.52344,1.41211.92969-3.58789,4.53516a10.93487,10.93487,0,0,1-1.65137,1.74218,10.40518,10.40518,0,0,1-1.47266,1.041,6.69651,6.69651,0,0,1-1.46289.58984,5.79487,5.79487,0,0,1-1.65136.22461,6.18741,6.18741,0,0,1-1.82813-.32617,8.1527,8.1527,0,0,1-2-.97949l-3.66308-2.41309,6.35839-11.64453,1.4375.94727-3.55175,6.50976,1.38671.373q1.59962.43946,3.082-1.38281l2.584-3.19434,1.4209.93652-2.19434,2.71485q-.44238.54345-.84472.94726a6.06589,6.06589,0,0,1-.94825.76856,4.36934,4.36934,0,0,1-1.09863.54,3.94777,3.94777,0,0,1-1.25683.166,4.58062,4.58062,0,0,1-1.4629-.27637l-1.30957-.43261-1.53125,2.80859Z"/><path class="r" d="M189.70237,200.03707a36.38758,36.38758,0,1,0,7.06067,18.51317"/><line class="s" x1="157.37818" y1="212.12382" x2="157.83551" y2="205.11907"/><path class="s" d="M155.4261,232.78456l2.48893,1.63967a7.88953,7.88953,0,0,0,10.92866-2.24807l.90661-1.3762c3.601-5.46609,3.31068-14.67088-2.15541-18.27184-9.31585-6.13711-17.60315,5.68673-24.38147,10.84733-1.97251,1.23989-3.75276,3.05713-6.29312,2.18121-3.7033-1.2769-3.32871-6.05231-2.65433-9.11227a28.28756,28.28756,0,0,1,3.80512-9.46853,26.88025,26.88025,0,1,1,2.02837,32.31065"/><g class="t"><polygon class="p" points="47.834 161.674 34.992 107.252 71.301 52.136 84.143 106.559 47.834 161.674"/><polygon class="p" points="47.834 161.674 34.992 107.252 71.301 52.136 84.143 106.559 47.834 161.674"/><polygon class="u" points="36.683 170.416 26.742 128.29 70.467 61.918 80.407 104.044 36.683 170.416"/><ellipse class="p" cx="28.55207" cy="155.86056" rx="76.66626" ry="31.48144" transform="translate(-128.37912 177.77709) rotate(-87.56943)"/></g><path class="q" d="M45.17216,124.8607l-4.291,6.47656-.76758-3.25391,4.60351-6.9873a7.11837,7.11837,0,0,0,1.11036-5.75586l-.57911-2.45312L43.556,114.40953l.59961,2.54L42.845,118.93785l-.73339-3.11036a7.15385,7.15385,0,0,1-.14063-2.36328,4.2682,4.2682,0,0,1,.56934-1.93164,2.32433,2.32433,0,0,1,.19531-.25683l3.16992-3.14551,1.28613,5.45019A13.90155,13.90155,0,0,1,45.17216,124.8607Z"/><path class="q" d="M48.94658,144.8646q-1.144,1.73731-2.50489.04981a10.81419,10.81419,0,0,1-1.88183-4.37695,24.86583,24.86583,0,0,1-.625-6.24805q.06738-3.85547,1.20117-5.5752l4.14258-6.28906.76758,3.25293-3.97754,6.03809a2.71947,2.71947,0,0,0-.25782.46875q1.05909,2.65575,2.02735,1.18652l2.96289-4.49707.7666,3.25195-3.12793,4.74805q-1.41211,2.14453-3.05371-.917a19.19369,19.19369,0,0,0,.459,2.48535,8.11845,8.11845,0,0,0,1.207,3.11426q.65478.7705,1.292-.19727l3.97851-6.03808.76758,3.2539Z"/><path class="q" d="M50.1165,100.00132q.208.78369.35937,1.42285.15088.64014.21875,1.11329a8.88352,8.88352,0,0,1,.083.95117,5.75144,5.75144,0,0,1-.03711.90234,3.569,3.569,0,0,1-.53125,1.53711l-2.14844,3.26074-.22656-.959,2.15332-3.26758A3.9541,3.9541,0,0,0,50.137,101.93q-.14649-.624-.35645-1.418Z"/><path class="q" d="M52.02763,111.39488a4.20742,4.20742,0,0,0-.0498-1.69531c-.07227-.30372-.14356-.55958-.21387-.76563l.32519-.49316a6.29221,6.29221,0,0,1,.22461.77539,6.52631,6.52631,0,0,1,.1543,2.03418,6.90339,6.90339,0,0,1-.168,1.06933,6.47939,6.47939,0,0,1-.91211,2.10742,3.51764,3.51764,0,0,1-.626.74707.987.987,0,0,1-.54688.26758.63606.63606,0,0,1-.457-.16406,1.49586,1.49586,0,0,1-.37012-.51953,4.31889,4.31889,0,0,1-.27246-.8252,6.8923,6.8923,0,0,1-.1582-.99707,7.15128,7.15128,0,0,1-.00488-1.07422,7.33475,7.33475,0,0,1,.15918-1.09863,6.47234,6.47234,0,0,1,.35156-1.09277,6.27068,6.27068,0,0,1,.55469-1.04785l1.54-2.33692.2334.99219-1.53906,2.33691a5.96891,5.96891,0,0,0-.77051,1.69532,4.12351,4.12351,0,0,0-.14941,1.0332,4.07168,4.07168,0,0,0,.10254,1.03613,2.356,2.356,0,0,0,.2666.71973.52981.52981,0,0,0,.31641.26465.512.512,0,0,0,.36523-.08789,2.73855,2.73855,0,0,0,.76953-.84668c.1377-.21.25977-.415.36621-.61133a5.6008,5.6008,0,0,0,.29981-.67481A4.49825,4.49825,0,0,0,52.02763,111.39488Z"/><path class="q" d="M53.91044,115.98179a7.084,7.084,0,0,1,.10645,2.71778,6.41685,6.41685,0,0,1-1.00879,2.59375,3.49782,3.49782,0,0,1-.626.748,1.00128,1.00128,0,0,1-.5459.26758.63889.63889,0,0,1-.457-.16406,1.49721,1.49721,0,0,1-.37109-.51953,4.39276,4.39276,0,0,1-.27148-.8252,6.65285,6.65285,0,0,1-.15821-.99707,7.02265,7.02265,0,0,1-.00586-1.07422,7.34765,7.34765,0,0,1,.15918-1.09961,6.5402,6.5402,0,0,1,.35157-1.09375,6.33863,6.33863,0,0,1,.55468-1.04687,2.98165,2.98165,0,0,1,.81348-.90137.65414.65414,0,0,1,.61719-.10937l-.19336-.71094.33691-.51074Q53.54033,114.41343,53.91044,115.98179Zm-1.293-.33008a3.16348,3.16348,0,0,0-.70214.76563,6.80246,6.80246,0,0,0-.48828.8623,5.90314,5.90314,0,0,0-.32618.89844,4.154,4.154,0,0,0-.14843,1.03223,4.27945,4.27945,0,0,0,.11523,1.08691,1.88027,1.88027,0,0,0,.32324.77051.38538.38538,0,0,0,.42969.15527,2.12,2.12,0,0,0,.95312-.92285,5.42528,5.42528,0,0,0,.86231-2.05957,4.34707,4.34707,0,0,0,.05469-.83594,4.48258,4.48258,0,0,0-.11914-.9082l-.249-1.02637A.705.705,0,0,0,52.61747,115.65171Z"/><path class="q" d="M56.09306,125.50621l-1,1.51757a4.51292,4.51292,0,0,1-.34766.47168,1.36254,1.36254,0,0,1-.33886.28711c-.25391.15137-.49317.01367-.71582-.40918l-.64649,2.93262-.25488-1.0791.85742-3.76953.33692-1.70313a.76843.76843,0,0,0-.15039-.22656c-.209-.17969-.457-.0498-.74512.38672l-1.14356,1.73535-.22558-.958,1-1.51758q.52295-.79394.86426-.80273a.42769.42769,0,0,1,.291.126,1.32254,1.32254,0,0,1,.29395.42871l.63086-2.90235.25585,1.08594-.7871,3.51563-.39161,1.90234a.50679.50679,0,0,0,.251.209.34239.34239,0,0,0,.26367-.07714,1.35465,1.35465,0,0,0,.333-.376l1.14258-1.73633Z"/><path class="q" d="M57.24345,130.10679a5.39345,5.39345,0,0,1,.11426,2.04883,4.11823,4.11823,0,0,1-.62109,1.68262l-2.10547,3.19531-.59864-2.53809.30762-.46679.373,1.58007,1.78027-2.70312a3.2408,3.2408,0,0,0,.33692-2.626,2.199,2.199,0,0,0-.165-.47363,1.15538,1.15538,0,0,0-.19825-.29883.78815.78815,0,0,0-.33691-.21679l-.05469-.01172-2.54,3.11035-.22754-.96387,2.4961-3.05078c.00586-.00977.02344-.03613.05176-.08008a4.40864,4.40864,0,0,0,.20117-.41406,5.02225,5.02225,0,0,0,.24316-.64453l.11231-.374.22754.9629a4.20363,4.20363,0,0,1-.26172.75976l.00976.03906a.89045.89045,0,0,1,.41309.35254,2.65789,2.65789,0,0,1,.22461.44239A4.34614,4.34614,0,0,1,57.24345,130.10679Z"/><path class="p" d="M71.07642,99.55966c-1.34737,2.04526-4.18984,1.98535-5.12739-1.98789s.38484-10.35523,1.73222-12.40049,5.62841-4.169,6.566-.19579S72.4238,97.51441,71.07642,99.55966Z"/><path class="p" d="M60.50789,106.593c-1.946,2.86779-3.65593,5.7981-5.14994,8.53763l-.81373-3.44846a75.70707,75.70707,0,0,0,5.55071-6.43521,53.71569,53.71569,0,0,0,5.50534-9.73866q.60514-1.33254,1.23875-2.857l.31375,5.65576q-.3183.32757-.67622.71136A62.81551,62.81551,0,0,0,60.50789,106.593Z"/><path class="p" d="M77.29875,107.21071l-10.34912,7.17957c-.40051.27785-.66736-.73858-.394-1.50757a19.44167,19.44167,0,0,1,3.83294-6.79946c2.4628-2.59819,5.01126-2.69372,7.04207-.73817A1.6848,1.6848,0,0,1,77.29875,107.21071Z"/><path class="p" d="M61.52562,118.39966a60.18662,60.18662,0,0,0-5.34568,5.547l-.41185-3.23315a44.56209,44.56209,0,0,0,5.51207-3.60859A31.45113,31.45113,0,0,0,67.05,110.651q.65785-.93391,1.35831-2.0225l-.23148,4.95248q-.31235.17142-.665.37741A36.68579,36.68579,0,0,0,61.52562,118.39966Z"/><polygon class="p" points="63.308 81.939 62.997 81.033 62.686 80.127 65.961 73.911 69.236 67.694 66.272 74.817 63.308 81.939"/><polygon class="p" points="64.411 85.138 64.1 84.232 63.789 83.326 67.064 77.11 70.339 70.893 67.375 78.016 64.411 85.138"/><polygon class="p" points="63.857 83.511 63.546 82.605 63.235 81.699 66.51 75.482 69.785 69.266 66.821 76.388 63.857 83.511"/><polygon class="p" points="64.93 86.68 64.619 85.774 64.308 84.868 67.583 78.652 70.858 72.435 67.894 79.558 64.93 86.68"/><polygon class="p" points="61.527 89.171 62.114 84.624 62.7 80.077 63.858 83.363 65.016 86.649 63.272 87.91 61.527 89.171"/><path class="p" d="M58.35511,98.03094c-1.48706,3.60594-2.77816,7.08283-3.89941,10.25536l-.79833-1.98432c1.47649-2.956,3.00271-5.97057,4.30794-8.97449a107.61242,107.61242,0,0,0,4.14528-11.4228q.44569-1.4525.90744-3.07046l.4721,4.01567q-.2486.48349-.52757,1.03876C61.76245,90.2801,60.15568,93.666,58.35511,98.03094Z"/><path class="p" d="M49.77568,192.65269l-2.51074-1.6543,18.55957-9.70507,2.51074,1.65429Zm7.8457-17.07812a3.84377,3.84377,0,0,1,1.89844,3.02734,8.73391,8.73391,0,0,1-4.68945,7.165,4.3003,4.3003,0,0,1-5.38868-3.59473,7.02907,7.02907,0,0,1,1.4209-4.19531Q54.012,173.19713,57.62138,175.57457Zm-1.41894,2.19921a.9676.9676,0,0,0-1.17872.13868,7.3537,7.3537,0,0,0-1.53906,1.82226,7.46433,7.46433,0,0,0-1.07324,2.14258.97045.97045,0,0,0,.331,1.14844q1.00343.6621,2.7334-1.96387Q57.20585,178.4354,56.20244,177.77378Zm8.10644,10.9668a3.85073,3.85073,0,0,1,1.89844,3.02832,8.69021,8.69021,0,0,1-4.68848,7.15039,4.28907,4.28907,0,0,1-5.38183-3.59082,6.994,6.994,0,0,1,1.41308-4.18457Q60.69951,186.36412,64.30888,188.74058Zm-1.41894,2.20117a.96622.96622,0,0,0-1.17872.13867,7.30594,7.30594,0,0,0-1.53906,1.82129,7.45508,7.45508,0,0,0-1.07324,2.14356.97137.97137,0,0,0,.331,1.14844q1.00343.6621,2.7334-1.96485Q63.89335,191.60386,62.88994,190.94175Z"/><path class="p" d="M74.556,188.21519a8.068,8.068,0,0,1,7.09766,4.6543,3.80825,3.80825,0,0,1-.42969,3.57812,4.18629,4.18629,0,0,1-2.04492,1.66992,6.714,6.714,0,0,1-3.15039.25,8.9024,8.9024,0,0,1,1.19726,3.51172,4.25826,4.25826,0,0,1-.69336,2.71485,4.368,4.368,0,0,1-3.46875,2.0664,7.49092,7.49092,0,0,1-4.68457-1.45117,7.65429,7.65429,0,0,1-3.19433-3.63476,4.2467,4.2467,0,0,1,.55957-3.9668,4.74543,4.74543,0,0,1,2.24609-1.873,6.97717,6.97717,0,0,1,3.3916-.30859,6.87522,6.87522,0,0,1-.72558-2.97656,4.60416,4.60416,0,0,1,.78906-2.47266A3.78907,3.78907,0,0,1,74.556,188.21519ZM68.85966,199.39a2.03761,2.03761,0,0,0-.30078,1.81153,3.26523,3.26523,0,0,0,1.42676,1.66015,3.19862,3.19862,0,0,0,2.081.64356,2.02771,2.02771,0,0,0,1.51856-.97168,2.24109,2.24109,0,0,0,.27344-1.70313,9.10267,9.10267,0,0,0-1.06153-2.56738Q69.8997,197.8104,68.85966,199.39Zm9.39746-6.19335a2.46206,2.46206,0,0,0-1.06445-1.30957,2.41557,2.41557,0,0,0-1.61328-.45508,1.62414,1.62414,0,0,0-1.22363.7539,2.2894,2.2894,0,0,0-.38575,1.44922,5.73833,5.73833,0,0,0,.80371,1.96973,5.01775,5.01775,0,0,0,2.06055-.03027,2.14559,2.14559,0,0,0,1.2041-.918A1.64355,1.64355,0,0,0,78.25712,193.19664Z"/><path class="p" d="M90.71122,197.37339a7.74059,7.74059,0,0,1,3.12012,3.42774,3.69036,3.69036,0,0,1-.39258,3.58984,4.311,4.311,0,0,1-2.47363,1.86621,5.39281,5.39281,0,0,1-3.34668-.22558l-.042.0625a5.84427,5.84427,0,0,1,2.06348,2.97265,3.77488,3.77488,0,0,1-.63672,3.03809,4.967,4.967,0,0,1-3.875,2.39746,8.9563,8.9563,0,0,1-5.37207-1.79785A13.22429,13.22429,0,0,1,75.887,208.9691l1.81152-2.75a10.71325,10.71325,0,0,0,3.40137,3.69433,4.88241,4.88241,0,0,0,2.73144,1.01172,2.3173,2.3173,0,0,0,1.86524-1.17871,1.959,1.959,0,0,0,.1748-2.15723,7.69418,7.69418,0,0,0-2.51367-2.30957L82.1956,204.515l1.63379-2.47949,1.18262.7793a6.50074,6.50074,0,0,0,2.92578,1.252,2.02768,2.02768,0,0,0,1.85254-1.06054q1.144-1.73584-1.03223-3.16993a7.19935,7.19935,0,0,0-4.001-1.02929l-.02832-3.21485A9.95089,9.95089,0,0,1,90.71122,197.37339Z"/><polygon class="v" points="306.401 163.849 114.772 37.607 116.465 43.707 308.094 169.949 306.401 163.849"/><polygon class="v" points="300.966 143.816 109.337 17.574 111.416 29.439 303.045 155.681 300.966 143.816"/><path class="w" d="M244.06114,111.90937l7.9053-11.99988,19.99891,4.57278a7.58921,7.58921,0,0,1,2.4834,1.06069l8.63255,5.687a16.37286,16.37286,0,0,1,3.75686,3.41842l11.11494,13.83553-8.69582,13.19987"/><polygon class="x" points="78.937 77.643 77.45 66.949 109.892 17.704 111.378 28.399 78.937 77.643"/></svg>