<svg xmlns="http://www.w3.org/2000/svg" xmlns:xlink="http://www.w3.org/1999/xlink" viewBox="0 0 261.29862 389.62038"><defs><style>.a,.ap{fill:none;}.aa,.ab,.ac,.ad,.ae,.af,.ag,.ah,.aj,.ap,.aq,.b,.c,.d,.e,.f,.g,.h,.i,.j,.k,.l,.m,.n,.o,.r,.s,.t,.u,.v,.w,.x,.y{stroke:#231f20;stroke-miterlimit:10;}.b{fill:url(#a);}.c{fill:url(#b);}.d{fill:url(#c);}.e{fill:url(#d);}.am,.f{fill:#231f20;}.g{fill:url(#e);}.h{fill:url(#f);}.i{fill:url(#g);}.j{fill:url(#h);}.k{fill:url(#i);}.l{fill:url(#j);}.m{fill:url(#k);}.n{fill:url(#l);}.o{fill:url(#m);}.p{fill:#009444;}.q{fill:url(#n);}.r{fill:url(#o);}.s{fill:url(#p);}.t{fill:url(#q);}.u{fill:url(#r);}.v{fill:url(#s);}.w{fill:url(#t);}.x{fill:url(#u);}.y{fill:url(#v);}.z{fill:url(#w);}.aa{fill:url(#x);}.ab{fill:url(#y);}.ac{fill:url(#z);}.ad{fill:url(#aa);}.ae{fill:url(#ab);}.af{fill:url(#ac);}.ag{fill:url(#ad);}.ah{fill:url(#ae);}.ai{fill:url(#af);}.aj{fill:url(#ag);}.ak{fill:#fff;}.al{clip-path:url(#ah);}.an{fill:url(#ai);}.ao{fill:#f1f2f2;}.aq{fill:url(#aj);}</style><linearGradient id="a" x1="1.09954" y1="355.58388" x2="261.29862" y2="355.58388" gradientUnits="userSpaceOnUse"><stop offset="0" stop-color="#6c6653"/><stop offset="0.47449" stop-color="#b79e72"/><stop offset="1" stop-color="#6c6653"/></linearGradient><linearGradient id="b" x1="1.10126" y1="216.98854" x2="261.2969" y2="216.98854" gradientUnits="userSpaceOnUse"><stop offset="0" stop-color="#808285"/><stop offset="0.00716" stop-color="#898b8e"/><stop offset="0.03635" stop-color="#a8aaac"/><stop offset="0.0694" stop-color="#c4c5c6"/><stop offset="0.10671" stop-color="#dadadb"/><stop offset="0.15029" stop-color="#ebebeb"/><stop offset="0.20421" stop-color="#f6f6f7"/><stop offset="0.27984" stop-color="#fdfdfd"/><stop offset="0.4898" stop-color="#fff"/><stop offset="1" stop-color="#808285"/></linearGradient><linearGradient id="c" x1="0.5" y1="76.5365" x2="260.69908" y2="76.5365" xlink:href="#a"/><linearGradient id="d" x1="1.69908" y1="45.5" x2="260.69908" y2="45.5" xlink:href="#a"/><linearGradient id="e" x1="0.50227" y1="92.32742" x2="260.69679" y2="92.32742" gradientUnits="userSpaceOnUse"><stop offset="0" stop-color="#231f20"/><stop offset="0.55612" stop-color="#58595b"/><stop offset="0.96939" stop-color="#231f20"/></linearGradient><linearGradient id="f" x1="100.69908" y1="207.64696" x2="174.66061" y2="207.64696" gradientUnits="userSpaceOnUse"><stop offset="0" stop-color="#8b0304"/><stop offset="0.9898" stop-color="#ec1c24"/><stop offset="1" stop-color="#e71c23"/><stop offset="1" stop-color="#fff"/></linearGradient><linearGradient id="g" x1="119.18946" y1="207.20497" x2="193.151" y2="207.20497" xlink:href="#f"/><linearGradient id="h" x1="145.69235" y1="205.13762" x2="211.02503" y2="205.13762" gradientUnits="userSpaceOnUse"><stop offset="0" stop-color="#8b0304"/><stop offset="0.7602" stop-color="#e71c23"/><stop offset="0.9898" stop-color="#ec1c24"/><stop offset="1" stop-color="#fff"/></linearGradient><linearGradient id="i" x1="117.8507" y1="159.76103" x2="151.35111" y2="159.76103" gradientUnits="userSpaceOnUse"><stop offset="0" stop-color="#006838"/><stop offset="0.9949" stop-color="#39b54a"/></linearGradient><linearGradient id="j" x1="713.43265" y1="408.30819" x2="744.36741" y2="408.30819" gradientTransform="translate(-656.92026 446.61052) rotate(-48.50578)" xlink:href="#i"/><linearGradient id="k" x1="107.53644" y1="1565.85502" x2="139.11941" y2="1565.85502" gradientTransform="translate(885.05666 1578.67571) rotate(157.68647)" xlink:href="#i"/><linearGradient id="l" x1="279.53621" y1="17.13884" x2="310.95107" y2="17.13884" gradientTransform="matrix(-1.07984, -0.19893, -0.14901, 0.80885, 502.57875, 207.97604)" xlink:href="#i"/><linearGradient id="m" x1="633.48418" y1="1630.0747" x2="659.14847" y2="1630.0747" gradientTransform="matrix(-0.85109, -0.52502, 0.52502, -0.85109, -146.38871, 1909.9239)" xlink:href="#i"/><linearGradient id="n" x1="10.14872" y1="108.33009" x2="10.14872" y2="66.43107" gradientTransform="matrix(1.3422, 0.58178, -0.33468, 0.77213, 176.69356, 80.17164)" gradientUnits="userSpaceOnUse"><stop offset="0" stop-color="#009444"/><stop offset="0.37755" stop-color="#006838"/><stop offset="1" stop-color="#675d3f"/></linearGradient><linearGradient id="o" x1="20.69908" y1="238.64696" x2="94.66061" y2="238.64696" xlink:href="#f"/><linearGradient id="p" x1="39.18946" y1="238.20497" x2="113.151" y2="238.20497" xlink:href="#f"/><linearGradient id="q" x1="65.69235" y1="236.13762" x2="131.02503" y2="236.13762" xlink:href="#h"/><linearGradient id="r" x1="37.8507" y1="190.76103" x2="71.35111" y2="190.76103" xlink:href="#i"/><linearGradient id="s" x1="637.20939" y1="368.92526" x2="668.14416" y2="368.92526" gradientTransform="translate(-656.92026 446.61052) rotate(-48.50578)" xlink:href="#i"/><linearGradient id="t" x1="193.31596" y1="1567.55028" x2="224.89893" y2="1567.55028" gradientTransform="translate(885.05666 1578.67571) rotate(157.68647)" xlink:href="#i"/><linearGradient id="u" x1="346.07457" y1="71.82936" x2="377.48943" y2="71.82936" gradientTransform="matrix(-1.07984, -0.19893, -0.14901, 0.80885, 502.57875, 207.97604)" xlink:href="#i"/><linearGradient id="v" x1="685.29568" y1="1561.68927" x2="710.95998" y2="1561.68927" gradientTransform="matrix(-0.85109, -0.52502, 0.52502, -0.85109, -146.38871, 1909.9239)" xlink:href="#i"/><linearGradient id="w" x1="-31.60007" y1="179.93549" x2="-31.60007" y2="138.03647" xlink:href="#n"/><linearGradient id="x" x1="92.69908" y1="283.64696" x2="166.66061" y2="283.64696" xlink:href="#f"/><linearGradient id="y" x1="111.18946" y1="283.20497" x2="185.151" y2="283.20497" xlink:href="#f"/><linearGradient id="z" x1="137.69235" y1="281.13762" x2="203.02503" y2="281.13762" xlink:href="#h"/><linearGradient id="aa" x1="109.8507" y1="235.76103" x2="143.35111" y2="235.76103" xlink:href="#i"/><linearGradient id="ab" x1="651.20658" y1="452.66939" x2="682.14134" y2="452.66939" gradientTransform="translate(-656.92026 446.61052) rotate(-48.50578)" xlink:href="#i"/><linearGradient id="ac" x1="143.79268" y1="1498.5833" x2="175.37565" y2="1498.5833" gradientTransform="translate(885.05666 1578.67571) rotate(157.68647)" xlink:href="#i"/><linearGradient id="ad" x1="274.16152" y1="109.77766" x2="305.57638" y2="109.77766" gradientTransform="matrix(-1.07984, -0.19893, -0.14901, 0.80885, 502.57875, 207.97604)" xlink:href="#i"/><linearGradient id="ae" x1="600.39131" y1="1561.19174" x2="626.05561" y2="1561.19174" gradientTransform="matrix(-0.85109, -0.52502, 0.52502, -0.85109, -146.38871, 1909.9239)" xlink:href="#i"/><linearGradient id="af" x1="25.79272" y1="194.97206" x2="25.79272" y2="153.07304" xlink:href="#n"/><linearGradient id="ag" x1="1.10182" y1="340.32742" x2="261.29634" y2="340.32742" xlink:href="#e"/><clipPath id="ah"><polygon class="a" points="243.627 223.958 176.55 238.55 176.55 119.634 243.627 105.042 243.627 223.958"/></clipPath><radialGradient id="ai" cx="524.54964" cy="190.80119" r="51.54036" gradientTransform="matrix(0.6732, -0.14645, 0, 1.05623, -142.88972, 59.8383)" gradientUnits="userSpaceOnUse"><stop offset="0" stop-color="#ffde17"/><stop offset="1" stop-color="#f5841f"/></radialGradient><linearGradient id="aj" x1="-466.07964" y1="-494.87226" x2="-375.16863" y2="-494.87226" gradientTransform="matrix(1, 0, -0.42965, 0.52805, 280.22464, 307.81552)" gradientUnits="userSpaceOnUse"><stop offset="0" stop-color="#b79e72"/><stop offset="0.52551" stop-color="#6c6653"/><stop offset="1" stop-color="#b79e72"/></linearGradient></defs><path class="b" d="M2.26189,325.54737a31.99336,31.99336,0,0,0,0,17c17.31972,57.85776,233.62387,65.65888,256.8817,5,3.608-9.4102,2.03266-19.066,0-26"/><path class="c" d="M259.14124,335.67318c-23.25,60.66-239.56,52.85-256.88-5a28.75179,28.75179,0,0,1-1.13-9.43h-.03v-265.01h258.9v256.71C261.53125,319.47317,262.21124,327.66317,259.14124,335.67318Z"/><path class="d" d="M1.66235,46.5a31.99336,31.99336,0,0,0,0,17c17.31972,57.85776,233.62386,65.65887,256.8817,5,3.608-9.4102,2.03265-19.066,0-26"/><ellipse class="e" cx="131.19908" cy="45.5" rx="129.5" ry="45"/><path class="f" d="M259.1418,334.35709c-23.25,60.66-239.56,52.85-256.88-5a28.75214,28.75214,0,0,1-1.13-9.43006h-.03V302.22708a28.54368,28.54368,0,0,0,1.16,8.13c17.32,57.85,233.63,65.66,256.88,5,.39-1.02.72-2.04,1-3.07C261.57179,318.70706,262.11177,326.617,259.1418,334.35709Z"/><path class="g" d="M258.54225,87.35709c-23.25,60.66-239.56,52.85-256.88-5a28.75243,28.75243,0,0,1-1.13-9.43006h-.03V55.22708a28.54335,28.54335,0,0,0,1.16,8.13c17.32,57.85,233.63,65.66,256.88,5,.39-1.02.72-2.04,1-3.07C260.97224,71.70706,261.51222,79.617,258.54225,87.35709Z"/><ellipse class="h" cx="137.67985" cy="207.64696" rx="36.98077" ry="38.93044"/><ellipse class="i" cx="156.17023" cy="207.20497" rx="36.98077" ry="40.47301"/><ellipse class="j" cx="178.35869" cy="205.13762" rx="32.66634" ry="36.42111"/><path class="k" d="M146.43138,176.1591c-6.20809-3.53057-20.27467-5.72293-26.24472-14.71176-4.89971-7.37726-.75319-17.78058.41609-18.07444,1.739-.437,6.54962,13.65741,22.75379,18.07444a38.54015,38.54015,0,0,0,7.99457,1.261"/><path class="l" d="M157.202,178.34441a82.28034,82.28034,0,0,1-34.19705-2.10979c-11.356-3.24065-19.41688-8.38548-18.96319-9.466.67473-1.607,19.34914,7.75736,34.96045.444a27.56943,27.56943,0,0,0,6.69361-4.43673"/><path class="m" d="M157.202,160.03769a78.33615,78.33615,0,0,1,29.68308,15.91359c8.65008,7.56375,13.43848,15.48516,12.51793,16.26873-1.36905,1.16533-13.67617-14.89376-31.15966-14.73185a29.45027,29.45027,0,0,0-8.11455,1.23685"/><path class="n" d="M165.98866,179.21035c7.49017-2.73983,18.24468-7.70585,26.66981-16.503,6.91463-7.21991,9.64826-14.293,8.447-14.83332-1.78652-.80351-10.07241,13.833-28.57463,15.69822a41.95888,41.95888,0,0,1-8.92773-.09133"/><path class="o" d="M162.57855,162.56251a57.255,57.255,0,0,1,3.09987,27.2828c-1.29261,9.43348-4.81048,16.54792-5.865,16.349-1.56824-.29588,4.24624-16.40212-4.73491-27.64a23.01681,23.01681,0,0,0-5.04015-4.62711"/><ellipse class="p" cx="153.0885" cy="170.95702" rx="18.49038" ry="8.24867"/><path class="q" d="M148.91273,167.48984c10.92637-8.74291,12.65623-16.08916,11.90413-21.43743-.47892-3.40561-2.14723-7.3026.28135-8.7483,2.71444-1.61588,9.89469.21885,11.75629,3.31547,2.53947,4.22422-6.73007,7.61671-10.11169,18.61447a26.91433,26.91433,0,0,0-1.09906,9.48247"/><ellipse class="r" cx="57.67985" cy="238.64696" rx="36.98077" ry="38.93044"/><ellipse class="s" cx="76.17023" cy="238.20497" rx="36.98077" ry="40.47301"/><ellipse class="t" cx="98.35869" cy="236.13762" rx="32.66634" ry="36.42111"/><path class="u" d="M66.43138,207.1591c-6.20809-3.53057-20.27467-5.72293-26.24472-14.71176-4.89971-7.37726-.75319-17.78058.41609-18.07444,1.739-.437,6.54962,13.65741,22.75379,18.07444a38.54015,38.54015,0,0,0,7.99457,1.261"/><path class="v" d="M77.202,209.34441a82.28034,82.28034,0,0,1-34.197-2.10979c-11.356-3.24065-19.41688-8.38548-18.96319-9.466.67473-1.607,19.34914,7.75736,34.96045.444a27.56943,27.56943,0,0,0,6.69361-4.43673"/><path class="w" d="M77.202,191.03769a78.33615,78.33615,0,0,1,29.68308,15.91359c8.65008,7.56375,13.43848,15.48516,12.51793,16.26873-1.36905,1.16533-13.67617-14.89376-31.15966-14.73185a29.45027,29.45027,0,0,0-8.11455,1.23685"/><path class="x" d="M85.98866,210.21035c7.49017-2.73983,18.24468-7.70585,26.66981-16.503,6.91463-7.21991,9.64826-14.293,8.447-14.83332-1.78652-.80351-10.07241,13.833-28.57463,15.69822a41.95888,41.95888,0,0,1-8.92773-.09133"/><path class="y" d="M82.57855,193.56251a57.255,57.255,0,0,1,3.09987,27.2828c-1.29261,9.43348-4.81048,16.54792-5.865,16.349-1.56824-.29588,4.24624-16.40212-4.73491-27.64a23.01681,23.01681,0,0,0-5.04015-4.62711"/><ellipse class="p" cx="73.0885" cy="201.95702" rx="18.49038" ry="8.24867"/><path class="z" d="M68.91273,198.48984c10.92637-8.74291,12.65623-16.08916,11.90413-21.43743-.47892-3.40561-2.14723-7.3026.28135-8.7483,2.71444-1.61588,9.89469.21885,11.75629,3.31547,2.53947,4.22422-6.73007,7.61671-10.11169,18.61447a26.91433,26.91433,0,0,0-1.09906,9.48247"/><ellipse class="aa" cx="129.67985" cy="283.64696" rx="36.98077" ry="38.93044"/><ellipse class="ab" cx="148.17023" cy="283.20497" rx="36.98077" ry="40.47301"/><ellipse class="ac" cx="170.35869" cy="281.13762" rx="32.66634" ry="36.42111"/><path class="ad" d="M138.43138,252.1591c-6.20809-3.53057-20.27467-5.72293-26.24472-14.71176-4.89971-7.37726-.75319-17.78058.41609-18.07444,1.739-.437,6.54962,13.65741,22.75379,18.07444a38.54015,38.54015,0,0,0,7.99457,1.261"/><path class="ae" d="M149.202,254.34441a82.28034,82.28034,0,0,1-34.19705-2.10979c-11.356-3.24065-19.41688-8.38548-18.96319-9.466.67473-1.607,19.34914,7.75736,34.96045.444a27.56943,27.56943,0,0,0,6.69361-4.43673"/><path class="af" d="M149.202,236.03769a78.33615,78.33615,0,0,1,29.68308,15.91359c8.65008,7.56375,13.43848,15.48516,12.51793,16.26873-1.36905,1.16533-13.67617-14.89376-31.15966-14.73185a29.45027,29.45027,0,0,0-8.11455,1.23685"/><path class="ag" d="M157.98866,255.21035c7.49017-2.73983,18.24468-7.70585,26.66981-16.503,6.91463-7.21991,9.64826-14.293,8.447-14.83332-1.78652-.80351-10.07241,13.833-28.57463,15.69822a41.95888,41.95888,0,0,1-8.92773-.09133"/><path class="ah" d="M154.57855,238.56251a57.255,57.255,0,0,1,3.09987,27.2828c-1.29261,9.43348-4.81048,16.54792-5.865,16.349-1.56824-.29588,4.24624-16.40212-4.73491-27.64a23.01681,23.01681,0,0,0-5.04015-4.62711"/><ellipse class="p" cx="145.0885" cy="246.95702" rx="18.49038" ry="8.24867"/><path class="ai" d="M140.91273,243.48984c10.92637-8.74291,12.65623-16.08916,11.90413-21.43743-.47892-3.40561-2.14723-7.3026.28135-8.7483,2.71444-1.61588,9.89469.21885,11.75629,3.31547,2.53947,4.22422-6.73007,7.61671-10.11169,18.61447a26.91433,26.91433,0,0,0-1.09906,9.48247"/><path class="aj" d="M259.1418,335.35709c-23.25,60.66-239.56,52.85-256.88-5a28.75214,28.75214,0,0,1-1.13-9.43006h-.03V303.22708a28.54368,28.54368,0,0,0,1.16,8.13c17.32,57.85,233.63,65.66,256.88,5,.39-1.02.72-2.04,1-3.07C261.57179,319.70706,262.11177,327.617,259.1418,335.35709Z"/><polygon class="ak" points="243.627 305.641 176.55 320.233 176.55 122.118 243.627 107.526 243.627 305.641"/><g class="al"><polygon class="am" points="243.627 213.543 176.55 228.135 176.55 119.634 243.627 105.042 243.627 213.543"/><polygon class="am" points="243.627 213.543 176.55 228.135 176.55 119.634 243.627 105.042 243.627 213.543"/><polygon class="an" points="236.198 244.233 184.277 255.528 184.277 124.867 236.198 113.572 236.198 244.233"/><ellipse class="am" cx="211.78956" cy="259.87507" rx="90.20992" ry="72.55267" transform="translate(-122.59411 283.90498) rotate(-54.93151)"/></g><path class="ao" d="M206.582,208.32345l-.03516,12.81055-4.00879.87207V208.25119q0-5.43165-3.69238-4.62793l-3.02441.65722-.9502,4.72168,3.12988-.68066v3.915l-3.833.834a2.78726,2.78726,0,0,1-2.33789-.4082,2.37953,2.37953,0,0,1-.96778-2.04785,4.57829,4.57829,0,0,1,.03516-.57227l1.51269-8.93457,6.7168-1.46094Q206.58155,198.02512,206.582,208.32345Z"/><path class="ao" d="M229.93262,205.32443q0,3.42188-3.40527,6.27832a14.88922,14.88922,0,0,1-6.56445,3.29785,10.61559,10.61559,0,0,1-6.53028-.44922,4.89918,4.89918,0,0,1-3.40429-4.79687V197.2756l4.00879-.87305v11.88672a3.31276,3.31276,0,0,0,.07031.7959q3.86718-1.79444,3.86816-4.68652v-8.85254l4.00879-.87207v9.34668q0,4.22167-5.03808,7.33789a10.63477,10.63477,0,0,0,2.88671-.34571,9.98634,9.98634,0,0,0,4.48829-2.0166,4.22571,4.22571,0,0,0,1.60156-3.293V193.81759l4.00976-.87207Z"/><path class="ao" d="M190.834,187.96408q.99609-.26661,1.78613-.43848a7.60373,7.60373,0,0,1,1.31153-.18848,3.55887,3.55887,0,0,1,.97851.09766,1.88112,1.88112,0,0,1,.76758.38184,2.29886,2.29886,0,0,1,.66211,1.82519v6.41895l-1.18066.25683V189.884q0-1.90429-2.5459-1.35059-.769.167-1.7793.43653Z"/><path class="ao" d="M203.80665,186.85372a1.346,1.346,0,0,0-.64453-.415,1.87439,1.87439,0,0,0-.96289-.00489,6.70807,6.70807,0,0,0-.98829.28711v-.9707a5.34116,5.34116,0,0,1,1.01368-.31348,3.39856,3.39856,0,0,1,1.10839-.06933,2.19369,2.19369,0,0,1,.94922.33789,2.4738,2.4738,0,0,1,.74024.76367,5.49438,5.49438,0,0,1,.65429,2.96,8.36325,8.36325,0,0,1-.18554,1.80566,5.85915,5.85915,0,0,1-.50781,1.45118,4.77089,4.77089,0,0,1-.7793,1.08984,4.03308,4.03308,0,0,1-.98047.75879,4.21194,4.21194,0,0,1-1.124.416,3.49547,3.49547,0,0,1-1.124.07325,2.36971,2.36971,0,0,1-.98144-.332,2.51885,2.51885,0,0,1-.77832-.751,3.79582,3.79582,0,0,1-.50879-1.22949,7.31227,7.31227,0,0,1-.18457-1.72657V186.385l1.22265-.2666V190.719a5.40991,5.40991,0,0,0,.47754,2.47168,1.46111,1.46111,0,0,0,.73145.707,1.7346,1.7346,0,0,0,1.08105.0752,2.72526,2.72526,0,0,0,1.02149-.43262,2.58862,2.58862,0,0,0,.6748-.707,3.76525,3.76525,0,0,0,.42285-.94043,7.40821,7.40821,0,0,0,.292-2.19629q0-.61963-.04981-1.11231a4.83085,4.83085,0,0,0-.19922-.96679A2.25048,2.25048,0,0,0,203.80665,186.85372Z"/><path class="ao" d="M210.56153,183.62326a2.6577,2.6577,0,0,1,2.61328.60742,4.68669,4.68669,0,0,1,.96387,3.35742,8.36427,8.36427,0,0,1-.18457,1.80566,5.80536,5.80536,0,0,1-.50879,1.45118,4.79743,4.79743,0,0,1-.77832,1.08984,4.04315,4.04315,0,0,1-.98145.75879,4.21181,4.21181,0,0,1-1.124.416,3.51912,3.51912,0,0,1-1.12305.07325,2.369,2.369,0,0,1-.98242-.332,2.54018,2.54018,0,0,1-.77832-.751,3.79284,3.79284,0,0,1-.50879-1.23047,7.29276,7.29276,0,0,1-.18359-1.72461,7.99922,7.99922,0,0,1,.30078-2.32324,5.06237,5.06237,0,0,1,.751-1.5791l-.91016.25488V184.4924Q208.627,184.04416,210.56153,183.62326Zm-2.08008,3.127a8.37835,8.37835,0,0,0-.16308,3.498,3.90831,3.90831,0,0,0,.36621,1.10449,1.46687,1.46687,0,0,0,.73144.7041,1.85686,1.85686,0,0,0,1.14551.06152,2.54425,2.54425,0,0,0,1.14551-.55957,2.73486,2.73486,0,0,0,.73242-1.02636,6.889,6.889,0,0,0,.47656-2.67872,4.3231,4.3231,0,0,0-.68359-2.81835,1.38191,1.38191,0,0,0-.68262-.4043,2.05892,2.05892,0,0,0-.98828.00488l-1.27344.291A5.05811,5.05811,0,0,0,208.48145,186.75021Z"/><path class="ao" d="M222.21094,181.23165v2.98926a9.345,9.345,0,0,1-.0498,1.01953,5.18273,5.18273,0,0,1-.206.94043,2.95985,2.95985,0,0,1-1.3584,1.65723l1.7705,2.56055-1.33007.28906-2.23926-3.35742-1.08106-1.39063a1.90679,1.90679,0,0,0-.41211.30371,2.7332,2.7332,0,0,0-.67578,1.98731v3.416l-1.18066.25684v-2.98828a5.16488,5.16488,0,0,1,.46191-2.41895,3.05908,3.05908,0,0,1,.51563-.68554,3.3678,3.3678,0,0,1,.793-.59668l-1.76367-2.5127,1.33691-.291,2.10449,3.10156,1.18848,1.58886a2.57406,2.57406,0,0,0,.53613-.55859,2.47724,2.47724,0,0,0,.292-.68457,3.529,3.529,0,0,0,.11719-.95215v-3.417Z"/><path class="ao" d="M227.97071,179.83615a2.07971,2.07971,0,0,1,2.0166.375,2.84748,2.84748,0,0,1,.67188,2.09277v6.291l-3.12891.68066v-.91992l1.94824-.42383v-5.32129q0-2.10351-1.91992-1.68652a2.27987,2.27987,0,0,0-.6582.26074,2.83542,2.83542,0,0,0-.54395.40039,4.67067,4.67067,0,0,0-.66113.77246l-.085.13086-.67578,7.35156-1.18848.25879.66895-7.2207v-.15723a4.7404,4.7404,0,0,0-.09961-.63476,3.51529,3.51529,0,0,0-.24805-.81641l-.18555-.40234,1.1875-.25782a2.66069,2.66069,0,0,1,.32715.89942l.04981-.01074a4.26822,4.26822,0,0,1,.88867-.9209,4.51835,4.51835,0,0,1,.71094-.418A3.99723,3.99723,0,0,1,227.97071,179.83615Z"/><path class="am" d="M219.27537,135.45532c0,4.02632-3.96984,11.11277-8.86689,12.17807s-8.86688-4.294-8.86688-8.3203,3.96984-15.41159,8.86688-16.47689S219.27537,131.429,219.27537,135.45532Z"/><path class="am" d="M211.09982,164.13808a146.55154,146.55154,0,0,0,.65361,15.62114l-4.25025.92459c.74775-5.39873,1.56476-10.95644,1.80632-15.94651a70.43852,70.43852,0,0,0-1.25394-16.896q-.37566-1.94151-.8863-4.016l5.56459,1.03549q-.14118.9011-.28595,1.91933A137.66784,137.66784,0,0,0,211.09982,164.13808Z"/><path class="am" d="M234.78962,122.36229,227.049,150.54358c-.29956,1.09063-1.58951,1.43065-1.9108.49987a24.95751,24.95751,0,0,1-.89043-11.76955,31.74727,31.74727,0,0,1,9.03052-17.84159C234.077,120.65532,235.08734,121.27836,234.78962,122.36229Z"/><path class="am" d="M223.21586,165.39284c-1.11437,5.54442-1.82557,10.622-2.32988,15.1482l-3.5013-.01075c1.56875-5.02931,3.22074-10.19672,4.31817-14.94044a83.97912,83.97912,0,0,0,2.09108-16.5002q.0587-1.945.03572-4.04633l4.17534,2.17219q-.2747.836-.57349,1.78373A159.59534,159.59534,0,0,0,223.21586,165.39284Z"/><polygon class="am" points="192.585 149.205 191.335 149.69 190.084 150.176 188.954 139.989 187.824 129.802 190.204 139.503 192.585 149.205"/><polygon class="am" points="197.007 147.478 195.756 147.964 194.506 148.45 193.376 138.263 192.245 128.076 194.626 137.777 197.007 147.478"/><polygon class="am" points="194.767 148.339 193.516 148.825 192.266 149.311 191.136 139.124 190.006 128.937 192.386 138.638 194.767 148.339"/><polygon class="am" points="199.121 146.677 197.871 147.163 196.62 147.648 195.49 137.461 194.36 127.274 196.74 136.975 199.121 146.677"/><polygon class="am" points="196.694 155.984 193.376 153.055 190.057 150.125 194.634 148.288 199.212 146.451 197.953 151.217 196.694 155.984"/><path class="am" d="M200.36462,166.76474c1.22385,4.87766,2.60053,9.22394,3.935,13.04771l-2.90038,1.35721c-.64865-4.64214-1.28189-9.42741-2.20989-13.65683a72.5669,72.5669,0,0,0-4.65571-14.038q-.70416-1.58151-1.53635-3.25641l4.2944.1119c.0642.518.136,1.07011.21591,1.65308A137.98184,137.98184,0,0,0,200.36462,166.76474Z"/><polygon class="am" points="243.627 257.465 176.55 272.057 176.55 239.631 243.627 225.039 243.627 257.465"/><path class="ao" d="M188.87305,250.07736a2.58151,2.58151,0,0,1-.62988.04785V249.26q.46-.03662.50977-.04687a1.12834,1.12834,0,0,0,.90136-1.27051v-5.38672l-.88769.27539v-.89062a30.50759,30.50759,0,0,1,3.07226-.8711,4.199,4.199,0,0,1,1.88965-.0498,1.52845,1.52845,0,0,1,1.1084.9834,2.704,2.704,0,0,1,.15723.9707v5.6836l-1.05176.22851v-5.69629q0-1.6875-2.248-1.19726-.27686.06006-.99414.2539v5.32324a2.82919,2.82919,0,0,1-.45508,1.65235A2.1386,2.1386,0,0,1,188.87305,250.07736Z"/><path class="ao" d="M198.01563,247.99923l-1.04492.22754v-8.14746l1.04492-.22754Z"/><path class="ao" d="M199.94923,244.8254v-5.39355l1.04492-.22754v4.32031l-.83106,1.25391Z"/><path class="ao" d="M204.11817,239.24533a3.51971,3.51971,0,0,0-.76758.28027v-.82715a5.04054,5.04054,0,0,1,1.127-.37793q1.96435-.42772,1.96484,1.73828V244.177a9.02145,9.02145,0,0,1-.05957,1.02441,6.69942,6.69942,0,0,1-.12305.76465l-.06347.25391-3.74024.81347V246.219l2.8086-.61035a4.99676,4.99676,0,0,0,.126-1.20215v-4.0293a1.29459,1.29459,0,0,0-.32715-1.02929A1.11289,1.11289,0,0,0,204.11817,239.24533Z"/><path class="ao" d="M208.05372,237.63693q1.00781-.31349,2.36133-.6084a2.5769,2.5769,0,0,1,2.00293.15527,2.147,2.147,0,0,1,.64843,1.8584v4.86914l.92578-.20215v.81446l-5.93847,1.292v-.81445l3.96679-.86231V239.257q0-.97264-.4375-1.23535a1.90891,1.90891,0,0,0-1.35058-.0625q-.97705.2124-1.85742.47364l-.32129.09472Z"/><path class="ao" d="M216.39747,236.57443a3.4527,3.4527,0,0,0-.76758.28027v-.82715a5.04045,5.04045,0,0,1,1.127-.37793q1.96435-.42772,1.96485,1.73828v6.10743l-.86328.1875-.11915-1.35059-.05078.01074a2.95682,2.95682,0,0,1-.14746.29785c-.07812.14258-.15429.26954-.23047.38086a3.92611,3.92611,0,0,1-.29589.377,3.6709,3.6709,0,0,1-.37989.37988,2.61006,2.61006,0,0,1-.46679.31348,2.11647,2.11647,0,0,1-.55079.20507,3.50858,3.50858,0,0,1-.88183.10938l.15039-.99317a3.20844,3.20844,0,0,0,.86328-.10546,2.05925,2.05925,0,0,0,.93848-.57032,3.28883,3.28883,0,0,0,.98925-2.3623v-2.6709a1.26382,1.26382,0,0,0-.334-1.02734A1.12191,1.12191,0,0,0,216.39747,236.57443Z"/><path class="ao" d="M221.76954,234.68478l.96875,3.46484q.17724.7705.75586,3.22168a4.73262,4.73262,0,0,0,2.10351-3.96386l.31446-3.61719,1.04492-.22754-.30762,3.61621a7.51258,7.51258,0,0,1-.2373,1.44434,6.60621,6.60621,0,0,1-.36133,1.02246,5.72543,5.72543,0,0,1-.51074.85644,5.0155,5.0155,0,0,1-.73243.8291,6.37046,6.37046,0,0,1-1.01464.73243,7.5282,7.5282,0,0,1-1.33106.61816l-2.33008.835v-.82715l2.46192-.9209-1.90723-6.84863Z"/><path class="ao" d="M188.87305,265.59884a2.581,2.581,0,0,1-.62988.04785v-.86523q.46-.03663.50977-.04688a1.12833,1.12833,0,0,0,.90136-1.2705v-5.38672l-.88769.27539v-.89063a30.50726,30.50726,0,0,1,3.07226-.87109,4.199,4.199,0,0,1,1.88965-.04981,1.52847,1.52847,0,0,1,1.1084.9834,2.70412,2.70412,0,0,1,.15723.97071v5.68359l-1.05176.22852v-5.69629q0-1.6875-2.248-1.19727-.27686.06006-.99414.25391V263.091a2.82916,2.82916,0,0,1-.45508,1.65234A2.13856,2.13856,0,0,1,188.87305,265.59884Z"/><path class="ao" d="M198.01563,263.52072l-1.04492.22754v-8.14747l1.04492-.22753Z"/><path class="ao" d="M204.124,261.97775v.21484l-1.03906.22559v-.21485a5.81772,5.81772,0,0,1,.208-1.29882q.208-.8379.30273-1.19922.18164-.74121.46582-1.74317l.90039-3.291-4.93066,1.07324v-.80859l5.97558-1.30079v.8086l-.94433,3.42676q-.16407.61669-.27051,1.01562-.10693.3999-.21484.81152-.10694.41163-.17579.71-.06883.29881-.13867.624A5.1888,5.1888,0,0,0,204.124,261.97775Zm-3.04785,3.99121-1.03906.22558v-7.98242l1.03906-.22558Z"/><path class="ao" d="M210.1377,252.61056a2.35814,2.35814,0,0,1,2.31543.53809,4.14918,4.14918,0,0,1,.85254,2.97265,7.37384,7.37384,0,0,1-.16406,1.59864,5.144,5.144,0,0,1-.4502,1.28515,4.17021,4.17021,0,0,1-.68945.96485,3.51375,3.51375,0,0,1-.86914.67187,3.66839,3.66839,0,0,1-.99512.36816,3.09768,3.09768,0,0,1-.99414.06543,2.07815,2.07815,0,0,1-.86914-.29492,2.22842,2.22842,0,0,1-.68945-.66406,3.31476,3.31476,0,0,1-.4502-1.08984,6.42,6.42,0,0,1-.16406-1.52637,7.05782,7.05782,0,0,1,.26855-2.05762,4.443,4.443,0,0,1,.66407-1.39844l-.80664.22657v-.89063Q208.4253,252.98312,210.1377,252.61056Zm-1.84179,2.76856a7.47729,7.47729,0,0,0-.24219,1.7705,7.57942,7.57942,0,0,0,.09765,1.32813,3.51986,3.51986,0,0,0,.32422.97754,1.29559,1.29559,0,0,0,.64844.623,1.63962,1.63962,0,0,0,1.01367.05371,2.23479,2.23479,0,0,0,1.01465-.49511,2.4206,2.4206,0,0,0,.64844-.90821,6.08348,6.08348,0,0,0,.42187-2.37109,3.83764,3.83764,0,0,0-.60449-2.49707,1.22446,1.22446,0,0,0-.60449-.35742,1.82906,1.82906,0,0,0-.876.0039l-1.12695.25782A4.47691,4.47691,0,0,0,208.29591,255.37912Z"/><path class="ao" d="M215.93751,259.62228l-1.04492.22754v-8.14746l1.04492-.22754Z"/><path class="ao" d="M217.2168,251.11447q.88183-.23585,1.58008-.3877a6.74,6.74,0,0,1,1.16211-.168,3.09645,3.09645,0,0,1,.86524.08789,1.64828,1.64828,0,0,1,.68066.33789,2.03409,2.03409,0,0,1,.585,1.61621v5.6836l-1.04492.22656v-5.69629q0-1.6875-2.25391-1.19531-.68115.14795-1.57422.38574Z"/><path class="ao" d="M227.43653,248.84787a1.843,1.843,0,0,1,1.78516.33105,2.52419,2.52419,0,0,1,.59472,1.85449v5.57031l-2.7705.60254v-.81445l1.72558-.376v-4.71191q0-1.86328-1.70019-1.49316a1.98048,1.98048,0,0,0-.582.23144,2.44058,2.44058,0,0,0-.48242.35449,4.17946,4.17946,0,0,0-.58593.6836l-.0752.11621-.59863,6.50976-1.05176.22852.5918-6.39356v-.13964a4.03265,4.03265,0,0,0-.08789-.56153,3.05539,3.05539,0,0,0-.21973-.72265l-.16406-.35645,1.05175-.22851a2.36128,2.36128,0,0,1,.28907.79589l.04394-.00879a3.78284,3.78284,0,0,1,.78809-.8164,4.13758,4.13758,0,0,1,.6289-.37012A3.55954,3.55954,0,0,1,227.43653,248.84787Z"/><polygon class="am" points="243.834 281.912 176.758 296.504 176.758 273.307 243.834 258.716 243.834 281.912"/><path class="ao" d="M186.45606,281.15841V276.094a25.105,25.105,0,0,1,2.43262-.63477q2.75537-.60058,2.75586.79v3.78125Zm4.27539-1.43847V276.5422a.63831.63831,0,0,0-.11523-.39941.60106.60106,0,0,0-.29-.21,1.33351,1.33351,0,0,0-.45313-.05079,4.04274,4.04274,0,0,0-.52246.04688c-.16113.02637-.34863.06152-.56152.1084-.44727.09668-.85254.19629-1.21582.29492l-.20313.05664v4.0625Z"/><path class="ao" d="M193.30079,277.94943v-3.3711l.91308-.19921v2.70019l-.72558.8291Z"/><path class="ao" d="M195.22071,274.10861q.7705-.19484,1.38086-.32813a8.24681,8.24681,0,0,1,1.01562-.167,3.73365,3.73365,0,0,1,.75586.00684,1.64056,1.64056,0,0,1,.59473.1748,1.029,1.029,0,0,1,.51074.97852v3.55273l-.91308.19824v-3.56054q0-1.05323-1.96973-.625-.59327.12889-1.375.32617Z"/><path class="ao" d="M204.14942,272.13888a2.074,2.074,0,0,1,1.55957.11133,1.239,1.239,0,0,1,.52051,1.126v3.48144l-2.4209.52637v-.50879l1.50781-.32813v-2.94531q0-1.16455-1.48632-.84082a2.29935,2.29935,0,0,0-.50879.17676,2.49661,2.49661,0,0,0-.4209.24609,3.39633,3.39633,0,0,0-.51074.459l-.06641.07812-.52246,4.09961-.91895.2002.5166-4.02832v-.08692a1.83244,1.83244,0,0,0-.07714-.3457,1.47679,1.47679,0,0,0-.19141-.44043l-.14355-.21289.918-.2002a1.13633,1.13633,0,0,1,.25391.48243l.03809-.00879a3.24868,3.24868,0,0,1,.68847-.55274,4.37753,4.37753,0,0,1,.54981-.26562A4.22929,4.22929,0,0,1,204.14942,272.13888Z"/><path class="ao" d="M208.87012,276.28244l-.91406.19921v-5.09179l.91406-.19922Z"/><path class="ao" d="M210.62989,275.89962v-5.11133q1.28321-.33837,2.43262-.58789a5.14451,5.14451,0,0,1,1.65039-.13476,1.17963,1.17963,0,0,1,.96777.55566,1.20719,1.20719,0,0,1,.1377.59766v3.55273l-.91309.19825v-3.56055q0-1.05322-1.96973-.625l-1.3916.33789v4.5791Z"/><path class="ao" d="M225.33106,267.61056v1.65332a3.58117,3.58117,0,0,1-.03808.56641,2.31757,2.31757,0,0,1-.15918.53125,2.07123,2.07123,0,0,1-1.05079.98242l1.36915,1.332-1.02832.22363-1.73243-1.751-.83593-.71778a1.74131,1.74131,0,0,0-.32032.1875,1.37658,1.37658,0,0,0-.52246,1.13282v1.89062l-.91308.19824v-1.65429a2.28849,2.28849,0,0,1,.35742-1.36036,2.11526,2.11526,0,0,1,.39844-.40527,3.00614,3.00614,0,0,1,.61425-.36719l-1.36523-1.30566,1.03516-.22559,1.6289,1.61524.918.82324a1.97364,1.97364,0,0,0,.416-.33594,1.271,1.271,0,0,0,.22461-.39258,1.45245,1.45245,0,0,0,.09082-.53222V267.8088Z"/><path class="ao" d="M227.25684,267.19162l3.73535-.8125v.50878l-.95117,2.81153-.57324,2.10254-.92383.20117.57227-2.10254.96289-2.81445-3.73535.8125v-1.55078l.91308-.19825Z"/><path class="ao" d="M232.6211,266.02462l3.73438-.8125v.50879l-.95118,2.8125L234.832,270.635l-.92383.20118.57129-2.10157.96289-2.81543-3.73438.8125v-1.55078l.91309-.19824Z"/><path class="ao" d="M193.83106,289.25607v-5.06445a25.04424,25.04424,0,0,1,2.43164-.63575q2.75538-.59912,2.75586.79v3.78125Zm4.27442-1.43945v-3.17774a.63832.63832,0,0,0-.11524-.39941.60475.60475,0,0,0-.28906-.21,1.33672,1.33672,0,0,0-.45313-.05079,4.04224,4.04224,0,0,0-.52343.04688q-.24171.03956-.56055.1084-.67236.14648-1.21582.2959l-.20313.05566v4.0625Z"/><path class="ao" d="M200.67579,286.04611V282.675l.91308-.19824V285.176l-.72656.8291Z"/><path class="ao" d="M202.59571,282.20529q.769-.19484,1.38086-.32715a8.08009,8.08009,0,0,1,1.01465-.167,3.73507,3.73507,0,0,1,.75586.00586,1.62865,1.62865,0,0,1,.59472.17578,1.02736,1.02736,0,0,1,.51172.97754v3.55273l-.91308.19824v-3.56054q0-1.05323-1.96973-.625-.59472.12889-1.375.32617Z"/><path class="ao" d="M211.52442,280.23556a2.07463,2.07463,0,0,1,1.55957.11133,1.24051,1.24051,0,0,1,.51953,1.126v3.48144l-2.4209.52637v-.50879l1.50782-.32715v-2.94531q0-1.166-1.48535-.8418a2.29935,2.29935,0,0,0-.50879.17676,2.39511,2.39511,0,0,0-.4209.24707,3.4113,3.4113,0,0,0-.51172.459l-.06543.07715-.52344,4.10059-.91894.19922.51757-4.02832v-.08692a1.92026,1.92026,0,0,0-.07714-.3457,1.48735,1.48735,0,0,0-.19239-.44043l-.14257-.21289.918-.2002a1.15819,1.15819,0,0,1,.25391.48243l.03809-.00879a3.2422,3.2422,0,0,1,.6875-.55274,4.3218,4.3218,0,0,1,.5498-.26465A4.18273,4.18273,0,0,1,211.52442,280.23556Z"/><path class="ao" d="M218.10352,283.467a3.69469,3.69469,0,0,0,1.86914-.98829,3.25559,3.25559,0,0,0,.89844-1.97558l.28027-2.27832.90918-.19824-.2705,2.27636a3.60973,3.60973,0,0,1-.22559.96,4.48,4.48,0,0,1-.35156.72364,3.72337,3.72337,0,0,1-.48242.60351,4.19376,4.19376,0,0,1-.67286.57032,5.18961,5.18961,0,0,1-.916.48046,6.8835,6.8835,0,0,1-1.18555.36719l-2.35547.51172-.58886-4.96387.9248-.20117.33008,2.77442.73144-.333a1.58669,1.58669,0,0,0,.97461-1.3086l.21387-1.62207.91406-.19824-.18164,1.377a4.48647,4.48647,0,0,1-.09961.50489,2.417,2.417,0,0,1-.19824.49121,2.28556,2.28556,0,0,1-.333.47949,2.77638,2.77638,0,0,1-.51465.43164,3.90833,3.90833,0,0,1-.73632.38086l-.71582.29492.14355,1.19629Z"/><path class="ao" d="M226.38477,277.00314a2.08,2.08,0,0,1,1.55957.11035,1.24224,1.24224,0,0,1,.51953,1.12695v3.48145l-2.42089.52637v-.50879l1.50781-.32813V278.466q0-1.16456-1.48535-.84082a2.29574,2.29574,0,0,0-.50879.17578,2.52327,2.52327,0,0,0-.4209.24707,3.46577,3.46577,0,0,0-.51172.459l-.06543.07813-.52344,4.09961-.91894.20019.51758-4.02832v-.08691a1.832,1.832,0,0,0-.07715-.3457,1.45166,1.45166,0,0,0-.19239-.44043l-.14257-.21289.918-.2002a1.15832,1.15832,0,0,1,.2539.48242l.03809-.00879a3.183,3.183,0,0,1,.6875-.55273,4.51726,4.51726,0,0,1,.5498-.26563A4.26827,4.26827,0,0,1,226.38477,277.00314Z"/><polygon class="am" points="243.834 306.972 176.758 321.564 176.758 298.368 243.834 283.776 243.834 306.972"/><path class="ao" d="M187.08887,306.13693a3.16178,3.16178,0,0,1-.5498.06445v-.541c.26758-.03125.416-.05079.44629-.05665q.78516-.17138.78613-.84179v-3.36719l-.77637.21875v-.55664q1.53516-.46,2.68555-.71a5.13648,5.13648,0,0,1,1.64942-.13379,1.183,1.183,0,0,1,.96875.55566,1.20084,1.20084,0,0,1,.13769.59668v3.55274l-.91894.20019v-3.56054q0-1.05323-1.96387-.626c-.16113.03418-.45117.10547-.86914.21191v3.32813a1.50652,1.50652,0,0,1-.39649,1.05664A2.2108,2.2108,0,0,1,187.08887,306.13693Z"/><path class="ao" d="M193.79005,301.27267a1.6642,1.6642,0,0,1,.23339-.83984,2.443,2.443,0,0,1,.61915-.709,4.56981,4.56981,0,0,1,1.80468-.84863,3.867,3.867,0,0,1,.88574-.09766,2.29511,2.29511,0,0,1,.75977.13574,1.59288,1.59288,0,0,1,.99609,1.03614,2.89494,2.89494,0,0,1,.14161.94531,3.51067,3.51067,0,0,1-.14161,1.00781,2.8845,2.8845,0,0,1-.39453.82715,3.19409,3.19409,0,0,1-.60156.64258,3.88833,3.88833,0,0,1-1.62891.749q-.936.20361-1.79394.31153l-.27442.03222v-.56445c.00293.001.09375-.00781.26954-.02734a17.75763,17.75763,0,0,0,1.79394-.29981,2.59606,2.59606,0,0,0,.74219-.27734,1.94218,1.94218,0,0,0,.52539-.42481,2.162,2.162,0,0,0,.332-.542,3.09977,3.09977,0,0,0,.22656-1.22949,2.18115,2.18115,0,0,0-.36914-1.34375.96923.96923,0,0,0-.5664-.35645,1.81359,1.81359,0,0,0-.82813.00782,3.7613,3.7613,0,0,0-.78418.25195,2.2551,2.2551,0,0,0-.52441.32324,1.81107,1.81107,0,0,0-.334.37012,1.31844,1.31844,0,0,0-.24707.73633.78181.78181,0,0,0,.332.72949,1.82071,1.82071,0,0,0,1.05372.13867l.24218-.02148-.14843.51757-.209.02539a2.64182,2.64182,0,0,1-1.53711-.17968A1.06167,1.06167,0,0,1,193.79005,301.27267Z"/><path class="ao" d="M203.01075,297.44747a2.59768,2.59768,0,0,1,2.02148.21094,2.00736,2.00736,0,0,1,.7461,1.81153,3.4721,3.4721,0,0,1-.14258,1.00781,2.89089,2.89089,0,0,1-.39453.82812,3.15926,3.15926,0,0,1-.60156.64063,3.52545,3.52545,0,0,1-.75977.46679,4.41951,4.41951,0,0,1-.86914.28418,3.8085,3.8085,0,0,1-.86914.09375,2.26021,2.26021,0,0,1-.75879-.13671,1.65567,1.65567,0,0,1-.60254-.37793,1.67927,1.67927,0,0,1-.39355-.65723,2.84564,2.84564,0,0,1-.14356-.94531,3.37421,3.37421,0,0,1,.2334-1.29981,2.79923,2.79923,0,0,1,.582-.91015l-.70508.18554V298.093Q201.51515,297.77219,203.01075,297.44747Zm-1.60938,1.83008a3.55871,3.55871,0,0,0-.21191,1.11914,3.41992,3.41992,0,0,0,.085.82422,1.67273,1.67273,0,0,0,.28418.59375.97147.97147,0,0,0,.56641.35449,1.986,1.986,0,0,0,.88574-.0205,2.50389,2.50389,0,0,0,.88672-.36524,1.7911,1.7911,0,0,0,.56543-.60254,2.989,2.989,0,0,0,.36914-1.50488,1.80845,1.80845,0,0,0-.52832-1.52734,1.13874,1.13874,0,0,0-.52832-.19141,2.23085,2.23085,0,0,0-.76465.05078l-.98535.22168A2.72572,2.72572,0,0,0,201.40137,299.27755Z"/><path class="ao" d="M208.07813,301.51583l-.91406.19922v-5.09179l.91406-.19922Z"/><path class="ao" d="M209.89356,301.176a3.16081,3.16081,0,0,1-.5498.06445v-.541c.26758-.03125.416-.05078.44531-.05664q.78661-.17139.78711-.8418V296.4338l-.77637.21875v-.55664q1.53516-.46,2.68555-.71a5.13644,5.13644,0,0,1,1.64941-.13379,1.183,1.183,0,0,1,.96875.55567,1.20068,1.20068,0,0,1,.1377.59668v3.55273l-.91895.2002v-3.56055q0-1.05322-1.96386-.626c-.16114.03418-.45118.10547-.86915.21192V299.511a1.50649,1.50649,0,0,1-.39648,1.05664A2.2108,2.2108,0,0,1,209.89356,301.176Z"/><path class="ao" d="M224.75294,292.79611v1.65332a3.71385,3.71385,0,0,1-.03809.56738,2.31006,2.31006,0,0,1-.15918.53027,2.06335,2.06335,0,0,1-1.05078.98243l1.36914,1.332-1.02832.22461-1.7334-1.751-.83594-.71777a1.6727,1.6727,0,0,0-.31933.1875,1.37384,1.37384,0,0,0-.52246,1.13281v1.89062l-.91407.19825v-1.6543a2.28638,2.28638,0,0,1,.3584-1.36035,2.06028,2.06028,0,0,1,.39844-.40528,2.96242,2.96242,0,0,1,.61426-.36718l-1.36524-1.30567,1.03516-.22558,1.62891,1.61523.918.82324a1.97328,1.97328,0,0,0,.416-.33593,1.30278,1.30278,0,0,0,.22461-.39258,1.45615,1.45615,0,0,0,.09082-.53223v-1.89062Z"/><path class="ao" d="M226.67872,292.37716l3.73535-.8125v.50879l-.95215,2.8125-.57226,2.10254-.92383.20117.57226-2.10254.96192-2.81445-3.73438.8125v-1.55078l.91309-.19922Z"/><path class="ao" d="M232.044,291.21017l3.73438-.8125v.50879l-.95117,2.8125-.57227,2.10254-.92383.20117.57129-2.10254.96289-2.81445-3.73535.8125V290.3674l.91406-.19922Z"/><path class="ao" d="M201.51954,307.50021c.51367-.13086.97363-.23926,1.38086-.32813a8.3059,8.3059,0,0,1,1.01562-.167,3.73189,3.73189,0,0,1,.75586.00684,1.616,1.616,0,0,1,.59473.1748,1.02737,1.02737,0,0,1,.51172.97754V311.717l-.91407.19921v-3.56054q0-1.05322-1.96875-.625-.59472.12891-1.376.32617Z"/><path class="ao" d="M207.67872,306.18869a7.18474,7.18474,0,0,1,.86621-.24415,4.32245,4.32245,0,0,1,.85351-.10644,2.48328,2.48328,0,0,1,.66211.06641,1.6907,1.6907,0,0,1,.48438.21,1.3769,1.3769,0,0,1,.34082.30566,1.60572,1.60572,0,0,1,.21191.37012,1.88419,1.88419,0,0,1,.14942.75293v.86426a2.52891,2.52891,0,0,1-.06153.52539,2.55739,2.55739,0,0,1-.15625.5039,2.82484,2.82484,0,0,1-.30273.49707,2.68706,2.68706,0,0,1-.4834.50489,3.72269,3.72269,0,0,1-.72949.43261,4.54893,4.54893,0,0,1-.95215.31934q-.501.10986-.88281.15625a4.10738,4.10738,0,0,1-.542.04394l-.15332-.00293v-.59179a7.02456,7.02456,0,0,0,1.57812-.17774,2.86029,2.86029,0,0,0,.60742-.20117,2.16009,2.16009,0,0,0,.45117-.27441,1.87489,1.87489,0,0,0,.31739-.3291,1.80962,1.80962,0,0,0,.209-.34571,2.01336,2.01336,0,0,0,.11524-.33691,2.039,2.039,0,0,0,.07128-.53711v-.77344a1.76372,1.76372,0,0,0-.15429-.80273,1.08308,1.08308,0,0,0-.2002-.26758.89705.89705,0,0,0-.3164-.208,1.49819,1.49819,0,0,0-.47071-.083,2.798,2.798,0,0,0-.69336.0752,7.2129,7.2129,0,0,0-.79492.22265,4.37542,4.37542,0,0,0-.55566.22168l-.16406.08692v-.584c.04-.02441.09765-.05566.1748-.09277C207.23634,306.34982,207.40821,306.28341,207.67872,306.18869Z"/><path class="ao" d="M213.55176,310.0256l-.91406.19922V305.133l.91406-.19922Z"/><path class="ao" d="M217.70509,303.95138a2.60094,2.60094,0,0,1,2.02148.21191,2.004,2.004,0,0,1,.74609,1.81153,3.47244,3.47244,0,0,1-.14257,1.00781,2.90361,2.90361,0,0,1-.39454.82813,3.18474,3.18474,0,0,1-.60156.64062,3.516,3.516,0,0,1-.75976.4668,4.31487,4.31487,0,0,1-.86914.2832,3.75894,3.75894,0,0,1-.86915.09473,2.285,2.285,0,0,1-.75878-.13672,1.58846,1.58846,0,0,1-.9961-1.03516,2.85,2.85,0,0,1-.14355-.94531,3.3556,3.3556,0,0,1,.23437-1.2998,2.797,2.797,0,0,1,.58106-.91114l-.7041.18555v-.55664Q216.209,304.27756,217.70509,303.95138Zm-1.60938,1.83106a3.54994,3.54994,0,0,0-.21094,1.11914,3.42459,3.42459,0,0,0,.084.82421,1.68862,1.68862,0,0,0,.28418.59375.98423.98423,0,0,0,.5664.3545,1.97368,1.97368,0,0,0,.88575-.02149,2.47764,2.47764,0,0,0,.88671-.36426,1.8092,1.8092,0,0,0,.56543-.60253,2.989,2.989,0,0,0,.36914-1.50489,1.809,1.809,0,0,0-.52832-1.52832,1.14958,1.14958,0,0,0-.52734-.19043,2.25726,2.25726,0,0,0-.76562.04981l-.98536.22265A2.71852,2.71852,0,0,0,216.09571,305.78244Z"/><ellipse class="ap" cx="130.97341" cy="48.49002" rx="97.03158" ry="28.04648"/><ellipse class="ap" cx="128.41204" cy="48.78749" rx="75.59295" ry="20.71251"/><ellipse class="ap" cx="130.93076" cy="47.60164" rx="47.07423" ry="12.89836"/><path class="ap" d="M21.69312,47.945c0-21.95,49.21-39.74,109.9-39.74,60.7,0,109.91,17.79,109.91,39.74"/><path class="aq" d="M99.37711,34.84289A77.34893,77.34893,0,0,0,84.21274,36.4013a52.38253,52.38253,0,0,1-6.7197,1.68916,49.33135,49.33135,0,0,1-11.62676.79555,31.296,31.296,0,0,1-4.47737-.55942c-1.29607-.09808-2.67183-.149-4.11649-.149-13.10521,0-27.06792,4.09762-31.18229,9.15424s3.17725,9.15787,16.28246,9.15787c2.19453,0,4.408-.11625,6.598-.33058a50.198,50.198,0,0,1,6.86176-1.00986,39.87271,39.87271,0,0,1,8.80618.2107A19.26148,19.26148,0,0,1,71.3083,57.427a51.97764,51.97764,0,0,0,9.099.73017c15.3479,0,32.03321-5.22009,37.27074-11.65711S114.725,34.84289,99.37711,34.84289Zm-16.135,19.678c-10.98639,0-16.9385-3.62536-13.3-8.09713s15.49022-8.09713,26.47661-8.09713c10.97947,0,16.93158,3.62536,13.29308,8.09713S94.22158,54.52085,83.24212,54.52085Z"/><path class="ao" d="M197.83985,359.49728q.769-.28564.76856.3125a.74956.74956,0,0,1-.20313.51074,1.35233,1.35233,0,0,1-.55273.3584.83053.83053,0,0,1-.54981.05859c-.13379-.04589-.20019-.16992-.20019-.36914Q197.10255,359.77073,197.83985,359.49728Zm-.7373,4.75391a.78268.78268,0,0,1,.19043-.52149,1.29511,1.29511,0,0,1,.5498-.35742.8324.8324,0,0,1,.5625-.05566.3473.3473,0,0,1,.20313.36718.75833.75833,0,0,1-.20313.5166,1.34253,1.34253,0,0,1-.55273.3584.83205.83205,0,0,1-.54981.05957C197.169,364.5715,197.10255,364.44845,197.10255,364.25119Z"/><path class="ao" d="M200.47657,361.5422v-3.75293l1.03809-.38476v3.00586l-.8252,1.05273Z"/><path class="ao" d="M207.45118,360.72091v.14942l-1.03125.38183v-.14844a3.38507,3.38507,0,0,1,.20605-.94921q.20655-.62842.30078-.90039.18165-.55518.46192-1.31446l.89355-2.48437-4.89355,1.8164v-.5625l5.93164-2.20117v.5625l-.93848,2.58887c-.10742.30957-.19726.56445-.26758.76562-.07128.2002-.14257.4043-.21289.61036-.07128.207-.12988.38378-.17578.5332-.0459.14844-.09082.30371-.13672.46289A2.93207,2.93207,0,0,0,207.45118,360.72091Zm-3.02539,3.4375-1.03028.38281v-5.55468l1.03028-.38282Z"/><path class="ao" d="M211.92676,354.04122a5.59421,5.59421,0,0,0-.76269.36231v-.5752a7.99052,7.99052,0,0,1,1.11816-.50781q1.95117-.72363,1.9502.7832V356.969a4.47628,4.47628,0,0,1-.05957.72461,3.899,3.899,0,0,1-.1211.56055l-.0625.18945-3.71289,1.37793v-.56641l2.78711-1.03418a2.75478,2.75478,0,0,0,.126-.86523v-2.80274q0-.52734-.3252-.64453A1.53362,1.53362,0,0,0,211.92676,354.04122Z"/><path class="ao" d="M219.99415,350.54708l4.24414-1.57519v.56738l-1.082,3.30176-.64942,2.44238-1.05078.38965.65039-2.44238,1.09375-3.30664-4.24316,1.57519v-1.72754l1.03711-.38476Z"/><path class="ao" d="M229.67579,352.47384v.14942l-1.03125.38281v-.15039a3.36519,3.36519,0,0,1,.20605-.94824q.20655-.62842.29981-.9004.18164-.55517.46289-1.31347l.89355-2.48535-4.89355,1.81543v-.5625l5.93066-2.2002v.5625l-.9375,2.58887c-.1084.30957-.19726.56445-.26855.76562-.07129.2002-.1416.4043-.21192.61035-.07129.207-.12988.38379-.17578.53418-.0459.14747-.09179.30274-.13769.4629A2.96261,2.96261,0,0,0,229.67579,352.47384Zm-3.02539,3.4375-1.03125.38281v-5.55468l1.03125-.38282Z"/><path class="ao" d="M236.07423,349.68185a5.16764,5.16764,0,0,0,2.12207-1.43359,4.27911,4.27911,0,0,0,1.02246-2.36133l.31836-2.58692,1.03027-.38281-.30566,2.582a4.4539,4.4539,0,0,1-.25586,1.1084,5.88382,5.88382,0,0,1-.40039.86914,5.32871,5.32871,0,0,1-.54688.75879,6.00549,6.00549,0,0,1-.76465.75391,7.19935,7.19935,0,0,1-1.041.70117,9.15,9.15,0,0,1-1.34668.62012l-2.67481.99316-.66894-5.4209,1.0498-.38965.375,3.0293.83106-.501a2.1744,2.1744,0,0,0,1.10644-1.63379l.24414-1.84277,1.03711-.38476L237,345.72579a5.39184,5.39184,0,0,1-.11231.58106,3.06075,3.06075,0,0,1-.22558.58105,3.16906,3.16906,0,0,1-.37793.59375,3.98083,3.98083,0,0,1-.584.57227,5.35627,5.35627,0,0,1-.83789.55664l-.8125.45606.16211,1.30664Z"/><path class="ao" d="M245.48048,341.00119a2.38326,2.38326,0,0,1,1.77148-.15625,1.15511,1.15511,0,0,1,.59082,1.16113v3.875l-2.749,1.02051v-.56641l1.71191-.63477v-3.27929q0-1.29492-1.6875-.66992a3.14679,3.14679,0,0,0-.57812.28613,3.60826,3.60826,0,0,0-.47852.35156,4.89689,4.89689,0,0,0-.58008.60254l-.07519.09863-.59473,4.65821-1.043.38769.58692-4.57715v-.09765a1.83263,1.83263,0,0,0-.08789-.3711,1.3003,1.3003,0,0,0-.21875-.45508l-.16211-.21289,1.04394-.38671a1.045,1.045,0,0,1,.28809.49121l.04394-.01661a4.63983,4.63983,0,0,1,.78028-.73828,6.00225,6.00225,0,0,1,.626-.39355A5.68442,5.68442,0,0,1,245.48048,341.00119Z"/><path class="ao" d="M147.09083,370.95724v-5.63867a27.67189,27.67189,0,0,1,2.77734-.35547q3.14649-.26953,3.14746,1.27734v4.21Zm4.88183-.98437v-3.53809a.766.766,0,0,0-.13281-.46094.80787.80787,0,0,0-.33008-.27441,1.617,1.617,0,0,0-.51758-.12305,4.5402,4.5402,0,0,0-.59668-.02344q-.27686.00879-.64062.03907c-.51172.04394-.97363.0957-1.38867.15429l-.23242.03223V370.301Z"/><path class="ao" d="M154.25294,364.61837c.58593-.06933,1.11132-.126,1.57617-.165a9.2196,9.2196,0,0,1,1.16015-.04,4.39554,4.39554,0,0,1,.86329.11817,2.13766,2.13766,0,0,1,.67871.2793,1.31181,1.31181,0,0,1,.584,1.16308v3.95508l-1.043.08887V366.0549q0-1.17481-2.249-.98145-.67822.05859-1.57031.165Z"/><path class="ao" d="M162.17579,364.49923a4.4992,4.4992,0,0,0-.7666.14453v-.57519a6.33864,6.33864,0,0,1,1.124-.18848q1.96-.167,1.96,1.33887v4.25l-.86133.07422-.11816-.94824-.05078.00488a1.76628,1.76628,0,0,1-.14844.19726,2.77334,2.77334,0,0,1-.22852.25,2.87155,2.87155,0,0,1-.29589.24219,2.97226,2.97226,0,0,1-.37891.23926,2.81659,2.81659,0,0,1-1.01465.29394,5.07473,5.07473,0,0,1-.87988.01856l.15039-.68164a4.46432,4.46432,0,0,0,.86035-.0166,2.22039,2.22039,0,0,0,.9375-.335,2.09656,2.09656,0,0,0,.84082-.90723,1.58446,1.58446,0,0,0,.14453-.6709v-1.8584a.79632.79632,0,0,0-.333-.7373A1.58581,1.58581,0,0,0,162.17579,364.49923Z"/><path class="ao" d="M174.53907,366.46994l1.36328-.11622v.66407l-1.36328.11621v1.47656l-1,.08594v-1.47656l-4.46582.38183v-.63672l4.36035-4.71972,1.10547-.09473Zm-1,.08593V364.425q0-.67236.06348-1.42968l-.05079.00488a7.23959,7.23959,0,0,1-.56542.74707l-2.8711,3.10059Z"/><path class="ao" d="M176.80079,365.17208a3.8007,3.8007,0,0,1,.74707-2.52929,3.18019,3.18019,0,0,1,2.25879-1.00782,2.74922,2.74922,0,0,1,2.29.6504,3.3009,3.3009,0,0,1,.77832,2.41992,3.78337,3.78337,0,0,1-.75391,2.52539,3.18982,3.18982,0,0,1-2.26367,1.01367,2.74172,2.74172,0,0,1-2.28418-.64648A3.317,3.317,0,0,1,176.80079,365.17208Zm4.53515-2.38964a1.58588,1.58588,0,0,0-1.501-.51661,1.91718,1.91718,0,0,0-1.50781.76368,3.66682,3.66682,0,0,0-.47168,2.07714,3.29056,3.29056,0,0,0,.47168,2.001,1.61494,1.61494,0,0,0,1.50781.50977,1.90381,1.90381,0,0,0,1.50488-.77637,3.7183,3.7183,0,0,0,.46777-2.07227A3.25694,3.25694,0,0,0,181.33594,362.78244Z"/><path class="ao" d="M184.15821,364.54318a3.80073,3.80073,0,0,1,.74707-2.5293,3.176,3.176,0,0,1,2.25781-1.00781,2.7503,2.7503,0,0,1,2.291.65039,3.3009,3.3009,0,0,1,.77832,2.41992,3.78335,3.78335,0,0,1-.75391,2.52539,3.19022,3.19022,0,0,1-2.26465,1.01367,2.73631,2.73631,0,0,1-2.2832-.64648A3.317,3.317,0,0,1,184.15821,364.54318Zm4.53516-2.38965a1.58683,1.58683,0,0,0-1.502-.5166,1.91671,1.91671,0,0,0-1.50683.76367,3.65886,3.65886,0,0,0-.47168,2.07715,3.28366,3.28366,0,0,0,.47168,2.001,1.614,1.614,0,0,0,1.50683.50977,1.90425,1.90425,0,0,0,1.50586-.77637,3.71817,3.71817,0,0,0,.46778-2.07226A3.257,3.257,0,0,0,188.69337,362.15353Z"/></svg>