<svg xmlns="http://www.w3.org/2000/svg" xmlns:xlink="http://www.w3.org/1999/xlink" viewBox="0 0 104.41863 152.36824"><defs><style>.a{fill:url(#a);}.b{fill:url(#b);}.c{fill:url(#c);}.d{fill:url(#d);}.e{fill:url(#e);}.f{fill:#fff;}.g{fill:none;}</style><linearGradient id="a" x1="90.22338" y1="75.43136" x2="104.41863" y2="75.43136" gradientUnits="userSpaceOnUse"><stop offset="0" stop-color="#b8915e"/><stop offset="0.39286" stop-color="#b8915e"/><stop offset="1" stop-color="#603913"/></linearGradient><linearGradient id="b" x1="130.97047" y1="-378.04795" x2="153.80208" y2="-378.04795" gradientTransform="translate(-93.80206 415.97567)" xlink:href="#a"/><linearGradient id="c" x1="181.39544" y1="-378.04795" x2="203.47545" y2="-378.04795" gradientTransform="translate(-143.85123 466.02484)" xlink:href="#a"/><linearGradient id="d" x1="222.82937" y1="-377.54066" x2="245.96285" y2="-377.54066" gradientTransform="translate(-186.31918 507.47821)" xlink:href="#a"/><linearGradient id="e" x1="0.19466" y1="74.93688" x2="14.38991" y2="74.93688" xlink:href="#a"/></defs><rect class="a" x="90.22338" y="-0.50553" width="14.19525" height="151.87377"/><rect class="b" x="37.16841" y="-10.14921" width="22.83161" height="96.15385" transform="translate(86.51193 -10.6565) rotate(90)"/><rect class="c" x="37.54421" y="39.89997" width="22.08001" height="96.15385" transform="translate(136.5611 39.39267) rotate(90)"/><rect class="d" x="36.51018" y="81.86062" width="23.13348" height="96.15385" transform="translate(178.01447 81.86062) rotate(90)"/><rect class="e" x="0.19466" y="-1" width="14.19525" height="151.87377"/><path class="f" d="M30.09605,40.09388a8.82477,8.82477,0,0,0,1.70117-3.85938c0-.7832-.459-.94531-1.51172-1.1875-.59375-.16211-1.16113-.29687-1.67382-.48633l.64746-4.07617a14.63,14.63,0,0,0,1.72754.37793c3.42871.5127,4.42675,1.78223,4.42675,4.07617a11.96944,11.96944,0,0,1-2.53711,6.50489Z"/><path class="f" d="M37.46714,41.6056a41.20749,41.20749,0,0,1,4.1836-.13477H45.1605c0-1.13379,0-3.10449-.05468-4.04883-.13477-1.88965-.43164-2.40234-2.375-2.40234H40.22105a11.76963,11.76963,0,0,1-2.96973-.24317l.70215-4.12988a23.31321,23.31321,0,0,0,3.91406.13477h2.2129c3.86035,0,4.48046,1.34961,4.48046,5.69629v1.88867a29.72926,29.72926,0,0,1-.13476,3.10449h1.80859l-.64746,4.21094h-8.9082c-1.32227,0-3.15821,0-3.91309.081Z"/><path class="f" d="M53.42418,41.30872C56.60875,40.63392,58.93,38.7179,58.93,36.423c0-1.16016-.48535-1.40332-1.64648-1.40332H50.99449V30.10657a16.37814,16.37814,0,0,0-.37793-4.58887l3.61719-.51269A22.33976,22.33976,0,0,1,54.557,29.4054v1.376h4.15722c2.375,0,3.91407.59375,3.91407,4.04882,0,6.3711-5.18262,10.47364-9.98731,11.09473Z"/><path class="f" d="M64.27867,30.94349l4.23828-.29688c.13476.62109.59375,3.293.97168,6.28906a1.96514,1.96514,0,0,0,1.7539-2.2666,14.97331,14.97331,0,0,0-.6748-3.72558l4.10352-.32325a14.3644,14.3644,0,0,1,.459,3.48145c0,2.94238-1.21484,4.91309-5.34473,5.56055,0,.08105.21582,1.80859.26953,2.05175a12.92406,12.92406,0,0,0,3.26661-.48632c2.64453-.75586,3.833-2.13184,3.833-5.3711a17.47822,17.47822,0,0,0-.83691-4.91308l4.12988-.26954a17.7081,17.7081,0,0,1,.459,4.31836c0,7.34278-4.751,9.60938-8.36817,10.28418a41.348,41.348,0,0,1-5.21.59375A122.73533,122.73533,0,0,0,64.27867,30.94349Z"/><path class="g" d="M68.31773,58.42981l.3125-1.98925a15.64716,15.64716,0,0,0,2.1709.06445h3.51074L73.973,58.547h-.24707c-.48047,0-.64941.24707-.64941.94824,0,1.44336.05176,2.86036.09082,4.18653H71.45152c-.02637-1.0918-.09082-2.52246-.09082-3.5752a2.33828,2.33828,0,0,1,.32422-1.55957H69.7357A5.40943,5.40943,0,0,1,68.31773,58.42981Z"/><path class="g" d="M74.892,57.6222l.36035-2.29492a17.84274,17.84274,0,0,0,2.50488.07519H81.807L81.41636,57.757h-.28515c-.55469,0-.75.28516-.75,1.09473,0,1.665.06054,3.2998.10547,4.83008h-1.9795c-.03027-1.25977-.10547-2.91016-.10547-4.125a2.69906,2.69906,0,0,1,.375-1.79981h-2.25A6.254,6.254,0,0,1,74.892,57.6222Z"/><path class="f" d="M35.52183,88.712c0-2.67187-.27051-3.293-2.02441-3.293H28.9896a14.15733,14.15733,0,0,1-3.23925-.24316l.6748-4.12988a32.2611,32.2611,0,0,0,4.50781.13476h3.18555c4.45313,0,4.96582,1.70117,4.96582,6.04688v8.85351h-3.5625Zm-9.15039.24316h3.5625v7.126h-3.5625Z"/><path class="f" d="M42.03062,91.97864c.62109-.08105,2.0791-.1084,3.48242-.1084H46.89V88.22669c0-1.72754-.29786-2.24121-2.05176-2.5918a20.4009,20.4009,0,0,1-2.88867-.70215l.70214-4.07519a28.009,28.009,0,0,0,2.75293.54c3.86036.6748,5.02051,1.67285,5.02051,6.0459V92.005l-.64746,4.07617H45.24253c-1.29492,0-3.293.02735-3.91308.08106Z"/><path class="f" d="M52.77671,92.005a39.39831,39.39831,0,0,1,3.94141-.10742h4.15625a23.52079,23.52079,0,0,0,.24316-3.23926c0-2.72656-.83691-3.23926-3.10449-3.23926H55.80015a14.15743,14.15743,0,0,1-3.23926-.24316L53.263,81.046a23.96677,23.96677,0,0,0,3.61719.13476h2.07812c4.64258,0,5.72266,1.67383,5.72266,7.12695a40.70287,40.70287,0,0,1-.918,7.77344H56.016c-1.32226,0-3.18554-.02734-3.94043.08106Z"/><path class="f" d="M76.96617,88.712c0-2.67187-.27051-3.293-2.02442-3.293H70.43394a14.15743,14.15743,0,0,1-3.23926-.24316l.67481-4.12988a32.2611,32.2611,0,0,0,4.50781.13476h3.18555c4.45312,0,4.96582,1.70117,4.96582,6.04688v8.85351h-3.5625Zm-9.15039.24316h3.5625v7.126h-3.5625Z"/></svg>