<svg xmlns="http://www.w3.org/2000/svg" xmlns:xlink="http://www.w3.org/1999/xlink" viewBox="0 0 142.06598 173.50988"><defs><style>.a,.b,.c{stroke:#231f20;stroke-miterlimit:10;}.a{fill:url(#a);}.b{fill:url(#b);}.c{fill:url(#c);}.d{fill:#3c2415;}</style><linearGradient id="a" x1="-2103.22933" y1="1081.84136" x2="-1960.82619" y2="1081.84136" gradientTransform="matrix(0.93354, 0.012, -0.0137, 1.06578, 1979.09291, -1074.40821)" gradientUnits="userSpaceOnUse"><stop offset="0" stop-color="#c49a6c"/><stop offset="0.56122" stop-color="#f1f2f2"/><stop offset="1" stop-color="#c49a6c"/></linearGradient><radialGradient id="b" cx="-2033.03064" cy="1229.12871" r="47.09548" gradientTransform="matrix(0, 0.93362, -1, 0, 1295.04651, 1986.14088)" gradientUnits="userSpaceOnUse"><stop offset="0" stop-color="#fed095"/><stop offset="1" stop-color="#a97c50"/></radialGradient><linearGradient id="c" x1="-2032.93354" y1="1271.12776" x2="-1973.5683" y2="1271.12776" gradientTransform="translate(2084.44576 -1115.22327) rotate(0.73637)" xlink:href="#a"/></defs><path class="a" d="M133.44086,79.81464c-.24108,18.75656-30.13164,28.57126-66.84184,28.09944S.26039,96.86258.50146,78.106,29.42966.031,66.13986.5028,133.68193,61.05808,133.44086,79.81464Z"/><ellipse class="b" cx="65.91781" cy="88.06341" rx="15.17934" ry="60.54548" transform="translate(-22.98548 152.84402) rotate(-89.26364)"/><path class="c" d="M92.97536,87.49642c-8.31878,15.02918-15.80515,35.0553-9.142,53.81469,4.35081,12.2493,12.54821,17.22308,9.97567,22.88542-6.19741,13.64093-53.98,10.61457-58.5469-3.35821-2.22735-6.81469,8.77829-11.06461,12.13992-25.59574,5.37938-23.25309-3.66631-42.266-6.71335-48.06285Z"/><path class="d" d="M34.90328,33.52233a9.73662,9.73662,0,0,1,2.13184-.12988h.38965c-.02539-2.52148-.23438-7.748-.416-9.41211h-.07812A8.26078,8.26078,0,0,1,34.955,23.7987l.46778-2.28906a30.94309,30.94309,0,0,0,4.082.10449H43.7695c3.82128,0,4.5498.91016,4.5498,5.35645v8.78808H46.291V27.69812c0-2.57422-.28613-3.71778-2.7041-3.71778H39.01071c.12988,1.66406.416,7.61817.39062,9.43848l-.36426,2.33984H36.98336a22.67905,22.67905,0,0,0-2.57422.10449Z"/><path class="d" d="M58.35446,27.69812c0-2.57422-.28516-3.71778-2.7295-3.71778H53.05075a15.13018,15.13018,0,0,1-2.88575-.15625l.44141-2.31445a28.97782,28.97782,0,0,0,3.61426.10449H55.833c3.7959,0,4.52344.91016,4.52344,5.35645v8.78808H58.35446Z"/><path class="d" d="M63.91891,29.57019a8.14649,8.14649,0,0,0,1.6377-3.97754c0-.8584-.49415-1.14453-1.68946-1.48242a16.077,16.077,0,0,1-1.58691-.52051l.44238-2.28711a15.53125,15.53125,0,0,0,1.53418.4414c2.46973.5459,3.32813,1.32618,3.32813,3.25a10.134,10.134,0,0,1-2.05372,5.35645Z"/><path class="d" d="M71.35348,27.56823a20.52268,20.52268,0,0,1,.208-3.61425c-.46778-.0254-1.71582-.10352-1.89844-.12989l.44238-2.33984a23.53739,23.53739,0,0,0,3.61426.12988h4.70606c3.79589,0,4.52441,1.16992,4.52441,5.48633v8.6582H80.92184V27.85437c0-2.86036-.25977-3.874-2.73047-3.874H73.35543V35.75866H71.35348Z"/><path class="d" d="M85.80953,33.52233a36.72642,36.72642,0,0,1,4.1084-.12988h3.95215c0-1.76758.02539-4.23828-.02637-5.56445-.05175-2.78125-.36425-3.84766-2.834-3.84766H88.748a15.53958,15.53958,0,0,1-2.88672-.15625L86.33,21.50964a24.62361,24.62361,0,0,0,3.32813.10449h2.05371c3.71777,0,4.13379,1.71582,4.13379,5.27832v4.29c0,.5459-.05176,1.76856-.10352,2.21h1.89746l-.4414,2.36621H88.72164c-1.11816,0-2.75586,0-3.35351.07813Z"/><path class="d" d="M48.39743,58.35241V64.619c0,.15625-.28614,1.61133-.44239,2.33985H36.25485v-9.3086a12.99457,12.99457,0,0,1,.18164-2.49609,8.29008,8.29008,0,0,1-1.87207-.15625l.44238-2.31348a26.71472,26.71472,0,0,0,3.58789.12989h5.252C47.66891,52.81433,48.39743,53.90612,48.39743,58.35241Zm-4.6543-3.17187H38.205v9.41211h8.21582V58.97644C46.42086,56.40222,46.13571,55.18054,43.74313,55.18054Z"/><path class="d" d="M51.959,60.77038a8.15611,8.15611,0,0,0,1.63769-3.97754c0-.8584-.49414-1.14453-1.68945-1.48242a16.24231,16.24231,0,0,1-1.58594-.51953l.44141-2.28906a15.22391,15.22391,0,0,0,1.53418.44238c2.46973.5459,3.32812,1.32617,3.32812,3.25a10.1339,10.1339,0,0,1-2.05371,5.35644Z"/><path class="d" d="M57.60153,64.69714c.5205-.07813,2.002-.07813,3.53613-.07813h4.9668a27.95591,27.95591,0,0,0,.49316-4.83593c0-3.48438-.7793-4.60254-3.61426-4.60254h-2.3916a16.77285,16.77285,0,0,1-2.99023-.15625l.46777-2.31348a25.2634,25.2634,0,0,0,3.25.10352h2.1582c4.291,0,5.123,1.89843,5.123,6.75976a35.37852,35.37852,0,0,1-.8584,7.38477H60.59176a33.60109,33.60109,0,0,0-3.43262.07812Z"/><path class="d" d="M78.32321,58.89831c0-2.57422-.28516-3.71777-2.7295-3.71777H73.0195a15.13018,15.13018,0,0,1-2.88575-.15625l.44141-2.31348a29.24786,29.24786,0,0,0,3.61426.10352h1.6123c3.7959,0,4.52344.91015,4.52344,5.35644v8.78809H78.32321Z"/><path class="d" d="M83.52243,64.72253a30.18606,30.18606,0,0,1,3.5625-.12988H91.1152c-.72852-.72754-2.36621-2.78223-5.17481-6.5-1.32519-1.76856-2.88574-3.82227-3.95117-5.17481l2.91211-.25976c1.0918,1.56054,2.91211,4.21289,4.36719,6.18847a3.14339,3.14339,0,0,0,2.28906-3.37988,7.28866,7.28866,0,0,0-.59863-2.54883l2.54785-.2334a7.22272,7.22272,0,0,1,.33789,2.23633c0,2.46973-.93555,4.13379-3.666,5.27832A36.02035,36.02035,0,0,0,94.23532,65.035l-.44239,1.92383H86.82516c-1.74219,0-3.27637.02637-3.84863.07812Z"/><path class="d" d="M98.34274,58.97644c.36328-2.59961-.67676-3.61426-2.31446-4.00391l.46778-2.418a3.97262,3.97262,0,0,1,3.5625,3.666A5.35568,5.35568,0,0,1,105.1025,52.58c4.05664,0,5.04395,3.71875,5.04395,8.73633V64.6444c0,.23438-.28613,1.9502-.36426,2.31446h-5.12207c-1.04,0-2.3916.02637-2.9375.07812l.44141-2.31445a24.7735,24.7735,0,0,1,3.19824-.10352h2.73047c.02539-1.09179.02539-2.1582.02539-3.19824,0-3.27637-.416-6.47461-3.458-6.47461-2.88574,0-3.89941,2.86035-4.29,4.62793-.416,1.74219-.96191,4.88867-1.42969,7.38477H96.91207C97.43258,64.28112,98.05661,60.90026,98.34274,58.97644Z"/></svg>