<svg xmlns="http://www.w3.org/2000/svg" xmlns:xlink="http://www.w3.org/1999/xlink" viewBox="0 0 86.71695 68.87763"><defs><style>.a{fill:url(#a);}.b{fill:none;stroke:#006838;stroke-miterlimit:10;}.c{fill:#006838;}.d{fill:url(#b);}</style><linearGradient id="a" x1="-328.99807" y1="-365.59525" x2="-296.07466" y2="-346.58692" gradientTransform="translate(279.8792 449.80548) rotate(14.26107)" gradientUnits="userSpaceOnUse"><stop offset="0" stop-color="#009444"/><stop offset="0.47449" stop-color="#006838"/><stop offset="1" stop-color="#008f43"/></linearGradient><linearGradient id="b" x1="-198.2214" y1="-276.06499" x2="-177.07169" y2="-263.8542" gradientTransform="translate(340.60176 -8.56928) rotate(-63.02451)" xlink:href="#a"/></defs><path class="a" d="M80.83787,34.88244c-2.44219,9.60838-21.84368,25.66318-32.70444,22.90267S36.40712,33.38692,41.50761,24.88574c1.95456-3.25775,9.307-10.37323,17.97762-15.50622C72.78776,1.50447,88.43837-3.523,86.5633,2.99684,82.46876,17.23409,83.28006,25.27407,80.83787,34.88244Z"/><path class="b" d="M61.25764,27.52388c1.35051-1.14876,8.06757-6.62419,16.19369-4.76422a16.16377,16.16377,0,0,1,5.12687,2.18283"/><path class="b" d="M68.23274,20.69273c.863-.94351,5.18511-5.49719,11.47575-6.05257a13.94121,13.94121,0,0,1,4.09519.23892"/><path class="b" d="M45.31273,52.8887c1.50243-1.01453,8.96929-5.857,17.79592-4.46544a19.58,19.58,0,0,1,5.54426,1.74045"/><path class="b" d="M49.99427,47.18813c1.602-1.29005,9.56838-7.44078,19.1489-5.42129a19.44527,19.44527,0,0,1,6.0377,2.39964"/><path class="b" d="M52.67145,41.30714c1.68042-1.64856,10.04319-9.50056,20.33207-6.62246A19.75969,19.75969,0,0,1,79.51536,37.973"/><path class="b" d="M56.73311,33.64778c1.602-1.29,9.56838-7.44077,19.1489-5.42128a19.44533,19.44533,0,0,1,6.03771,2.39964"/><path class="b" d="M65.434,23.8299c.68467-1.47517,3.88163-8.70413.32765-13.59869a8.8415,8.8415,0,0,0-3.12519-2.6299"/><path class="b" d="M67.32852,20.667c.65347-1.38525,3.7981-8.201,3.84253-13.808a10.37427,10.37427,0,0,0-.41928-3.22358"/><path class="b" d="M46.02173,47.09442c.54986-1.74841,3.07162-10.3442-1.4676-17.16992a14.9806,14.9806,0,0,0-3.76683-3.88132"/><path class="b" d="M50.17413,40.78783c.72423-1.75823,4.07579-10.38995-.79489-16.80022A13.68668,13.68668,0,0,0,45.24441,20.423"/><path class="b" d="M55.514,35.57589c.73913-1.76694,4.167-10.43843-.532-16.76853a12.94429,12.94429,0,0,0-4.017-3.49878"/><path class="b" d="M60.09547,30.28636c.74862-1.71691,4.24007-10.13467.20168-15.98394a10.53806,10.53806,0,0,0-3.53084-3.17474"/><path class="c" d="M31.25728,62.88735c3.62943-3.67287,8.95687-9.228,15.351-16.51914C67.66793,22.35416,82.10784.251,84.99542.14571c.77865-.0284.47183,1.55169-.09906,2.88735C82.90385,7.69473,75.12588,15.38879,72.95855,17.5813,66.01937,24.6011,54.04724,38.49894,32.0395,68.87763Z"/><path class="d" d="M21.68024,27.10464c5.67569,2.88885,12.99319,17.3165,9.72779,23.732S14.46125,54.73525,9.8552,50.33715c-1.76509-1.68541-5.18441-7.29874-7.175-13.45784C-.37388,27.43-1.31156,16.9119,2.509,19.00871,10.85167,23.58745,16.00454,24.21578,21.68024,27.10464Z"/><path class="b" d="M14.30072,38.334c-.52892-1.0087-3.01035-5.992-.6959-10.82119a10.38331,10.38331,0,0,1,2.09271-2.90408"/><path class="b" d="M11.00623,32.99729A12.03917,12.03917,0,0,1,8.836,24.95039,8.95554,8.95554,0,0,1,9.56466,22.418"/><path class="b" d="M27.941,51.9119c-.42333-1.08492-2.40209-6.4486-.28215-11.783a12.57755,12.57755,0,0,1,1.87451-3.22817"/><path class="b" d="M25.03064,48.17229c-.58189-1.18628-3.30986-7.04794-.68982-12.76594a12.491,12.491,0,0,1,2.35735-3.44419"/><path class="b" d="M21.7239,45.66318c-.79547-1.2861-4.53348-7.63669-1.27525-13.67719a12.69391,12.69391,0,0,1,2.98129-3.61566"/><path class="b" d="M17.4985,42.03507c-.58189-1.18628-3.30986-7.04794-.68982-12.76595A12.49134,12.49134,0,0,1,19.166,25.82493"/><path class="b" d="M12.5764,35.19467c-.8276-.63761-4.90555-3.663-8.47515-2.128a5.6798,5.6798,0,0,0-2.08986,1.58654"/><path class="b" d="M10.86229,33.56028c-.77567-.60534-4.60211-3.53954-8.10935-4.36012a6.66442,6.66442,0,0,0-2.0793-.193"/><path class="b" d="M24.41027,50.64839c-1.01789-.59176-6.04781-3.38731-10.96685-1.50791a9.6233,9.6233,0,0,0-2.96476,1.81169"/><path class="b" d="M21.04539,47.15468c-.99938-.70242-5.93449-4.023-10.64006-1.87719A8.79225,8.79225,0,0,0,7.587,47.36455"/><path class="b" d="M18.53436,43.07162c-1.00273-.713-5.952-4.087-10.583-2.03743A8.3153,8.3153,0,0,0,5.1909,43.05675"/><path class="b" d="M15.86749,39.45282c-.97005-.71186-5.7513-4.08988-9.98766-2.38626a6.76933,6.76933,0,0,0-2.48862,1.7637"/><path class="c" d="M32.21927,62.13326c-1.78842-2.79363-4.51626-6.91743-8.18115-11.9551C11.96749,33.58613.15838,21.41246.50064,19.5881c.0923-.49195,1.03907-.07628,1.79533.47031,2.63947,1.90767,6.36118,7.86948,7.42867,9.5376,3.41779,5.34085,10.434,14.808,26.359,32.894Z"/></svg>