<svg xmlns="http://www.w3.org/2000/svg" xmlns:xlink="http://www.w3.org/1999/xlink" viewBox="0 0 167.94836 74.20183"><defs><style>.a{fill:url(#a);}.b{fill:none;stroke:#006838;stroke-miterlimit:10;}.c{fill:#006838;}</style><linearGradient id="a" x1="-382.21854" y1="79.73599" x2="-318.7056" y2="116.40521" gradientTransform="matrix(0.41669, 0.90905, -0.90905, 0.41669, 336.56717, 316.16404)" gradientUnits="userSpaceOnUse"><stop offset="0" stop-color="#009444"/><stop offset="0.47449" stop-color="#006838"/><stop offset="1" stop-color="#008f43"/></linearGradient></defs><path class="a" d="M110.14509,71.385C92.75953,79.35413,45.1552,69.66432,36.1473,50.01268S58.58222,2.85669,77.5246.22007c7.25892-1.01038,26.84776,1.41268,45.05616,8.21611,27.93539,10.43784,54.4386,27.85011,42.37754,32.93051C138.62092,52.46058,127.53065,63.41577,110.14509,71.385Z"/><path class="b" d="M97.48174,33.07163c3.36053.63669,19.71723,4.09192,26.76556,18.54662a31.18165,31.18165,0,0,1,2.93125,10.342"/><path class="b" d="M116.18669,35.27246c2.46191.15322,14.53407,1.12848,22.98641,9.90189a26.89408,26.89408,0,0,1,4.60076,6.43867"/><path class="b" d="M40.08368,39.84725c3.343,1.02738,19.65722,6.37509,28.25731,21.31436a37.771,37.771,0,0,1,4.101,10.43305"/><path class="b" d="M54.31329,39.97327c3.87727.84324,22.761,5.35659,31.33116,22.18841A37.51211,37.51211,0,0,1,89.35321,74.134"/><path class="b" d="M66.38641,36.87106c4.51058.5268,26.429,3.575,34.56774,22.51035A38.11925,38.11925,0,0,1,103.90262,73.142"/><path class="b" d="M82.80661,33.69406c3.87727.84324,22.761,5.35659,31.33116,22.18841a37.51211,37.51211,0,0,1,3.70876,11.97231"/><path class="b" d="M108.08642,34.86913c3.04428-.75843,17.771-4.71263,20.81656-15.9769a17.05636,17.05636,0,0,0,.16424-7.87777"/><path class="b" d="M115.13019,33.88357c2.87149-.69638,16.91442-4.22879,25.38758-10.95243a20.01334,20.01334,0,0,0,4.33272-4.53355"/><path class="b" d="M49.643,33.89464c3.29133-1.29177,19.25276-7.91518,24.00494-22.99764A28.89911,28.89911,0,0,0,74.91424.54019"/><path class="b" d="M64.14179,32.49216c3.51724-1.04181,20.53756-6.46269,24.26449-21.53977A26.40326,26.40326,0,0,0,88.75137.42655"/><path class="b" d="M78.43493,34.19848c3.54837-1.03,20.72079-6.38452,24.53527-21.10666a24.97076,24.97076,0,0,0,.38885-10.26923"/><path class="b" d="M91.92616,34.67206c3.48473-.95516,20.35319-5.90686,24.24568-19.05476a20.32874,20.32874,0,0,0,.4911-9.14671"/><path class="c" d="M8.04766,30.85066c9.91066,1.00184,24.70408,2.2739,43.39616,3.04525,61.56405,2.54053,112.24172-2.54488,115.89692,1.66355.98563,1.13483-1.7586,2.58771-4.45562,3.348-9.413,2.65365-30.386.29226-36.303-.30691C107.63736,36.68215,72.26936,35.536,0,39.27985Z"/></svg>