<svg xmlns="http://www.w3.org/2000/svg" xmlns:xlink="http://www.w3.org/1999/xlink" viewBox="0 0 300.11221 117.45843"><defs><style>.a,.g,.h{fill:none;}.b,.f,.o{fill:#231f20;}.c{fill:#cec29b;}.d{fill:#ccc09a;}.e{fill:#dccf9e;}.f,.g,.h{stroke:#f7941d;}.f,.g,.n,.o{stroke-miterlimit:10;}.f,.g,.h,.n{stroke-width:2px;}.g,.h{stroke-linecap:round;}.h{stroke-linejoin:round;}.i{clip-path:url(#a);}.j{fill:url(#b);}.k{fill:#f1f2f2;}.l{clip-path:url(#c);}.m{fill:url(#d);}.n{fill:#fff;}.n,.o{stroke:#c49a6c;}</style><clipPath id="a"><polygon class="a" points="221.821 34.464 162.091 34.464 214.629 1.384 274.359 1.384 221.821 34.464"/></clipPath><radialGradient id="b" cx="-1427.94248" cy="-2303.68233" r="60.80675" gradientTransform="matrix(0.50812, 0, -0.39555, 0.24905, 27.05684, 595.21173)" gradientUnits="userSpaceOnUse"><stop offset="0" stop-color="#ffde17"/><stop offset="1" stop-color="#f5841f"/></radialGradient><clipPath id="c"><rect class="a" x="174.3518" y="49.46511" width="36.6867" height="65.57603"/></clipPath><radialGradient id="d" cx="934.52539" cy="-90.02519" r="37.34809" gradientTransform="translate(-282.07021 161.66618) scale(0.50812 0.8038)" xlink:href="#b"/></defs><polygon class="b" points="223.597 44.899 0 44.899 75.816 0 299.413 0 223.597 44.899"/><polygon class="c" points="223.597 44.899 224.175 117.955 300.112 58.978 299.413 0 223.597 44.899"/><polygon class="d" points="299.34 0 282.633 9.893 59.04 9.893 75.747 0 299.34 0"/><rect class="e" x="0.57781" y="44.8991" width="223.59676" height="73.05616"/><rect class="b" x="4.34062" y="56.98796" width="214.54571" height="48.87844"/><ellipse class="f" cx="47.5431" cy="32.13423" rx="20.88559" ry="8.44005" transform="translate(-6.57242 13.04326) rotate(-14.62272)"/><path class="g" d="M59.31168,24.93717A17.79517,17.79517,0,0,0,55.03,24.47585c-7.64509,0-17.1145,3.46784-21.15051,7.74564s-1.11027,7.74564,6.53482,7.74564,17.1145-3.46784,21.15051-7.74564C63.2833,30.4,63.73964,28.7254,63.1069,27.4028"/><line class="h" x1="45.96538" y1="30.87481" x2="45.86993" y2="29.57527"/><path class="h" d="M45.98848,34.77855h1.13457a7.16517,7.16517,0,0,0,4.5888-1.68049l.33119-.351c1.31542-1.39423.80815-2.9975-1.68356-2.9975-4.24661,0-7.3054,3.07425-9.99485,4.78646a6.52138,6.52138,0,0,1-2.60551,1.1254c-1.63978.20683-1.67793-.68649-1.51629-1.3098a4.90345,4.90345,0,0,1,1.2364-2.13007c2.98647-3.16539,9.99334-5.73141,15.65031-5.73141,5.74159,0,7.88585,2.64336,4.698,5.8738-3.01962,3.05993-9.849,5.544-15.3604,5.58832a14.40807,14.40807,0,0,1-2.77476-.2212"/><g class="i"><polygon class="b" points="226.422 31.567 166.692 31.567 214.629 1.384 274.359 1.384 226.422 31.567"/><polygon class="b" points="226.422 31.567 166.692 31.567 214.629 1.384 274.359 1.384 226.422 31.567"/><polygon class="j" points="206.962 39.655 160.727 39.655 218.455 3.307 264.69 3.307 206.962 39.655"/><ellipse class="b" cx="180.66162" cy="42.52925" rx="79.96713" ry="20.27441" transform="translate(-4.22659 26.29011) rotate(-8.22719)"/></g><path class="k" d="M199.279,27.93531l-5.6875,3.56152h-3.57031l6.07715-3.82617q2.39942-1.51172-.88965-1.51074h-2.6914l-2.84082,1.25586h2.7871L190.734,28.50464H187.32a3.76893,3.76893,0,0,1-1.67578-.25586c-.30469-.16894-.25879-.3789.13476-.627.084-.05273.17579-.10449.28125-.15723l5.14747-2.39453h5.98242Q203.82877,25.07007,199.279,27.93531Z"/><path class="k" d="M219.152,28.51441a15.45135,15.45135,0,0,1-5.47949,1.54,44.76674,44.76674,0,0,1-6.6709.52051,18.57463,18.57463,0,0,1-4.98926-.52051q-2.08153-.59766-.585-1.54l5.46973-3.44434h3.57031l-5.251,3.30762a1.31531,1.31531,0,0,0-.29589.22461q3.86278-.26367,5.1416-1.06934l3.91113-2.46289h3.57031l-4.1289,2.60059q-1.86621,1.1748-7.24414,1.73633.68847.0791,2.44531.07812a29.77164,29.77164,0,0,0,4.458-.28906,7.5186,7.5186,0,0,0,2.72656-.81836l5.251-3.30762h3.57031Z"/><path class="k" d="M195.76334,21.31812q.9082-.01319,1.61133-.01367c.46875,0,.84472.00879,1.125.02734a6.03256,6.03256,0,0,1,.73437.08594,1.15189,1.15189,0,0,1,.44043.15332q.271.20069-.27929.54688l-2.83594,1.78613h-1.05078l2.84179-1.79q.84083-.52881-1.42578-.5293-.68262,0-1.60644.01367Z"/><path class="k" d="M206.55631,21.79468a.53161.53161,0,0,0-.3252-.15429,3.68238,3.68238,0,0,0-.76367-.05957q-.501,0-.91211.01953l.42871-.26953q.41309-.02637.94336-.02637a7.46626,7.46626,0,0,1,.91309.04785,2.0701,2.0701,0,0,1,.60351.15137.39156.39156,0,0,1,.25.25781q.07325.32081-.78808.86328a6.94574,6.94574,0,0,1-.94336.49024,8.85706,8.85706,0,0,1-1.0459.373c-.35254.10156-.7207.18653-1.10059.25586-.37988.07031-.75293.12012-1.11621.15235-.3623.03125-.71972.04687-1.07519.04687a7.94756,7.94756,0,0,1-.92481-.04687,2.32688,2.32688,0,0,1-.63379-.15235.464.464,0,0,1-.28613-.25586c-.03125-.10058.01563-.22558.1416-.373a2.61681,2.61681,0,0,1,.61328-.49024l2.03223-1.28027h1.08984l-2.03222,1.28027q-.68409.4292-.71387.71582c-.01074.10254.07715.1836.26953.24024a2.984,2.984,0,0,0,.82617.08691,7.98413,7.98413,0,0,0,1.001-.05859,6.99146,6.99146,0,0,0,.84863-.15625,6.7846,6.7846,0,0,0,.752-.23536,6.68177,6.68177,0,0,0,1.20214-.59277,5.13326,5.13326,0,0,0,.45118-.31348,1.20125,1.20125,0,0,0,.2705-.28027A.20625.20625,0,0,0,206.55631,21.79468Z"/><path class="k" d="M213.35123,21.30445a3.02373,3.02373,0,0,1,1.80762.32812q.33984.32667-.71778.99219a6.94456,6.94456,0,0,1-.94336.49024,8.98321,8.98321,0,0,1-1.04589.373c-.35254.10156-.72071.18653-1.10059.25586-.37988.07031-.75293.12012-1.11621.15235-.36231.03125-.71973.04687-1.0752.04687a7.94737,7.94737,0,0,1-.9248-.04687,2.32679,2.32679,0,0,1-.63379-.15235.464.464,0,0,1-.28613-.25586c-.03125-.10058.01562-.22558.1416-.373a2.61659,2.61659,0,0,1,.61328-.49024,7.019,7.019,0,0,1,1.2666-.62793,9.30444,9.30444,0,0,1,1.29395-.39453l-.83594.01563.44434-.2793Q211.62906,21.30494,213.35123,21.30445Zm-3.03418.74414a7.51722,7.51722,0,0,0-1.10059.54,3.66705,3.66705,0,0,0-.57519.42383.57777.57777,0,0,0-.19727.3291c-.00976.10254.07911.18262.27149.23926a3.26712,3.26712,0,0,0,.88281.08691,7.47524,7.47524,0,0,0,1.15625-.08691,6.49869,6.49869,0,0,0,1.03516-.24024,6.98833,6.98833,0,0,0,1.56152-.71582q.90821-.57274.70313-.82617a.649.649,0,0,0-.36329-.15332,4.12817,4.12817,0,0,0-.78711-.05859l-1.13964.0039A8.9204,8.9204,0,0,0,210.31705,22.04859Z"/><path class="k" d="M223.66275,21.34449l-1.32031.83105c-.17187.1084-.33594.20215-.49023.28125a6.08373,6.08373,0,0,1-.5791.249,7.44993,7.44993,0,0,1-1.81153.3789l.27539.81934h-1.18359l-.29785-1.06934-.24219-.45312c-.20117.0205-.35645.04-.46191.06054a3.94785,3.94785,0,0,0-1.41407.51075l-1.50976.95117h-1.05274l1.32032-.832a5.52163,5.52163,0,0,1,1.43554-.64453c.2002-.05665.43946-.11036.71289-.15918.27637-.04981.57325-.08887.89453-.11817l-.291-.80566h1.18945l.30274.99023.24121.51367c.27734-.04.50293-.081.67285-.123a4.16819,4.16819,0,0,0,.53418-.17285,2.92646,2.92646,0,0,0,.51269-.25782l1.50977-.95019Z"/><path class="k" d="M228.85514,21.30445a2.61757,2.61757,0,0,1,1.43554.22656q.23877.22559-.3916.62305l-2.7793,1.75h-2.78515l.40625-.25586h1.73437l2.35157-1.48047q.92724-.58447-.78028-.585-.29883,0-.63867.0332c-.22656.02051-.42871.04785-.6084.07715-.38672.06836-.67578.126-.86719.17481l-.12695.03222-3.7832,2.00391h-1.05664l3.71972-1.96875.06934-.044a1.508,1.508,0,0,0,.20117-.18164.5687.5687,0,0,0,.165-.24219l.02832-.123h1.0586q.0293.08936-.1377.26953h.04492q.52441-.123,1.11231-.20215.30322-.03956.75-.07324T228.85514,21.30445Z"/><path class="b" d="M241.57867,8.37087c-1.77889,1.12-8.06329,2.85114-12.424,2.85114s-5.14639-1.73109-3.3675-2.85114,9.96258-4.047,14.32328-4.047S243.35756,7.25082,241.57867,8.37087Z"/><path class="b" d="M222.41182,15.85516a71.52422,71.52422,0,0,0-6.38246,4.38508h-3.78475c2.97923-1.45658,6.08372-2.9532,8.4803-4.32673a30.92883,30.92883,0,0,0,6.46883-4.77606c.37292-.37522.73225-.76577,1.07027-1.1708l3.96282.6248c-.34018.16141-.69955.3339-1.07514.51662C228.72332,12.28952,225.58376,13.91177,222.41182,15.85516Z"/><path class="b" d="M259.68734,5.66747l-18.59979,7.37111c-.71982.28527-1.89473.30179-1.73872.02342.56808-1.01361,2.05583-2.1551,4.49264-3.328A60.37948,60.37948,0,0,1,258.89769,5.3173C259.87546,5.14949,260.40274,5.38395,259.68734,5.66747Z"/><path class="b" d="M231.482,16.93742c-3.33482,1.47492-6.14312,2.84437-8.54348,4.073l-2.77656-.21487c3.46819-1.30413,7.06351-2.64165,10.03112-3.89485a74.53679,74.53679,0,0,0,8.95113-4.46353c.604-.35835,1.21148-.733,1.8161-1.12346l2.357.85694c-.39169.144-.80722.298-1.24364.4615C239.25189,13.68924,235.5202,15.15184,231.482,16.93742Z"/><polygon class="b" points="214.302 10.58 213.094 10.64 211.886 10.699 215.489 7.797 219.092 4.895 216.697 7.738 214.302 10.58"/><polygon class="b" points="218.577 10.368 217.369 10.427 216.161 10.487 219.764 7.584 223.368 4.682 220.972 7.525 218.577 10.368"/><polygon class="b" points="216.418 10.472 215.21 10.531 214.002 10.591 217.605 7.689 221.208 4.786 218.813 7.629 216.418 10.472"/><polygon class="b" points="220.611 10.273 219.403 10.332 218.195 10.392 221.798 7.49 225.401 4.587 223.006 7.43 220.611 10.273"/><polygon class="b" points="214.571 12.715 213.229 11.699 211.888 10.684 216.335 10.45 220.783 10.215 217.677 11.465 214.571 12.715"/><path class="b" d="M212.72366,15.93621a24.57457,24.57457,0,0,0-2.63888,3.86777l-2.9036.202a55.78261,55.78261,0,0,0,4.27835-3.93282,10.79766,10.79766,0,0,0,2.50385-4.18686,7.60422,7.60422,0,0,0,.21832-.99885l3.36188.291c-.17788.148-.36477.30591-.55885.47292A36.33347,36.33347,0,0,0,212.72366,15.93621Z"/><g class="l"><rect class="b" x="174.3518" y="49.46511" width="36.6867" height="59.83279"/><rect class="b" x="174.3518" y="49.46511" width="36.6867" height="59.83279"/><rect class="m" x="178.57789" y="53.27773" width="28.39766" height="72.05322"/><ellipse class="b" cx="193.62561" cy="131.02845" rx="43.10982" ry="45.79067"/></g><path class="k" d="M190.76236,101.988l-.01855,7.06055h-2.19336v-7.585q0-2.9956-2.01953-2.9961h-1.6543l-.51953,2.49024H186.069V103.117h-2.09668a1.783,1.783,0,0,1-1.27832-.50586,1.65126,1.65126,0,0,1-.52929-1.24512,2.39358,2.39358,0,0,1,.01953-.31152l.82715-4.74512h3.67285Q190.76237,96.30933,190.76236,101.988Z"/><path class="k" d="M203.53385,103.13648a3.49294,3.49294,0,0,1-1.86231,3.05273,6.52756,6.52756,0,0,1-3.59082,1.03125,6.43291,6.43291,0,0,1-3.57129-1.03125,3.52137,3.52137,0,0,1-1.8623-3.05273V96.30933h2.19238V102.864a1.93082,1.93082,0,0,0,.03906.44726q2.11524-.52587,2.11524-2.12011V96.30933h2.19336v5.1543q0,2.32764-2.75586,3.44238a5.79542,5.79542,0,0,0,1.57812.15527,4.45838,4.45838,0,0,0,2.45508-.57324,1.833,1.833,0,0,0,.877-1.624V96.30933h2.19239Z"/><path class="k" d="M182.14811,88.87183q.54492-.02783.97656-.02734a4.0586,4.0586,0,0,1,.71777.05273,2.21893,2.21893,0,0,1,.53418.1709,1.35786,1.35786,0,0,1,.4209.30371,1.54917,1.54917,0,0,1,.36133,1.085v3.54h-.64551V90.449q0-1.0503-1.39258-1.0498-.4204,0-.97265.02734Z"/><path class="k" d="M189.24283,89.81617a.99788.99788,0,0,0-.35254-.30664,1.094,1.094,0,0,0-.52636-.11817,3.27266,3.27266,0,0,0-.541.03907v-.53516a2.584,2.584,0,0,1,.55371-.05078,1.88975,1.88975,0,0,1,.60742.09472,1.50773,1.50773,0,0,1,.51856.30079,1.86382,1.86382,0,0,1,.40527.50878,3.49885,3.49885,0,0,1,.35742,1.71094,4.34185,4.34185,0,0,1-.10058.97363,2.60857,2.60857,0,0,1-.27832.73926,1.90416,1.90416,0,0,1-.42578.50782,1.64136,1.64136,0,0,1-.53711.30078,2.04228,2.04228,0,0,1-1.2295,0,1.647,1.647,0,0,1-.53613-.30078,1.8862,1.8862,0,0,1-.42578-.50782,2.60827,2.60827,0,0,1-.27832-.73926,4.33944,4.33944,0,0,1-.10156-.97363V88.92261h.66894v2.53711a3.39357,3.39357,0,0,0,.26074,1.41992,1.108,1.108,0,0,0,.40137.47852,1.05515,1.05515,0,0,0,.59082.1709,1.21733,1.21733,0,0,0,.55762-.11621,1.03384,1.03384,0,0,0,.37012-.3086,1.64121,1.64121,0,0,0,.23144-.46875,3.7779,3.7779,0,0,0,.15918-1.17578c0-.22754-.00879-.43457-.02734-.61914a3.06106,3.06106,0,0,0-.1084-.55664A1.59727,1.59727,0,0,0,189.24283,89.81617Z"/><path class="k" d="M192.93814,88.84449a1.74448,1.74448,0,0,1,1.42969.64844,3.085,3.085,0,0,1,.52637,1.96679,4.34125,4.34125,0,0,1-.10059.97363,2.608,2.608,0,0,1-.27832.73926,1.90379,1.90379,0,0,1-.42578.50782,1.64126,1.64126,0,0,1-.53711.30078,2.03907,2.03907,0,0,1-1.22851,0,1.64116,1.64116,0,0,1-.53711-.30078,1.90379,1.90379,0,0,1-.42578-.50782,2.608,2.608,0,0,1-.27832-.73926,4.33883,4.33883,0,0,1-.10157-.97363,4.05632,4.05632,0,0,1,.166-1.24414,2.15264,2.15264,0,0,1,.41015-.78125l-.498.03125v-.55469Q191.87955,88.845,192.93814,88.84449Zm-1.13769,1.47461a4.30343,4.30343,0,0,0-.15039,1.07031,5.03064,5.03064,0,0,0,.06055.83984,2.6535,2.6535,0,0,0,.20019.65235,1.16706,1.16706,0,0,0,1.65332.47656,1.09946,1.09946,0,0,0,.40039-.47852,3.39342,3.39342,0,0,0,.26074-1.41992,2.78954,2.78954,0,0,0-.373-1.63574,1.017,1.017,0,0,0-.374-.30469,1.18526,1.18526,0,0,0-.54-.11621l-.69628.00781A2.17644,2.17644,0,0,0,191.80045,90.3191Z"/><path class="k" d="M199.30924,88.92261v1.64844a4.81,4.81,0,0,1-.02735.55664,2.4813,2.4813,0,0,1-.1123.49316,1.19579,1.19579,0,0,1-.74316.752l.96875,1.624h-.72754l-1.22559-2.12012-.59082-.89648a.78451.78451,0,0,0-.22559.11816,1.242,1.242,0,0,0-.36914,1.01465v1.88379H195.61V92.34839a2.52812,2.52812,0,0,1,.25293-1.27734,1.23048,1.23048,0,0,1,.28223-.31738,1.4154,1.4154,0,0,1,.43359-.2334l-.96484-1.59766h.73144l1.15137,1.96289.64941,1.01856a.99581.99581,0,0,0,.29395-.24317,1.079,1.079,0,0,0,.15918-.34277,1.79511,1.79511,0,0,0,.06445-.51074V88.92261Z"/><path class="k" d="M202.45963,88.84449a1.34235,1.34235,0,0,1,1.10254.44824,1.89394,1.89394,0,0,1,.36816,1.23535v3.46875h-1.71191V93.489h1.06543V90.55543q0-1.16016-1.04981-1.16016a1.03765,1.03765,0,0,0-.35937.06445,1.197,1.197,0,0,0-.29785.15528,1.85633,1.85633,0,0,0-.36133.34668l-.04688.0625-.37011,3.97265h-.64942l.36621-3.90137v-.08691a2.92129,2.92129,0,0,0-.05468-.36133,2.2646,2.2646,0,0,0-.13672-.48047l-.10059-.24414h.64941a1.79066,1.79066,0,0,1,.17872.53516h.02734a1.703,1.703,0,0,1,.48633-.40137,2.03757,2.03757,0,0,1,.38867-.14551A1.91094,1.91094,0,0,1,202.45963,88.84449Z"/><path class="b" d="M197.71989,63.3151c0,2.22032-2.17126,5.65192-4.84965,5.65192s-4.84964-3.4316-4.84964-5.65192,2.17126-8.0225,4.84964-8.0225S197.71989,61.09479,197.71989,63.3151Z"/><path class="b" d="M193.24836,78.15148a83.76844,83.76844,0,0,0,.35749,8.69269h-2.32463c.409-2.88743.85583-5.85422.988-8.577a40.90924,40.90924,0,0,0-.68583-9.46775q-.20547-1.11572-.48475-2.32092l3.04349,1.23856q-.07722.48-.1564,1.02411A72.62955,72.62955,0,0,0,193.24836,78.15148Z"/><path class="b" d="M206.20524,57.95606l-4.23364,14.612a.536.536,0,0,1-1.04509.04643,14.57883,14.57883,0,0,1-.487-6.59714,13.49664,13.49664,0,0,1,4.93914-8.75544C205.81551,56.92927,206.36808,57.394,206.20524,57.95606Z"/><path class="b" d="M199.8751,80.29687c-.60949,2.9238-.99847,5.6385-1.27431,8.074l-1.915-.42594c.858-2.58523,1.76155-5.23663,2.36178-7.7209a42.84877,42.84877,0,0,0,1.14369-8.8482q.0321-1.06555.01954-2.22707l2.28365,1.69874q-.15024.428-.31366.91484A75.30013,75.30013,0,0,0,199.8751,80.29687Z"/><polygon class="b" points="183.122 67.695 182.438 67.813 181.754 67.931 181.136 62.178 180.518 56.425 181.82 62.06 183.122 67.695"/><polygon class="b" points="185.54 67.274 184.856 67.391 184.172 67.509 183.554 61.756 182.936 56.003 184.238 61.638 185.54 67.274"/><polygon class="b" points="184.315 67.48 183.631 67.598 182.947 67.716 182.329 61.962 181.711 56.209 183.013 61.845 184.315 67.48"/><polygon class="b" points="186.697 67.085 186.013 67.203 185.329 67.321 184.711 61.568 184.093 55.815 185.395 61.45 186.697 67.085"/><polygon class="b" points="185.369 71.927 183.554 69.913 181.739 67.9 184.243 67.436 186.746 66.972 186.058 69.449 185.369 71.927"/><path class="b" d="M187.37686,78.31214c.66937,2.83661,1.42233,5.39851,2.15219,7.66721l-1.58633.4005c-.35477-2.63772-.70111-5.35252-1.20867-7.79617a48.5128,48.5128,0,0,0-2.5464-8.29975q-.38512-.9566-.84028-1.98l2.34877.57687q.05266.44006.11809.93749A86.25188,86.25188,0,0,0,187.37686,78.31214Z"/><path class="e" d="M91.95572,31.34839H89.7858l8.05469-5.457h2.16992Zm12.29492,0h-2.16992l10.2168-6.92187c.47559-.32129.38574-.48242-.26465-.48242H100.53482l1.42676-.96582h12.47461c.627,0,.99317.10254,1.10254.30566q.16407.30615-.4541.72461Z"/><path class="e" d="M123.55143,31.34839h-2.53125l-.90528-5.32812q-2.94141.32226-9.34082,4.3623h3.51953l-1.42578.96582h-4.41992q-.65332,0-.456-.35449a1.55368,1.55368,0,0,1,.58886-.5957,31.73161,31.73161,0,0,1,11.42969-5.167l-.667-2.124.26269-.1289h2.64649l.73437,4.07226q6.22705-1.7871,7.3916-2.57519.78369-.53175.02149-.53125h-2.93945l1.42675-.96582h3.7461q2.2705,0,.4873,1.207-1.9248,1.30371-9.96,3.55762l.60449,3.46Z"/><path class="e" d="M141.89518,31.34839h-10.2754l1.42579-.96582H141.151l5.79688-3.92773q3.706-2.51075-.292-2.51074a17.13218,17.13218,0,0,0-4.458.62793,18.74589,18.74589,0,0,0-4.13965,1.56054l-9.54394,5.21582h-2.168l9.57715-5.21582q.917-.498,1.15625-.65918a2.09355,2.09355,0,0,0,1.043-1.36816l.07129-1.12695h2.459a2.06821,2.06821,0,0,1-.66016,1.81836,30.3229,30.3229,0,0,1,4.34668-1.35157,20.823,20.823,0,0,1,4.37793-.46679q2.92969,0,2.8418,1.01465-.04248.83642-2.085,2.2207Z"/><path class="e" d="M168.88834,25.45679l-8.73145,5.8916h-2.13476l8.55371-5.79492q1.23486-.83643,1.0791-1.22265c-.10254-.25782-.76074-.38672-1.96973-.38672h-7.61914l-10.92871,7.40429h-2.16992l13.04395-8.83691h2.16992l-.68848.4668h7.59375Q172.54753,22.97828,168.88834,25.45679Z"/><path class="e" d="M94.87174,88.7732H92.68033v-11.126q0-.77637-.98633-.77637H80.08072V75.3191H92.68033a2.4552,2.4552,0,0,1,1.57031.49121,1.45144,1.45144,0,0,1,.6211,1.16406Zm-12.418,0H80.26334V80.00171h2.19043Z"/><path class="e" d="M114.36588,88.7732h-2.55664l-8.85742-8.56445q-2.49171.51855-2.93164,7.01171h3.55468V88.7732H99.11a1.07034,1.07034,0,0,1-.98828-.56934,1.69161,1.69161,0,0,1-.293-.957q0-6.59766,3.84082-8.30566l-3.84082-3.415.07324-.207h2.67383l6.81152,6.5459q3.627-2.87256,3.626-4.13965,0-.854-.76953-.8545H107.276V75.3191h3.78321q2.291,0,2.292,1.94043,0,2.09472-4.75586,5.71777l5.77051,5.56348Z"/><path class="e" d="M132.89127,88.7732H122.51334V87.22046h8.18652V80.908q0-4.0371-4.03906-4.03711a6.00089,6.00089,0,0,0-3.56543,1.00977,4.20364,4.20364,0,0,0-1.85547,2.50977l-1.8623,8.38281h-2.19141l1.89942-8.38281a6.22866,6.22866,0,0,0,.18261-1.06153,3.50068,3.50068,0,0,0-.98633-2.19922l-1.60644-1.81054h2.4834a7.86606,7.86606,0,0,1,2.04492,2.92383,6.67982,6.67982,0,0,1,2.374-2.17383,8.27294,8.27294,0,0,1,3.72559-.75,5.51432,5.51432,0,0,1,4.38183,1.62988,5.14838,5.14838,0,0,1,1.20606,3.57031Z"/><path class="e" d="M151.37076,79.30347l-.03613,9.46973h-2.15527V79.45875a2.44192,2.44192,0,0,0-.7334-1.9668,4.0285,4.0285,0,0,0-2.56446-.6211h-7.69531V88.7732h-2.19141V74.56812h2.19141v.751h7.66895Q151.37027,75.3191,151.37076,79.30347Z"/><polygon class="n" points="291.892 54.99 239.402 90.886 239.402 57.429 291.892 21.532 291.892 54.99"/><polygon class="o" points="262.798 72.397 258.827 75.112 258.827 46.634 262.798 43.919 262.798 72.397"/><polygon class="o" points="265.474 70.566 263.489 71.924 263.489 43.446 265.474 42.088 265.474 70.566"/><polygon class="o" points="272.575 65.71 271.582 66.389 271.582 37.911 272.575 37.232 272.575 65.71"/><polygon class="o" points="271.112 66.711 268.599 68.429 268.599 39.951 271.112 38.233 271.112 66.711"/><polygon class="o" points="267.891 68.913 265.906 70.271 265.906 41.793 267.891 40.435 267.891 68.913"/><polygon class="o" points="277.474 62.36 273.503 65.076 273.503 36.598 277.474 33.882 277.474 62.36"/><polygon class="o" points="280.15 60.529 278.165 61.887 278.165 33.409 280.15 32.051 280.15 60.529"/><polygon class="o" points="287.251 55.673 286.258 56.352 286.258 27.874 287.251 27.195 287.251 55.673"/><polygon class="o" points="285.788 56.674 283.275 58.392 283.275 29.915 285.788 28.196 285.788 56.674"/><polygon class="o" points="282.568 58.876 280.582 60.234 280.582 31.756 282.568 30.398 282.568 58.876"/><polygon class="o" points="248.273 82.33 244.301 85.046 244.301 56.568 248.273 53.852 248.273 82.33"/><polygon class="o" points="250.949 80.5 248.963 81.858 248.963 53.38 250.949 52.022 250.949 80.5"/><polygon class="o" points="258.05 75.644 257.057 76.323 257.057 47.845 258.05 47.166 258.05 75.644"/><polygon class="o" points="256.587 76.644 254.074 78.363 254.074 49.885 256.587 48.166 256.587 76.644"/><polygon class="o" points="253.366 78.847 251.381 80.205 251.381 51.727 253.366 50.369 253.366 78.847"/></svg>