<svg xmlns="http://www.w3.org/2000/svg" xmlns:xlink="http://www.w3.org/1999/xlink" viewBox="0 0 262.68381 106.69877"><defs><style>.a,.g,.h{fill:none;}.b,.f,.o{fill:#231f20;}.c{fill:#cec29b;}.d{fill:#ccc09a;}.e{fill:#dccf9e;}.f,.g,.h{stroke:#f7941d;}.f,.g,.n,.o,.p,.q,.r,.s,.t,.u,.v,.w{stroke-miterlimit:10;}.f,.g,.h,.n{stroke-width:1.396px;}.g,.h{stroke-linecap:round;}.h{stroke-linejoin:round;}.i{clip-path:url(#a);}.j{fill:url(#b);}.k{fill:#f1f2f2;}.l{clip-path:url(#c);}.m{fill:url(#d);}.n{fill:#fff;}.n,.o{stroke:#c49a6c;}.o{stroke-width:0.698px;}.p{fill:#7f7151;}.p,.q,.r,.s,.t,.u,.v,.w{stroke:#231f20;stroke-width:0.75668px;}.q{fill:url(#e);}.r{fill:url(#f);}.s{fill:#ede5ca;}.t{fill:url(#g);}.u{fill:url(#h);}.v{fill:url(#i);}.w{fill:url(#j);}</style><clipPath id="a"><polygon class="a" points="208.036 25.666 166.345 25.666 203.017 2.576 244.708 2.576 208.036 25.666"/></clipPath><radialGradient id="b" cx="-1289.63924" cy="-2666.2231" r="42.44315" gradientTransform="matrix(0.50812, 0, -0.39555, 0.24905, -197.65109, 680.62523)" gradientUnits="userSpaceOnUse"><stop offset="0" stop-color="#ffde17"/><stop offset="1" stop-color="#f5841f"/></radialGradient><clipPath id="c"><rect class="a" x="174.90296" y="36.13699" width="25.60734" height="45.77211"/></clipPath><radialGradient id="d" cx="1455.43902" cy="-149.33871" r="26.06899" gradientTransform="translate(-551.76769 183.98258) scale(0.50812 0.8038)" xlink:href="#b"/><linearGradient id="e" x1="-4.34729" y1="27.34688" x2="72.55663" y2="27.34688" gradientTransform="translate(-10.65759 10.53388) rotate(-28.45484)" gradientUnits="userSpaceOnUse"><stop offset="0" stop-color="#dfd7c8"/><stop offset="0" stop-color="#c49a6c"/><stop offset="0.54082" stop-color="#cec3ab"/><stop offset="1" stop-color="#cec3ab"/><stop offset="1" stop-color="#fcfbf9"/></linearGradient><linearGradient id="f" x1="-22.22599" y1="71.1071" x2="15.11964" y2="71.1071" gradientTransform="translate(-10.65759 10.53388) rotate(-28.45484)" gradientUnits="userSpaceOnUse"><stop offset="0.18878" stop-color="#cec3ab"/><stop offset="1" stop-color="#fcfbf9"/><stop offset="1" stop-color="#fff"/></linearGradient><linearGradient id="g" x1="51.4401" y1="71.86378" x2="89.47428" y2="71.86378" gradientTransform="translate(-10.65759 10.53388) rotate(-28.45484)" gradientUnits="userSpaceOnUse"><stop offset="0.05612" stop-color="#e8e2cf"/><stop offset="0.36224" stop-color="#dbd3ba"/><stop offset="0.66837" stop-color="#e6dcc9"/><stop offset="1" stop-color="#fcfbf9"/><stop offset="1" stop-color="#fff"/></linearGradient><linearGradient id="h" x1="15.11964" y1="71.1071" x2="52.57202" y2="71.1071" gradientTransform="translate(-10.65759 10.53388) rotate(-28.45484)" gradientUnits="userSpaceOnUse"><stop offset="0.2602" stop-color="#e8e2cf"/><stop offset="1" stop-color="#fcfbf9"/><stop offset="1" stop-color="#fff"/></linearGradient><linearGradient id="i" x1="41.38346" y1="71.07668" x2="70.47167" y2="71.07668" gradientTransform="translate(-10.65759 10.53388) rotate(-28.45484)" gradientUnits="userSpaceOnUse"><stop offset="0.05612" stop-color="#e8e2cf"/><stop offset="0.30612" stop-color="#e5dac6"/><stop offset="0.76531" stop-color="#e6dcc9"/><stop offset="1" stop-color="#fcfbf9"/><stop offset="1" stop-color="#fff"/></linearGradient><linearGradient id="j" x1="-3.55317" y1="71.86378" x2="27.37023" y2="71.86378" gradientTransform="translate(-10.65759 10.53388) rotate(-28.45484)" gradientUnits="userSpaceOnUse"><stop offset="0.18878" stop-color="#cec3ab"/><stop offset="0.60714" stop-color="#ddd4bd"/><stop offset="1" stop-color="#fcfbf9"/><stop offset="1" stop-color="#fff"/></linearGradient></defs><polygon class="b" points="209.276 32.95 53.205 32.95 106.125 1.61 262.196 1.61 209.276 32.95"/><polygon class="c" points="209.276 32.95 209.679 83.943 262.684 42.777 262.196 1.61 209.276 32.95"/><polygon class="d" points="262.145 1.61 250.483 8.516 94.415 8.516 106.076 1.61 262.145 1.61"/><rect class="e" x="53.60862" y="32.94992" width="156.07067" height="50.99324"/><rect class="b" x="56.23506" y="41.38795" width="149.75304" height="34.11718"/><ellipse class="f" cx="86.39042" cy="24.04003" rx="14.57816" ry="5.89116" transform="translate(-3.27072 22.5882) rotate(-14.62272)"/><path class="g" d="M94.60489,19.01648a12.42075,12.42075,0,0,0-2.98864-.322c-5.33628,0-11.94593,2.42055-14.76307,5.40646s-.775,5.40646,4.56131,5.40646,11.94593-2.42056,14.76307-5.40646c1.19953-1.27139,1.51805-2.44028,1.0764-3.36345"/><line class="h" x1="85.28917" y1="23.16096" x2="85.22254" y2="22.25387"/><path class="h" d="M85.30529,25.88577h.79193a5.00132,5.00132,0,0,0,3.203-1.173l.23116-.245c.91817-.97317.56409-2.09225-1.17512-2.09225-2.96414,0-5.09917,2.14582-6.97641,3.34095a4.552,4.552,0,0,1-1.81865.78553c-1.14456.14436-1.1712-.47917-1.05837-.91424a3.42259,3.42259,0,0,1,.863-1.4868c2.08456-2.20943,6.97536-4.00052,10.92393-4.00052,4.00762,0,5.50432,1.84506,3.27918,4.09991-2.1077,2.13584-6.87459,3.86972-10.72157,3.90066a10.05723,10.05723,0,0,1-1.93678-.1544"/><g class="i"><polygon class="b" points="211.248 23.644 169.556 23.644 203.017 2.576 244.708 2.576 211.248 23.644"/><polygon class="b" points="211.248 23.644 169.556 23.644 203.017 2.576 244.708 2.576 211.248 23.644"/><polygon class="j" points="197.665 29.29 165.393 29.29 205.687 3.919 237.959 3.919 197.665 29.29"/><ellipse class="b" cx="179.30723" cy="31.29576" rx="55.8171" ry="14.15155" transform="translate(-2.63303 25.98069) rotate(-8.22719)"/></g><path class="k" d="M192.29215,21.07082l-3.9707,2.48633h-2.49219l4.24219-2.6709q1.67432-1.0547-.62012-1.05469h-1.88086l-1.98242.87646h1.94531l-1.207.76026h-2.38281a2.63552,2.63552,0,0,1-1.16993-.17822c-.21191-.11866-.18164-.26465.09473-.438.05762-.03662.123-.07324.19531-.10987l3.59571-1.67089h4.17383Q195.46793,19.07131,192.29215,21.07082Z"/><path class="k" d="M206.16324,21.47511a10.79443,10.79443,0,0,1-3.82422,1.0752,31.30106,31.30106,0,0,1-4.65722.36328,12.96979,12.96979,0,0,1-3.48145-.36328q-1.45312-.41748-.4082-1.0752l3.81836-2.4038h2.49219l-3.665,2.30761a.92317.92317,0,0,0-.208.15772,8.7516,8.7516,0,0,0,3.58984-.7461L202.55,19.07131h2.49219l-2.88281,1.81494a13.18028,13.18028,0,0,1-5.0586,1.2124c.32325.03613.8916.05469,1.708.05469a20.8916,20.8916,0,0,0,3.11231-.20215,5.24757,5.24757,0,0,0,1.90332-.57227l3.665-2.30761h2.49218Z"/><path class="k" d="M189.841,16.45168c.42383-.00586.79883-.00977,1.125-.00977.32812,0,.58886.00635.78613.019a4.13737,4.13737,0,0,1,.51172.06006.81262.81262,0,0,1,.30762.10694q.19042.13916-.19532.38232l-1.97949,1.24609h-.73437l1.98437-1.249q.5874-.37061-.99609-.36963c-.31836,0-.69043.00293-1.12012.00928Z"/><path class="k" d="M197.37516,16.7842a.38077.38077,0,0,0-.22852-.10791,2.55088,2.55088,0,0,0-.53125-.04151q-.35155,0-.63769.01367l.29882-.188q.28858-.01832.65821-.01856a5.4304,5.4304,0,0,1,.63769.0332,1.44054,1.44054,0,0,1,.42188.10645.27557.27557,0,0,1,.1748.17871c.03321.1499-.15136.35108-.55078.60254a4.64862,4.64862,0,0,1-.66015.34326,6.05107,6.05107,0,0,1-.72754.25977c-.24707.0708-.50391.13086-.76856.1792-.2666.04834-.52539.084-.7793.10547q-.37793.03369-.75.03369a5.39363,5.39363,0,0,1-.64648-.03369,1.61732,1.61732,0,0,1-.44141-.10547.32227.32227,0,0,1-.20019-.1792c-.02149-.06983.01172-.15674.09668-.25977a1.92423,1.92423,0,0,1,.43164-.34326l1.418-.89258h.75976l-1.418.89258c-.31835.20068-.48632.36768-.499.5-.00781.07275.05371.12842.18945.16846a2.082,2.082,0,0,0,.57422.06006,5.55135,5.55135,0,0,0,.69922-.04053,4.90886,4.90886,0,0,0,.59278-.10889,4.75605,4.75605,0,0,0,.52539-.16455,4.63455,4.63455,0,0,0,.83984-.41455c.12695-.08008.23144-.15283.31445-.21777a.81378.81378,0,0,0,.18653-.19629A.14158.14158,0,0,0,197.37516,16.7842Z"/><path class="k" d="M202.12027,16.44191a2.11326,2.11326,0,0,1,1.25977.22852c.1582.15234-.00977.3833-.5.69238a4.75653,4.75653,0,0,1-.66016.34326,5.95953,5.95953,0,0,1-.72949.25977,7.76353,7.76353,0,0,1-.76855.1792q-.397.07251-.77735.10547-.38085.03369-.75.03369a5.39363,5.39363,0,0,1-.64648-.03369,1.58153,1.58153,0,0,1-.44141-.10547.31706.31706,0,0,1-.20019-.1792c-.02344-.06983.00976-.15674.09668-.25977a1.90549,1.90549,0,0,1,.42968-.34326,4.9899,4.9899,0,0,1,.88282-.438,6.64405,6.64405,0,0,1,.90332-.2749l-.584.01123.31055-.19531C200.59391,16.44972,201.31754,16.44191,202.12027,16.44191Zm-2.11816.51953a5.221,5.221,0,0,0-.77051.37647,2.50128,2.50128,0,0,0-.39941.29638.39686.39686,0,0,0-.1377.2295c-.00879.07177.05469.12744.18848.16748a2.30248,2.30248,0,0,0,.61719.06006,5.27223,5.27223,0,0,0,.80664-.06006,4.48546,4.48546,0,0,0,.72265-.16846,4.85289,4.85289,0,0,0,1.09082-.5c.42188-.26563.584-.45752.48926-.57568a.45089.45089,0,0,0-.2539-.10743,2.8481,2.8481,0,0,0-.54786-.041l-.79785.00293A6.26,6.26,0,0,0,200.00211,16.96144Z"/><path class="k" d="M209.31363,16.47023l-.92187.58008c-.11914.0752-.2334.14111-.33984.1958a4.15172,4.15172,0,0,1-.4043.17383,5.18838,5.18838,0,0,1-1.26465.26465l.19141.57177h-.82618l-.207-.74658-.1709-.31543c-.13867.01367-.24707.02783-.32128.041a2.76666,2.76666,0,0,0-.98731.35742l-1.05371.66357h-.73438l.9209-.58007a3.822,3.822,0,0,1,1.002-.4502c.1416-.03955.30664-.07715.49707-.11133.19433-.03466.40234-.0625.626-.08252l-.20507-.562h.832l.21093.69092.169.3584c.19434-.02735.35059-.05615.4707-.08594a2.79457,2.79457,0,0,0,.3711-.1206,2.14153,2.14153,0,0,0,.36035-.18018l1.05273-.6626Z"/><path class="k" d="M212.93863,16.44191a1.82137,1.82137,0,0,1,1.002.1582c.11035.105.0205.25049-.27149.43457l-1.94043,1.22168h-1.94531l.2832-.17822h1.21094l1.6416-1.03369q.64746-.408-.54492-.4082c-.13867,0-.28809.00781-.44434.02295-.15917.01513-.30078.0332-.42675.05468-.26758.04639-.46973.08789-.60352.12159l-.08789.02246-2.6416,1.39843h-.73828l2.59765-1.37353.04883-.03076a1.08086,1.08086,0,0,0,.13965-.12744.39364.39364,0,0,0,.11328-.16846l.02149-.08594h.73828c.01465.041-.01856.104-.09571.18848h.03125a7.87212,7.87212,0,0,1,.77735-.1416c.13965-.01856.31347-.03565.52246-.05127C212.53336,16.44972,212.73942,16.44191,212.93863,16.44191Z"/><path class="b" d="M221.82736,7.45319a22.47273,22.47273,0,0,1-8.672,1.9901c-3.04377,0-3.59218-1.2083-2.35051-1.9901s6.95388-2.82481,9.99766-2.82481S223.069,6.67139,221.82736,7.45319Z"/><path class="b" d="M208.44889,12.67723a49.92182,49.92182,0,0,0-4.455,3.06079h-2.64176c2.07951-1.0167,4.24644-2.06133,5.91925-3.02006a21.58874,21.58874,0,0,0,4.51525-3.33369c.2603-.26191.51111-.53451.74705-.81722l2.76605.43611c-.23744.11266-.48828.23306-.75044.3606C212.85432,10.18841,210.6629,11.32075,208.44889,12.67723Z"/><path class="b" d="M234.46722,5.56621l-12.98266,5.145c-.50243.19911-1.32253.21065-1.21363.01635a7.19068,7.19068,0,0,1,3.13587-2.32293A42.14541,42.14541,0,0,1,233.91605,5.3218C234.59854,5.20467,234.96658,5.36832,234.46722,5.56621Z"/><path class="b" d="M214.77988,13.43265c-2.32771,1.0295-4.28791,1.98537-5.96336,2.84293l-1.938-.15c2.4208-.91028,4.93033-1.84387,7.00173-2.71861a52.02684,52.02684,0,0,0,6.24789-3.11554c.42158-.25013.84561-.51162,1.26764-.78417l1.64521.59814c-.2734.10048-.56344.208-.86806.32213C220.20327,11.16542,217.59855,12.18632,214.77988,13.43265Z"/><polygon class="b" points="202.788 8.995 201.945 9.037 201.102 9.079 203.617 7.053 206.132 5.027 204.46 7.011 202.788 8.995"/><polygon class="b" points="205.772 8.847 204.929 8.889 204.086 8.93 206.601 6.904 209.116 4.879 207.444 6.863 205.772 8.847"/><polygon class="b" points="204.265 8.92 203.422 8.961 202.579 9.003 205.094 6.977 207.608 4.951 205.937 6.935 204.265 8.92"/><polygon class="b" points="207.192 8.781 206.349 8.822 205.506 8.864 208.021 6.838 210.536 4.812 208.864 6.796 207.192 8.781"/><polygon class="b" points="202.976 10.486 202.039 9.777 201.103 9.068 204.207 8.904 207.312 8.741 205.144 9.613 202.976 10.486"/><path class="b" d="M201.68654,12.7338a17.15323,17.15323,0,0,0-1.84193,2.69971l-2.02672.141a38.9374,38.9374,0,0,0,2.98629-2.74511A7.53682,7.53682,0,0,0,202.55187,9.907a5.3081,5.3081,0,0,0,.15239-.6972l2.34659.20312c-.12416.1033-.25461.21353-.39007.3301A25.36133,25.36133,0,0,0,201.68654,12.7338Z"/><g class="l"><rect class="b" x="174.90296" y="36.13699" width="25.60734" height="41.76333"/><rect class="b" x="174.90296" y="36.13699" width="25.60734" height="41.76333"/><rect class="m" x="177.85278" y="38.79821" width="19.82158" height="50.29319"/><ellipse class="b" cx="188.35609" cy="93.06825" rx="30.09068" ry="31.96192"/></g><path class="k" d="M186.3566,72.79836l-.01367,4.92773h-1.53027V72.43166q0-2.09034-1.41016-2.09082h-1.1543l-.3623,1.73779h1.19434v1.50684h-1.4629a1.24139,1.24139,0,0,1-.89257-.353,1.15322,1.15322,0,0,1-.36914-.86865,1.80714,1.80714,0,0,1,.01269-.21729l.57813-3.3125h2.56347Q186.35611,68.834,186.3566,72.79836Z"/><path class="k" d="M195.27067,73.59914a2.43957,2.43957,0,0,1-1.29981,2.13135,4.55542,4.55542,0,0,1-2.50586.71972,4.488,4.488,0,0,1-2.49316-.71972,2.45844,2.45844,0,0,1-1.29981-2.13135V68.834h1.53028v4.5752a1.33588,1.33588,0,0,0,.02734.312q1.47656-.36621,1.47656-1.47949V68.834h1.53028v3.59766a2.57212,2.57212,0,0,1-1.92286,2.40283,4.01989,4.01989,0,0,0,1.10157.10889,3.11574,3.11574,0,0,0,1.71386-.40088,1.27843,1.27843,0,0,0,.61133-1.1333V68.834h1.53028Z"/><path class="k" d="M180.34586,63.64308c.25293-.01269.48047-.019.68066-.019a2.8451,2.8451,0,0,1,.501.03662,1.54353,1.54353,0,0,1,.374.11963.96387.96387,0,0,1,.293.21143,1.08505,1.08505,0,0,1,.252.75781v2.4707h-.4502V64.74416q0-.73315-.97168-.7334c-.19629,0-.42187.00684-.67871.01953Z"/><path class="k" d="M185.298,64.30177a.69136.69136,0,0,0-.24609-.21386.765.765,0,0,0-.36817-.08252,2.31829,2.31829,0,0,0-.37695.02734v-.373a1.79238,1.79238,0,0,1,.38672-.03564,1.32886,1.32886,0,0,1,.42382.06592,1.05574,1.05574,0,0,1,.36231.21,1.29333,1.29333,0,0,1,.28223.35547,2.43341,2.43341,0,0,1,.25,1.19433,3.03906,3.03906,0,0,1-.07032.6792,1.86179,1.86179,0,0,1-.19433.51612,1.33055,1.33055,0,0,1-.29785.354,1.13391,1.13391,0,0,1-.374.21045,1.44042,1.44042,0,0,1-.8584,0,1.134,1.134,0,0,1-.374-.21045,1.31266,1.31266,0,0,1-.29785-.354,1.86179,1.86179,0,0,1-.19434-.51612,3.03967,3.03967,0,0,1-.07031-.6792v-1.771h.4668v1.771a2.35782,2.35782,0,0,0,.18261.99073.76485.76485,0,0,0,.2793.33349.73447.73447,0,0,0,.41211.11963.84587.84587,0,0,0,.38965-.081.72247.72247,0,0,0,.25879-.21534,1.172,1.172,0,0,0,.16113-.32666,2.64313,2.64313,0,0,0,.11133-.8208c0-.15966-.00684-.30371-.01953-.43261a2.12382,2.12382,0,0,0-.0752-.38868A1.11257,1.11257,0,0,0,185.298,64.30177Z"/><path class="k" d="M187.87613,63.624a1.21811,1.21811,0,0,1,.99805.45264,2.15116,2.15116,0,0,1,.36719,1.373,3.03967,3.03967,0,0,1-.07031.6792,1.80239,1.80239,0,0,1-.19434.51612,1.30941,1.30941,0,0,1-.29688.354,1.138,1.138,0,0,1-.375.21045,1.43721,1.43721,0,0,1-.85742,0,1.14787,1.14787,0,0,1-.375-.21045,1.32744,1.32744,0,0,1-.29687-.354,1.80239,1.80239,0,0,1-.19434-.51612,3.03967,3.03967,0,0,1-.07031-.6792,2.83519,2.83519,0,0,1,.11523-.86914,1.50215,1.50215,0,0,1,.28614-.54492l-.34766.022v-.3872Q187.13737,63.62356,187.87613,63.624Zm-.79394,1.0293a3.00881,3.00881,0,0,0-.10449.74658,3.47142,3.47142,0,0,0,.042.58643,1.83774,1.83774,0,0,0,.13965.45556.76821.76821,0,0,0,.28027.332.783.783,0,0,0,1.15332-.33349,2.37408,2.37408,0,0,0,.18164-.99073,1.94575,1.94575,0,0,0-.26074-1.14209.7022.7022,0,0,0-.25977-.21289.83754.83754,0,0,0-.37793-.08105l-.48535.00537A1.5057,1.5057,0,0,0,187.08219,64.65334Z"/><path class="k" d="M192.32438,63.67873v1.15039a3.39691,3.39691,0,0,1-.01954.38818,1.80268,1.80268,0,0,1-.07812.34473.83723.83723,0,0,1-.51855.52441l.67578,1.13379h-.50782l-.85546-1.48-.41211-.62549a.56543.56543,0,0,0-.15821.082.86781.86781,0,0,0-.25781.7085v1.31494h-.4502V66.06984a1.76881,1.76881,0,0,1,.17579-.89209.87974.87974,0,0,1,.19726-.22119.96451.96451,0,0,1,.30274-.16309l-.67286-1.11474h.50977l.80371,1.37012.45313.71093a.6997.6997,0,0,0,.20507-.17041.725.725,0,0,0,.11133-.23877,1.247,1.247,0,0,0,.04492-.35693V63.67873Z"/><path class="k" d="M194.52262,63.624a.936.936,0,0,1,.76953.313,1.32115,1.32115,0,0,1,.25684.86182v2.42138h-1.19434v-.354h.74316V64.81789q0-.80933-.73242-.80957a.72082.72082,0,0,0-.251.04541.76914.76914,0,0,0-.208.1084,1.3424,1.3424,0,0,0-.25293.24121l-.03223.04394-.25781,2.77295h-.45313l.25489-2.72314v-.06055a1.99315,1.99315,0,0,0-.03809-.25244,1.59145,1.59145,0,0,0-.09473-.335l-.07129-.17041h.45411a1.28671,1.28671,0,0,1,.125.37353h.01855a1.163,1.163,0,0,1,.33984-.28027,1.36073,1.36073,0,0,1,.27149-.10156A1.30208,1.30208,0,0,1,194.52262,63.624Z"/><path class="b" d="M191.21391,45.8043c0,1.54978-1.51554,3.945-3.38506,3.945s-3.385-2.39526-3.385-3.945,1.51554-5.59971,3.385-5.59971S191.21391,44.25452,191.21391,45.8043Z"/><path class="b" d="M188.09278,56.1601a58.46805,58.46805,0,0,0,.24952,6.0675h-1.62259c.28546-2.01543.59737-4.08625.68959-5.98676a28.55476,28.55476,0,0,0-.47871-6.6085q-.14342-.77877-.33836-1.62l2.12436.86451q-.0539.335-.10916.71483A50.69532,50.69532,0,0,0,188.09278,56.1601Z"/><path class="b" d="M197.13669,42.06368l-2.95509,10.1992a.37412.37412,0,0,1-.72947.03241,10.17624,10.17624,0,0,1-.33994-4.60481,9.42067,9.42067,0,0,1,3.44753-6.11131C196.86465,41.347,197.25035,41.67139,197.13669,42.06368Z"/><path class="b" d="M192.71824,57.65759c-.42542,2.0408-.69693,3.93567-.88946,5.63565l-1.33667-.29732c.59889-1.80449,1.22956-3.65516,1.64852-5.38919a29.90809,29.90809,0,0,0,.7983-6.176q.02241-.74375.01364-1.55449l1.594,1.18572q-.10486.29877-.21894.63856A52.56124,52.56124,0,0,0,192.71824,57.65759Z"/><polygon class="b" points="181.024 48.862 180.547 48.944 180.07 49.026 179.638 45.011 179.207 40.995 180.116 44.928 181.024 48.862"/><polygon class="b" points="182.712 48.567 182.235 48.65 181.758 48.732 181.326 44.716 180.895 40.7 181.804 44.634 182.712 48.567"/><polygon class="b" points="181.857 48.711 181.38 48.794 180.903 48.876 180.471 44.86 180.04 40.844 180.949 44.778 181.857 48.711"/><polygon class="b" points="183.52 48.436 183.042 48.518 182.565 48.601 182.134 44.585 181.702 40.569 182.611 44.503 183.52 48.436"/><polygon class="b" points="182.593 51.815 181.326 50.41 180.06 49.004 181.807 48.68 183.554 48.357 183.074 50.086 182.593 51.815"/><path class="b" d="M183.99447,56.27224c.46722,1.98.99279,3.76817,1.50223,5.35172l-1.10726.27955c-.24764-1.84113-.48938-3.73607-.84366-5.44173a33.86213,33.86213,0,0,0-1.77738-5.79323q-.26883-.66771-.58652-1.38208l1.63944.40265q.03677.30715.08243.65438A60.20457,60.20457,0,0,0,183.99447,56.27224Z"/><path class="e" d="M117.37125,23.52248h-1.51367l5.62207-3.8086h1.51367Zm8.582,0h-1.51367l7.13086-4.83106q.498-.33692-.18457-.33691h-8.02734l.99609-.67432h8.709c.4375,0,.69336.07129.77051.21387.07422.14258-.03125.31055-.31933.50537Z"/><path class="e" d="M139.42594,23.52248h-1.76563l-.63183-3.71875q-2.05371.22485-6.52149,3.04443h2.457l-.99511.67432H128.883c-.30273,0-.41016-.082-.31934-.24707a1.0957,1.0957,0,0,1,.41309-.41553,22.15249,22.15249,0,0,1,7.97754-3.60645L136.48942,17.77l.18359-.08985h1.84766l.51074,2.84278a26.51167,26.51167,0,0,0,5.15918-1.79737c.36523-.24756.36914-.37109.01562-.37109h-2.05078l.99609-.67432h2.61329q1.585,0,.33886.84326-1.3418.90967-6.95117,2.48194l.42285,2.41553Z"/><path class="e" d="M152.22867,23.52248H145.0568l.99512-.67432h5.6582l4.0459-2.74072q2.58837-1.75342-.2041-1.75293a11.9515,11.9515,0,0,0-3.11133.43848,13.05951,13.05951,0,0,0-2.88965,1.08935l-6.66211,3.64014h-1.51367l6.68554-3.64014q.64014-.34789.80762-.46094a1.46,1.46,0,0,0,.72754-.95459l.04981-.78662h1.71679a1.44848,1.44848,0,0,1-.46094,1.27,21.05561,21.05561,0,0,1,3.03418-.94385,14.51812,14.51812,0,0,1,3.05567-.32617q2.04492,0,1.98437.708-.03222.58448-1.457,1.55029Z"/><path class="e" d="M171.06949,19.41066l-6.09472,4.11182h-1.48828l5.96972-4.04444q.8628-.58446.75293-.854-.10839-.26954-1.374-.26953h-5.31836l-7.62793,5.168H154.3732l9.1045-6.168h1.51562l-.48047.32568h5.30078Q173.62516,17.68019,171.06949,19.41066Z"/><path class="e" d="M119.42594,63.57375h-1.53027V55.80812q0-.542-.6875-.542h-8.10645v-1.0835h8.79395a1.7132,1.7132,0,0,1,1.09667.34278,1.01369,1.01369,0,0,1,.4336.813Zm-8.668,0h-1.5293V57.45119h1.5293Z"/><path class="e" d="M133.03336,63.57375H131.2482l-6.18164-5.978q-1.74022.36182-2.04589,4.89453h2.48046v1.0835h-3.11621a.7457.7457,0,0,1-.68945-.39746,1.17822,1.17822,0,0,1-.20508-.668q0-4.60546,2.68067-5.79737l-2.68067-2.38378.05078-.14454h1.86621l4.75489,4.56885q2.53125-2.00463,2.53125-2.88916c0-.39746-.17969-.59619-.53711-.59619h-2.07227v-1.0835h2.6416q1.59814,0,1.59961,1.3545,0,1.46263-3.32031,3.99121l4.02832,3.88281Z"/><path class="e" d="M145.96305,63.57375h-7.24317v-1.0835h5.71387V58.08351a2.4913,2.4913,0,0,0-2.81933-2.81738,4.18837,4.18837,0,0,0-2.48829.7041,2.9314,2.9314,0,0,0-1.29492,1.752l-1.30078,5.85157h-1.5293l1.3252-5.85157a4.31574,4.31574,0,0,0,.12793-.74023,2.44113,2.44113,0,0,0-.68848-1.53516l-1.12109-1.26416h1.7334a5.48883,5.48883,0,0,1,1.42675,2.04053,4.68119,4.68119,0,0,1,1.65723-1.51709,5.77639,5.77639,0,0,1,2.60059-.52344,3.84851,3.84851,0,0,1,3.05859,1.1377,3.59221,3.59221,0,0,1,.8418,2.49219Z"/><path class="e" d="M158.86246,56.96388l-.02539,6.60987h-1.5039V57.07228a1.7001,1.7001,0,0,0-.5127-1.37256,2.81078,2.81078,0,0,0-1.79-.43359h-5.37109v8.30762H148.13v-9.915h1.5293v.52392h5.35351Q158.86247,54.18263,158.86246,56.96388Z"/><polygon class="n" points="256.946 39.993 220.308 65.049 220.308 41.695 256.946 16.64 256.946 39.993"/><polygon class="o" points="236.638 52.143 233.866 54.039 233.866 34.161 236.638 32.266 236.638 52.143"/><polygon class="o" points="238.506 50.866 237.12 51.813 237.12 31.936 238.506 30.988 238.506 50.866"/><polygon class="o" points="243.463 47.476 242.77 47.95 242.77 28.072 243.463 27.598 243.463 47.476"/><polygon class="o" points="242.442 48.174 240.688 49.374 240.688 29.496 242.442 28.297 242.442 48.174"/><polygon class="o" points="240.194 49.712 238.808 50.66 238.808 30.782 240.194 29.834 240.194 49.712"/><polygon class="o" points="246.882 45.137 244.111 47.033 244.111 27.155 246.882 25.26 246.882 45.137"/><polygon class="o" points="248.751 43.86 247.365 44.808 247.365 24.93 248.751 23.982 248.751 43.86"/><polygon class="o" points="253.707 40.47 253.014 40.944 253.014 21.067 253.707 20.593 253.707 40.47"/><polygon class="o" points="252.686 41.169 250.932 42.368 250.932 22.491 252.686 21.291 252.686 41.169"/><polygon class="o" points="250.438 42.706 249.052 43.654 249.052 23.776 250.438 22.828 250.438 42.706"/><polygon class="o" points="226.5 59.077 223.728 60.972 223.728 41.095 226.5 39.199 226.5 59.077"/><polygon class="o" points="228.368 57.799 226.982 58.747 226.982 38.869 228.368 37.922 228.368 57.799"/><polygon class="o" points="233.324 54.41 232.631 54.884 232.631 35.006 233.324 34.532 233.324 54.41"/><polygon class="o" points="232.303 55.108 230.549 56.308 230.549 36.43 232.303 35.23 232.303 55.108"/><polygon class="o" points="230.055 56.645 228.669 57.593 228.669 37.716 230.055 36.768 230.055 56.645"/><path class="p" d="M55.60171,88.98226c-3.24654,2.69741-4.07452,6.21147-2.35682,7.643,1.926,1.60518,6.70619.30329,5.85486,2.238-.92788,2.10865-7.33331,5.30709-7.094,5.75424.33172.6199,13.31163-4.27568,19.5096-10.25465,3.15444-3.043,3.14931-5.0133,3.12577-5.65956-.14093-3.86923-7.69574-3.37128-7.92577-3.19757A103.66044,103.66044,0,0,1,77.77745,87.8519c4.50153,1.2061,5.53343,1.73118,6.6044,1.12956,2.1017-1.18061,2.38306-5.59307-.32909-8.03117a7.93081,7.93081,0,0,0-3.03562-1.60379c-4.92046-1.41491-12.04421.18559-11.996.13526.10418-.10871,30.68123-4.8048,29.59974-3.62786C97.48894,77.08574,64.84435,81.303,55.60171,88.98226Z"/><path class="q" d="M15.42645,34.65109c-2.70272,5.54123-4.80869,9.15462-5.79372,14.913-.50694,2.96353-1.20668,7.05415.36275,7.65222,2.36108.89976,7.64664-8.63348,10.72853-16.91724,2.0457-5.49859,3.65122-6.97013,5.12187-7.37027,2.3603-.6422,3.56,9.91976,9.97067,11.41541,7.81509,1.82333,9.46793-11.63151,7.78757-16.40115-1.82469-5.17934-9.69553-.36375-9.68732-1.07006.012-1.03806,42.40459-3.26416,42.88762-6.98409.34971-2.6932-20.68456-10.665-38.35728-4.44113-2.772.97621-3.59108-.63781-6.57073-1.67551C24.31784,11.14,23.5011,4.07508,19.62656-1.82348c-2.06187-3.139-12.10189,4.04707-10.021,7.11264,5.501,8.10419,10.56734,5.59938,12.12,13.05377C22.22081,20.7209,19.956,25.3643,15.42645,34.65109Z"/><path class="r" d="M32.288,68.13787A85.32174,85.32174,0,0,0,49.73242,90.9457a5.56139,5.56139,0,0,1-3.33484,9.67586c-19.717,1.2982-35.90615-4.41511-42.716-16.98088S.92372,54.39217,12.77606,38.58184a5.56138,5.56138,0,0,1,9.92723,2.48867A85.322,85.322,0,0,0,32.288,68.13787Z"/><path class="s" d="M72.0512,84.23585c.27542,1.98513-.35966,3.67192-1.808,4.00073a2.50447,2.50447,0,0,0,.51351-.75163C71.2294,86.41974,71.66774,85.33872,72.0512,84.23585Z"/><path class="t" d="M73.635,46.57142A85.32193,85.32193,0,0,0,56.71506,23.37178a5.56139,5.56139,0,0,1,3.55459-9.59731c19.74144-.8483,35.79615,5.23266,42.31771,17.95043s2.09026,29.30379-10.11948,44.83976A5.56139,5.56139,0,0,1,82.6,73.85029,85.32193,85.32193,0,0,0,73.635,46.57142Z"/><path class="u" d="M69.64656,48.402A45.134,45.134,0,0,1,72.0512,84.23585c-.38346,1.10287-.8218,2.18389-1.29454,3.2491a2.50447,2.50447,0,0,1-.51351.75163l-.00666.00361a2.78726,2.78726,0,0,1-.96087.02154q-1.322-.20011-2.62569-.46186A43.82517,43.82517,0,0,1,36.531,65.87516c-6.81042-12.56686-6.65127-27.13779-.87484-39.64933a2.23841,2.23841,0,0,1,1.24254-1.23277,2.01033,2.01033,0,0,1,1.66271-.29867A45.15556,45.15556,0,0,1,69.64656,48.402Z"/><path class="s" d="M70.23649,88.24019c-.87918.85515-2.28312.5832-3.58656-.44032q1.30373.26169,2.62569.46186A2.78726,2.78726,0,0,0,70.23649,88.24019Z"/><path class="v" d="M63.40754,51.22348A110.094,110.094,0,0,0,47.441,27.535c-3.223-3.51728-1.9928-9.0485,1.94606-8.77246,15.91245,1.11516,29.51215,8.455,36.0337,21.1728S89.966,67.98021,81.58524,81.55271c-2.07452,3.35965-7.2841,1.13071-8.25937-3.53921A110.09405,110.09405,0,0,0,63.40754,51.22348Z"/><path class="w" d="M44.14614,62.57215A101.58908,101.58908,0,0,0,60.91478,85.74623c3.4013,3.38929,2.01418,9.10066-2.19451,9.05787C41.71775,94.63126,27.269,87.97475,20.45913,75.409s-4.49828-28.30532,4.63961-42.64459c2.26194-3.54945,7.8043-1.59342,8.78691,3.10664A101.589,101.589,0,0,0,44.14614,62.57215Z"/></svg>