<svg xmlns="http://www.w3.org/2000/svg" xmlns:xlink="http://www.w3.org/1999/xlink" viewBox="0 0 418.45691 265.48498"><defs><style>.a,.k,.l{fill:none;}.b{fill:#ccc49b;}.c{fill:#a89e78;}.d{clip-path:url(#a);}.e{fill:#184551;}.f,.m{fill:#fff;}.g{clip-path:url(#b);}.h{fill:#231f20;}.i{fill:url(#c);}.j{fill:#f1f2f2;}.k,.l,.m{stroke:#f7941d;}.k,.l{stroke-linecap:round;stroke-width:4px;}.k,.m{stroke-miterlimit:10;}.l{stroke-linejoin:round;}.m{stroke-width:3px;}.n{clip-path:url(#d);}</style><clipPath id="a"><path class="a" d="M5.926,244.40493c-.22817-.96636-.447-1.92912-.66218-2.90134A233.33166,233.33166,0,0,1,98.02827,2.71816c.3662-.25553.736-.5204,1.11513-.78167l159.347,131.52112,154.36116,127.401,5.60533,4.62633-207.15-10.58038Z"/></clipPath><clipPath id="b"><rect class="a" x="69.95846" y="167.59888" width="66.69237" height="117.88766" transform="translate(-145.61519 220.85367) rotate(-64.17751)"/></clipPath><radialGradient id="c" cx="272.15684" cy="-890.09667" r="51.09487" gradientTransform="translate(-68.97588 1172.08068) scale(0.67518 1.05623)" gradientUnits="userSpaceOnUse"><stop offset="0" stop-color="#ffde17"/><stop offset="1" stop-color="#f5841f"/></radialGradient><clipPath id="d"><polygon class="a" points="191.415 21.716 99.143 1.683 418.457 265.232 191.415 21.716"/></clipPath></defs><path class="b" d="M5.926,244.4049c-.22817-.96636-.447-1.92912-.66218-2.90134A233.33166,233.33166,0,0,1,98.02827,2.71813c.3662-.25553.736-.5204,1.11513-.78167l159.347,131.52112,154.36116,127.401,5.60533,4.62633-207.15-10.58038Z"/><polygon class="c" points="191.415 21.969 99.143 1.936 418.457 265.485 191.415 21.969"/><g class="d"><rect class="e" x="9.84928" y="106.55606" width="238.47361" height="108.00399" transform="translate(-71.66781 206.81801) rotate(-64.17751)"/><rect class="f" x="42.34042" y="131.73028" width="238.47361" height="89.10069" transform="translate(-67.48194 244.93891) rotate(-64.17751)"/><path class="f" d="M87.65368,163.816a1.99031,1.99031,0,0,1,.4414.35352l1.77442,1.80273,8.40136,4.06641-.82226,1.69922-8.44141-4.084-1.5166-1.67773a1.3322,1.3322,0,0,0-.39551-.29688c-.15918-.07812-.35058-.01757-.57617.17579a2.06531,2.06531,0,0,0-.51562.66015l-.919,1.90039-1.19141-.57617,1.166-2.41016a3.51669,3.51669,0,0,1,1.19043-1.42187A1.34143,1.34143,0,0,1,87.65368,163.816Z"/><path class="f" d="M91.71032,154.72223l-1.34473,2.77735,9.82227,3.0039-.82325,1.70118-9.82226-3.00391L88.431,161.49762l-1.19141-.57617,3.2793-6.77539Z"/><path class="f" d="M107.87047,144.62848l-3.89843,8.05469-1.19141-.57617,3.07422-6.35352-4.8457-2.3457q-3.09961-1.5-4.61524,1.63477a5.216,5.216,0,0,0-.56445,3.14453,3.57992,3.57992,0,0,0,1.22949,2.37109l5.73535,4.56055-.82226,1.70117-5.72266-4.58984a5.16285,5.16285,0,0,0-.74609-.53516,2.966,2.966,0,0,0-2.0586-.05078l-1.99316.57422.93262-1.92774a6.6918,6.6918,0,0,1,3.01269-.502,5.73831,5.73831,0,0,1-.77637-2.65039,7.19053,7.19053,0,0,1,.82325-3.16992,4.78478,4.78478,0,0,1,2.89746-2.79688,4.3697,4.3697,0,0,1,3.19336.39063Z"/><path class="f" d="M113.74254,132.49372l-.82324,1.70117-7.48828-3.623a1.78159,1.78159,0,0,0-1.49414-.18164,3.22519,3.22519,0,0,0-1.21094,1.56641l-2.92187,6.03906-1.19141-.57617,3.16895-6.54883q1.63183-3.375,4.11523-2.17187Z"/><path class="f" d="M115.01208,116.24372a6.00865,6.00865,0,0,1,2.87792,2.9707,5.51226,5.51226,0,0,1-.11816,4.95313l-2.707,5.59375-1.19238-.57813,2.63867-5.45117a3.81545,3.81545,0,0,0-.02344-3.44727,4.73055,4.73055,0,0,0-2.29883-2.33984,4.50654,4.50654,0,0,0-2.91113-.4668,3.97284,3.97284,0,0,0-2.7002,2.38672l-1.585,3.27539L109.724,125.65a.70178.70178,0,0,0,.165.11719c.26465.1289.49316-.00782.68652-.40625l1.33789-2.76563,1.19239.57617-1.53711,3.17578a2.70918,2.70918,0,0,1-1.02247,1.20118,1.20125,1.20125,0,0,1-1.19726.09179,1.302,1.302,0,0,1-.26367-.16406l-4.02539-3.38086,2.44238-5.04687a5.55836,5.55836,0,0,1,3.60352-3.18946A5.4658,5.4658,0,0,1,115.01208,116.24372Z"/><path class="f" d="M132.91833,92.86481l-.82325,1.70117-7.64746-3.69922a1.42893,1.42893,0,0,0-1.33008.08985,2.595,2.595,0,0,0-1.14648,1.23047l-2.30469,4.76172,7.96485,3.85546q1.17188.56544.335,2.29493l-1.15235,2.38281-1.19238-.57813,1.166-2.4082L118.84313,98.65l-1.05664,2.18359-1.19141-.57617,4.32129-8.93164A4.73255,4.73255,0,0,1,122.7943,89.191a2.26277,2.26277,0,0,1,2.19922-.16015Z"/><path class="f" d="M137.22594,83.96442l-3.27929,6.77539-1.19141-.57617,2.42773-5.01758L128.055,82.49958c-.791-.28711-1.42968.0664-1.91406,1.06836l-1.07031,2.21093-1.19141-.57617L125.43,81.99958a3.03521,3.03521,0,0,1,1.24512-1.40821,1.703,1.703,0,0,1,1.48828-.13867Z"/><path class="f" d="M132.41442,72.32966a5.474,5.474,0,0,1,.69824.47851l3.54981,2.69531-.82325,1.70118-3.3164-2.61915a3.02541,3.02541,0,0,0-.56836-.34375,1.01046,1.01046,0,0,0-.95215.11524,1.9597,1.9597,0,0,0-.82813.87695l-1.166,2.41016-1.19141-.57617,1.34473-2.7793a4.00016,4.00016,0,0,1,1.5293-1.74414A1.754,1.754,0,0,1,132.41442,72.32966Z"/><path class="f" d="M147.40465,62.92926,141.83532,74.439l-1.19239-.57812,3.42969-7.08594a15.72751,15.72751,0,0,0-4.59863-3.8711q-2.70117-1.30663-3.82617,1.01758l-2.66114,5.5-1.1914-.57617,2.77051-5.72656q1.83837-3.79687,5.67285-1.94336a15.40589,15.40589,0,0,1,4.65722,3.89844l1.31641-2.72266Z"/><path class="f" d="M151.808,53.8277l-.82226,1.70117-3.31446-1.21679q1.9131,3.75879.77735,6.8125l-1.29-.623a8.70529,8.70529,0,0,0-.09961-4.77148,2.79171,2.79171,0,0,0-1.74316-2.13868l-3.459-1.08007c-.39844-.1211-.72168.07031-.96875.582l-1.13867,2.35351-1.19141-.57617,1.49512-3.0918a2.51829,2.51829,0,0,1,.9502-1.20117,1.54467,1.54467,0,0,1,1.19921.002Z"/><g class="g"><rect class="h" x="65.31155" y="170.51261" width="66.69237" height="107.5629" transform="translate(-146.21385 215.40159) rotate(-64.17751)"/><rect class="h" x="65.31155" y="170.51261" width="66.69237" height="107.5629" transform="translate(-146.21385 215.40159) rotate(-64.17751)"/><rect class="i" x="88.96775" y="167.16483" width="51.6238" height="129.53187" transform="translate(-143.98857 234.22397) rotate(-64.17751)"/><ellipse class="h" cx="182.97054" cy="263.21419" rx="78.36889" ry="82.31904" transform="translate(-133.66028 313.26271) rotate(-64.17751)"/></g><path class="j" d="M133.75426,245.11872l11.41114,5.56054-1.73633,3.5879-12.27539-5.93946q-4.84571-2.34668-6.44629.959l-1.30957,2.707,3.61816,2.79883,1.35547-2.80079,3.49316,1.69141-1.66015,3.42969a3.26365,3.26365,0,0,1-1.83106,1.69726,2.95058,2.95058,0,0,1-2.43359-.10937,4.16027,4.16027,0,0,1-.48828-.27539l-7.02539-5.06836,2.90918-6.01172Q124.56383,240.67145,133.75426,245.11872Z"/><path class="j" d="M145.724,225.11872a6.27806,6.27806,0,0,1,3.46777,5.43945,11.95926,11.95926,0,0,1-1.17578,6.68164,11.77831,11.77831,0,0,1-4.49609,5.03711q-3.394,2.11817-6.416.65625l-11.04785-5.3457,1.73633-3.58789,10.60742,5.13281a3.50878,3.50878,0,0,0,.75391.28711q.82617-3.873-1.75489-5.12305l-7.90039-3.82226,1.73633-3.58789,8.3418,4.03711q3.76611,1.82226,3.38769,7.20507a10.65577,10.65577,0,0,0,1.502-2.46289,8.18,8.18,0,0,0,1.01562-4.46679,3.28558,3.28558,0,0,0-1.93359-2.70508l-10.60742-5.13281,1.73632-3.5879Z"/><path class="j" d="M105.71032,248.941q.38525-.91113.72754-1.61718a7.56031,7.56031,0,0,1,.65429-1.13477,4.01865,4.01865,0,0,1,.70118-.74023,2.50627,2.50627,0,0,1,.82128-.45118,2.78394,2.78394,0,0,1,2.04493.25977l5.72754,2.77148-.51172,1.05664-5.74121-2.77929q-1.69923-.82032-2.80176,1.457-.33252.68847-.72461,1.61328Z"/><path class="j" d="M112.85485,238.07184a1.80339,1.80339,0,0,0-.77442.33594,1.9898,1.9898,0,0,0-.60839.76953,6.01266,6.01266,0,0,0-.36524.916l-.86523-.41992a4.81632,4.81632,0,0,1,.35547-.94532,3.47129,3.47129,0,0,1,.63379-.91992,2.77591,2.77591,0,0,1,.89746-.61328,3.3467,3.3467,0,0,1,1.14453-.26367,6.21568,6.21568,0,0,1,3.05273.7539,7.74879,7.74879,0,0,1,1.49414.92774,4.65043,4.65043,0,0,1,.97656,1.0332,3.47184,3.47184,0,0,1,.48438,1.0957,2.99562,2.99562,0,0,1,.0625,1.11329,3.75983,3.75983,0,0,1-.97363,2.01171,3.01478,3.01478,0,0,1-.91211.64258,3.41491,3.41491,0,0,1-1.15918.29883,4.61472,4.61472,0,0,1-1.416-.123,7.75026,7.75026,0,0,1-1.65527-.59765l-4.10449-1.98633.52929-1.09375,4.1045,1.98633a6.06471,6.06471,0,0,0,2.50488.68554,2.00105,2.00105,0,0,0,1.08984-.28125,1.93092,1.93092,0,0,0,.74512-.834,2.25142,2.25142,0,0,0,.25488-1.00391,1.8938,1.8938,0,0,0-.208-.84765,2.95262,2.95262,0,0,0-.57324-.74414,6.76418,6.76418,0,0,0-1.77734-1.18164,11.125,11.125,0,0,0-1.02344-.44141,5.56867,5.56867,0,0,0-.9873-.25781A2.863,2.863,0,0,0,112.85485,238.07184Z"/><path class="j" d="M114.20836,231.2652a3.18627,3.18627,0,0,1,2.18262-1.832,5.49129,5.49129,0,0,1,3.59961.67774,7.78762,7.78762,0,0,1,1.49512.92773,4.67263,4.67263,0,0,1,.97558,1.03516,3.44284,3.44284,0,0,1,.48438,1.09375,2.97436,2.97436,0,0,1,.06152,1.11328,3.74931,3.74931,0,0,1-.97265,2.01172,3.01493,3.01493,0,0,1-.91211.64257,3.41474,3.41474,0,0,1-1.15918.29883,4.617,4.617,0,0,1-1.416-.123,7.75013,7.75013,0,0,1-1.65527-.59766,7.207,7.207,0,0,1-1.88379-1.24414,3.84716,3.84716,0,0,1-.93848-1.2832l-.34277.83984-.89746-.43555Q113.37146,232.99567,114.20836,231.2652Zm1.48633,3.01563a7.70081,7.70081,0,0,0,1.61231,1.084,9.13832,9.13832,0,0,0,1.40625.5586,4.7966,4.7966,0,0,0,1.21582.18359,2.01952,2.01952,0,0,0,1.08789-.2832,2.26579,2.26579,0,0,0,.99121-2.05079,2.00622,2.00622,0,0,0-.45606-1.02929,6.03645,6.03645,0,0,0-2.09179-1.53711,4.987,4.987,0,0,0-2.94336-.67188,1.86247,1.86247,0,0,0-.78809.37305,2.18808,2.18808,0,0,0-.61719.79492l-.5371,1.14453A3.89153,3.89153,0,0,0,115.69469,234.28083Z"/><path class="j" d="M119.38122,220.9l2.667,1.291a8.56152,8.56152,0,0,1,.87793.48047,4.572,4.572,0,0,1,.71094.57031,2.164,2.164,0,0,1,.627,1.80469l3.39551-.3125-.57618,1.18946-4.40039.3457-1.91992.26367a1.45156,1.45156,0,0,0,.0127.46289,2.22124,2.22124,0,0,0,1.34961,1.39844l3.04882,1.47656-.51171,1.05664-2.667-1.291a4.50478,4.50478,0,0,1-1.86816-1.41407,2.23292,2.23292,0,0,1-.28906-.71093,2.53977,2.53977,0,0,1-.03614-.89258l-3.34668.32812.57911-1.19726,4.08789-.34571,2.16211-.26562a1.83057,1.83057,0,0,0-.16309-.67188,1.90883,1.90883,0,0,0-.42676-.52929,3.25551,3.25551,0,0,0-.77636-.50586l-3.04786-1.47461Z"/><path class="j" d="M121.7484,215.68317a2.45336,2.45336,0,0,1,1.59864-1.45312,3.38661,3.38661,0,0,1,2.29.36523l5.61328,2.7168-1.35547,2.80078-.82129-.39649.84375-1.74414-4.7461-2.29882q-1.87792-.90821-2.71.81054a1.93276,1.93276,0,0,0-.18066.64063,2.09766,2.09766,0,0,0,.01562.60742,3.41358,3.41358,0,0,0,.27442.86328l.06445.125,6.13574,3.7168-.51367,1.0625-6.02441-3.6543c-.01758-.00781-.06445-.03125-.14063-.06836a5.033,5.033,0,0,0-.62793-.19336,4.03646,4.03646,0,0,0-.88476-.15234l-.47461-.02539.51465-1.06446a3.26947,3.26947,0,0,1,1.00683.127l.02149-.04492a3.0798,3.0798,0,0,1-.26465-1.10938,3.60654,3.60654,0,0,1,.07324-.75A3.44385,3.44385,0,0,1,121.7484,215.68317Z"/><path class="h" d="M76.63761,203.49075c3.593,1.73864,7.42674,7.97878,5.30587,12.36161s-9.39324,5.24865-12.9862,3.51-11.26286-9.83509-9.142-14.21792S73.04466,201.75211,76.63761,203.49075Z"/><path class="h" d="M97.10536,222.42561a148.93227,148.93227,0,0,0,14.34974,6.22193l-1.84074,3.804c-4.34866-2.93027-8.79573-5.98467-13.0972-8.333a72.74274,72.74274,0,0,0-15.864-6.29155q-1.96816-.53747-4.1396-1.0242l4.41422-4.01041q.71556.50222,1.5334,1.05786A129.148,129.148,0,0,0,97.10536,222.42561Z"/><path class="h" d="M74.68459,185.40912l20.293,18.3699a.97678.97678,0,0,1-.75241,1.74651,25.93089,25.93089,0,0,1-11.06126-4.369,24.20425,24.20425,0,0,1-10.25718-14.93831A1.01922,1.01922,0,0,1,74.68459,185.40912Z"/><path class="h" d="M105.82442,213.2618c4.24871,3.28686,8.33369,6.04916,12.05642,8.40765l-2.20565,2.8001c-3.50405-3.42841-7.07913-6.98314-10.62394-9.91068a76.22544,76.22544,0,0,0-13.41269-8.80018q-1.69887-.88692-3.58841-1.7759l4.55722-2.40669q.5737.581,1.23205,1.22965A134.18114,134.18114,0,0,0,105.82442,213.2618Z"/><polygon class="h" points="72.166 230.808 71.816 232.02 71.465 233.231 61.665 229.738 51.866 226.244 62.016 228.526 72.166 230.808"/><polygon class="h" points="73.399 226.521 73.048 227.732 72.697 228.944 62.898 225.45 53.099 221.956 63.249 224.239 73.399 226.521"/><polygon class="h" points="72.763 228.687 72.412 229.899 72.061 231.11 62.262 227.616 52.462 224.123 62.612 226.405 72.763 228.687"/><polygon class="h" points="74.01 224.481 73.659 225.693 73.309 226.904 63.509 223.41 53.71 219.917 63.86 222.199 74.01 224.481"/><polygon class="h" points="80.794 230.445 76.098 231.838 71.403 233.231 72.634 228.771 73.865 224.311 77.329 227.378 80.794 230.445"/><path class="h" d="M92.716,232.15936c5.12029,1.12589,9.86224,1.8999,14.11142,2.48212l-.608,2.90944c-4.54933-1.485-9.21673-3.04407-13.573-4.127a86.49308,86.49308,0,0,0-15.44716-2.33237q-1.85295-.11886-3.86953-.17548l2.79336-3.39174q.75381.25841,1.61059.54088A153.50508,153.50508,0,0,0,92.716,232.15936Z"/><path class="h" d="M134.0111,174.14411l-.63281,1.30762L126.808,172.273q-.457-.22119-.74218.36719l-3.35645,6.93457-.917-.44336L125.433,171.608a1.63888,1.63888,0,0,1,.74414-.79688.94815.94815,0,0,1,.86719-.03906Zm-3.58789,7.415-.63379,1.30761-5.17871-2.50585.63379-1.3086Z"/><path class="h" d="M139.37145,163.065l-2.99805,6.19726-.916-.44336,2.36523-4.88867-3.72851-1.80469a2.35415,2.35415,0,0,0-3.54981,1.25977,4.00307,4.00307,0,0,0-.43457,2.416,2.75082,2.75082,0,0,0,.94629,1.82519l4.41113,3.50879-.63379,1.30762-4.40039-3.5293a4.01281,4.01281,0,0,0-.57324-.41309,2.28827,2.28827,0,0,0-1.584-.03906l-1.53418.44238.71777-1.48339a5.16732,5.16732,0,0,1,2.31738-.38575,4.41994,4.41994,0,0,1-.59765-2.03808,5.53938,5.53938,0,0,1,.63379-2.43946,3.67317,3.67317,0,0,1,2.22949-2.15039,3.34916,3.34916,0,0,1,2.45605.30079Z"/><path class="h" d="M143.88805,153.732l-.63281,1.30859-5.75879-2.78711a1.36448,1.36448,0,0,0-1.15039-.13964,2.46739,2.46739,0,0,0-.93066,1.20507l-2.24805,4.64453-.917-.44335,2.4375-5.03711q1.25536-2.59571,3.166-1.6709Z"/><path class="h" d="M146.8109,147.691l-.63281,1.3086-6.59961-3.19336a.42794.42794,0,0,0-.38379.07031.78267.78267,0,0,0-.33984.333l-1.18164,2.44238-.917-.44336,1.47753-3.05371q.63282-1.30811,1.59571-.84277Z"/><path class="h" d="M150.22985,140.62555l-.63281,1.3086-2.54883-.9375a6.38341,6.38341,0,0,1,.59863,5.24219l-.99316-.48145a6.69653,6.69653,0,0,0-.07618-3.6709,2.14748,2.14748,0,0,0-1.34179-1.64355l-2.65918-.83008q-.46-.14062-.74512.44726l-.876,1.80957-.917-.44335,1.15039-2.377a1.93477,1.93477,0,0,1,.73047-.92578,1.19313,1.19313,0,0,1,.92188.00293Z"/><path class="h" d="M155.222,130.3111l-.63379,1.30859L148.01891,128.44q-.45849-.22266-.74316.36718l-3.35547,6.93457-.917-.44335,3.64062-7.52442a1.64291,1.64291,0,0,1,.74414-.79687.95373.95373,0,0,1,.86719-.03809Zm-3.58789,7.41406-.63379,1.3086-5.17871-2.50586.63281-1.3086Z"/><path class="h" d="M164.53942,111.05426l-.63281,1.3086-5.88184-2.84668a1.10231,1.10231,0,0,0-1.02344.07031,1.99945,1.99945,0,0,0-.88183.94531l-1.77344,3.66407,6.12695,2.96484q.90089.43653.25684,1.7666l-.88574,1.83106-.916-.44336.89649-1.85352-6.11133-2.957-.8125,1.67871-.917-.44336,3.32422-6.87012a3.61515,3.61515,0,0,1,1.44532-1.64062,1.73275,1.73275,0,0,1,1.69043-.125Z"/><path class="h" d="M167.389,105.16657l-.63379,1.30859-6.59961-3.19336a.42572.42572,0,0,0-.38281.07032.77215.77215,0,0,0-.33985.333l-1.18261,2.44239-.917-.44336,1.47754-3.05371q.63427-1.3081,1.59668-.84278Z"/><path class="h" d="M170.64977,98.42829l-2.52246,5.21094-.916-.44336,1.86817-3.85938L163.597,97.30134q-.91407-.334-1.47364.82226l-.82324,1.70117-.916-.44336,1.19238-2.46484a2.33486,2.33486,0,0,1,.958-1.084,1.31231,1.31231,0,0,1,1.14453-.10547Z"/><path class="h" d="M166.9486,89.47712a4.64532,4.64532,0,0,1,.53808.36816l2.7295,2.0752-.63282,1.30859-2.55078-2.01465a2.37555,2.37555,0,0,0-.4375-.2666.774.774,0,0,0-.73144.09082,1.5087,1.5087,0,0,0-.6377.67383l-.89648,1.85449-.917-.44434,1.03418-2.13769a3.07528,3.07528,0,0,1,1.17675-1.34082A1.35122,1.35122,0,0,1,166.9486,89.47712Z"/><path class="h" d="M178.47985,82.24665l-4.28516,8.85449-.916-.44434,2.63867-5.45117a12.06907,12.06907,0,0,0-3.53711-2.97656q-2.07861-1.00635-2.94336.78223L167.389,87.24176l-.917-.44335,2.13183-4.40528q1.41357-2.92236,4.36328-1.49512a11.85421,11.85421,0,0,1,3.583,2.999l1.01367-2.09375Z"/><path class="h" d="M181.86657,75.24665l-.63282,1.30859-2.54882-.9375a6.38311,6.38311,0,0,1,.59863,5.24219l-.99316-.48145a6.69668,6.69668,0,0,0-.07618-3.67089,2.14913,2.14913,0,0,0-1.34179-1.64454l-2.65918-.8291q-.46-.14208-.74512.44727l-.876,1.80957-.917-.44336,1.15039-2.377a1.93481,1.93481,0,0,1,.73047-.92579,1.197,1.197,0,0,1,.92188.002Z"/><path class="h" d="M146.14684,185.30524l5.7959,2.83106-.623,1.28711-5.80566-2.80957a3.32069,3.32069,0,0,0-2.22168-.32129,2.96391,2.96391,0,0,0-2.0752,1.79492l-1.14941,2.37695,2.13281,1.86621c.25879.2168.47852.14063.65625-.22656l.71485-1.47754.916.44336-.86035,1.77832a2.00061,2.00061,0,0,1-.79981.91406.95163.95163,0,0,1-.91992.06934,1.16487,1.16487,0,0,1-.18847-.11817l-3.10743-2.58007,1.77344-3.66407a4.39142,4.39142,0,0,1,2.74707-2.59961A4.34636,4.34636,0,0,1,146.14684,185.30524Z"/><path class="h" d="M153.98961,172.60212q1.3755.665,1.29883,2.96972a10.21655,10.21655,0,0,1-1.08691,4.07617,9.8475,9.8475,0,0,1-2.52149,3.32911q-1.74316,1.44286-3.10839.7832l-5.19336-2.51367.63281-1.3086,4.96484,2.40235a1.9823,1.9823,0,0,0,.95117.21875,6.357,6.357,0,0,0,.4668-2.68067,1.96311,1.96311,0,0,0-1.041-1.82226l-3.58985-1.73731.63281-1.30859,3.81934,1.84766q2.0332.98438.80273,5.39453a7.32764,7.32764,0,0,0,2.26661-3.04785,8.36477,8.36477,0,0,0,.92578-3.15918,2.12311,2.12311,0,0,0-1.082-2.24512l-4.96582-2.40332.63281-1.3086Z"/><path class="h" d="M165.51012,155.8111l-.63379,1.30859-5.75976-2.7871a1.3613,1.3613,0,0,0-1.14942-.13868,2.47528,2.47528,0,0,0-.93164,1.2041l-2.24707,4.64454-.917-.44336,2.4375-5.03711q1.25536-2.59423,3.166-1.6709Z"/><path class="h" d="M167.7025,143.25446a3.06148,3.06148,0,0,1,1.73438,2.41406,6.30267,6.30267,0,0,1-.7168,3.78321,6.68051,6.68051,0,0,1-2.624,2.98339,3.0986,3.0986,0,0,1-3.0459.27539l-4.73633-2.292.63282-1.30859,4.665,2.25781a2.36613,2.36613,0,0,0,2.27344-.165,4.75378,4.75378,0,0,0,1.94824-2.17871,4.38723,4.38723,0,0,0,.50684-2.75683,2.354,2.354,0,0,0-1.34277-1.73926l-3.04688-1.47461a.73869.73869,0,0,0-.81055.11914,2.34683,2.34683,0,0,0-.68847.877q-.75,1.54981.07519,1.94727l1.59961.77441-.63379,1.3086-1.76855-.85645a1.46312,1.46312,0,0,1-.74707-1.49121,5.00563,5.00563,0,0,1,.55859-2.125,3.86915,3.86915,0,0,1,1.4541-1.75879,1.76852,1.76852,0,0,1,1.7334-.03711Z"/><path class="h" d="M173.36266,132.37458a2.812,2.812,0,0,1,1.418,2.36816,6.43405,6.43405,0,0,1-2.95117,6.17578,2.787,2.787,0,0,1-2.74024.28809l-4.20214-2.0332-.36915.76269-.917-.44336,3.999-8.26465a1.97674,1.97674,0,0,1,.72363-.92871.96185.96185,0,0,1,.88281.06446Zm-.78613,1.23437-4.04883-1.96-3.00781,6.21582,4.04883,1.96a2.10988,2.10988,0,0,0,1.999-.13672,4.05829,4.05829,0,0,0,1.71582-1.88867,4.185,4.185,0,0,0,.4541-2.53906A2.0889,2.0889,0,0,0,172.57653,133.609Z"/><path class="h" d="M181.82262,122.10114l-.73926,1.52637-7.61718,2.84179q-.41309,1.63623,3.29394,3.75391l1.02735-2.12207.917.44336-1.29,2.665a.712.712,0,0,1-.62207.42871,1.10479,1.10479,0,0,1-.64942-.09863q-3.89648-1.88526-3.79589-4.667l-3.126,1.31739-.10059-.10254.77149-1.59668,5.834-2.19727q-.64746-2.98534-1.39648-3.34765a.47467.47467,0,0,0-.72656.21582l-.85743,1.77246-.917-.44336,1.09277-2.25977q.66212-1.36817,1.8086-.81347,1.23633.59911,2.00293,4.47363l4.95215-1.85645Z"/><path class="h" d="M187.17516,111.03962l-2.999,6.19726-.917-.44336,2.36523-4.88867-3.72754-1.80469a2.35577,2.35577,0,0,0-3.55078,1.25879,4.015,4.015,0,0,0-.43359,2.418,2.76072,2.76072,0,0,0,.94531,1.8252l4.41211,3.50683-.63281,1.3086-4.40137-3.5293a3.88749,3.88749,0,0,0-.57422-.41211,2.28445,2.28445,0,0,0-1.583-.04l-1.53418.44238.7168-1.48339a5.15975,5.15975,0,0,1,2.31738-.38477,4.4367,4.4367,0,0,1-.59668-2.03906,5.53027,5.53027,0,0,1,.63281-2.43848,3.67954,3.67954,0,0,1,2.2295-2.15137,3.34776,3.34776,0,0,1,2.45605.30078Z"/><path class="h" d="M190.54333,90.52009q.564.27246,1.17871,2.58886.61377,2.31593,1.28613,2.64063l1.26855.61426-.63379,1.30859-1.31445-.63672a2.73791,2.73791,0,0,1-1.14648-1.60449l-.67578-2.26465q-.36768-1.22754-.78028-1.42676l-1.22265-.5918c-.20313-.09863-.36914-.01757-.49512.24415l-2.69141,5.56152q-.27391.56689-.63769.5791a1.67684,1.67684,0,0,1-.6836-.22363l-1.498-.72461.63281-1.3086,1.51269.73243,2.71192-5.6045q.55957-1.15575,1.50781-.69726Z"/><path class="h" d="M199.4818,78.58942q1.377.66651,1.29883,2.96973a10.22645,10.22645,0,0,1-1.08594,4.07617,9.84975,9.84975,0,0,1-2.52246,3.3291q-1.74317,1.44288-3.10742.78418l-5.19434-2.51367.63282-1.30859,4.96484,2.40234a1.98312,1.98312,0,0,0,.95117.21777,6.35934,6.35934,0,0,0,.4668-2.68066,1.96315,1.96315,0,0,0-1.041-1.82227l-3.58984-1.7373.63281-1.3086,3.81934,1.84864q2.0332.98438.80273,5.39453a7.317,7.317,0,0,0,2.2666-3.04883,8.34722,8.34722,0,0,0,.92578-3.1582,2.12376,2.12376,0,0,0-1.082-2.2461l-4.96582-2.40332.63379-1.30761Z"/><path class="k" d="M210.03938,86.314a18.24685,18.24685,0,1,0,8.73757-4.73025"/><line class="l" x1="218.17854" y1="101.58574" x2="214.66629" y2="101.82015"/><path class="l" d="M228.57778,101.1942l.651-1.34534a3.95628,3.95628,0,0,0-1.83793-5.28451l-.74388-.36c-2.95459-1.42974-7.51121-.67867-8.94094,2.27592-2.4367,5.03551,3.98728,8.37576,6.99946,11.40512.74638.89881,1.76709,1.664,1.49912,2.98456-.39063,1.9251-2.78921,2.05367-4.35479,1.92015a14.18512,14.18512,0,0,1-4.95768-1.26739,13.47931,13.47931,0,1,1,15.92809-3.1382"/><rect class="m" x="149.9848" y="152.28324" width="76.73127" height="32.10027" transform="translate(-45.21702 264.5532) rotate(-64.17751)"/><rect class="h" x="182.36934" y="161.03385" width="5.80533" height="27.32236" transform="translate(-52.68097 265.37278) rotate(-64.17751)"/><rect class="h" x="186.15698" y="156.20581" width="2.90266" height="27.32236" transform="translate(-47.01637 264.75077) rotate(-64.17751)"/><rect class="h" x="191.72018" y="146.20891" width="1.45133" height="27.32236" transform="translate(-35.2873 263.46286) rotate(-64.17751)"/><rect class="h" x="189.19347" y="149.13414" width="3.67368" height="27.32236" transform="translate(-38.71939 263.83972) rotate(-64.17751)"/><rect class="h" x="187.69619" y="153.02497" width="2.90266" height="27.32236" transform="translate(-43.28439 264.34098) rotate(-64.17751)"/><rect class="h" x="191.71457" y="141.72166" width="5.80533" height="27.32236" transform="translate(-30.02255 262.88477) rotate(-64.17751)"/><rect class="h" x="195.50221" y="136.89361" width="2.90266" height="27.32236" transform="translate(-24.35794 262.26277) rotate(-64.17751)"/><rect class="h" x="201.06541" y="126.89671" width="1.45133" height="27.32236" transform="translate(-12.62888 260.97486) rotate(-64.17751)"/><rect class="h" x="198.53871" y="129.82194" width="3.67368" height="27.32236" transform="translate(-16.06096 261.35172) rotate(-64.17751)"/><rect class="h" x="197.04143" y="133.71278" width="2.90266" height="27.32236" transform="translate(-20.62597 261.85298) rotate(-64.17751)"/><rect class="h" x="173.12031" y="180.14724" width="5.80533" height="27.32236" transform="translate(-75.10615 267.83517) rotate(-64.17751)"/><rect class="h" x="176.90795" y="175.3192" width="2.90266" height="27.32236" transform="translate(-69.44154 267.21317) rotate(-64.17751)"/><rect class="h" x="182.47115" y="165.3223" width="1.45133" height="27.32236" transform="translate(-57.71247 265.92526) rotate(-64.17751)"/><rect class="h" x="179.94444" y="168.24753" width="3.67368" height="27.32236" transform="translate(-61.14456 266.30212) rotate(-64.17751)"/><rect class="h" x="178.44716" y="172.13837" width="2.90266" height="27.32236" transform="translate(-65.70957 266.80338) rotate(-64.17751)"/></g><g class="n"><polygon class="e" points="370.05 110.675 195.499 99.333 132.554 29.439 307.105 40.78 370.05 110.675"/><polygon class="f" points="385.577 127.917 211.026 116.576 159.099 58.915 333.65 70.256 385.577 127.917"/><polygon class="m" points="199.386 38.319 266.516 112.76 234.517 110.712 167.388 36.27 199.386 38.319"/><polygon class="h" points="234.214 79.427 239.292 85.059 212.056 83.316 206.977 77.684 234.214 79.427"/><polygon class="h" points="230.791 75.632 233.33 78.448 206.094 76.704 203.555 73.888 230.791 75.632"/><polygon class="h" points="221.709 65.561 222.979 66.969 195.743 65.226 194.473 63.818 221.709 65.561"/><polygon class="h" points="223.58 67.636 226.794 71.2 199.558 69.457 196.344 65.892 223.58 67.636"/><polygon class="h" points="227.699 72.204 230.239 75.02 203.003 73.276 200.463 70.46 227.699 72.204"/><polygon class="h" points="215.444 58.613 220.523 64.245 193.287 62.502 188.208 56.869 215.444 58.613"/><polygon class="h" points="212.021 54.818 214.56 57.634 187.324 55.89 184.785 53.074 212.021 54.818"/><polygon class="h" points="202.94 44.747 204.209 46.155 176.973 44.411 175.704 43.003 202.94 44.747"/><polygon class="h" points="204.811 46.822 208.025 50.386 180.789 48.642 177.575 45.078 204.811 46.822"/><polygon class="h" points="208.929 51.389 211.469 54.205 184.233 52.462 181.693 49.646 208.929 51.389"/><polygon class="h" points="252.79 100.027 257.869 105.66 230.633 103.916 225.554 98.284 252.79 100.027"/><polygon class="h" points="249.367 96.232 251.907 99.048 224.671 97.304 222.131 94.488 249.367 96.232"/><polygon class="h" points="240.286 86.161 241.556 87.569 214.32 85.826 213.05 84.418 240.286 86.161"/><polygon class="h" points="242.157 88.236 245.371 91.8 218.135 90.057 214.921 86.492 242.157 88.236"/><polygon class="h" points="246.276 92.804 248.815 95.62 221.579 93.876 219.04 91.06 246.276 92.804"/></g></svg>