<svg xmlns="http://www.w3.org/2000/svg" xmlns:xlink="http://www.w3.org/1999/xlink" viewBox="0 0 593.20922 482.25052"><defs><style>.a,.c,.d,.e,.f{fill:none;}.b{clip-path:url(#a);}.c{stroke:#231f20;stroke-width:1.38388px;}.c,.d,.e,.f{stroke-miterlimit:10;}.d,.e,.f{stroke-width:12.45489px;}.d{stroke:url(#b);}.e{stroke:url(#c);}.f{stroke:url(#d);}.g{fill:url(#e);}.h{fill:#a3c3d3;}.i{fill:url(#f);}.j{fill:url(#g);}</style><clipPath id="a"><path class="a" d="M407.98591,29.93289a121.16841,121.16841,0,0,1-242.33682,0S225.36025,2.2048,286.8175,1.42667C333.45106.83623,407.98591,29.93289,407.98591,29.93289Z"/></clipPath><linearGradient id="b" x1="145.30894" y1="-115.98912" x2="393.57935" y2="-115.98912" gradientTransform="matrix(0.99515, 0.09832, -0.21361, 2.16206, -6.09804, 257.11174)" gradientUnits="userSpaceOnUse"><stop offset="0" stop-color="#3f3e40"/><stop offset="0.57653" stop-color="#939598"/><stop offset="1" stop-color="#3f3e40"/><stop offset="1" stop-color="#515254"/></linearGradient><linearGradient id="c" x1="728.48149" y1="361.45956" x2="912.6551" y2="361.45956" gradientTransform="matrix(0.99877, -0.04963, -0.69754, 0.53393, -63.28433, -126.21675)" xlink:href="#b"/><linearGradient id="d" x1="728.37132" y1="-585.33666" x2="912.0488" y2="-585.33666" gradientTransform="matrix(0.99877, -0.04963, 0.69754, -0.53393, 78.97801, -235.11163)" xlink:href="#b"/><linearGradient id="e" x1="168.74543" y1="327.75052" x2="376.31543" y2="327.75052" gradientUnits="userSpaceOnUse"><stop offset="0.32143" stop-color="#a3c3d3"/><stop offset="0.62245" stop-color="#53879c"/></linearGradient><linearGradient id="f" x1="168.74619" y1="192.75052" x2="376.31468" y2="192.75052" gradientUnits="userSpaceOnUse"><stop offset="0.29592" stop-color="#53879c"/><stop offset="0.61735" stop-color="#406d7e"/></linearGradient><linearGradient id="g" x1="212.75681" y1="473.60052" x2="333.83545" y2="473.60052" xlink:href="#f"/></defs><g class="b"><path class="c" d="M290.07276-108.86794C261.80281-107.4471,184.1857,150.55813,261.49018,190.46c4.27062,2.20436,13.49474,6.96548,22.91264,3.39427C340.28144,172.66531,319.96246-110.37019,290.07276-108.86794Z"/><path class="c" d="M292.18909-108.95216c-36.63128,1.75356-129.69908,260.3736-28.237,299.31421,5.60518,2.15125,17.71182,6.79767,29.82374,3.11926C365.63857,171.65631,330.9192-110.80617,292.18909-108.95216Z"/><path class="c" d="M290.85727-108.89916C247.37591-106.873,141.65,152.25069,262.90334,190.40378c6.69853,2.10775,21.16671,6.66019,35.4857,2.894C383.34693,170.95167,336.82994-111.04137,290.85727-108.89916Z"/><path class="c" d="M292.40384-108.9607c-50.692,2.31305-169.74215,261.967-27.65593,299.29108,7.84943,2.06195,24.80342,6.51548,41.44566,2.65681C404.93579,170.09261,346.00026-111.40627,292.40384-108.9607Z"/><path class="c" d="M291.74307-108.93441c-59.53313,2.66486-194.92067,262.96887-27.29054,299.27654,9.26058,2.0058,29.26252,6.33805,48.75336,2.366C428.84954,169.141,354.68722-111.75194,291.74307-108.93441Z"/><path class="c" d="M292.92646-108.9815c-67.27637,2.973-216.97243,263.84635-26.97053,299.26381,10.49649,1.95662,33.16787,6.18265,55.15357,2.11135C451.55569,168.23753,364.0575-112.1248,292.92646-108.9815Z"/><path class="c" d="M292.375-108.95955C217.73155-105.69344,54.422,155.72164,265.709,190.29214c11.67236,1.90983,36.88352,6.0348,61.24289,1.86905C471.48155,167.44465,371.29529-112.4128,292.375-108.95955Z"/><path class="c" d="M297.19383-109.1513c-78.60932,3.42392-249.24724,265.13061-26.50217,299.24517,12.30535,1.88464,38.88371,5.95521,64.52086,1.73861C487.32361,166.81426,380.30714-112.7714,297.19383-109.1513Z"/><path class="c" d="M290.5093-108.88531c-20.858,1.1259-84.77891,258.58614-28.88889,299.34014,3.08759,2.25143,9.75649,7.11422,16.7863,3.63805C320.11621,173.46772,312.56244-110.07573,290.5093-108.88531Z"/><path class="c" d="M288.29671-108.79727c-12.40161.78941-60.696,257.62785-29.23838,299.35405,1.73785,2.30514,5.49144,7.28394,9.7966,3.91618C294.39845,174.49107,301.40888-109.63191,288.29671-108.79727Z"/><path class="c" d="M289.75892-108.85546c-7.1844.58182-45.83808,257.03663-29.454,299.36263.90512,2.33828,2.86011,7.38865,5.4843,4.08778C281.35916,175.00993,297.355-109.4706,289.75892-108.85546Z"/><path class="c" d="M289.0277-108.82636c-3.607.43946-35.65,256.63123-29.60185,299.36851.33413,2.361,1.05581,7.46044,2.52735,4.20544C270.68424,175.4347,292.84132-109.291,289.0277-108.82636Z"/><path class="c" d="M467.423,23.009c2.51625-26.1496-268.391-65.65144-323.14485,11.41978-3.02485,4.25773-9.55813,13.454-7.00946,21.77184C152.39077,105.55222,464.76261,50.6569,467.423,23.009Z"/><path class="c" d="M467.21045,24.96945c3.35617-33.89494-265.999-87.70916-323.17957,11.73987-3.1589,5.494-9.98175,17.36042-7.7037,28.17378C149.84356,129.04121,463.662,60.80642,467.21045,24.96945Z"/><path class="c" d="M467.34423,23.73574c4.04429-40.24034-264.03932-105.78009-323.208,12.00212-3.26874,6.50677-10.3288,20.56076-8.27246,33.4186C148.0647,145.44494,463.06822,66.2817,467.34423,23.73574Z"/><path class="c" d="M467.18887,25.16837c4.76862-46.91972-261.97653-124.80213-323.23793,12.27816-3.38435,7.57288-10.69412,23.92955-8.87116,38.93948C145.896,165.44328,462.147,74.77641,467.18887,25.16837Z"/><path class="c" d="M467.25525,24.55628C472.912-30.55325,207.808-123.56938,143.98061,37.17291c-3.5261,8.88007-11.14205,28.06013-9.60524,45.70879C143.49383,187.59523,461.2744,82.82337,467.25525,24.55628Z"/><path class="c" d="M467.13637,25.65249c6.43458-62.2823-257.2321-168.55281-323.30678,12.91306-3.65026,10.02493-11.53436,31.67777-10.24816,51.63748C141.21292,208.62855,460.33312,91.50332,467.13637,25.65249Z"/><path class="c" d="M467.19177,25.14169C474.36639-43.965,212.06723-162.846,143.8544,38.33678,140.086,49.451,131.94679,73.45645,132.99455,95.61495,139.21131,227.08641,459.60607,98.20788,467.19177,25.14169Z"/><path class="c" d="M466.7077,29.60547c7.573-72.78032-253.99-198.44983-323.35383,13.34692-3.832,11.70052-12.10853,36.9725-11.18913,60.31465C137.61993,241.76133,458.7008,106.5558,466.7077,29.60547Z"/><path class="c" d="M467.37919,23.41341c1.7717-19.28376-270.51135-46.0984-323.11409,11.136-2.906,3.16187-9.18261,9.99118-6.394,16.09685C154.41643,86.87262,465.506,43.80206,467.37919,23.41341Z"/><path class="c" d="M467.60145,21.36383c.92223-11.45033-272.93055-23.78977-323.079,10.81229-2.77042,1.91156-8.75417,6.04034-5.69191,9.6221C156.99985,63.04958,466.62637,33.47022,467.60145,21.36383Z"/><path class="c" d="M467.45456,22.71832c.39815-6.6175-274.42307-10.02647-323.05731,10.61256-2.68677,1.14018-8.48985,3.60287-5.25873,5.62749C158.30969,50.97093,467.0336,29.715,467.45456,22.71832Z"/><path class="c" d="M467.528,22.041c.03878-3.30362-275.4465-.589-323.04247,10.47561-2.62941.61125-8.30859,1.93149-4.96169,2.88839C159.382,41.08246,467.487,25.53386,467.528,22.041Z"/></g><ellipse class="d" cx="286.8175" cy="32.82897" rx="118.4207" ry="26.94007" transform="translate(-0.6497 6.28408) rotate(-1.25386)"/><path class="e" d="M406.80021,34.85658c87.55264-3.13253,128.70021-8.39124,149.70568-13.06512,3.71678-.827,16.50874-3.79533,24.6081-3.72346,10.09331.08956,4.88885,5.557,1.15189,9.67429"/><path class="f" d="M403.86487,37.02326C495.883,31.23349,525.24326,32.9889,532.936,36.23685c1.36118.57471,5.59846,2.69689,15.43718,1.73374,12.2609-1.20027,24.358-6.44815,35.0391-10.91045"/><path class="g" d="M375.18543,195.63052l-39.96,275.97c1.35.69,2.07,1.41,2.07,2.15,0,4.69-28.56,8.5-63.78,8.5-31.59,0-57.82-3.07-62.88-7.09l-.36-2.51-40.05-276.61a4.89228,4.89228,0,0,1-1.48-3.29c0-10.77,46.47-19.5,103.78-19.5,57.32,0,103.79,8.73,103.79,19.5A4.59578,4.59578,0,0,1,375.18543,195.63052Z"/><line class="a" x1="170.22543" y1="196.04052" x2="169.74543" y2="192.75052"/><line class="a" x1="210.74543" y1="475.92052" x2="210.63543" y2="475.16052"/><line class="a" x1="375.74543" y1="191.75052" x2="375.18543" y2="195.63052"/><line class="a" x1="335.22543" y1="471.60052" x2="334.74543" y2="474.92052"/><path class="h" d="M210.63544,475.16049a1.86882,1.86882,0,0,1-.89-1.41,1.60365,1.60365,0,0,1,.53-1.1Z"/><ellipse class="i" cx="272.53043" cy="192.75052" rx="103.78425" ry="19.5"/><ellipse class="j" cx="273.29613" cy="473.60052" rx="60.53932" ry="8.5"/></svg>