<svg xmlns="http://www.w3.org/2000/svg" xmlns:xlink="http://www.w3.org/1999/xlink" viewBox="0 0 379.30852 230.6435"><defs><style>.a{fill:none;}.a,.b,.c,.d,.e,.f,.g,.h,.i{stroke:#231f20;stroke-miterlimit:10;}.b{fill:url(#a);}.c{fill:#47484a;}.d{fill:#73797a;}.e{fill:#32393a;}.f{fill:url(#b);}.g{fill:#292a2b;}.h{fill:#3e4242;}.i{fill:#212323;}</style><linearGradient id="a" x1="37.55565" y1="44.39225" x2="349.10848" y2="44.39225" gradientUnits="userSpaceOnUse"><stop offset="0" stop-color="#464646"/><stop offset="1"/></linearGradient><linearGradient id="b" x1="38.12285" y1="120.47216" x2="348.37694" y2="120.47216" gradientUnits="userSpaceOnUse"><stop offset="0" stop-color="#949494"/><stop offset="1"/></linearGradient></defs><path class="a" d="M62.7605,174.37273c49.192-5.12937,98.205-4.39784,147.94956-1.47169,26.33536,2.19462,51.20763,5.12077,76.81145,12.43614,6.58384,2.19462,13.89921,3.65769,19.75151,8.77845.73154.73154,1.46308,0,2.19461.73154,4.38923,3.65769,4.38923,9.51.73154,13.89921-5.12076,5.85231-12.43614,7.31538-19.02,9.51-14.63076,5.12077-29.26151,7.31538-43.89226,8.77845-11.7046.73154-23.4092,2.19462-35.1138,2.19462-25.60382,1.46307-51.20763,1.46307-77.543-2.19462h-7.31538c-13.89921-1.46307-27.06689-5.12076-40.23456-9.51a17.27124,17.27124,0,0,1-6.58384-5.8523,7.0168,7.0168,0,0,1,1.46307-6.58384c5.8523-5.12077,12.43614-5.8523,19.75152-7.31538,9.51-2.19461,17.5569-4.38922,27.06689-5.12076,4.38922-.73154,8.77845,0,13.16767,0,18.28844-2.19461,37.30842.73154,55.59686,1.46307,2.19461,0,4.38922,1.46308,6.58384,1.46308a62.71934,62.71934,0,0,1,19.75151,3.65769c2.19461,1.46307,5.12076,2.19461,5.8523,5.12076s-2.92615,4.38922-4.38922,5.8523c-12.43614,5.12076-26.33536,5.8523-39.503,6.58384-13.89922.73154-27.79843-.73154-42.42918-2.92615-3.65769-.73154-8.77845-1.46308-9.51-5.8523,0-2.19462,2.92615-3.65769,5.12076-4.38923,17.55691-3.65769,35.11381-5.12076,52.67071-.73154,1.46307.73154,2.19461,2.19462,3.61659,3.50315-2.05651,1.39124-3.30865-4.65471,0,0-2.05651,1.39124-3.93592,2.94267-6.54,3.00884"/><ellipse class="b" cx="193.33207" cy="44.39225" rx="155.77641" ry="43.89225"/><line class="a" x1="348.37694" y1="156.3175" x2="348.37694" y2="151.92827"/><rect class="c" x="22.74084" y="78.55494" width="10.97306" height="27.58766" rx="5.48653" transform="translate(-68.21024 97.33548) rotate(-75.96376)"/><path class="d" d="M2.47555,95.29062l0,0A9.491,9.491,0,0,1,3.48308,82.5802L29.3043,59.28966a7.99994,7.99994,0,0,1,11.824,1.13647l0,0a9.49106,9.49106,0,0,1-1.00754,12.71041L14.29954,96.42708A7.99994,7.99994,0,0,1,2.47555,95.29062Z"/><path class="e" d="M16.1707,90.45556a7.7753,7.7753,0,0,1-7.59353,7.9555A7.77531,7.77531,0,0,1,.54074,90.90322,7.671,7.671,0,0,1,3.16966,84.9019a7.82922,7.82922,0,0,1,13.001,5.55366Z"/><path class="f" d="M348.37694,37.07688V151.92827c0,28.68356-69.4492,51.93917-155.127,51.93917s-155.127-23.25561-155.127-51.93917V37.07688c0,28.68356,69.44921,51.93916,155.12705,51.93916S348.37694,65.76044,348.37694,37.07688Z"/><rect class="g" x="350.46967" y="66.85034" width="10.97306" height="27.58766" rx="5.48653" transform="translate(365.82077 445.48795) rotate(-104.31401)"/><rect class="g" x="329.98661" y="88.06493" width="10.97306" height="27.58766" rx="5.48653" transform="translate(302.17468 450.86972) rotate(-101.43973)"/><path class="h" d="M338.18023,111.24409l0,0a9.491,9.491,0,0,1,1.00754-12.7104L365.009,75.24313a7.99994,7.99994,0,0,1,11.824,1.13647l0,0A9.49106,9.49106,0,0,1,375.82544,89.09l-25.82122,23.29053A7.99993,7.99993,0,0,1,338.18023,111.24409Z"/><path class="i" d="M351.87538,106.409a7.81863,7.81863,0,0,1-15.63.44766,7.671,7.671,0,0,1,2.62893-6.00132,7.82921,7.82921,0,0,1,13.001,5.55366Z"/></svg>