<svg xmlns="http://www.w3.org/2000/svg" xmlns:xlink="http://www.w3.org/1999/xlink" viewBox="0 0 148.61964 150.13511"><defs><style>.a{fill:#7f7151;}.a,.b,.c,.d,.e,.f,.g,.h{stroke:#231f20;stroke-miterlimit:10;}.b{fill:url(#a);}.c{fill:url(#b);}.d{fill:#ede5ca;}.e{fill:url(#c);}.f{fill:url(#d);}.g{fill:url(#e);}.h{fill:url(#f);}</style><linearGradient id="a" x1="24.12794" y1="34.78148" x2="125.7618" y2="34.78148" gradientUnits="userSpaceOnUse"><stop offset="0" stop-color="#dfd7c8"/><stop offset="0" stop-color="#c49a6c"/><stop offset="0.54082" stop-color="#cec3ab"/><stop offset="1" stop-color="#cec3ab"/><stop offset="1" stop-color="#fcfbf9"/></linearGradient><linearGradient id="b" x1="0.5" y1="92.61364" x2="49.85484" y2="92.61364" gradientUnits="userSpaceOnUse"><stop offset="0.18878" stop-color="#cec3ab"/><stop offset="1" stop-color="#fcfbf9"/><stop offset="1" stop-color="#fff"/></linearGradient><linearGradient id="c" x1="97.85484" y1="93.61364" x2="148.11964" y2="93.61364" gradientUnits="userSpaceOnUse"><stop offset="0.05612" stop-color="#e8e2cf"/><stop offset="0.36224" stop-color="#dbd3ba"/><stop offset="0.66837" stop-color="#e6dcc9"/><stop offset="1" stop-color="#fcfbf9"/><stop offset="1" stop-color="#fff"/></linearGradient><linearGradient id="d" x1="49.85484" y1="92.61364" x2="99.35074" y2="92.61364" gradientUnits="userSpaceOnUse"><stop offset="0.2602" stop-color="#e8e2cf"/><stop offset="1" stop-color="#fcfbf9"/><stop offset="1" stop-color="#fff"/></linearGradient><linearGradient id="e" x1="84.56429" y1="92.57344" x2="123.00637" y2="92.57344" gradientUnits="userSpaceOnUse"><stop offset="0.05612" stop-color="#e8e2cf"/><stop offset="0.30612" stop-color="#e5dac6"/><stop offset="0.76531" stop-color="#e6dcc9"/><stop offset="1" stop-color="#fcfbf9"/><stop offset="1" stop-color="#fff"/></linearGradient><linearGradient id="f" x1="25.17742" y1="93.61364" x2="66.04484" y2="93.61364" gradientUnits="userSpaceOnUse"><stop offset="0.18878" stop-color="#cec3ab"/><stop offset="0.60714" stop-color="#ddd4bd"/><stop offset="1" stop-color="#fcfbf9"/><stop offset="1" stop-color="#fff"/></linearGradient></defs><path class="a" d="M57.46322,131.51333c-5.4707,1.08986-8.64549,4.65153-7.55109,7.3965,1.22713,3.07787,7.601,4.57516,5.39364,6.287-2.40591,1.86581-11.86247,1.54872-11.866,2.21895-.00491.92915,18.15929,3.41412,29.12566.36983,5.5813-1.54939,6.816-3.842,7.1956-4.60768,2.27263-4.58445-6.819-8.763-7.1956-8.706a137.00009,137.00009,0,0,1,11.37589,9.69168c4.47094,4.23593,5.33927,5.49579,6.96248,5.47114,3.18541-.04836,6.29077-4.9981,4.67472-9.53876a10.48116,10.48116,0,0,0-2.51726-3.77494c-4.82621-4.74233-14.1112-7.36839-14.02346-7.3965.1895-.06071,38.67445,13.73667,36.67675,14.42318C113.62363,144.06625,73.0379,128.41057,57.46322,131.51333Z"/><path class="b" d="M44.99441,43.08748C38.36487,47.82407,33.64262,50.69642,28.87213,56.767c-2.4551,3.12416-5.84393,7.43649-4.397,9.11964,2.17681,2.53218,14.32111-5.21641,23.11813-12.90081,5.83929-5.10076,8.63137-5.79959,10.5921-5.33847,3.14686.74006-2.10983,13.7676,4.397,19.54209,7.93234,7.03958,18.32509-7.553,19.376-14.15305,1.1412-7.16692-11.03633-6.52775-10.582-7.34325.66765-1.19854,51.32588,22.90876,54.2295,18.89069,2.10219-2.90907-17.3181-25.41656-41.77137-29.31314-3.83551-.61119-3.77092-3.00232-6.57959-6.08427C70.13,21.36831,73.62965,12.64525,72.842,3.3519,72.42283-1.59365,56.23225.4339,56.71971,5.30611c1.28864,12.88027,8.75251,13.16007,5.86265,22.7991C61.66048,31.1801,56.10513,35.14923,44.99441,43.08748Z"/><path class="c" d="M43.5,92.61367c0,14.20706,2.21177,27.251,5.90727,37.48521a7.34975,7.34975,0,0,1-9.96751,9.14263C15.71287,128.33448.5,111.50205.5,92.61367S15.71287,56.89281,39.43976,45.98578a7.34975,7.34975,0,0,1,9.96752,9.14262C45.71177,65.36264,43.5,78.40659,43.5,92.61367Z"/><path class="d" d="M79.56486,136.35636c-.93,2.48-2.73,4.04-4.62,3.51a3.30977,3.30977,0,0,0,1.06994-.55C77.23485,138.37638,78.42485,137.39634,79.56486,136.35636Z"/><path class="e" d="M105.12168,93.59078c.32393-14.20337-1.58985-27.29434-5.051-37.61016a7.34975,7.34975,0,0,1,10.17338-8.913c23.472,11.44518,38.29715,28.62011,37.86648,47.50358s-16.02338,35.36469-39.99279,45.7279a7.34975,7.34975,0,0,1-9.75647-9.36751C102.28914,120.78429,104.79775,107.79416,105.12168,93.59078Z"/><path class="f" d="M99.33482,93.20634a59.64774,59.64774,0,0,1-19.77,43.15c-1.14,1.04-2.33,2.02-3.55,2.96a3.30977,3.30977,0,0,1-1.06994.55h-.01a3.6836,3.6836,0,0,1-1.13-.58q-1.41-1.06494-2.76-2.19c-13-10.91-21.19-26.77-21.19-44.44,0-18.89,9.36-35.72,23.95-46.62a2.95821,2.95821,0,0,1,2.22-.65,2.65682,2.65682,0,0,1,2.12.7A59.67616,59.67616,0,0,1,99.33482,93.20634Z"/><path class="d" d="M74.93486,139.86637c-1.56.44-3.02-.76-3.89-2.77q1.35,1.125,2.76,2.19A3.6836,3.6836,0,0,0,74.93486,139.86637Z"/><path class="g" d="M90.309,92.55605c.32394-14.20337-1.05987-27.28225-3.63557-37.57788-1.53013-6.11628,3.38221-11.76842,7.785-8.96745C112.24514,57.32624,123.425,74.418,122.99436,93.3015s-12.37815,35.44783-30.66224,45.9407c-4.52592,2.59734-9.17548-3.27288-7.3681-9.313C88.00641,119.76165,89.98505,106.75943,90.309,92.55605Z"/><path class="h" d="M60.78283,93.61366c0,14.20707,1.83142,27.251,4.89141,37.48522,1.81784,6.0798-3.39023,11.84248-8.25343,9.14262-19.64663-10.907-32.24339-27.73946-32.24339-46.62784s12.59676-35.72085,32.2434-46.62788c4.86319-2.69986,10.07127,3.06282,8.25343,9.14262C62.61425,66.36264,60.78283,79.40659,60.78283,93.61366Z"/></svg>