<svg xmlns="http://www.w3.org/2000/svg" xmlns:xlink="http://www.w3.org/1999/xlink" viewBox="0 0 229.76575 137.64562"><defs><style>.a{fill:url(#a);}.b{fill:#e2b246;}.b,.c,.d,.e,.f,.g,.h,.i,.j,.k,.l,.m,.n,.o,.p,.q,.r,.s{stroke:#fff;stroke-miterlimit:10;}.c{fill:url(#b);}.d{fill:url(#c);}.e{fill:url(#d);}.f{fill:url(#e);}.g{fill:url(#f);}.h{fill:url(#g);}.i{fill:url(#h);}.j{fill:url(#i);}.k{fill:url(#j);}.l{fill:url(#k);}.m{fill:url(#l);}.n{fill:url(#m);}.o{fill:url(#n);}.p{fill:url(#o);}.q{fill:url(#p);}.r{fill:url(#q);}.s{fill:url(#r);}</style><linearGradient id="a" y1="68.82281" x2="229.76575" y2="68.82281" gradientUnits="userSpaceOnUse"><stop offset="0.0051" stop-color="#d1aa07"/><stop offset="1" stop-color="#e08534"/></linearGradient><linearGradient id="b" x1="98.34327" y1="109.20027" x2="132.67486" y2="109.20027" gradientUnits="userSpaceOnUse"><stop offset="0" stop-color="#e97f24"/><stop offset="0.10204" stop-color="#fcb316"/><stop offset="0.19898" stop-color="#e97f24"/><stop offset="0.29082" stop-color="#fcb316"/><stop offset="0.34184" stop-color="#e97f24"/><stop offset="0.40816" stop-color="#fcb316"/><stop offset="0.4898" stop-color="#e97f24"/><stop offset="0.56633" stop-color="#fcb316"/><stop offset="0.63265" stop-color="#e97f24"/><stop offset="0.71939" stop-color="#fcb316"/><stop offset="0.80612" stop-color="#e97f24"/><stop offset="0.87245" stop-color="#fcb316"/><stop offset="0.95408" stop-color="#e97f24"/></linearGradient><linearGradient id="c" x1="124.46069" y1="-80.45518" x2="160.95334" y2="-80.45518" gradientTransform="translate(33.35388 230.93907) rotate(-20)" xlink:href="#b"/><linearGradient id="d" x1="217.33456" y1="-273.6516" x2="260.47149" y2="-273.6516" gradientTransform="matrix(0.74314, -0.66913, 0.66913, 0.74314, 161.27584, 465.34507)" xlink:href="#b"/><linearGradient id="e" x1="391.93922" y1="-430.15256" x2="423.48756" y2="-430.15256" gradientTransform="translate(383.84405 646.99375) rotate(-65)" xlink:href="#b"/><linearGradient id="f" x1="568.02888" y1="-508.0595" x2="581.90557" y2="-508.0595" gradientTransform="translate(603.73096 722.09923) rotate(-83)" xlink:href="#b"/><linearGradient id="g" x1="784.28378" y1="-574.06183" x2="805.01305" y2="-574.06183" gradientTransform="matrix(-0.25416, -0.96716, 0.96716, -0.25416, 926.57318, 710.54234)" xlink:href="#b"/><linearGradient id="h" x1="980.87076" y1="-497.56647" x2="1017.71789" y2="-497.56647" gradientTransform="translate(1141.4518 619.58899) rotate(-124.72362)" xlink:href="#b"/><linearGradient id="i" x1="1168.74213" y1="-349.33849" x2="1208.67744" y2="-349.33849" gradientTransform="translate(1335.6484 436.29173) rotate(-146.72362)" xlink:href="#b"/><linearGradient id="j" x1="1307.83892" y1="-135.39023" x2="1341.7744" y2="-135.39023" gradientTransform="translate(1454.76508 174.86475) rotate(-169.72362)" xlink:href="#b"/><linearGradient id="k" x1="1357.00104" y1="56.34205" x2="1392.13566" y2="56.34205" gradientTransform="translate(1471.51859 -56.8903) rotate(172.27638)" xlink:href="#b"/><linearGradient id="l" x1="1464.85194" y1="133.15221" x2="1506.71266" y2="133.15221" gradientTransform="matrix(-0.85661, 0.51596, -0.51596, -0.85661, 1421.55493, -575.95375)" xlink:href="#b"/><linearGradient id="m" x1="1389.01509" y1="410.8014" x2="1429.78805" y2="410.8014" gradientTransform="translate(1273.82856 -756.57006) rotate(128.93845)" xlink:href="#b"/><linearGradient id="n" x1="1211.08836" y1="654.25355" x2="1235.35975" y2="654.25355" gradientTransform="translate(1043.30509 -891.36299) rotate(106.93845)" xlink:href="#b"/><linearGradient id="o" x1="937.32306" y1="802.61966" x2="949.6976" y2="802.61966" gradientTransform="matrix(0.1056, 0.99441, -0.99441, 0.1056, 758.92696, -932.12973)" xlink:href="#b"/><linearGradient id="p" x1="688.65215" y1="827.4042" x2="718.30594" y2="827.4042" gradientTransform="translate(531.81753 -883.01358) rotate(65.93845)" xlink:href="#b"/><linearGradient id="q" x1="479.62348" y1="718.51254" x2="520.67922" y2="718.51254" gradientTransform="matrix(0.75541, 0.65525, -0.65525, 0.75541, 168.45327, -767.98126)" xlink:href="#b"/><linearGradient id="r" x1="95.68823" y1="164.09404" x2="114.45639" y2="180.37359" gradientTransform="translate(6.4289 -71.82519) rotate(6.47782)" xlink:href="#b"/></defs><path class="a" d="M229.41936,87.53606C223.6472,116,178.09728,137.64562,114.78828,137.64562S3.53113,115,.15719,87.53606C-3.2111,60.11814,47.99511,0,111.30411,0S234.89289,60.54481,229.41936,87.53606Z"/><path class="b" d="M113.58914,50.96475c-60.78335,0-110.058,17.6416-110.058,39.4036S52.80579,129.772,113.58914,129.772c60.78341,0,110.05806-17.6416,110.05806-39.40362S174.37255,50.96475,113.58914,50.96475Zm6.60443,40.291a9.64793,9.64793,0,0,1-2.98206.42745,14.44093,14.44093,0,0,1-2.91575-.30661,18.16344,18.16344,0,0,1-1.75321-.51c-.80753-.279-1.18513-.645-1.23522-1.032-.0503-.3887.4974-.75385,1.23522-1.032a9.72375,9.72375,0,0,1,2.98205-.42747,9.87084,9.87084,0,0,1,2.98206.42747c.07557.02611.158.04947.23429.0752a8.51751,8.51751,0,0,1,1.45262.314c.82811.26307,1.18637.65455,1.23522,1.032C121.47584,90.58727,120.92505,91.00258,120.19357,91.25572Z"/><path class="c" d="M132.67486,122.62386c0,4.43085-10.2711,3.24942-18.83068,3.24942-8.561,0-15.50091,1.57062-15.50091-2.86023v-4.86488l2.6952-4.81993,4.93606-8.27609L113.60579,92.257l7.86825,12.72635,5.1464,8.3236,2.71905,4.39692v.00679C129.34229,117.75716,132.67486,122.57732,132.67486,122.62386Z"/><path class="d" d="M163.20681,118.39821c4.379,4.16364-6.44027,4.26917-14.48364,5.2823-8.04469,1.0133-13.01385,3.31062-17.39286-.853l-4.808-4.5715-2.23089-4.84826-3.5409-8.36123-5.47447-12.92679,19.9712,11.02755,13.06228,7.21249,6.90055,3.80992.00671.00638C155.26544,114.21945,163.16081,118.35447,163.20681,118.39821Z"/><path class="e" d="M190.298,109.9791c8.56715,3.29277-1.35009,4.79322-7.71109,6.77532-6.36205,1.98242-8.4826,4.75666-17.04974,1.4639l-9.40636-3.61532-7.31651-4.206-12.3338-7.29336-19.06863-11.2758,30.4539,7.6355,19.9184,4.99392,10.52218,2.63792.01313.005C178.41158,107.13414,190.208,109.94451,190.298,109.9791Z"/><path class="f" d="M206.23575,97.95613c-.12186-.01967-14.15367-1.01152-14.27671-1.0303l-.01776-.00287L179.2772,95.91755,155.30379,94.014l-35.04628-2.78291c-.02173.00793-.04191.017-.06394.02464-.13174.04559-.28525.08874-.44726.13014l29.18739,7.51855,19.588,5.04579,11.48369,2.88232,12.74053,2.056c11.60379,1.87256,10.4235-.96787,14.04149-3.653C210.40484,102.55087,217.83959,99.82869,206.23575,97.95613Z"/><path class="g" d="M208.78671,87.49455c-.13349-.00567-14.36418.55161-14.498.54689a.13068.13068,0,0,0-.01951-.00082l-12.942.39811-24.4998.75334-35.40252,1.08847a.51852.51852,0,0,1-.11784.28981l33.82887,3.954,23.13484,2.70409,13.49539,1.51316,13.9528.59289c12.70794.54,9.04907-2.03522,10.09243-4.97581C216.85451,91.41857,221.49465,88.03454,208.78671,87.49455Z"/><path class="h" d="M213.88034,81.42228c-2.17546-2.86491-1.48419-6.603-13.86713-5.47684-.1301.01183-12.75408,2.35234-12.88345,2.36509l-.01894.00173-11.5971,2.02759-21.95414,3.838-32.32086,5.65023a.92836.92836,0,0,1,.12047.19252l36.33211-.67248,24.38386-.4513,14.15532-.32293,13.596-1.23645C222.20946,86.21133,216.05616,84.28768,213.88034,81.42228Z"/><path class="i" d="M198.88743,70.30544c-4.87566-2.43465-7.92042-6.0291-18.44364-3.5052-.11052.02651-9.66009,3.72007-9.769,3.74737l-.01612.00386-8.89381,3.278-16.837,6.2051-24.80029,9.13975c.02136.00655.04484.01069.066.01742a3.16491,3.16491,0,0,1,.32587.13337L153.9201,84.404l22.46735-3.31022,12.98249-1.9789L200.924,76.34371C211.44727,73.81982,203.76392,72.74049,198.88743,70.30544Z"/><path class="j" d="M170.92424,60.7314c-7.15609-1.6253-13.87-4.56329-20.89488-.859-.07382.03891-4.92987,4.70152-5.00127,4.741l-.01076.00567-4.69795,4.19227-8.89417,7.936L118.05579,88.6762c.06924.01776.13426.03682.19969.056l26.237-9.0993L161.74059,73.651l9.89506-3.51784,7.7131-4.06721C186.37372,62.36163,178.08151,62.357,170.92424,60.7314Z"/><path class="k" d="M132.58151,55.559c-8.42225-.52845-17.91957-2.325-20.20365,2.03474-.024.04581.77035,4.99438.74914,5.04034l-.0035.00668.40881,4.49426.77308,8.5078,1.15672,12.73339c.02054-.00012.04211-.00115.06249-.00115.0903,0,.18116.00764.27192.00987L129.59173,76.532l9.12321-7.83859,5.13656-4.57621,2.50787-4.78686C148.64346,54.97057,141.0052,56.08754,132.58151,55.559Z"/><path class="l" d="M82.49239,59.39882c-1.72071-4.39065,8.916-3.69764,17.39794-4.09575,8.48331-.39817,14.75034-2.27731,16.471,2.11334l1.88926,4.82075-.79894,4.90155-1.67728,8.43059-2.59305,13.034L100.44226,76.35839,92.1101,68.34966l-4.40191-4.23057-.00264-.00673C87.6847,64.06638,82.51047,59.44494,82.49239,59.39882Z"/><path class="m" d="M112.0367,89.02385,99.72443,76.924l-8.11069-7.97078-4.87736-4.61006-7.25313-4.16733c-6.606-3.79552-10.20918-1.21094-17.54262.31769-7.33226,1.52838-17.892,2.35032-11.286,6.14584.0694.03987,10.11056,3.57384,10.18237,3.6132l.01009.0058,8.88465,3.281L86.55,79.75054l25.33682,9.35733C111.93544,89.07958,111.98347,89.05115,112.0367,89.02385Z"/><path class="n" d="M30.80063,75.71083c-9.95875-2.78473-.84814-4.807,4.53143-7.11105,5.38044-2.30444,6.212-5.15963,16.17072-2.37491l10.9343,3.05751,9.13935,3.75474L87.0755,79.56721,111.03776,89.663,77.489,83.78262,55.54648,79.93667,43.9551,77.90518l-.01525-.00427C43.83349,77.87242,30.90524,75.74008,30.80063,75.71083Z"/><path class="o" d="M20.14609,87.76007c-12.248-1.2909-5.98977-4.347-3.496-7.18069,2.49419-2.83416.17452-5.58925,12.42248-4.29835l13.44775,1.41736,12.53822,2.29652,21.43908,4.0453,33.14573,6.25417L72.17223,89.19146l-24.50787-.72129L34.718,88.0893l-.01877-.002C34.56979,88.0747,20.27475,87.77363,20.14609,87.76007Z"/><path class="p" d="M24.41885,100.90491c-12.73181.46788-10.42163-3.19151-11.32549-6.13714-.904-2.94612-6.14994-5.16853,6.58187-5.63641l13.979-.51372,14.1344.41854,24.30216.82473,37.57212,1.275L73.92528,95.18754l-23.374,2.65-12.3472,1.4a.12958.12958,0,0,1-.0195.00072C38.05116,99.24415,24.55259,100.9,24.41885,100.90491Z"/><path class="q" d="M37.831,110.32191c-11.69088,1.80654-12.76136-1.9208-16.25125-4.6256-3.49047-2.70525-10.46411-4.25788,1.22677-6.06442l12.8361-1.9835L49.459,96.5349l23.84916-1.81453L110.17988,91.915,79.8092,99.59011l-19.86371,5.01994L49.45272,107.262l-.01791.00277C49.31317,107.28459,37.95383,110.30294,37.831,110.32191Z"/><path class="r" d="M69.17208,118.69062c-8.38939,3.34713-13.9114.12558-20.37742-1.81539-6.46708-1.9413-14.68343-2.32853-6.294-5.67566l9.21121-3.675L62.8739,104.4947l19.39878-5.13257,29.99124-7.93519L94.11156,102.8248l-11.87229,7.45477-6.27116,3.93806-.01285.00513C75.86926,114.25855,69.26021,118.65547,69.17208,118.69062Z"/><path class="s" d="M112.39007,92.70727,105.64325,105.509l-4.41172,8.37531-2.33414,4.42351s-.001.0029-.01029.00547c-.04783.04218-2.27443,4.93995-2.33059,4.9818-4.87565,4.09745-13.07029,1.64857-20.98438.518-7.915-1.12768-16.06138-.59292-11.1783-4.68712.001-.00291,5.35536-4.49869,5.36375-4.49836l7.79668-4.10017,13.68862-7.00022Z"/></svg>