<svg xmlns="http://www.w3.org/2000/svg" xmlns:xlink="http://www.w3.org/1999/xlink" viewBox="0 0 133.94226 173.50988"><defs><style>.a,.b,.c{stroke:#231f20;stroke-miterlimit:10;}.a{fill:url(#a);}.b{fill:url(#b);}.c{fill:url(#c);}.d{fill:#3c2415;}</style><linearGradient id="a" x1="-2078.46201" y1="1078.31189" x2="-1936.05887" y2="1078.31189" gradientTransform="matrix(0.93354, 0.012, -0.0137, 1.06578, 1955.92321, -1070.94372)" gradientUnits="userSpaceOnUse"><stop offset="0" stop-color="#c49a6c"/><stop offset="0.56122" stop-color="#f1f2f2"/><stop offset="1" stop-color="#c49a6c"/></linearGradient><radialGradient id="b" cx="-2008.26331" cy="1224.61899" r="47.09548" gradientTransform="matrix(0, 0.93362, -1, 0, 1290.5368, 1963.01762)" gradientUnits="userSpaceOnUse"><stop offset="0" stop-color="#fed095"/><stop offset="1" stop-color="#a97c50"/></radialGradient><linearGradient id="c" x1="-2033.10841" y1="1266.61803" x2="-1973.74317" y2="1266.61803" gradientTransform="translate(2084.56266 -1110.71167) rotate(0.73637)" xlink:href="#a"/></defs><path class="a" d="M133.44086,79.81464c-.24108,18.75656-30.13164,28.57126-66.84184,28.09944S.26039,96.86258.50146,78.106,29.42966.031,66.13986.5028,133.68193,61.05808,133.44086,79.81464Z"/><ellipse class="b" cx="65.91781" cy="88.06341" rx="15.17934" ry="60.54548" transform="translate(-22.98548 152.84402) rotate(-89.26364)"/><path class="c" d="M92.97536,87.49642c-8.31878,15.02918-15.80515,35.0553-9.142,53.81469,4.35081,12.2493,12.54821,17.22308,9.97567,22.88542-6.19741,13.64093-53.98,10.61457-58.5469-3.35821-2.22735-6.81469,8.77829-11.06461,12.13992-25.59574,5.37938-23.25309-3.66631-42.266-6.71335-48.06285Z"/><path class="d" d="M34.32713,33.59148a9.74842,9.74842,0,0,1,2.13281-.12988h.38867c-.02539-2.52246-.23242-7.748-.416-9.41211h-.07813a8.20769,8.20769,0,0,1-1.97461-.18262l.4668-2.28711a31.154,31.154,0,0,0,4.082.10352h4.26562c3.82227,0,4.54883.91015,4.54883,5.35644v8.78809H45.7158V27.76726c0-2.57422-.28711-3.71777-2.70508-3.71777H38.43455c.13086,1.66406.416,7.61816.39062,9.43847l-.36328,2.33985H36.40721a22.97383,22.97383,0,0,0-2.57422.10351Z"/><path class="d" d="M50.292,21.78679l2.44336-.2334c.65039,3.12012,1.35156,7.332,2.002,11.96a20.75956,20.75956,0,0,0,2.1836-.28516,5.19628,5.19628,0,0,0,4.55078-5.5127c0-2.49609-1.27344-3.90039-3.25-3.92578a6.15556,6.15556,0,0,0-2.36524.46778l.44141-2.418a6.179,6.179,0,0,1,2.39258-.416c3.30078,0,4.83594,2.54785,4.80859,5.876a7.79757,7.79757,0,0,1-6.55078,8.19043,34.28944,34.28944,0,0,1-3.84961.51953C52.31931,31.38152,51.40916,25.89519,50.292,21.78679Z"/><path class="d" d="M66.67088,29.63933a8.15,8.15,0,0,0,1.63867-3.97754c0-.8584-.49414-1.14453-1.68945-1.48242a16.15377,16.15377,0,0,1-1.58594-.51953l.4414-2.28906a15.117,15.117,0,0,0,1.53321.44238c2.4707.5459,3.32812,1.32617,3.32812,3.25a10.13179,10.13179,0,0,1-2.05273,5.35645Z"/><path class="d" d="M74.10642,27.63738a20.655,20.655,0,0,1,.207-3.61426c-.4668-.02539-1.71485-.10351-1.89844-.12988l.44336-2.33985a23.52034,23.52034,0,0,0,3.61328.12989h4.707c3.79492,0,4.52344,1.16992,4.52344,5.48633v8.6582H83.67478v-7.9043c0-2.86035-.25976-3.874-2.73047-3.874H76.10838V35.82781h-2.002Z"/><path class="d" d="M89.15916,24.02312a7.07491,7.07491,0,0,1-1.32617-.15625l.46875-2.31348a29.46109,29.46109,0,0,0,3.6914.12989h5.90235c3.17382,0,3.74414,1.66406,3.74414,4.34179,0,6.11036-3.56055,8.94434-7.01953,9.56836a28.60361,28.60361,0,0,1-3.35352.416C90.61619,32.49968,89.52439,25.97332,89.15916,24.02312Zm5.82422,9.23047c3.22461-.65039,4.60351-3.32813,4.60351-6.65625,0-1.71582-.49414-2.54785-2.28906-2.54785H91.23924c.3125,1.89746,1.19726,7.0459,1.61328,9.5166A21.39676,21.39676,0,0,0,94.98338,33.25359Z"/><path class="d" d="M53.85252,61.568a23.36639,23.36639,0,0,0-4.0293-8.58008l2.75586-.26074a22.47347,22.47347,0,0,1,3.17188,7.6709c2.5996-.96289,3.50976-2.36621,3.50976-4.34277a8.44869,8.44869,0,0,0-.64844-3.06739l2.54688-.23437a8.43772,8.43772,0,0,1,.36523,2.73047c0,3.27539-1.82031,5.38183-5.59179,6.7334.05273.46875.07812,1.248.07812,2.67871v7.124h-2.002V63.95964A18.62275,18.62275,0,0,0,53.85252,61.568Z"/><path class="d" d="M65.13572,60.83953A8.15,8.15,0,0,0,66.77439,56.862c0-.8584-.49414-1.14453-1.68945-1.48242a15.8757,15.8757,0,0,1-1.58594-.52051l.44141-2.28711a15.419,15.419,0,0,0,1.5332.44141c2.4707.54589,3.32813,1.32617,3.32813,3.25A10.13178,10.13178,0,0,1,66.749,61.6198Z"/><path class="d" d="M73.01463,59.04558c.36328-2.59961-.67578-3.61426-2.31446-4.0039l.46875-2.418a3.97261,3.97261,0,0,1,3.5625,3.666,5.35536,5.35536,0,0,1,5.043-3.64062c4.05664,0,5.04492,3.71875,5.04492,8.73633v3.32812c0,.23438-.2871,1.9502-.36328,2.31445H79.333c-1.041,0-2.39258.02637-2.9375.07813l.4414-2.31445a24.76461,24.76461,0,0,1,3.19727-.10352h2.73047c.02734-1.09277.02734-2.1582.02734-3.19824,0-3.27637-.416-6.47461-3.459-6.47461-2.88672,0-3.90039,2.86035-4.291,4.6289-.416,1.74122-.96094,4.8877-1.42969,7.38379H71.58494C72.10447,64.35027,72.72947,60.96941,73.01463,59.04558Z"/></svg>