<svg xmlns="http://www.w3.org/2000/svg" xmlns:xlink="http://www.w3.org/1999/xlink" viewBox="0 0 207.57001 309"><defs><style>.a{fill:url(#a);}.b{fill:none;}.c{fill:#a3c3d3;}.d{fill:url(#b);}.e{fill:url(#c);}.f{fill:url(#d);}.g{fill:url(#e);}</style><linearGradient id="a" y1="154.5" x2="207.57001" y2="154.5" gradientUnits="userSpaceOnUse"><stop offset="0.32143" stop-color="#a3c3d3"/><stop offset="0.62245" stop-color="#53879c"/></linearGradient><linearGradient id="b" x1="0.00076" y1="14.34175" x2="207.56925" y2="14.34175" gradientUnits="userSpaceOnUse"><stop offset="0.29592" stop-color="#53879c"/><stop offset="0.61735" stop-color="#406d7e"/></linearGradient><linearGradient id="c" x1="44.01138" y1="300.35001" x2="165.09002" y2="300.35001" xlink:href="#a"/><linearGradient id="d" x1="16.0457" y1="215.14" x2="191.05571" y2="215.14" gradientUnits="userSpaceOnUse"><stop offset="0.0051" stop-color="#d1aa07"/><stop offset="0.46429" stop-color="#ca7916"/><stop offset="1" stop-color="#b25d19"/></linearGradient><linearGradient id="e" x1="14.12097" y1="123.61" x2="191.05571" y2="123.61" gradientUnits="userSpaceOnUse"><stop offset="0" stop-color="#ca7916"/><stop offset="0.47449" stop-color="#b25d19"/><stop offset="1" stop-color="#b04f19"/></linearGradient></defs><path class="a" d="M206.44,22.38,166.48,298.35c1.35.69,2.07,1.41,2.07,2.15,0,4.69-28.56,8.5-63.78,8.5-31.59,0-57.82-3.07-62.88-7.09l-.36-2.51L1.48,22.79A4.8923,4.8923,0,0,1,0,19.5C0,8.73,46.47,0,103.78,0,161.1,0,207.57,8.73,207.57,19.5A4.59579,4.59579,0,0,1,206.44,22.38Z"/><line class="b" x1="1.48" y1="22.79" x2="1" y2="19.5"/><line class="b" x1="42" y1="302.67" x2="41.89" y2="301.91"/><line class="b" x1="207" y1="18.5" x2="206.44" y2="22.38"/><line class="b" x1="166.48" y1="298.35" x2="166" y2="301.67"/><path class="c" d="M41.89,301.91A1.86885,1.86885,0,0,1,41,300.5a1.60363,1.60363,0,0,1,.53-1.1Z"/><ellipse class="d" cx="103.78501" cy="14.34175" rx="103.78425" ry="13.34175"/><ellipse class="e" cx="104.5507" cy="300.35001" rx="60.53932" ry="8.5"/><path class="f" d="M191.05571,123.61l-24.96,172.41c1.35.69,2.06995,1.41,2.06995,2.15,0,4.69-28.56,8.5-63.78,8.5-31.59,0-57.82-3.07-62.88-7.09l-.36-2.51-25.1-173.37c18.46,5.4,50.69,8.97,87.36005,8.97C140.26573,132.67,172.64574,129.06,191.05571,123.61Z"/><ellipse class="g" cx="102.58834" cy="123.61" rx="88.46737" ry="8.5"/></svg>