<svg xmlns="http://www.w3.org/2000/svg" xmlns:xlink="http://www.w3.org/1999/xlink" viewBox="0 0 173.48465 303.11441"><defs><style>.a,.an,.ao{fill:none;}.aa,.ab,.ad,.ae,.af,.ag,.ah,.ai,.aj,.ak,.b,.k,.l,.m,.n,.o,.p,.q,.r,.u,.v,.w,.x,.y,.z{stroke:#231f20;}.aa,.ab,.ad,.ae,.af,.ag,.ah,.ai,.aj,.ak,.an,.b,.k,.l,.m,.n,.o,.p,.q,.r,.u,.v,.w,.x,.y,.z{stroke-miterlimit:10;}.b{fill:url(#a);}.c{fill:url(#b);}.d{fill:#f1f2f2;}.e{fill:#e6e7e8;}.f{fill:#967f46;}.g{fill:#006838;}.h{fill:#231f20;}.i{clip-path:url(#c);}.j{fill:url(#d);}.k{fill:url(#e);}.l{fill:url(#f);}.m{fill:url(#g);}.n{fill:url(#h);}.o{fill:url(#i);}.p{fill:url(#j);}.q{fill:url(#k);}.r{fill:url(#l);}.s{fill:#009444;}.t{fill:url(#m);}.u{fill:url(#n);}.v{fill:url(#o);}.w{fill:url(#p);}.x{fill:url(#q);}.y{fill:url(#r);}.z{fill:url(#s);}.aa{fill:url(#t);}.ab{fill:url(#u);}.ac{fill:url(#v);}.ad{fill:url(#w);}.ae{fill:url(#x);}.af{fill:url(#y);}.ag{fill:url(#z);}.ah{fill:url(#aa);}.ai{fill:url(#ab);}.aj{fill:url(#ac);}.ak{fill:url(#ad);}.al{fill:url(#ae);}.am{fill:#f7941d;}.an,.ao{stroke:#f7941d;stroke-linecap:round;stroke-width:2px;}.ao{stroke-linejoin:round;}</style><linearGradient id="a" x1="0.50261" y1="140.57139" x2="172.98201" y2="140.57139" gradientUnits="userSpaceOnUse"><stop offset="0" stop-color="#4c0000"/><stop offset="0.73469" stop-color="#862101"/><stop offset="1" stop-color="#580500"/></linearGradient><linearGradient id="b" x1="20.43315" y1="4.9205" x2="153.05147" y2="4.9205" gradientUnits="userSpaceOnUse"><stop offset="0" stop-color="#340000"/><stop offset="0.70408" stop-color="#681100"/><stop offset="1" stop-color="#340000"/></linearGradient><clipPath id="c"><polygon class="a" points="77.103 199.897 53.448 199.897 47.564 160.219 71.219 160.219 77.103 199.897"/></clipPath><radialGradient id="d" cx="715.34754" cy="224.62612" r="12.63639" gradientTransform="matrix(0.96832, 0, 0.21318, 1.43745, -677.55143, -138.56361)" gradientUnits="userSpaceOnUse"><stop offset="0" stop-color="#ffde17"/><stop offset="1" stop-color="#f5841f"/></radialGradient><linearGradient id="e" x1="91.94776" y1="176.40171" x2="113.73451" y2="176.40171" gradientUnits="userSpaceOnUse"><stop offset="0" stop-color="#8b0304"/><stop offset="0.9898" stop-color="#ec1c24"/><stop offset="1" stop-color="#e71c23"/><stop offset="1" stop-color="#fff"/></linearGradient><linearGradient id="f" x1="97.39445" y1="176.27151" x2="119.18119" y2="176.27151" xlink:href="#e"/><linearGradient id="g" x1="105.20136" y1="175.66254" x2="124.44632" y2="175.66254" gradientUnits="userSpaceOnUse"><stop offset="0" stop-color="#8b0304"/><stop offset="0.7602" stop-color="#e71c23"/><stop offset="0.9898" stop-color="#ec1c24"/><stop offset="1" stop-color="#fff"/></linearGradient><linearGradient id="h" x1="97.00009" y1="162.29602" x2="106.86826" y2="162.29602" gradientUnits="userSpaceOnUse"><stop offset="0" stop-color="#006838"/><stop offset="0.9949" stop-color="#39b54a"/></linearGradient><linearGradient id="i" x1="262.57251" y1="-24.13143" x2="271.68492" y2="-24.13143" gradientTransform="translate(-57.78863 381.7304) rotate(-48.50578)" xlink:href="#h"/><linearGradient id="j" x1="875.43314" y1="342.19712" x2="884.7365" y2="342.19712" gradientTransform="translate(1058.36872 149.77101) rotate(157.68647)" xlink:href="#h"/><linearGradient id="k" x1="665.61042" y1="218.41856" x2="674.86425" y2="218.41856" gradientTransform="matrix(-1.07984, -0.19893, -0.14901, 0.80885, 871.95805, 119.94309)" xlink:href="#h"/><linearGradient id="l" x1="747.68175" y1="205.34782" x2="755.24165" y2="205.34782" gradientTransform="matrix(-0.85109, -0.52502, 0.52502, -0.85109, 640.97706, 738.51903)" xlink:href="#h"/><linearGradient id="m" x1="254.25048" y1="295.85841" x2="254.25048" y2="283.51627" gradientTransform="matrix(1.3422, 0.58178, -0.33468, 0.77213, -134.57038, -211.12791)" gradientUnits="userSpaceOnUse"><stop offset="0" stop-color="#009444"/><stop offset="0.37755" stop-color="#006838"/><stop offset="1" stop-color="#675d3f"/></linearGradient><linearGradient id="n" x1="142.33904" y1="639.54892" x2="158.22353" y2="639.54892" gradientTransform="translate(749.80845 38.01822) rotate(90)" xlink:href="#e"/><linearGradient id="o" x1="146.31016" y1="639.45399" x2="162.19465" y2="639.45399" gradientTransform="translate(753.41963 35.47665) rotate(90)" xlink:href="#e"/><linearGradient id="p" x1="152.0021" y1="639.01" x2="166.0334" y2="639.01" gradientTransform="translate(757.54908 32.12172) rotate(90)" xlink:href="#g"/><linearGradient id="q" x1="146.02264" y1="629.26461" x2="153.21742" y2="629.26461" gradientTransform="translate(215.73671 -460.14621) rotate(22.46238)" xlink:href="#h"/><linearGradient id="r" x1="-53.54126" y1="320.53559" x2="-46.89749" y2="320.53559" gradientTransform="translate(16.48219 -129.45714) rotate(-26.04341)" xlink:href="#h"/><linearGradient id="s" x1="1012.4152" y1="-105.40366" x2="1019.19815" y2="-105.40366" gradientTransform="translate(1136.55775 82.61271) rotate(-179.85116)" xlink:href="#h"/><linearGradient id="t" x1="550.47868" y1="766.78943" x2="557.22555" y2="766.78943" gradientTransform="matrix(-0.92191, -0.59642, -0.44674, 0.69055, 975.7124, -16.14831)" xlink:href="#h"/><linearGradient id="u" x1="465.61867" y1="-166.48984" x2="471.13051" y2="-166.48984" gradientTransform="matrix(-0.58592, -0.81037, 0.81037, -0.58592, 525.91236, 467.24422)" xlink:href="#h"/><linearGradient id="v" x1="409.92133" y1="782.3168" x2="409.92133" y2="773.31828" gradientTransform="matrix(1.01808, 1.05046, -0.6043, 0.58567, 172.04315, -706.67218)" xlink:href="#m"/><linearGradient id="w" x1="97.46401" y1="78.44884" x2="113.3485" y2="78.44884" gradientTransform="translate(-17.41372 109.82725)" xlink:href="#e"/><linearGradient id="x" x1="101.43513" y1="78.35392" x2="117.31962" y2="78.35392" gradientTransform="translate(-17.44279 109.43325)" xlink:href="#e"/><linearGradient id="y" x1="107.12708" y1="77.90992" x2="121.15837" y2="77.90992" gradientTransform="translate(-17.51046 108.96209)" xlink:href="#g"/><linearGradient id="z" x1="101.14761" y1="68.16453" x2="108.34239" y2="68.16453" gradientTransform="translate(-24.68497 120.68555) rotate(-5.70076)" xlink:href="#h"/><linearGradient id="aa" x1="337.00366" y1="-84.83058" x2="343.64742" y2="-84.83058" gradientTransform="matrix(0.58487, -0.81113, 0.81113, 0.58487, -44.26937, 506.26833)" xlink:href="#h"/><linearGradient id="ab" x1="840.92387" y1="430.74579" x2="847.70684" y2="430.74579" gradientTransform="translate(1043.32652 164.5849) rotate(151.9857)" xlink:href="#h"/><linearGradient id="ac" x1="683.25348" y1="105.74229" x2="690.00035" y2="105.74229" gradientTransform="matrix(-1.09426, -0.09068, -0.06792, 0.81965, 854.8749, 153.42123)" xlink:href="#h"/><linearGradient id="ad" x1="798.40055" y1="287.49615" x2="803.91239" y2="287.49615" gradientTransform="translate(686.48128 791.88188) rotate(-154.03112)" xlink:href="#h"/><linearGradient id="ae" x1="229.23248" y1="191.76763" x2="229.23248" y2="182.76911" gradientTransform="matrix(1.39335, 0.44558, -0.25633, 0.80155, -179.56176, -76.03089)" xlink:href="#m"/></defs><path class="b" d="M172.17442,80.67078l.80759-38.20035L152.83129,4.4539l-66.3155-1.694V2.865L20.65334,4.5524.50261,42.56889l.80106,38.19378,12.78377,20.18358c1.62176,2.94151,18.10874,35.1472,2.62636,63.93208C10.509,176.408,8.7428,182.86228,2.92543,186.46041L2.39359,228.423a76.364,76.364,0,0,0,34.01788,30.26221l26.92016,19.69767H86.96884V278.291H110.153l26.92015-19.70425A76.36392,76.36392,0,0,0,171.091,228.32454l-.53179-41.96263c-5.81741-3.5981-7.59021-10.04581-13.78842-21.58208-15.48238-28.77832.998-60.984,2.62636-63.93208ZM26.83839,184.84519l.16415-.499c.24951.17072.499.33487.74195.499Z"/><ellipse class="c" cx="86.74231" cy="4.9205" rx="66.30916" ry="4.9205"/><path class="d" d="M138.61285,255.89471V288.603c0,8.01585-23.217,14.51142-51.87054,14.51142-28.647,0-51.87054-6.49557-51.87054-14.51142V255.89471c0,8.01585,23.22356,14.51142,51.87054,14.51142C115.39583,270.40613,138.61285,263.91056,138.61285,255.89471Z"/><path class="e" d="M147.89951,97.58734,132.70719,208.98209H47.644L28.40108,97.58734H44.69976L37.95537,77.70383c.31151-.22028.63044-.44052.94936-.6532,13.914-9.38731,30.96453-11.67339,49.24557-11.87087,18.48611-.19743,35.55188,1.85317,49.75436,11.13419.14426.09113.29621.18987.44056.28861L131.578,97.58734Z"/><path class="f" d="M141.99021,100.1406,128.21278,205.16038H51.07173L33.62091,100.1406H48.40166L42.28539,81.395c.2825-.20767.57172-.4153.861-.61581,12.61812-8.8501,28.08073-11.00535,44.65922-11.19152,16.76446-.18613,32.24087,1.74711,45.12064,10.497.13082.08592.26862.179.39953.2721l-6.13695,19.78385Z"/><path class="f" d="M141.99021,100.1406,128.21278,205.16038H51.07173L33.62091,100.1406H48.40166L42.28539,81.395c.2825-.20767.57172-.4153.861-.61581,12.61812-8.8501,28.08073-11.00535,44.65922-11.19152,16.76446-.18613,32.24087,1.74711,45.12064,10.497.13082.08592.26862.179.39953.2721l-6.13695,19.78385Z"/><path class="g" d="M139.003,102.13739,125.9851,202.73613H53.09688L36.60815,102.13739H50.574L44.795,84.18093c.26692-.19894.5402-.39783.81348-.5899,11.92248-8.47752,26.53263-10.542,42.19713-10.72038,15.84023-.1783,30.46341,1.67356,42.63311,10.0551.12361.0823.25381.17147.37751.26064l-5.79862,18.951Z"/><path class="e" d="M137.03321,103.2635l-12.53229,96.84627H54.33152L38.45783,103.2635H51.90277L46.33926,85.97683c.257-.19151.52-.383.78314-.56789,11.47775-8.1613,25.54292-10.14882,40.62312-10.3205,15.24937-.17164,29.32709,1.61113,41.04284,9.68.119.07923.24435.16507.36343.25092l-5.58233,18.24411Z"/><path class="h" d="M67.26537,118.48984a7.73219,7.73219,0,0,1-1.19922,4.23047,4.08755,4.08755,0,0,1-3.57422,2.1748H57.50658v-2.0332h4.88086a2.36588,2.36588,0,0,0,2.07519-1.44141,5.82157,5.82157,0,0,0,.707-2.90723q0-3.99462-2.77929-3.99511H59.96459l-.72852,3.1914a1.70093,1.70093,0,0,0-.02441.33106c0,.0625.08691.09473.26074.09473H61.99v2.03222H58.99974a1.65345,1.65345,0,0,1-1.41894-.59082,1.89893,1.89893,0,0,1-.37305-.76855,2.03734,2.03734,0,0,1-.0918-.81543l.96485-5.50684h4.498a4.06086,4.06086,0,0,1,3.55664,1.9375A7.11516,7.11516,0,0,1,67.26537,118.48984Z"/><path class="h" d="M74.23705,124.89511H72.14037V114.80234c0-.18946-.10156-.28418-.30567-.28418H68.84349v-2.03223H72.488a1.54633,1.54633,0,0,1,1.749,1.749Z"/><path class="h" d="M89.68529,120.49863a3.96942,3.96942,0,0,1-2.18555,3.498,8.13845,8.13845,0,0,1-8.36914,0,3.96941,3.96941,0,0,1-2.18554-3.498v-8.0127h2.0957v7.68164a3.60852,3.60852,0,0,0,.11816.875q3.10841-.49658,3.1084-2.90722v-5.64942H84.363v5.97949q0,2.92677-3.92285,4.18457a6.29787,6.29787,0,0,0,2.80762.47266q4.3418,0,4.3418-2.95508v-7.68164h2.0957Z"/><path class="h" d="M102.91966,119.90781a4.89383,4.89383,0,0,1-1.49218,3.75781,5.39782,5.39782,0,0,1-3.8418,1.39453,5.70763,5.70763,0,0,1-3.94824-1.47656,4.84329,4.84329,0,0,1-1.64453-3.77051v-7.32715h2.0957v7.2168a3.16649,3.16649,0,0,0,1.02832,2.40527,3.47421,3.47421,0,0,0,2.46875.9668,3.14809,3.14809,0,0,0,2.36328-.89551,3.26109,3.26109,0,0,0,.875-2.38086v-4.50195q0-.873-1.165-.87305-1.33153,0-1.331.87207v2.71094H96.23119v-2.94922a2.30673,2.30673,0,0,1,1.10351-2.0293,4.18244,4.18244,0,0,1,2.32325-.63672q3.2622,0,3.26171,3.12012Z"/><path class="h" d="M114.57787,117.61484q0,.73242-1.90821,2.71875a2.81344,2.81344,0,0,0-.918,1.89062v2.6709H109.655v-2.71875a3.236,3.236,0,0,1,.73046-1.96094q.68262-.73242,1.38965-1.501a2.18482,2.18482,0,0,0,.70606-1.38282v-2.0332a.69861.69861,0,0,0-.80078-.78027H105.157v-2.03223h7.1123q2.30861,0,2.3086,2.41016Zm-7.06543,9.07715h-2.09571v-9.92774h2.09571Z"/><g class="i"><polygon class="h" points="76.588 196.422 52.933 196.422 47.564 160.219 71.219 160.219 76.588 196.422"/><polygon class="h" points="76.588 196.422 52.933 196.422 47.564 160.219 71.219 160.219 76.588 196.422"/><polygon class="j" points="75.407 206.123 57.097 206.123 50.631 162.526 68.941 162.526 75.407 206.123"/><ellipse class="h" cx="67.31041" cy="209.57018" rx="25.77219" ry="29.88222" transform="translate(-133.06576 118.46726) rotate(-47.74449)"/></g><path class="d" d="M62.83666,191.99326l.62109,4.27246H62.04369l-.68067-4.58985q-.26952-1.812-1.57129-1.8125h-1.0664l-.11133,1.50586h1.10352l.19336,1.30664H58.55931a1.36533,1.36533,0,0,1-.87011-.30566,1.15057,1.15057,0,0,1-.45215-.75293,1.37535,1.37535,0,0,1-.01563-.18848l.10742-2.87207H59.697Q62.3264,188.55673,62.83666,191.99326Z"/><path class="d" d="M71.17357,192.68857a1.77274,1.77274,0,0,1-.92676,1.84668,3.94636,3.94636,0,0,1-2.22168.624,4.84537,4.84537,0,0,1-2.3955-.624,2.56326,2.56326,0,0,1-1.47559-1.84668l-.61231-4.13184H64.9558l.58789,3.9668a1.20141,1.20141,0,0,0,.06543.27051q1.31689-.31788,1.17383-1.28321l-.43848-2.9541h1.41406l.46192,3.11914q.20946,1.40919-1.46778,2.083a4.16,4.16,0,0,0,1.03223.09473,2.74707,2.74707,0,0,0,1.53125-.34766.93275.93275,0,0,0,.41992-.98242l-.58887-3.9668h1.41407Z"/><path class="d" d="M56.10619,184.05576q.34863-.01613.627-.01563a2.87209,2.87209,0,0,1,.46777.03125,1.69116,1.69116,0,0,1,.35938.10352,1.091,1.091,0,0,1,.29883.18359,1.0551,1.0551,0,0,1,.33008.65723l.31738,2.1416h-.416l-.31836-2.14649c-.0625-.4248-.39355-.63574-.99218-.63574q-.271,0-.624.0166Z"/><path class="d" d="M60.76537,184.627a.78815.78815,0,0,0-.25489-.18554.826.826,0,0,0-.35058-.07129,2.09124,2.09124,0,0,0-.34473.02441l-.04785-.32422a1.64433,1.64433,0,0,1,.35254-.03027,1.3482,1.3482,0,0,1,.39941.05664,1.20254,1.20254,0,0,1,.36231.18164,1.44954,1.44954,0,0,1,.30566.30762,2.2719,2.2719,0,0,1,.38477,1.03613,2.44821,2.44821,0,0,1,.02246.58887,1.33158,1.33158,0,0,1-.11328.44726.94192.94192,0,0,1-.22852.30762.89782.89782,0,0,1-.31933.18164,1.26284,1.26284,0,0,1-.38868.05664,1.42891,1.42891,0,0,1-.40429-.05664,1.29248,1.29248,0,0,1-.373-.18164,1.463,1.463,0,0,1-.31934-.30762,1.77432,1.77432,0,0,1-.24609-.44726,2.61027,2.61027,0,0,1-.15234-.58887L58.822,184.087h.43066l.22754,1.53515a2.17141,2.17141,0,0,0,.2959.8584.84076.84076,0,0,0,.30176.29.79446.79446,0,0,0,.39551.10351.75967.75967,0,0,0,.3496-.07031.539.539,0,0,0,.21094-.18652.844.844,0,0,0,.10742-.2832,2.11709,2.11709,0,0,0-.00293-.71192,3.817,3.817,0,0,0-.07324-.375,1.965,1.965,0,0,0-.12011-.33691A1.1555,1.1555,0,0,0,60.76537,184.627Z"/><path class="d" d="M63.06029,184.04013a1.34258,1.34258,0,0,1,.98047.3916,2.04887,2.04887,0,0,1,.51562,1.19043,2.39845,2.39845,0,0,1,.02246.58887,1.33216,1.33216,0,0,1-.1123.44726.95845.95845,0,0,1-.22949.30762.89786.89786,0,0,1-.31934.18164,1.2564,1.2564,0,0,1-.38769.05664,1.43084,1.43084,0,0,1-.40528-.05664,1.28747,1.28747,0,0,1-.37207-.18164,1.44594,1.44594,0,0,1-.32031-.30762,1.7737,1.7737,0,0,1-.24609-.44726,2.71781,2.71781,0,0,1-.15235-.58887,2.24314,2.24314,0,0,1-.00488-.7539,1.07239,1.07239,0,0,1,.19434-.47168l-.31836.01855-.04981-.335Q62.37816,184.03916,63.06029,184.04013Zm-.60059.89258a2.34815,2.34815,0,0,0-.001.64648,3.05489,3.05489,0,0,0,.11425.50879,1.8061,1.8061,0,0,0,.1875.39453.85151.85151,0,0,0,.30176.28809.84059.84059,0,0,0,.41895.10351.68523.68523,0,0,0,.38867-.10351.56006.56006,0,0,0,.21484-.29,2.30154,2.30154,0,0,0-.34668-1.84863.80106.80106,0,0,0-.26855-.18457.90216.90216,0,0,0-.3584-.06934l-.44824.00391A1.08056,1.08056,0,0,0,62.4597,184.93271Z"/><path class="d" d="M67.17552,184.087l.14844.99707a3.1086,3.1086,0,0,1,.03223.33691,1.4037,1.4037,0,0,1-.02832.29883.61255.61255,0,0,1-.41211.45508l.77051.98242h-.46875l-.98047-1.28321-.46192-.543a.48519.48519,0,0,0-.13476.07128.647.647,0,0,0-.14746.61426l.16894,1.14063h-.416l-.14746-.99707a1.36164,1.36164,0,0,1,.04785-.77442.61058.61058,0,0,1,.15332-.19043.757.757,0,0,1,.25879-.14257l-.76563-.96582h.47168l.91895,1.1875.50976.61621a.53408.53408,0,0,0,.168-.14746.55624.55624,0,0,0,.07227-.207,1.03885,1.03885,0,0,0-.00489-.30957l-.16894-1.13964Z"/><path class="d" d="M69.19994,184.04013a1.02609,1.02609,0,0,1,.751.27148,1.27,1.27,0,0,1,.34766.7461l.31152,2.09961H69.50658l-.0459-.30762h.6875l-.26367-1.77539a.7214.7214,0,0,0-.78125-.70117.67561.67561,0,0,0-.22559.03808.64435.64435,0,0,0-.17773.09473.97769.97769,0,0,0-.20313.209l-.02343.03907.11816,2.40332h-.41895l-.11425-2.36133-.00782-.05176a1.96691,1.96691,0,0,0-.06836-.21972,1.48134,1.48134,0,0,0-.13085-.29l-.08692-.14746h.41895a1.22774,1.22774,0,0,1,.16308.32324H68.364a.8654.8654,0,0,1,.27734-.24219,1.15629,1.15629,0,0,1,.23829-.08789A1.20453,1.20453,0,0,1,69.19994,184.04013Z"/><path class="h" d="M63.874,168.59933c.19924,1.34343-.8928,3.41976-2.61977,3.41976s-3.43487-2.07633-3.63412-3.41976.68008-4.85413,2.407-4.85413S63.6748,167.2559,63.874,168.59933Z"/><path class="h" d="M62.32225,177.57627a50.111,50.111,0,0,0,1.01054,5.25963H61.83392c.00459-1.74708.02649-3.54218-.13266-5.18964a24.757,24.757,0,0,0-1.2918-5.72859q-.23259-.67507-.52082-1.4043l2.07352.7494q-.00672.29041-.00894.61965A41.076,41.076,0,0,0,62.32225,177.57627Z"/><path class="h" d="M68.86431,165.35676l-1.41854,8.8412c-.0549.34215-.50686.362-.66969.02809a8.8634,8.8634,0,0,1-.906-3.99169,6.78042,6.78042,0,0,1,2.399-5.29759C68.52088,164.73549,68.91888,165.01671,68.86431,165.35676Z"/><path class="h" d="M66.78754,178.87437a48.04228,48.04228,0,0,0-.09712,4.88527l-1.273-.25772c.32124-1.56423.66589-3.16849.83-4.67163a23.69157,23.69157,0,0,0-.05656-5.35372q-.07493-.64473-.18725-1.34752l1.62488,1.02784q-.05846.259-.12015.55354A39.57349,39.57349,0,0,0,66.78754,178.87437Z"/><polygon class="h" points="54.855 171.25 54.424 171.321 53.994 171.392 53.079 167.911 52.164 164.43 53.509 167.84 54.855 171.25"/><polygon class="h" points="56.376 170.994 55.946 171.066 55.515 171.137 54.6 167.656 53.686 164.175 55.031 167.585 56.376 170.994"/><polygon class="h" points="55.605 171.119 55.174 171.191 54.744 171.262 53.829 167.781 52.914 164.3 54.259 167.71 55.605 171.119"/><polygon class="h" points="57.105 170.881 56.674 170.952 56.244 171.023 55.329 167.542 54.414 164.061 55.76 167.471 57.105 170.881"/><polygon class="h" points="56.683 173.81 55.333 172.592 53.982 171.373 55.554 171.093 57.127 170.812 56.905 172.311 56.683 173.81"/><path class="h" d="M58.55085,177.67348c.68614,1.71633,1.40152,3.26644,2.0757,4.63915l-.98689.24233c-.46545-1.596-.93237-3.23862-1.47892-4.71718a32.59337,32.59337,0,0,0-2.38663-5.02187q-.33417-.57881-.71948-1.19806l1.5662.349q.07344.26626.16027.56725C57.15552,173.82942,57.72047,175.59551,58.55085,177.67348Z"/><ellipse class="k" cx="102.84113" cy="176.40171" rx="10.89337" ry="11.46769"/><ellipse class="l" cx="108.28782" cy="176.27151" rx="10.89337" ry="11.92208"/><ellipse class="m" cx="114.82384" cy="175.66254" rx="9.62248" ry="10.72852"/><path class="n" d="M105.41906,167.12638c-1.82871-1.04-5.97228-1.6858-7.73087-4.33363-1.4433-2.17311-.22187-5.2376.12257-5.32416.51224-.12874,1.92931,4.023,6.70255,5.32416a11.35219,11.35219,0,0,0,2.355.37146"/><path class="o" d="M108.59176,167.7701a24.23721,24.23721,0,0,1-10.07338-.62148c-3.34513-.95459-5.7196-2.4701-5.586-2.78839.19875-.47336,5.69965,2.28507,10.29825.1308a8.121,8.121,0,0,0,1.97173-1.30693"/><path class="p" d="M108.59176,162.37752a23.0752,23.0752,0,0,1,8.7437,4.68764c2.548,2.228,3.95856,4.56144,3.68739,4.79226-.40328.34327-4.02857-4.38724-9.17866-4.33954a8.67506,8.67506,0,0,0-2.39029.36433"/><path class="q" d="M111.18,168.02518a20.80452,20.80452,0,0,0,7.85609-4.86125c2.03683-2.12676,2.84208-4.21028,2.48822-4.36944-.52625-.23668-2.967,4.07477-8.41719,4.62421a12.35973,12.35973,0,0,1-2.62983-.02691"/><path class="r" d="M110.17551,163.12125a16.86541,16.86541,0,0,1,.91312,8.03665c-.38076,2.77881-1.417,4.8745-1.72763,4.8159-.462-.08716,1.25081-4.83156-1.39476-8.14188a6.78038,6.78038,0,0,0-1.48467-1.363"/><ellipse class="s" cx="107.38004" cy="165.59401" rx="5.44669" ry="2.4298"/><path class="t" d="M106.15,164.57268c3.21857-2.57538,3.72813-4.73936,3.50658-6.31479-.14107-1.00319-.6325-2.15112.08288-2.577a3.33445,3.33445,0,0,1,3.463.97664c.74805,1.24432-1.98247,2.24364-2.97858,5.48324a7.92789,7.92789,0,0,0-.32375,2.79323"/><ellipse class="u" cx="110.25954" cy="188.29951" rx="8.36097" ry="7.94224" transform="translate(-105.8814 218.24888) rotate(-67.53762)"/><ellipse class="v" cx="113.96564" cy="189.72906" rx="8.69226" ry="7.94224" transform="translate(-104.91241 222.55715) rotate(-67.53762)"/><ellipse class="w" cx="118.53908" cy="191.13948" rx="7.82205" ry="7.01565" transform="translate(-103.38978 227.65514) rotate(-67.53762)"/><path class="x" d="M114.58029,182.76816c-.94243-1.21014-3.55436-2.79953-4.00165-5.07346a3.73719,3.73719,0,0,1,1.56572-3.55314c.381.056.17923,3.24807,3.03287,5.4544a8.276,8.276,0,0,0,1.48323.90629"/><path class="y" d="M116.53865,184.08569a17.671,17.671,0,0,1-6.61406-3.22485c-1.98794-1.575-3.16563-3.25759-2.98692-3.43482.26578-.26357,3.20373,3.12737,6.90226,2.95689a5.92087,5.92087,0,0,0,1.69257-.33131"/><path class="z" d="M118.04085,180.45231a16.82394,16.82394,0,0,1,4.58545,5.59413c1.09614,2.211,1.3965,4.17611,1.1495,4.25609-.36735.11894-1.4922-4.07824-4.97548-5.48075a6.32477,6.32477,0,0,0-1.712-.42038"/><path class="aa" d="M118.2115,184.97857a15.16835,15.16835,0,0,0,6.64741-1.08693c1.96482-.86556,3.08777-2.04507,2.89368-2.25087-.28864-.30607-3.13419,1.919-6.95943.7709a9.01074,9.01074,0,0,1-1.76442-.75071"/><path class="ab" d="M118.90076,181.3946a12.29634,12.29634,0,0,1-1.62352,5.66926c-1.03063,1.76622-2.31262,2.88957-2.50559,2.76356-.287-.18741,2.18868-2.90694,1.32832-5.87432a4.94361,4.94361,0,0,0-.62064-1.33194"/><ellipse class="s" cx="116.32841" cy="182.28195" rx="1.77154" ry="3.97112" transform="translate(-96.57029 220.13893) rotate(-67.53762)"/><path class="ac" d="M115.78415,181.25116c2.886-.83864,3.83215-2.15472,4.12174-3.27792.1844-.71522.17307-1.62556.7737-1.71321a2.43112,2.43112,0,0,1,2.06125,1.62272c.15738,1.04677-1.96075.95945-3.53435,2.86472a5.78035,5.78035,0,0,0-.99624,1.79183"/><ellipse class="ad" cx="87.99253" cy="188.27609" rx="7.94224" ry="8.36097" transform="translate(-18.26684 9.67173) rotate(-5.70076)"/><ellipse class="ae" cx="91.93459" cy="187.78717" rx="7.94224" ry="8.69226" transform="translate(-18.19878 10.06089) rotate(-5.70076)"/><ellipse class="af" cx="96.63226" cy="186.87201" rx="7.01565" ry="7.82205" transform="translate(-18.08464 10.52299) rotate(-5.70076)"/><path class="ag" d="M89.191,181.36029c-1.402-.62206-4.45488-.79049-5.92247-2.58408a3.73719,3.73719,0,0,1-.29667-3.87147c.3623-.1305,1.691,2.77892,5.24818,3.37717a8.27711,8.27711,0,0,0,1.73538.09893"/><path class="ah" d="M91.53939,181.59752a17.67112,17.67112,0,0,1-7.35308.27867c-2.496-.45028-4.32837-1.37779-4.25446-1.61838.10991-.35781,4.30049,1.245,7.48068-.65094a5.92126,5.92126,0,0,0,1.33581-1.09094"/><path class="ai" d="M91.14885,177.68529a16.82388,16.82388,0,0,1,6.6829,2.76757c2.00992,1.43187,3.20222,3.02256,3.02221,3.20965-.26771.27824-3.2404-2.89111-6.97325-2.48352a6.32481,6.32481,0,0,0-1.70773.43743"/><path class="aj" d="M93.43561,181.59513a15.16846,15.16846,0,0,0,5.3474-4.09572c1.32366-1.69044,1.757-3.26032,1.48871-3.35015-.39893-.1336-1.85741,3.17106-5.77163,3.96438a9.01142,9.01142,0,0,1-1.90985.17094"/><path class="ak" d="M92.3517,178.11016a12.29652,12.29652,0,0,1,1.24449,5.76433c-.075,2.04355-.675,3.639-.90459,3.619-.34146-.02978.55752-3.5958-1.60153-5.80578a4.94306,4.94306,0,0,0-1.17582-.88131"/><ellipse class="s" cx="90.50271" cy="180.10656" rx="3.97112" ry="1.77154" transform="translate(-17.44292 9.88067) rotate(-5.70076)"/><path class="al" d="M89.53636,179.45469c2.1485-2.1015,2.36146-3.70833,2.08664-4.83524-.175-.71757-.61466-1.51479-.12651-1.87555a2.43111,2.43111,0,0,1,2.58311.45773c.63281.84856-1.27576,1.7713-1.76381,4.19372a5.78037,5.78037,0,0,0-.03258,2.04989"/><path class="h" d="M55.03392,136.23935h-.99023v-4.26367a.63028.63028,0,0,0-.63672-.63672h-1.71v4.10742q0,.794-.835.793H49.76244v-.96h.94531V131.339h-.85644v-.96h3.66308a1.5335,1.5335,0,0,1,1.0752.40722,1.35612,1.35612,0,0,1,.44433,1.044Z"/><path class="h" d="M58.64818,136.23935H57.658v-4.7666c0-.08887-.04786-.13379-.14454-.13379h-1.4121v-.96H57.822a.73024.73024,0,0,1,.82617.82617Z"/><path class="h" d="M62.06224,131.84189l-.334,2.37695H60.739l.333-2.29883a1.89825,1.89825,0,0,0,.02246-.21289q0-.36767-.31152-.36816H59.571v-.96h1.25586a1.18834,1.18834,0,0,1,.88281.374,1.16615,1.16615,0,0,1,.375.77637A1.37161,1.37161,0,0,1,62.06224,131.84189Z"/><path class="h" d="M68.46752,136.23935h-.99024v-4.26367a.63028.63028,0,0,0-.63672-.63672h-1.71v4.10742q0,.794-.835.793H63.196v-.96h.94531V131.339H63.2849v-.96H66.948a1.5335,1.5335,0,0,1,1.0752.40722,1.35609,1.35609,0,0,1,.44434,1.044Z"/><path class="h" d="M72.02611,131.84189l-.334,2.37695h-.98926l.333-2.29883a1.90073,1.90073,0,0,0,.02246-.21289q0-.36767-.31153-.36816H69.5349v-.96h1.25586a1.18834,1.18834,0,0,1,.88281.374,1.16615,1.16615,0,0,1,.375.77637A1.37161,1.37161,0,0,1,72.02611,131.84189Z"/><path class="h" d="M78.26537,136.23935H74.76244v-.96h2.51269v-2.4336q0-1.50585-1.07226-1.50683a1.44438,1.44438,0,0,0-.98242.38574,1.5487,1.5487,0,0,0-.52539.93164l-.56641,3.583h-1.001l.61133-3.63867a2.827,2.827,0,0,0,.043-.39063,1.50047,1.50047,0,0,0-.2334-.77051q-.22266-.35742-.67871-1.06054h1.125a3.87192,3.87192,0,0,1,.57812.97168,2.41934,2.41934,0,0,1,.77833-.75391,2.19227,2.19227,0,0,1,1.04589-.21777,1.63977,1.63977,0,0,1,1.44532.69238,2.744,2.744,0,0,1,.42285,1.60742Z"/><path class="h" d="M84.63744,136.23935H83.60326l-2.6582-3.49414q-.37794.20214-.54493,1.13867a7.373,7.373,0,0,0-.12207,1.39551h1.07813v.96H79.84154a.47672.47672,0,0,1-.43164-.26758,1.08451,1.08451,0,0,1-.12207-.52539q0-2.62208,1.0791-3.44824l-1.10156-1.35059.06738-.26855h1.03418l2.002,2.6123q.97853-.94922.97852-1.38379c0-.17871-.05957-.26855-.17774-.26855H82.14623v-.96h1.35254a.68788.68788,0,0,1,.31836.1289,1.09159,1.09159,0,0,1,.28515.22852.8733.8733,0,0,1,.19043.56934,4.02645,4.02645,0,0,1-1.35742,2.39941l1.70215,2.22168Z"/><path class="h" d="M96.73705,136.23935h-.99024v-4.26367a.63028.63028,0,0,0-.63672-.63672h-1.71v4.10742q0,.794-.835.793H91.46556v-.96h.94532V131.339h-.85645v-.96h3.66309a1.5335,1.5335,0,0,1,1.07519.40722,1.35609,1.35609,0,0,1,.44434,1.044Z"/><path class="h" d="M100.35131,136.23935h-.99024v-4.7666c0-.08887-.04785-.13379-.14453-.13379H97.80443v-.96h1.7207a.73025.73025,0,0,1,.82618.82617Z"/><path class="h" d="M103.76537,131.84189l-.334,2.37695h-.98925l.333-2.29883a1.89825,1.89825,0,0,0,.02246-.21289q0-.36767-.31152-.36816h-1.21191v-.96H102.53a1.18836,1.18836,0,0,1,.88281.374,1.16615,1.16615,0,0,1,.375.77637A1.37221,1.37221,0,0,1,103.76537,131.84189Z"/><path class="h" d="M107.74681,136.23935h-3.00195v-.96h1.957l-.2334-3.49414a.62689.62689,0,0,0-.10644-.35645.50889.50889,0,0,0-.36133-.08984h-1.03418v-.96h1.42383a1.04048,1.04048,0,0,1,1.06738,1.01562Z"/><path class="h" d="M113.46849,136.23935H108.614v-.96h2.8252a8.61778,8.61778,0,0,0,.55566-2.69043q0-1.24951-.82227-1.25h-2.32421v-.96h2.41308q1.63477,0,1.63477,2.24414a10.00485,10.00485,0,0,1-.43946,2.65625h1.01172Z"/><path class="h" d="M117.59935,136.23935h-.98926l-.10058-1.31836a2.97981,2.97981,0,0,1-2.0791,1.42969v-1.01563a2.726,2.726,0,0,0,1.53418-1.02929,1.51262,1.51262,0,0,0,.37793-1.08594l-.18848-1.73535a.14584.14584,0,0,0-.167-.14551H114.8972v-.96h1.377a.9197.9197,0,0,1,.66015.21191,1.00729,1.00729,0,0,1,.209.61426Z"/><path class="h" d="M123.79369,131.004a1.89848,1.89848,0,0,1-.02246.21289l-.44434,3.03515q-.28857,1.9878-1.89551,1.98731H118.5222v-.96h1.53516l-.42285-3.85059c-.00781-.05957-.0293-.08984-.06641-.08984h-.93457v-.96h1.166a.88274.88274,0,0,1,.627.15625,1.228,1.228,0,0,1,.19727.64746l.43457,4.09668h.31347q.76319,0,.96485-1.19434l.41211-2.45605a.999.999,0,0,0,.0332-.21192c0-.05175-.03809-.07812-.11231-.07812h-.88281v-.96h1.1084Q123.7932,130.379,123.79369,131.004Z"/><path class="h" d="M130.033,136.23935H126.53v-.96h2.51269v-2.4336q0-1.50585-1.07226-1.50683a1.44442,1.44442,0,0,0-.98243.38574,1.5487,1.5487,0,0,0-.52539.93164l-.5664,3.583h-1.001l.61133-3.63867a2.827,2.827,0,0,0,.043-.39063,1.50047,1.50047,0,0,0-.2334-.77051q-.22266-.35742-.67871-1.06054h1.125a3.87221,3.87221,0,0,1,.57812.97168,2.41942,2.41942,0,0,1,.77832-.75391,2.19234,2.19234,0,0,1,1.0459-.21777,1.63975,1.63975,0,0,1,1.44531.69238,2.74389,2.74389,0,0,1,.42286,1.60742Z"/><path class="am" d="M57.66576,90.74472,57.655,94.79648h-.99024v-4.208a2.60275,2.60275,0,0,0-.2666-1.25,1.10152,1.10152,0,0,0-1.03418-.61426H54.29564l-.2998,1.46289a1.04527,1.04527,0,0,0-.02246.2002c0,.03027.03418.04492.10156.04492h.877v.96H53.88451q-.90088,0-.90039-.94922a2.475,2.475,0,0,1,.04394-.3125l.41114-2.36621h2.01367a1.89353,1.89353,0,0,1,1.75683.9375A3.917,3.917,0,0,1,57.66576,90.74472Z"/><path class="am" d="M65.04955,91.54843a1.8754,1.8754,0,0,1-1.03223,1.65234,3.84358,3.84358,0,0,1-3.95215,0A1.87726,1.87726,0,0,1,59.033,91.54843V87.76425h.99023v3.62793a1.71054,1.71054,0,0,0,.05566.41309q1.46778-.23437,1.46778-1.373v-2.668h.99023v2.82422q0,1.38135-1.85351,1.97559a2.969,2.969,0,0,0,1.32617.22363q2.05078,0,2.05078-1.39551V87.76425h.98926Z"/><path class="am" d="M74.01927,93.6246H73.029V89.4498a.8729.8729,0,0,0-.13867-.56934.73558.73558,0,0,0-.55078-.15625H69.80443v-.96h2.73535a1.31521,1.31521,0,0,1,1.47949,1.4961Z"/><path class="am" d="M80.25756,91.26913a2.31408,2.31408,0,0,1-.70411,1.77539,2.55419,2.55419,0,0,1-1.81445.65821,2.69483,2.69483,0,0,1-1.86426-.69727,2.28674,2.28674,0,0,1-.77636-1.78027V87.76425h.98925v3.4082A1.49524,1.49524,0,0,0,76.573,92.3082a1.64127,1.64127,0,0,0,1.166.457,1.48761,1.48761,0,0,0,1.11621-.42285,1.54177,1.54177,0,0,0,.41309-1.125v-2.126q0-.41161-.54981-.41113c-.41992,0-.6289.13672-.6289.41113v1.28027h-.99024V88.9791a1.088,1.088,0,0,1,.52149-.958,1.96863,1.96863,0,0,1,1.09668-.30078q1.541,0,1.54,1.47265Z"/><path class="am" d="M86.34154,91.49277a2.04416,2.04416,0,0,1-.749,1.5791,2.45091,2.45091,0,0,1-3.3125.03906,2.05558,2.05558,0,0,1-.76563-1.61816V88.72421h-.38867v-.96h4.37207a.94349.94349,0,0,1,.6543.17871.87637.87637,0,0,1,.18945.64746Zm-.99023-.10059v-2.668H82.50463v2.668a1.31176,1.31176,0,0,0,.418.98242,1.39474,1.39474,0,0,0,1,.40137,1.42614,1.42614,0,0,0,1.02735-.38477A1.32269,1.32269,0,0,0,85.35131,91.39218Z"/><path class="am" d="M92.85814,93.6246H91.824l-2.6582-3.49414q-.37793.20216-.54492,1.13867a7.373,7.373,0,0,0-.12207,1.39551h1.07812v.96H88.06224a.4767.4767,0,0,1-.43164-.26758,1.08459,1.08459,0,0,1-.12207-.52539q0-2.62206,1.0791-3.44824l-1.10156-1.35058.06738-.26856h1.03418l2.002,2.61231q.97851-.94923.97851-1.38379c0-.17871-.05957-.26856-.17773-.26856H90.36693v-.96h1.35254a.68777.68777,0,0,1,.31836.12891,1.09142,1.09142,0,0,1,.28515.22851.87326.87326,0,0,1,.19043.56934A4.02637,4.02637,0,0,1,91.156,91.09042l1.70215,2.22168Z"/><path class="am" d="M99.23021,93.6246H95.72728v-.96H98.24V90.23105q0-1.50586-1.07227-1.50684a1.44444,1.44444,0,0,0-.98242.38574,1.54872,1.54872,0,0,0-.52539.93165l-.56641,3.583h-1.001l.61132-3.63867a2.82694,2.82694,0,0,0,.043-.39062,1.50035,1.50035,0,0,0-.2334-.77051q-.22264-.35742-.67871-1.06055h1.125a3.87192,3.87192,0,0,1,.57813.97168,2.41932,2.41932,0,0,1,.77832-.75391,2.19231,2.19231,0,0,1,1.0459-.21777,1.63978,1.63978,0,0,1,1.44531.69238,2.7439,2.7439,0,0,1,.42285,1.60743Z"/><path class="an" d="M115.35,82.81815a9.01447,9.01447,0,1,0,3.98382,2.86769"/><line class="ao" x1="110.31007" y1="89.72403" x2="109.45002" y2="88.21257"/><path class="ao" d="M112.722,94.26434h.73838a1.95452,1.95452,0,0,0,1.95452-1.95452v-.40827c0-1.62158-1.31455-3.48629-2.93614-3.48629-2.76366,0-2.86668,3.57555-3.56564,5.567-.23909.52534-.35972,1.14391-1.00464,1.30892-.94016.24055-1.5135-.79843-1.791-1.52338a7.008,7.008,0,0,1-.50324-2.47743,6.65923,6.65923,0,1,1,4.82317,6.40794"/></svg>