<svg xmlns="http://www.w3.org/2000/svg" xmlns:xlink="http://www.w3.org/1999/xlink" viewBox="0 0 512 234.00162"><defs><style>.a{fill:none;}.b{fill:url(#a);}.c{fill:#6ba5b1;}.d{fill:url(#b);}.aa,.ab,.ac,.ad,.ae,.af,.ag,.ai,.aj,.ak,.al,.am,.an,.ao,.ap,.aq,.ar,.as,.at,.au,.av,.aw,.ax,.ay,.az,.ba,.bb,.bc,.bd,.be,.bf,.bg,.bh,.bi,.bj,.bk,.bl,.bm,.bn,.bo,.bp,.bq,.br,.bs,.bt,.bu,.bv,.bw,.bx,.by,.bz,.ca,.cb,.cc,.cd,.ce,.cf,.cg,.ch,.ci,.cj,.ck,.cl,.cm,.cn,.co,.cp,.cq,.cr,.cs,.ct,.cu,.cv,.cw,.cx,.cy,.cz,.da,.db,.dc,.dd,.de,.df,.dg,.dh,.di,.dj,.dk,.dl,.dm,.dn,.e,.f,.g,.h,.i,.j,.k,.l,.m,.n,.o,.p,.q,.r,.s,.t,.u,.v,.w,.x,.y,.z{stroke:#c49a6c;stroke-miterlimit:10;stroke-width:3px;}.e{fill:url(#c);}.f{fill:url(#d);}.g{fill:#d3bf9f;}.h{fill:url(#e);}.i{fill:url(#f);}.j{fill:url(#g);}.k{fill:url(#h);}.l{fill:url(#i);}.m{fill:url(#j);}.n{fill:url(#k);}.o{fill:url(#l);}.p{fill:url(#m);}.q{fill:url(#n);}.r{fill:url(#o);}.s{fill:url(#p);}.t{fill:url(#q);}.u{fill:url(#r);}.v{fill:url(#s);}.w{fill:url(#t);}.x{fill:url(#u);}.y{fill:url(#v);}.z{fill:url(#w);}.aa{fill:url(#x);}.ab{fill:url(#y);}.ac{fill:url(#z);}.ad{fill:url(#aa);}.ae{fill:url(#ab);}.af{fill:url(#ac);}.ag{fill:url(#ad);}.ah{clip-path:url(#ae);}.ai{fill:url(#af);}.aj{fill:url(#ag);}.ak{fill:url(#ah);}.al{fill:url(#ai);}.am{fill:url(#aj);}.an{fill:url(#ak);}.ao{fill:url(#al);}.ap{fill:url(#am);}.aq{fill:url(#an);}.ar{fill:url(#ao);}.as{fill:url(#ap);}.at{fill:url(#aq);}.au{fill:url(#ar);}.av{fill:url(#as);}.aw{fill:url(#at);}.ax{fill:url(#au);}.ay{fill:url(#av);}.az{fill:url(#aw);}.ba{fill:url(#ax);}.bb{fill:url(#ay);}.bc{fill:url(#az);}.bd{fill:url(#ba);}.be{fill:url(#bb);}.bf{fill:url(#bc);}.bg{fill:url(#bd);}.bh{fill:url(#be);}.bi{fill:url(#bf);}.bj{fill:url(#bg);}.bk{fill:url(#bh);}.bl{fill:url(#bi);}.bm{fill:url(#bj);}.bn{fill:url(#bk);}.bo{fill:url(#bl);}.bp{fill:url(#bm);}.bq{fill:url(#bn);}.br{fill:url(#bo);}.bs{fill:url(#bp);}.bt{fill:url(#bq);}.bu{fill:url(#br);}.bv{fill:url(#bs);}.bw{fill:url(#bt);}.bx{fill:url(#bu);}.by{fill:url(#bv);}.bz{fill:url(#bw);}.ca{fill:url(#bx);}.cb{fill:url(#by);}.cc{fill:url(#bz);}.cd{fill:url(#ca);}.ce{fill:url(#cb);}.cf{fill:url(#cc);}.cg{fill:url(#cd);}.ch{fill:url(#ce);}.ci{fill:url(#cf);}.cj{fill:url(#cg);}.ck{fill:url(#ch);}.cl{fill:url(#ci);}.cm{fill:url(#cj);}.cn{fill:url(#ck);}.co{fill:url(#cl);}.cp{fill:url(#cm);}.cq{fill:url(#cn);}.cr{fill:url(#co);}.cs{fill:url(#cp);}.ct{fill:url(#cq);}.cu{fill:url(#cr);}.cv{fill:url(#cs);}.cw{fill:url(#ct);}.cx{fill:url(#cu);}.cy{fill:url(#cv);}.cz{fill:url(#cw);}.da{fill:url(#cx);}.db{fill:url(#cy);}.dc{fill:url(#cz);}.dd{fill:url(#da);}.de{fill:url(#db);}.df{fill:url(#dc);}.dg{fill:url(#dd);}.dh{fill:url(#de);}.di{fill:url(#df);}.dj{fill:url(#dg);}.dk{fill:url(#dh);}.dl{fill:url(#di);}.dm{fill:url(#dj);}.dn{fill:url(#dk);}</style><linearGradient id="a" x1="1" y1="126.00162" x2="512" y2="126.00162" gradientUnits="userSpaceOnUse"><stop offset="0" stop-color="#27aae1"/><stop offset="1" stop-color="#0e3354"/></linearGradient><linearGradient id="b" x1="19" y1="56.00162" x2="500" y2="56.00162" gradientUnits="userSpaceOnUse"><stop offset="0" stop-color="#004864"/><stop offset="1" stop-color="#00112e"/></linearGradient><linearGradient id="c" x1="-527.10836" y1="-33.1867" x2="-506.68068" y2="-33.1867" gradientTransform="translate(-291.02812 24.95613) rotate(180)" gradientUnits="userSpaceOnUse"><stop offset="0" stop-color="#8c5f3c"/><stop offset="0.4949" stop-color="#a97c50"/><stop offset="1" stop-color="#8b5e3c"/></linearGradient><linearGradient id="d" x1="-527.10836" y1="-11.89871" x2="-506.68068" y2="-11.89871" gradientTransform="translate(8.31729 528.19994) rotate(111.16179)" gradientUnits="userSpaceOnUse"><stop offset="0" stop-color="#a97c50"/><stop offset="0.58163" stop-color="#d3bf9f"/><stop offset="1" stop-color="#c49a6c"/></linearGradient><linearGradient id="e" x1="-182.89592" y1="-350.15041" x2="-162.46825" y2="-350.15041" gradientTransform="translate(-1.01247 195.79198) rotate(90)" xlink:href="#c"/><linearGradient id="f" x1="-182.89592" y1="-328.86242" x2="-162.46825" y2="-328.86242" gradientTransform="matrix(0.41231, 0.91104, -0.91104, 0.41231, 101.33368, 324.80089)" xlink:href="#d"/><linearGradient id="g" x1="-328.64471" y1="-294.69049" x2="-308.21703" y2="-294.69049" gradientTransform="translate(148.3376 -244.49261) rotate(180)" xlink:href="#c"/><linearGradient id="h" x1="-328.64471" y1="-273.4025" x2="-308.21703" y2="-273.4025" gradientTransform="translate(110.63762 298.01135) rotate(102.38531)" xlink:href="#d"/><linearGradient id="i" x1="-143.515" y1="-420.71519" x2="-123.08732" y2="-420.71519" gradientTransform="translate(8.94748 163.19437) rotate(90)" xlink:href="#c"/><linearGradient id="j" x1="-143.515" y1="-399.4272" x2="-123.08732" y2="-399.4272" gradientTransform="matrix(0.41231, 0.91104, -0.91104, 0.41231, 101.33368, 324.80089)" xlink:href="#d"/><linearGradient id="k" x1="-367.88912" y1="-258.67467" x2="-347.46144" y2="-258.67467" gradientTransform="translate(67.34804 -203.30217) rotate(180)" xlink:href="#c"/><linearGradient id="l" x1="-367.88912" y1="-237.38668" x2="-347.46144" y2="-237.38668" gradientTransform="matrix(-0.25448, 0.96708, -0.96708, -0.25448, 83.844, 335.44546)" xlink:href="#d"/><linearGradient id="m" x1="-164.26343" y1="-332.43892" x2="-143.83575" y2="-332.43892" gradientTransform="translate(8.2454 201.43711) rotate(90)" xlink:href="#c"/><linearGradient id="n" x1="-164.26343" y1="-311.15094" x2="-143.83575" y2="-311.15094" gradientTransform="matrix(0.41231, 0.91104, -0.91104, 0.41231, 101.33368, 324.80089)" xlink:href="#d"/><linearGradient id="o" x1="-402.89576" y1="-88.80073" x2="-382.46808" y2="-88.80073" gradientTransform="translate(1.20954 -27.17277) rotate(180)" xlink:href="#c"/><linearGradient id="p" x1="-402.89576" y1="-67.51274" x2="-382.46808" y2="-67.51274" gradientTransform="translate(106.39057 343.45751) rotate(122.82824)" xlink:href="#d"/><linearGradient id="q" x1="-156.77501" y1="-364.51064" x2="-136.34733" y2="-364.51064" gradientTransform="translate(8.47998 187.54753) rotate(90)" xlink:href="#c"/><linearGradient id="r" x1="-156.77501" y1="-343.22265" x2="-136.34733" y2="-343.22265" gradientTransform="matrix(0.41231, 0.91104, -0.91104, 0.41231, 101.33368, 324.80089)" xlink:href="#d"/><linearGradient id="s" x1="-163.67645" y1="-382.21198" x2="-143.24877" y2="-382.21198" gradientTransform="translate(4.05983 180.86305) rotate(90)" xlink:href="#c"/><linearGradient id="t" x1="-163.67645" y1="-360.92399" x2="-143.24877" y2="-360.92399" gradientTransform="matrix(0.41231, 0.91104, -0.91104, 0.41231, 101.33368, 324.80089)" xlink:href="#d"/><linearGradient id="u" x1="-41.44954" y1="576.64534" x2="-21.02186" y2="576.64534" gradientTransform="translate(-303.97778 5.21516) rotate(-90)" xlink:href="#c"/><linearGradient id="v" x1="-41.44954" y1="597.93333" x2="-21.02186" y2="597.93333" gradientTransform="translate(-238.94501 304.30921) rotate(-120.73519)" xlink:href="#d"/><linearGradient id="w" x1="-183.91229" y1="-302.07281" x2="-163.48461" y2="-302.07281" gradientTransform="translate(2.84525 215.70519) rotate(90)" xlink:href="#c"/><linearGradient id="x" x1="-183.91229" y1="-280.78482" x2="-163.48461" y2="-280.78482" gradientTransform="matrix(0.41231, 0.91104, -0.91104, 0.41231, 101.33368, 324.80089)" xlink:href="#d"/><linearGradient id="y" x1="-219.80723" y1="-274.93847" x2="-199.37955" y2="-274.93847" gradientTransform="translate(-9.54078 230.08597) rotate(90)" xlink:href="#c"/><linearGradient id="z" x1="-219.80723" y1="-253.65048" x2="-199.37955" y2="-253.65048" gradientTransform="matrix(0.41231, 0.91104, -0.91104, 0.41231, 101.33368, 324.80089)" xlink:href="#d"/><linearGradient id="aa" x1="-322.26823" y1="655.21345" x2="-301.84055" y2="655.21345" gradientTransform="translate(-411.68189 -246.27039) rotate(-90)" xlink:href="#c"/><linearGradient id="ab" x1="-322.26823" y1="676.50143" x2="-301.84055" y2="676.50143" gradientTransform="translate(-372.02421 450.19746) rotate(-147.45147)" xlink:href="#d"/><linearGradient id="ac" x1="-213.24686" y1="-240.14384" x2="-192.81918" y2="-240.14384" gradientTransform="translate(-3.74071 243.8485) rotate(90)" xlink:href="#c"/><linearGradient id="ad" x1="-213.24686" y1="-218.85585" x2="-192.81918" y2="-218.85585" gradientTransform="matrix(0.41231, 0.91104, -0.91104, 0.41231, 101.33368, 324.80089)" xlink:href="#d"/><clipPath id="ae"><ellipse class="a" cx="256.5" cy="56.00161" rx="240.5" ry="29"/></clipPath><linearGradient id="af" x1="-454.03129" y1="100.54239" x2="-433.60361" y2="100.54239" gradientTransform="translate(-369.04311 178.55774) rotate(180)" xlink:href="#c"/><linearGradient id="ag" x1="-454.03129" y1="121.83038" x2="-433.60361" y2="121.83038" xlink:href="#d"/><linearGradient id="ah" x1="-227.0877" y1="-204.30524" x2="-206.66002" y2="-204.30524" gradientTransform="translate(-6.25935 259.85628) rotate(90)" xlink:href="#c"/><linearGradient id="ai" x1="-227.0877" y1="-183.01725" x2="-206.66002" y2="-183.01725" gradientTransform="matrix(0.41231, 0.91104, -0.91104, 0.41231, 101.33368, 324.80089)" xlink:href="#d"/><linearGradient id="aj" x1="-276.82771" y1="-151.37711" x2="-256.40003" y2="-151.37711" gradientTransform="translate(49.06255 -81.30671) rotate(180)" xlink:href="#c"/><linearGradient id="ak" x1="-276.82771" y1="-130.08912" x2="-256.40003" y2="-130.08912" gradientTransform="translate(110.63762 298.01135) rotate(102.38531)" xlink:href="#d"/><linearGradient id="al" x1="-187.70677" y1="-274.87002" x2="-167.27909" y2="-274.87002" gradientTransform="translate(3.7006 227.25867) rotate(90)" xlink:href="#c"/><linearGradient id="am" x1="-187.70677" y1="-253.58203" x2="-167.27909" y2="-253.58203" gradientTransform="matrix(0.41231, 0.91104, -0.91104, 0.41231, 101.33368, 324.80089)" xlink:href="#d"/><linearGradient id="an" x1="-310.22116" y1="-117.61392" x2="-289.79348" y2="-117.61392" gradientTransform="translate(-26.07606 -42.3689) rotate(180)" xlink:href="#c"/><linearGradient id="ao" x1="-310.22116" y1="-96.32594" x2="-289.79348" y2="-96.32594" gradientTransform="matrix(-0.25448, 0.96708, -0.96708, -0.25448, 83.844, 335.44546)" xlink:href="#d"/><linearGradient id="ap" x1="-208.4552" y1="-186.59375" x2="-188.02753" y2="-186.59375" gradientTransform="translate(2.99852 265.50141) rotate(90)" xlink:href="#c"/><linearGradient id="aq" x1="-208.4552" y1="-165.30577" x2="-188.02753" y2="-165.30577" gradientTransform="matrix(0.41231, 0.91104, -0.91104, 0.41231, 101.33368, 324.80089)" xlink:href="#d"/><linearGradient id="ar" x1="-304.28649" y1="27.38851" x2="-283.85881" y2="27.38851" gradientTransform="translate(-51.27325 108.88899) rotate(180)" xlink:href="#c"/><linearGradient id="as" x1="-304.28649" y1="48.67649" x2="-283.85881" y2="48.67649" gradientTransform="translate(106.39057 343.45751) rotate(122.82824)" xlink:href="#d"/><linearGradient id="at" x1="-200.96678" y1="-218.66547" x2="-180.5391" y2="-218.66547" gradientTransform="translate(3.2331 251.61183) rotate(90)" xlink:href="#c"/><linearGradient id="au" x1="-200.96678" y1="-197.37748" x2="-180.5391" y2="-197.37748" gradientTransform="matrix(0.41231, 0.91104, -0.91104, 0.41231, 101.33368, 324.80089)" xlink:href="#d"/><linearGradient id="av" x1="-207.86822" y1="-236.36681" x2="-187.44054" y2="-236.36681" gradientTransform="translate(-1.18706 244.92735) rotate(90)" xlink:href="#c"/><linearGradient id="aw" x1="-207.86822" y1="-215.07882" x2="-187.44054" y2="-215.07882" gradientTransform="matrix(0.41231, 0.91104, -0.91104, 0.41231, 101.33368, 324.80089)" xlink:href="#d"/><linearGradient id="ax" x1="18.68801" y1="436.61962" x2="39.11569" y2="436.61962" gradientTransform="translate(-315.04411 85.22523) rotate(-90)" xlink:href="#c"/><linearGradient id="ay" x1="18.68801" y1="457.90761" x2="39.11569" y2="457.90761" gradientTransform="translate(-238.94501 304.30921) rotate(-120.73519)" xlink:href="#d"/><linearGradient id="az" x1="-228.10406" y1="-156.22764" x2="-207.67638" y2="-156.22764" gradientTransform="translate(-2.40163 279.76949) rotate(90)" xlink:href="#c"/><linearGradient id="ba" x1="-228.10406" y1="-134.93965" x2="-207.67638" y2="-134.93965" gradientTransform="matrix(0.41231, 0.91104, -0.91104, 0.41231, 101.33368, 324.80089)" xlink:href="#d"/><linearGradient id="bb" x1="-263.999" y1="-129.09329" x2="-243.57133" y2="-129.09329" gradientTransform="translate(-14.78767 294.15027) rotate(90)" xlink:href="#c"/><linearGradient id="bc" x1="-263.999" y1="-107.80531" x2="-243.57133" y2="-107.80531" gradientTransform="matrix(0.41231, 0.91104, -0.91104, 0.41231, 101.33368, 324.80089)" xlink:href="#d"/><linearGradient id="bd" x1="-205.59899" y1="557.17256" x2="-185.17131" y2="557.17256" gradientTransform="translate(-464.73306 -109.72862) rotate(-90)" xlink:href="#c"/><linearGradient id="be" x1="-205.59899" y1="578.46055" x2="-185.17131" y2="578.46055" gradientTransform="translate(-372.02421 450.19746) rotate(-147.45147)" xlink:href="#d"/><linearGradient id="bf" x1="-257.43864" y1="-94.29867" x2="-237.01096" y2="-94.29867" gradientTransform="translate(-8.98759 307.9128) rotate(90)" xlink:href="#c"/><linearGradient id="bg" x1="-257.43864" y1="-73.01068" x2="-237.01096" y2="-73.01068" gradientTransform="matrix(0.41231, 0.91104, -0.91104, 0.41231, 101.33368, 324.80089)" xlink:href="#d"/><linearGradient id="bh" x1="-503.67038" y1="-42.86464" x2="-483.2427" y2="-42.86464" gradientTransform="translate(-267.02601 40.62938) rotate(180)" xlink:href="#c"/><linearGradient id="bi" x1="-503.67038" y1="-21.57666" x2="-483.2427" y2="-21.57666" xlink:href="#d"/><linearGradient id="bj" x1="-159.56726" y1="-340.21185" x2="-139.13958" y2="-340.21185" gradientTransform="translate(9.49023 197.81452) rotate(90)" xlink:href="#c"/><linearGradient id="bk" x1="-159.56726" y1="-318.92386" x2="-139.13958" y2="-318.92386" gradientTransform="matrix(0.41231, 0.91104, -0.91104, 0.41231, 101.33368, 324.80089)" xlink:href="#d"/><linearGradient id="bl" x1="-304.0045" y1="-300.67894" x2="-283.57682" y2="-300.67894" gradientTransform="translate(173.54194 -225.12987) rotate(180)" xlink:href="#c"/><linearGradient id="bm" x1="-304.0045" y1="-279.39096" x2="-283.57682" y2="-279.39096" gradientTransform="translate(110.63762 298.01135) rotate(102.38531)" xlink:href="#d"/><linearGradient id="bn" x1="-120.18634" y1="-410.77663" x2="-99.75866" y2="-410.77663" gradientTransform="translate(19.45018 165.21691) rotate(90)" xlink:href="#c"/><linearGradient id="bo" x1="-120.18634" y1="-389.48864" x2="-99.75866" y2="-389.48864" gradientTransform="matrix(0.41231, 0.91104, -0.91104, 0.41231, 101.33368, 324.80089)" xlink:href="#d"/><linearGradient id="bp" x1="-343.51608" y1="-265.67156" x2="-323.0884" y2="-265.67156" gradientTransform="translate(92.28522 -184.94787) rotate(180)" xlink:href="#c"/><linearGradient id="bq" x1="-343.51608" y1="-244.38358" x2="-323.0884" y2="-244.38358" gradientTransform="matrix(-0.25448, 0.96708, -0.96708, -0.25448, 83.844, 335.44546)" xlink:href="#d"/><linearGradient id="br" x1="-140.93477" y1="-322.50036" x2="-120.50709" y2="-322.50036" gradientTransform="translate(18.7481 203.45965) rotate(90)" xlink:href="#c"/><linearGradient id="bs" x1="-140.93477" y1="-301.21238" x2="-120.50709" y2="-301.21238" gradientTransform="matrix(0.41231, 0.91104, -0.91104, 0.41231, 101.33368, 324.80089)" xlink:href="#d"/><linearGradient id="bt" x1="-381.89899" y1="-103.01822" x2="-361.47131" y2="-103.01822" gradientTransform="translate(22.77044 -16.03907) rotate(180)" xlink:href="#c"/><linearGradient id="bu" x1="-381.89899" y1="-81.73024" x2="-361.47131" y2="-81.73024" gradientTransform="translate(106.39057 343.45751) rotate(122.82824)" xlink:href="#d"/><linearGradient id="bv" x1="-133.44634" y1="-354.57208" x2="-113.01866" y2="-354.57208" gradientTransform="translate(18.98268 189.57007) rotate(90)" xlink:href="#c"/><linearGradient id="bw" x1="-133.44634" y1="-333.28409" x2="-113.01866" y2="-333.28409" gradientTransform="matrix(0.41231, 0.91104, -0.91104, 0.41231, 101.33368, 324.80089)" xlink:href="#d"/><linearGradient id="bx" x1="-140.34779" y1="-372.27342" x2="-119.92011" y2="-372.27342" gradientTransform="translate(14.56252 182.88558) rotate(90)" xlink:href="#c"/><linearGradient id="by" x1="-140.34779" y1="-350.98543" x2="-119.92011" y2="-350.98543" gradientTransform="matrix(0.41231, 0.91104, -0.91104, 0.41231, 101.33368, 324.80089)" xlink:href="#d"/><linearGradient id="bz" x1="-63.52818" y1="564.17398" x2="-43.10051" y2="564.17398" gradientTransform="translate(-290.94228 8.48771) rotate(-90)" xlink:href="#c"/><linearGradient id="ca" x1="-63.52818" y1="585.46196" x2="-43.10051" y2="585.46196" gradientTransform="translate(-238.94501 304.30921) rotate(-120.73519)" xlink:href="#d"/><linearGradient id="cb" x1="-160.58362" y1="-292.13425" x2="-140.15594" y2="-292.13425" gradientTransform="translate(13.34795 217.72773) rotate(90)" xlink:href="#c"/><linearGradient id="cc" x1="-160.58362" y1="-270.84626" x2="-140.15594" y2="-270.84626" gradientTransform="matrix(0.41231, 0.91104, -0.91104, 0.41231, 101.33368, 324.80089)" xlink:href="#d"/><linearGradient id="cd" x1="-196.47857" y1="-264.9999" x2="-176.05089" y2="-264.9999" gradientTransform="translate(0.96191 232.1085) rotate(90)" xlink:href="#c"/><linearGradient id="ce" x1="-196.47857" y1="-243.71192" x2="-176.05089" y2="-243.71192" gradientTransform="matrix(0.41231, 0.91104, -0.91104, 0.41231, 101.33368, 324.80089)" xlink:href="#d"/><linearGradient id="cf" x1="-336.38306" y1="634.14752" x2="-315.95538" y2="634.14752" gradientTransform="translate(-390.05183 -235.03402) rotate(-90)" xlink:href="#c"/><linearGradient id="cg" x1="-336.38306" y1="655.43551" x2="-315.95538" y2="655.43551" gradientTransform="translate(-372.02421 450.19746) rotate(-147.45147)" xlink:href="#d"/><linearGradient id="ch" x1="-189.9182" y1="-230.20528" x2="-169.49052" y2="-230.20528" gradientTransform="translate(6.76199 245.87104) rotate(90)" xlink:href="#c"/><linearGradient id="ci" x1="-189.9182" y1="-208.91729" x2="-169.49052" y2="-208.91729" gradientTransform="matrix(0.41231, 0.91104, -0.91104, 0.41231, 101.33368, 324.80089)" xlink:href="#d"/><linearGradient id="cj" x1="-485.04236" y1="91.40531" x2="-464.61468" y2="91.40531" gradientTransform="translate(-380.33818 143.79934) rotate(180)" xlink:href="#c"/><linearGradient id="ck" x1="-485.04236" y1="112.69329" x2="-464.61468" y2="112.69329" xlink:href="#d"/><linearGradient id="cl" x1="-242.30078" y1="-232.83128" x2="-221.8731" y2="-232.83128" gradientTransform="translate(-15.06939 249.44805) rotate(90)" xlink:href="#c"/><linearGradient id="cm" x1="-242.30078" y1="-211.54329" x2="-221.8731" y2="-211.54329" gradientTransform="matrix(0.41231, 0.91104, -0.91104, 0.41231, 101.33368, 324.80089)" xlink:href="#d"/><linearGradient id="cn" x1="-306.08154" y1="-165.13888" x2="-285.65386" y2="-165.13888" gradientTransform="translate(39.52472 -120.6898) rotate(180)" xlink:href="#c"/><linearGradient id="co" x1="-306.08154" y1="-143.85089" x2="-285.65386" y2="-143.85089" gradientTransform="translate(110.63762 298.01135) rotate(102.38531)" xlink:href="#d"/><linearGradient id="cp" x1="-202.91986" y1="-303.39606" x2="-182.49218" y2="-303.39606" gradientTransform="translate(-5.10944 216.85044) rotate(90)" xlink:href="#c"/><linearGradient id="cq" x1="-202.91986" y1="-282.10807" x2="-182.49218" y2="-282.10807" gradientTransform="matrix(0.41231, 0.91104, -0.91104, 0.41231, 101.33368, 324.80089)" xlink:href="#d"/><linearGradient id="cr" x1="-340.01629" y1="-130.16077" x2="-319.58861" y2="-130.16077" gradientTransform="translate(-36.15518 -80.53707) rotate(180)" xlink:href="#c"/><linearGradient id="cs" x1="-340.01629" y1="-108.87279" x2="-319.58861" y2="-108.87279" gradientTransform="matrix(-0.25448, 0.96708, -0.96708, -0.25448, 83.844, 335.44546)" xlink:href="#d"/><linearGradient id="ct" x1="-223.66829" y1="-215.11979" x2="-203.24061" y2="-215.11979" gradientTransform="translate(-5.81152 255.09317) rotate(90)" xlink:href="#c"/><linearGradient id="cu" x1="-223.66829" y1="-193.83181" x2="-203.24061" y2="-193.83181" gradientTransform="matrix(0.41231, 0.91104, -0.91104, 0.41231, 101.33368, 324.80089)" xlink:href="#d"/><linearGradient id="cv" x1="-336.50456" y1="24.71105" x2="-316.07688" y2="24.71105" gradientTransform="translate(-63.77532 80.59021) rotate(180)" xlink:href="#c"/><linearGradient id="cw" x1="-336.50456" y1="45.99904" x2="-316.07688" y2="45.99904" gradientTransform="translate(106.39057 343.45751) rotate(122.82824)" xlink:href="#d"/><linearGradient id="cx" x1="-216.17986" y1="-247.19151" x2="-195.75219" y2="-247.19151" gradientTransform="translate(-5.57694 241.2036) rotate(90)" xlink:href="#c"/><linearGradient id="cy" x1="-216.17986" y1="-225.90352" x2="-195.75219" y2="-225.90352" gradientTransform="matrix(0.41231, 0.91104, -0.91104, 0.41231, 101.33368, 324.80089)" xlink:href="#d"/><linearGradient id="cz" x1="-223.08131" y1="-264.89285" x2="-202.65363" y2="-264.89285" gradientTransform="translate(-9.9971 234.51911) rotate(90)" xlink:href="#c"/><linearGradient id="da" x1="-223.08131" y1="-243.60486" x2="-202.65363" y2="-243.60486" gradientTransform="matrix(0.41231, 0.91104, -0.91104, 0.41231, 101.33368, 324.80089)" xlink:href="#d"/><linearGradient id="db" x1="30.63425" y1="466.6606" x2="51.06193" y2="466.6606" gradientTransform="translate(-325.36909 71.55015) rotate(-90)" xlink:href="#c"/><linearGradient id="dc" x1="30.63425" y1="487.94858" x2="51.06193" y2="487.94858" gradientTransform="translate(-238.94501 304.30921) rotate(-120.73519)" xlink:href="#d"/><linearGradient id="dd" x1="-243.31714" y1="-184.75368" x2="-222.88947" y2="-184.75368" gradientTransform="translate(-11.21167 269.36126) rotate(90)" xlink:href="#c"/><linearGradient id="de" x1="-243.31714" y1="-163.46569" x2="-222.88947" y2="-163.46569" gradientTransform="matrix(0.41231, 0.91104, -0.91104, 0.41231, 101.33368, 324.80089)" xlink:href="#d"/><linearGradient id="df" x1="-279.21209" y1="-157.61933" x2="-258.78441" y2="-157.61933" gradientTransform="translate(-23.5977 283.74203) rotate(90)" xlink:href="#c"/><linearGradient id="dg" x1="-279.21209" y1="-136.33135" x2="-258.78441" y2="-136.33135" gradientTransform="matrix(0.41231, 0.91104, -0.91104, 0.41231, 101.33368, 324.80089)" xlink:href="#d"/><linearGradient id="dh" x1="-208.43369" y1="589.37718" x2="-188.00601" y2="589.37718" gradientTransform="translate(-477.22168 -138.18465) rotate(-90)" xlink:href="#c"/><linearGradient id="di" x1="-208.43369" y1="610.66517" x2="-188.00601" y2="610.66517" gradientTransform="translate(-372.02421 450.19746) rotate(-147.45147)" xlink:href="#d"/><linearGradient id="dj" x1="-272.65172" y1="-122.82471" x2="-252.22404" y2="-122.82471" gradientTransform="translate(-17.79763 297.50457) rotate(90)" xlink:href="#c"/><linearGradient id="dk" x1="-272.65172" y1="-101.53672" x2="-252.22404" y2="-101.53672" gradientTransform="matrix(0.41231, 0.91104, -0.91104, 0.41231, 101.33368, 324.80089)" xlink:href="#d"/></defs><path class="b" d="M512,55.00162c0,20.43454-114.39125,179-255.5,179S1,75.43616,1,55.00162s114.39125-37,255.5-37S512,34.56709,512,55.00162Z"/><ellipse class="c" cx="255.5" cy="55.00162" rx="255.5" ry="37"/><ellipse class="d" cx="259.5" cy="56.00162" rx="240.5" ry="29"/><ellipse class="e" cx="225.8664" cy="58.14282" rx="10.21383" ry="2.85303" transform="translate(90.10605 247.78814) rotate(-68.83821)"/><path class="f" d="M222.17918,67.6679,185.135,53.3278c-1.46948-.56884-1.00955-5.29514,1.02659-10.555s4.87838-9.06395,6.34786-8.4951l37.04422,14.34009c-1.46948-.56884-4.31173,3.23525-6.34786,8.4951S220.7097,67.09905,222.17918,67.6679Z"/><line class="g" x1="197.00548" y1="57.92297" x2="185.37612" y2="45.01957"/><line class="g" x1="206.82936" y1="61.72587" x2="187.21059" y2="40.33381"/><line class="g" x1="216.24391" y1="65.37031" x2="189.35666" y2="36.60208"/><line class="g" x1="221.32026" y1="65.1447" x2="194.90858" y2="35.37511"/><line class="g" x1="222.34701" y1="59.33128" x2="204.32313" y2="39.01956"/><line class="g" x1="224.16358" y1="54.63859" x2="214.20381" y2="42.67573"/><line class="g" x1="226.76378" y1="51.08265" x2="223.56157" y2="46.4669"/><ellipse class="h" cx="349.13794" cy="23.10989" rx="2.85303" ry="10.21383" transform="translate(21.5294 146.00827) rotate(-24.34993)"/><path class="i" d="M353.34919,32.41516l-36.18936,16.3781c-1.43556.64969-4.485-2.99044-6.81049-8.12894s-3.04758-9.83189-1.612-10.48158l36.18936-16.3781c-1.43556.64968-.71349,5.34309,1.612,10.48157S351.91363,33.06485,353.34919,32.41516Z"/><line class="g" x1="328.75642" y1="43.54503" x2="311.40179" y2="42.79912"/><line class="g" x1="338.3536" y1="39.20166" x2="309.34452" y2="38.20681"/><line class="g" x1="347.5509" y1="35.03927" x2="308.18621" y2="34.06075"/><line class="g" x1="350.94726" y1="31.25974" x2="311.20149" y2="29.24023"/><line class="g" x1="347.51951" y1="26.45343" x2="320.39879" y2="25.07784"/><line class="g" x1="345.44477" y1="21.86903" x2="329.9311" y2="20.59114"/><line class="g" x1="344.73011" y1="17.5222" x2="339.19326" y2="16.57209"/><ellipse class="j" cx="466.76848" cy="50.19787" rx="10.21383" ry="2.85303" transform="translate(317.62405 495.3367) rotate(-77.61469)"/><path class="k" d="M464.57776,60.174l-38.79848-8.52c-1.53907-.338-1.80566-5.07911-.59592-10.58808s3.43828-9.70216,4.97735-9.36419l38.79848,8.52c-1.53906-.338-3.7676,3.85525-4.97734,9.36419S463.0387,59.836,464.57776,60.174Z"/><line class="g" x1="438.21194" y1="54.3842" x2="424.74994" y2="43.4063"/><line class="g" x1="448.50104" y1="56.64364" x2="425.84797" y2="38.49549"/><line class="g" x1="458.36143" y1="58.80894" x2="427.39953" y2="34.48001"/><line class="g" x1="463.34391" y1="57.81142" x2="432.69924" y2="32.4203"/><line class="g" x1="463.47162" y1="51.9094" x2="442.55962" y2="34.5856"/><line class="g" x1="464.55092" y1="46.99449" x2="452.88247" y2="36.69137"/><line class="g" x1="466.5781" y1="43.08345" x2="462.70911" y2="39.01033"/><ellipse class="l" cx="429.66267" cy="29.8932" rx="2.85303" ry="10.21383" transform="translate(25.89571 179.8127) rotate(-24.34993)"/><path class="m" d="M433.87392,39.19847,397.68456,55.57658c-1.43556.64968-4.485-2.99045-6.81049-8.129s-3.04758-9.83189-1.612-10.48158L425.45142,20.588c-1.43556.64969-.7135,5.3431,1.612,10.48158S432.43836,39.84816,433.87392,39.19847Z"/><line class="g" x1="409.28115" y1="50.32834" x2="391.92652" y2="49.58243"/><line class="g" x1="418.87833" y1="45.98498" x2="389.86925" y2="44.99012"/><line class="g" x1="428.07563" y1="41.82259" x2="388.71094" y2="40.84407"/><line class="g" x1="431.47199" y1="38.04305" x2="391.72622" y2="36.02355"/><line class="g" x1="428.04424" y1="33.23675" x2="400.92352" y2="31.86116"/><line class="g" x1="425.9695" y1="28.65235" x2="410.45583" y2="27.37446"/><line class="g" x1="425.25484" y1="24.30551" x2="419.71799" y2="23.3554"/><ellipse class="n" cx="425.02333" cy="55.3725" rx="10.21383" ry="2.85303" transform="translate(263.31454 452.3123) rotate(-75.25732)"/><path class="o" d="M422.42412,65.25009l-38.4152-10.10863c-1.52386-.401-1.59522-5.14908-.1599-10.60363s3.83444-9.55253,5.3583-9.15154l38.41521,10.10863c-1.52386-.401-3.923,3.697-5.35831,9.15154S420.90026,64.8491,422.42412,65.25009Z"/><line class="g" x1="396.31876" y1="58.38069" x2="383.3197" y2="46.85836"/><line class="g" x1="406.50622" y1="61.06143" x2="384.6188" y2="41.99687"/><line class="g" x1="416.2692" y1="63.63048" x2="386.3342" y2="38.04861"/><line class="g" x1="421.28849" y1="62.83874" x2="391.71415" y2="36.20863"/><line class="g" x1="421.65886" y1="56.94698" x2="401.47713" y2="38.77767"/><line class="g" x1="422.93941" y1="52.08061" x2="411.70462" y2="41.30626"/><line class="g" x1="425.12575" y1="48.25627" x2="421.42757" y2="44.02746"/><ellipse class="p" cx="340.68433" cy="47.38751" rx="2.85303" ry="10.21383" transform="translate(10.76753 144.6824) rotate(-24.34993)"/><path class="q" d="M344.89558,56.69278l-36.18936,16.3781c-1.43557.64969-4.485-2.99044-6.8105-8.12894s-3.04757-9.83189-1.612-10.48158l36.18937-16.3781c-1.43557.64968-.7135,5.34309,1.612,10.48157S343.46,57.34247,344.89558,56.69278Z"/><line class="g" x1="320.30281" y1="67.82265" x2="302.94817" y2="67.07674"/><line class="g" x1="329.89999" y1="63.47928" x2="300.89091" y2="62.48443"/><line class="g" x1="339.09728" y1="59.31689" x2="299.7326" y2="58.33837"/><line class="g" x1="342.49365" y1="55.53736" x2="302.74788" y2="53.51785"/><line class="g" x1="339.0659" y1="50.73105" x2="311.94517" y2="49.35546"/><line class="g" x1="336.99115" y1="46.14665" x2="321.47748" y2="44.86876"/><line class="g" x1="336.27649" y1="41.79982" x2="330.73965" y2="40.84971"/><ellipse class="r" cx="393.89146" cy="61.62796" rx="10.21383" ry="2.85303" transform="translate(128.56812 359.20486) rotate(-57.17176)"/><path class="s" d="M388.3543,70.21064,354.97513,48.676c-1.32409-.85425.08207-5.3899,3.13976-10.12939s6.61046-7.89022,7.93455-7.036l33.37917,21.5347c-1.32409-.85424-4.87686,2.29651-7.93455,7.036S387.03021,69.3564,388.3543,70.21064Z"/><line class="g" x1="365.67122" y1="55.57657" x2="356.89135" y2="40.58812"/><line class="g" x1="374.52316" y1="61.28743" x2="359.63545" y2="36.37011"/><line class="g" x1="383.00626" y1="66.76033" x2="362.49179" y2="33.14944"/><line class="g" x1="388.02335" y1="67.56589" x2="368.17713" y2="33.0705"/><line class="g" x1="390.20444" y1="62.08019" x2="376.66023" y2="38.5434"/><line class="g" x1="392.93242" y1="57.85178" x2="385.59746" y2="44.12206"/><line class="g" x1="396.19796" y1="54.8951" x2="393.99527" y2="49.72717"/><ellipse class="t" cx="372.99062" cy="40.98636" rx="2.85303" ry="10.21383" transform="translate(16.28061 157.43314) rotate(-24.34993)"/><path class="u" d="M377.20187,50.29163l-36.18936,16.3781c-1.43556.64969-4.485-2.99044-6.81049-8.12894s-3.04758-9.83189-1.612-10.48158l36.18936-16.3781c-1.43556.64969-.71349,5.34309,1.612,10.48157S375.76631,50.94132,377.20187,50.29163Z"/><line class="g" x1="352.6091" y1="61.4215" x2="335.25447" y2="60.67559"/><line class="g" x1="362.20628" y1="57.07814" x2="333.1972" y2="56.08328"/><line class="g" x1="371.40358" y1="52.91574" x2="332.03889" y2="51.93723"/><line class="g" x1="374.79994" y1="49.13621" x2="335.05417" y2="47.1167"/><line class="g" x1="371.37219" y1="44.32991" x2="344.25147" y2="42.95431"/><line class="g" x1="369.29745" y1="39.74551" x2="353.78378" y2="38.46761"/><line class="g" x1="368.58279" y1="35.39867" x2="363.04594" y2="34.44856"/><ellipse class="v" cx="386.2718" cy="27.40043" rx="2.85303" ry="10.21383" transform="translate(23.06364 161.70054) rotate(-24.34993)"/><path class="w" d="M390.48306,36.7057,354.29369,53.0838c-1.43556.64969-4.485-2.99044-6.81049-8.12894s-3.04757-9.83189-1.612-10.48158l36.18936-16.3781c-1.43556.64968-.71349,5.34309,1.612,10.48157S389.04749,37.35539,390.48306,36.7057Z"/><line class="g" x1="365.89029" y1="47.83557" x2="348.53565" y2="47.08966"/><line class="g" x1="375.48746" y1="43.4922" x2="346.47838" y2="42.49735"/><line class="g" x1="384.68476" y1="39.32981" x2="345.32008" y2="38.35129"/><line class="g" x1="388.08112" y1="35.55028" x2="348.33535" y2="33.53077"/><line class="g" x1="384.65338" y1="30.74397" x2="357.53265" y2="29.36838"/><line class="g" x1="382.57863" y1="26.15957" x2="367.06496" y2="24.88168"/><line class="g" x1="381.86397" y1="21.81274" x2="376.32713" y2="20.86263"/><ellipse class="x" cx="272.66756" cy="36.45086" rx="2.85303" ry="10.21383" transform="matrix(0.85954, -0.51107, 0.51107, 0.85954, 19.6703, 144.47239)"/><path class="y" d="M267.44757,27.67167,301.591,7.37043c1.3544-.80531,4.78973,2.4731,7.67229,7.3211s4.1221,9.432,2.7677,10.23728l-34.1434,20.30124c1.3544-.80532.11484-5.38931-2.7677-10.23728S268.802,26.86636,267.44757,27.67167Z"/><line class="g" x1="290.64999" y1="13.8758" x2="307.97992" y2="12.68701"/><line class="g" x1="281.59538" y1="19.25955" x2="310.53515" y2="17.02204"/><line class="g" x1="272.91806" y1="24.41898" x2="312.14737" y2="21.01356"/><line class="g" x1="269.9631" y1="28.55279" x2="309.6869" y2="26.13951"/><line class="g" x1="273.9041" y1="32.94807" x2="301.00957" y2="31.29894"/><line class="g" x1="276.47583" y1="37.27329" x2="292.03538" y2="36.81793"/><line class="g" x1="277.66948" y1="41.51368" x2="283.27764" y2="41.84213"/><ellipse class="z" cx="304.91806" cy="42.00674" rx="2.85303" ry="10.21383" transform="translate(9.80446 129.45702) rotate(-24.34993)"/><path class="aa" d="M309.12932,51.312,272.94,67.69011c-1.43556.64969-4.485-2.99044-6.81049-8.129s-3.04758-9.83188-1.612-10.48157l36.18936-16.37811c-1.43556.64969-.71349,5.3431,1.612,10.48158S307.69375,51.96169,309.12932,51.312Z"/><line class="g" x1="284.53654" y1="62.44188" x2="267.18191" y2="61.69597"/><line class="g" x1="294.13372" y1="58.09851" x2="265.12464" y2="57.10366"/><line class="g" x1="303.33102" y1="53.93612" x2="263.96633" y2="52.9576"/><line class="g" x1="306.72738" y1="50.15659" x2="266.98161" y2="48.13708"/><line class="g" x1="303.29963" y1="45.35028" x2="276.17891" y2="43.97469"/><line class="g" x1="301.22489" y1="40.76588" x2="285.71122" y2="39.48799"/><line class="g" x1="300.51023" y1="36.41905" x2="294.97338" y2="35.46893"/><ellipse class="ab" cx="265.39768" cy="20.49257" rx="2.85303" ry="10.21383" transform="translate(15.15937 111.24863) rotate(-24.34993)"/><path class="ac" d="M269.60894,29.79784l-36.18937,16.3781c-1.43556.64969-4.485-2.99044-6.81049-8.12895s-3.04757-9.83188-1.612-10.48157l36.18936-16.37811c-1.43556.64969-.71349,5.3431,1.612,10.48158S268.17337,30.44752,269.60894,29.79784Z"/><line class="g" x1="245.01617" y1="40.92771" x2="227.66153" y2="40.1818"/><line class="g" x1="254.61335" y1="36.58434" x2="225.60426" y2="35.58949"/><line class="g" x1="263.81064" y1="32.42195" x2="224.44596" y2="31.44343"/><line class="g" x1="267.20701" y1="28.64242" x2="227.46123" y2="26.62291"/><line class="g" x1="263.77926" y1="23.83611" x2="236.65853" y2="22.46052"/><line class="g" x1="261.70451" y1="19.25171" x2="246.19084" y2="17.97382"/><line class="g" x1="260.98985" y1="14.90488" x2="255.45301" y2="13.95476"/><ellipse class="ad" cx="243.53156" cy="65.78401" rx="2.85303" ry="10.21383" transform="translate(57.05651 235.67283) rotate(-57.45147)"/><path class="ae" d="M234.92194,60.28882l21.37149-33.4839c.84777-1.32825,5.39024.05575,10.1446,3.09027s7.9224,6.57186,7.07463,7.9001l-21.37149,33.4839c.84776-1.32824-2.3203-4.86559-7.07464-7.9001S235.76971,58.96057,234.92194,60.28882Z"/><line class="g" x1="249.44511" y1="37.53457" x2="264.39052" y2="28.68163"/><line class="g" x1="243.77753" y1="46.41427" x2="268.62187" y2="31.4051"/><line class="g" x1="238.3461" y1="54.92399" x2="271.85645" y2="34.24569"/><line class="g" x1="237.56505" y1="59.94496" x2="271.96315" y2="39.93057"/><line class="g" x1="243.06133" y1="62.09925" x2="266.53172" y2="48.44029"/><line class="g" x1="247.30301" y1="64.80655" x2="260.99676" y2="57.40465"/><line class="g" x1="250.27559" y1="68.05761" x2="255.43271" y2="65.82972"/><ellipse class="af" cx="236.40313" cy="40.81547" rx="2.85303" ry="10.21383" transform="translate(4.20084 101.10177) rotate(-24.34993)"/><path class="ag" d="M240.61439,50.12074,204.425,66.49884c-1.43556.64969-4.485-2.99044-6.81049-8.12894s-3.04757-9.83189-1.612-10.48158l36.18936-16.3781c-1.43556.64969-.71349,5.34309,1.612,10.48157S239.17882,50.77043,240.61439,50.12074Z"/><line class="g" x1="216.02162" y1="61.25061" x2="198.66698" y2="60.5047"/><line class="g" x1="225.6188" y1="56.90725" x2="196.60971" y2="55.91239"/><line class="g" x1="234.81609" y1="52.74486" x2="195.45141" y2="51.76634"/><line class="g" x1="238.21246" y1="48.96532" x2="198.46668" y2="46.94581"/><line class="g" x1="234.78471" y1="44.15902" x2="207.66398" y2="42.78342"/><line class="g" x1="232.70996" y1="39.57462" x2="217.19629" y2="38.29673"/><line class="g" x1="231.9953" y1="35.22778" x2="226.45846" y2="34.27767"/><g class="ah"><ellipse class="ai" cx="74.77435" cy="78.01535" rx="10.21383" ry="2.85303" transform="translate(-24.97377 119.58351) rotate(-68.83821)"/><path class="aj" d="M71.08712,87.54042,34.0429,73.20033c-1.46947-.56885-1.00954-5.29515,1.0266-10.555s4.87838-9.06395,6.34785-8.4951L78.46157,68.49029c-1.46948-.56884-4.31172,3.23524-6.34786,8.4951S69.61764,86.97158,71.08712,87.54042Z"/><line class="g" x1="45.91343" y1="77.7955" x2="34.28406" y2="64.8921"/><line class="g" x1="55.73731" y1="81.5984" x2="36.11853" y2="60.20634"/><line class="g" x1="65.15186" y1="85.24284" x2="38.2646" y2="56.4746"/><line class="g" x1="70.2282" y1="85.01723" x2="43.81653" y2="55.24764"/><line class="g" x1="71.25495" y1="79.20381" x2="53.23108" y2="58.89208"/><line class="g" x1="73.07153" y1="74.51112" x2="63.11176" y2="62.54826"/><line class="g" x1="75.67172" y1="70.95518" x2="72.46951" y2="66.33943"/><ellipse class="ak" cx="198.04588" cy="42.98242" rx="2.85303" ry="10.21383" transform="translate(-0.10471 85.47951) rotate(-24.34993)"/><path class="al" d="M202.25714,52.28768,166.06778,68.66579c-1.43557.64969-4.485-2.99044-6.8105-8.129s-3.04757-9.83188-1.612-10.48157l36.18936-16.37811c-1.43556.64969-.71349,5.3431,1.612,10.48158S200.82157,52.93737,202.25714,52.28768Z"/><line class="g" x1="177.66437" y1="63.41756" x2="160.30973" y2="62.67165"/><line class="g" x1="187.26155" y1="59.07419" x2="158.25246" y2="58.07934"/><line class="g" x1="196.45884" y1="54.9118" x2="157.09416" y2="53.93328"/><line class="g" x1="199.85521" y1="51.13227" x2="160.10943" y2="49.11276"/><line class="g" x1="196.42746" y1="46.32596" x2="169.30673" y2="44.95037"/><line class="g" x1="194.35271" y1="41.74156" x2="178.83904" y2="40.46367"/><line class="g" x1="193.63805" y1="37.39473" x2="188.10121" y2="36.44461"/><ellipse class="am" cx="315.67642" cy="70.0704" rx="10.21383" ry="2.85303" transform="translate(179.52892 363.37114) rotate(-77.61469)"/><path class="an" d="M313.4857,80.04654l-38.79848-8.52c-1.53906-.338-1.80566-5.07911-.59591-10.58808s3.43828-9.70216,4.97734-9.36419l38.79848,8.52c-1.53906-.338-3.7676,3.85525-4.97734,9.36419S311.94664,79.70857,313.4857,80.04654Z"/><line class="g" x1="287.11988" y1="74.25673" x2="273.65788" y2="63.27883"/><line class="g" x1="297.40898" y1="76.51617" x2="274.75592" y2="58.36802"/><line class="g" x1="307.26937" y1="78.68146" x2="276.30747" y2="54.35254"/><line class="g" x1="312.25185" y1="77.68394" x2="281.60718" y2="52.29283"/><line class="g" x1="312.37957" y1="71.78193" x2="291.46757" y2="54.45812"/><line class="g" x1="313.45886" y1="66.86701" x2="301.79041" y2="56.5639"/><line class="g" x1="315.48605" y1="62.95598" x2="311.61706" y2="58.88286"/><ellipse class="ao" cx="278.57061" cy="49.76573" rx="2.85303" ry="10.21383" transform="translate(4.26161 119.28395) rotate(-24.34993)"/><path class="ap" d="M282.78187,59.071,246.5925,75.4491c-1.43556.64969-4.485-2.99044-6.81049-8.12894s-3.04757-9.83189-1.612-10.48158l36.18936-16.3781c-1.43556.64969-.71349,5.34309,1.612,10.48157S281.3463,59.72069,282.78187,59.071Z"/><line class="g" x1="258.1891" y1="70.20087" x2="240.83446" y2="69.45496"/><line class="g" x1="267.78627" y1="65.85751" x2="238.77719" y2="64.86265"/><line class="g" x1="276.98357" y1="61.69512" x2="237.61889" y2="60.7166"/><line class="g" x1="280.37993" y1="57.91558" x2="240.63416" y2="55.89607"/><line class="g" x1="276.95219" y1="53.10928" x2="249.83146" y2="51.73368"/><line class="g" x1="274.87744" y1="48.52488" x2="259.36377" y2="47.24699"/><line class="g" x1="274.16278" y1="44.17804" x2="268.62594" y2="43.22793"/><ellipse class="aq" cx="273.93127" cy="75.24503" rx="10.21383" ry="2.85303" transform="translate(131.45384 321.00983) rotate(-75.25732)"/><path class="ar" d="M271.33207,85.12262,232.91686,75.014c-1.52386-.401-1.59521-5.14908-.1599-10.60363s3.83445-9.55253,5.3583-9.15154l38.41521,10.10863c-1.52386-.401-3.923,3.697-5.3583,9.15154S269.80821,84.72163,271.33207,85.12262Z"/><line class="g" x1="245.22671" y1="78.25322" x2="232.22764" y2="66.73088"/><line class="g" x1="255.41416" y1="80.93396" x2="233.52674" y2="61.8694"/><line class="g" x1="265.17714" y1="83.503" x2="235.24215" y2="57.92113"/><line class="g" x1="270.19644" y1="82.71127" x2="240.62209" y2="56.08116"/><line class="g" x1="270.56681" y1="76.8195" x2="250.38507" y2="58.6502"/><line class="g" x1="271.84735" y1="71.95314" x2="260.61257" y2="61.17879"/><line class="g" x1="274.03369" y1="68.12879" x2="270.33551" y2="63.89998"/><ellipse class="as" cx="189.59227" cy="67.26004" rx="2.85303" ry="10.21383" transform="translate(-10.86657 84.15365) rotate(-24.34993)"/><path class="at" d="M193.80352,76.5653,157.61416,92.94341c-1.43556.64969-4.485-2.99044-6.81049-8.129s-3.04758-9.83188-1.612-10.48157L185.381,57.95478c-1.43556.64969-.71349,5.3431,1.612,10.48158S192.368,77.215,193.80352,76.5653Z"/><line class="g" x1="169.21075" y1="87.69518" x2="151.85612" y2="86.94927"/><line class="g" x1="178.80793" y1="83.35181" x2="149.79885" y2="82.35696"/><line class="g" x1="188.00523" y1="79.18942" x2="148.64054" y2="78.2109"/><line class="g" x1="191.40159" y1="75.40989" x2="151.65582" y2="73.39038"/><line class="g" x1="187.97384" y1="70.60358" x2="160.85312" y2="69.22799"/><line class="g" x1="185.8991" y1="66.01918" x2="170.38543" y2="64.74129"/><line class="g" x1="185.18444" y1="61.67235" x2="179.64759" y2="60.72223"/><ellipse class="au" cx="242.7994" cy="81.50048" rx="10.21383" ry="2.85303" transform="translate(42.68758 241.34146) rotate(-57.17176)"/><path class="av" d="M237.26225,90.08317l-33.37917-21.5347c-1.32409-.85424.08206-5.3899,3.13976-10.12938s6.61045-7.89023,7.93454-7.036l33.37917,21.5347c-1.32409-.85424-4.87686,2.29652-7.93454,7.036S235.93816,89.22893,237.26225,90.08317Z"/><line class="g" x1="214.57916" y1="75.4491" x2="205.79929" y2="60.46065"/><line class="g" x1="223.4311" y1="81.15995" x2="208.54339" y2="56.24264"/><line class="g" x1="231.9142" y1="86.63286" x2="211.39973" y2="53.02196"/><line class="g" x1="236.9313" y1="87.43842" x2="217.08507" y2="52.94302"/><line class="g" x1="239.11239" y1="81.95272" x2="225.56818" y2="58.41593"/><line class="g" x1="241.84036" y1="77.72431" x2="234.5054" y2="63.99459"/><line class="g" x1="245.1059" y1="74.76763" x2="242.90322" y2="69.5997"/><ellipse class="aw" cx="221.89856" cy="60.85889" rx="2.85303" ry="10.21383" transform="translate(-5.3535 96.90439) rotate(-24.34993)"/><path class="ax" d="M226.10982,70.16416l-36.18937,16.3781c-1.43556.64969-4.485-2.99044-6.81049-8.12894s-3.04757-9.83189-1.612-10.48158l36.18936-16.37811c-1.43556.64969-.71349,5.3431,1.612,10.48158S224.67425,70.81384,226.10982,70.16416Z"/><line class="g" x1="201.51705" y1="81.29403" x2="184.16241" y2="80.54812"/><line class="g" x1="211.11423" y1="76.95066" x2="182.10514" y2="75.95581"/><line class="g" x1="220.31152" y1="72.78827" x2="180.94684" y2="71.80975"/><line class="g" x1="223.70789" y1="69.00874" x2="183.96211" y2="66.98923"/><line class="g" x1="220.28014" y1="64.20243" x2="193.15941" y2="62.82684"/><line class="g" x1="218.20539" y1="59.61803" x2="202.69172" y2="58.34014"/><line class="g" x1="217.49073" y1="55.2712" x2="211.95389" y2="54.32108"/><ellipse class="ay" cx="235.17975" cy="47.27296" rx="2.85303" ry="10.21383" transform="translate(1.42953 101.17179) rotate(-24.34993)"/><path class="az" d="M239.391,56.57822,203.20164,72.95633c-1.43557.64969-4.485-2.99044-6.8105-8.12895s-3.04757-9.83188-1.612-10.48157L230.9685,37.9677c-1.43557.64969-.7135,5.3431,1.612,10.48158S237.95544,57.22791,239.391,56.57822Z"/><line class="g" x1="214.79823" y1="67.7081" x2="197.44359" y2="66.96219"/><line class="g" x1="224.39541" y1="63.36473" x2="195.38633" y2="62.36987"/><line class="g" x1="233.5927" y1="59.20234" x2="194.22802" y2="58.22382"/><line class="g" x1="236.98907" y1="55.42281" x2="197.2433" y2="53.4033"/><line class="g" x1="233.56132" y1="50.6165" x2="206.44059" y2="49.24091"/><line class="g" x1="231.48657" y1="46.0321" x2="215.9729" y2="44.75421"/><line class="g" x1="230.77191" y1="41.68527" x2="225.23507" y2="40.73515"/><ellipse class="ba" cx="121.57551" cy="56.32339" rx="2.85303" ry="10.21383" transform="translate(-11.70857 70.04497) rotate(-30.73519)"/><path class="bb" d="M116.35551,47.5442,150.49891,27.243c1.35441-.80532,4.78973,2.4731,7.67229,7.3211s4.12211,9.432,2.7677,10.23727L126.7955,65.10257c1.35441-.80531.11485-5.3893-2.7677-10.23727S117.70991,46.73888,116.35551,47.5442Z"/><line class="g" x1="139.55793" y1="33.74832" x2="156.88787" y2="32.55954"/><line class="g" x1="130.50333" y1="39.13208" x2="159.4431" y2="36.89457"/><line class="g" x1="121.826" y1="44.29151" x2="161.05531" y2="40.88609"/><line class="g" x1="118.87104" y1="48.42532" x2="158.59485" y2="46.01204"/><line class="g" x1="122.81205" y1="52.8206" x2="149.91752" y2="51.17147"/><line class="g" x1="125.38377" y1="57.14582" x2="140.94332" y2="56.69046"/><line class="g" x1="126.57742" y1="61.38621" x2="132.18558" y2="61.71466"/><ellipse class="bc" cx="153.826" cy="61.87927" rx="2.85303" ry="10.21383" transform="translate(-11.82965 68.92827) rotate(-24.34993)"/><path class="bd" d="M158.03726,71.18453,121.8479,87.56264c-1.43557.64969-4.485-2.99044-6.8105-8.129s-3.04757-9.83189-1.612-10.48157L149.61476,52.574c-1.43557.64969-.7135,5.3431,1.612,10.48158S156.60169,71.83422,158.03726,71.18453Z"/><line class="g" x1="133.44449" y1="82.31441" x2="116.08985" y2="81.56849"/><line class="g" x1="143.04167" y1="77.97104" x2="114.03258" y2="76.97618"/><line class="g" x1="152.23896" y1="73.80865" x2="112.87428" y2="72.83013"/><line class="g" x1="155.63533" y1="70.02912" x2="115.88956" y2="68.00961"/><line class="g" x1="152.20758" y1="65.22281" x2="125.08685" y2="63.84722"/><line class="g" x1="150.13283" y1="60.63841" x2="134.61916" y2="59.36052"/><line class="g" x1="149.41817" y1="56.29158" x2="143.88133" y2="55.34146"/><ellipse class="be" cx="114.30563" cy="40.3651" rx="2.85303" ry="10.21383" transform="translate(-6.47474 50.71988) rotate(-24.34993)"/><path class="bf" d="M118.51688,49.67036,82.32752,66.04847c-1.43557.64969-4.485-2.99044-6.8105-8.12895S72.46945,48.08764,73.905,47.438l36.18937-16.37811c-1.43557.64969-.7135,5.3431,1.612,10.48158S117.08132,50.32005,118.51688,49.67036Z"/><line class="g" x1="93.92411" y1="60.80024" x2="76.56947" y2="60.05432"/><line class="g" x1="103.52129" y1="56.45687" x2="74.51221" y2="55.46201"/><line class="g" x1="112.71859" y1="52.29448" x2="73.3539" y2="51.31596"/><line class="g" x1="116.11495" y1="48.51495" x2="76.36918" y2="46.49544"/><line class="g" x1="112.6872" y1="43.70864" x2="85.56647" y2="42.33305"/><line class="g" x1="110.61245" y1="39.12424" x2="95.09879" y2="37.84635"/><line class="g" x1="109.89779" y1="34.77741" x2="104.36095" y2="33.82729"/><ellipse class="bg" cx="92.4395" cy="85.65654" rx="2.85303" ry="10.21383" transform="translate(-29.49721 117.49273) rotate(-57.45147)"/><path class="bh" d="M83.82988,80.16135l21.3715-33.4839c.84776-1.32825,5.39023.05574,10.14459,3.09027s7.9224,6.57185,7.07463,7.9001l-21.37149,33.4839c.84777-1.32824-2.3203-4.86559-7.07463-7.9001S84.67765,78.8331,83.82988,80.16135Z"/><line class="g" x1="98.35305" y1="57.40709" x2="113.29846" y2="48.55415"/><line class="g" x1="92.68547" y1="66.2868" x2="117.52982" y2="51.27763"/><line class="g" x1="87.25405" y1="74.79652" x2="120.7644" y2="54.11821"/><line class="g" x1="86.47299" y1="79.81749" x2="120.87109" y2="59.8031"/><line class="g" x1="91.96927" y1="81.97177" x2="115.43966" y2="68.31282"/><line class="g" x1="96.21095" y1="84.67907" x2="109.9047" y2="77.27717"/><line class="g" x1="99.18354" y1="87.93014" x2="104.34065" y2="85.70225"/><ellipse class="bi" cx="85.31108" cy="60.688" rx="2.85303" ry="10.21383" transform="translate(-17.43327 40.57302) rotate(-24.34993)"/><path class="bj" d="M89.52233,69.99327,53.333,86.37137c-1.43557.64969-4.485-2.99044-6.8105-8.12894s-3.04757-9.83189-1.612-10.48158l36.18937-16.3781c-1.43557.64968-.7135,5.34309,1.612,10.48157S88.08677,70.643,89.52233,69.99327Z"/><line class="g" x1="64.92956" y1="81.12314" x2="47.57492" y2="80.37723"/><line class="g" x1="74.52674" y1="76.77977" x2="45.51766" y2="75.78492"/><line class="g" x1="83.72404" y1="72.61738" x2="44.35935" y2="71.63886"/><line class="g" x1="87.1204" y1="68.83785" x2="47.37463" y2="66.81834"/><line class="g" x1="83.69265" y1="64.03154" x2="56.57192" y2="62.65595"/><line class="g" x1="81.6179" y1="59.44714" x2="66.10424" y2="58.16925"/><line class="g" x1="80.90324" y1="55.10031" x2="75.3664" y2="54.1502"/><ellipse class="bk" cx="226.43054" cy="83.49402" rx="10.21383" ry="2.85303" transform="translate(66.8249 264.51358) rotate(-68.83821)"/><path class="bl" d="M222.74331,93.01909,185.69909,78.679c-1.46947-.56885-1.00954-5.29515,1.0266-10.555s4.87838-9.06395,6.34785-8.4951L230.11776,73.969c-1.46947-.56884-4.31172,3.23524-6.34785,8.4951S221.27384,92.45025,222.74331,93.01909Z"/><line class="g" x1="197.56962" y1="83.27417" x2="185.94025" y2="70.37077"/><line class="g" x1="207.3935" y1="87.07707" x2="187.77472" y2="65.68501"/><line class="g" x1="216.80805" y1="90.72151" x2="189.92079" y2="61.95327"/><line class="g" x1="221.88439" y1="90.4959" x2="195.47272" y2="60.72631"/><line class="g" x1="222.91114" y1="84.68248" x2="204.88727" y2="64.37075"/><line class="g" x1="224.72772" y1="79.98979" x2="214.76795" y2="68.02693"/><line class="g" x1="227.32791" y1="76.43385" x2="224.1257" y2="71.8181"/><ellipse class="bm" cx="349.70207" cy="48.46109" rx="2.85303" ry="10.21383" transform="translate(11.12707 148.496) rotate(-24.34993)"/><path class="bn" d="M353.91333,57.76636,317.724,74.14446c-1.43557.64969-4.485-2.99044-6.8105-8.12895s-3.04757-9.83188-1.612-10.48157l36.18937-16.37811c-1.43557.64969-.7135,5.3431,1.612,10.48158S352.47777,58.416,353.91333,57.76636Z"/><line class="g" x1="329.32056" y1="68.89623" x2="311.96592" y2="68.15032"/><line class="g" x1="338.91774" y1="64.55286" x2="309.90865" y2="63.55801"/><line class="g" x1="348.11503" y1="60.39047" x2="308.75035" y2="59.41195"/><line class="g" x1="351.5114" y1="56.61094" x2="311.76563" y2="54.59143"/><line class="g" x1="348.08365" y1="51.80463" x2="320.96292" y2="50.42904"/><line class="g" x1="346.0089" y1="47.22023" x2="330.49523" y2="45.94234"/><line class="g" x1="345.29424" y1="42.8734" x2="339.7574" y2="41.92328"/><ellipse class="bo" cx="467.33261" cy="75.54907" rx="10.21383" ry="2.85303" transform="translate(293.30598 515.80146) rotate(-77.61469)"/><path class="bp" d="M465.1419,85.52521l-38.79849-8.52c-1.53906-.338-1.80566-5.07911-.59591-10.58808s3.43828-9.70216,4.97734-9.36419l38.79848,8.52c-1.53906-.338-3.7676,3.85525-4.97734,9.36419S463.60283,85.18724,465.1419,85.52521Z"/><line class="g" x1="438.77607" y1="79.7354" x2="425.31407" y2="68.7575"/><line class="g" x1="449.06518" y1="81.99484" x2="426.41211" y2="63.84669"/><line class="g" x1="458.92556" y1="84.16013" x2="427.96366" y2="59.83121"/><line class="g" x1="463.90804" y1="83.16261" x2="433.26337" y2="57.7715"/><line class="g" x1="464.03576" y1="77.2606" x2="443.12376" y2="59.93679"/><line class="g" x1="465.11505" y1="72.34568" x2="453.4466" y2="62.04257"/><line class="g" x1="467.14224" y1="68.43465" x2="463.27325" y2="64.36153"/><ellipse class="bq" cx="430.2268" cy="55.2444" rx="2.85303" ry="10.21383" transform="translate(15.49338 182.30043) rotate(-24.34993)"/><path class="br" d="M434.43806,64.54967,398.2487,80.92777c-1.43557.64969-4.485-2.99044-6.8105-8.12894s-3.04757-9.83189-1.612-10.48158l36.18936-16.3781c-1.43556.64969-.71349,5.34309,1.612,10.48157S433.00249,65.19936,434.43806,64.54967Z"/><line class="g" x1="409.84529" y1="75.67954" x2="392.49065" y2="74.93363"/><line class="g" x1="419.44247" y1="71.33618" x2="390.43338" y2="70.34132"/><line class="g" x1="428.63976" y1="67.17379" x2="389.27508" y2="66.19527"/><line class="g" x1="432.03613" y1="63.39425" x2="392.29035" y2="61.37475"/><line class="g" x1="428.60838" y1="58.58795" x2="401.48765" y2="57.21235"/><line class="g" x1="426.53363" y1="54.00355" x2="411.01996" y2="52.72566"/><line class="g" x1="425.81897" y1="49.65671" x2="420.28213" y2="48.7066"/><ellipse class="bs" cx="425.58746" cy="80.7237" rx="10.21383" ry="2.85303" transform="translate(239.21851 471.75773) rotate(-75.25732)"/><path class="bt" d="M422.98826,90.60129,384.57305,80.49266c-1.52386-.401-1.59521-5.14908-.15989-10.60363s3.83444-9.55253,5.3583-9.15154l38.4152,10.10863c-1.52386-.401-3.923,3.697-5.3583,9.15154S421.4644,90.2003,422.98826,90.60129Z"/><line class="g" x1="396.8829" y1="83.73189" x2="383.88384" y2="72.20956"/><line class="g" x1="407.07036" y1="86.41263" x2="385.18293" y2="67.34807"/><line class="g" x1="416.83334" y1="88.98167" x2="386.89834" y2="63.39981"/><line class="g" x1="421.85263" y1="88.18994" x2="392.27828" y2="61.55983"/><line class="g" x1="422.223" y1="82.29817" x2="402.04126" y2="64.12887"/><line class="g" x1="423.50354" y1="77.43181" x2="412.26876" y2="66.65746"/><line class="g" x1="425.68988" y1="73.60746" x2="421.9917" y2="69.37865"/><ellipse class="bu" cx="341.24846" cy="72.73871" rx="2.85303" ry="10.21383" transform="translate(0.3652 147.17013) rotate(-24.34993)"/><path class="bv" d="M345.45971,82.044l-36.18936,16.3781c-1.43556.64969-4.485-2.99044-6.81049-8.12895s-3.04758-9.83188-1.612-10.48157l36.18936-16.37811c-1.43556.64969-.71349,5.3431,1.612,10.48158S344.02415,82.69366,345.45971,82.044Z"/><line class="g" x1="320.86694" y1="93.17385" x2="303.51231" y2="92.42794"/><line class="g" x1="330.46412" y1="88.83048" x2="301.45504" y2="87.83563"/><line class="g" x1="339.66142" y1="84.66809" x2="300.29673" y2="83.68957"/><line class="g" x1="343.05778" y1="80.88856" x2="303.31201" y2="78.86905"/><line class="g" x1="339.63003" y1="76.08225" x2="312.50931" y2="74.70666"/><line class="g" x1="337.55529" y1="71.49785" x2="322.04162" y2="70.21996"/><line class="g" x1="336.84063" y1="67.15102" x2="331.30378" y2="66.2009"/><ellipse class="bw" cx="394.45559" cy="86.97915" rx="10.21383" ry="2.85303" transform="translate(107.52382 371.28664) rotate(-57.17176)"/><path class="bx" d="M388.91844,95.56184l-33.37917-21.5347c-1.32409-.85424.08206-5.3899,3.13976-10.12938s6.61045-7.89023,7.93454-7.036l33.37917,21.53469c-1.32409-.85424-4.87686,2.29652-7.93454,7.036S387.59435,94.7076,388.91844,95.56184Z"/><line class="g" x1="366.23536" y1="80.92777" x2="357.45548" y2="65.93932"/><line class="g" x1="375.08729" y1="86.63863" x2="360.19958" y2="61.72131"/><line class="g" x1="383.57039" y1="92.11153" x2="363.05592" y2="58.50063"/><line class="g" x1="388.58749" y1="92.91709" x2="368.74126" y2="58.42169"/><line class="g" x1="390.76858" y1="87.43139" x2="377.22437" y2="63.8946"/><line class="g" x1="393.49655" y1="83.20298" x2="386.16159" y2="69.47326"/><line class="g" x1="396.76209" y1="80.2463" x2="394.55941" y2="75.07837"/><ellipse class="by" cx="373.55475" cy="66.33756" rx="2.85303" ry="10.21383" transform="translate(5.87828 159.92087) rotate(-24.34993)"/><path class="bz" d="M377.766,75.64283l-36.18936,16.3781c-1.43557.64969-4.485-2.99044-6.8105-8.12894s-3.04757-9.83189-1.612-10.48158l36.18936-16.3781c-1.43556.64968-.71349,5.34309,1.612,10.48157S376.33044,76.29252,377.766,75.64283Z"/><line class="g" x1="353.17324" y1="86.7727" x2="335.8186" y2="86.02679"/><line class="g" x1="362.77042" y1="82.42933" x2="333.76133" y2="81.43448"/><line class="g" x1="371.96771" y1="78.26694" x2="332.60303" y2="77.28842"/><line class="g" x1="375.36408" y1="74.48741" x2="335.6183" y2="72.4679"/><line class="g" x1="371.93633" y1="69.6811" x2="344.8156" y2="68.30551"/><line class="g" x1="369.86158" y1="65.0967" x2="354.34791" y2="63.81881"/><line class="g" x1="369.14692" y1="60.74987" x2="363.61008" y2="59.79976"/><ellipse class="ca" cx="386.83594" cy="52.75163" rx="2.85303" ry="10.21383" transform="translate(12.66131 164.18827) rotate(-24.34993)"/><path class="cb" d="M391.04719,62.05689,354.85783,78.435c-1.43557.64969-4.485-2.99044-6.8105-8.129s-3.04757-9.83188-1.612-10.48157l36.18937-16.37811c-1.43557.64969-.7135,5.3431,1.612,10.48158S389.61163,62.70658,391.04719,62.05689Z"/><line class="g" x1="366.45442" y1="73.18677" x2="349.09978" y2="72.44086"/><line class="g" x1="376.0516" y1="68.8434" x2="347.04252" y2="67.84855"/><line class="g" x1="385.2489" y1="64.68101" x2="345.88421" y2="63.70249"/><line class="g" x1="388.64526" y1="60.90148" x2="348.89949" y2="58.88197"/><line class="g" x1="385.21751" y1="56.09517" x2="358.09678" y2="54.71958"/><line class="g" x1="383.14276" y1="51.51077" x2="367.6291" y2="50.23288"/><line class="g" x1="382.4281" y1="47.16394" x2="376.89126" y2="46.21382"/><ellipse class="cc" cx="273.2317" cy="61.80206" rx="2.85303" ry="10.21383" transform="matrix(0.85954, -0.51107, 0.51107, 0.85954, 6.79328, 148.32157)"/><path class="cd" d="M268.0117,53.02287l34.1434-20.30124c1.35441-.80532,4.78973,2.4731,7.67229,7.3211s4.12211,9.432,2.7677,10.23727l-34.1434,20.30124c1.35441-.80531.11485-5.3893-2.7677-10.23727S269.3661,52.21755,268.0117,53.02287Z"/><line class="g" x1="291.21412" y1="39.227" x2="308.54406" y2="38.03821"/><line class="g" x1="282.15952" y1="44.61075" x2="311.09929" y2="42.37324"/><line class="g" x1="273.48219" y1="49.77018" x2="312.7115" y2="46.36476"/><line class="g" x1="270.52723" y1="53.90399" x2="310.25104" y2="51.49071"/><line class="g" x1="274.46824" y1="58.29927" x2="301.57371" y2="56.65014"/><line class="g" x1="277.03996" y1="62.62449" x2="292.59951" y2="62.16913"/><line class="g" x1="278.23361" y1="66.86488" x2="283.84178" y2="67.19333"/><ellipse class="ce" cx="305.4822" cy="67.35794" rx="2.85303" ry="10.21383" transform="translate(-0.59787 131.94475) rotate(-24.34993)"/><path class="cf" d="M309.69345,76.6632,273.50409,93.04131c-1.43557.64969-4.485-2.99044-6.8105-8.12895s-3.04757-9.83188-1.612-10.48157L301.271,58.05268c-1.43557.64969-.7135,5.3431,1.612,10.48158S308.25789,77.31289,309.69345,76.6632Z"/><line class="g" x1="285.10068" y1="87.79308" x2="267.74604" y2="87.04717"/><line class="g" x1="294.69786" y1="83.44971" x2="265.68877" y2="82.45485"/><line class="g" x1="303.89515" y1="79.28732" x2="264.53047" y2="78.3088"/><line class="g" x1="307.29152" y1="75.50779" x2="267.54575" y2="73.48828"/><line class="g" x1="303.86377" y1="70.70148" x2="276.74304" y2="69.32589"/><line class="g" x1="301.78902" y1="66.11708" x2="286.27535" y2="64.83919"/><line class="g" x1="301.07436" y1="61.77025" x2="295.53752" y2="60.82013"/><ellipse class="cg" cx="265.96182" cy="45.84377" rx="2.85303" ry="10.21383" transform="translate(4.75704 113.73636) rotate(-24.34993)"/><path class="ch" d="M270.17307,55.149,233.98371,71.52714c-1.43557.64969-4.485-2.99044-6.81049-8.129s-3.04758-9.83188-1.612-10.48157l36.18936-16.37811c-1.43557.64969-.7135,5.3431,1.612,10.48158S268.73751,55.79872,270.17307,55.149Z"/><line class="g" x1="245.5803" y1="66.27891" x2="228.22566" y2="65.533"/><line class="g" x1="255.17748" y1="61.93554" x2="226.1684" y2="60.94068"/><line class="g" x1="264.37478" y1="57.77315" x2="225.01009" y2="56.79463"/><line class="g" x1="267.77114" y1="53.99362" x2="228.02537" y2="51.97411"/><line class="g" x1="264.34339" y1="49.18731" x2="237.22266" y2="47.81172"/><line class="g" x1="262.26864" y1="44.60291" x2="246.75498" y2="43.32502"/><line class="g" x1="261.55399" y1="40.25608" x2="256.01714" y2="39.30596"/><ellipse class="ci" cx="244.09569" cy="91.13521" rx="2.85303" ry="10.21383" transform="translate(35.94769 247.86026) rotate(-57.45147)"/><path class="cj" d="M235.48607,85.64l21.3715-33.4839c.84776-1.32825,5.39023.05574,10.14459,3.09027s7.9224,6.57185,7.07463,7.9001L252.7053,96.63039c.84777-1.32824-2.3203-4.86559-7.07463-7.9001S236.33384,84.31177,235.48607,85.64Z"/><line class="g" x1="250.00924" y1="62.88576" x2="264.95465" y2="54.03282"/><line class="g" x1="244.34167" y1="71.76547" x2="269.18601" y2="56.7563"/><line class="g" x1="238.91024" y1="80.27519" x2="272.42059" y2="59.59688"/><line class="g" x1="238.12918" y1="85.29616" x2="272.52728" y2="65.28177"/><line class="g" x1="243.62546" y1="87.45044" x2="267.09585" y2="73.79149"/><line class="g" x1="247.86714" y1="90.15774" x2="261.56089" y2="82.75584"/><line class="g" x1="250.83973" y1="93.40881" x2="255.99684" y2="91.18092"/><ellipse class="ck" cx="236.96727" cy="66.16667" rx="2.85303" ry="10.21383" transform="translate(-6.20149 103.5895) rotate(-24.34993)"/><path class="cl" d="M241.17852,75.47194,204.98916,91.85c-1.43557.64969-4.485-2.99044-6.81049-8.12894s-3.04758-9.83189-1.612-10.48158L232.756,56.86142c-1.43557.64968-.7135,5.34309,1.612,10.48157S239.743,76.12163,241.17852,75.47194Z"/><line class="g" x1="216.58575" y1="86.60181" x2="199.23111" y2="85.8559"/><line class="g" x1="226.18293" y1="82.25844" x2="197.17385" y2="81.26359"/><line class="g" x1="235.38023" y1="78.09605" x2="196.01554" y2="77.11753"/><line class="g" x1="238.77659" y1="74.31652" x2="199.03082" y2="72.29701"/><line class="g" x1="235.34884" y1="69.51021" x2="208.22811" y2="68.13462"/><line class="g" x1="233.27409" y1="64.92581" x2="217.76043" y2="63.64792"/><line class="g" x1="232.55944" y1="60.57898" x2="227.02259" y2="59.62887"/></g><ellipse class="cm" cx="94.49035" cy="52.39403" rx="10.21383" ry="2.85303" transform="translate(11.51825 121.59801) rotate(-68.83821)"/><path class="cn" d="M90.80312,61.9191,53.75891,47.579c-1.46948-.56885-1.00955-5.29515,1.02659-10.555s4.87838-9.064,6.34786-8.49511L98.17757,42.869c-1.46947-.56885-4.31172,3.23524-6.34785,8.4951S89.33365,61.35026,90.80312,61.9191Z"/><line class="g" x1="65.62943" y1="52.17418" x2="54.00006" y2="39.27078"/><line class="g" x1="75.45331" y1="55.97707" x2="55.83453" y2="34.58501"/><line class="g" x1="84.86786" y1="59.62152" x2="57.9806" y2="30.85328"/><line class="g" x1="89.9442" y1="59.3959" x2="63.53253" y2="29.62632"/><line class="g" x1="90.97095" y1="53.58249" x2="72.94708" y2="33.27076"/><line class="g" x1="92.78753" y1="48.88979" x2="82.82776" y2="36.92694"/><line class="g" x1="95.38773" y1="45.33386" x2="92.18551" y2="40.7181"/><ellipse class="co" cx="217.76189" cy="17.3611" rx="2.85303" ry="10.21383" transform="translate(12.21303 91.32943) rotate(-24.34993)"/><path class="cp" d="M221.97314,26.66636,185.78378,43.04447c-1.43557.64969-4.485-2.99044-6.81049-8.12895s-3.04758-9.83189-1.612-10.48157L213.55064,8.05584c-1.43557.64969-.7135,5.3431,1.612,10.48158S220.53758,27.31605,221.97314,26.66636Z"/><line class="g" x1="197.38037" y1="37.79623" x2="180.02573" y2="37.05032"/><line class="g" x1="206.97755" y1="33.45287" x2="177.96847" y2="32.45801"/><line class="g" x1="216.17485" y1="29.29048" x2="176.81016" y2="28.31196"/><line class="g" x1="219.57121" y1="25.51095" x2="179.82544" y2="23.49144"/><line class="g" x1="216.14346" y1="20.70464" x2="189.02273" y2="19.32905"/><line class="g" x1="214.06871" y1="16.12024" x2="198.55505" y2="14.84235"/><line class="g" x1="213.35406" y1="11.77341" x2="207.81721" y2="10.82329"/><ellipse class="cq" cx="335.39242" cy="44.44908" rx="10.21383" ry="2.85303" transform="translate(220.04119 362.50236) rotate(-77.61469)"/><path class="cr" d="M333.20171,54.42522l-38.79849-8.52c-1.53906-.338-1.80566-5.07911-.59591-10.58808s3.43828-9.70216,4.97734-9.36419l38.79849,8.52c-1.53907-.338-3.76761,3.85524-4.97735,9.36419S331.66264,54.08725,333.20171,54.42522Z"/><line class="g" x1="306.83589" y1="48.6354" x2="293.37389" y2="37.6575"/><line class="g" x1="317.12499" y1="50.89484" x2="294.47192" y2="32.7467"/><line class="g" x1="326.98538" y1="53.06014" x2="296.02347" y2="28.73122"/><line class="g" x1="331.96786" y1="52.06262" x2="301.32318" y2="26.6715"/><line class="g" x1="332.09557" y1="46.16061" x2="311.18357" y2="28.8368"/><line class="g" x1="333.17486" y1="41.24569" x2="321.50642" y2="30.94257"/><line class="g" x1="335.20205" y1="37.33465" x2="331.33306" y2="33.26154"/><ellipse class="cs" cx="298.28662" cy="24.14441" rx="2.85303" ry="10.21383" transform="translate(16.57934 125.13386) rotate(-24.34993)"/><path class="ct" d="M302.49787,33.44968l-36.18936,16.3781c-1.43557.64969-4.485-2.99044-6.8105-8.12894s-3.04757-9.83189-1.612-10.48158l36.18937-16.3781c-1.43557.64968-.7135,5.34309,1.612,10.48157S301.06231,34.09937,302.49787,33.44968Z"/><line class="g" x1="277.9051" y1="44.57955" x2="260.55046" y2="43.83364"/><line class="g" x1="287.50228" y1="40.23618" x2="258.4932" y2="39.24133"/><line class="g" x1="296.69958" y1="36.07379" x2="257.33489" y2="35.09527"/><line class="g" x1="300.09594" y1="32.29426" x2="260.35017" y2="30.27475"/><line class="g" x1="296.66819" y1="27.48795" x2="269.54746" y2="26.11236"/><line class="g" x1="294.59344" y1="22.90355" x2="279.07977" y2="21.62566"/><line class="g" x1="293.87878" y1="18.55672" x2="288.34194" y2="17.60661"/><ellipse class="cu" cx="293.64727" cy="49.6237" rx="10.21383" ry="2.85303" transform="translate(170.93038 320.9755) rotate(-75.25732)"/><path class="cv" d="M291.04807,59.5013l-38.4152-10.10863c-1.52386-.401-1.59522-5.14909-.1599-10.60364s3.83444-9.55252,5.3583-9.15153l38.4152,10.10863c-1.52386-.401-3.923,3.697-5.3583,9.15153S289.52421,59.10031,291.04807,59.5013Z"/><line class="g" x1="264.94271" y1="52.6319" x2="251.94365" y2="41.10956"/><line class="g" x1="275.13017" y1="55.31264" x2="253.24274" y2="36.24808"/><line class="g" x1="284.89315" y1="57.88168" x2="254.95815" y2="32.29981"/><line class="g" x1="289.91244" y1="57.08994" x2="260.3381" y2="30.45983"/><line class="g" x1="290.28281" y1="51.19818" x2="270.10108" y2="33.02888"/><line class="g" x1="291.56335" y1="46.33182" x2="280.32857" y2="35.55747"/><line class="g" x1="293.74969" y1="42.50747" x2="290.05151" y2="38.27866"/><ellipse class="cw" cx="209.30827" cy="41.63872" rx="2.85303" ry="10.21383" transform="translate(1.45116 90.00356) rotate(-24.34993)"/><path class="cx" d="M213.51953,50.944,177.33016,67.32209c-1.43556.64969-4.485-2.99044-6.81049-8.129s-3.04757-9.83189-1.612-10.48157L205.097,32.33346c-1.43556.64969-.71349,5.3431,1.612,10.48158S212.084,51.59367,213.51953,50.944Z"/><line class="g" x1="188.92676" y1="62.07385" x2="171.57212" y2="61.32794"/><line class="g" x1="198.52394" y1="57.73049" x2="169.51485" y2="56.73563"/><line class="g" x1="207.72123" y1="53.5681" x2="168.35655" y2="52.58958"/><line class="g" x1="211.1176" y1="49.78857" x2="171.37182" y2="47.76906"/><line class="g" x1="207.68985" y1="44.98226" x2="180.56912" y2="43.60667"/><line class="g" x1="205.6151" y1="40.39786" x2="190.10143" y2="39.11997"/><line class="g" x1="204.90044" y1="36.05103" x2="199.3636" y2="35.10091"/><ellipse class="cy" cx="262.51541" cy="55.87916" rx="10.21383" ry="2.85303" transform="translate(73.24468 246.17738) rotate(-57.17176)"/><path class="cz" d="M256.97825,64.46185l-33.37917-21.5347c-1.32409-.85424.08206-5.3899,3.13976-10.12939s6.61045-7.89022,7.93454-7.036l33.37917,21.5347c-1.32409-.85424-4.87686,2.29652-7.93454,7.036S255.65416,63.60761,256.97825,64.46185Z"/><line class="g" x1="234.29517" y1="49.82777" x2="225.51529" y2="34.83932"/><line class="g" x1="243.1471" y1="55.53863" x2="228.25939" y2="30.62132"/><line class="g" x1="251.63021" y1="61.01154" x2="231.11574" y2="27.40064"/><line class="g" x1="256.6473" y1="61.81709" x2="236.80108" y2="27.3217"/><line class="g" x1="258.82839" y1="56.3314" x2="245.28418" y2="32.79461"/><line class="g" x1="261.55637" y1="52.10299" x2="254.22141" y2="38.37326"/><line class="g" x1="264.82191" y1="49.14631" x2="262.61922" y2="43.97837"/><ellipse class="da" cx="241.61457" cy="35.23757" rx="2.85303" ry="10.21383" transform="translate(6.96424 102.7543) rotate(-24.34993)"/><path class="db" d="M245.82582,44.54283,209.63646,60.92094c-1.43557.64969-4.485-2.99044-6.8105-8.129s-3.04757-9.83188-1.612-10.48157l36.18937-16.37811c-1.43557.64969-.7135,5.3431,1.612,10.48158S244.39026,45.19252,245.82582,44.54283Z"/><line class="g" x1="221.23305" y1="55.67271" x2="203.87841" y2="54.9268"/><line class="g" x1="230.83023" y1="51.32934" x2="201.82115" y2="50.33448"/><line class="g" x1="240.02753" y1="47.16695" x2="200.66284" y2="46.18843"/><line class="g" x1="243.42389" y1="43.38742" x2="203.67812" y2="41.36791"/><line class="g" x1="239.99614" y1="38.58111" x2="212.87541" y2="37.20552"/><line class="g" x1="237.92139" y1="33.99671" x2="222.40773" y2="32.71882"/><line class="g" x1="237.20673" y1="29.64988" x2="231.66989" y2="28.69976"/><ellipse class="dc" cx="254.89575" cy="21.65164" rx="2.85303" ry="10.21383" transform="translate(13.74727 107.0217) rotate(-24.34993)"/><path class="dd" d="M259.107,30.9569,222.91764,47.335c-1.43556.64968-4.485-2.99044-6.81049-8.12895s-3.04758-9.83189-1.612-10.48158l36.18936-16.3781c-1.43556.64969-.71349,5.3431,1.612,10.48158S257.67144,31.60659,259.107,30.9569Z"/><line class="g" x1="234.51423" y1="42.08677" x2="217.1596" y2="41.34086"/><line class="g" x1="244.11141" y1="37.74341" x2="215.10233" y2="36.74855"/><line class="g" x1="253.30871" y1="33.58102" x2="213.94402" y2="32.6025"/><line class="g" x1="256.70507" y1="29.80149" x2="216.9593" y2="27.78198"/><line class="g" x1="253.27732" y1="24.99518" x2="226.1566" y2="23.61959"/><line class="g" x1="251.20258" y1="20.41078" x2="235.68891" y2="19.13289"/><line class="g" x1="250.48792" y1="16.06395" x2="244.95107" y2="15.11383"/><ellipse class="de" cx="141.29151" cy="30.70207" rx="2.85303" ry="10.21383" transform="matrix(0.85954, -0.51107, 0.51107, 0.85954, 4.15507, 76.52243)"/><path class="df" d="M136.07151,21.92287,170.21492,1.62163c1.3544-.80531,4.78973,2.4731,7.67229,7.3211s4.1221,9.432,2.7677,10.23728L146.5115,39.48125c1.35441-.80531.11485-5.3893-2.7677-10.23728S137.42592,21.11756,136.07151,21.92287Z"/><line class="g" x1="159.27394" y1="8.127" x2="176.60387" y2="6.93822"/><line class="g" x1="150.21933" y1="13.51076" x2="179.1591" y2="11.27325"/><line class="g" x1="141.542" y1="18.67019" x2="180.77132" y2="15.26476"/><line class="g" x1="138.58704" y1="22.804" x2="178.31085" y2="20.39072"/><line class="g" x1="142.52805" y1="27.19927" x2="169.63352" y2="25.55015"/><line class="g" x1="145.09977" y1="31.5245" x2="160.65932" y2="31.06913"/><line class="g" x1="146.29343" y1="35.76489" x2="151.90159" y2="36.09334"/><ellipse class="dg" cx="173.54201" cy="36.25794" rx="2.85303" ry="10.21383" transform="translate(0.48809 74.77818) rotate(-24.34993)"/><path class="dh" d="M177.75326,45.56321,141.5639,61.94131c-1.43556.64969-4.485-2.99044-6.81049-8.12894s-3.04758-9.83189-1.612-10.48158l36.18936-16.3781c-1.43557.64969-.7135,5.3431,1.612,10.48158S176.3177,46.2129,177.75326,45.56321Z"/><line class="g" x1="153.16049" y1="56.69308" x2="135.80585" y2="55.94717"/><line class="g" x1="162.75767" y1="52.34972" x2="133.74859" y2="51.35486"/><line class="g" x1="171.95497" y1="48.18733" x2="132.59028" y2="47.20881"/><line class="g" x1="175.35133" y1="44.40779" x2="135.60556" y2="42.38829"/><line class="g" x1="171.92358" y1="39.60149" x2="144.80286" y2="38.2259"/><line class="g" x1="169.84883" y1="35.01709" x2="154.33517" y2="33.7392"/><line class="g" x1="169.13418" y1="30.67025" x2="163.59733" y2="29.72014"/><ellipse class="di" cx="134.02163" cy="14.74377" rx="2.85303" ry="10.21383" transform="translate(5.843 56.56979) rotate(-24.34993)"/><path class="dj" d="M138.23288,24.049l-36.18936,16.3781c-1.43556.64969-4.485-2.99044-6.81049-8.12894s-3.04758-9.83189-1.612-10.48158l36.18936-16.3781c-1.43556.64969-.71349,5.3431,1.612,10.48158S136.79732,24.69873,138.23288,24.049Z"/><line class="g" x1="113.64011" y1="35.17891" x2="96.28548" y2="34.433"/><line class="g" x1="123.23729" y1="30.83555" x2="94.22821" y2="29.84069"/><line class="g" x1="132.43459" y1="26.67316" x2="93.0699" y2="25.69464"/><line class="g" x1="135.83095" y1="22.89362" x2="96.08518" y2="20.87412"/><line class="g" x1="132.4032" y1="18.08732" x2="105.28248" y2="16.71173"/><line class="g" x1="130.32846" y1="13.50292" x2="114.81479" y2="12.22503"/><line class="g" x1="129.6138" y1="9.15608" x2="124.07695" y2="8.20597"/><ellipse class="dk" cx="112.15551" cy="60.03521" rx="2.85303" ry="10.21383" transform="translate(1.20845 122.27536) rotate(-57.45147)"/><path class="dl" d="M103.54589,54.54l21.37149-33.4839c.84777-1.32824,5.39024.05575,10.14459,3.09028s7.9224,6.57185,7.07464,7.9001l-21.3715,33.4839c.84777-1.32825-2.32029-4.86559-7.07463-7.9001S104.39365,53.21178,103.54589,54.54Z"/><line class="g" x1="118.06906" y1="31.78577" x2="133.01446" y2="22.93283"/><line class="g" x1="112.40148" y1="40.66548" x2="137.24582" y2="25.6563"/><line class="g" x1="106.97005" y1="49.1752" x2="140.4804" y2="28.49689"/><line class="g" x1="106.189" y1="54.19617" x2="140.58709" y2="34.18178"/><line class="g" x1="111.68528" y1="56.35045" x2="135.15566" y2="42.6915"/><line class="g" x1="115.92695" y1="59.05775" x2="129.6207" y2="51.65585"/><line class="g" x1="118.89954" y1="62.30882" x2="124.05666" y2="60.08093"/><ellipse class="dm" cx="105.02708" cy="35.06668" rx="2.85303" ry="10.21383" transform="translate(-5.11553 46.42293) rotate(-24.34993)"/><path class="dn" d="M109.23833,44.37194,73.049,60.75005c-1.43556.64969-4.485-2.99044-6.81049-8.129s-3.04758-9.83188-1.612-10.48157l36.18936-16.37811c-1.43556.64969-.71349,5.3431,1.612,10.48158S107.80277,45.02163,109.23833,44.37194Z"/><line class="g" x1="84.64556" y1="55.50182" x2="67.29093" y2="54.75591"/><line class="g" x1="94.24274" y1="51.15845" x2="65.23366" y2="50.1636"/><line class="g" x1="103.44004" y1="46.99606" x2="64.07535" y2="46.01754"/><line class="g" x1="106.8364" y1="43.21653" x2="67.09063" y2="41.19702"/><line class="g" x1="103.40865" y1="38.41022" x2="76.28793" y2="37.03463"/><line class="g" x1="101.33391" y1="33.82582" x2="85.82024" y2="32.54793"/><line class="g" x1="100.61925" y1="29.47899" x2="95.0824" y2="28.52887"/></svg>