<svg xmlns="http://www.w3.org/2000/svg" xmlns:xlink="http://www.w3.org/1999/xlink" viewBox="0 0 289.03826 68.89714"><defs><style>.a,.aa,.ab,.ac,.b,.c,.d,.e,.f,.g,.h,.i,.j,.k,.l,.m,.n,.o,.p,.q,.r,.s,.t,.u,.v,.w,.x,.y,.z{stroke:#c49a6c;stroke-miterlimit:10;stroke-width:3px;}.a{fill:url(#a);}.b{fill:url(#b);}.c{fill:#d3bf9f;}.d{fill:url(#c);}.e{fill:url(#d);}.f{fill:url(#e);}.g{fill:url(#f);}.h{fill:url(#g);}.i{fill:url(#h);}.j{fill:url(#i);}.k{fill:url(#j);}.l{fill:url(#k);}.m{fill:url(#l);}.n{fill:url(#m);}.o{fill:url(#n);}.p{fill:url(#o);}.q{fill:url(#p);}.r{fill:url(#q);}.s{fill:url(#r);}.t{fill:url(#s);}.u{fill:url(#t);}.v{fill:url(#u);}.w{fill:url(#v);}.x{fill:url(#w);}.y{fill:url(#x);}.z{fill:url(#y);}.aa{fill:url(#z);}.ab{fill:url(#aa);}.ac{fill:url(#ab);}</style><linearGradient id="a" x1="-621.42677" y1="295.19342" x2="-600.99909" y2="295.19342" gradientTransform="translate(-568.1215 347.58745) rotate(180)" gradientUnits="userSpaceOnUse"><stop offset="0" stop-color="#8c5f3c"/><stop offset="0.4949" stop-color="#a97c50"/><stop offset="1" stop-color="#8b5e3c"/></linearGradient><linearGradient id="b" x1="-621.42677" y1="316.48141" x2="-600.99909" y2="316.48141" gradientTransform="translate(97.72883 728.95531) rotate(111.16179)" gradientUnits="userSpaceOnUse"><stop offset="0" stop-color="#a97c50"/><stop offset="0.58163" stop-color="#d3bf9f"/><stop offset="1" stop-color="#c49a6c"/></linearGradient><linearGradient id="c" x1="-396.9969" y1="-130.94292" x2="-376.56922" y2="-130.94292" gradientTransform="translate(35.42005 404.14416) rotate(90)" xlink:href="#a"/><linearGradient id="d" x1="-396.9969" y1="-109.65494" x2="-376.56922" y2="-109.65494" gradientTransform="matrix(0.41231, 0.91104, -0.91104, 0.41231, 206.54208, 423.72649)" xlink:href="#b"/><linearGradient id="e" x1="-452.25537" y1="20.66065" x2="-431.82769" y2="20.66065" gradientTransform="translate(-158.04803 65.10973) rotate(180)" xlink:href="#a"/><linearGradient id="f" x1="-452.25537" y1="41.94864" x2="-431.82769" y2="41.94864" gradientTransform="translate(209.36209 480.63451) rotate(102.38531)" xlink:href="#b"/><linearGradient id="g" x1="-357.61598" y1="-201.5077" x2="-337.1883" y2="-201.5077" gradientTransform="translate(45.38 371.54655) rotate(90)" xlink:href="#a"/><linearGradient id="h" x1="-357.61598" y1="-180.21972" x2="-337.1883" y2="-180.21972" gradientTransform="matrix(0.41231, 0.91104, -0.91104, 0.41231, 206.54208, 423.72649)" xlink:href="#b"/><linearGradient id="i" x1="-483.83318" y1="60.61465" x2="-463.4055" y2="60.61465" gradientTransform="translate(-231.371 110.23835) rotate(180)" xlink:href="#a"/><linearGradient id="j" x1="-483.83318" y1="81.90263" x2="-463.4055" y2="81.90263" gradientTransform="matrix(-0.25448, 0.96708, -0.96708, -0.25448, 180.3416, 523.0759)" xlink:href="#b"/><linearGradient id="k" x1="-378.36441" y1="-113.23144" x2="-357.93673" y2="-113.23144" gradientTransform="translate(44.67792 409.78929) rotate(90)" xlink:href="#a"/><linearGradient id="l" x1="-378.36441" y1="-91.94345" x2="-357.93673" y2="-91.94345" gradientTransform="matrix(0.41231, 0.91104, -0.91104, 0.41231, 206.54208, 423.72649)" xlink:href="#b"/><linearGradient id="m" x1="-455.85209" y1="249.70651" x2="-435.42442" y2="249.70651" gradientTransform="translate(-234.52177 305.58567) rotate(180)" xlink:href="#a"/><linearGradient id="n" x1="-455.85209" y1="270.99449" x2="-435.42442" y2="270.99449" gradientTransform="translate(179.35424 565.72027) rotate(122.82824)" xlink:href="#b"/><linearGradient id="o" x1="-370.87598" y1="-145.30315" x2="-350.4483" y2="-145.30315" gradientTransform="translate(44.9125 395.89972) rotate(90)" xlink:href="#a"/><linearGradient id="p" x1="-370.87598" y1="-124.01517" x2="-350.4483" y2="-124.01517" gradientTransform="matrix(0.41231, 0.91104, -0.91104, 0.41231, 206.54208, 423.72649)" xlink:href="#b"/><linearGradient id="q" x1="-377.77742" y1="-163.00449" x2="-357.34975" y2="-163.00449" gradientTransform="translate(40.49234 389.21523) rotate(90)" xlink:href="#a"/><linearGradient id="r" x1="-377.77742" y1="-141.71651" x2="-357.34975" y2="-141.71651" gradientTransform="matrix(0.41231, 0.91104, -0.91104, 0.41231, 206.54208, 423.72649)" xlink:href="#b"/><linearGradient id="s" x1="133.13444" y1="641.13908" x2="153.56212" y2="641.13908" gradientTransform="translate(-551.24649 174.05034) rotate(-90)" xlink:href="#a"/><linearGradient id="t" x1="133.13444" y1="662.42707" x2="153.56212" y2="662.42707" gradientTransform="translate(-387.93005 481.58295) rotate(-120.73519)" xlink:href="#b"/><linearGradient id="u" x1="-398.01326" y1="-82.86532" x2="-377.58558" y2="-82.86532" gradientTransform="translate(39.27777 424.05737) rotate(90)" xlink:href="#a"/><linearGradient id="v" x1="-398.01326" y1="-61.57734" x2="-377.58558" y2="-61.57734" gradientTransform="matrix(0.41231, 0.91104, -0.91104, 0.41231, 206.54208, 423.72649)" xlink:href="#b"/><linearGradient id="w" x1="-433.90821" y1="-55.73098" x2="-413.48053" y2="-55.73098" gradientTransform="translate(26.89173 438.43815) rotate(90)" xlink:href="#a"/><linearGradient id="x" x1="-433.90821" y1="-34.44299" x2="-413.48053" y2="-34.44299" gradientTransform="matrix(0.41231, 0.91104, -0.91104, 0.41231, 206.54208, 423.72649)" xlink:href="#b"/><linearGradient id="y" x1="-138.98817" y1="816.11923" x2="-118.56049" y2="816.11923" gradientTransform="translate(-755.36264 -68.73912) rotate(-90)" xlink:href="#a"/><linearGradient id="z" x1="-138.98817" y1="837.40721" x2="-118.56049" y2="837.40721" gradientTransform="translate(-486.87534 678.68915) rotate(-147.45147)" xlink:href="#b"/><linearGradient id="aa" x1="-427.34784" y1="-20.93636" x2="-406.92016" y2="-20.93636" gradientTransform="translate(32.69181 452.20068) rotate(90)" xlink:href="#a"/><linearGradient id="ab" x1="-427.34784" y1="0.35163" x2="-406.92016" y2="0.35163" gradientTransform="matrix(0.41231, 0.91104, -0.91104, 0.41231, 206.54208, 423.72649)" xlink:href="#b"/></defs><ellipse class="a" cx="43.09143" cy="52.39403" rx="10.21383" ry="2.85303" transform="translate(-21.32552 73.66519) rotate(-68.83821)"/><path class="b" d="M39.40421,61.9191,2.36,47.579c-1.46948-.56885-1.00955-5.29515,1.02659-10.555S8.265,27.96,9.73444,28.52887L46.77866,42.869c-1.46948-.56885-4.31173,3.23524-6.34786,8.4951S37.93473,61.35026,39.40421,61.9191Z"/><line class="c" x1="14.23051" y1="52.17418" x2="2.60115" y2="39.27078"/><line class="c" x1="24.05439" y1="55.97707" x2="4.43562" y2="34.58501"/><line class="c" x1="33.46894" y1="59.62152" x2="6.58169" y2="30.85328"/><line class="c" x1="38.54529" y1="59.3959" x2="12.13361" y2="29.62632"/><line class="c" x1="39.57204" y1="53.58249" x2="21.54816" y2="33.27076"/><line class="c" x1="41.38861" y1="48.88979" x2="31.42884" y2="36.92694"/><line class="c" x1="43.98881" y1="45.33386" x2="40.7866" y2="40.7181"/><ellipse class="d" cx="166.36297" cy="17.3611" rx="2.85303" ry="10.21383" transform="translate(7.6408 70.13722) rotate(-24.34993)"/><path class="e" d="M170.57422,26.66636,134.38486,43.04447c-1.43556.64969-4.485-2.99044-6.81049-8.12895s-3.04758-9.83189-1.612-10.48157L162.15172,8.05584c-1.43556.64969-.71349,5.3431,1.612,10.48158S169.13866,27.31605,170.57422,26.66636Z"/><line class="c" x1="145.98145" y1="37.79623" x2="128.62682" y2="37.05032"/><line class="c" x1="155.57863" y1="33.45287" x2="126.56955" y2="32.45801"/><line class="c" x1="164.77593" y1="29.29048" x2="125.41124" y2="28.31196"/><line class="c" x1="168.17229" y1="25.51095" x2="128.42652" y2="23.49144"/><line class="c" x1="164.74454" y1="20.70464" x2="137.62382" y2="19.32905"/><line class="c" x1="162.6698" y1="16.12024" x2="147.15613" y2="14.84235"/><line class="c" x1="161.95514" y1="11.77341" x2="156.41829" y2="10.82329"/><ellipse class="f" cx="283.99351" cy="44.44908" rx="10.21383" ry="2.85303" transform="translate(179.66656 312.29963) rotate(-77.61469)"/><path class="g" d="M281.80279,54.42522l-38.79848-8.52c-1.53907-.338-1.80566-5.07911-.59592-10.58808s3.43828-9.70216,4.97735-9.36419l38.79848,8.52c-1.53906-.338-3.7676,3.85524-4.97734,9.36419S280.26373,54.08725,281.80279,54.42522Z"/><line class="c" x1="255.43697" y1="48.6354" x2="241.97497" y2="37.6575"/><line class="c" x1="265.72607" y1="50.89484" x2="243.073" y2="32.7467"/><line class="c" x1="275.58646" y1="53.06014" x2="244.62456" y2="28.73122"/><line class="c" x1="280.56894" y1="52.06262" x2="249.92427" y2="26.6715"/><line class="c" x1="280.69665" y1="46.16061" x2="259.78465" y2="28.8368"/><line class="c" x1="281.77595" y1="41.24569" x2="270.1075" y2="30.94257"/><line class="c" x1="283.80313" y1="37.33465" x2="279.93414" y2="33.26154"/><ellipse class="h" cx="246.8877" cy="24.14441" rx="2.85303" ry="10.21383" transform="translate(12.00712 103.94166) rotate(-24.34993)"/><path class="i" d="M251.099,33.44968l-36.18936,16.3781c-1.43556.64969-4.485-2.99044-6.81049-8.12894s-3.04758-9.83189-1.612-10.48158l36.18936-16.3781c-1.43556.64968-.7135,5.34309,1.612,10.48157S249.66339,34.09937,251.099,33.44968Z"/><line class="c" x1="226.50618" y1="44.57955" x2="209.15155" y2="43.83364"/><line class="c" x1="236.10336" y1="40.23618" x2="207.09428" y2="39.24133"/><line class="c" x1="245.30066" y1="36.07379" x2="205.93597" y2="35.09527"/><line class="c" x1="248.69702" y1="32.29426" x2="208.95125" y2="30.27475"/><line class="c" x1="245.26927" y1="27.48795" x2="218.14855" y2="26.11236"/><line class="c" x1="243.19453" y1="22.90355" x2="227.68086" y2="21.62566"/><line class="c" x1="242.47987" y1="18.55672" x2="236.94302" y2="17.60661"/><ellipse class="j" cx="242.24836" cy="49.6237" rx="10.21383" ry="2.85303" transform="matrix(0.25448, -0.96708, 0.96708, 0.25448, 132.61138, 271.26872)"/><path class="k" d="M239.64915,59.5013,201.234,49.39267c-1.52386-.401-1.59522-5.14909-.1599-10.60364s3.83444-9.55252,5.3583-9.15153l38.41521,10.10863c-1.52386-.401-3.923,3.697-5.35831,9.15153S238.12529,59.10031,239.64915,59.5013Z"/><line class="c" x1="213.54379" y1="52.6319" x2="200.54473" y2="41.10956"/><line class="c" x1="223.73125" y1="55.31264" x2="201.84383" y2="36.24808"/><line class="c" x1="233.49423" y1="57.88168" x2="203.55923" y2="32.29981"/><line class="c" x1="238.51352" y1="57.08994" x2="208.93918" y2="30.45983"/><line class="c" x1="238.88389" y1="51.19818" x2="218.70216" y2="33.02888"/><line class="c" x1="240.16443" y1="46.33182" x2="228.92965" y2="35.55747"/><line class="c" x1="242.35078" y1="42.50747" x2="238.6526" y2="38.27866"/><ellipse class="l" cx="157.90936" cy="41.63872" rx="2.85303" ry="10.21383" transform="translate(-3.12106 68.81136) rotate(-24.34993)"/><path class="m" d="M162.12061,50.944,125.93125,67.32209c-1.43557.64969-4.485-2.99044-6.8105-8.129s-3.04757-9.83189-1.612-10.48157l36.18937-16.37811c-1.43557.64969-.7135,5.3431,1.612,10.48158S160.68505,51.59367,162.12061,50.944Z"/><line class="c" x1="137.52784" y1="62.07385" x2="120.1732" y2="61.32794"/><line class="c" x1="147.12502" y1="57.73049" x2="118.11593" y2="56.73563"/><line class="c" x1="156.32231" y1="53.5681" x2="116.95763" y2="52.58958"/><line class="c" x1="159.71868" y1="49.78857" x2="119.97291" y2="47.76906"/><line class="c" x1="156.29093" y1="44.98226" x2="129.1702" y2="43.60667"/><line class="c" x1="154.21618" y1="40.39786" x2="138.70251" y2="39.11997"/><line class="c" x1="153.50152" y1="36.05103" x2="147.96468" y2="35.10091"/><ellipse class="n" cx="211.11649" cy="55.87916" rx="10.21383" ry="2.85303" transform="translate(49.71027 202.98689) rotate(-57.17176)"/><path class="o" d="M205.57933,64.46185l-33.37917-21.5347c-1.32409-.85424.08207-5.3899,3.13976-10.12939s6.61046-7.89022,7.93455-7.036l33.37917,21.5347c-1.32409-.85424-4.87686,2.29652-7.93455,7.036S204.25524,63.60761,205.57933,64.46185Z"/><line class="c" x1="182.89625" y1="49.82777" x2="174.11638" y2="34.83932"/><line class="c" x1="191.74819" y1="55.53863" x2="176.86048" y2="30.62132"/><line class="c" x1="200.23129" y1="61.01154" x2="179.71682" y2="27.40064"/><line class="c" x1="205.24838" y1="61.81709" x2="185.40216" y2="27.3217"/><line class="c" x1="207.42947" y1="56.3314" x2="193.88526" y2="32.79461"/><line class="c" x1="210.15745" y1="52.10299" x2="202.82249" y2="38.37326"/><line class="c" x1="213.42299" y1="49.14631" x2="211.2203" y2="43.97837"/><ellipse class="p" cx="190.21565" cy="35.23757" rx="2.85303" ry="10.21383" transform="translate(2.39202 81.56209) rotate(-24.34993)"/><path class="q" d="M194.4269,44.54283,158.23754,60.92094c-1.43556.64969-4.485-2.99044-6.81049-8.129s-3.04758-9.83188-1.612-10.48157L186.0044,25.93231c-1.43556.64969-.71349,5.3431,1.612,10.48158S192.99134,45.19252,194.4269,44.54283Z"/><line class="c" x1="169.83413" y1="55.67271" x2="152.4795" y2="54.9268"/><line class="c" x1="179.43131" y1="51.32934" x2="150.42223" y2="50.33448"/><line class="c" x1="188.62861" y1="47.16695" x2="149.26392" y2="46.18843"/><line class="c" x1="192.02497" y1="43.38742" x2="152.2792" y2="41.36791"/><line class="c" x1="188.59722" y1="38.58111" x2="161.4765" y2="37.20552"/><line class="c" x1="186.52248" y1="33.99671" x2="171.00881" y2="32.71882"/><line class="c" x1="185.80782" y1="29.64988" x2="180.27097" y2="28.69976"/><ellipse class="r" cx="203.49683" cy="21.65164" rx="2.85303" ry="10.21383" transform="translate(9.17505 85.82949) rotate(-24.34993)"/><path class="s" d="M207.70809,30.9569,171.51872,47.335c-1.43556.64968-4.485-2.99044-6.81049-8.12895s-3.04757-9.83189-1.612-10.48158l36.18936-16.3781c-1.43556.64969-.71349,5.3431,1.612,10.48158S206.27252,31.60659,207.70809,30.9569Z"/><line class="c" x1="183.11532" y1="42.08677" x2="165.76068" y2="41.34086"/><line class="c" x1="192.71249" y1="37.74341" x2="163.70341" y2="36.74855"/><line class="c" x1="201.90979" y1="33.58102" x2="162.5451" y2="32.6025"/><line class="c" x1="205.30615" y1="29.80149" x2="165.56038" y2="27.78198"/><line class="c" x1="201.87841" y1="24.99518" x2="174.75768" y2="23.61959"/><line class="c" x1="199.80366" y1="20.41078" x2="184.28999" y2="19.13289"/><line class="c" x1="199.089" y1="16.06395" x2="193.55216" y2="15.11383"/><ellipse class="t" cx="89.89259" cy="30.70207" rx="2.85303" ry="10.21383" transform="translate(-3.06449 50.25394) rotate(-30.73519)"/><path class="u" d="M84.6726,21.92287,118.816,1.62163c1.3544-.80531,4.78973,2.4731,7.67229,7.3211s4.1221,9.432,2.7677,10.23728L95.11259,39.48125c1.3544-.80531.11484-5.3893-2.7677-10.23728S86.027,21.11756,84.6726,21.92287Z"/><line class="c" x1="107.87502" y1="8.127" x2="125.20495" y2="6.93822"/><line class="c" x1="98.82041" y1="13.51076" x2="127.76018" y2="11.27325"/><line class="c" x1="90.14309" y1="18.67019" x2="129.3724" y2="15.26476"/><line class="c" x1="87.18813" y1="22.804" x2="126.91193" y2="20.39072"/><line class="c" x1="91.12913" y1="27.19927" x2="118.2346" y2="25.55015"/><line class="c" x1="93.70086" y1="31.5245" x2="109.26041" y2="31.06913"/><line class="c" x1="94.89451" y1="35.76489" x2="100.50267" y2="36.09334"/><ellipse class="v" cx="122.14309" cy="36.25794" rx="2.85303" ry="10.21383" transform="translate(-4.08414 53.58597) rotate(-24.34993)"/><path class="w" d="M126.35435,45.56321,90.165,61.94131c-1.43556.64969-4.485-2.99044-6.81049-8.12894s-3.04758-9.83189-1.612-10.48158l36.18936-16.3781c-1.43556.64969-.71349,5.3431,1.612,10.48158S124.91878,46.2129,126.35435,45.56321Z"/><line class="c" x1="101.76157" y1="56.69308" x2="84.40694" y2="55.94717"/><line class="c" x1="111.35875" y1="52.34972" x2="82.34967" y2="51.35486"/><line class="c" x1="120.55605" y1="48.18733" x2="81.19136" y2="47.20881"/><line class="c" x1="123.95241" y1="44.40779" x2="84.20664" y2="42.38829"/><line class="c" x1="120.52466" y1="39.60149" x2="93.40394" y2="38.2259"/><line class="c" x1="118.44992" y1="35.01709" x2="102.93625" y2="33.7392"/><line class="c" x1="117.73526" y1="30.67025" x2="112.19841" y2="29.72014"/><ellipse class="x" cx="82.62271" cy="14.74377" rx="2.85303" ry="10.21383" transform="translate(1.27078 35.37758) rotate(-24.34993)"/><path class="y" d="M86.834,24.049,50.6446,40.42714c-1.43556.64969-4.485-2.99044-6.81049-8.12894s-3.04757-9.83189-1.612-10.48158L78.41146,5.43852c-1.43556.64969-.71349,5.3431,1.612,10.48158S85.3984,24.69873,86.834,24.049Z"/><line class="c" x1="62.2412" y1="35.17891" x2="44.88656" y2="34.433"/><line class="c" x1="71.83838" y1="30.83555" x2="42.82929" y2="29.84069"/><line class="c" x1="81.03567" y1="26.67316" x2="41.67099" y2="25.69464"/><line class="c" x1="84.43204" y1="22.89362" x2="44.68626" y2="20.87412"/><line class="c" x1="81.00429" y1="18.08732" x2="53.88356" y2="16.71173"/><line class="c" x1="78.92954" y1="13.50292" x2="63.41587" y2="12.22503"/><line class="c" x1="78.21488" y1="9.15608" x2="72.67804" y2="8.20597"/><ellipse class="z" cx="60.75659" cy="60.03521" rx="2.85303" ry="10.21383" transform="translate(-22.53714 78.94936) rotate(-57.45147)"/><path class="aa" d="M52.147,54.54l21.37149-33.4839c.84777-1.32824,5.39024.05575,10.1446,3.09028s7.9224,6.57185,7.07463,7.9001L69.3662,65.5304c.84776-1.32825-2.3203-4.86559-7.07464-7.9001S52.99474,53.21178,52.147,54.54Z"/><line class="c" x1="66.67014" y1="31.78577" x2="81.61555" y2="22.93283"/><line class="c" x1="61.00256" y1="40.66548" x2="85.8469" y2="25.6563"/><line class="c" x1="55.57113" y1="49.1752" x2="89.08148" y2="28.49689"/><line class="c" x1="54.79008" y1="54.19617" x2="89.18818" y2="34.18178"/><line class="c" x1="60.28636" y1="56.35045" x2="83.75675" y2="42.6915"/><line class="c" x1="64.52804" y1="59.05775" x2="78.22179" y2="51.65585"/><line class="c" x1="67.50062" y1="62.30882" x2="72.65774" y2="60.08093"/><ellipse class="ab" cx="53.62816" cy="35.06668" rx="2.85303" ry="10.21383" transform="translate(-9.68776 25.23072) rotate(-24.34993)"/><path class="ac" d="M57.83942,44.37194,21.65005,60.75005c-1.43556.64969-4.485-2.99044-6.81049-8.129s-3.04757-9.83188-1.612-10.48157L49.41691,25.76142c-1.43556.64969-.71349,5.3431,1.612,10.48158S56.40385,45.02163,57.83942,44.37194Z"/><line class="c" x1="33.24665" y1="55.50182" x2="15.89201" y2="54.75591"/><line class="c" x1="42.84383" y1="51.15845" x2="13.83474" y2="50.1636"/><line class="c" x1="52.04112" y1="46.99606" x2="12.67644" y2="46.01754"/><line class="c" x1="55.43749" y1="43.21653" x2="15.69171" y2="41.19702"/><line class="c" x1="52.00974" y1="38.41022" x2="24.88901" y2="37.03463"/><line class="c" x1="49.93499" y1="33.82582" x2="34.42132" y2="32.54793"/><line class="c" x1="49.22033" y1="29.47899" x2="43.68349" y2="28.52887"/></svg>