<svg xmlns="http://www.w3.org/2000/svg" xmlns:xlink="http://www.w3.org/1999/xlink" viewBox="0 0 313.99783 436.73282"><defs><style>.a{fill:none;}.aa,.ab,.ac,.ad,.ae,.af,.ag,.ah,.ai,.aj,.ak,.al,.am,.an,.ao,.ap,.aq,.ar,.as,.at,.au,.av,.aw,.ax,.ay,.az,.b,.ba,.bb,.bc,.bd,.be,.bf,.bg,.bh,.bi,.bj,.bk,.bl,.bm,.bn,.bo,.bp,.bq,.br,.bs,.bt,.bu,.bv,.bw,.bx,.by,.bz,.c,.ca,.cb,.cc,.cd,.ce,.cf,.cg,.ch,.cq,.ct,.cu,.cv,.cw,.cx,.cy,.cz,.d,.da,.db,.dc,.dd,.de,.e,.f,.g,.h,.i,.j,.k,.l,.m,.n,.o,.p,.q,.r,.s,.t,.u,.v,.w,.x,.y,.z{stroke:#c49a6c;}.aa,.ab,.ac,.ad,.ae,.af,.ag,.ah,.ai,.aj,.ak,.al,.am,.an,.ao,.ap,.aq,.ar,.as,.at,.au,.av,.aw,.ax,.ay,.az,.b,.ba,.bb,.bc,.bd,.be,.bf,.bg,.bh,.bi,.bj,.bk,.bl,.bm,.bn,.bo,.bp,.bq,.br,.bs,.bt,.bu,.bv,.bw,.bx,.by,.bz,.c,.ca,.cb,.cc,.cd,.ce,.cf,.cg,.ch,.ci,.cj,.ck,.cq,.ct,.cu,.cv,.cw,.cx,.cy,.cz,.d,.da,.db,.dc,.dd,.de,.e,.f,.g,.h,.i,.j,.k,.l,.m,.n,.o,.p,.q,.r,.s,.t,.u,.v,.w,.x,.y,.z{stroke-miterlimit:10;}.aa,.ab,.ac,.ad,.ae,.af,.ag,.ah,.ai,.aj,.ak,.al,.am,.an,.ao,.ap,.aq,.ar,.as,.at,.au,.av,.aw,.ax,.ay,.az,.b,.ba,.bb,.bc,.bd,.be,.bf,.bg,.bh,.bi,.bj,.bk,.bl,.bm,.bn,.bo,.bp,.bq,.br,.bs,.bt,.bu,.bv,.bw,.bx,.by,.bz,.c,.ca,.cb,.cc,.cd,.ce,.cf,.cg,.ch,.ct,.cu,.cv,.cw,.cx,.cy,.cz,.d,.da,.db,.dc,.dd,.de,.e,.f,.g,.h,.i,.j,.k,.l,.m,.n,.o,.p,.q,.r,.s,.t,.u,.v,.w,.x,.y,.z{stroke-width:3px;}.b{fill:url(#a);}.c{fill:url(#b);}.d{fill:#d3bf9f;}.e{fill:url(#c);}.f{fill:url(#d);}.g{fill:url(#e);}.h{fill:url(#f);}.i{fill:url(#g);}.j{fill:url(#h);}.k{fill:url(#i);}.l{fill:url(#j);}.m{fill:url(#k);}.n{fill:url(#l);}.o{fill:url(#m);}.p{fill:url(#n);}.q{fill:url(#o);}.r{fill:url(#p);}.s{fill:url(#q);}.t{fill:url(#r);}.u{fill:url(#s);}.v{fill:url(#t);}.w{fill:url(#u);}.x{fill:url(#v);}.y{fill:url(#w);}.z{fill:url(#x);}.aa{fill:url(#y);}.ab{fill:url(#z);}.ac{fill:url(#aa);}.ad{fill:url(#ab);}.ae{fill:url(#ac);}.af{fill:url(#ad);}.ag{fill:url(#ae);}.ah{fill:url(#af);}.ai{fill:url(#ag);}.aj{fill:url(#ah);}.ak{fill:url(#ai);}.al{fill:url(#aj);}.am{fill:url(#ak);}.an{fill:url(#al);}.ao{fill:url(#am);}.ap{fill:url(#an);}.aq{fill:url(#ao);}.ar{fill:url(#ap);}.as{fill:url(#aq);}.at{fill:url(#ar);}.au{fill:url(#as);}.av{fill:url(#at);}.aw{fill:url(#au);}.ax{fill:url(#av);}.ay{fill:url(#aw);}.az{fill:url(#ax);}.ba{fill:url(#ay);}.bb{fill:url(#az);}.bc{fill:url(#ba);}.bd{fill:url(#bb);}.be{fill:url(#bc);}.bf{fill:url(#bd);}.bg{fill:url(#be);}.bh{fill:url(#bf);}.bi{fill:url(#bg);}.bj{fill:url(#bh);}.bk{fill:url(#bi);}.bl{fill:url(#bj);}.bm{fill:url(#bk);}.bn{fill:url(#bl);}.bo{fill:url(#bm);}.bp{fill:url(#bn);}.bq{fill:url(#bo);}.br{fill:url(#bp);}.bs{fill:url(#bq);}.bt{fill:url(#br);}.bu{fill:url(#bs);}.bv{fill:url(#bt);}.bw{fill:url(#bu);}.bx{fill:url(#bv);}.by{fill:url(#bw);}.bz{fill:url(#bx);}.ca{fill:url(#by);}.cb{fill:url(#bz);}.cc{fill:url(#ca);}.cd{fill:url(#cb);}.ce{fill:url(#cc);}.cf{fill:url(#cd);}.cg{fill:url(#ce);}.ch{fill:url(#cf);}.ci,.cj,.ck{stroke:#231f20;}.ci{fill:url(#cg);}.cj{fill:url(#ch);}.ck{fill:url(#ci);}.cl{clip-path:url(#cj);}.cm{fill:#231f20;}.cn{fill:url(#ck);}.co{fill:#f1f2f2;}.cp,.cq{fill:#fff;}.cr{fill:url(#cl);}.cs{fill:url(#cm);}.ct{fill:url(#cn);}.cu{fill:url(#co);}.cv{fill:url(#cp);}.cw{fill:url(#cq);}.cx{fill:url(#cr);}.cy{fill:url(#cs);}.cz{fill:url(#ct);}.da{fill:url(#cu);}.db{fill:url(#cv);}.dc{fill:url(#cw);}.dd{fill:url(#cx);}.de{fill:url(#cy);}.df{clip-path:url(#cz);}.dg{fill:url(#da);}.dh{fill:url(#db);}</style><linearGradient id="a" x1="577.22101" y1="759.49896" x2="597.64869" y2="759.49896" gradientTransform="translate(631.80436 973.61953) rotate(180)" gradientUnits="userSpaceOnUse"><stop offset="0" stop-color="#8c5f3c"/><stop offset="0.4949" stop-color="#a97c50"/><stop offset="1" stop-color="#8b5e3c"/></linearGradient><linearGradient id="b" x1="577.22101" y1="780.78695" x2="597.64869" y2="780.78695" gradientTransform="translate(964.71709 -59.51919) rotate(111.16179)" gradientUnits="userSpaceOnUse"><stop offset="0" stop-color="#a97c50"/><stop offset="0.58163" stop-color="#d3bf9f"/><stop offset="1" stop-color="#c49a6c"/></linearGradient><linearGradient id="c" x1="252.94418" y1="518.48267" x2="273.37186" y2="518.48267" gradientTransform="translate(686.12373 -84.07037) rotate(90)" xlink:href="#a"/><linearGradient id="d" x1="252.94418" y1="539.77066" x2="273.37186" y2="539.77066" gradientTransform="matrix(0.41231, 0.91104, -0.91104, 0.41231, 531.49949, -274.43574)" xlink:href="#b"/><linearGradient id="e" x1="654.9208" y1="553.92187" x2="675.34848" y2="553.92187" gradientTransform="translate(950.40623 760.0975) rotate(180)" xlink:href="#a"/><linearGradient id="f" x1="654.9208" y1="575.20986" x2="675.34848" y2="575.20986" gradientTransform="translate(968.96355 -324.67165) rotate(102.38531)" xlink:href="#b"/><linearGradient id="g" x1="292.3251" y1="447.91789" x2="312.75278" y2="447.91789" gradientTransform="translate(696.08368 -116.66798) rotate(90)" xlink:href="#a"/><linearGradient id="h" x1="292.3251" y1="469.20588" x2="312.75278" y2="469.20588" gradientTransform="matrix(0.41231, 0.91104, -0.91104, 0.41231, 531.49949, -274.43574)" xlink:href="#b"/><linearGradient id="i" x1="648.93396" y1="576.74345" x2="669.36164" y2="576.74345" gradientTransform="translate(902.67424 788.0937) rotate(180)" xlink:href="#a"/><linearGradient id="j" x1="648.93396" y1="598.03143" x2="669.36164" y2="598.03143" gradientTransform="matrix(-0.25448, 0.96708, -0.96708, -0.25448, 969.02146, -279.32866)" xlink:href="#b"/><linearGradient id="k" x1="271.57667" y1="536.19415" x2="292.00435" y2="536.19415" gradientTransform="translate(695.3816 -78.42524) rotate(90)" xlink:href="#a"/><linearGradient id="l" x1="271.57667" y1="557.48214" x2="292.00435" y2="557.48214" gradientTransform="matrix(0.41231, 0.91104, -0.91104, 0.41231, 531.49949, -274.43574)" xlink:href="#b"/><linearGradient id="m" x1="846.11449" y1="602.31201" x2="866.54217" y2="602.31201" gradientTransform="translate(1068.7229 819.91772) rotate(180)" xlink:href="#a"/><linearGradient id="n" x1="846.11449" y1="623.6" x2="866.54217" y2="623.6" gradientTransform="translate(1182.75186 -175.43969) rotate(122.82824)" xlink:href="#b"/><linearGradient id="o" x1="279.0651" y1="504.12244" x2="299.49278" y2="504.12244" gradientTransform="translate(695.61618 -92.31482) rotate(90)" xlink:href="#a"/><linearGradient id="p" x1="279.0651" y1="525.41043" x2="299.49278" y2="525.41043" gradientTransform="matrix(0.41231, 0.91104, -0.91104, 0.41231, 531.49949, -274.43574)" xlink:href="#b"/><linearGradient id="q" x1="272.16366" y1="486.4211" x2="292.59134" y2="486.4211" gradientTransform="translate(691.19602 -98.99931) rotate(90)" xlink:href="#a"/><linearGradient id="r" x1="272.16366" y1="507.70909" x2="292.59134" y2="507.70909" gradientTransform="matrix(0.41231, 0.91104, -0.91104, 0.41231, 531.49949, -274.43574)" xlink:href="#b"/><linearGradient id="s" x1="973.1498" y1="-192.0948" x2="993.57748" y2="-192.0948" gradientTransform="translate(283.26548 1175.79225) rotate(-90)" xlink:href="#a"/><linearGradient id="t" x1="973.1498" y1="-170.80681" x2="993.57748" y2="-170.80681" gradientTransform="translate(758.85209 939.49353) rotate(-120.73519)" xlink:href="#b"/><linearGradient id="u" x1="251.92782" y1="566.56027" x2="272.3555" y2="566.56027" gradientTransform="translate(689.98145 -64.15716) rotate(90)" xlink:href="#a"/><linearGradient id="v" x1="251.92782" y1="587.84826" x2="272.3555" y2="587.84826" gradientTransform="matrix(0.41231, 0.91104, -0.91104, 0.41231, 531.49949, -274.43574)" xlink:href="#b"/><linearGradient id="w" x1="216.03287" y1="593.69461" x2="236.46055" y2="593.69461" gradientTransform="translate(677.59541 -49.77638) rotate(90)" xlink:href="#a"/><linearGradient id="x" x1="216.03287" y1="614.9826" x2="236.46055" y2="614.9826" gradientTransform="matrix(0.41231, 0.91104, -0.91104, 0.41231, 531.49949, -274.43574)" xlink:href="#b"/><linearGradient id="y" x1="1017.36536" y1="122.7775" x2="1037.79304" y2="122.7775" gradientTransform="translate(-60.74283 1249.34095) rotate(-90)" xlink:href="#a"/><linearGradient id="z" x1="1017.36536" y1="144.06549" x2="1037.79304" y2="144.06549" gradientTransform="translate(862.16221 878.10713) rotate(-147.45147)" xlink:href="#b"/><linearGradient id="aa" x1="222.59324" y1="628.48924" x2="243.02092" y2="628.48924" gradientTransform="translate(683.39549 -36.01385) rotate(90)" xlink:href="#a"/><linearGradient id="ab" x1="222.59324" y1="649.77722" x2="243.02092" y2="649.77722" gradientTransform="matrix(0.41231, 0.91104, -0.91104, 0.41231, 531.49949, -274.43574)" xlink:href="#b"/><linearGradient id="ac" x1="545.51301" y1="771.42308" x2="565.94069" y2="771.42308" gradientTransform="translate(600.42303 951.66926) rotate(180)" xlink:href="#a"/><linearGradient id="ad" x1="545.51301" y1="792.71107" x2="565.94069" y2="792.71107" xlink:href="#b"/><linearGradient id="ae" x1="222.21779" y1="504.21837" x2="242.64547" y2="504.21837" gradientTransform="translate(672.18609 -87.21837) rotate(90)" xlink:href="#a"/><linearGradient id="af" x1="222.21779" y1="525.50635" x2="242.64547" y2="525.50635" gradientTransform="matrix(0.41231, 0.91104, -0.91104, 0.41231, 531.49949, -274.43574)" xlink:href="#b"/><linearGradient id="ag" x1="621.76469" y1="560.86836" x2="642.19237" y2="560.86836" gradientTransform="translate(917.57678 733.16959) rotate(180)" xlink:href="#a"/><linearGradient id="ah" x1="621.76469" y1="582.15635" x2="642.19237" y2="582.15635" gradientTransform="translate(968.96355 -324.67165) rotate(102.38531)" xlink:href="#b"/><linearGradient id="ai" x1="261.59871" y1="433.65359" x2="282.02639" y2="433.65359" gradientTransform="translate(682.14604 -119.81598) rotate(90)" xlink:href="#a"/><linearGradient id="aj" x1="261.59871" y1="454.94157" x2="282.02639" y2="454.94157" gradientTransform="matrix(0.41231, 0.91104, -0.91104, 0.41231, 531.49949, -274.43574)" xlink:href="#b"/><linearGradient id="ak" x1="616.09163" y1="585.04784" x2="636.51931" y2="585.04784" gradientTransform="translate(870.15857 762.5237) rotate(180)" xlink:href="#a"/><linearGradient id="al" x1="616.09163" y1="606.33583" x2="636.51931" y2="606.33583" gradientTransform="matrix(-0.25448, 0.96708, -0.96708, -0.25448, 969.02146, -279.32866)" xlink:href="#b"/><linearGradient id="am" x1="240.85028" y1="521.92985" x2="261.27796" y2="521.92985" gradientTransform="translate(681.44396 -81.57325) rotate(90)" xlink:href="#a"/><linearGradient id="an" x1="240.85028" y1="543.21784" x2="261.27796" y2="543.21784" gradientTransform="matrix(0.41231, 0.91104, -0.91104, 0.41231, 531.49949, -274.43574)" xlink:href="#b"/><linearGradient id="ao" x1="817.47276" y1="620.40159" x2="837.90044" y2="620.40159" gradientTransform="translate(1040.40783 804.1329) rotate(180)" xlink:href="#a"/><linearGradient id="ap" x1="817.47276" y1="641.68958" x2="837.90044" y2="641.68958" gradientTransform="translate(1182.75186 -175.43969) rotate(122.82824)" xlink:href="#b"/><linearGradient id="aq" x1="248.33871" y1="489.85814" x2="268.76639" y2="489.85814" gradientTransform="translate(681.67854 -95.46282) rotate(90)" xlink:href="#a"/><linearGradient id="ar" x1="248.33871" y1="511.14613" x2="268.76639" y2="511.14613" gradientTransform="matrix(0.41231, 0.91104, -0.91104, 0.41231, 531.49949, -274.43574)" xlink:href="#b"/><linearGradient id="as" x1="241.43726" y1="472.1568" x2="261.86494" y2="472.1568" gradientTransform="translate(677.25838 -102.14731) rotate(90)" xlink:href="#a"/><linearGradient id="at" x1="241.43726" y1="493.44479" x2="261.86494" y2="493.44479" gradientTransform="matrix(0.41231, 0.91104, -0.91104, 0.41231, 531.49949, -274.43574)" xlink:href="#b"/><linearGradient id="au" x1="1002.09921" y1="-174.5018" x2="1022.52689" y2="-174.5018" gradientTransform="translate(265.99915 1170.86726) rotate(-90)" xlink:href="#a"/><linearGradient id="av" x1="1002.09921" y1="-153.21382" x2="1022.52689" y2="-153.21382" gradientTransform="translate(758.85209 939.49353) rotate(-120.73519)" xlink:href="#b"/><linearGradient id="aw" x1="221.20143" y1="552.29597" x2="241.62911" y2="552.29597" gradientTransform="translate(676.04381 -67.30516) rotate(90)" xlink:href="#a"/><linearGradient id="ax" x1="221.20143" y1="573.58395" x2="241.62911" y2="573.58395" gradientTransform="matrix(0.41231, 0.91104, -0.91104, 0.41231, 531.49949, -274.43574)" xlink:href="#b"/><linearGradient id="ay" x1="185.30648" y1="579.43031" x2="205.73416" y2="579.43031" gradientTransform="translate(663.65777 -52.92439) rotate(90)" xlink:href="#a"/><linearGradient id="az" x1="185.30648" y1="600.7183" x2="205.73416" y2="600.7183" gradientTransform="matrix(0.41231, 0.91104, -0.91104, 0.41231, 531.49949, -274.43574)" xlink:href="#b"/><linearGradient id="ba" x1="1035.3149" y1="151.5072" x2="1055.74258" y2="151.5072" gradientTransform="translate(-89.14586 1233.4161) rotate(-90)" xlink:href="#a"/><linearGradient id="bb" x1="1035.3149" y1="172.79519" x2="1055.74258" y2="172.79519" gradientTransform="translate(862.16221 878.10713) rotate(-147.45147)" xlink:href="#b"/><linearGradient id="bc" x1="191.86685" y1="614.22494" x2="212.29453" y2="614.22494" gradientTransform="translate(669.45785 -39.16185) rotate(90)" xlink:href="#a"/><linearGradient id="bd" x1="191.86685" y1="635.51292" x2="212.29453" y2="635.51292" gradientTransform="matrix(0.41231, 0.91104, -0.91104, 0.41231, 531.49949, -274.43574)" xlink:href="#b"/><linearGradient id="be" x1="521.42766" y1="781.89788" x2="541.85534" y2="781.89788" gradientTransform="translate(575.26413 935.90147) rotate(180)" xlink:href="#a"/><linearGradient id="bf" x1="521.42766" y1="803.18586" x2="541.85534" y2="803.18586" xlink:href="#b"/><linearGradient id="bg" x1="197.867" y1="494.37638" x2="218.29468" y2="494.37638" gradientTransform="translate(661.27055 -89.11017) rotate(90)" xlink:href="#a"/><linearGradient id="bh" x1="197.867" y1="515.66437" x2="218.29468" y2="515.66437" gradientTransform="matrix(0.41231, 0.91104, -0.91104, 0.41231, 531.49949, -274.43574)" xlink:href="#b"/><linearGradient id="bi" x1="596.3631" y1="567.54556" x2="616.79078" y2="567.54556" gradientTransform="translate(891.10164 713.60421) rotate(180)" xlink:href="#a"/><linearGradient id="bj" x1="596.3631" y1="588.83355" x2="616.79078" y2="588.83355" gradientTransform="translate(968.96355 -324.67165) rotate(102.38531)" xlink:href="#b"/><linearGradient id="bk" x1="237.24792" y1="423.8116" x2="257.6756" y2="423.8116" gradientTransform="translate(671.2305 -121.70778) rotate(90)" xlink:href="#a"/><linearGradient id="bl" x1="237.24792" y1="445.09959" x2="257.6756" y2="445.09959" gradientTransform="matrix(0.41231, 0.91104, -0.91104, 0.41231, 531.49949, -274.43574)" xlink:href="#b"/><linearGradient id="bm" x1="590.98619" y1="592.76421" x2="611.41387" y2="592.76421" gradientTransform="translate(843.97958 743.99749) rotate(180)" xlink:href="#a"/><linearGradient id="bn" x1="590.98619" y1="614.0522" x2="611.41387" y2="614.0522" gradientTransform="matrix(-0.25448, 0.96708, -0.96708, -0.25448, 969.02146, -279.32866)" xlink:href="#b"/><linearGradient id="bo" x1="216.49949" y1="512.08786" x2="236.92717" y2="512.08786" gradientTransform="translate(670.52842 -83.46504) rotate(90)" xlink:href="#a"/><linearGradient id="bp" x1="216.49949" y1="533.37585" x2="236.92717" y2="533.37585" gradientTransform="matrix(0.41231, 0.91104, -0.91104, 0.41231, 531.49949, -274.43574)" xlink:href="#b"/><linearGradient id="bq" x1="796.00312" y1="635.53038" x2="816.4308" y2="635.53038" gradientTransform="translate(1017.86464 793.01911) rotate(180)" xlink:href="#a"/><linearGradient id="br" x1="796.00312" y1="656.81837" x2="816.4308" y2="656.81837" gradientTransform="translate(1182.75186 -175.43969) rotate(122.82824)" xlink:href="#b"/><linearGradient id="bs" x1="223.98792" y1="480.01615" x2="244.41559" y2="480.01615" gradientTransform="translate(670.763 -97.35462) rotate(90)" xlink:href="#a"/><linearGradient id="bt" x1="223.98792" y1="501.30414" x2="244.41559" y2="501.30414" gradientTransform="matrix(0.41231, 0.91104, -0.91104, 0.41231, 531.49949, -274.43574)" xlink:href="#b"/><linearGradient id="bu" x1="217.08647" y1="462.31481" x2="237.51415" y2="462.31481" gradientTransform="translate(666.34284 -104.0391) rotate(90)" xlink:href="#a"/><linearGradient id="bv" x1="217.08647" y1="483.6028" x2="237.51415" y2="483.6028" gradientTransform="matrix(0.41231, 0.91104, -0.91104, 0.41231, 531.49949, -274.43574)" xlink:href="#b"/><linearGradient id="bw" x1="1025.20438" y1="-162.01274" x2="1045.63206" y2="-162.01274" gradientTransform="translate(252.43654 1167.72985) rotate(-90)" xlink:href="#a"/><linearGradient id="bx" x1="1025.20438" y1="-140.72475" x2="1045.63206" y2="-140.72475" gradientTransform="translate(758.85209 939.49353) rotate(-120.73519)" xlink:href="#b"/><linearGradient id="by" x1="196.85064" y1="542.45398" x2="217.27832" y2="542.45398" gradientTransform="translate(665.12827 -69.19696) rotate(90)" xlink:href="#a"/><linearGradient id="bz" x1="196.85064" y1="563.74197" x2="217.27832" y2="563.74197" gradientTransform="matrix(0.41231, 0.91104, -0.91104, 0.41231, 531.49949, -274.43574)" xlink:href="#b"/><linearGradient id="ca" x1="160.95569" y1="569.58832" x2="181.38337" y2="569.58832" gradientTransform="translate(652.74224 -54.81618) rotate(90)" xlink:href="#a"/><linearGradient id="cb" x1="160.95569" y1="590.87631" x2="181.38337" y2="590.87631" gradientTransform="matrix(0.41231, 0.91104, -0.91104, 0.41231, 531.49949, -274.43574)" xlink:href="#b"/><linearGradient id="cc" x1="1050.3387" y1="173.05044" x2="1070.76638" y2="173.05044" gradientTransform="translate(-111.76265 1222.19732) rotate(-90)" xlink:href="#a"/><linearGradient id="cd" x1="1050.3387" y1="194.33843" x2="1070.76638" y2="194.33843" gradientTransform="translate(862.16221 878.10713) rotate(-147.45147)" xlink:href="#b"/><linearGradient id="ce" x1="167.51606" y1="604.38295" x2="187.94374" y2="604.38295" gradientTransform="translate(658.54231 -41.05365) rotate(90)" xlink:href="#a"/><linearGradient id="cf" x1="167.51606" y1="625.67093" x2="187.94374" y2="625.67093" gradientTransform="matrix(0.41231, 0.91104, -0.91104, 0.41231, 531.49949, -274.43574)" xlink:href="#b"/><linearGradient id="cg" x1="-46.41754" y1="146.85863" x2="313.41319" y2="354.607" gradientUnits="userSpaceOnUse"><stop offset="0.25" stop-color="#001239"/><stop offset="1" stop-color="#1f4068"/></linearGradient><linearGradient id="ch" x1="205.66163" y1="170.70603" x2="375.33402" y2="268.66643" xlink:href="#cg"/><linearGradient id="ci" x1="54.02964" y1="-27.12098" x2="260.96601" y2="92.35379" gradientUnits="userSpaceOnUse"><stop offset="0.25" stop-color="#001239"/><stop offset="0.69898" stop-color="#00153b"/></linearGradient><clipPath id="cj"><polygon class="a" points="311.902 370.395 271.916 425.417 271.916 281.45 311.902 226.428 311.902 370.395"/></clipPath><radialGradient id="ck" cx="764.3184" cy="597.58033" r="62.39826" gradientTransform="matrix(0.33148, -0.45612, 0, 1.05623, 38.6406, 58.71779)" gradientUnits="userSpaceOnUse"><stop offset="0" stop-color="#ffde17"/><stop offset="1" stop-color="#f5841f"/></radialGradient><linearGradient id="cl" x1="28.39804" y1="356.28433" x2="120.46354" y2="356.28433" gradientTransform="translate(-4.77479 12.34649) rotate(-0.62622)" gradientUnits="userSpaceOnUse"><stop offset="0" stop-color="#2b2829"/><stop offset="0.5051" stop-color="#d1d3d4"/><stop offset="1" stop-color="#231f20"/></linearGradient><linearGradient id="cm" x1="937.35566" y1="934.97434" x2="1032.76875" y2="934.97434" gradientTransform="matrix(1.47713, -0.98614, -0.55524, -0.83169, -754.50375, 2055.83665)" xlink:href="#cl"/><linearGradient id="cn" x1="1020.04729" y1="-303.42035" x2="1040.47497" y2="-303.42035" gradientTransform="translate(-954.06803 642.19895)" xlink:href="#a"/><linearGradient id="co" x1="1020.04729" y1="-282.13236" x2="1040.47497" y2="-282.13236" gradientTransform="translate(-241.42965 1364.75018) rotate(-56.38826)" xlink:href="#b"/><linearGradient id="cp" x1="361.5149" y1="679.83724" x2="381.94258" y2="679.83724" gradientTransform="translate(745.24175 -27.2005) rotate(90)" xlink:href="#a"/><linearGradient id="cq" x1="361.5149" y1="701.12523" x2="381.94258" y2="701.12523" gradientTransform="matrix(0.41231, 0.91104, -0.91104, 0.41231, 531.49949, -274.43574)" xlink:href="#b"/><linearGradient id="cr" x1="1004.60934" y1="63.6585" x2="1025.03702" y2="63.6585" gradientTransform="translate(13.86053 1380.60488) rotate(-90)" xlink:href="#a"/><linearGradient id="cs" x1="1004.60934" y1="84.94649" x2="1025.03702" y2="84.94649" gradientTransform="matrix(-0.34342, -0.93918, 0.93918, -0.34342, 366.23885, 1340.74804)" xlink:href="#b"/><linearGradient id="ct" x1="1016.01185" y1="34.73287" x2="1036.43953" y2="34.73287" gradientTransform="translate(11.70388 1391.23188) rotate(-90)" xlink:href="#a"/><linearGradient id="cu" x1="1016.01185" y1="56.02086" x2="1036.43953" y2="56.02086" gradientTransform="matrix(-0.34342, -0.93918, 0.93918, -0.34342, 366.23885, 1340.74804)" xlink:href="#b"/><linearGradient id="cv" x1="1012.14695" y1="23.98058" x2="1032.57463" y2="23.98058" gradientTransform="translate(13.68507 1394.68934) rotate(-90)" xlink:href="#a"/><linearGradient id="cw" x1="1012.14695" y1="45.26857" x2="1032.57463" y2="45.26857" gradientTransform="matrix(-0.34342, -0.93918, 0.93918, -0.34342, 366.23885, 1340.74804)" xlink:href="#b"/><linearGradient id="cx" x1="1032.20687" y1="38.38433" x2="1052.63455" y2="38.38433" gradientTransform="translate(5.92018 1390.96283) rotate(-90)" xlink:href="#a"/><linearGradient id="cy" x1="1032.20687" y1="59.67232" x2="1052.63455" y2="59.67232" gradientTransform="matrix(-0.34342, -0.93918, 0.93918, -0.34342, 366.23885, 1340.74804)" xlink:href="#b"/><clipPath id="cz"><polygon class="a" points="311.292 161.347 271.306 216.369 271.306 72.401 311.292 17.38 311.292 161.347"/></clipPath><radialGradient id="da" cx="762.48025" cy="398.86804" r="62.39826" xlink:href="#ck"/><linearGradient id="db" x1="171.97092" y1="0.5" x2="171.97092" y2="26.55828" xlink:href="#cg"/></defs><ellipse class="b" cx="44.36952" cy="214.12058" rx="10.21383" ry="2.85303" transform="translate(-171.3293 178.1999) rotate(-68.83821)"/><path class="c" d="M40.6823,223.64565,3.63808,209.30555c-1.46948-.56884-1.00955-5.29514,1.02659-10.555s4.87838-9.06394,6.34786-8.4951l37.04421,14.3401c-1.46947-.56885-4.31172,3.23524-6.34785,8.4951S39.21282,223.0768,40.6823,223.64565Z"/><line class="d" x1="15.5086" y1="213.90072" x2="3.87924" y2="200.99733"/><line class="d" x1="25.33248" y1="217.70362" x2="5.71371" y2="196.31156"/><line class="d" x1="34.74703" y1="221.34806" x2="7.85978" y2="192.57983"/><line class="d" x1="39.82338" y1="221.12245" x2="13.4117" y2="191.35287"/><line class="d" x1="40.85013" y1="215.30903" x2="22.82625" y2="194.99731"/><line class="d" x1="42.6667" y1="210.61634" x2="32.70693" y2="198.65349"/><line class="d" x1="45.2669" y1="207.06041" x2="42.06469" y2="202.44465"/><ellipse class="e" cx="167.64106" cy="179.08764" rx="2.85303" ry="10.21383" transform="translate(-58.92672 85.05068) rotate(-24.34993)"/><path class="f" d="M171.85231,188.39291,135.663,204.771c-1.43556.64969-4.485-2.99044-6.81049-8.12894s-3.04758-9.83189-1.612-10.48158l36.18936-16.3781c-1.43556.64969-.71349,5.3431,1.612,10.48158S170.41675,189.0426,171.85231,188.39291Z"/><line class="d" x1="147.25954" y1="199.52278" x2="129.90491" y2="198.77687"/><line class="d" x1="156.85672" y1="195.17942" x2="127.84764" y2="194.18456"/><line class="d" x1="166.05402" y1="191.01703" x2="126.68933" y2="190.03851"/><line class="d" x1="169.45038" y1="187.23749" x2="129.70461" y2="185.21799"/><line class="d" x1="166.02263" y1="182.43119" x2="138.90191" y2="181.05559"/><line class="d" x1="163.94789" y1="177.84679" x2="148.43422" y2="176.5689"/><line class="d" x1="163.23323" y1="173.49995" x2="157.69638" y2="172.54984"/><ellipse class="g" cx="285.2716" cy="206.17563" rx="10.21383" ry="2.85303" transform="translate(22.70778 440.58662) rotate(-77.61469)"/><path class="h" d="M283.08088,216.15177l-38.79848-8.52c-1.53907-.338-1.80566-5.07911-.59592-10.58808s3.43828-9.70217,4.97734-9.3642l38.79849,8.52c-1.53906-.338-3.7676,3.85524-4.97734,9.36419S281.54182,215.8138,283.08088,216.15177Z"/><line class="d" x1="256.71506" y1="210.36195" x2="243.25306" y2="199.38405"/><line class="d" x1="267.00416" y1="212.62139" x2="244.35109" y2="194.47325"/><line class="d" x1="276.86455" y1="214.78669" x2="245.90265" y2="190.45776"/><line class="d" x1="281.84703" y1="213.78917" x2="251.20236" y2="188.39805"/><line class="d" x1="281.97474" y1="207.88716" x2="261.06274" y2="190.56335"/><line class="d" x1="283.05404" y1="202.97224" x2="271.38559" y2="192.66912"/><line class="d" x1="285.08122" y1="199.0612" x2="281.21223" y2="194.98809"/><ellipse class="i" cx="248.16579" cy="185.87096" rx="2.85303" ry="10.21383" transform="translate(-54.56041 118.85512) rotate(-24.34993)"/><path class="j" d="M252.377,195.17622l-36.18936,16.37811c-1.43556.64969-4.485-2.99044-6.81049-8.129s-3.04758-9.83188-1.612-10.48157l36.18936-16.37811c-1.43557.64969-.7135,5.3431,1.612,10.48158S250.94148,195.82591,252.377,195.17622Z"/><line class="d" x1="227.78427" y1="206.3061" x2="210.42963" y2="205.56019"/><line class="d" x1="237.38145" y1="201.96273" x2="208.37237" y2="200.96788"/><line class="d" x1="246.57875" y1="197.80034" x2="207.21406" y2="196.82182"/><line class="d" x1="249.97511" y1="194.02081" x2="210.22934" y2="192.0013"/><line class="d" x1="246.54736" y1="189.2145" x2="219.42664" y2="187.83891"/><line class="d" x1="244.47262" y1="184.6301" x2="228.95895" y2="183.35221"/><line class="d" x1="243.75796" y1="180.28327" x2="238.22111" y2="179.33315"/><ellipse class="k" cx="243.52645" cy="211.35025" rx="10.21383" ry="2.85303" transform="translate(-22.83804 393.07537) rotate(-75.25732)"/><path class="l" d="M240.92724,221.22784,202.512,211.11921c-1.52386-.401-1.59522-5.14908-.1599-10.60363s3.83444-9.55253,5.3583-9.15153l38.4152,10.10862c-1.52385-.401-3.923,3.697-5.3583,9.15154S239.40338,220.82685,240.92724,221.22784Z"/><line class="d" x1="214.82188" y1="214.35844" x2="201.82282" y2="202.83611"/><line class="d" x1="225.00934" y1="217.03918" x2="203.12192" y2="197.97463"/><line class="d" x1="234.77232" y1="219.60823" x2="204.83732" y2="194.02636"/><line class="d" x1="239.79161" y1="218.81649" x2="210.21727" y2="192.18638"/><line class="d" x1="240.16198" y1="212.92473" x2="219.98025" y2="194.75542"/><line class="d" x1="241.44252" y1="208.05836" x2="230.20774" y2="197.28402"/><line class="d" x1="243.62887" y1="204.23402" x2="239.93069" y2="200.00521"/><ellipse class="m" cx="159.18745" cy="203.36526" rx="2.85303" ry="10.21383" transform="translate(-69.68858 83.72482) rotate(-24.34993)"/><path class="n" d="M163.3987,212.67053l-36.18936,16.3781c-1.43557.64969-4.485-2.99044-6.8105-8.12894s-3.04757-9.83189-1.612-10.48158L154.9762,194.06c-1.43557.64969-.7135,5.3431,1.612,10.48158S161.96314,213.32022,163.3987,212.67053Z"/><line class="d" x1="138.80593" y1="223.8004" x2="121.45129" y2="223.05449"/><line class="d" x1="148.40311" y1="219.45704" x2="119.39402" y2="218.46218"/><line class="d" x1="157.6004" y1="215.29465" x2="118.23572" y2="214.31613"/><line class="d" x1="160.99677" y1="211.51511" x2="121.251" y2="209.49561"/><line class="d" x1="157.56902" y1="206.70881" x2="130.44829" y2="205.33321"/><line class="d" x1="155.49427" y1="202.12441" x2="139.9806" y2="200.84652"/><line class="d" x1="154.77961" y1="197.77757" x2="149.24277" y2="196.82746"/><ellipse class="o" cx="212.39458" cy="217.60571" rx="10.21383" ry="2.85303" transform="translate(-85.60326 278.11183) rotate(-57.17176)"/><path class="p" d="M206.85742,226.1884l-33.37917-21.5347c-1.32409-.85424.08206-5.3899,3.13976-10.12939s6.61046-7.89022,7.93455-7.036l33.37917,21.5347c-1.32409-.85424-4.87686,2.29652-7.93455,7.036S205.53333,225.33416,206.85742,226.1884Z"/><line class="d" x1="184.17434" y1="211.55432" x2="175.39447" y2="196.56587"/><line class="d" x1="193.02628" y1="217.26518" x2="178.13856" y2="192.34786"/><line class="d" x1="201.50938" y1="222.73809" x2="180.99491" y2="189.12719"/><line class="d" x1="206.52647" y1="223.54364" x2="186.68025" y2="189.04825"/><line class="d" x1="208.70756" y1="218.05794" x2="195.16335" y2="194.52116"/><line class="d" x1="211.43554" y1="213.82953" x2="204.10058" y2="200.09981"/><line class="d" x1="214.70108" y1="210.87285" x2="212.49839" y2="205.70492"/><ellipse class="q" cx="191.49374" cy="196.96411" rx="2.85303" ry="10.21383" transform="translate(-64.17551 96.47555) rotate(-24.34993)"/><path class="r" d="M195.705,206.26938l-36.18936,16.37811c-1.43556.64968-4.485-2.99045-6.81049-8.129s-3.04758-9.83189-1.612-10.48158l36.18936-16.3781c-1.43556.64969-.7135,5.3431,1.612,10.48158S194.26943,206.91907,195.705,206.26938Z"/><line class="d" x1="171.11222" y1="217.39925" x2="153.75759" y2="216.65334"/><line class="d" x1="180.7094" y1="213.05589" x2="151.70032" y2="212.06103"/><line class="d" x1="189.9067" y1="208.8935" x2="150.54201" y2="207.91498"/><line class="d" x1="193.30306" y1="205.11396" x2="153.55729" y2="203.09446"/><line class="d" x1="189.87531" y1="200.30766" x2="162.75459" y2="198.93207"/><line class="d" x1="187.80057" y1="195.72326" x2="172.2869" y2="194.44537"/><line class="d" x1="187.08591" y1="191.37642" x2="181.54906" y2="190.42631"/><ellipse class="s" cx="204.77492" cy="183.37818" rx="2.85303" ry="10.21383" transform="translate(-57.39248 100.74295) rotate(-24.34993)"/><path class="t" d="M208.98618,192.68345l-36.18937,16.3781c-1.43556.64969-4.485-2.99044-6.81049-8.12894s-3.04757-9.83189-1.612-10.48158l36.18936-16.3781c-1.43556.64969-.71349,5.34309,1.612,10.48157S207.55061,193.33314,208.98618,192.68345Z"/><line class="d" x1="184.3934" y1="203.81332" x2="167.03877" y2="203.06741"/><line class="d" x1="193.99058" y1="199.46996" x2="164.9815" y2="198.4751"/><line class="d" x1="203.18788" y1="195.30757" x2="163.82319" y2="194.32905"/><line class="d" x1="206.58424" y1="191.52803" x2="166.83847" y2="189.50853"/><line class="d" x1="203.1565" y1="186.72173" x2="176.03577" y2="185.34613"/><line class="d" x1="201.08175" y1="182.13733" x2="185.56808" y2="180.85944"/><line class="d" x1="200.36709" y1="177.79049" x2="194.83024" y2="176.84038"/><ellipse class="u" cx="91.17068" cy="192.42862" rx="2.85303" ry="10.21383" transform="translate(-85.5387 73.62348) rotate(-30.73519)"/><path class="v" d="M85.95068,183.64942l34.14341-20.30124c1.3544-.80531,4.78973,2.4731,7.67229,7.3211s4.1221,9.432,2.7677,10.23728L96.39068,201.2078c1.3544-.80531.11484-5.3893-2.7677-10.23728S87.30509,182.84411,85.95068,183.64942Z"/><line class="d" x1="109.15311" y1="169.85355" x2="126.48304" y2="168.66477"/><line class="d" x1="100.0985" y1="175.2373" x2="129.03827" y2="172.9998"/><line class="d" x1="91.42117" y1="180.39674" x2="130.65049" y2="176.99131"/><line class="d" x1="88.46621" y1="184.53054" x2="128.19002" y2="182.11727"/><line class="d" x1="92.40722" y1="188.92582" x2="119.51269" y2="187.2767"/><line class="d" x1="94.97895" y1="193.25104" x2="110.5385" y2="192.79568"/><line class="d" x1="96.1726" y1="197.49143" x2="101.78076" y2="197.81988"/><ellipse class="w" cx="123.42118" cy="197.98449" rx="2.85303" ry="10.21383" transform="translate(-70.65166 68.49943) rotate(-24.34993)"/><path class="x" d="M127.63244,207.28976l-36.18937,16.3781c-1.43556.64969-4.485-2.99044-6.81049-8.12894s-3.04758-9.83189-1.612-10.48158l36.18936-16.3781c-1.43556.64969-.71349,5.34309,1.612,10.48157S126.19687,207.93945,127.63244,207.28976Z"/><line class="d" x1="103.03966" y1="218.41963" x2="85.68503" y2="217.67372"/><line class="d" x1="112.63684" y1="214.07627" x2="83.62776" y2="213.08141"/><line class="d" x1="121.83414" y1="209.91387" x2="82.46945" y2="208.93536"/><line class="d" x1="125.2305" y1="206.13434" x2="85.48473" y2="204.11483"/><line class="d" x1="121.80275" y1="201.32804" x2="94.68203" y2="199.95244"/><line class="d" x1="119.72801" y1="196.74364" x2="104.21434" y2="195.46574"/><line class="d" x1="119.01335" y1="192.3968" x2="113.4765" y2="191.44669"/><ellipse class="y" cx="83.9008" cy="176.47032" rx="2.85303" ry="10.21383" transform="translate(-65.29675 50.29104) rotate(-24.34993)"/><path class="z" d="M88.11206,185.77559l-36.18937,16.3781c-1.43556.64969-4.485-2.99044-6.81049-8.12894s-3.04757-9.83189-1.612-10.48158l36.18936-16.3781c-1.43556.64969-.71349,5.34309,1.612,10.48157S86.67649,186.42528,88.11206,185.77559Z"/><line class="d" x1="63.51929" y1="196.90546" x2="46.16465" y2="196.15955"/><line class="d" x1="73.11646" y1="192.5621" x2="44.10738" y2="191.56724"/><line class="d" x1="82.31376" y1="188.3997" x2="42.94908" y2="187.42119"/><line class="d" x1="85.71012" y1="184.62017" x2="45.96435" y2="182.60066"/><line class="d" x1="82.28238" y1="179.81387" x2="55.16165" y2="178.43827"/><line class="d" x1="80.20763" y1="175.22947" x2="64.69396" y2="173.95157"/><line class="d" x1="79.49297" y1="170.88263" x2="73.95613" y2="169.93252"/><ellipse class="aa" cx="62.03468" cy="221.76176" rx="2.85303" ry="10.21383" transform="translate(-158.27181 154.74214) rotate(-57.45147)"/><path class="ab" d="M53.42506,216.26657l21.37149-33.4839c.84777-1.32824,5.39024.05575,10.1446,3.09027s7.9224,6.57186,7.07463,7.9001l-21.37149,33.4839c.84776-1.32824-2.3203-4.86559-7.07464-7.9001S54.27283,214.93833,53.42506,216.26657Z"/><line class="d" x1="67.94823" y1="193.51232" x2="82.89364" y2="184.65938"/><line class="d" x1="62.28065" y1="202.39203" x2="87.12499" y2="187.38285"/><line class="d" x1="56.84922" y1="210.90175" x2="90.35957" y2="190.22344"/><line class="d" x1="56.06817" y1="215.92271" x2="90.46627" y2="195.90833"/><line class="d" x1="61.56445" y1="218.077" x2="85.03484" y2="204.41805"/><line class="d" x1="65.80613" y1="220.7843" x2="79.49988" y2="213.3824"/><line class="d" x1="68.77871" y1="224.03537" x2="73.93583" y2="221.80748"/><ellipse class="ac" cx="54.90625" cy="196.79323" rx="2.85303" ry="10.21383" transform="translate(-76.25528 40.14418) rotate(-24.34993)"/><path class="ad" d="M59.11751,206.09849,22.92814,222.4766c-1.43556.64968-4.485-2.99044-6.81049-8.129s-3.04757-9.83189-1.612-10.48157L50.695,187.488c-1.43556.64969-.71349,5.3431,1.612,10.48158S57.68194,206.74818,59.11751,206.09849Z"/><line class="d" x1="34.52474" y1="217.22836" x2="17.1701" y2="216.48245"/><line class="d" x1="44.12191" y1="212.885" x2="15.11283" y2="211.89014"/><line class="d" x1="53.31921" y1="208.72261" x2="13.95453" y2="207.74409"/><line class="d" x1="56.71557" y1="204.94308" x2="16.9698" y2="202.92357"/><line class="d" x1="53.28783" y1="200.13677" x2="26.1671" y2="198.76118"/><line class="d" x1="51.21308" y1="195.55237" x2="35.69941" y2="194.27448"/><line class="d" x1="50.49842" y1="191.20554" x2="44.96158" y2="190.25542"/><ellipse class="ae" cx="44.69618" cy="180.24618" rx="10.21383" ry="2.85303" transform="translate(-139.53049 156.85889) rotate(-68.83821)"/><path class="af" d="M41.009,189.77125,3.96474,175.43116c-1.46948-.56885-1.00955-5.29515,1.02659-10.555s4.87838-9.06395,6.34786-8.49511l37.04421,14.3401c-1.46947-.56885-4.31172,3.23524-6.34785,8.4951S39.53948,189.20241,41.009,189.77125Z"/><line class="d" x1="15.83526" y1="180.02633" x2="4.2059" y2="167.12293"/><line class="d" x1="25.65914" y1="183.82922" x2="6.04037" y2="162.43716"/><line class="d" x1="35.07369" y1="187.47367" x2="8.18644" y2="158.70543"/><line class="d" x1="40.15004" y1="187.24805" x2="13.73836" y2="157.47847"/><line class="d" x1="41.17679" y1="181.43464" x2="23.15291" y2="161.12291"/><line class="d" x1="42.99336" y1="176.74195" x2="33.03359" y2="164.77909"/><line class="d" x1="45.59356" y1="173.18601" x2="42.39135" y2="168.57025"/><ellipse class="ag" cx="167.96772" cy="145.21325" rx="2.85303" ry="10.21383" transform="translate(-44.93096 82.17205) rotate(-24.34993)"/><path class="ah" d="M172.179,154.51851l-36.18936,16.37811c-1.43556.64969-4.485-2.99044-6.81049-8.129s-3.04758-9.83189-1.612-10.48157L163.75647,135.908c-1.43556.64969-.71349,5.3431,1.612,10.48158S170.74341,155.1682,172.179,154.51851Z"/><line class="d" x1="147.5862" y1="165.64838" x2="130.23157" y2="164.90247"/><line class="d" x1="157.18338" y1="161.30502" x2="128.1743" y2="160.31016"/><line class="d" x1="166.38068" y1="157.14263" x2="127.01599" y2="156.16411"/><line class="d" x1="169.77704" y1="153.3631" x2="130.03127" y2="151.34359"/><line class="d" x1="166.34929" y1="148.55679" x2="139.22857" y2="147.1812"/><line class="d" x1="164.27455" y1="143.97239" x2="148.76088" y2="142.6945"/><line class="d" x1="163.55989" y1="139.62556" x2="158.02304" y2="138.67544"/><ellipse class="ai" cx="285.59826" cy="172.30123" rx="10.21383" ry="2.85303" transform="translate(56.05043 414.29683) rotate(-77.61469)"/><path class="aj" d="M283.40754,182.27737l-38.79848-8.52c-1.53907-.338-1.80566-5.07911-.59592-10.58808s3.43828-9.70216,4.97734-9.36419l38.79849,8.52c-1.53906-.338-3.7676,3.85524-4.97734,9.36419S281.86848,181.9394,283.40754,182.27737Z"/><line class="d" x1="257.04172" y1="176.48756" x2="243.57972" y2="165.50965"/><line class="d" x1="267.33082" y1="178.747" x2="244.67775" y2="160.59885"/><line class="d" x1="277.19121" y1="180.91229" x2="246.22931" y2="156.58337"/><line class="d" x1="282.17369" y1="179.91477" x2="251.52902" y2="154.52365"/><line class="d" x1="282.3014" y1="174.01276" x2="261.3894" y2="156.68895"/><line class="d" x1="283.3807" y1="169.09784" x2="271.71225" y2="158.79472"/><line class="d" x1="285.40788" y1="165.1868" x2="281.53889" y2="161.11369"/><ellipse class="ak" cx="248.49245" cy="151.99656" rx="2.85303" ry="10.21383" transform="translate(-40.56465 115.97648) rotate(-24.34993)"/><path class="al" d="M252.7037,161.30183l-36.18936,16.3781c-1.43556.64969-4.485-2.99044-6.81049-8.12894s-3.04758-9.83189-1.612-10.48158l36.18936-16.3781c-1.43557.64968-.7135,5.34309,1.612,10.48157S251.26814,161.95152,252.7037,161.30183Z"/><line class="d" x1="228.11093" y1="172.4317" x2="210.7563" y2="171.68579"/><line class="d" x1="237.70811" y1="168.08833" x2="208.69903" y2="167.09348"/><line class="d" x1="246.90541" y1="163.92594" x2="207.54072" y2="162.94742"/><line class="d" x1="250.30177" y1="160.14641" x2="210.556" y2="158.1269"/><line class="d" x1="246.87402" y1="155.3401" x2="219.7533" y2="153.96451"/><line class="d" x1="244.79928" y1="150.7557" x2="229.28561" y2="149.47781"/><line class="d" x1="244.08462" y1="146.40887" x2="238.54777" y2="145.45876"/><ellipse class="am" cx="243.85311" cy="177.47586" rx="10.21383" ry="2.85303" transform="translate(10.16469 368.13718) rotate(-75.25732)"/><path class="an" d="M241.2539,187.35345l-38.4152-10.10863c-1.52386-.401-1.59522-5.14908-.1599-10.60363s3.83444-9.55253,5.3583-9.15154l38.4152,10.10863c-1.52385-.401-3.923,3.697-5.3583,9.15153S239.73,186.95246,241.2539,187.35345Z"/><line class="d" x1="215.14854" y1="180.48405" x2="202.14948" y2="168.96171"/><line class="d" x1="225.336" y1="183.16479" x2="203.44858" y2="164.10023"/><line class="d" x1="235.09898" y1="185.73383" x2="205.16398" y2="160.15196"/><line class="d" x1="240.11827" y1="184.94209" x2="210.54393" y2="158.31198"/><line class="d" x1="240.48864" y1="179.05033" x2="220.30691" y2="160.88103"/><line class="d" x1="241.76918" y1="174.18397" x2="230.5344" y2="163.40962"/><line class="d" x1="243.95553" y1="170.35962" x2="240.25735" y2="166.13081"/><ellipse class="ao" cx="159.51411" cy="169.49087" rx="2.85303" ry="10.21383" transform="translate(-55.69283 80.84618) rotate(-24.34993)"/><path class="ap" d="M163.72536,178.79613,127.536,195.17424c-1.43557.64969-4.485-2.99044-6.8105-8.129s-3.04757-9.83189-1.612-10.48157l36.18937-16.37811c-1.43557.64969-.7135,5.3431,1.612,10.48158S162.2898,179.44582,163.72536,178.79613Z"/><line class="d" x1="139.13259" y1="189.926" x2="121.77795" y2="189.18009"/><line class="d" x1="148.72977" y1="185.58264" x2="119.72068" y2="184.58778"/><line class="d" x1="157.92706" y1="181.42025" x2="118.56238" y2="180.44173"/><line class="d" x1="161.32343" y1="177.64072" x2="121.57766" y2="175.62121"/><line class="d" x1="157.89568" y1="172.83441" x2="130.77495" y2="171.45882"/><line class="d" x1="155.82093" y1="168.25001" x2="140.30726" y2="166.97212"/><line class="d" x1="155.10627" y1="163.90318" x2="149.56943" y2="162.95306"/><ellipse class="aq" cx="212.72124" cy="183.73131" rx="10.21383" ry="2.85303" transform="translate(-56.98905 262.87599) rotate(-57.17176)"/><path class="ar" d="M207.18408,192.314l-33.37917-21.5347c-1.32409-.85424.08206-5.3899,3.13976-10.12939s6.61046-7.89022,7.93455-7.036l33.37917,21.5347c-1.32409-.85424-4.87686,2.29652-7.93455,7.036S205.86,191.45976,207.18408,192.314Z"/><line class="d" x1="184.501" y1="177.67992" x2="175.72113" y2="162.69147"/><line class="d" x1="193.35294" y1="183.39078" x2="178.46522" y2="158.47347"/><line class="d" x1="201.83604" y1="188.86369" x2="181.32157" y2="155.25279"/><line class="d" x1="206.85313" y1="189.66924" x2="187.00691" y2="155.17385"/><line class="d" x1="209.03422" y1="184.18355" x2="195.49001" y2="160.64676"/><line class="d" x1="211.7622" y1="179.95514" x2="204.42724" y2="166.22541"/><line class="d" x1="215.02774" y1="176.99846" x2="212.82505" y2="171.83052"/><ellipse class="as" cx="191.8204" cy="163.08972" rx="2.85303" ry="10.21383" transform="translate(-50.17975 93.59692) rotate(-24.34993)"/><path class="at" d="M196.03165,172.395l-36.18936,16.37811c-1.43556.64969-4.485-2.99044-6.81049-8.129s-3.04758-9.83188-1.612-10.48157l36.18936-16.37811c-1.43556.64969-.7135,5.3431,1.612,10.48158S194.59609,173.04467,196.03165,172.395Z"/><line class="d" x1="171.43888" y1="183.52486" x2="154.08425" y2="182.77895"/><line class="d" x1="181.03606" y1="179.18149" x2="152.02698" y2="178.18663"/><line class="d" x1="190.23336" y1="175.0191" x2="150.86867" y2="174.04058"/><line class="d" x1="193.62972" y1="171.23957" x2="153.88395" y2="169.22006"/><line class="d" x1="190.20197" y1="166.43326" x2="163.08125" y2="165.05767"/><line class="d" x1="188.12723" y1="161.84886" x2="172.61356" y2="160.57097"/><line class="d" x1="187.41257" y1="157.50203" x2="181.87572" y2="156.55191"/><ellipse class="au" cx="205.10158" cy="149.50379" rx="2.85303" ry="10.21383" transform="translate(-43.39672 97.86432) rotate(-24.34993)"/><path class="av" d="M209.31284,158.80905l-36.18937,16.37811c-1.43556.64968-4.485-2.99044-6.81049-8.129s-3.04757-9.83189-1.612-10.48157l36.18936-16.37811c-1.43556.64969-.71349,5.3431,1.612,10.48158S207.87727,159.45874,209.31284,158.80905Z"/><line class="d" x1="184.72006" y1="169.93892" x2="167.36543" y2="169.19301"/><line class="d" x1="194.31724" y1="165.59556" x2="165.30816" y2="164.6007"/><line class="d" x1="203.51454" y1="161.43317" x2="164.14985" y2="160.45465"/><line class="d" x1="206.9109" y1="157.65364" x2="167.16513" y2="155.63413"/><line class="d" x1="203.48316" y1="152.84733" x2="176.36243" y2="151.47174"/><line class="d" x1="201.40841" y1="148.26293" x2="185.89474" y2="146.98504"/><line class="d" x1="200.69375" y1="143.9161" x2="195.1569" y2="142.96598"/><ellipse class="aw" cx="91.49734" cy="158.55422" rx="2.85303" ry="10.21383" transform="translate(-68.1806 69.03238) rotate(-30.73519)"/><path class="ax" d="M86.27735,149.775l34.1434-20.30124c1.3544-.80531,4.78973,2.4731,7.67229,7.3211s4.1221,9.432,2.7677,10.23728L96.71734,167.3334c1.3544-.80531.11484-5.3893-2.7677-10.23728S87.63175,148.96971,86.27735,149.775Z"/><line class="d" x1="109.47977" y1="135.97915" x2="126.8097" y2="134.79037"/><line class="d" x1="100.42516" y1="141.36291" x2="129.36493" y2="139.1254"/><line class="d" x1="91.74783" y1="146.52234" x2="130.97715" y2="143.11691"/><line class="d" x1="88.79287" y1="150.65615" x2="128.51668" y2="148.24287"/><line class="d" x1="92.73388" y1="155.05143" x2="119.83935" y2="153.4023"/><line class="d" x1="95.30561" y1="159.37665" x2="110.86516" y2="158.92129"/><line class="d" x1="96.49926" y1="163.61704" x2="102.10742" y2="163.94549"/><ellipse class="ay" cx="123.74784" cy="164.11009" rx="2.85303" ry="10.21383" transform="translate(-56.6559 65.6208) rotate(-24.34993)"/><path class="az" d="M127.9591,173.41536,91.76973,189.79347c-1.43556.64968-4.485-2.99045-6.81049-8.129s-3.04758-9.83189-1.612-10.48158l36.18936-16.3781c-1.43556.64969-.71349,5.3431,1.612,10.48158S126.52353,174.06505,127.9591,173.41536Z"/><line class="d" x1="103.36632" y1="184.54523" x2="86.01169" y2="183.79932"/><line class="d" x1="112.9635" y1="180.20187" x2="83.95442" y2="179.20701"/><line class="d" x1="122.1608" y1="176.03948" x2="82.79611" y2="175.06096"/><line class="d" x1="125.55716" y1="172.25994" x2="85.81139" y2="170.24044"/><line class="d" x1="122.12941" y1="167.45364" x2="95.00869" y2="166.07805"/><line class="d" x1="120.05467" y1="162.86924" x2="104.541" y2="161.59135"/><line class="d" x1="119.34001" y1="158.5224" x2="113.80316" y2="157.57229"/><ellipse class="ba" cx="84.22746" cy="142.59592" rx="2.85303" ry="10.21383" transform="translate(-51.30099 47.41241) rotate(-24.34993)"/><path class="bb" d="M88.43872,151.90119,52.24935,168.2793c-1.43556.64968-4.485-2.99045-6.81049-8.129s-3.04757-9.83189-1.612-10.48158l36.18936-16.3781c-1.43556.64969-.71349,5.3431,1.612,10.48158S87.00315,152.55088,88.43872,151.90119Z"/><line class="d" x1="63.84595" y1="163.03106" x2="46.49131" y2="162.28515"/><line class="d" x1="73.44312" y1="158.6877" x2="44.43404" y2="157.69284"/><line class="d" x1="82.64042" y1="154.52531" x2="43.27574" y2="153.54679"/><line class="d" x1="86.03678" y1="150.74577" x2="46.29101" y2="148.72627"/><line class="d" x1="82.60904" y1="145.93947" x2="55.48831" y2="144.56388"/><line class="d" x1="80.53429" y1="141.35507" x2="65.02062" y2="140.07718"/><line class="d" x1="79.81963" y1="137.00823" x2="74.28279" y2="136.05812"/><ellipse class="bc" cx="62.36134" cy="187.88736" rx="2.85303" ry="10.21383" transform="translate(-129.56695 139.36799) rotate(-57.45147)"/><path class="bd" d="M53.75172,182.39217l21.37149-33.4839c.84777-1.32824,5.39024.05575,10.1446,3.09028s7.9224,6.57185,7.07463,7.9001L70.971,193.38255c.84776-1.32825-2.3203-4.86559-7.07464-7.9001S54.59949,181.06393,53.75172,182.39217Z"/><line class="d" x1="68.27489" y1="159.63792" x2="83.2203" y2="150.78498"/><line class="d" x1="62.60731" y1="168.51763" x2="87.45165" y2="153.50845"/><line class="d" x1="57.17588" y1="177.02735" x2="90.68623" y2="156.34904"/><line class="d" x1="56.39483" y1="182.04832" x2="90.79293" y2="162.03393"/><line class="d" x1="61.89111" y1="184.2026" x2="85.3615" y2="170.54365"/><line class="d" x1="66.13279" y1="186.9099" x2="79.82654" y2="179.508"/><line class="d" x1="69.10537" y1="190.16097" x2="74.26249" y2="187.93308"/><ellipse class="be" cx="55.23291" cy="162.91883" rx="2.85303" ry="10.21383" transform="translate(-62.25952 37.26555) rotate(-24.34993)"/><path class="bf" d="M59.44417,172.22409,23.2548,188.6022c-1.43556.64969-4.485-2.99044-6.81049-8.129s-3.04757-9.83188-1.612-10.48157l36.18936-16.37811c-1.43556.64969-.71349,5.3431,1.612,10.48158S58.0086,172.87378,59.44417,172.22409Z"/><line class="d" x1="34.8514" y1="183.35397" x2="17.49676" y2="182.60806"/><line class="d" x1="44.44857" y1="179.0106" x2="15.43949" y2="178.01575"/><line class="d" x1="53.64587" y1="174.84821" x2="14.28119" y2="173.86969"/><line class="d" x1="57.04223" y1="171.06868" x2="17.29646" y2="169.04917"/><line class="d" x1="53.61449" y1="166.26237" x2="26.49376" y2="164.88678"/><line class="d" x1="51.53974" y1="161.67797" x2="36.02607" y2="160.40008"/><line class="d" x1="50.82508" y1="157.33114" x2="45.28824" y2="156.38102"/><ellipse class="bg" cx="43.62264" cy="154.00359" rx="10.21383" ry="2.85303" transform="translate(-115.74358 139.0888) rotate(-68.83821)"/><path class="bh" d="M39.93541,163.52867,2.89119,149.18857c-1.46947-.56884-1.00954-5.29514,1.0266-10.555s4.87838-9.06394,6.34785-8.4951l37.04422,14.34009c-1.46948-.56884-4.31173,3.23525-6.34786,8.49511S38.46593,162.95982,39.93541,163.52867Z"/><line class="d" x1="14.76171" y1="153.78374" x2="3.13235" y2="140.88034"/><line class="d" x1="24.58559" y1="157.58664" x2="4.96682" y2="136.19458"/><line class="d" x1="34.00015" y1="161.23108" x2="7.11289" y2="132.46285"/><line class="d" x1="39.07649" y1="161.00547" x2="12.66481" y2="131.23588"/><line class="d" x1="40.10324" y1="155.19205" x2="22.07937" y2="134.88033"/><line class="d" x1="41.91981" y1="150.49936" x2="31.96004" y2="138.53651"/><line class="d" x1="44.52001" y1="146.94343" x2="41.3178" y2="142.32767"/><ellipse class="bi" cx="166.89417" cy="118.97066" rx="2.85303" ry="10.21383" transform="translate(-34.20642 79.39499) rotate(-24.34993)"/><path class="bj" d="M171.10543,128.27593,134.91606,144.654c-1.43556.64969-4.485-2.99044-6.81049-8.12894s-3.04757-9.83189-1.612-10.48158l36.18936-16.3781c-1.43556.64969-.71349,5.34309,1.612,10.48157S169.66986,128.92562,171.10543,128.27593Z"/><line class="d" x1="146.51266" y1="139.4058" x2="129.15802" y2="138.65989"/><line class="d" x1="156.10983" y1="135.06244" x2="127.10075" y2="134.06758"/><line class="d" x1="165.30713" y1="130.90004" x2="125.94245" y2="129.92153"/><line class="d" x1="168.70349" y1="127.12051" x2="128.95772" y2="125.101"/><line class="d" x1="165.27575" y1="122.31421" x2="138.15502" y2="120.93861"/><line class="d" x1="163.201" y1="117.72981" x2="147.68733" y2="116.45191"/><line class="d" x1="162.48634" y1="113.38297" x2="156.9495" y2="112.43286"/><ellipse class="bk" cx="284.52471" cy="146.05864" rx="10.21383" ry="2.85303" transform="translate(80.83899 392.63432) rotate(-77.61469)"/><path class="bl" d="M282.334,156.03479l-38.79848-8.52c-1.53906-.338-1.80566-5.0791-.59592-10.58808s3.43828-9.70216,4.97735-9.36419l38.79848,8.52c-1.53906-.338-3.7676,3.85525-4.97734,9.3642S280.79493,155.69681,282.334,156.03479Z"/><line class="d" x1="255.96817" y1="150.24497" x2="242.50617" y2="139.26707"/><line class="d" x1="266.25727" y1="152.50441" x2="243.60421" y2="134.35627"/><line class="d" x1="276.11766" y1="154.66971" x2="245.15576" y2="130.34078"/><line class="d" x1="281.10014" y1="153.67219" x2="250.45547" y2="128.28107"/><line class="d" x1="281.22785" y1="147.77018" x2="260.31586" y2="130.44637"/><line class="d" x1="282.30715" y1="142.85526" x2="270.6387" y2="132.55214"/><line class="d" x1="284.33434" y1="138.94422" x2="280.46535" y2="134.8711"/><ellipse class="bm" cx="247.4189" cy="125.75398" rx="2.85303" ry="10.21383" transform="translate(-29.84011 113.19942) rotate(-24.34993)"/><path class="bn" d="M251.63016,135.05924l-36.18937,16.37811c-1.43556.64969-4.485-2.99044-6.81049-8.129s-3.04758-9.83189-1.612-10.48157l36.18936-16.37811c-1.43556.64969-.71349,5.3431,1.612,10.48158S250.19459,135.70893,251.63016,135.05924Z"/><line class="d" x1="227.03738" y1="146.18911" x2="209.68275" y2="145.4432"/><line class="d" x1="236.63456" y1="141.84575" x2="207.62548" y2="140.85089"/><line class="d" x1="245.83186" y1="137.68336" x2="206.46717" y2="136.70484"/><line class="d" x1="249.22822" y1="133.90383" x2="209.48245" y2="131.88432"/><line class="d" x1="245.80048" y1="129.09752" x2="218.67975" y2="127.72193"/><line class="d" x1="243.72573" y1="124.51312" x2="228.21206" y2="123.23523"/><line class="d" x1="243.01107" y1="120.16629" x2="237.47422" y2="119.21617"/><ellipse class="bo" cx="242.77956" cy="151.23327" rx="10.21383" ry="2.85303" transform="translate(34.74298 347.53456) rotate(-75.25732)"/><path class="bp" d="M240.18036,161.11086l-38.41521-10.10863c-1.52386-.401-1.59522-5.14908-.1599-10.60363s3.83444-9.55253,5.3583-9.15154l38.41521,10.10863c-1.52386-.401-3.923,3.697-5.3583,9.15154S238.6565,160.70987,240.18036,161.11086Z"/><line class="d" x1="214.075" y1="154.24146" x2="201.07593" y2="142.71913"/><line class="d" x1="224.26245" y1="156.9222" x2="202.37503" y2="137.85765"/><line class="d" x1="234.02543" y1="159.49125" x2="204.09044" y2="133.90938"/><line class="d" x1="239.04473" y1="158.69951" x2="209.47038" y2="132.0694"/><line class="d" x1="239.4151" y1="152.80775" x2="219.23336" y2="134.63844"/><line class="d" x1="240.69564" y1="147.94138" x2="229.46086" y2="137.16703"/><line class="d" x1="242.88198" y1="144.11704" x2="239.1838" y2="139.88823"/><ellipse class="bq" cx="158.44056" cy="143.24828" rx="2.85303" ry="10.21383" transform="translate(-44.96829 78.06912) rotate(-24.34993)"/><path class="br" d="M162.65181,152.55355l-36.18936,16.3781c-1.43556.64969-4.485-2.99044-6.81049-8.12894s-3.04758-9.83189-1.612-10.48158l36.18936-16.3781c-1.43557.64969-.7135,5.34309,1.612,10.48157S161.21625,153.20324,162.65181,152.55355Z"/><line class="d" x1="138.05904" y1="163.68342" x2="120.7044" y2="162.93751"/><line class="d" x1="147.65622" y1="159.34006" x2="118.64714" y2="158.3452"/><line class="d" x1="156.85352" y1="155.17766" x2="117.48883" y2="154.19915"/><line class="d" x1="160.24988" y1="151.39813" x2="120.50411" y2="149.37862"/><line class="d" x1="156.82213" y1="146.59183" x2="129.70141" y2="145.21623"/><line class="d" x1="154.74738" y1="142.00743" x2="139.23372" y2="140.72953"/><line class="d" x1="154.03273" y1="137.66059" x2="148.49588" y2="136.71048"/><ellipse class="bs" cx="211.64769" cy="157.48873" rx="10.21383" ry="2.85303" transform="translate(-35.42897 249.958) rotate(-57.17176)"/><path class="bt" d="M206.11054,166.07142l-33.37917-21.5347c-1.32409-.85424.08206-5.3899,3.13976-10.12939s6.61045-7.89022,7.93454-7.036l33.37917,21.5347c-1.32409-.85424-4.87686,2.29652-7.93454,7.036S204.78645,165.21718,206.11054,166.07142Z"/><line class="d" x1="183.42745" y1="151.43734" x2="174.64758" y2="136.44889"/><line class="d" x1="192.27939" y1="157.1482" x2="177.39168" y2="132.23088"/><line class="d" x1="200.76249" y1="162.62111" x2="180.24802" y2="129.01021"/><line class="d" x1="205.77959" y1="163.42666" x2="185.93336" y2="128.93127"/><line class="d" x1="207.96068" y1="157.94096" x2="194.41646" y2="134.40417"/><line class="d" x1="210.68865" y1="153.71255" x2="203.35369" y2="139.98283"/><line class="d" x1="213.95419" y1="150.75587" x2="211.7515" y2="145.58794"/><ellipse class="bu" cx="190.74685" cy="136.84713" rx="2.85303" ry="10.21383" transform="translate(-39.45521 90.81986) rotate(-24.34993)"/><path class="bv" d="M194.95811,146.1524l-36.18937,16.3781c-1.43556.64969-4.485-2.99044-6.81049-8.12894s-3.04757-9.83189-1.612-10.48158l36.18936-16.3781c-1.43556.64969-.71349,5.3431,1.612,10.48157S193.52254,146.80209,194.95811,146.1524Z"/><line class="d" x1="170.36533" y1="157.28227" x2="153.0107" y2="156.53636"/><line class="d" x1="179.96251" y1="152.93891" x2="150.95343" y2="151.94405"/><line class="d" x1="189.15981" y1="148.77652" x2="149.79512" y2="147.798"/><line class="d" x1="192.55617" y1="144.99698" x2="152.8104" y2="142.97748"/><line class="d" x1="189.12843" y1="140.19068" x2="162.0077" y2="138.81508"/><line class="d" x1="187.05368" y1="135.60628" x2="171.54001" y2="134.32839"/><line class="d" x1="186.33902" y1="131.25944" x2="180.80217" y2="130.30933"/><ellipse class="bw" cx="204.02803" cy="123.2612" rx="2.85303" ry="10.21383" transform="translate(-32.67218 95.08726) rotate(-24.34993)"/><path class="bx" d="M208.23929,132.56647l-36.18936,16.3781c-1.43557.64969-4.485-2.99044-6.8105-8.12894s-3.04757-9.83189-1.612-10.48158l36.18937-16.3781c-1.43557.64969-.7135,5.34309,1.612,10.48157S206.80372,133.21616,208.23929,132.56647Z"/><line class="d" x1="183.64652" y1="143.69634" x2="166.29188" y2="142.95043"/><line class="d" x1="193.2437" y1="139.35298" x2="164.23461" y2="138.35812"/><line class="d" x1="202.44099" y1="135.19058" x2="163.07631" y2="134.21206"/><line class="d" x1="205.83736" y1="131.41105" x2="166.09159" y2="129.39154"/><line class="d" x1="202.40961" y1="126.60475" x2="175.28888" y2="125.22915"/><line class="d" x1="200.33486" y1="122.02035" x2="184.82119" y2="120.74245"/><line class="d" x1="199.6202" y1="117.67351" x2="194.08336" y2="116.7234"/><ellipse class="by" cx="90.4238" cy="132.31163" rx="2.85303" ry="10.21383" transform="matrix(0.85954, -0.51107, 0.51107, 0.85954, -54.91957, 64.79765)"/><path class="bz" d="M85.2038,123.53244l34.1434-20.30124c1.35441-.80531,4.78973,2.4731,7.67229,7.3211s4.12211,9.432,2.7677,10.23728l-34.1434,20.30124c1.3544-.80532.11485-5.3893-2.7677-10.23728S86.5582,122.72713,85.2038,123.53244Z"/><line class="d" x1="108.40622" y1="109.73657" x2="125.73615" y2="108.54779"/><line class="d" x1="99.35162" y1="115.12032" x2="128.29138" y2="112.88281"/><line class="d" x1="90.67429" y1="120.27975" x2="129.9036" y2="116.87433"/><line class="d" x1="87.71933" y1="124.41356" x2="127.44313" y2="122.00029"/><line class="d" x1="91.66034" y1="128.80884" x2="118.76581" y2="127.15972"/><line class="d" x1="94.23206" y1="133.13406" x2="109.79161" y2="132.6787"/><line class="d" x1="95.42571" y1="137.37445" x2="101.03387" y2="137.7029"/><ellipse class="ca" cx="122.67429" cy="137.86751" rx="2.85303" ry="10.21383" transform="translate(-45.93136 62.84374) rotate(-24.34993)"/><path class="cb" d="M126.88555,147.17278l-36.18937,16.3781c-1.43556.64969-4.485-2.99044-6.81049-8.12894s-3.04757-9.83189-1.612-10.48158l36.18936-16.3781c-1.43556.64968-.71349,5.34309,1.612,10.48157S125.45,147.82247,126.88555,147.17278Z"/><line class="d" x1="102.29278" y1="158.30265" x2="84.93814" y2="157.55674"/><line class="d" x1="111.88996" y1="153.95928" x2="82.88087" y2="152.96443"/><line class="d" x1="121.08725" y1="149.79689" x2="81.72257" y2="148.81837"/><line class="d" x1="124.48362" y1="146.01736" x2="84.73784" y2="143.99785"/><line class="d" x1="121.05587" y1="141.21105" x2="93.93514" y2="139.83546"/><line class="d" x1="118.98112" y1="136.62665" x2="103.46745" y2="135.34876"/><line class="d" x1="118.26646" y1="132.27982" x2="112.72962" y2="131.32971"/><ellipse class="cc" cx="83.15392" cy="116.35334" rx="2.85303" ry="10.21383" transform="translate(-40.57645 44.63535) rotate(-24.34993)"/><path class="cd" d="M87.36517,125.65861l-36.18936,16.3781c-1.43557.64969-4.485-2.99044-6.8105-8.12894s-3.04757-9.83189-1.612-10.48158l36.18937-16.3781c-1.43557.64968-.7135,5.34309,1.612,10.48157S85.92961,126.3083,87.36517,125.65861Z"/><line class="d" x1="62.7724" y1="136.78848" x2="45.41776" y2="136.04257"/><line class="d" x1="72.36958" y1="132.44511" x2="43.36049" y2="131.45026"/><line class="d" x1="81.56687" y1="128.28272" x2="42.20219" y2="127.3042"/><line class="d" x1="84.96324" y1="124.50319" x2="45.21747" y2="122.48368"/><line class="d" x1="81.53549" y1="119.69688" x2="54.41476" y2="118.32129"/><line class="d" x1="79.46074" y1="115.11248" x2="63.94707" y2="113.83459"/><line class="d" x1="78.74608" y1="110.76565" x2="73.20924" y2="109.81554"/><ellipse class="ce" cx="61.28779" cy="161.64478" rx="2.85303" ry="10.21383" transform="translate(-107.9421 126.33935) rotate(-57.45147)"/><path class="cf" d="M52.67817,156.14959l21.37149-33.4839c.84777-1.32824,5.39024.05575,10.1446,3.09027s7.9224,6.57186,7.07463,7.9001L69.8974,167.14c.84777-1.32824-2.3203-4.86559-7.07463-7.9001S53.52594,154.82135,52.67817,156.14959Z"/><line class="d" x1="67.20134" y1="133.39534" x2="82.14675" y2="124.5424"/><line class="d" x1="61.53376" y1="142.27505" x2="86.3781" y2="127.26587"/><line class="d" x1="56.10233" y1="150.78477" x2="89.61268" y2="130.10646"/><line class="d" x1="55.32128" y1="155.80573" x2="89.71938" y2="135.79134"/><line class="d" x1="60.81756" y1="157.96002" x2="84.28795" y2="144.30106"/><line class="d" x1="65.05924" y1="160.66732" x2="78.75299" y2="153.26542"/><line class="d" x1="68.03182" y1="163.91839" x2="73.18894" y2="161.69049"/><ellipse class="cg" cx="54.15937" cy="136.67624" rx="2.85303" ry="10.21383" transform="translate(-51.53498 34.48849) rotate(-24.34993)"/><path class="ch" d="M58.37062,145.98151l-36.18936,16.3781c-1.43557.64969-4.485-2.99044-6.8105-8.12894s-3.04757-9.83189-1.612-10.48158L49.94812,127.371c-1.43557.64969-.7135,5.3431,1.612,10.48158S56.93506,146.6312,58.37062,145.98151Z"/><line class="d" x1="33.77785" y1="157.11138" x2="16.42321" y2="156.36547"/><line class="d" x1="43.37503" y1="152.76802" x2="14.36594" y2="151.77316"/><line class="d" x1="52.57232" y1="148.60563" x2="13.20764" y2="147.62711"/><line class="d" x1="55.96869" y1="144.82609" x2="16.22292" y2="142.80659"/><line class="d" x1="52.54094" y1="140.01979" x2="25.42021" y2="138.6442"/><line class="d" x1="50.46619" y1="135.43539" x2="34.95252" y2="134.1575"/><line class="d" x1="49.75153" y1="131.08855" x2="44.21469" y2="130.13844"/><path class="ci" d="M.99783,64.73282v372h265v-372Zm235,148.97h-206v-87.76h206Z"/><polygon class="cj" points="313.998 374.904 266.998 436.469 266.998 64.469 313.998 2.904 313.998 374.904"/><polygon class="ck" points="265.998 64.733 0.998 64.733 48.998 0.5 313.998 0.5 265.998 64.733"/><g class="cl"><polygon class="cm" points="311.902 357.787 271.916 412.808 271.916 281.45 311.902 226.428 311.902 357.787"/><polygon class="cm" points="311.902 357.787 271.916 412.808 271.916 281.45 311.902 226.428 311.902 357.787"/><polygon class="cn" points="307.473 399.079 276.522 441.669 276.522 283.482 307.473 240.892 307.473 399.079"/><ellipse class="cm" cx="292.92289" cy="431.60955" rx="122.505" ry="38.55832" transform="translate(-194.66445 616.94494) rotate(-76.64837)"/></g><path class="co" d="M289.807,372.16759l-.021,15.53027-2.38965,3.28906v-16.6543q0-6.57421-2.20166-3.54687l-1.80273,2.48047-.56641,6.24609,1.86621-2.56738v4.73828l-2.28515,3.14453q-.81812,1.125-1.39405.8086-.57714-.31641-.57666-1.93848c0-.22852.00684-.46484.021-.71289l.90137-11.66016,4.00439-5.51074Q289.80625,359.69982,289.807,372.16759Z"/><path class="co" d="M303.72691,355.5338a27.26688,27.26688,0,0,1-2.03028,9.498,32.45149,32.45149,0,0,1-3.91308,7.64649q-2.15551,2.96631-3.89258,3.09472-2.03028.189-2.02978-3.91211V356.87266l2.38964-3.28906v14.39063a7.11158,7.11158,0,0,0,.042.9248,16.94547,16.94547,0,0,0,2.30615-7.82715V350.35313l2.38965-3.28808v11.3164a28.7404,28.7404,0,0,1-3.00293,11.69141,11.03211,11.03211,0,0,0,1.72021-2.02637,20.54387,20.54387,0,0,0,2.67627-4.9414,14.04339,14.04339,0,0,0,.95459-4.88086V343.83311l2.39014-3.28808Z"/><path class="co" d="M280.42027,356.28575c.3955-.584.75049-1.09375,1.064-1.52441a8.311,8.311,0,0,1,.78174-.959,1.94248,1.94248,0,0,1,.5835-.42773.425.425,0,0,1,.45752.03613c.26269.2207.394.832.394,1.83984v7.77149l-.70361.96875v-7.78906q0-2.30566-1.51758-.2168-.45777.63135-1.05957,1.51953Z"/><path class="co" d="M288.15269,347.71739a.31656.31656,0,0,0-.38379-.14355,1.33219,1.33219,0,0,0-.57422.53027q-.33471.46143-.58984.89746v-1.17383a8.84378,8.84378,0,0,1,.605-.94531,3.081,3.081,0,0,1,.66113-.70313.59559.59559,0,0,1,.56543-.11621.86889.86889,0,0,1,.44092.51075,8.893,8.893,0,0,1,.39062,3.21875q0,1.1748-.11035,2.29a19.45251,19.45251,0,0,1-.30322,2.04,16.30134,16.30134,0,0,1-.46436,1.75293,11.22862,11.22862,0,0,1-.585,1.46485,7.64062,7.64062,0,0,1-.66992,1.1289,3.14146,3.14146,0,0,1-.66943.71387.65852.65852,0,0,1-.585.14551.824.824,0,0,1-.46485-.47461,4.19856,4.19856,0,0,1-.30273-1.20606,15.04943,15.04943,0,0,1-.11035-1.98632v-5.56836l.729-1.00391v5.56836a9.40187,9.40187,0,0,0,.28418,2.72656c.10156.30957.24756.458.437.44922.189-.00976.40332-.18066.644-.51074a5.34581,5.34581,0,0,0,.6084-1.09375,8.19983,8.19983,0,0,0,.40284-1.23145,13.01465,13.01465,0,0,0,.252-1.374,21.38467,21.38467,0,0,0,.17383-2.82129q0-.75-.02979-1.31836a8.37426,8.37426,0,0,0-.11816-1.05859A1.99624,1.99624,0,0,0,288.15269,347.71739Z"/><path class="co" d="M292.18,340.0421q.98364-1.35352,1.55762-.7168.575.63282.57471,3.52539,0,1.1748-.10987,2.29053a19.583,19.583,0,0,1-.30322,2.04,16.48186,16.48186,0,0,1-.46435,1.75293,11.27116,11.27116,0,0,1-.58545,1.46484A7.628,7.628,0,0,1,292.18,351.527a3.12848,3.12848,0,0,1-.66992.71484.66081.66081,0,0,1-.585.14551.82635.82635,0,0,1-.46436-.47461,4.21264,4.21264,0,0,1-.30322-1.206,15.15056,15.15056,0,0,1-.11035-1.98731,22.87179,22.87179,0,0,1,.18066-2.98047,17.18686,17.18686,0,0,1,.44727-2.32861l-.543.81543v-1.2168Q291.0272,341.62756,292.18,340.0421Zm-1.23974,4.94482a24.08834,24.08834,0,0,0-.16358,2.5752q0,1.07813.06592,1.75293a5.26877,5.26877,0,0,0,.21826,1.13379q.15234.457.43653.44335.28344-.01464.68261-.56445a5.4359,5.4359,0,0,0,.68213-1.31347,9.327,9.327,0,0,0,.437-1.65137,20.48475,20.48475,0,0,0,.28418-3.50928,6.52015,6.52015,0,0,0-.40722-3.03125.32161.32161,0,0,0-.40674-.1084,1.52836,1.52836,0,0,0-.58936.55469l-.75879,1.0625A17.20513,17.20513,0,0,0,290.94029,344.98692Z"/><path class="co" d="M299.12437,330.66124v3.61719c0,.47265-.01074.8955-.03027,1.26367q-.02931.55371-.12256,1.25293a9.65538,9.65538,0,0,1-.81006,2.76367l1.05566,2.11328-.793,1.09082-1.33545-2.81641-.644-1.083a5.30936,5.30936,0,0,0-.2456.59863,8.84577,8.84577,0,0,0-.40284,2.78027v4.13721l-.7041.96875v-3.61768a15.59737,15.59737,0,0,1,.27539-3.18554,10.29729,10.29729,0,0,1,.30811-1.11914,9.49291,9.49291,0,0,1,.47217-1.16309l-1.05127-2.05957.79687-1.09668,1.25537,2.582.70752,1.26172a8.05781,8.05781,0,0,0,.31983-.97461,8.401,8.401,0,0,0,.17431-.99121,10.07637,10.07637,0,0,0,.06983-1.21777V331.63Z"/><path class="co" d="M302.55747,325.76378q.80127-1.1045,1.20215-.66993A3.64026,3.64026,0,0,1,304.16,327.255v7.61523l-1.86523,2.56641v-1.11328l1.16162-1.59766v-6.44141q0-2.54882-1.145-.97363a4.39294,4.39294,0,0,0-.39209.68164,8.15438,8.15438,0,0,0-.32422.78809c-.18652.5498-.31787.98535-.39453,1.30273l-.05029.208-.40332,9.27539-.70752.97461.39844-9.11523v-.18946c0-.10351-.01954-.34179-.05909-.71289a4.835,4.835,0,0,0-.14892-.84863l-.11035-.38379.70849-.97461a3.21383,3.21383,0,0,1,.19483.90625l.02978-.041a13.66416,13.66416,0,0,1,.52979-1.61036q.16113-.394.42382-.90136A6.96358,6.96358,0,0,1,302.55747,325.76378Z"/><path class="cm" d="M297.38539,276.80961c0,4.87454-2.36653,15.66472-5.28579,19.68166s-5.2858-.26052-5.2858-5.13506,2.36653-20.86916,5.2858-24.88609S297.38539,271.93509,297.38539,276.80961Z"/><path class="cm" d="M292.51172,316.088c-.04659,7.05014.13447,13.19759.38964,18.548l-2.5337,3.48638c.44576-6.9525.9328-14.136,1.0768-20.31189a155.95758,155.95758,0,0,0-.74751-19.75714c-.14929-1.42754-.324-2.88686-.52834-4.3684l3.3172-1.84535c-.05611.77971-.11329,1.60908-.17046,2.48292C292.94583,299.9727,292.5689,307.55153,292.51172,316.088Z"/><path class="cm" d="M306.63386,252.31826l-4.61439,38.429c-.17857,1.48722-.94755,2.61726-1.13908,1.66932a53.68848,53.68848,0,0,1-.53081-13.75312,107.96837,107.96837,0,0,1,5.38334-26.62943C306.20908,250.64853,306.81134,250.84017,306.63386,252.31826Z"/><path class="cm" d="M299.73442,310.85951c-.6643,7.33305-1.08826,13.87637-1.3889,19.637l-2.08722,1.9369c.93518-6.96248,1.92-14.1385,2.57418-20.49275.52337-5.08162,1.11761-12.37459,1.24655-21.14081q.035-2.38746.02129-4.91865l2.489.30451c-.10917.7767-.22353,1.60457-.34188,2.47889C301.4824,294.318,300.53932,301.981,299.73442,310.85951Z"/><polygon class="cm" points="281.475 308.319 280.729 309.604 279.984 310.889 279.31 299.185 278.636 287.481 280.055 297.9 281.475 308.319"/><polygon class="cm" points="284.11 303.767 283.365 305.051 282.619 306.336 281.946 294.632 281.272 282.928 282.691 293.348 284.11 303.767"/><polygon class="cm" points="282.775 306.057 282.03 307.341 281.284 308.626 280.611 296.922 279.937 285.218 281.356 295.638 282.775 306.057"/><polygon class="cm" points="285.371 301.619 284.625 302.904 283.88 304.188 283.206 292.485 282.533 280.781 283.952 291.2 285.371 301.619"/><polygon class="cm" points="283.924 314.239 281.946 312.541 279.968 310.842 282.696 306.068 285.425 301.295 284.674 307.767 283.924 314.239"/><path class="cm" d="M286.11217,325.24651c.72957,5.22366,1.55025,9.71887,2.34575,13.605l-1.729,3.25839c-.38668-5.25885-.76417-10.69957-1.31737-15.30319a98.95231,98.95231,0,0,0-2.7754-14.4025c-.27985-1.015-.5843-2.04669-.91586-3.08682l2.56-2.25613c.03827.59141.08106,1.21983.12871,1.8811C284.71721,313.21813,285.22944,318.92141,286.11217,325.24651Z"/><path class="cp" d="M91.36167,250.34434c0-6.21582-.56006-8.67968-5.82373-8.67968h-9.52a35.7804,35.7804,0,0,1-6.43994-.33643l.95215-4.98389a61.58,61.58,0,0,0,7.72754.22412H85.93c7.95166,0,9.74366,2.2959,9.74366,11.48v18.98389h-4.312Zm-20.66357.67188h4.36767v16.01611H70.6981Z"/><path class="cp" d="M101.21812,236.79259l5.26367-.50391c1.3999,6.71973,2.91211,15.7915,4.312,25.75976a45.111,45.111,0,0,0,4.7041-.61621c6.21582-1.064,9.79981-5.48779,9.79981-11.87158,0-5.376-2.74365-8.40039-7-8.45605a13.27626,13.27626,0,0,0-5.0957,1.00781l.95166-5.208a13.32742,13.32742,0,0,1,5.15234-.896c7.11182,0,10.416,5.48779,10.35986,12.65576,0,11.87207-7.95215,16.352-14.11181,17.64013a73.56145,73.56145,0,0,1-8.28809,1.12012C105.58579,257.45616,103.62583,245.64024,101.21812,236.79259Z"/><path class="cp" d="M136.21665,241.6085a15.34631,15.34631,0,0,1-2.85595-.33593l1.0083-4.98389a63.3264,63.3264,0,0,0,7.95166.27978h12.71191c6.832,0,8.064,3.584,8.064,9.35206,0,13.15966-7.67188,19.26367-15.11963,20.60791a62.09232,62.09232,0,0,1-7.22412.896C139.35288,259.86436,137.00083,245.80821,136.21665,241.6085Zm12.544,19.87989c6.94434-1.39991,9.91211-7.168,9.91211-14.33594,0-3.6958-1.064-5.48779-4.92774-5.48779H140.69663c.67237,4.08789,2.57618,15.17578,3.47217,20.4956A45.21405,45.21405,0,0,0,148.7606,261.48839Z"/><path class="cp" d="M168.80943,262.21641c1.34375-.22412,5.0957-.22412,8.51172-.28027h12.04V251.91221c-.05616-6.15966-1.96-8.51171-8.90381-9.688-2.52-.44776-4.76026-.7837-6.21631-1.00782a11.168,11.168,0,0,0-1.56787,4.5918c0,2.01611,1.34424,3.36035,5.43213,4.03223l-1.12012,4.81591c-6.21582-.78417-8.34375-3.6958-8.34375-7.78417,0-3.47168,2.52-7.7837,3.6958-10.97559.896.22363,3.97607.728,8.68018,1.3999,8.3999,1.12012,12.71191,3.80811,12.65576,13.55176v11.42432c0,.61572-.56006,3.97558-.728,4.75976H175.47349c-2.80029,0-6.32813,0-7.61621.168Z"/><path class="cq" d="M85.91745,411.37115h-.53213l.0964-.30812C85.62825,411.16844,85.77478,411.2698,85.91745,411.37115Z"/><path class="cm" d="M85.91745,411.37115h-.53213l.0964-.30812C85.62825,411.16844,85.77478,411.2698,85.91745,411.37115Z"/><path class="cr" d="M119.47819,358.38918c.12163,11.69958-17.99077,21.395-40.45863,21.6532-22.15168.25456-50.61614-6.86266-51.576-18.32962,5.66863,7.03814,23.213,9.41966,45.98831,7.94565,21.5537-1.391,39.54174-7.47255,45.48662-14.66444A11.3082,11.3082,0,0,1,119.47819,358.38918Z"/><path class="cs" d="M256.23913,266.28668c-6.179-9.731-38.0907,1.2613-71.28063,24.55738-32.72286,22.96824-72.49266,62.08455-67.67313,72.50168,4.51365-11.7084,30.79387-35.51174,65.09671-58.13145,32.46084-21.40972,62.22568-35.2384,74.87875-35.555A6.907,6.907,0,0,0,256.23913,266.28668Z"/><path class="co" d="M111.60744,361.577c.0506,3.08339-18.046,9.23436-41.02163,9.65118s-42.13-5.05832-42.18057-8.14172,18.58984-30.54031,41.13654-29.06C96.60863,335.80348,111.55683,358.49363,111.60744,361.577Z"/><ellipse class="ct" cx="76.19309" cy="338.7786" rx="10.21383" ry="2.85303" transform="translate(-248.122 214.69778) rotate(-56.38826)"/><path class="cu" d="M81.84708,330.27243l33.08158,21.98912c1.31229.87227-.15575,5.38827-3.278,10.08551s-6.71773,7.79909-8.03,6.92682L70.53909,347.28476c1.31229.87227,4.90781-2.22961,8.03-6.92682S83.15937,331.1447,81.84708,330.27243Z"/><line class="d" x1="104.32794" y1="345.21531" x2="112.90203" y2="360.32242"/><line class="d" x1="95.55492" y1="339.38394" x2="110.10052" y2="364.50251"/><line class="d" x1="87.14745" y1="333.79555" x2="107.2004" y2="367.68382"/><line class="d" x1="82.14184" y1="332.92147" x2="101.51451" y2="367.68501"/><line class="d" x1="79.88594" y1="338.37683" x2="93.10704" y2="362.09662"/><line class="d" x1="77.1004" y1="342.56754" x2="84.24693" y2="356.39628"/><line class="d" x1="73.79473" y1="345.47929" x2="75.92655" y2="350.67686"/><ellipse class="cv" cx="65.40451" cy="344.52823" rx="2.85303" ry="10.21383" transform="translate(-136.23379 57.61457) rotate(-24.34993)"/><path class="cw" d="M69.61577,353.8335,33.42641,370.2116c-1.43557.64969-4.485-2.99044-6.8105-8.12895s-3.04757-9.83188-1.612-10.48157L61.19326,335.223c-1.43556.64969-.71349,5.3431,1.612,10.48158S68.1802,354.48318,69.61577,353.8335Z"/><line class="d" x1="45.023" y1="364.96337" x2="27.66836" y2="364.21746"/><line class="d" x1="54.62018" y1="360.62" x2="25.61109" y2="359.62515"/><line class="d" x1="63.81747" y1="356.45761" x2="24.45279" y2="355.47909"/><line class="d" x1="67.21384" y1="352.67808" x2="27.46806" y2="350.65857"/><line class="d" x1="63.78609" y1="347.87177" x2="36.66536" y2="346.49618"/><line class="d" x1="61.71134" y1="343.28737" x2="46.19767" y2="342.00948"/><line class="d" x1="60.99668" y1="338.94054" x2="55.45984" y2="337.99042"/><ellipse class="cx" cx="77.51903" cy="365.78171" rx="2.85303" ry="10.21383" transform="translate(-120.90095 48.86694) rotate(-20.08515)"/><path class="cy" d="M74.01143,356.189l37.30713-13.6415c1.4799-.54113,4.25017,3.31569,6.18712,8.6129s2.308,10.0313.82808,10.57243L81.02663,375.37437c1.4799-.54113,1.10886-5.27524-.82808-10.57243S75.49134,355.6479,74.01143,356.189Z"/><line class="d" x1="99.36379" y1="346.91884" x2="116.6149" y2="348.95327"/><line class="d" x1="89.47019" y1="350.53648" x2="118.32496" y2="353.68586"/><line class="d" x1="79.98882" y1="354.00338" x2="119.17174" y2="357.90657"/><line class="d" x1="76.32079" y1="357.51987" x2="115.80633" y2="362.48951"/><line class="d" x1="79.38162" y1="362.56778" x2="106.32496" y2="365.95641"/><line class="d" x1="81.1097" y1="367.29377" x2="96.48538" y2="369.72181"/><line class="d" x1="81.49913" y1="371.68172" x2="86.94999" y2="373.04095"/><ellipse class="cz" cx="46.43676" cy="365.0062" rx="2.85303" ry="10.21383" transform="translate(-122.52495 38.14562) rotate(-20.08515)"/><path class="da" d="M42.92916,355.41352,80.23628,341.772c1.47991-.54114,4.25017,3.31568,6.18712,8.6129s2.308,10.0313.82808,10.57243L49.94435,374.59886c1.47991-.54114,1.10887-5.27525-.82807-10.57243S44.40906,354.87239,42.92916,355.41352Z"/><line class="d" x1="68.28151" y1="346.14333" x2="85.53262" y2="348.17776"/><line class="d" x1="58.38791" y1="349.76096" x2="87.24268" y2="352.91035"/><line class="d" x1="48.90654" y1="353.22787" x2="88.08946" y2="357.13106"/><line class="d" x1="45.23852" y1="356.74436" x2="84.72405" y2="361.714"/><line class="d" x1="48.29935" y1="361.79227" x2="75.24268" y2="365.1809"/><line class="d" x1="50.02743" y1="366.51826" x2="65.40311" y2="368.9463"/><line class="d" x1="50.41685" y1="370.90621" x2="55.86771" y2="372.26544"/><ellipse class="db" cx="37.66565" cy="372.32855" rx="2.85303" ry="10.21383" transform="translate(-125.57299 35.5788) rotate(-20.08515)"/><path class="dc" d="M34.15805,362.73588l37.30713-13.64151c1.4799-.54113,4.25017,3.31569,6.18712,8.6129s2.308,10.0313.82807,10.57244l-37.30712,13.6415c1.4799-.54113,1.10886-5.27524-.82808-10.57243S35.63795,362.19475,34.15805,362.73588Z"/><line class="d" x1="59.51041" y1="353.46568" x2="76.76152" y2="355.50012"/><line class="d" x1="49.6168" y1="357.08332" x2="78.47158" y2="360.2327"/><line class="d" x1="40.13543" y1="360.55022" x2="79.31835" y2="364.45341"/><line class="d" x1="36.46741" y1="364.06672" x2="75.95294" y2="369.03635"/><line class="d" x1="39.52824" y1="369.11462" x2="66.47157" y2="372.50326"/><line class="d" x1="41.25632" y1="373.84062" x2="56.632" y2="376.26866"/><line class="d" x1="41.64575" y1="378.22856" x2="47.0966" y2="379.5878"/><ellipse class="dd" cx="44.30451" cy="348.54213" rx="2.85303" ry="10.21383" transform="translate(-117.00059 36.41208) rotate(-20.08515)"/><path class="de" d="M40.79691,338.94945,78.104,325.308c1.4799-.54113,4.25017,3.31569,6.18712,8.6129s2.308,10.0313.82808,10.57243L47.81211,358.13479c1.4799-.54113,1.10886-5.27524-.82808-10.57243S42.27682,338.40832,40.79691,338.94945Z"/><line class="d" x1="66.14927" y1="329.67926" x2="83.40038" y2="331.71369"/><line class="d" x1="56.25567" y1="333.2969" x2="85.11044" y2="336.44628"/><line class="d" x1="46.7743" y1="336.7638" x2="85.95722" y2="340.66699"/><line class="d" x1="43.10627" y1="340.28029" x2="82.59181" y2="345.24993"/><line class="d" x1="46.1671" y1="345.3282" x2="73.11044" y2="348.71683"/><line class="d" x1="47.89518" y1="350.05419" x2="63.27086" y2="352.48223"/><line class="d" x1="48.28461" y1="354.44214" x2="53.73547" y2="355.80137"/><path class="co" d="M199.99546,424.79259V417.901a32.6901,32.6901,0,0,1,3.39551-.14453q3.84888,0,3.84912,1.89063v5.14551Zm5.96924-.69336V419.776a1.00746,1.00746,0,0,0-.16113-.57714,1.13881,1.13881,0,0,0-.40332-.3711,2.17639,2.17639,0,0,0-.63379-.2041,5.74187,5.74187,0,0,0-.73-.09082q-.33839-.019-.78369-.01953-.9375,0-1.69776.043l-.28418.0166v5.52637Z"/><path class="co" d="M208.75376,417.79356q1.0752-.03661,1.92823-.03711a11.55187,11.55187,0,0,1,1.417.07227,5.77953,5.77953,0,0,1,1.05664.2334,2.85907,2.85907,0,0,1,.82959.41406,1.76039,1.76039,0,0,1,.71435,1.48242v4.834h-1.27539v-4.84473q0-1.43409-2.75-1.43457-.82983,0-1.92041.03808Z"/><path class="co" d="M218.44077,418.47618a5.20835,5.20835,0,0,0-.9375.09668v-.7041a7.65522,7.65522,0,0,1,1.37549-.11231q2.39649,0,2.39649,1.8418v5.19434H220.223l-.146-1.1709h-.06153a1.89764,1.89764,0,0,1-.18066.22558,3.12956,3.12956,0,0,1-.28028.28223,3.5459,3.5459,0,0,1-.82568.51758,3.02224,3.02224,0,0,1-.56836.18066,3.124,3.124,0,0,1-.67236.07227,6.00539,6.00539,0,0,1-1.07569-.07032l.18457-.8164a5.52114,5.52114,0,0,0,1.05225.07031,2.52771,2.52771,0,0,0,1.145-.31152,2.275,2.275,0,0,0,1.0293-1.02051,1.84961,1.84961,0,0,0,.17676-.80566v-2.27247a1.061,1.061,0,0,0-.40723-.93457A2.03326,2.03326,0,0,0,218.44077,418.47618Z"/><path class="co" d="M233.84361,417.76134h-4.49414l-.28467,2.35839a12.93016,12.93016,0,0,1,1.75928-.124,5.32584,5.32584,0,0,1,2.78906.61816,1.88053,1.88053,0,0,1,1.02148,1.68067,2.14821,2.14821,0,0,1-1.10986,1.91211,5.70512,5.70512,0,0,1-3.03467.69336,7.78663,7.78663,0,0,1-2.92285-.42481v-.85937a5.62151,5.62151,0,0,0,1.33252.38183,9.35169,9.35169,0,0,0,1.57861.13379,4.10352,4.10352,0,0,0,2.105-.44824,1.41922,1.41922,0,0,0,.74512-1.28613q0-1.64357-2.88086-1.64356a16.76143,16.76143,0,0,0-1.95117.15528l-.66065-.29493.42286-3.67382h5.585Z"/><path class="co" d="M236.32505,420.82579a4.32782,4.32782,0,0,1,.91406-3.0127,3.56418,3.56418,0,0,1,2.76172-.99707,3.6198,3.6198,0,0,1,2.8003,1.03418,5.34717,5.34717,0,0,1,.03076,6.04785,4.31709,4.31709,0,0,1-5.562-.02636A4.36212,4.36212,0,0,1,236.32505,420.82579Zm5.54639-2.44629a2.10717,2.10717,0,0,0-1.83594-.79,2.14424,2.14424,0,0,0-1.84375.77637,5.678,5.678,0,0,0,0,4.98437,2.13664,2.13664,0,0,0,1.84375.78125,2.11383,2.11383,0,0,0,1.83985-.792,4.28684,4.28684,0,0,0,.57226-2.48437A4.2175,4.2175,0,0,0,241.87144,418.3795Z"/><path class="co" d="M245.32066,420.82579a4.32782,4.32782,0,0,1,.91406-3.0127,3.56418,3.56418,0,0,1,2.76172-.99707,3.61978,3.61978,0,0,1,2.80029,1.03418,5.34712,5.34712,0,0,1,.03076,6.04785,4.31709,4.31709,0,0,1-5.562-.02636A4.36216,4.36216,0,0,1,245.32066,420.82579Zm5.54638-2.44629a2.10715,2.10715,0,0,0-1.83593-.79,2.14422,2.14422,0,0,0-1.84375.77637,5.678,5.678,0,0,0,0,4.98437,2.13662,2.13662,0,0,0,1.84375.78125,2.11383,2.11383,0,0,0,1.83984-.792,4.28675,4.28675,0,0,0,.57227-2.48437A4.21749,4.21749,0,0,0,250.867,418.3795Z"/><polygon class="cp" points="310.394 218.011 274.357 263.298 273.805 231.202 309.842 185.915 310.394 218.011"/><polygon class="cm" points="290.379 240.724 287.652 244.15 287.182 216.832 289.909 213.405 290.379 240.724"/><polygon class="cm" points="292.216 238.415 290.853 240.128 290.383 212.81 291.746 211.096 292.216 238.415"/><polygon class="cm" points="297.091 232.288 296.41 233.145 295.939 205.826 296.621 204.97 297.091 232.288"/><polygon class="cm" points="296.087 233.55 294.361 235.719 293.891 208.4 295.617 206.232 296.087 233.55"/><polygon class="cm" points="293.876 236.329 292.512 238.042 292.042 210.724 293.406 209.011 293.876 236.329"/><polygon class="cm" points="300.455 228.061 297.728 231.488 297.258 204.169 299.985 200.743 300.455 228.061"/><polygon class="cm" points="302.292 225.752 300.929 227.465 300.459 200.147 301.822 198.434 302.292 225.752"/><polygon class="cm" points="307.167 219.626 306.486 220.482 306.016 193.164 306.697 192.307 307.167 219.626"/><polygon class="cm" points="306.163 220.888 304.437 223.056 303.967 195.738 305.693 193.57 306.163 220.888"/><polygon class="cm" points="303.952 223.667 302.589 225.38 302.118 198.061 303.482 196.348 303.952 223.667"/><polygon class="cm" points="280.406 253.256 277.68 256.682 277.21 229.364 279.936 225.938 280.406 253.256"/><polygon class="cm" points="282.244 250.947 280.88 252.66 280.41 225.342 281.774 223.629 282.244 250.947"/><polygon class="cm" points="287.119 244.82 286.437 245.677 285.967 218.359 286.649 217.502 287.119 244.82"/><polygon class="cm" points="286.114 246.083 284.389 248.251 283.919 220.932 285.644 218.764 286.114 246.083"/><polygon class="cm" points="283.903 248.861 282.54 250.574 282.07 223.256 283.433 221.543 283.903 248.861"/><g class="df"><polygon class="cm" points="311.292 148.738 271.306 203.76 271.306 72.401 311.292 17.38 311.292 148.738"/><polygon class="cm" points="311.292 148.738 271.306 203.76 271.306 72.401 311.292 17.38 311.292 148.738"/><polygon class="dg" points="306.864 190.031 275.913 232.621 275.913 74.434 306.864 31.844 306.864 190.031"/><ellipse class="cm" cx="292.31358" cy="222.5614" rx="122.505" ry="38.55832" transform="translate(8.26477 455.57873) rotate(-76.64837)"/></g><path class="co" d="M289.19761,163.11534l-.021,15.53027-2.38964,3.28907v-16.6543q0-6.57422-2.20166-3.54688l-1.80274,2.48047-.5664,6.2461,1.86621-2.56739V172.631l-2.28516,3.14454q-.81811,1.125-1.394.80859-.57716-.31641-.57666-1.93848c0-.22851.00683-.46484.021-.71289l.90137-11.66015,4.00439-5.51075Q289.19689,150.64757,289.19761,163.11534Z"/><path class="co" d="M303.11753,146.48155a27.26717,27.26717,0,0,1-2.03027,9.49805,32.45159,32.45159,0,0,1-3.91309,7.64648q-2.15551,2.96631-3.89257,3.09473-2.03028.189-2.02979-3.91211V147.82042l2.38965-3.28907V158.922a7.11388,7.11388,0,0,0,.042.9248,16.94543,16.94543,0,0,0,2.30615-7.82714V141.30089l2.38965-3.28809v11.31641a28.74023,28.74023,0,0,1-3.00293,11.6914,11.03221,11.03221,0,0,0,1.72022-2.02636,20.54411,20.54411,0,0,0,2.67627-4.94141,14.04362,14.04362,0,0,0,.95459-4.88086V134.78135l2.39013-3.28808Z"/><path class="co" d="M279.81089,147.23546c.39551-.584.75049-1.09375,1.064-1.52442a8.31156,8.31156,0,0,1,.78174-.959,1.94251,1.94251,0,0,1,.58349-.42774.425.425,0,0,1,.45752.03614c.2627.2207.394.832.394,1.83984v7.77148l-.70361.96875v-7.78906q0-2.30566-1.51758-.21679-.45775.63134-1.05957,1.51953Z"/><path class="co" d="M287.54331,138.6671a.31658.31658,0,0,0-.38379-.14356,1.33229,1.33229,0,0,0-.57421.53028q-.33472.46142-.58985.89746v-1.17383a8.84279,8.84279,0,0,1,.605-.94531,3.08105,3.08105,0,0,1,.66114-.70313.59556.59556,0,0,1,.56543-.11621.86885.86885,0,0,1,.44091.51074,8.89274,8.89274,0,0,1,.39063,3.21875q0,1.17481-.11035,2.29a19.45239,19.45239,0,0,1-.30323,2.04,16.302,16.302,0,0,1-.46435,1.75293,11.23069,11.23069,0,0,1-.585,1.46484,7.642,7.642,0,0,1-.66992,1.12891,3.14168,3.14168,0,0,1-.66944.71387.65851.65851,0,0,1-.585.14551.824.824,0,0,1-.46484-.47461,4.19884,4.19884,0,0,1-.30274-1.20606,15.04948,15.04948,0,0,1-.11035-1.98633v-5.56836l.729-1.0039v5.56836a9.40151,9.40151,0,0,0,.28418,2.72656c.10156.30957.24755.458.437.44922.189-.00977.40332-.18067.644-.51074a5.34628,5.34628,0,0,0,.6084-1.09375,8.1998,8.1998,0,0,0,.40283-1.23145,13.01256,13.01256,0,0,0,.252-1.374,21.383,21.383,0,0,0,.17383-2.82129q0-.75-.02978-1.31836a8.37436,8.37436,0,0,0-.11817-1.0586A1.996,1.996,0,0,0,287.54331,138.6671Z"/><path class="co" d="M291.57066,130.99229q.98364-1.35351,1.55761-.71679.575.63281.57471,3.52539,0,1.1748-.10986,2.29a19.5855,19.5855,0,0,1-.30322,2.04,16.48057,16.48057,0,0,1-.46436,1.75293,11.26991,11.26991,0,0,1-.58545,1.46485,7.628,7.628,0,0,1-.66943,1.12793,3.12913,3.12913,0,0,1-.66992.71484.66083.66083,0,0,1-.585.14551.82636.82636,0,0,1-.46435-.47461,4.21239,4.21239,0,0,1-.30322-1.20606,15.14866,15.14866,0,0,1-.11035-1.9873,22.86992,22.86992,0,0,1,.18066-2.98047,17.19346,17.19346,0,0,1,.44726-2.32812l-.543.81543v-1.2168Q290.41783,132.57774,291.57066,130.99229Zm-1.23975,4.94434a24.09065,24.09065,0,0,0-.16357,2.57519q0,1.07813.06592,1.75293a5.2673,5.2673,0,0,0,.21826,1.13379q.15234.457.43652.44336.28345-.01464.68262-.56445a5.43669,5.43669,0,0,0,.68213-1.31348,9.3268,9.3268,0,0,0,.437-1.65137,20.48384,20.48384,0,0,0,.28418-3.50878,6.52,6.52,0,0,0-.40723-3.03125.32159.32159,0,0,0-.40674-.1084,1.52822,1.52822,0,0,0-.58935.55468l-.75879,1.0625A17.20819,17.20819,0,0,0,290.33091,135.93663Z"/><path class="co" d="M298.515,121.61143v3.61719c0,.47266-.01074.89551-.03027,1.26367q-.02929.55371-.12256,1.25293a9.65519,9.65519,0,0,1-.81006,2.76367l1.05567,2.11329-.793,1.09082-1.33545-2.81641-.644-1.083a5.30858,5.30858,0,0,0-.24561.59863,8.84609,8.84609,0,0,0-.40283,2.78028v4.13672l-.7041.96875v-3.61719a15.59683,15.59683,0,0,1,.27539-3.18555,10.3,10.3,0,0,1,.3081-1.11914,9.49371,9.49371,0,0,1,.47217-1.16308l-1.05127-2.05957.79688-1.09668,1.25537,2.582.70752,1.26172a8.05757,8.05757,0,0,0,.31982-.97461,8.4008,8.4008,0,0,0,.17432-.99121,10.07865,10.07865,0,0,0,.06982-1.21778v-4.13672Z"/><path class="co" d="M301.9481,116.714q.80127-1.1045,1.20215-.66992a3.64022,3.64022,0,0,1,.40039,2.16113v7.61524l-1.86524,2.5664v-1.11328l1.16162-1.59765v-6.44141q0-2.54883-1.145-.97363a4.39086,4.39086,0,0,0-.39209.68164,8.15425,8.15425,0,0,0-.32422.78808c-.18653.54981-.31787.98536-.39453,1.30274l-.0503.208-.40332,9.27539-.70752.97461.39844-9.11524v-.18945c0-.10352-.01953-.3418-.05908-.71289a4.835,4.835,0,0,0-.14893-.84864l-.11035-.38378.7085-.97461a3.21383,3.21383,0,0,1,.19482.90625l.02979-.041a13.66582,13.66582,0,0,1,.52978-1.61035q.16113-.39405.42383-.90137A6.96138,6.96138,0,0,1,301.9481,116.714Z"/><path class="cm" d="M296.77608,67.76147c0,4.87453-2.36653,15.66472-5.2858,19.68165s-5.28579-.26052-5.28579-5.13506S288.571,61.4389,291.49028,57.422,296.77608,62.88694,296.77608,67.76147Z"/><path class="cm" d="M291.90241,107.03981c-.04659,7.05014.13447,13.1976.38963,18.548l-2.53369,3.48638c.44575-6.9525.9328-14.136,1.0768-20.31189a155.95946,155.95946,0,0,0-.74751-19.75714c-.14929-1.42754-.324-2.88686-.52835-4.3684l3.31721-1.84535c-.05611.77971-.11329,1.60908-.17046,2.48292C292.33652,90.92455,291.95959,98.50338,291.90241,107.03981Z"/><path class="cm" d="M306.02455,43.27011l-4.61439,38.429c-.17858,1.48721-.94755,2.61725-1.13908,1.66932a53.68811,53.68811,0,0,1-.53081-13.75313,107.96791,107.96791,0,0,1,5.38334-26.62943C305.59976,41.60038,306.202,41.792,306.02455,43.27011Z"/><path class="cm" d="M299.12511,101.81136c-.6643,7.33305-1.08827,13.87637-1.38891,19.637l-2.08721,1.9369c.93517-6.96248,1.92-14.1385,2.57418-20.49275.52337-5.08162,1.1176-12.37458,1.24655-21.14081q.035-2.38746.02129-4.91865l2.489.30451c-.10916.77671-.22353,1.60458-.34187,2.4789C300.87308,85.26985,299.93,92.93289,299.12511,101.81136Z"/><polygon class="cm" points="280.865 99.271 280.12 100.556 279.374 101.841 278.701 90.137 278.027 78.433 279.446 88.852 280.865 99.271"/><polygon class="cm" points="283.501 94.719 282.756 96.003 282.01 97.288 281.336 85.584 280.663 73.88 282.082 84.299 283.501 94.719"/><polygon class="cm" points="282.166 97.009 281.42 98.293 280.675 99.578 280.001 87.874 279.328 76.17 280.747 86.589 282.166 97.009"/><polygon class="cm" points="284.762 92.571 284.016 93.856 283.271 95.14 282.597 83.436 281.923 71.733 283.342 82.152 284.762 92.571"/><polygon class="cm" points="283.315 105.191 281.337 103.492 279.358 101.794 282.087 97.02 284.815 92.247 284.065 98.719 283.315 105.191"/><path class="cm" d="M285.50286,116.19837c.72957,5.22365,1.55025,9.71886,2.34574,13.605l-1.729,3.25839c-.38667-5.25885-.76416-10.69957-1.31737-15.30319a98.951,98.951,0,0,0-2.7754-14.4025c-.27984-1.015-.5843-2.04669-.91586-3.08682l2.56-2.25613c.03827.59141.08107,1.21983.12871,1.8811C284.1079,104.17,284.62012,109.87327,285.50286,116.19837Z"/><polygon class="dh" points="292.168 26.558 194.563 25.997 186.872 17.38 120.822 17.38 99.104 25.997 29.944 25.997 48.998 0.5 313.998 0.5 292.168 26.558"/></svg>