<svg xmlns="http://www.w3.org/2000/svg" xmlns:xlink="http://www.w3.org/1999/xlink" viewBox="0 0 179.17122 133.94226"><defs><style>.a,.b,.c{stroke:#231f20;stroke-miterlimit:10;}.a{fill:url(#a);}.b{fill:url(#b);}.c{fill:url(#c);}.d{fill:#3c2415;}</style><linearGradient id="a" x1="5.53117" y1="388.31861" x2="147.93431" y2="388.31861" gradientTransform="matrix(-0.012, -0.93354, -1.06578, 0.0137, 534.07425, 132.96712)" gradientUnits="userSpaceOnUse"><stop offset="0" stop-color="#754c29"/><stop offset="0.56122" stop-color="#c49a6c"/><stop offset="1" stop-color="#774f2a"/></linearGradient><radialGradient id="b" cx="75.7299" cy="426.63527" r="47.09548" gradientTransform="matrix(0, -0.93362, -1, 0, 512.08173, 138.72735)" gradientUnits="userSpaceOnUse"><stop offset="0" stop-color="#3c2415"/><stop offset="0.56122" stop-color="#603913"/><stop offset="1" stop-color="#3c2415"/></radialGradient><linearGradient id="c" x1="21.12394" y1="468.6343" x2="80.48919" y2="468.6343" gradientTransform="matrix(-0.01285, -0.99992, -0.99992, 0.01285, 512.70398, 113.69771)" xlink:href="#a"/></defs><path class="a" d="M93.69524.5014C74.93867.74248,65.124,30.633,65.5958,67.34324s11.0515,66.33863,29.80806,66.09756,78.075-28.9282,77.60322-65.6384S112.4518.26033,93.69524.5014Z"/><ellipse class="b" cx="85.44646" cy="68.02445" rx="15.17934" ry="60.54548" transform="translate(-0.86717 1.10374) rotate(-0.73636)"/><path class="c" d="M86.01345,40.9669c-15.02917,8.31878-35.0553,15.80515-53.81469,9.142-12.2493-4.35081-17.22307-12.54821-22.88541-9.97567-13.64094,6.19741-10.61458,53.98,3.35821,58.5469,6.81468,2.22734,11.0646-8.77829,25.59574-12.13992,23.25309-5.37938,42.266,3.66631,48.06285,6.71335Z"/><path class="d" d="M120.38305,63.90687V69.2096c0,.13233-.24219,1.36426-.374,1.98047h-9.90136v-7.877a10.963,10.963,0,0,1,.15381-2.11231,7.04354,7.04354,0,0,1-1.58448-.13232l.374-1.958a22.62585,22.62585,0,0,0,3.03662.10987h4.44482C119.76684,59.22035,120.38305,60.14466,120.38305,63.90687Zm-3.93848-2.68408h-4.687v7.96484h6.95312V64.43519C118.71068,62.257,118.4685,61.22279,116.44457,61.22279Z"/><path class="d" d="M121.96508,61.09046l.374-1.958a24.67605,24.67605,0,0,0,3.0586.08789h6.46875l-.396,2.00244h-.83594c-.66015,0-.90234.46191-.90234,2.0459,0,2.64062.11035,5.76513.17627,7.92138h-1.71631c-.022-1.43017-.15381-5.127-.15381-7.5249a3.94241,3.94241,0,0,1,.46191-2.44238h-4.09277A12.81685,12.81685,0,0,1,121.96508,61.09046Z"/><path class="d" d="M136.81518,64.30287c0-1.89209-.22022-2.57422-1.936-2.99219a12.66471,12.66471,0,0,1-1.49658-.418l.374-1.93652a8.19223,8.19223,0,0,0,1.51856.352c2.46435.52832,3.25634,1.34228,3.25634,4.687v7.19482h-1.7163Z"/><path class="d" d="M144.95531,68.98988c2.64014-.77,4.84033-2.55225,4.84033-5.853,0-1.4082-.50585-1.91406-2.17822-1.91406h-3.01416a15.89584,15.89584,0,0,1-3.25683-.1543l.37451-1.936a25.53948,25.53948,0,0,0,3.23437.08789h3.08008c2.81641,0,3.47656.96826,3.47656,3.43261a8.76806,8.76806,0,0,1-6.88672,8.71338Zm-3.16845-4.44483h1.7163V75.41468h-1.7163Z"/><path class="d" d="M162.35814,64.63294c0-2.44238-.22021-3.41015-2.28857-3.41015h-3.74023a14.0282,14.0282,0,0,1-2.53077-.13233l.37452-1.958a24.23967,24.23967,0,0,0,3.03613.08789h3.01465c3.12451,0,3.82861.90234,3.82861,4.51074v7.459h-1.69434Zm-8.11914.26416h1.71631v6.293H154.239Z"/></svg>