<svg xmlns="http://www.w3.org/2000/svg" xmlns:xlink="http://www.w3.org/1999/xlink" viewBox="0 0 133.94226 173.50988"><defs><style>.a,.b,.c{stroke:#231f20;stroke-miterlimit:10;}.a{fill:url(#a);}.b{fill:url(#b);}.c{fill:url(#c);}.d{fill:#3c2415;}</style><linearGradient id="a" x1="-2101.5889" y1="1097.19495" x2="-1959.18576" y2="1097.19495" gradientTransform="matrix(0.93354, 0.012, -0.0137, 1.06578, 1977.77182, -1090.79151)" gradientUnits="userSpaceOnUse"><stop offset="0" stop-color="#c49a6c"/><stop offset="0.56122" stop-color="#f1f2f2"/><stop offset="1" stop-color="#c49a6c"/></linearGradient><radialGradient id="b" cx="-2031.3902" cy="1228.19945" r="47.09548" gradientTransform="matrix(0, 0.93362, -1, 0, 1294.11725, 1984.60935)" gradientUnits="userSpaceOnUse"><stop offset="0" stop-color="#fed095"/><stop offset="1" stop-color="#a97c50"/></radialGradient><linearGradient id="c" x1="-2036.31373" y1="1270.1985" x2="-1976.94849" y2="1270.1985" gradientTransform="translate(2087.81373 -1114.25065) rotate(0.73637)" xlink:href="#a"/></defs><path class="a" d="M133.44086,79.81464c-.24108,18.75656-30.13164,28.57126-66.84184,28.09944S.26039,96.86258.50146,78.106,29.42966.031,66.13986.5028,133.68193,61.05808,133.44086,79.81464Z"/><ellipse class="b" cx="65.91781" cy="88.06341" rx="15.17934" ry="60.54548" transform="translate(-22.98548 152.84402) rotate(-89.26364)"/><path class="c" d="M92.97536,87.49642c-8.31878,15.02918-15.80515,35.0553-9.142,53.81469,4.35081,12.2493,12.54821,17.22308,9.97567,22.88542-6.19741,13.64093-53.98,10.61457-58.5469-3.35821-2.22735-6.81469,8.77829-11.06461,12.13992-25.59574,5.37938-23.25309-3.66631-42.266-6.71335-48.06285Z"/><path class="d" d="M39.12623,44.71543c0-2.26172-.25977-3.042-2.28809-3.53613a9.15328,9.15328,0,0,1-1.76758-.5459l.44141-2.2627a12.98615,12.98615,0,0,0,1.97656.52051c2.80762.65039,3.666,1.53418,3.666,5.35644V57.81992H39.12623Z"/><path class="d" d="M46.719,44.68906c0-2.23535-.25976-3.042-2.28808-3.53613a14.97085,14.97085,0,0,1-1.76856-.49317l.44238-2.28906a9.6045,9.6045,0,0,0,1.794.416c2.91211.625,3.84863,1.58691,3.84863,5.53906v8.502H46.719Z"/><path class="d" d="M51.39771,50.566c.52051-.07812,2.002-.07812,3.53614-.07812h4.96679a27.955,27.955,0,0,0,.49317-4.83594c0-3.48437-.7793-4.60254-3.61426-4.60254H54.388a16.773,16.773,0,0,1-2.99024-.15625l.46778-2.31347a25.26574,25.26574,0,0,0,3.25.10351h2.1582c4.291,0,5.123,1.89844,5.123,6.75977a35.37918,35.37918,0,0,1-.8584,7.38476H54.388a33.60059,33.60059,0,0,0-3.43262.07813Z"/><path class="d" d="M64.78736,50.5914a9.75526,9.75526,0,0,1,2.13281-.12988h.38965c-.02637-2.52246-.2334-7.748-.416-9.41211h-.07813a8.21107,8.21107,0,0,1-1.97558-.18261l.46777-2.28711a31.14828,31.14828,0,0,0,4.082.10351h4.26465c3.82226,0,4.5498.91016,4.5498,5.35645v8.78808H76.176V44.76719c0-2.57422-.28613-3.71778-2.7041-3.71778H68.89576c.12988,1.66407.416,7.61817.39062,9.43848l-.36425,2.33984H66.86744a22.95178,22.95178,0,0,0-2.57324.10352Z"/><path class="d" d="M82.91041,44.84531c.36328-2.59961-.67676-3.61426-2.31446-4.00391l.46778-2.418a3.97262,3.97262,0,0,1,3.5625,3.666,5.35567,5.35567,0,0,1,5.04394-3.64062c4.05664,0,5.04395,3.71875,5.04395,8.73632v3.32813c0,.23437-.28613,1.9502-.36426,2.31445H89.22779c-1.04,0-2.3916.02637-2.9375.07813l.44141-2.31446a24.77588,24.77588,0,0,1,3.19824-.10351h2.73047c.02539-1.0918.02539-2.1582.02539-3.19824,0-3.27637-.416-6.47461-3.458-6.47461-2.88574,0-3.89941,2.86035-4.29,4.62793-.416,1.74218-.96191,4.88867-1.42969,7.38476H81.47974C82.00025,50.15,82.62428,46.76914,82.91041,44.84531Z"/></svg>