<svg xmlns="http://www.w3.org/2000/svg" xmlns:xlink="http://www.w3.org/1999/xlink" viewBox="0 0 97.59896 92.25123"><defs><style>.a{fill:url(#a);}.b{fill:url(#b);}.c{fill:#fff;}</style><linearGradient id="a" y1="47.08525" x2="55.40176" y2="47.08525" gradientUnits="userSpaceOnUse"><stop offset="0" stop-color="#b8915e"/><stop offset="0.39286" stop-color="#b8915e"/><stop offset="1" stop-color="#603913"/></linearGradient><linearGradient id="b" x1="46.94206" y1="46.12561" x2="97.59896" y2="46.12561" gradientUnits="userSpaceOnUse"><stop offset="0" stop-color="#603913"/><stop offset="0.38265" stop-color="#b8915e"/><stop offset="0.77551" stop-color="#805830"/><stop offset="1" stop-color="#b8915e"/></linearGradient></defs><path class="a" d="M55.40176,15.33716l-1.63114.87663V80.43325a61.75207,61.75207,0,0,0-6.73737,9.43339l-.09119-.02287c-5.32909-1.33019-8.99667-7.08932-10.43869-8.88835C32.35287,75.77183,23.04889,73.94994,0,90.4841L1.63454,16.86175C24.68005.3314,33.98741,2.14946,38.13789,7.33307c1.36775,1.71135,4.75162,7.00548,9.662,8.66346a9.45838,9.45838,0,0,0,2.42478.48407A10.0398,10.0398,0,0,0,55.40176,15.33716Z"/><path class="b" d="M97.599,11.45018V85.60442c-2.83341,3.149-7.52761,7.34887-12.83308,6.547-9.18915-1.3818-11.77942-16.50381-19.925-17.89338-2.58687-.44374-6.22742.41647-11.07021,5.92423A63.04822,63.04822,0,0,0,47.03325,89.816c-.0304.0506-.06079.1012-.09119.1557V15.81358q.4306-.74153.8578-1.4363C55.73273,1.34161,61.28473-.50728,64.84083.09994c8.14563,1.39348,10.7359,16.51158,19.92505,17.89727C90.07135,18.79515,94.76555,14.59525,97.599,11.45018Z"/><path class="c" d="M20.2496,43.39877c0-1.72754-.32324-2.24122-1.99707-2.5918a13.50345,13.50345,0,0,1-2.26758-.59375l.6748-4.10254a19.9268,19.9268,0,0,0,2.61817.56641c3.64453.62109,4.53515,1.72754,4.53515,5.88476V56.57064H20.2496Z"/><path class="c" d="M29.78085,43.45248c0-1.88965-.32324-2.34864-2.02442-2.72657-1.24121-.26953-1.72753-.37793-2.24023-.54l.6748-4.0752a19.56873,19.56873,0,0,0,2.56446.5127c3.6709.59375,4.58886,1.80859,4.58886,6.26171v8.44922H29.78085Z"/><path class="c" d="M36.12655,47.25814a39.39821,39.39821,0,0,1,3.94141-.10742h4.15625a23.52067,23.52067,0,0,0,.24316-3.23926c0-2.72656-.83691-3.23926-3.10449-3.23926H39.15a14.15743,14.15743,0,0,1-3.23926-.24316l.70215-4.12988a23.96677,23.96677,0,0,0,3.61719.13476h2.07812c4.64258,0,5.72266,1.67383,5.72266,7.126a40.70445,40.70445,0,0,1-.918,7.77441H39.36581c-1.32227,0-3.18555-.02734-3.94043.08106Z"/><path class="c" d="M50.57186,47.25814a7.34271,7.34271,0,0,1,1.67383-.13476h.26953A62.68681,62.68681,0,0,0,52.191,40.6722h-.05371a5.7465,5.7465,0,0,1-1.67382-.26953l.70214-4.07617a39.30493,39.30493,0,0,0,4.91309.10742h3.58984c4.48047,0,4.9668,1.2959,4.9668,5.56055v9.33984H61.07186V43.39877c0-2.10547-.37793-2.72657-2.07812-2.72657h-3.2666c.1084,1.377.27051,5.02051.27051,6.47852l-.56739,4.18359H52.43417a16.389,16.389,0,0,0-2.59082.16211Z"/><path class="c" d="M68.87753,43.263c.21582-1.67285-.6211-2.42871-2.15918-2.64453l.70117-4.40039a4.36834,4.36834,0,0,1,4.373,3.48242,5.22844,5.22844,0,0,1,4.91308-3.48242c4.12989,0,5.18262,4.07617,5.18262,8.7461v2.26757c-.02734.37793-.54,3.69727-.56738,4.10254H76.0035c-1.02539,0-2.13281.02735-2.5371.08106l.6748-4.12989a16.05808,16.05808,0,0,1,2.72559-.13476h1.377q.08056-1.01222.081-2.02442c0-2.34863-.18847-4.66992-2.59179-4.66992-2.1045,0-2.834,2.26758-3.21192,3.80567-.43164,1.51172-1.02539,4.64258-1.43066,7.07226H67.55429C68.068,48.554,68.74276,44.61263,68.87753,43.263Z"/></svg>