<svg xmlns="http://www.w3.org/2000/svg" xmlns:xlink="http://www.w3.org/1999/xlink" viewBox="0 0 97.59896 92.25123"><defs><style>.a{fill:url(#a);}.b{fill:url(#b);}</style><linearGradient id="a" y1="47.08525" x2="55.40176" y2="47.08525" gradientUnits="userSpaceOnUse"><stop offset="0" stop-color="#b8915e"/><stop offset="0.39286" stop-color="#b8915e"/><stop offset="1" stop-color="#603913"/></linearGradient><linearGradient id="b" x1="46.94206" y1="46.12561" x2="97.59896" y2="46.12561" gradientUnits="userSpaceOnUse"><stop offset="0" stop-color="#603913"/><stop offset="0.38265" stop-color="#b8915e"/><stop offset="0.77551" stop-color="#805830"/><stop offset="1" stop-color="#b8915e"/></linearGradient></defs><path class="a" d="M55.40176,15.33716l-1.63114.87663V80.43325a61.75207,61.75207,0,0,0-6.73737,9.43339l-.09119-.02287c-5.32909-1.33019-8.99667-7.08932-10.43869-8.88835C32.35287,75.77183,23.04889,73.94994,0,90.4841L1.63454,16.86175C24.68005.3314,33.98741,2.14946,38.13789,7.33307c1.36775,1.71135,4.75162,7.00548,9.662,8.66346a9.45838,9.45838,0,0,0,2.42478.48407A10.0398,10.0398,0,0,0,55.40176,15.33716Z"/><path class="b" d="M97.599,11.45018V85.60442c-2.83341,3.149-7.52761,7.34887-12.83308,6.547-9.18915-1.3818-11.77942-16.50381-19.925-17.89338-2.58687-.44374-6.22742.41647-11.07021,5.92423A63.04822,63.04822,0,0,0,47.03325,89.816c-.0304.0506-.06079.1012-.09119.1557V15.81358q.4306-.74153.8578-1.4363C55.73273,1.34161,61.28473-.50728,64.84083.09994c8.14563,1.39348,10.7359,16.51158,19.92505,17.89727C90.07135,18.79515,94.76555,14.59525,97.599,11.45018Z"/></svg>