<svg xmlns="http://www.w3.org/2000/svg" xmlns:xlink="http://www.w3.org/1999/xlink" viewBox="0 0 98.00917 133.79616"><defs><style>.a{fill:url(#a);}.b{fill:url(#b);}.c{fill:url(#c);}.d{fill:url(#d);}.e{fill:url(#e);}.f{fill:url(#f);}.g{fill:url(#g);}.h{fill:url(#h);}.i{fill:url(#i);}.j{fill:url(#j);}.k{fill:url(#k);}.l{fill:url(#l);}.m{fill:#231f20;}</style><linearGradient id="a" x1="16.39198" y1="38.18425" x2="72.1175" y2="134.70369" gradientUnits="userSpaceOnUse"><stop offset="0" stop-color="#d1d3d4"/><stop offset="1"/></linearGradient><linearGradient id="b" x1="36.00989" y1="-2.54451" x2="63.15704" y2="44.47573" xlink:href="#a"/><linearGradient id="c" x1="27.38653" y1="11.25602" x2="33.15211" y2="11.25602" gradientUnits="userSpaceOnUse"><stop offset="0" stop-color="#231f20"/><stop offset="1" stop-color="#939598"/></linearGradient><linearGradient id="d" x1="34.88179" y1="15.86849" x2="40.64737" y2="15.86849" xlink:href="#c"/><linearGradient id="e" x1="35.45835" y1="6.64355" x2="41.22393" y2="6.64355" xlink:href="#c"/><linearGradient id="f" x1="41.80049" y1="11.83258" x2="47.56608" y2="11.83258" xlink:href="#c"/><linearGradient id="g" x1="48.14263" y1="7.79667" x2="53.90822" y2="7.79667" xlink:href="#c"/><linearGradient id="h" x1="53.33166" y1="11.25602" x2="59.09725" y2="11.25602" xlink:href="#c"/><linearGradient id="i" x1="46.98952" y1="15.29193" x2="52.7551" y2="15.29193" xlink:href="#c"/><linearGradient id="j" x1="59.09725" y1="14.71537" x2="64.86283" y2="14.71537" xlink:href="#c"/><linearGradient id="k" x1="59.09725" y1="7.79667" x2="64.86283" y2="7.79667" xlink:href="#c"/><linearGradient id="l" x1="64.86283" y1="11.25602" x2="70.62842" y2="11.25602" xlink:href="#c"/></defs><path class="a" d="M98.00917,112.83251c0,11.5773-21.93761,20.96365-49.00457,20.96365C21.94308,133.79616,0,124.40981,0,112.83251a10.5661,10.5661,0,0,1,2.28334-6.34215L22.28175,34.78378c7.00847,4.38183,17.29448,7.14931,28.75491,7.14931,9.76158,0,18.671-2.00641,25.42819-5.31008l19.82364,70.68606A10.20536,10.20536,0,0,1,98.00917,112.83251Z"/><path class="b" d="M89.94313,20.96943c0,6.22682-5.22362,11.81945-13.52031,15.65358-7.132,3.30367-16.53569,5.31008-26.83879,5.31008-12.09619,0-22.95279-2.76748-30.35-7.14931-6.22682-3.68421-10.009-8.52155-10.009-13.81435C9.22494,13.38194,16.97388,6.74,28.58,3.05575A70.31331,70.31331,0,0,1,49.584,0,73.24749,73.24749,0,0,1,66.11972,1.83345C80.16472,5.11407,89.94313,12.44791,89.94313,20.96943Z"/><ellipse class="c" cx="30.26932" cy="11.25602" rx="2.88279" ry="1.56683"/><ellipse class="d" cx="37.76458" cy="15.86849" rx="2.88279" ry="1.56683"/><ellipse class="e" cx="38.34114" cy="6.64355" rx="2.88279" ry="1.56683"/><ellipse class="f" cx="44.68328" cy="11.83258" rx="2.88279" ry="1.56683"/><ellipse class="g" cx="51.02543" cy="7.79667" rx="2.88279" ry="1.56683"/><ellipse class="h" cx="56.21445" cy="11.25602" rx="2.88279" ry="1.56683"/><ellipse class="i" cx="49.87231" cy="15.29193" rx="2.88279" ry="1.56683"/><ellipse class="j" cx="61.98004" cy="14.71537" rx="2.88279" ry="1.56683"/><ellipse class="k" cx="61.98004" cy="7.79667" rx="2.88279" ry="1.56683"/><ellipse class="l" cx="67.74562" cy="11.25602" rx="2.88279" ry="1.56683"/><path class="m" d="M42.24163,74.5552H40.03509v-8.876q0-2.00684-1.39307-2.00781H33.31683V74.5552H31.11029v-13.71h2.20654v.69433H38.1513a4.383,4.383,0,0,1,2.97461.9668A3.56614,3.56614,0,0,1,42.24163,65.357Z"/><path class="m" d="M54.63714,65.97707q0,.86865-1.85937,3.03711-1.85889,2.16944-1.85938,3.21094V74.5552H48.71185V72.17531a4.37582,4.37582,0,0,1,.96728-2.42968q.89209-1.11621,1.82227-2.26856a3.37436,3.37436,0,0,0,.92969-1.79785V63.67141H46.0346a1.15722,1.15722,0,0,1-1.11572-.4961,3.32551,3.32551,0,0,1-.17334-1.31347V59.20852h2.20605v2.331h6a1.54737,1.54737,0,0,1,1.23975.52051,1.94719,1.94719,0,0,1,.4458,1.31348Z"/><path class="m" d="M68.61956,74.5552H60.811V72.42336H66.413V67.01809q0-3.3457-2.39063-3.34668a3.22683,3.22683,0,0,0-2.19091.85547,3.43477,3.43477,0,0,0-1.16993,2.07031l-1.26464,7.958H57.16546l1.36377-8.082A6.22823,6.22823,0,0,0,58.624,65.605a3.30774,3.30774,0,0,0-.52051-1.71q-.49585-.794-1.51221-2.35547h2.5083a8.57887,8.57887,0,0,1,1.28907,2.15625A5.37239,5.37239,0,0,1,62.124,62.023a4.88408,4.88408,0,0,1,2.33056-.4834,3.66035,3.66035,0,0,1,3.22315,1.53711,6.08857,6.08857,0,0,1,.94189,3.57031Z"/></svg>