<svg xmlns="http://www.w3.org/2000/svg" xmlns:xlink="http://www.w3.org/1999/xlink" viewBox="0 0 160.72529 162.83658"><defs><style>.a,.i,.j{fill:none;}.b{fill:#bca084;}.c{fill:url(#a);}.d{clip-path:url(#b);}.e{fill:#231f20;}.f{fill:url(#c);}.g{fill:#f1f2f2;}.h{fill:url(#d);}.i,.j,.k{stroke:#f7941d;}.i,.j{stroke-linecap:round;stroke-width:4px;}.i,.k{stroke-miterlimit:10;}.j{stroke-linejoin:round;}.k{fill:#fff;stroke-width:3px;}</style><linearGradient id="a" x1="80.36264" y1="155.14107" x2="80.36264" y2="24.45851" gradientUnits="userSpaceOnUse"><stop offset="0" stop-color="#c2b59b"/><stop offset="1" stop-color="#c49a6c"/></linearGradient><clipPath id="b"><polygon class="a" points="72.699 116.469 32.402 116.469 25.503 44.303 65.8 44.303 72.699 116.469"/></clipPath><radialGradient id="c" cx="227.82852" cy="111.51095" r="30.87281" gradientTransform="matrix(0.67518, 0, 0.1023, 1.07011, -115.30089, -31.18331)" gradientUnits="userSpaceOnUse"><stop offset="0" stop-color="#ffde17"/><stop offset="1" stop-color="#f5841f"/></radialGradient><linearGradient id="d" x1="80.36264" y1="53.2551" x2="80.36264" y2="0" xlink:href="#a"/></defs><path class="b" d="M126.08836,162.80869H37.15888a8.49438,8.49438,0,0,1-8.46948-8.46947L14.57361,52.02791c0-4.65821,17.92706-9.73057,22.58527-9.73057h88.92948c4.65821,0,20.4679,3.65856,20.4679,8.31677L134.55784,154.33922A8.49438,8.49438,0,0,1,126.08836,162.80869Z"/><path class="c" d="M129.72827,155.14107H33.29309a9.21131,9.21131,0,0,1-9.1843-9.1843L8.80162,35.01035c0-5.05137,19.44011-10.55184,24.49147-10.55184h96.43518c5.05136,0,22.19539,3.96734,22.19539,9.01871L138.91257,145.95677A9.21131,9.21131,0,0,1,129.72827,155.14107Z"/><g class="d"><polygon class="e" points="72.095 110.149 31.798 110.149 25.503 44.303 65.8 44.303 72.095 110.149"/><polygon class="e" points="72.095 110.149 31.798 110.149 25.503 44.303 65.8 44.303 72.095 110.149"/><polygon class="f" points="69.319 127.793 38.126 127.793 30.546 48.499 61.739 48.499 69.319 127.793"/><ellipse class="e" cx="55.25454" cy="134.06356" rx="46.08367" ry="51.78028" transform="translate(-60.0637 46.15562) rotate(-30.28237)"/></g><path class="g" d="M49.02495,102.09011l.72217,7.7705H47.33794L46.5396,101.513q-.31494-3.29736-2.5332-3.29639H42.1895l-.3081,2.73926h1.87988l.22754,2.376H41.6856a2.14419,2.14419,0,0,1-1.458-.55616,2.02056,2.02056,0,0,1-.71191-1.36963,2.68831,2.68831,0,0,1-.01172-.34326l.40918-5.22217h4.03515Q48.42705,95.84059,49.02495,102.09011Z"/><path class="g" d="M63.17388,103.35329a3.45009,3.45009,0,0,1-1.72461,3.36035,6.64252,6.64252,0,0,1-3.83545,1.13477,7.5959,7.5959,0,0,1-4.03076-1.13477,4.36909,4.36909,0,0,1-2.36719-3.36035l-.71826-7.5127H52.9063l.68945,7.2129a2.23893,2.23893,0,0,0,.08936.49218q2.26831-.57788,2.10107-2.333l-.51367-5.37207h2.40821l.54248,5.67237q.24462,2.562-2.665,3.78808a6.52425,6.52425,0,0,0,1.751.17139,4.58589,4.58589,0,0,0,2.63623-.63086,1.82129,1.82129,0,0,0,.791-1.78808l-.68945-7.2129h2.40869Z"/><path class="g" d="M38.18413,87.657c.397-.01953.75342-.03027,1.06934-.03027a4.50442,4.50442,0,0,1,.79394.05859,2.59891,2.59891,0,0,1,.60547.18848,1.6968,1.6968,0,0,1,.49366.33349,1.87653,1.87653,0,0,1,.51123,1.19483l.37207,3.895h-.709l-.373-3.90381q-.11061-1.1565-1.63965-1.15576-.46143,0-1.06543.02978Z"/><path class="g" d="M46.07574,88.69606a1.25177,1.25177,0,0,0-.41846-.33691,1.27759,1.27759,0,0,0-.59131-.13037,3.534,3.534,0,0,0-.58984.04346L44.42,87.68337a2.78463,2.78463,0,0,1,.60352-.05664,2.18533,2.18533,0,0,1,.67627.104,1.89275,1.89275,0,0,1,.60205.33154,2.37681,2.37681,0,0,1,.498.56006,4.1391,4.1391,0,0,1,.57275,1.8833,4.66257,4.66257,0,0,1-.00879,1.07129,2.66747,2.66747,0,0,1-.227.81348,1.84233,1.84233,0,0,1-.415.55908,1.60092,1.60092,0,0,1-.55762.33057,2.07056,2.07056,0,0,1-.665.104,2.25547,2.25547,0,0,1-.68505-.104,2.03562,2.03562,0,0,1-.6211-.33057,2.411,2.411,0,0,1-.521-.55908,3.17434,3.17434,0,0,1-.38379-.81348,4.955,4.955,0,0,1-.21338-1.07129l-.26709-2.792h.73486l.2666,2.792a3.99038,3.99038,0,0,0,.436,1.562,1.39687,1.39687,0,0,0,.49023.52587,1.23662,1.23662,0,0,0,.66748.18848,1.261,1.261,0,0,0,.60059-.12744.98864.98864,0,0,0,.374-.33984,1.63264,1.63264,0,0,0,.20459-.51563,4.063,4.063,0,0,0,.05127-1.29346c-.02344-.251-.05566-.47851-.09472-.68164a3.62915,3.62915,0,0,0-.17823-.6123A1.95655,1.95655,0,0,0,46.07574,88.69606Z"/><path class="g" d="M50.03277,87.62673a2.11536,2.11536,0,0,1,1.63867.71484,3.68409,3.68409,0,0,1,.78515,2.16406,4.69215,4.69215,0,0,1-.0083,1.07129,2.66672,2.66672,0,0,1-.22754.81348,1.84086,1.84086,0,0,1-.41455.55908,1.6073,1.6073,0,0,1-.5581.33057,2.0684,2.0684,0,0,1-.665.104,2.25,2.25,0,0,1-.68457-.104,2.038,2.038,0,0,1-.62158-.33057,2.42136,2.42136,0,0,1-.521-.55908,3.19072,3.19072,0,0,1-.38379-.81348,5.04484,5.04484,0,0,1-.21338-1.07129,4.39677,4.39677,0,0,1,.05078-1.37011,2.12408,2.12408,0,0,1,.36866-.85938l-.54346.03516-.05859-.61035Q48.87115,87.62624,50.03277,87.62673Zm-1.09424,1.62353a4.61137,4.61137,0,0,0-.05225,1.17725,5.71635,5.71635,0,0,0,.15479.9248,3.17617,3.17617,0,0,0,.28857.71827,1.39749,1.39749,0,0,0,.48975.52294,1.30723,1.30723,0,0,0,.70605.18848,1.13129,1.13129,0,0,0,.66992-.18848,1.05664,1.05664,0,0,0,.38965-.52587,3.59882,3.59882,0,0,0,.13721-1.562,3.31582,3.31582,0,0,0-.58252-1.80078,1.28051,1.28051,0,0,0-.44238-.33545,1.38791,1.38791,0,0,0-.606-.12793l-.76367.00879A2.162,2.162,0,0,0,48.93853,89.25026Z"/><path class="g" d="M57.03911,87.71364l.17334,1.814a5.57127,5.57127,0,0,1,.02881.6123,2.62668,2.62668,0,0,1-.07226.54346,1.15122,1.15122,0,0,1-.73682.82617l1.23438,1.7876h-.79883l-1.56885-2.333-.74365-.98682a.80323.80323,0,0,0-.23535.1294,1.26464,1.26464,0,0,0-.29932,1.11719l.19824,2.07324h-.709l-.17334-1.814A2.65789,2.65789,0,0,1,53.48,90.07692a1.1615,1.1615,0,0,1,.27637-.34814,1.348,1.348,0,0,1,.45166-.25781l-1.22754-1.75733h.80322l1.47119,2.15967.82032,1.12109a.96422.96422,0,0,0,.29687-.26855,1.05992,1.05992,0,0,0,.13916-.376,1.95952,1.95952,0,0,0,.0166-.563l-.19824-2.07324Z"/><path class="g" d="M60.49126,87.62673a1.61739,1.61739,0,0,1,1.2583.49414,2.27268,2.27268,0,0,1,.53369,1.35888l.36475,3.81739H60.76812l-.05322-.55762h1.17089L61.5772,89.51q-.12231-1.27734-1.27588-1.27637a1.08452,1.08452,0,0,0-.38818.0708,1.12151,1.12151,0,0,0-.31055.17139,1.77779,1.77779,0,0,0-.36084.38086l-.04492.06885.01221,4.37158h-.71387l-.0083-4.29346c-.00147-.01172-.0044-.043-.00928-.0957a3.30116,3.30116,0,0,0-.09814-.39746,2.70344,2.70344,0,0,0-.2002-.52881l-.13623-.26807h.71338a2.19229,2.19229,0,0,1,.25244.58887h.03027a1.5999,1.5999,0,0,1,.4917-.44141,1.89084,1.89084,0,0,1,.41211-.16015A1.96022,1.96022,0,0,1,60.49126,87.62673Z"/><path class="e" d="M52.628,59.54472c.23358,2.44347-1.79034,6.22-4.73232,6.22s-5.68794-3.77649-5.92153-6.22,1.54094-8.8288,4.48291-8.8288S52.39437,57.10126,52.628,59.54472Z"/><path class="e" d="M49.27723,75.87222a94.739,94.739,0,0,0,1.30719,9.56635H48.031c.14545-3.17764.32416-6.4426.18283-9.43906a46.57316,46.57316,0,0,0-1.74939-10.41929q-.343-1.22785-.77662-2.55419l3.47331,1.363q-.03432.52821-.064,1.127A79.32618,79.32618,0,0,0,49.27723,75.87222Z"/><path class="e" d="M61.38459,53.64707l-3.113,16.08059a.58482.58482,0,0,1-1.14306.0511,16.63157,16.63157,0,0,1-1.229-7.26019,13.28989,13.28989,0,0,1,4.50411-9.6354C60.84848,52.51708,61.50432,53.02857,61.38459,53.64707Z"/><path class="e" d="M56.78184,78.23324c-.36187,3.21764-.50354,6.20519-.55029,8.88546l-2.14826-.46876c.67047-2.84505,1.384-5.76293,1.78192-8.49688a46.09245,46.09245,0,0,0,.32538-9.73749q-.07684-1.17263-.21284-2.45089l2.68711,1.86946q-.12.47106-.24828,1.00679A78.07534,78.07534,0,0,0,56.78184,78.23324Z"/><polygon class="e" points="37.054 64.365 36.315 64.495 35.576 64.625 34.292 58.293 33.008 51.962 35.031 58.163 37.054 64.365"/><polygon class="e" points="39.666 63.901 38.927 64.031 38.188 64.161 36.904 57.829 35.62 51.498 37.643 57.699 39.666 63.901"/><polygon class="e" points="38.342 64.128 37.603 64.258 36.864 64.388 35.58 58.056 34.296 51.725 36.319 57.926 38.342 64.128"/><polygon class="e" points="40.917 63.694 40.178 63.824 39.439 63.953 38.155 57.622 36.871 51.291 38.894 57.492 40.917 63.694"/><polygon class="e" points="39.968 69.022 37.762 66.806 35.557 64.59 38.258 64.079 40.959 63.569 40.463 66.295 39.968 69.022"/><path class="e" d="M42.84479,76.049c1.03367,3.12169,2.13026,5.94108,3.17063,8.4378l-1.70032.44075c-.66719-2.90282-1.33323-5.89048-2.14782-8.57972A58.43227,58.43227,0,0,0,38.49711,67.214q-.52368-1.05275-1.1313-2.17906l2.64062.63485q.10414.48428.22834,1.03172C40.77059,69.05735,41.59388,72.26956,42.84479,76.049Z"/><path class="h" d="M139.29525,53.2551H19.89932C14.848,53.2551,0,51.2242,0,46.17283L10.715,9.1843A9.2113,9.2113,0,0,1,19.89932,0H139.29525a9.21131,9.21131,0,0,1,9.1843,9.1843l12.24574,37.90362C160.72529,52.13929,144.34661,53.2551,139.29525,53.2551Z"/><path class="e" d="M93.89214,79.15847H92.20366l.46241-7.24219A.99237.99237,0,0,0,91.648,70.8362H88.731l-.44531,6.97656A1.31667,1.31667,0,0,1,86.774,79.15847H84.898l.10449-1.63038h1.61328l.42676-6.69189H85.58159l.1045-1.63037h6.249a2.46827,2.46827,0,0,1,1.7915.69189,2.15847,2.15847,0,0,1,.64405,1.772Z"/><path class="e" d="M100.91265,79.15847H95.7896l.10449-1.63038h3.33985l-.02-5.93359a1.00754,1.00754,0,0,0-.1416-.60693.8373.8373,0,0,0-.60694-.15137H96.70074l.10449-1.63037h2.42871a1.67532,1.67532,0,0,1,1.23633.4834,1.64062,1.64062,0,0,1,.47461,1.2417Z"/><path class="e" d="M111.273,79.15847h-5.97656l.10449-1.63038H109.688l.26367-4.13281q.16333-2.55981-1.666-2.55908a2.624,2.624,0,0,0-1.71827.65381,2.83987,2.83987,0,0,0-.99658,1.583l-1.35644,6.08545h-1.708l1.43848-6.18018a4.90921,4.90921,0,0,0,.11474-.66357,2.4174,2.4174,0,0,0-.31494-1.30811q-.34058-.60645-1.042-1.80078h1.91894a6.03012,6.03012,0,0,1,.88184,1.64892,4.51206,4.51206,0,0,1,1.40967-1.27978,3.89082,3.89082,0,0,1,1.80713-.36914,2.61364,2.61364,0,0,1,2.3916,1.17529,4.45791,4.45791,0,0,1,.54736,2.72949Z"/><path class="e" d="M123.90728,75.63259a3.44424,3.44424,0,0,1-1.94043,2.80566,6.627,6.627,0,0,1-3.43067.92871,6.01929,6.01929,0,0,1-3.31152-.92871,2.954,2.954,0,0,1-1.583-2.80566l.41065-6.42676h1.68945L115.3482,75.367a2.858,2.858,0,0,0,.0498.70117q2.53052-.39769,2.65283-2.33154l.28955-4.53076h1.68946l-.30616,4.79639q-.15014,2.34668-3.37548,3.35546a4.93038,4.93038,0,0,0,2.23828.37891q3.498,0,3.64941-2.36963l.39356-6.16113h1.68847Z"/><path class="e" d="M85.04009,101.90847H83.35161l.42579-6.67383h1.68847Zm6.45215,0H89.80279l.51416-8.05762c.01123-.17676-.0586-.26514-.21094-.26514H83.78765l.10449-1.63037h6.82617a1.26353,1.26353,0,0,1,.96826.417,1.29691,1.29691,0,0,1,.3501,1.00489Z"/><path class="e" d="M102.74273,93.60427a2.0176,2.0176,0,0,1-.41065,1.13769L99.90484,97.7947l1.46142,2.67285-.09179,1.44092H93.503l.104-1.63086h5.80664l-3.312-6.38868q-.15087-.30321-.37939-.30322H94.03374l.1045-1.63037h1.42285a2.09452,2.09452,0,0,1,1.97119,1.23242l1.6914,3.22217,1.50245-1.83838a1.23845,1.23845,0,0,0,.32617-.64453q.022-.34131-.5293-.34131H98.96734l.10449-1.63037h1.499Q102.84722,91.95534,102.74273,93.60427Z"/><path class="e" d="M108.1895,101.90847H106.501l.5166-8.09571c.00977-.15136-.06885-.227-.23291-.227h-2.41016l.1045-1.63037h2.93652a1.16,1.16,0,0,1,1.31933,1.40283Z"/><path class="e" d="M118.81548,101.90847h-5.97656l.104-1.63086H117.23l.26367-4.13233q.16334-2.55981-1.666-2.55957a2.62405,2.62405,0,0,0-1.71826.65381,2.84148,2.84148,0,0,0-.99659,1.583l-1.356,6.08594h-1.708l1.438-6.18067a4.89653,4.89653,0,0,0,.11474-.66357,2.4184,2.4184,0,0,0-.31494-1.30811q-.34058-.60643-1.042-1.80078h1.91895a6.01712,6.01712,0,0,1,.88183,1.64893,4.51817,4.51817,0,0,1,1.40967-1.27979,3.89082,3.89082,0,0,1,1.80713-.36914,2.61364,2.61364,0,0,1,2.3916,1.17529,4.45871,4.45871,0,0,1,.54736,2.73Z"/><path class="e" d="M129.38384,101.90847h-1.68848l.43311-6.78711q.09815-1.53589-.96875-1.53565h-4.07617l-.53076,8.32276h-1.68848l.66894-10.48438h1.68848l-.03369.53125h3.7002a3.17429,3.17429,0,0,1,2.23.73926,2.57139,2.57139,0,0,1,.71435,2.18017Z"/><path class="i" d="M121.56883,110.80625a17.93049,17.93049,0,1,0,7.9241,5.704"/><line class="j" x1="111.5441" y1="124.54253" x2="109.83341" y2="121.53612"/><path class="j" d="M116.34167,133.57352h1.46867a3.88767,3.88767,0,0,0,3.88768-3.88767v-.81207c0-3.22544-2.61474-6.93449-5.84018-6.93449-5.49712,0-5.702,7.112-7.09232,11.0731-.47556,1.04494-.7155,2.27532-1.9983,2.60354-1.87.47847-3.01044-1.58814-3.56245-3.03011a13.939,13.939,0,0,1-1.001-4.92777,13.24563,13.24563,0,1,1,9.59362,12.74583"/><polygon class="k" points="19.023 45.608 30.695 7.876 54.51 7.751 42.837 45.483 19.023 45.608"/><polygon class="e" points="27.265 24.685 28.148 21.83 48.418 21.724 47.535 24.578 27.265 24.685"/><polygon class="e" points="26.67 26.609 27.111 25.181 47.381 25.075 46.939 26.502 26.67 26.609"/><polygon class="e" points="25.091 31.713 25.311 30.999 45.581 30.893 45.36 31.607 25.091 31.713"/><polygon class="e" points="25.416 30.661 25.975 28.855 46.245 28.749 45.686 30.555 25.416 30.661"/><polygon class="e" points="26.132 28.346 26.574 26.919 46.843 26.813 46.402 28.24 26.132 28.346"/><polygon class="e" points="24.001 35.235 24.884 32.38 45.154 32.274 44.271 35.129 24.001 35.235"/><polygon class="e" points="23.406 37.159 23.847 35.731 44.117 35.625 43.676 37.053 23.406 37.159"/><polygon class="e" points="21.827 42.263 22.048 41.55 42.317 41.443 42.097 42.157 21.827 42.263"/><polygon class="e" points="22.152 41.212 22.711 39.405 42.981 39.299 42.422 41.105 22.152 41.212"/><polygon class="e" points="22.868 38.897 23.31 37.469 43.58 37.363 43.138 38.79 22.868 38.897"/><polygon class="e" points="30.495 14.243 31.378 11.388 51.648 11.282 50.765 14.137 30.495 14.243"/><polygon class="e" points="29.9 16.167 30.341 14.739 50.611 14.633 50.17 16.061 29.9 16.167"/><polygon class="e" points="28.321 21.271 28.541 20.558 48.811 20.451 48.591 21.165 28.321 21.271"/><polygon class="e" points="28.646 20.22 29.205 18.413 49.475 18.307 48.916 20.113 28.646 20.22"/><polygon class="e" points="29.362 17.905 29.804 16.477 50.074 16.371 49.632 17.798 29.362 17.905"/><path class="e" d="M82.99663,20.89968H81.09624l2.51416-6.76563a.67872.67872,0,0,0-.08642-.71728.94183.94183,0,0,0-.76074-.292H79.481l-2.42236,6.51758a1.96635,1.96635,0,0,1-2.07178,1.25733H72.87652l.56591-1.523h1.81446l2.32373-6.252H75.93706l.56592-1.52343h7.03125a2.39946,2.39946,0,0,1,1.8252.64648,1.48362,1.48362,0,0,1,.2373,1.65576Z"/><path class="e" d="M90.897,20.89968H85.13238l.56591-1.523h3.75782L91.067,13.83327c.07714-.28418.08007-.47266.00879-.56689q-.10841-.14136-.64161-.14161H88.44878l.56592-1.52343h2.73242a1.62193,1.62193,0,0,1,1.25879.45215,1.11323,1.11323,0,0,1,.1919,1.15966Z"/><path class="e" d="M102.55425,20.89968H95.82964l.56592-1.523h4.82422l1.43506-3.86133q.88842-2.39062-1.16993-2.39063a4.21927,4.21927,0,0,0-2.11425.61133,4.04716,4.04716,0,0,0-1.55713,1.47852l-3.20166,5.68506H92.69l3.32032-5.77393a5.03169,5.03169,0,0,0,.31152-.61963,1.74322,1.74322,0,0,0,.00586-1.22217q-.2168-.56616-.67725-1.68261H97.8106a3.83289,3.83289,0,0,1,.5376,1.54052,7.35317,7.35317,0,0,1,1.93945-1.19531,5.94275,5.94275,0,0,1,2.13525-.34521q1.85742,0,2.36719,1.09863a3.29043,3.29043,0,0,1-.13623,2.55029Z"/><path class="e" d="M117.74126,17.60524a4.92438,4.92438,0,0,1-2.95654,2.62207,10.38048,10.38048,0,0,1-4.11572.86768,6.42163,6.42163,0,0,1-3.47119-.86768,2.00075,2.00075,0,0,1-1.00733-2.62207l2.23145-6.0039h1.90039l-2.13916,5.75586a2.33183,2.33183,0,0,0-.13721.65576q2.95678-.37207,3.62842-2.17871l1.57275-4.23291h1.90039l-1.66552,4.481q-.81445,2.19288-4.72266,3.13526a5.74677,5.74677,0,0,0,2.41406.354q3.936,0,4.75977-2.21435l2.13916-5.75586h1.90039Z"/><path class="e" d="M66.77007,42.15358H64.86968l2.31738-6.23486h1.90039Zm7.25977,0H72.12945l2.79785-7.52734c.06152-.16553.00635-.24805-.16358-.24805H67.65337l.56592-1.52344H75.9a1.19145,1.19145,0,0,1,.97657.39014.896.896,0,0,1,.11572.93848Z"/><path class="e" d="M88.9771,34.39528a2.46214,2.46214,0,0,1-.77539,1.063l-3.57129,2.85156.90772,2.498-.50049,1.3457H76.29253l.56641-1.52343h6.53418l-1.96729-5.96827a.34263.34263,0,0,0-.34277-.28369H79.18267l.56592-1.52344h1.60156a1.741,1.741,0,0,1,1.87793,1.15186l1.0166,3.01074L86.442,35.29909a1.64479,1.64479,0,0,0,.54394-.60254c.0791-.2124-.08838-.31836-.50049-.31836h-1.751l.56591-1.52344h1.68653Q89.54889,32.85475,88.9771,34.39528Z"/><path class="e" d="M92.8189,42.15358H90.91851l2.811-7.563c.05274-.14209-.01367-.2124-.19824-.2124H90.81939l.56592-1.52344H94.689q1.585,0,1.09863,1.311Z"/><path class="e" d="M104.775,42.15358H98.05034l.56641-1.52343H103.441l1.43506-3.86084q.88842-2.39062-1.16992-2.39112a4.21747,4.21747,0,0,0-2.11377.61133,4.04525,4.04525,0,0,0-1.55762,1.47852l-3.20215,5.68554H94.9107L98.232,36.37917a5.221,5.221,0,0,0,.31152-.61963,1.75406,1.75406,0,0,0,.00586-1.22217q-.21827-.56542-.67774-1.68262h2.16016a3.83306,3.83306,0,0,1,.53809,1.54053A7.35078,7.35078,0,0,1,102.50933,33.2a5.94693,5.94693,0,0,1,2.13476-.34522q1.85743,0,2.36719,1.09864a3.29043,3.29043,0,0,1-.13623,2.55029Z"/><path class="e" d="M116.66753,42.15358h-1.90039l2.35693-6.34082q.53248-1.43407-.667-1.43457h-4.58593L108.981,42.15358h-1.90039l3.64062-9.79492h1.90039l-.18457.49609h4.16407a3.20928,3.20928,0,0,1,2.30468.69141,1.79293,1.79293,0,0,1,.2041,2.03662Z"/></svg>