<svg xmlns="http://www.w3.org/2000/svg" xmlns:xlink="http://www.w3.org/1999/xlink" viewBox="0 0 311.68501 109.97407"><defs><style>.a,.c,.d,.e,.f{fill:none;}.b{clip-path:url(#a);}.c{stroke:#231f20;}.c,.d,.e,.f{stroke-miterlimit:10;}.d,.e,.f{stroke-width:9px;}.d{stroke:url(#b);}.e{stroke:url(#c);}.f{stroke:url(#d);}</style><clipPath id="a"><path class="a" d="M177.84127,22.41688a87.5572,87.5572,0,0,1-175.1144,0S45.8746,2.38035,90.28407,1.81807C123.98183,1.39142,177.84127,22.41688,177.84127,22.41688Z"/></clipPath><linearGradient id="b" x1="-52.70601" y1="206.30905" x2="126.69605" y2="206.30905" gradientTransform="matrix(0.99515, 0.09832, -0.21361, 2.16206, 97.53892, -425.17992)" gradientUnits="userSpaceOnUse"><stop offset="0" stop-color="#3f3e40"/><stop offset="0.57653" stop-color="#939598"/><stop offset="1" stop-color="#3f3e40"/><stop offset="1" stop-color="#515254"/></linearGradient><linearGradient id="c" x1="-331.33169" y1="-308.83117" x2="-198.24646" y2="-308.83117" gradientTransform="matrix(0.99877, -0.04963, -0.69754, 0.53393, 296.36666, 171.369)" xlink:href="#b"/><linearGradient id="d" x1="-331.4113" y1="1117.54052" x2="-198.68458" y2="1117.54052" gradientTransform="matrix(0.99877, -0.04963, 0.69754, -0.53393, -277.78077, 610.85084)" xlink:href="#b"/></defs><g class="b"><path class="c" d="M92.63635-77.88164C72.20827-76.85493,16.12157,109.58158,71.98236,138.415c3.086,1.59289,9.7514,5.03331,16.55685,2.45273C128.91751,125.55639,114.23487-78.96717,92.63635-77.88164Z"/><path class="c" d="M94.16562-77.94249c-26.47,1.26713-93.72153,188.1479-20.40428,216.28668,4.05034,1.55451,12.79869,4.912,21.55085,2.254C147.24077,124.82728,122.15229-79.28222,94.16562-77.94249Z"/><path class="c" d="M93.20324-77.9042C61.78328-76.4401-14.615,110.80464,73.00352,138.37434c4.84041,1.52307,15.29522,4.81271,25.64223,2.0912C160.037,124.3181,126.42343-79.45218,93.20324-77.9042Z"/><path class="c" d="M94.3208-77.94867c-36.6304,1.67143-122.65695,189.29929-19.98438,216.27,5.672,1.49,17.92314,4.70814,29.94895,1.91983C175.63723,123.69734,133.05-79.71586,94.3208-77.94867Z"/><path class="c" d="M93.84332-77.92967C50.82424-76.004-47.00781,112.0936,74.123,138.3298c6.69177,1.4494,21.14532,4.57992,35.22955,1.7097C192.91748,123.00973,139.32723-79.96564,93.84332-77.92967Z"/><path class="c" d="M94.69845-77.9637c-48.6144,2.14829-156.7859,190.65734-19.4891,216.25027,7.58483,1.41387,23.96734,4.46763,39.85438,1.52568C209.32512,122.35684,146.09827-80.23507,94.69845-77.9637Z"/><path class="c" d="M94.3-77.94784C40.36205-75.58772-77.64666,113.31277,75.03088,138.29367c8.43454,1.38006,26.65231,4.36079,44.25457,1.35059C223.72369,121.7839,151.32835-80.44318,94.3-77.94784Z"/><path class="c" d="M97.78208-78.0864C40.9784-75.61224-82.32583,113.499,78.63142,138.1504c8.89194,1.36185,28.09766,4.30327,46.62325,1.25633C235.17128,121.32838,157.84039-80.70231,97.78208-78.0864Z"/><path class="c" d="M92.95179-77.89419c-15.07218.81359-61.26187,186.85628-20.87533,216.30542,2.23112,1.6269,7.05012,5.14079,12.12991,2.62888C114.346,126.13622,108.88755-78.7544,92.95179-77.89419Z"/><path class="c" d="M91.353-77.83057c-8.96149.57043-43.8594,186.16381-21.12787,216.31547,1.25578,1.66571,3.96815,5.26343,7.07909,2.82986C95.76212,126.8757,100.82791-78.43369,91.353-77.83057Z"/><path class="c" d="M92.40956-77.87262c-5.1915.42042-33.12294,185.73659-21.28367,216.32167.654,1.68966,2.06673,5.33909,3.963,2.95386C86.33983,127.25063,97.89852-78.31712,92.40956-77.87262Z"/><path class="c" d="M91.88117-77.85159c-2.60641.31756-25.76095,185.44364-21.39051,216.32592.24144,1.70608.76293,5.391,1.82628,3.03888C78.62605,127.55757,94.63693-78.18734,91.88117-77.85159Z"/><path class="c" d="M220.791,17.41365c1.81827-18.8959-193.94132-47.44022-233.50688,8.252-2.18578,3.07667-6.90678,9.722-5.06509,15.7325C-6.85369,77.06,218.86853,37.3922,220.791,17.41365Z"/><path class="c" d="M220.63736,18.83026c2.4252-24.49273-192.21285-63.3793-233.532,8.48332-2.28265,3.97-7.21288,12.54476-5.56675,20.35858C-8.69432,94.03329,218.0732,44.72632,220.63736,18.83026Z"/><path class="c" d="M220.734,17.93877c2.92244-29.078-190.79678-76.43748-233.55251,8.67282-2.362,4.70184-7.46367,14.85736-5.97774,24.14853C-9.97974,105.88675,217.64415,48.6828,220.734,17.93877Z"/><path class="c" d="M220.62177,18.974c3.44584-33.90454-189.30619-90.18295-233.57415,8.87229-2.44555,5.47222-7.72765,17.29167-6.41036,28.138C-11.54683,120.3377,216.9785,54.82114,220.62177,18.974Z"/><path class="c" d="M220.66974,18.5317C224.75734-21.29086,33.1912-88.505-12.93093,27.64857c-2.548,6.4168-8.05133,20.27646-6.94082,33.02952C-13.28269,136.34486,216.34793,60.63594,220.66974,18.5317Z"/><path class="c" d="M220.58384,19.32383C225.2335-25.68182,34.706-102.47369-13.04006,28.65491c-2.6377,7.24408-8.33481,22.89058-7.4054,37.31362C-14.93088,151.5437,215.66776,66.90813,220.58384,19.32383Z"/><path class="c" d="M220.62386,18.95472c5.18444-49.937-184.35489-135.84132-233.646,9.53487-2.723,8.03118-8.60452,25.37774-7.84741,41.38964C-16.37727,164.88148,215.14238,71.75289,220.62386,18.95472Z"/><path class="c" d="M220.27408,22.18028C225.74638-30.41132,36.739-121.221-13.38382,31.82486c-2.769,8.45489-8.74971,26.71661-8.08535,43.58382C-17.52721,175.48569,214.48822,77.78517,220.27408,22.18028Z"/><path class="c" d="M220.75929,17.70585c1.28025-13.93459-195.47352-33.311-233.48465,8.047-2.0999,2.28479-6.63542,7.2197-4.62038,11.63171C-5.38994,63.562,219.40569,32.43884,220.75929,17.70585Z"/><path class="c" d="M220.9199,16.22481c.66641-8.27409-197.22165-17.19067-233.45928,7.813-2.00193,1.38131-6.32583,4.3648-4.113,6.953C-3.52313,46.34724,220.2153,24.973,220.9199,16.22481Z"/><path class="c" d="M220.81376,17.20357c.28771-4.78185-198.30016-7.2452-233.44363,7.66872-1.94148.82391-6.13482,2.60346-3.8,4.06647C-2.57663,37.61912,220.50957,22.25941,220.81376,17.20357Z"/><path class="c" d="M220.86684,16.71411c.028-2.38722-199.0397-.42558-233.4329,7.56975-1.9.4417-6.00385,1.39571-3.58535,2.08718C-1.80176,30.47364,220.83721,19.23811,220.86684,16.71411Z"/></g><ellipse class="d" cx="90.28407" cy="24.5096" rx="85.57168" ry="19.4671" transform="translate(-0.51471 1.98149) rotate(-1.25386)"/><path class="e" d="M176.98447,25.97477c63.26619-2.26359,92.99974-6.06357,108.17844-9.441,2.68578-.5976,11.92934-2.74253,17.782-2.6906,7.2935.06472,3.53272,4.01555.83236,6.99071"/><path class="f" d="M174.86337,27.54044c66.493-4.18374,87.70893-2.91527,93.26774-.56827.98359.41528,4.04549,1.94879,11.155,1.25281,8.85981-.86732,17.60125-4.65948,25.31951-7.884"/></svg>