<svg xmlns="http://www.w3.org/2000/svg" xmlns:xlink="http://www.w3.org/1999/xlink" viewBox="0 0 1014.47432 273.85968"><defs><style>.a,.b,.c,.d,.e,.f{stroke:#231f20;stroke-miterlimit:10;stroke-width:1.8848px;}.a{fill:url(#a);}.b{fill:url(#b);}.c{fill:url(#c);}.d{fill:url(#d);}.e{fill:url(#e);}.f{fill:none;}</style><linearGradient id="a" x1="1020.67182" y1="-27.5342" x2="528.67323" y2="-27.5342" gradientTransform="matrix(0.99367, 0.09699, 0, 1, -0.68408, 21.32659)" gradientUnits="userSpaceOnUse"><stop offset="0" stop-color="#231f20"/><stop offset="0.78818" stop-color="#808285"/></linearGradient><linearGradient id="b" x1="1133.45284" y1="51.89218" x2="657.84576" y2="51.89218" gradientTransform="matrix(0.99345, 0.11824, -0.2776, 0.69372, -105.77694, -90.80093)" gradientUnits="userSpaceOnUse"><stop offset="0" stop-color="#414042"/><stop offset="0.78818" stop-color="#939598"/></linearGradient><linearGradient id="c" x1="143.74098" y1="207.60051" x2="439.05124" y2="-87.70975" gradientUnits="userSpaceOnUse"><stop offset="0" stop-color="#231f20"/><stop offset="0.78818" stop-color="#6d6e71"/></linearGradient><linearGradient id="d" x1="0.9424" y1="122.10941" x2="579.53544" y2="122.10941" gradientUnits="userSpaceOnUse"><stop offset="0" stop-color="#0e0e0e"/><stop offset="0.78818" stop-color="#808285"/></linearGradient><linearGradient id="e" x1="283.74619" y1="233.97078" x2="283.74619" y2="91.21402" gradientUnits="userSpaceOnUse"><stop offset="0" stop-color="#ed1c24"/><stop offset="0.29592" stop-color="#f7941d"/><stop offset="0.80612" stop-color="#f9ed32"/><stop offset="1" stop-color="#f9ed32"/></linearGradient></defs><path class="a" d="M1011.15387,75.9465c-16.27065,22.25-118.24083,12.95689-128.84256,11.94521-20.91608-2.00675-35.72637-4.82936-36.4508-4.95791C805.29318,75.225,718.59327,70.62765,524.64525,80.037V59.53165c50.19165-2.43768,93.19669-3.93354,130.07293-4.67371,73.98239,4.52474,125.416,5.136,161.30328,3.45458,12.06209,1.1889,21.84747,2.58373,29.839,4.10429.72443.14014,15.53472,2.95123,36.4508,4.958,10.2683.99065,106.32814,9.74166,127.08323-9.96458C1013.6951,63.18775,1015.22437,70.38432,1011.15387,75.9465Z"/><path class="b" d="M524.64391,68.76291c193.95669-9.40474,280.65335-4.80909,321.21928,2.89155.71978.13664,15.54081,2.95386,36.45617,4.9589,10.592,1.0154,112.56472,10.305,128.83822-11.94532,5.91617-8.08905-2.50215-7.28623-9.11065-25.26369-3.35993-9.14021-19.26254-9.93493-24.07068-9.97352-50.93439-.40871-76.40158,4.01568-106.57917,11.1635-38.15564,9.03748-127.51865,12.55805-342.42787-6.65571"/><ellipse class="c" cx="291.39611" cy="59.94538" rx="289.29652" ry="59.00297"/><path class="d" d="M579.53544,67.27038c0,63.33277-129.52383,114.6887-289.29652,114.6887S.9424,130.60315.9424,67.27038a45.13885,45.13885,0,0,1,.27772-5.01063c6.61914,31.39446,133.493,56.4244,289.0188,56.4244s282.39967-25.02994,289.01881-56.4244A45.13885,45.13885,0,0,1,579.53544,67.27038Z"/><path class="e" d="M58.56378,180.38858c-4.379-5.03746-19.25852-23.71484-7.37332-42.53272,3.84437-6.0868,10.09909-11.571,13.825-11.13953,5.822.67414-.75009,15.07191,12.9033,20.76,7.3128,3.04657,20.66655,3.6941,25.80661.50635,11.06529-6.86245-26.6624-24.84576-15.6683-44.5581,4.08887-7.33131,13.76832-12.84226,17.51163-12.15221,5.428,1.00062-3.67232,14.66271,8.295,20.25368,7.52665,3.51637,14.824-.1603,23.96328,3.03806,12.03043,4.21014,12.85424,15.2943,13.825,28.35515.96141,12.93534-2.35313,16.91724,1.84333,18.22831,9.25987,2.893,41.99386-11.31041,39.63157-23.79808-1.443-7.62813-15.59144-12.55171-13.825-13.67123,2.02837-1.28551,18.12073,6.83023,44.2399,10.63318,11.26316,1.63993,23.84823,3.47231,31.33659,0,10.42279-4.833,2.043-15.80256,8.295-17.21562,6.02688-1.3622,23.24481,6.70019,26.72827,17.21562,4.397,13.27291-15.7657,22.37159-8.295,27.34247,4.83489,3.217,18.79228,3.07413,25.80661-.50634,13.58133-6.93261-3.97853-24.14323,4.60832-26.83613,6.33251-1.98592,24.37017,4.71245,31.3366,14.17758,7.9889,10.85432-2.05378,20.62976,2.765,21.7727,4.51005,1.06972,18.701-6.21392,22.12-15.6966,4.38047-12.14947-11.3969-21.04392-7.37331-22.78539,4.81477-2.0839,35.04536,7.34649,44.2399,23.29173,8.11727,14.077-5.01344,24.81663,3.68666,27.84881,7.74428,2.69906,27.49793-2.55186,33.17992-10.63318,7.87808-11.20479-14.44463-23.37126-8.295-26.32978,4.44637-2.13908,20.04688,2.33009,30.41493,8.10147,12.41446,6.91055,14.39775,14.05748,17.51163,13.67123,3.69177-.45793,3.94509-10.88093.92166-20.25368-2.76139-8.56028-6.96587-12.2449-4.60832-13.16489,3.75259-1.46435,20.26644,5.58366,30.41493,14.68392,2.23058,2.0002,17.04534,15.2847,11.06,28.35515-6.63374,14.48635-27.51054,33.27042-51.61321,38.482C433.3535,223.277,225.09633,255.37408,107.412,210.7691,75.94442,198.84219,62.91448,185.39347,58.56378,180.38858Z"/><path class="f" d="M66.26253,167.80028c92.71731-9.66787,185.09727-8.28906,278.856-2.77384,49.637,4.13641,96.51637,9.65163,144.77456,23.43969,12.40925,4.13641,26.1973,6.894,37.22775,16.54566,1.3788,1.37881,2.75761,0,4.13641,1.37881,8.27284,6.894,8.27284,17.92447,1.37881,26.1973-9.65164,11.03044-23.43969,13.78806-35.84894,17.92447-27.57611,9.65164-55.15222,13.78806-82.72832,16.54567-22.06089,1.3788-44.12178,4.13641-66.18266,4.13641-48.25819,2.75761-96.51638,2.75761-146.15338-4.13641h-13.788c-26.1973-2.75761-51.0158-9.65164-75.8343-17.92447A32.55284,32.55284,0,0,1,99.6912,238.10312c-1.3788-4.13641,0-9.65163,2.75761-12.40925,11.03045-9.65163,23.4397-11.03044,37.22775-13.788,17.92447-4.13642,33.09133-8.27283,51.0158-9.65164,8.27283-1.3788,16.54566,0,24.8185,0,34.47013-4.13641,70.31907,1.37881,104.78921,2.75761,4.13641,0,8.27283,2.75761,12.40925,2.75761,12.40925,0,24.81849,2.75762,37.22774,6.894,4.13642,2.75761,9.65164,4.13642,11.03045,9.65164s-5.51523,8.27283-8.27284,11.03044c-23.43969,9.65164-49.637,11.03045-74.45549,12.40925-26.1973,1.37881-52.3946-1.3788-79.97071-5.51522-6.894-1.37881-16.54567-2.75761-17.92447-11.03044,0-4.13642,5.51522-6.894,9.65164-8.27284,33.09133-6.894,66.18265-9.65163,99.274-1.3788,2.75762,1.3788,4.13642,4.13641,6.81658,6.60275-3.87613,2.62221-6.23616-8.77323,0,0-3.87613,2.62221-7.41844,5.54635-12.32667,5.67107"/></svg>