<svg xmlns="http://www.w3.org/2000/svg" xmlns:xlink="http://www.w3.org/1999/xlink" viewBox="0 0 338.17792 386.02563"><defs><style>.a,.b{stroke:#231f20;stroke-miterlimit:10;}.a{fill:url(#a);}.b{fill:none;}</style><linearGradient id="a" x1="0.5" y1="193.01282" x2="337.67792" y2="193.01282" gradientUnits="userSpaceOnUse"><stop offset="0.40887" stop-color="#a97c50"/><stop offset="0.78818" stop-color="#754c29"/><stop offset="1" stop-color="#c49a6c"/></linearGradient></defs><path class="a" d="M305.5188,6.40807c-51.45678,32.60863-88.77456,149.78842-170,186.60473-41.80752,18.94971-60.79086,9.70081-93,36.39527-31.35829,25.98929-57.70212,83.089-31,123,23.20047,34.67718,75.38339,39.84259,109,26,54.285-22.35333,65.33109-96.40427,69-121,3.667-24.5827-1.1546-22.97568,2-40,16.22138-87.54138,97-114,145-175,1.81415-2.30547,3.25394-34.81507-10-41C325.25931.82033,318.69553-1.94215,305.5188,6.40807Z"/><path class="b" d="M65.46553,238.08852c-3.22983,2.24625-44.92442,32.28669-38.26462,78.78036,3.02743,21.13532,14.73564,36.51445,21.42075,44.03774"/></svg>