<svg xmlns="http://www.w3.org/2000/svg" xmlns:xlink="http://www.w3.org/1999/xlink" viewBox="0 0 339 296.77138"><defs><style>.a{fill:url(#a);}.b{fill:#e2b246;}.b,.c,.d,.e,.f,.g,.h,.i,.j,.k,.l,.m,.n,.o,.p,.q,.r,.s{stroke:#fff;stroke-miterlimit:10;}.c{fill:url(#b);}.d{fill:url(#c);}.e{fill:url(#d);}.f{fill:url(#e);}.g{fill:url(#f);}.h{fill:url(#g);}.i{fill:url(#h);}.j{fill:url(#i);}.k{fill:url(#j);}.l{fill:url(#k);}.m{fill:url(#l);}.n{fill:url(#m);}.o{fill:url(#n);}.p{fill:url(#o);}.q{fill:url(#p);}.r{fill:url(#q);}.s{fill:url(#r);}.t{fill:#44563d;}.u{fill:none;}.v{fill:#6f8763;}.w{fill:#2d3f27;}.x{fill:#6e8268;}.y{fill:#2a3823;}</style><linearGradient id="a" x1="65.33857" y1="68.82281" x2="295.10432" y2="68.82281" gradientUnits="userSpaceOnUse"><stop offset="0.0051" stop-color="#d1aa07"/><stop offset="1" stop-color="#e08534"/></linearGradient><linearGradient id="b" x1="160.27255" y1="103.95747" x2="194.60414" y2="103.95747" gradientUnits="userSpaceOnUse"><stop offset="0" stop-color="#e97f24"/><stop offset="0.10204" stop-color="#fcb316"/><stop offset="0.19898" stop-color="#e97f24"/><stop offset="0.29082" stop-color="#fcb316"/><stop offset="0.34184" stop-color="#e97f24"/><stop offset="0.40816" stop-color="#fcb316"/><stop offset="0.4898" stop-color="#e97f24"/><stop offset="0.56633" stop-color="#fcb316"/><stop offset="0.63265" stop-color="#e97f24"/><stop offset="0.71939" stop-color="#fcb316"/><stop offset="0.80612" stop-color="#e97f24"/><stop offset="0.87245" stop-color="#fcb316"/><stop offset="0.95408" stop-color="#e97f24"/></linearGradient><linearGradient id="c" x1="370.90882" y1="437.99207" x2="410.34927" y2="437.99207" gradientTransform="translate(-315.09943 -175.92173) rotate(-20)" xlink:href="#b"/><linearGradient id="d" x1="447.18685" y1="855.56991" x2="494.48913" y2="855.56991" gradientTransform="matrix(0.74314, -0.66913, 0.66913, 0.74314, -704.85057, -221.67526)" xlink:href="#b"/><linearGradient id="e" x1="362.23718" y1="1282.04603" x2="396.04877" y2="1282.04603" gradientTransform="translate(-1094.02468 -103.47937) rotate(-65)" xlink:href="#b"/><linearGradient id="f" x1="187.71321" y1="1560.54945" x2="200.74864" y2="1560.54945" gradientTransform="translate(-1341.18125 93.09199) rotate(-83)" xlink:href="#b"/><linearGradient id="g" x1="-139.82083" y1="1753.85687" x2="-118.05548" y2="1753.85687" gradientTransform="matrix(-0.25416, -0.96716, 0.96716, -0.25416, -1497.76119, 410.29416)" xlink:href="#b"/><linearGradient id="h" x1="-498.41353" y1="1874.44287" x2="-457.82582" y2="1874.44287" gradientTransform="translate(-1587.82155 759.75838) rotate(-124.72362)" xlink:href="#b"/><linearGradient id="i" x1="-895.483" y1="1849.60804" x2="-851.35045" y2="1849.60804" gradientTransform="translate(-1533.0148 1148.33984) rotate(-146.72362)" xlink:href="#b"/><linearGradient id="j" x1="-1249.59267" y1="1663.10352" x2="-1215.69383" y2="1663.10352" gradientTransform="translate(-1319.78889 1494.69438) rotate(-169.72362)" xlink:href="#b"/><linearGradient id="k" x1="-1452.38272" y1="1425.52665" x2="-1417.10128" y2="1425.52665" gradientTransform="translate(-1066.85583 1683.77515) rotate(172.27638)" xlink:href="#b"/><linearGradient id="l" x1="-1457.97071" y1="868.53489" x2="-1412.23717" y2="868.53489" gradientTransform="matrix(-0.85661, 0.51596, -0.51596, -0.85661, -639.06129, 1566.01389)" xlink:href="#b"/><linearGradient id="m" x1="-1422.09093" y1="605.33266" x2="-1377.50347" y2="605.33266" gradientTransform="translate(-278.37453 1554.13258) rotate(128.93845)" xlink:href="#b"/><linearGradient id="n" x1="-1271.76622" y1="337.50129" x2="-1246.42597" y2="337.50129" gradientTransform="translate(79.09849 1392.23023) rotate(106.93845)" xlink:href="#b"/><linearGradient id="o" x1="-1023.2074" y1="122.3638" x2="-1012.06406" y2="122.3638" gradientTransform="matrix(0.1056, 0.99441, -0.99441, 0.1056, 351.48613, 1090.18432)" xlink:href="#b"/><linearGradient id="p" x1="-791.55151" y1="22.46082" x2="-759.29542" y2="22.46082" gradientTransform="translate(461.78112 794.27608) rotate(65.93845)" xlink:href="#b"/><linearGradient id="q" x1="-316.77258" y1="-2.71025" x2="-271.27857" y2="-2.71025" gradientTransform="matrix(0.75541, 0.65525, -0.65525, 0.75541, 357.80371, 294.06368)" xlink:href="#b"/><linearGradient id="r" x1="57.4979" y1="5.80755" x2="75.67" y2="21.57008" gradientTransform="translate(86.47481 83.00038) rotate(6.47782)" xlink:href="#b"/></defs><path class="a" d="M294.75793,87.53606C288.98577,116,243.43585,137.64562,180.12685,137.64562S68.8697,115,65.49576,87.53606C62.12747,60.11814,113.33368,0,176.64268,0S300.23146,60.54481,294.75793,87.53606Z"/><path class="b" d="M175.51842,63.90377c-60.78335,0-110.058,12.13368-110.058,27.10133s49.27465,27.10134,110.058,27.10134c60.78341,0,110.05806-12.13368,110.05806-27.10134S236.30183,63.90377,175.51842,63.90377Zm6.60443,27.71165a13.749,13.749,0,0,1-2.98206.294,20.78342,20.78342,0,0,1-2.91575-.21088c-.63475-.1036-1.21087-.2219-1.75321-.35081-.80753-.19192-1.18513-.44364-1.23522-.70979-.0503-.26735.4974-.5185,1.23522-.7098a13.85869,13.85869,0,0,1,2.982-.294,14.06994,14.06994,0,0,1,2.98206.294c.07557.018.158.034.23429.05173a11.93376,11.93376,0,0,1,1.45262.21595c.82811.18093,1.18636.45019,1.23522.70979C183.40512,91.15567,182.85433,91.44131,182.12285,91.61542Z"/><path class="c" d="M194.60414,113.19006c0,3.04748-10.2711,2.23491-18.83068,2.23491-8.561,0-15.50091,1.08025-15.50091-1.96723v-3.346l2.6952-3.31509,4.93606-5.6922,7.63126-8.80038,7.86825,8.753,5.1464,5.72488,2.719,3.02415v.00467C191.27157,109.8428,194.60414,113.15805,194.60414,113.19006Z"/><path class="d" d="M225.13609,110.2837c4.379,2.8637-6.44028,2.93629-14.48364,3.63311-8.04469.69693-13.01385,2.277-17.39286-.58669l-4.808-3.14423-2.23089-3.33457-3.5409-5.75075-5.47447-8.8909,19.9712,7.58462,13.06228,4.96066,6.90055,2.62042.00671.00439C217.19472,107.40961,225.09009,110.25362,225.13609,110.2837Z"/><path class="e" d="M252.22732,104.49314c8.56715,2.26473-1.35009,3.29672-7.71109,4.66-6.36205,1.36349-8.4826,3.27158-17.04974,1.00686l-9.40636-2.48657-7.31651-2.89285-12.3338-5.01628-19.06863-7.75537,30.4539,5.25161,19.9184,3.43476,10.52218,1.81432.01313.00347C240.34086,102.53641,252.13733,104.46935,252.22732,104.49314Z"/><path class="f" d="M268.165,96.22389c-.12186-.01353-14.15367-.69572-14.27671-.70863l-.01776-.002-12.66408-.69151-23.97341-1.30924-35.04628-1.91406c-.02173.00546-.04191.01171-.06394.01695-.13174.03136-.28525.061-.44726.08951L210.863,96.8761l19.588,3.47044,11.48369,1.98242,12.74053,1.41409c11.60379,1.28792,10.4235-.66569,14.04149-2.51249C272.33412,99.38409,279.76887,97.51181,268.165,96.22389Z"/><path class="g" d="M270.716,89.02853c-.13349-.0039-14.36418.37939-14.498.37615a.18965.18965,0,0,0-.01951-.00057l-12.942.27382-24.4998.51814-35.40252.74863a.30713.30713,0,0,1-.11784.19933l33.82887,2.71952L240.2,95.72339l13.49539,1.04074,13.9528.40778c12.70794.37139,9.04907-1.3998,10.09243-3.4223C278.78379,91.72743,283.42393,89.39993,270.716,89.02853Z"/><path class="h" d="M275.80962,84.8521c-2.17546-1.97046-1.48419-4.54145-13.86713-3.76691-.1301.00814-12.75408,1.61791-12.88345,1.62668l-.01894.00119L237.443,84.10762l-21.95414,2.63973L183.168,90.63351a.66062.66062,0,0,1,.12047.13241l36.33211-.46251,24.38386-.31041,14.15532-.22211,13.596-.85041C284.13874,88.146,277.98544,86.82288,275.80962,84.8521Z"/><path class="i" d="M260.81671,77.20606c-4.87566-1.67452-7.92042-4.14674-18.44364-2.41083-.11052.01823-9.66009,2.55862-9.769,2.57739l-.01612.00266-8.89381,2.25455-16.837,4.2678L182.0568,90.18384c.02136.00451.04484.00735.066.012.126.02753.22106.06046.32587.09173l33.40066-3.38469,22.46735-2.27673,12.98249-1.36106,11.55406-1.90595C273.37655,79.62322,265.6932,78.88087,260.81671,77.20606Z"/><path class="j" d="M232.85352,70.62115c-7.15609-1.11786-13.87-3.13857-20.89488-.59077-.07382.02676-4.92987,3.23365-5.00127,3.26078l-.01076.00389-4.69795,2.8834-8.89417,5.45829-13.36942,8.20451c.06924.01222.13426.02533.19969.03849l26.237-6.25839,17.24815-4.11423,9.89506-2.41954,7.7131-2.79737C248.303,71.7424,240.01079,71.73919,232.85352,70.62115Z"/><path class="k" d="M194.51079,67.06364c-8.42225-.36346-17.91957-1.59914-20.20365,1.39947-.024.0315.77035,3.43507.74914,3.46669l-.0035.00459.40881,3.0911.77308,5.85156,1.15671,8.75788.0625-.0008c.0903,0,.18116.00526.27192.00679L191.521,81.48861l9.12321-5.39129,5.13656-3.14746,2.50787-3.29234C210.57274,66.65892,202.93448,67.42717,194.51079,67.06364Z"/><path class="l" d="M144.42167,69.70462c-1.72071-3.01984,8.916-2.54319,17.39794-2.817,8.48331-.27385,14.75034-1.56631,16.471,1.45353l1.88926,3.31566L179.381,75.028l-1.67728,5.79845-2.59305,8.96466-12.73911-8.42193-8.33216-5.50831-4.40191-2.90973-.00264-.00463C149.614,72.91491,144.43975,69.73634,144.42167,69.70462Z"/><path class="m" d="M173.966,90.08037l-12.31227-8.32212L153.543,76.276l-4.87736-3.17074-7.25313-2.86625c-6.606-2.61051-10.20918-.83287-17.54262.21851-7.33226,1.0512-17.892,1.61652-11.286,4.227.0694.02742,10.11056,2.458,10.18237,2.48511l.01009.004,8.88465,2.25661,16.81824,4.272,25.33682,6.43586C173.86472,90.1187,173.91275,90.09914,173.966,90.08037Z"/><path class="n" d="M92.72991,80.92383c-9.95875-1.9153-.84814-3.30619,4.53143-4.89089,5.38044-1.585,6.212-3.54874,16.17072-1.63344l10.9343,2.10292,9.13934,2.58246,15.49908,4.49132L172.967,90.52l-33.54875-4.04444-21.94253-2.6452-11.59138-1.39724-.01525-.00293C105.76277,82.41054,92.83452,80.944,92.72991,80.92383Z"/><path class="o" d="M82.07537,89.21116c-12.248-.88787-5.98977-2.98982-3.496-4.9388,2.49419-1.9493.17452-3.84422,12.42248-2.95635l13.44775.97484,12.53822,1.57952,21.43908,2.78231,33.14573,4.30154-37.47113-.75857-24.50787-.4961L96.64729,89.4376l-.01877-.00136C96.49907,89.42755,82.204,89.22048,82.07537,89.21116Z"/><path class="p" d="M86.34813,98.252c-12.73181.3218-10.42163-2.19508-11.32549-4.22105-.904-2.02631-6.14994-3.55486,6.58187-3.87666l13.979-.35333,14.1344.28787,24.30216.56724,37.57212.877-35.73762,2.78663-23.374,1.82264-12.3472.96291a.18729.18729,0,0,1-.0195.00049C99.98044,97.10977,86.48187,98.24864,86.34813,98.252Z"/><path class="q" d="M99.7603,104.72892c-11.69088,1.24252-12.76136-1.3211-16.25125-3.18143-3.49047-1.86064-10.46411-2.92852,1.22677-4.171l12.8361-1.36423,13.81634-.76584,23.84916-1.248,36.87174-1.9295-30.37068,5.27885-19.86371,3.45265L111.382,102.62432l-.01791.00191C111.24245,102.63989,99.88311,104.71587,99.7603,104.72892Z"/><path class="r" d="M131.10136,110.48482c-8.38939,2.30212-13.9114.08637-20.37742-1.24861-6.46708-1.33519-14.68343-1.60153-6.294-3.90364l9.21121-2.52762,11.16206-2.08391L144.202,97.19091l29.99124-5.45773L156.04084,99.5725l-11.87229,5.1273-6.27116,2.70855-.01285.00353C137.79854,107.4365,131.18949,110.46064,131.10136,110.48482Z"/><path class="s" d="M174.31935,92.61378l-6.74682,8.80489-4.41172,5.76043-2.33414,3.04244-.01029.00377c-.04783.029-2.27443,3.39763-2.33059,3.42642-4.87565,2.81817-13.07029,1.13386-20.98438.35625-7.915-.7756-16.06139-.4078-11.1783-3.22375.001-.002,5.35536-3.09414,5.36375-3.09392l7.79668-2.82,13.68862-4.81467Z"/><path class="t" d="M320.42,255.10134a10.14414,10.14414,0,0,1,2.28,6.13c0,19.63-68.82,35.54-153.71,35.54s-153.71-15.91-153.71-35.54a9.745,9.745,0,0,1,1.78-5.42l-12.39-55.99c8.51,11.3,27.51,21.25,53.41,28.64.07.02.14.04.2.06q7.77,2.49,16.63,4.59c8.08,1.93,16.8,3.6,26.04,4.98a441.79611,441.79611,0,0,0,64.82,4.59,456.91656,456.91656,0,0,0,51.75-2.86.33973.33973,0,0,1,.1-.01,392.154,392.154,0,0,0,44.64-6.84c22.74-4.92,41.66-11.59,54.99-19.44,7.65-4.49,13.45-9.37,17.08-14.53Z"/><path class="t" d="M103.61,123.96014c-.03.06-.05.12-.08.19l.01-.17C103.56,123.97015,103.59,123.97015,103.61,123.96014Z"/><polyline class="u" points="100.46 283.57 100.46 283.38 101.42 233.73 101.47 231.12 103.16 143.38 103.53 124.15 103.54 123.98 103.54 123.89 103.65 118.1"/><ellipse class="v" cx="169.5" cy="190.85025" rx="169.5" ry="55.75007"/><ellipse class="w" cx="166.07391" cy="199.98604" rx="150.5" ry="47.17507"/><ellipse class="x" cx="177.03055" cy="206.5493" rx="92.67025" ry="22.34052"/><path class="y" d="M263.53056,195.075c0,17.94928-39.62281,32.5-88.5,32.5s-88.5-14.55072-88.5-32.5,39.6228-127.73434,88.5-127.73434S263.53056,177.12568,263.53056,195.075Z"/><path class="w" d="M160.31059,226.88278l.06.15c-41.9-2.56-73.84-15.93-73.84-32.05,0-17.16,36.2-118.21,82.08-127.1C152.84055,104.47281,135.47056,165.88278,160.31059,226.88278Z"/><path class="v" d="M168.45058,67.84276l-3.07,159.23005c-42.46-1.68-75.91-14.4-78.69-30.18,2.8,15.11,33.69,27.38,73.64,29.82l-.06-.15C135.49055,165.71276,152.71053,104.46276,168.45058,67.84276Z"/><path class="v" d="M232.74628,218.40275a145.36066,145.36066,0,0,1-14.98,3.89l-.05,2.61-.8-2.43-49.3-149.47-1.11-3.37-.75-2.27-.15-.45c.17.11.36.22.56.35.31.2.66.42,1.05.68.16.1.32.21.49.32.27.18.56.37.86.58,9.89,6.68,34.98,26.31,50.89,65.71a180.20506,180.20506,0,0,1,7.15,21.62A203.56635,203.56635,0,0,1,232.74628,218.40275Z"/><path class="t" d="M220.46055,117.04276c-.03.06-.05.12-.08.19l.00995-.17C220.41056,117.05277,220.44059,117.05277,220.46055,117.04276Z"/><polyline class="u" points="220.501 111.183 220.391 116.973 220.391 117.063 220.381 117.233 220.011 136.463"/><path class="t" d="M263.53056,195.85276c0,9.75-11.7,18.51-30.23,24.46a203.56638,203.56638,0,0,0-6.14-62.23,180.20429,180.20429,0,0,0-7.15-21.62c-16.4-40.6-42.54-60.21-51.75-66.29l-.09,4.74-1.11-3.37-.75-2.27c.13995-.04.27-.07.41-.1.49-.13.99-.24,1.48-.35.03,0,.06-.01.09-.01a33.8797,33.8797,0,0,1,6.74-.69C223.90055,68.12278,263.53056,177.90281,263.53056,195.85276Z"/><path class="v" d="M168.29057,68.62278v.19l-.03,1.36-.09,4.74-1.11-3.37c.23-.56994.47-1.13995.71-1.69.14-.35.29-.69.43-1.03C168.23057,68.75278,168.26054,68.69279,168.29057,68.62278Z"/><path class="v" d="M167.77055,69.85276c.16.1.32.21.49.32l-.09,4.74-1.11-3.37-.75-2.27-.15-.45c.17.11.36.22.56.35C167.03056,69.37278,167.38059,69.59281,167.77055,69.85276Z"/></svg>