<svg xmlns="http://www.w3.org/2000/svg" xmlns:xlink="http://www.w3.org/1999/xlink" viewBox="0 0 145.19243 173.50988"><defs><style>.a,.b,.c{stroke:#231f20;stroke-miterlimit:10;}.a{fill:url(#a);}.b{fill:url(#b);}.c{fill:url(#c);}.d{fill:#3c2415;}</style><linearGradient id="a" x1="-2088.35328" y1="1093.96477" x2="-1945.95014" y2="1093.96477" gradientTransform="matrix(0.93354, 0.012, -0.0137, 1.06578, 1965.37155, -1087.50764)" gradientUnits="userSpaceOnUse"><stop offset="0" stop-color="#c49a6c"/><stop offset="0.56122" stop-color="#f1f2f2"/><stop offset="1" stop-color="#c49a6c"/></linearGradient><radialGradient id="b" cx="-2018.15458" cy="1225.84383" r="47.09548" gradientTransform="matrix(0, 0.93362, -1, 0, 1291.76164, 1972.25231)" gradientUnits="userSpaceOnUse"><stop offset="0" stop-color="#fed095"/><stop offset="1" stop-color="#a97c50"/></radialGradient><linearGradient id="c" x1="-2036.11672" y1="1267.84288" x2="-1976.75148" y2="1267.84288" gradientTransform="translate(2087.58646 -1111.89776) rotate(0.73637)" xlink:href="#a"/></defs><path class="a" d="M133.44086,79.81464c-.24108,18.75656-30.13164,28.57126-66.84184,28.09944S.26039,96.86258.50146,78.106,29.42966.031,66.13986.5028,133.68193,61.05808,133.44086,79.81464Z"/><ellipse class="b" cx="65.91781" cy="88.06341" rx="15.17934" ry="60.54548" transform="translate(-22.98548 152.84402) rotate(-89.26364)"/><path class="c" d="M92.97536,87.49642c-8.31878,15.02918-15.80515,35.0553-9.142,53.81469,4.35081,12.2493,12.54821,17.22308,9.97567,22.88542-6.19741,13.64093-53.98,10.61457-58.5469-3.35821-2.22735-6.81469,8.77829-11.06461,12.13992-25.59574,5.37938-23.25309-3.66631-42.266-6.71335-48.06285Z"/><path class="d" d="M43.70952,28.63924a8.14645,8.14645,0,0,0,1.6377-3.97754c0-.8584-.49414-1.14453-1.68946-1.48242a16.35714,16.35714,0,0,1-1.58691-.51953l.44238-2.28907a15.2235,15.2235,0,0,0,1.53418.44239c2.46973.5459,3.32813,1.32617,3.32813,3.25a10.134,10.134,0,0,1-2.05371,5.35644Z"/><path class="d" d="M49.3521,32.59139a36.72342,36.72342,0,0,1,4.1084-.12989h3.95215c0-1.76757.02539-4.23828-.02637-5.56445-.05176-2.78223-.36426-3.84766-2.834-3.84766H52.29058a15.53857,15.53857,0,0,1-2.88672-.15625l.46875-2.31347a24.85506,24.85506,0,0,0,3.32812.10351h2.05371c3.71778,0,4.13379,1.71582,4.13379,5.27832v4.29c0,.5459-.05176,1.76758-.10351,2.21h1.89746l-.44141,2.36622H52.26421c-1.11817,0-2.75586,0-3.35352.07812Z"/><path class="d" d="M64.06792,32.40975c3.458-1.04,6.16211-3.74414,6.16211-7.41016,0-1.63867-.65039-1.9502-2.02832-1.9502H62.01323V19.30525A15.2912,15.2912,0,0,0,61.65,15.17147l2.10547-.36426a19.30379,19.30379,0,0,1,.26074,4.03027v1.8457h5.01758c2.65234,0,3.27637,1.32618,3.27637,3.64063a11.25741,11.25741,0,0,1-8.71,10.73828Z"/><path class="d" d="M74.41558,20.7867l2.46972-.2334c.18164.624.52051,2.57422,1.32617,7.41016,2.59961-.59766,3.042-1.6377,3.042-3.50977a12.81787,12.81787,0,0,0-.70215-3.667l2.44433-.2334a14.65811,14.65811,0,0,1,.5459,3.56152c0,2.44434-.72754,4.68067-5.12207,5.5127.05176.25977.33789,2.10645.49414,2.96387a20.31249,20.31249,0,0,0,2.834-.416c3.22363-.70215,5.17382-2.08008,5.17382-6.5a15.18941,15.18941,0,0,0-.88378-4.88867l2.49609-.207a16.72766,16.72766,0,0,1,.624,4.57617c.02637,6.37012-3.71777,8.52734-7.77441,9.28223-1.6377.28613-3.25.49316-4.13379.57129C76.70366,31.57772,75.16948,22.91951,74.41558,20.7867Z"/><path class="d" d="M53.51226,58.27986c0-2.88672-.26075-4.03027-2.70508-4.03027H46.38726a16.57336,16.57336,0,0,1-2.99024-.15625l.44238-2.31445a28.4831,28.4831,0,0,0,3.58789.10449h3.5625c3.69239,0,4.52442,1.06641,4.52442,5.33008v8.81445h-2.002Zm-9.59473.31153h2.02832v7.43652H43.91753Z"/><path class="d" d="M58.399,63.76619a28.39013,28.39013,0,0,1,3.19825-.10449h1.82031V57.86385c0-2.2627-.26074-2.88672-2.57422-3.43262a22.81436,22.81436,0,0,1-2.2627-.57226l.44239-2.28711a16.38166,16.38166,0,0,0,2.23633.51953c3.01562.624,4.18652,1.50781,4.18652,5.33008v6.31835l-.44238,2.28809H61.38921c-1.11817,0-2.91211.02637-3.43164.07813Z"/><path class="d" d="M67.941,63.76619c.5205-.07812,2.002-.07812,3.53613-.07812h4.9668a27.94759,27.94759,0,0,0,.49316-4.83692c0-3.4834-.7793-4.60156-3.61426-4.60156H70.9312a16.77277,16.77277,0,0,1-2.99023-.15625l.46777-2.31445a25.03031,25.03031,0,0,0,3.25.10449h2.1582c4.291,0,5.123,1.89844,5.123,6.76074a35.37662,35.37662,0,0,1-.8584,7.38379H70.9312a33.59778,33.59778,0,0,0-3.43262.07813Z"/><path class="d" d="M92.0689,58.27986c0-2.88672-.26075-4.03027-2.70508-4.03027H84.9439a16.57336,16.57336,0,0,1-2.99024-.15625l.44238-2.31445a28.4831,28.4831,0,0,0,3.58789.10449h3.5625c3.69239,0,4.52442,1.06641,4.52442,5.33008v8.81445H92.0689Zm-9.59473.31153h2.02832v7.43652H82.47417Z"/></svg>