<svg xmlns="http://www.w3.org/2000/svg" xmlns:xlink="http://www.w3.org/1999/xlink" viewBox="0 0 303.05637 154.30139"><defs><style>.a{fill:url(#a);}.b{fill:url(#b);}.c{fill:#f1f2f2;}</style><linearGradient id="a" x1="4.98934" y1="141.05953" x2="126.39463" y2="141.05953" gradientTransform="translate(-6.4358 -1.80012) rotate(-0.62622)" gradientUnits="userSpaceOnUse"><stop offset="0" stop-color="#2b2829"/><stop offset="0.5051" stop-color="#d1d3d4"/><stop offset="1" stop-color="#231f20"/></linearGradient><linearGradient id="b" x1="366.66324" y1="676.08889" x2="492.48294" y2="676.08889" gradientTransform="matrix(1.47713, -0.98614, -0.55524, -0.83169, -56.0897, 1044.04079)" xlink:href="#a"/></defs><path class="a" d="M121.36464,126.12832c.16038,15.428-23.72415,28.21326-53.35215,28.55373C38.80143,155.01773,1.2658,145.63237,0,130.51107c7.47513,9.28109,30.61065,12.42155,60.644,10.4778,28.42252-1.83429,52.14305-9.85393,59.98247-19.33776A14.91248,14.91248,0,0,1,121.36464,126.12832Z"/><path class="b" d="M301.70907,4.67424C293.5609-8.15788,251.47949,6.3375,207.71246,37.05766c-43.15111,30.28785-95.5949,81.86989-89.23946,95.6068,5.95208-15.43969,40.60737-46.82877,85.842-76.657C247.12057,27.7748,286.371,9.53914,303.05637,9.12171A9.10818,9.10818,0,0,0,301.70907,4.67424Z"/><path class="c" d="M110.98559,130.33208c.06674,4.066-23.79694,12.1772-54.09456,12.72687S1.33494,136.38862,1.26821,132.32259s24.51411-40.273,54.24609-38.321C91.20691,96.34492,110.91886,126.26606,110.98559,130.33208Z"/></svg>