<svg xmlns="http://www.w3.org/2000/svg" xmlns:xlink="http://www.w3.org/1999/xlink" viewBox="0 0 353.87764 270.94975"><defs><style>.a,.k,.l{fill:none;}.b,.c,.d,.e,.f,.g,.h{stroke:#231f20;}.b,.c,.d,.e,.f,.g,.h,.k{stroke-miterlimit:10;}.b{fill:url(#a);}.c{fill:#151514;}.d{fill:#0e4356;}.e{fill:#0a5170;}.f{fill:#083642;}.g,.o{fill:#fff;}.h{fill:#94aab2;}.i{fill:#231f20;}.j{fill:#f1f2f2;}.k,.l{stroke:#f7941d;stroke-linecap:round;stroke-width:7px;}.l{stroke-linejoin:round;}.m{clip-path:url(#b);}.n{fill:url(#c);}.p{fill:url(#d);}.q{fill:#a7a9ac;}</style><linearGradient id="a" x1="204.44759" y1="270.94975" x2="204.44759" y2="65.94975" gradientUnits="userSpaceOnUse"><stop offset="0" stop-color="#fff"/><stop offset="0.26895" stop-color="#6c6d6f"/><stop offset="0.30542" stop-color="#58595b"/><stop offset="0.44828"/></linearGradient><clipPath id="b"><polygon class="a" points="53.064 234.045 0.762 184.677 0.762 91.638 53.064 141.006 53.064 234.045"/></clipPath><radialGradient id="c" cx="304.72131" cy="70.97661" r="40.32492" gradientTransform="matrix(0.67092, 0.63328, 0, 1.05623, -177.41394, -94.98591)" gradientUnits="userSpaceOnUse"><stop offset="0" stop-color="#ffde17"/><stop offset="1" stop-color="#f5841f"/></radialGradient><linearGradient id="d" x1="263.42166" y1="33.59628" x2="263.42166" y2="5.25628" gradientUnits="userSpaceOnUse"><stop offset="0" stop-color="#ed1c24"/><stop offset="1" stop-color="#97131f"/><stop offset="1" stop-color="#ed1c24"/></linearGradient></defs><rect class="b" x="55.01754" y="65.94975" width="298.8601" height="205"/><polyline class="c" points="54.415 65.95 2.171 11.95 0 211.95 54.415 270.95"/><polygon class="d" points="2.774 11.95 55.018 65.95 353.878 65.95 293.878 11.95 2.774 11.95"/><rect class="e" x="55.01754" y="64.94975" width="298.8601" height="36"/><polygon class="f" points="55.018 101.95 55.018 64.95 2.774 11.95 0.345 47.846 55.018 101.95"/><rect class="g" x="55.01754" y="100.94975" width="298.8601" height="22"/><polyline class="h" points="0.345 47.846 55.018 100.95 55.018 122.95 0 70.95 0 51.95"/><path class="i" d="M171.9792,104.233a5.05859,5.05859,0,0,1-1.34424,3.07031,2.47369,2.47369,0,0,1-1.96875,1.05469,2.73362,2.73362,0,0,1-.67187-.09375l-1.95313,6.24219a8.40054,8.40054,0,0,1-.70312,1.61719,5.52807,5.52807,0,0,1-1.00782,1.4375,1.201,1.201,0,0,1-.79687.33593,2.03934,2.03934,0,0,1-1.67969-.97656,4.26624,4.26624,0,0,1-.96094-2.36719,2.95425,2.95425,0,0,1,.38282-1.10156l.39843-.22656h.17969a1.41371,1.41371,0,0,1,1.26563.60937,2.08092,2.08092,0,0,0-.25782.92969.93608.93608,0,0,0,.53907.8125q.39038,0,.77343-1.45312l1.67969-6.32032a10.738,10.738,0,0,0-1.92187-.25781,3.75692,3.75692,0,0,0-1.15625.125.84832.84832,0,0,0-.58594.88281.78074.78074,0,0,0,.38281.64063,1.531,1.531,0,0,0,.71875.27344l.38281.57812a2.25269,2.25269,0,0,1-1.17968,1.40625,2.54232,2.54232,0,0,1-1.75-1.02344,3.33472,3.33472,0,0,1-.55469-1.96875,3.7181,3.7181,0,0,1,.27344-1.44531,2.39,2.39,0,0,1,1.22656-1.34375,4.8201,4.8201,0,0,1,1.84375-.28125,14.96338,14.96338,0,0,1,2.89062.35156,3.86057,3.86057,0,0,1,2.88282-2.65625,3.37482,3.37482,0,0,1,1.00781-.17968,2.02749,2.02749,0,0,1,1.14111.32031A1.16725,1.16725,0,0,1,171.9792,104.233Zm-2.188,1.15625q0-.65625-.4375-.65625-.219,0-.8125,1.39063a2.72276,2.72276,0,0,0,.65625.04687Q169.79073,106.17045,169.79121,105.3892Z"/><path class="i" d="M179.12764,110.09233a2.54863,2.54863,0,0,1-1.5,2.14062,5.02915,5.02915,0,0,1-2.65625.80469,3.59167,3.59167,0,0,1-.46875-.03906c-.22461-.02051-.37793-.03125-.46094-.03125l-.5625-1.13282a5.493,5.493,0,0,0-.52344,2.52344,1.21432,1.21432,0,0,0,.32813.875,1.12205,1.12205,0,0,0,.85156.34375q2.54591,0,3.28125-1.00781l.65625.27344v.38281a4.5843,4.5843,0,0,1-.36719,1.69531,5.68018,5.68018,0,0,1-2.97656.83594,3.67851,3.67851,0,0,1-2.92969-.94531,3.56461,3.56461,0,0,1-.70312-1.52344,9.73,9.73,0,0,1-.10938-1.67969,5.69274,5.69274,0,0,1,.52344-2.20312,9.88335,9.88335,0,0,1,1.14063-2,8.94349,8.94349,0,0,1,1.85156-1.82813,4.261,4.261,0,0,1,2.38281-.99219Q179.12666,106.58451,179.12764,110.09233Zm-2.01563-.77344a1.47181,1.47181,0,0,0-.125-.60156,5.32534,5.32534,0,0,0-3.21875,2.58593,2.58207,2.58207,0,0,0,.67188.13282,2.94068,2.94068,0,0,0,1.74219-.59375A1.866,1.866,0,0,0,177.112,109.31889Z"/><path class="i" d="M196.63545,112.49076a5.96107,5.96107,0,0,1-1.29687,3.4375,4.38322,4.38322,0,0,1-2.91407,2.11719,1.75493,1.75493,0,0,1-.96093-1.61719l.65625-.57812a1.71874,1.71874,0,0,0,1.29687-.71875,7.76958,7.76958,0,0,0,.83594-1.29688,2.6839,2.6839,0,0,0,.38281-1.25,1.02373,1.02373,0,0,0-.26562-.832,1.51174,1.51174,0,0,0-.90625-.207,13.94558,13.94558,0,0,0-4.21875,1.29688,1.57192,1.57192,0,0,1-.94532-1.45313l.27344-.65625a13.47357,13.47357,0,0,1,5.5625-1.26562,2.21365,2.21365,0,0,1,1.95313.99218A3.56226,3.56226,0,0,1,196.63545,112.49076Z"/><path class="i" d="M206.58858,112.50639a5.50466,5.50466,0,0,1-1.65625,3.90234,5.16166,5.16166,0,0,1-3.83594,1.73047,3.23877,3.23877,0,0,1-2.57031-1.40625,3.17615,3.17615,0,0,1-.67188-2.03125q0-1.73437,2.49219-4.60937a22.08276,22.08276,0,0,1,4.07812-3.75l.72657.07031a2.42387,2.42387,0,0,1,.70312,1.46875,29.91639,29.91639,0,0,0-3.44531,2.73437q-2.35254,2.1797-2.35156,3.42969a1.60054,1.60054,0,0,0,.5625,1.26953,1.99965,1.99965,0,0,0,1.35937.48828,3.13476,3.13476,0,0,0,1.82813-.59375,1.93111,1.93111,0,0,0,.90625-1.60156q0-.96093-.42969-.96094a.8038.8038,0,0,0-.38281.13282l-.57813-.60938q.65625-1.96875,2.28906-1.96875.42921,0,.73438.99219A4.48505,4.48505,0,0,1,206.58858,112.50639Z"/><path class="i" d="M217.08076,112.2017a3.13157,3.13157,0,0,1-.25,1.10156,8.96,8.96,0,0,1-.82031,1.60157,6.45,6.45,0,0,1-2.51953,2.1914,7.22988,7.22988,0,0,1-3.28516.80078,1.60089,1.60089,0,0,1-1.10937-.50781,4.10787,4.10787,0,0,1-1.13281-3.07812,4.39222,4.39222,0,0,1,.85156-2.39844l-.94531-.28906v-.09375a3.701,3.701,0,0,1,.28906-1.42188,16.09673,16.09673,0,0,1,6.23437-1.25,2.34335,2.34335,0,0,1,2.01563,1.07031A3.82911,3.82911,0,0,1,217.08076,112.2017Zm-2.10937-.51562a.7012.7012,0,0,0-.25781-.64844,1.50108,1.50108,0,0,0-.71875-.11719,6.45689,6.45689,0,0,0-3.19532.96094,3.98262,3.98262,0,0,0-.72656,2.33594q0,1.68016.80469,1.67968a3.88078,3.88078,0,0,0,2.73437-1.40625A4.09942,4.09942,0,0,0,214.97139,111.68608Z"/><path class="i" d="M229.0417,110.7642a1.87686,1.87686,0,0,1-.10156.625,2.219,2.219,0,0,1-1.34375.8125,2.773,2.773,0,0,0-.625-.125,4.45334,4.45334,0,0,0-1.72656.64063,12.09939,12.09939,0,0,0-2.01563,1.40625,1.98633,1.98633,0,0,0,1.76563,1.10156,3.37381,3.37381,0,0,0,1.14843-.24219h.0625q.57716,0,.57813,1.63281a2.1402,2.1402,0,0,1-1.00781.86719l-.54688.04688q-2.12548,0-3.82031-2.53125-.29.86718-.51563,1.46093a4.72148,4.72148,0,0,1-.62109,1.293.68879.68879,0,0,1-.44922.14453,2.5597,2.5597,0,0,1-1.4375-.75l.125-.86718q.76466-.36621,1.50781-3.35938a18.69186,18.69186,0,0,0,.57032-4.46094v-.19531l1.32812-1.42187a3.366,3.366,0,0,1,1.26563.5625q-.75,3.67968-1.4375,6.14062a12.347,12.347,0,0,1,6.27343-3.82031,5.17053,5.17053,0,0,1,1.00782.47656C229.03584,110.54545,229.0417,110.733,229.0417,110.7642Z"/><path class="i" d="M242.22139,109.67045a17.6686,17.6686,0,0,0-2.28125,3.64844q-.53174,1.11034-1.64844,3.98437l-1.02344.36719a20.86325,20.86325,0,0,0-2.45312-4.9375,12.63419,12.63419,0,0,0-2.14063,5.32813,3.45053,3.45053,0,0,1-1.79687.46093l-.55469-.65625a72.80566,72.80566,0,0,1,3.3125-7.67968,4.51773,4.51773,0,0,1,1.39063-.51563l.5625.17969,1.88281,3.98437q.99169-2.03026,1.69531-3.39062.39845-.8042,1.26563-2.32031l.83593-.19532A2.98566,2.98566,0,0,1,242.22139,109.67045Z"/><path class="j" d="M139.08955,137.00248a6.20612,6.20612,0,0,1,.32959,2.09571v11.86523h-2.18848v-11.8916q0-3.52-4.71972-3.52051-2.083,0-4.60108.14551l-.92285.05273v-1.85839q3.07178-.19923,5.62305-.19825a9.92081,9.92081,0,0,1,4.19873.77149A4.27474,4.27474,0,0,1,139.08955,137.00248Zm-9.91406,13.96094H126.987V140.11381h2.18848Z"/><path class="j" d="M152.12813,150.51518v.44824h-2.1753v-.44824a10.96879,10.96879,0,0,1,.43506-2.61719q.43506-1.65381.63281-2.36621.38233-1.46339.97559-3.42773l1.88525-6.46H143.55879v-1.6875H156.07v1.6875l-1.97754,6.72364q-.34277,1.21289-.56689,1.99707-.22413.78516-.44825,1.5957-.22411.81006-.36914,1.40332c-.09668.39649-.19336.8086-.29,1.24024A9.73934,9.73934,0,0,0,152.12813,150.51518Zm-6.38086,6.94824H143.572V140.79936h2.1753Z"/><path class="j" d="M161.17207,150.96342h-2.18848V133.95658h2.18848Z"/><path class="j" d="M165.52266,151.148a5.50289,5.50289,0,0,1-1.31836-.18457v-1.80664q.9624.13184,1.06787.13281,1.88525,0,1.88525-2.24218V135.80229l-1.85888.1709v-1.8584a57.37479,57.37479,0,0,1,6.43359-.42188,9.32713,9.32713,0,0,1,3.95508.751,4.33168,4.33168,0,0,1,2.32031,2.55859,6.20641,6.20641,0,0,1,.3291,2.09571v11.86523h-2.20117v-11.8916q0-3.52-4.707-3.52051-.58008,0-2.08252.08008v11.11328a4.98675,4.98675,0,0,1-.94922,3.24316A3.496,3.496,0,0,1,165.52266,151.148Z"/><path class="j" d="M189.54365,133.69291a4.5733,4.5733,0,0,1,3.73633,1.50293,6.28985,6.28985,0,0,1,1.2461,4.13965v11.62793h-5.80079v-1.70117h3.61329v-9.834q0-3.89062-3.56055-3.88964a3.53917,3.53917,0,0,0-1.21875.21777,3.91732,3.91732,0,0,0-1.00879.52051,6.34657,6.34657,0,0,0-1.22559,1.16015l-.1582.21094-1.25293,13.31543h-2.20215l1.24024-13.07812v-.29a9.62813,9.62813,0,0,0-.18555-1.21289,7.60288,7.60288,0,0,0-.46094-1.6084l-.34277-.81739h2.20215a6.00573,6.00573,0,0,1,.60547,1.793h.09277a5.71918,5.71918,0,0,1,1.64746-1.34472,6.73663,6.73663,0,0,1,1.31836-.48828A6.50039,6.50039,0,0,1,189.54365,133.69291Z"/><path class="j" d="M205.81123,151.148a5.50289,5.50289,0,0,1-1.31836-.18457v-1.80664q.96387.13184,1.06836.13281,1.88526,0,1.88477-2.24218V135.80229l-1.8584.1709v-1.8584a57.37494,57.37494,0,0,1,6.43359-.42188,9.3271,9.3271,0,0,1,3.95508.751,4.33168,4.33168,0,0,1,2.32031,2.55859,6.20641,6.20641,0,0,1,.3291,2.09571v11.86523h-2.20117v-11.8916q0-3.52-4.707-3.52051-.58008,0-2.082.08008v11.11328a4.98675,4.98675,0,0,1-.94922,3.24316A3.49806,3.49806,0,0,1,205.81123,151.148Z"/><path class="j" d="M225.35029,135.45951a6.36436,6.36436,0,0,0-1.60937.23731v-1.72754a9.34894,9.34894,0,0,1,2.36035-.27637q4.11328,0,4.11328,4.52246v8.59571a17.57588,17.57588,0,0,1-.126,2.10937,12.44071,12.44071,0,0,1-.25586,1.542l-.13282.501h-7.83007v-1.70117h5.8789a9.67251,9.67251,0,0,0,.26367-2.45117V138.399a3.22193,3.22193,0,0,0-.68554-2.293A2.65793,2.65793,0,0,0,225.35029,135.45951Z"/><path class="j" d="M241.42061,133.69291a4.57406,4.57406,0,0,1,3.7373,1.50293,6.29521,6.29521,0,0,1,1.24609,4.13965v11.62793h-5.80078v-1.70117h3.61231v-9.834q0-3.89062-3.55957-3.88964a3.5446,3.5446,0,0,0-1.21973.21777,3.8941,3.8941,0,0,0-1.00781.52051,6.38691,6.38691,0,0,0-1.22656,1.16015l-.15821.21094-1.252,13.31543h-2.20215l1.23926-13.07812v-.29a9.54526,9.54526,0,0,0-.18457-1.21289,7.54137,7.54137,0,0,0-.46191-1.6084l-.3418-.81739h2.20117a6.00275,6.00275,0,0,1,.60645,1.793h.09277a5.7061,5.7061,0,0,1,1.64746-1.34472,6.73663,6.73663,0,0,1,1.31836-.48828A6.493,6.493,0,0,1,241.42061,133.69291Z"/><path class="j" d="M257.18818,149.26225a5.83058,5.83058,0,0,0,4.47559-1.9375,9.94577,9.94577,0,0,0,2.15527-5.94531l.67286-7.41016h2.1748l-.64551,7.41016a14.0307,14.0307,0,0,1-.54,3.03808,13.38572,13.38572,0,0,1-.84375,2.16211,8.75464,8.75464,0,0,1-1.15429,1.668,7.54947,7.54947,0,0,1-1.61524,1.41113,7.96187,7.96187,0,0,1-2.19433.94239,10.5654,10.5654,0,0,1-2.84082.3623h-5.64258L249.779,133.95658h2.21485l.791,9.50489,1.75293-.58008q2.03028-.65918,2.334-3.66406l.51367-5.26075h2.18945l-.43554,4.46973q-.0923.89649-.23731,1.61426a7.82511,7.82511,0,0,1-.47461,1.49707,5.67065,5.67065,0,0,1-.79785,1.35742,5.0884,5.0884,0,0,1-1.23242,1.06836,5.98783,5.98783,0,0,1-1.7666.73828l-1.71387.46094.34277,4.09961Z"/><path class="k" d="M232.58747,166.71671a46.80219,46.80219,0,1,0,20.68347,14.88871"/><line class="l" x1="206.42092" y1="202.57115" x2="201.95566" y2="194.72383"/><path class="l" d="M218.94351,226.14385h3.83355a10.14761,10.14761,0,0,0,10.14761-10.14761v-2.11966c0-8.419-6.825-18.1004-15.244-18.1004-14.34859,0-14.88345,18.56382-18.51238,28.903-1.24131,2.72748-1.86761,5.939-5.216,6.79575-4.88119,1.24891-7.85786-4.14535-9.29872-7.9092a36.38383,36.38383,0,0,1-2.61278-12.86247,34.57372,34.57372,0,1,1,25.04128,33.26919"/><g class="m"><polygon class="i" points="53.064 225.896 0.762 176.528 0.762 91.638 53.064 141.006 53.064 225.896"/><polygon class="i" points="53.064 225.896 0.762 176.528 0.762 91.638 53.064 141.006 53.064 225.896"/><polygon class="n" points="47.272 243.176 6.787 204.963 6.787 102.734 47.272 140.948 47.272 243.176"/><ellipse class="i" cx="28.23926" cy="233.29537" rx="40.49183" ry="98.60914" transform="translate(-115.94631 47.72946) rotate(-30.94558)"/></g><path class="j" d="M24.13643,188.20366l-.02686,9.99218-3.12646-2.95117V184.482a9.159,9.159,0,0,0-2.8794-6.96778l-2.35791-2.22461-.74072,2.833,2.44092,2.30371v3.0625l-2.98926-2.82129a9.25625,9.25625,0,0,1-1.82373-2.43847,5.49813,5.49813,0,0,1-.75391-2.47852,3.017,3.017,0,0,1,.02735-.415l1.1792-5.62109,5.2373,4.94433A17.88565,17.88565,0,0,1,24.13643,188.20366Z"/><path class="j" d="M42.34443,207.01811q0,2.67627-2.65527,1.82617A13.89652,13.89652,0,0,1,34.57,205.47514a31.99609,31.99609,0,0,1-5.09082-6.26856q-2.65576-4.188-2.65576-6.83886v-9.68555l3.12646,2.95117v9.29981a3.52085,3.52085,0,0,0,.05469.68554q3.01684,2.10353,3.0166-.16015v-6.92676l3.12647,2.95117v7.3125q0,3.3047-3.92871,1.17676a24.78566,24.78566,0,0,0,2.25048,2.34473,10.42527,10.42527,0,0,0,3.49952,2.48925q1.2495.36621,1.249-1.125v-9.2998l3.12646,2.95019Z"/><path class="j" d="M11.85762,158.00541q.77563.69288,1.39209,1.27442.61451.58008,1.02246,1.04a11.2032,11.2032,0,0,1,.76269.96289,7.54105,7.54105,0,0,1,.59864.99511,4.59291,4.59291,0,0,1,.51562,2.02735v5.02148l-.92041-.86914v-5.0332q0-1.48976-1.98486-3.36328-.59839-.56544-1.38623-1.26953Z"/><path class="j" d="M21.97188,168.89116a5.36744,5.36744,0,0,0-.502-.90918,5.30615,5.30615,0,0,0-.75146-.877q-.438-.41308-.77051-.6709v-.75976a8.43363,8.43363,0,0,1,.79.67383,8.5526,8.5526,0,0,1,.86523.95019,8.46621,8.46621,0,0,1,.73975,1.126,8.90362,8.90362,0,0,1,.57666,1.2666,8.3482,8.3482,0,0,1,.51025,2.90918,4.46176,4.46176,0,0,1-.144,1.24414,1.26489,1.26489,0,0,1-.39648.67578.81837.81837,0,0,1-.60743.14649,1.91051,1.91051,0,0,1-.76464-.29493,5.62825,5.62825,0,0,1-.87647-.69336,8.92384,8.92384,0,0,1-.87646-.96093,9.08767,9.08767,0,0,1-.76465-1.14942,9.31833,9.31833,0,0,1-.60694-1.293,8.41727,8.41727,0,0,1-.397-1.42382,8.08962,8.08962,0,0,1-.14453-1.51661v-3.5996l.9541.90039v3.59961a7.6665,7.6665,0,0,0,.37207,2.36523,5.3468,5.3468,0,0,0,.5708,1.2168A5.26649,5.26649,0,0,0,20.591,172.856a3.06131,3.06131,0,0,0,.79541.58594.68814.68814,0,0,0,.52734.05957.65221.65221,0,0,0,.3291-.35352,3.49637,3.49637,0,0,0,.228-1.45312q0-.48633-.03906-.916a7.01867,7.01867,0,0,0-.15528-.93652A5.76328,5.76328,0,0,0,21.97188,168.89116Z"/><path class="j" d="M27.23994,172.48491a9.12714,9.12714,0,0,1,2.03711,2.84472,8.24928,8.24928,0,0,1,.75147,3.499,4.44347,4.44347,0,0,1-.144,1.24414,1.26183,1.26183,0,0,1-.39648.67578.81286.81286,0,0,1-.60693.14648,1.9125,1.9125,0,0,1-.76514-.29492,5.60374,5.60374,0,0,1-.876-.69336,8.87531,8.87531,0,0,1-.87646-.96094,9.03508,9.03508,0,0,1-.76465-1.14941,9.29963,9.29963,0,0,1-.60742-1.292,8.49962,8.49962,0,0,1-.397-1.42481,8.12992,8.12992,0,0,1-.144-1.5166,3.81127,3.81127,0,0,1,.23584-1.54395q.23511-.4995.585-.55566l-.70947-.624v-.78711Q25.73139,171.06157,27.23994,172.48491Zm-1.62207.56152a4.018,4.018,0,0,0-.21387,1.3164,8.73279,8.73279,0,0,0,.08594,1.27247,7.62243,7.62243,0,0,0,.28565,1.19531,5.37839,5.37839,0,0,0,.57177,1.21484,5.49974,5.49974,0,0,0,.89258,1.08594,2.43617,2.43617,0,0,0,.89258.59961.49265.49265,0,0,0,.5708-.13867,2.72262,2.72262,0,0,0,.37158-1.66407,7.0021,7.0021,0,0,0-.53174-2.82324,5.59215,5.59215,0,0,0-.53271-.93554,5.68952,5.68952,0,0,0-.77051-.89161l-.99316-.92578Q25.83149,172.42826,25.61787,173.04643Z"/><path class="j" d="M36.322,181.16948v2.33789a5.859,5.859,0,0,1-.03906.75293,1.7999,1.7999,0,0,1-.16016.54882q-.24975.5127-1.05957.06543l1.38086,3.6084-1.03662-.97851-1.74707-4.65625-.84277-2.06836a1.03975,1.03975,0,0,0-.32178-.13672c-.35107-.04395-.52685.26953-.52685.94336v2.67285l-.92041-.86914v-2.33789q0-1.22314.36084-1.47363a.54943.54943,0,0,1,.40185-.06934,1.69392,1.69392,0,0,1,.61865.251l-1.376-3.56348,1.04248.98437,1.6416,4.333.92578,2.31934a.65754.65754,0,0,0,.419.0498.44349.44349,0,0,0,.22753-.27051,1.73815,1.73815,0,0,0,.09131-.63867v-2.67285Z"/><path class="j" d="M40.81318,185.29741a6.9398,6.9398,0,0,1,1.57227,2.12011,5.30125,5.30125,0,0,1,.52393,2.2461v4.92187l-2.43995-2.30273V191.563l1.52,1.43457v-4.16309a4.17557,4.17557,0,0,0-1.49707-3.05957,2.781,2.781,0,0,0-.51367-.3916,1.43448,1.43448,0,0,0-.42383-.18066,1.0102,1.0102,0,0,0-.51562.00488l-.0669.02539-.52685,5.13965-.92627-.875.52148-5.043v-.12305a5.78013,5.78013,0,0,0-.07763-.58593,6.356,6.356,0,0,0-.19385-.86426l-.144-.48242.92627.875a5.52745,5.52745,0,0,1,.25488.999l.03906.03711a1.13854,1.13854,0,0,1,.69287.085,3.48477,3.48477,0,0,1,.5542.31641A5.59648,5.59648,0,0,1,40.81318,185.29741Z"/><path class="i" d="M34.07626,142.73358c0,3.15017-3.09545,5.09713-6.91388,1.49292s-6.91388-11.39473-6.91388-14.5449,3.09545-8.4605,6.91388-4.8563S34.07626,139.58341,34.07626,142.73358Z"/><path class="i" d="M27.70144,157.76618c-.06093,4.45721.17589,8.81455.50965,12.8142l-3.3141-3.12817a97.37678,97.37678,0,0,0,1.40847-10.83959,69.09116,69.09116,0,0,0-.97775-14.35568q-.29292-1.85946-.69109-3.94522l4.339,5.85277q-.1101.57707-.223,1.24255A80.79618,80.79618,0,0,0,27.70144,157.76618Z"/><path class="i" d="M46.17337,146.54863,40.1377,161.583c-.23359.58183-1.23941-.32108-1.48993-1.34047a25.00594,25.00594,0,0,1-.69431-10.01534c.80681-4.53334,3.47649-6.43921,7.04147-5.77575A2.167,2.167,0,0,1,46.17337,146.54863Z"/><path class="i" d="M37.14882,169.72741a77.41645,77.41645,0,0,0-1.8167,9.74055l-2.7301-3.18127a57.31634,57.31634,0,0,0,3.367-7.77622,40.45316,40.45316,0,0,0,1.63051-11.01475q.04575-1.46859.02785-3.13345l3.25568,5.48318q-.21419.40514-.44717.87589A47.18555,47.18555,0,0,0,37.14882,169.72741Z"/><polygon class="i" points="13.265 129.304 12.29 128.551 11.315 127.798 10.433 118.804 9.552 109.809 11.408 119.557 13.265 129.304"/><polygon class="i" points="16.712 131.96 15.737 131.207 14.762 130.454 13.881 121.46 13 112.465 14.856 122.213 16.712 131.96"/><polygon class="i" points="14.966 130.604 13.991 129.851 13.016 129.098 12.135 120.104 11.253 111.109 13.11 120.857 14.966 130.604"/><polygon class="i" points="18.361 133.249 17.386 132.496 16.411 131.743 15.53 122.749 14.649 113.755 16.505 123.502 18.361 133.249"/><polygon class="i" points="16.469 138.332 13.881 133.033 11.294 127.734 14.863 130.444 18.432 133.154 17.45 135.743 16.469 138.332"/><path class="i" d="M19.33076,150.09306c.95429,4.92531,2.02774,9.57336,3.06826,13.77432l-2.26155-1.56644c-.50578-4.21979-.99954-8.5376-1.72314-12.68763a138.41679,138.41679,0,0,0-3.63025-15.20223q-.54907-1.87548-1.198-3.94l3.34853,3.97912q.07507.6952.16835,1.489C17.50613,139.357,18.17613,144.13064,19.33076,150.09306Z"/><path class="i" d="M73.41084,233.90092a4.94613,4.94613,0,0,1,4.18164,1.90918,11.23705,11.23705,0,0,1,.03223,11.01367,5.52879,5.52879,0,0,1-8.33106-.04883,9.04172,9.04172,0,0,1-1.44189-5.51074Q67.85176,233.90043,73.41084,233.90092Zm.03223,3.36719q-.80567,0-1.168.9834a9.4189,9.4189,0,0,0-.36279,3.04492,9.58009,9.58009,0,0,0,.36279,3.06152q.36182.999,1.168.999,1.54688,0,1.54687-4.04395Q74.98994,237.2686,73.44307,237.26811Zm3.62549,20.52832H73.20137l13.06787-23.55762h3.86719Zm12.84228-14.48535a4.94613,4.94613,0,0,1,4.18164,1.90918,11.17722,11.17722,0,0,1,.02393,10.99707,5.52057,5.52057,0,0,1-8.32276-.04785,9.01237,9.01237,0,0,1-1.44189-5.49512Q84.35176,243.31059,89.91084,243.31108Zm.03223,3.36718q-.80567,0-1.168.9834a9.419,9.419,0,0,0-.36279,3.04492,9.5802,9.5802,0,0,0,.36279,3.06153q.36182.999,1.168.999,1.54688,0,1.54687-4.04394Q91.48994,246.67876,89.94307,246.67826Z"/><path class="i" d="M100.54561,235.49565a10.384,10.384,0,0,1,10.9165-.02442,4.90469,4.90469,0,0,1,2.0708,4.14942,5.37967,5.37967,0,0,1-1.01514,3.23926,8.61615,8.61615,0,0,1-3.20654,2.49707,11.5,11.5,0,0,1,3.77051,2.9248A5.482,5.482,0,0,1,114.258,251.69a5.61933,5.61933,0,0,1-2.26367,4.67285,9.62749,9.62749,0,0,1-6.0586,1.75586,9.84,9.84,0,0,1-6.00244-1.64355,5.46226,5.46226,0,0,1-2.20752-4.65625,6.12421,6.12421,0,0,1,1.08789-3.60156,8.99753,8.99753,0,0,1,3.42383-2.73145,8.83461,8.83461,0,0,1-2.88428-2.68262,5.93677,5.93677,0,0,1-.90234-3.21484A4.87278,4.87278,0,0,1,100.54561,235.49565Zm1.78857,16.0332a2.61766,2.61766,0,0,0,.959,2.15918,4.20728,4.20728,0,0,0,2.707.77344,4.10629,4.10629,0,0,0,2.69043-.78223,2.6044,2.6044,0,0,0,.94287-2.11816,2.877,2.877,0,0,0-.91065-2.02246,11.68868,11.68868,0,0,0-2.95654-2.00586Q102.33417,249.09575,102.33418,251.52885Zm5.71191-13.30176a3.16041,3.16041,0,0,0-2.07031-.65234,3.09756,3.09756,0,0,0-2.05469.65234,2.08442,2.08442,0,0,0-.78125,1.67578,2.94355,2.94355,0,0,0,.61231,1.82911,7.36312,7.36312,0,0,0,2.25586,1.54687,6.43643,6.43643,0,0,0,2.1914-1.49121,2.75646,2.75646,0,0,0,.64454-1.83691A2.11542,2.11542,0,0,0,108.04609,238.22709Z"/><path class="i" d="M124.37715,233.90092a9.97137,9.97137,0,0,1,5.77685,1.47363,4.75189,4.75189,0,0,1,2.11866,4.13379,5.54219,5.54219,0,0,1-1.33741,3.75391,6.932,6.932,0,0,1-3.75439,2.12695v.09668a7.4995,7.4995,0,0,1,4.31836,1.73242,4.851,4.851,0,0,1,1.46631,3.71387,6.38669,6.38669,0,0,1-2.46533,5.31738q-2.48145,1.86915-7.04151,1.86914a17.02431,17.02431,0,0,1-6.7998-1.27246V252.608a13.7697,13.7697,0,0,0,6.26806,1.56348,6.274,6.274,0,0,0,3.64991-.84668,2.98083,2.98083,0,0,0,1.168-2.58594,2.52194,2.52194,0,0,0-1.33741-2.4414,9.90551,9.90551,0,0,0-4.33447-.7002h-1.78857v-3.81934h1.8208a8.36692,8.36692,0,0,0,4.02832-.72461,2.606,2.606,0,0,0,1.24072-2.44921q0-2.67481-3.35156-2.67481a9.27066,9.27066,0,0,0-5.02735,1.72363l-2.3042-3.43164A12.80288,12.80288,0,0,1,124.37715,233.90092Z"/><polygon class="o" points="332.326 45.273 37.172 45.273 43.306 50.626 338.46 50.626 332.326 45.273"/><polygon class="o" points="312.313 27.601 17.159 27.601 27.788 38.875 322.942 38.875 312.313 27.601"/><path class="p" d="M228.61538,33.59628V15.11367l24.71621-9.23943a9.76119,9.76119,0,0,1,3.41792-.618h13.29613a21.05911,21.05911,0,0,1,6.454,1.01337L298.228,13.26541V33.59628"/><polygon class="q" points="27.011 113.632 17.847 103.197 17.847 27.348 27.011 37.783 27.011 113.632"/></svg>