<svg xmlns="http://www.w3.org/2000/svg" xmlns:xlink="http://www.w3.org/1999/xlink" viewBox="0 0 273.99597 176.21903"><defs><style>.a,.ap,.aq,.c{fill:none;}.aa,.ab,.ac,.ad,.ae,.af,.ag,.b,.c,.g,.h,.i,.j,.k,.l,.m,.n,.q,.r,.s,.t,.u,.v,.w,.x,.z{stroke:#231f20;}.aa,.ab,.ac,.ad,.ae,.af,.ag,.an,.ao,.ap,.b,.c,.d,.e,.f,.g,.h,.i,.j,.k,.l,.m,.n,.q,.r,.s,.t,.u,.v,.w,.x,.z{stroke-miterlimit:10;}.b{fill:url(#a);}.d,.e,.f{stroke:#6b1a24;}.an,.ap,.aq,.d,.e,.f{stroke-width:2px;}.d{fill:url(#b);}.e{fill:url(#c);}.f{fill:url(#d);}.g{fill:url(#e);}.h{fill:url(#f);}.i{fill:url(#g);}.j{fill:url(#h);}.k{fill:url(#i);}.l{fill:url(#j);}.m{fill:url(#k);}.n{fill:url(#l);}.o{fill:#009444;}.p{fill:url(#m);}.q{fill:url(#n);}.r{fill:url(#o);}.s{fill:url(#p);}.t{fill:url(#q);}.u{fill:url(#r);}.v{fill:url(#s);}.w{fill:url(#t);}.x{fill:url(#u);}.y{fill:url(#v);}.z{fill:url(#w);}.aa{fill:url(#x);}.ab{fill:url(#y);}.ac{fill:url(#z);}.ad{fill:url(#aa);}.ae{fill:url(#ab);}.af{fill:url(#ac);}.ag{fill:url(#ad);}.ah{fill:url(#ae);}.ai{clip-path:url(#af);}.aj{fill:#231f20;}.ak{fill:url(#ag);}.al{fill:#f1f2f2;}.am,.an,.ao{fill:#fff;}.an{stroke:#ed1c24;}.ao,.ap,.aq{stroke:#009444;}.ao{stroke-width:3px;}.ap,.aq{stroke-linecap:round;}.aq{stroke-linejoin:round;}</style><linearGradient id="a" y1="91.68503" x2="264.93005" y2="91.68503" gradientUnits="userSpaceOnUse"><stop offset="0" stop-color="#5c0000"/><stop offset="0.30612" stop-color="#ed1c24"/><stop offset="0.85714" stop-color="#ed1c24"/><stop offset="1" stop-color="#5c0000"/></linearGradient><linearGradient id="b" x1="67.87729" y1="76.52583" x2="331.27596" y2="76.52583" gradientTransform="matrix(1, 0, 0.06516, 1.00862, -67.16873, -8.88059)" gradientUnits="userSpaceOnUse"><stop offset="0.02551" stop-color="#ab0f14"/><stop offset="0.39796" stop-color="#ed1c24"/><stop offset="1" stop-color="#b71318"/></linearGradient><linearGradient id="c" x1="70.34562" y1="76.88948" x2="333.74434" y2="76.88948" gradientTransform="matrix(1, 0, 0.043, 1.00926, -68.45373, -9.11789)" gradientUnits="userSpaceOnUse"><stop offset="0.02551" stop-color="#bcbec0"/><stop offset="0.39796" stop-color="#fff"/><stop offset="1" stop-color="#d1d3d4"/></linearGradient><linearGradient id="d" x1="170.08383" y1="32.61577" x2="415.32855" y2="32.61577" gradientTransform="matrix(1, 0, 0.16321, 0.99735, -169.56203, 2.75421)" xlink:href="#b"/><linearGradient id="e" x1="583.75257" y1="73.43725" x2="624.82141" y2="73.43725" gradientTransform="matrix(0.88353, 0.33897, -0.2629, 1.02796, -353.47772, -191.83737)" gradientUnits="userSpaceOnUse"><stop offset="0" stop-color="#8b0304"/><stop offset="0.9898" stop-color="#ec1c24"/><stop offset="1" stop-color="#e71c23"/><stop offset="1" stop-color="#fff"/></linearGradient><linearGradient id="f" x1="594.01978" y1="73.19182" x2="635.08862" y2="73.19182" gradientTransform="matrix(0.89838, 0.29739, -0.21466, 1.0391, -366.36404, -174.1415)" xlink:href="#e"/><linearGradient id="g" x1="608.73612" y1="72.04388" x2="645.01359" y2="72.04388" gradientTransform="matrix(0.90355, 0.28131, -0.19609, 1.04277, -371.99464, -172.17651)" gradientUnits="userSpaceOnUse"><stop offset="0" stop-color="#8b0304"/><stop offset="0.7602" stop-color="#e71c23"/><stop offset="0.9898" stop-color="#ec1c24"/><stop offset="1" stop-color="#fff"/></linearGradient><linearGradient id="h" x1="593.2764" y1="46.84749" x2="611.87828" y2="46.84749" gradientTransform="matrix(0.8795, -0.34931, 0.50311, 0.93418, -407.29267, 230.96771)" gradientUnits="userSpaceOnUse"><stop offset="0" stop-color="#006838"/><stop offset="0.9949" stop-color="#39b54a"/></linearGradient><linearGradient id="i" x1="917.09382" y1="900.67681" x2="934.27106" y2="900.67681" gradientTransform="matrix(0.20586, -0.93115, 0.9921, 0.35729, -936.04242, 610.84455)" xlink:href="#h"/><linearGradient id="j" x1="-966.18785" y1="1154.32706" x2="-948.65068" y2="1154.32706" gradientTransform="matrix(-0.62262, 0.67784, -0.79936, -0.7316, 498.08243, 1558.50078)" xlink:href="#h"/><linearGradient id="k" x1="-767.02758" y1="-271.49838" x2="-749.58375" y2="-271.49838" gradientTransform="matrix(-1.0498, 0.19136, 0.27589, 0.80766, -551.22641, 421.33045)" xlink:href="#h"/><linearGradient id="l" x1="-382.90185" y1="1942.64774" x2="-368.65116" y2="1942.64774" gradientTransform="matrix(-1.01268, -0.19317, 0.03356, -0.97846, -280.83771, 1899.85091)" xlink:href="#h"/><linearGradient id="m" x1="169.25734" y1="-389.03081" x2="169.25734" y2="-412.2962" gradientTransform="matrix(1.47316, 0.07464, 0.09412, 0.83821, -54.20117, 379.09454)" gradientUnits="userSpaceOnUse"><stop offset="0" stop-color="#009444"/><stop offset="0.37755" stop-color="#006838"/><stop offset="1" stop-color="#675d3f"/></linearGradient><linearGradient id="n" x1="-124.11268" y1="272.35558" x2="-83.04385" y2="272.35558" gradientTransform="matrix(0.39551, 0.99426, -0.83382, 0.42556, 373.1994, 75.43564)" xlink:href="#e"/><linearGradient id="o" x1="-113.84547" y1="272.11015" x2="-72.77664" y2="272.11015" gradientTransform="matrix(0.53309, 0.9278, -0.76471, 0.53998, 372.8144, 32.81994)" xlink:href="#e"/><linearGradient id="p" x1="-99.12914" y1="270.96221" x2="-62.85167" y2="270.96221" gradientTransform="matrix(0.61195, 0.87779, -0.71472, 0.60459, 370.32741, 5.49945)" xlink:href="#g"/><linearGradient id="q" x1="-114.58885" y1="245.76582" x2="-95.98698" y2="245.76582" gradientTransform="matrix(0.95089, 0.49071, -0.34992, 0.86828, 298.93262, -97.29906)" xlink:href="#h"/><linearGradient id="r" x1="299.10728" y1="502.26201" x2="316.28452" y2="502.26201" gradientTransform="matrix(0.89211, -0.32524, 0.4804, 0.94283, -406.64236, -304.29167)" xlink:href="#h"/><linearGradient id="s" x1="-235.80325" y1="1239.06225" x2="-218.26608" y2="1239.06225" gradientTransform="matrix(-1.01254, -0.1243, -0.03731, -0.98957, -52.06935, 1282.01432)" xlink:href="#h"/><linearGradient id="t" x1="-165.8375" y1="122.286" x2="-148.39368" y2="122.286" gradientTransform="matrix(-0.9572, -0.70261, -0.42472, 0.62919, 38.32249, -108.59086)" xlink:href="#h"/><linearGradient id="u" x1="115.1185" y1="1401.70647" x2="129.36918" y2="1401.70647" gradientTransform="matrix(-0.62558, -0.8735, 0.79705, -0.48135, -919.43357, 863.9965)" xlink:href="#h"/><linearGradient id="v" x1="-220.64206" y1="162.37164" x2="-220.64206" y2="139.10625" gradientTransform="matrix(1.07271, 1.16377, -0.58843, 0.50619, 453.38411, 249.1186)" xlink:href="#m"/><linearGradient id="w" x1="565.98028" y1="92.41475" x2="607.04912" y2="92.41475" gradientTransform="matrix(0.88353, 0.33897, -0.2629, 1.02796, -338.86906, -181.38477)" xlink:href="#e"/><linearGradient id="x" x1="576.24749" y1="92.16932" x2="617.31633" y2="92.16932" gradientTransform="matrix(0.89838, 0.29739, -0.21466, 1.0391, -352.40689, -164.63943)" xlink:href="#e"/><linearGradient id="y" x1="590.96382" y1="91.02139" x2="627.2413" y2="91.02139" gradientTransform="matrix(0.90355, 0.28131, -0.19609, 1.04277, -358.29818, -163.02965)" xlink:href="#g"/><linearGradient id="z" x1="575.50411" y1="65.82499" x2="594.10598" y2="65.82499" xlink:href="#h"/><linearGradient id="aa" x1="891.10431" y1="899.9384" x2="908.28155" y2="899.9384" gradientTransform="matrix(0.20586, -0.93115, 0.9921, 0.35729, -936.04242, 610.84455)" xlink:href="#h"/><linearGradient id="ab" x1="-942.54107" y1="1143.51828" x2="-925.0039" y2="1143.51828" gradientTransform="matrix(-0.62262, 0.67784, -0.79936, -0.7316, 498.08243, 1558.50078)" xlink:href="#h"/><linearGradient id="ac" x1="-754.24081" y1="-244.89125" x2="-736.79699" y2="-244.89125" gradientTransform="matrix(-1.0498, 0.19136, 0.27589, 0.80766, -551.22641, 421.33045)" xlink:href="#h"/><linearGradient id="ad" x1="-377.73962" y1="1917.16537" x2="-363.48893" y2="1917.16537" gradientTransform="matrix(-1.01268, -0.19317, 0.03356, -0.97846, -280.83771, 1899.85091)" xlink:href="#h"/><linearGradient id="ae" x1="163.26973" y1="-359.94111" x2="163.26973" y2="-383.2065" xlink:href="#m"/><clipPath id="af"><polygon class="a" points="81.467 99.005 26.025 99.005 10.03 1.263 65.472 1.263 81.467 99.005"/></clipPath><radialGradient id="ag" cx="687.16287" cy="99.05474" r="42.4758" gradientTransform="matrix(0.67518, 0, 0.17239, 1.05343, -433.44481, -43.70394)" gradientUnits="userSpaceOnUse"><stop offset="0" stop-color="#ffde17"/><stop offset="1" stop-color="#f5841f"/></radialGradient></defs><path class="b" d="M260.51,164.58c1.32,6.51-2.98,11.82-9.56,11.79l-215.83-.89c-6.56995-.03-13.03-5.37-14.35-11.89L0,60.99994l.63-6.42,4.63-47.58,8.55,42.23,12.22,60.36a15.4245,15.4245,0,0,0,14.35,11.89l211.59.87,4.24.02a9.44568,9.44568,0,0,0,8.72-4.93Z"/><line class="c" x1="262.93002" y1="117.43998" x2="262.93002" y2="117.42998"/><path class="d" d="M268.53878,135.609l-226.56967-.9401c-6.90552-.02865-14.05148-5.69125-15.8799-12.58355l-22.231-100.68C2.0298,14.51305-.39672.97139,6.5088,1.00005l226.56967.94009c6.90553.02865,8.55683,5.58754,10.38526,12.47984L270.9,117.44C272.72845,124.33228,275.44431,135.63767,268.53878,135.609Z"/><path class="e" d="M266.56336,135.831l-226.54908-.94067c-6.9049-.02867-13.92646-5.69489-15.60344-12.59159L4.3918,21.55441C2.7148,14.6577.58579,1.10741,7.49069,1.13609l226.54908.94067c6.9049.02867,8.43408,5.59113,10.11105,12.4878l25.17291,103.08582C271.00077,124.54708,273.4682,135.85967,266.56336,135.831Z"/><path class="f" d="M255.3088,64.00551a3.44056,3.44056,0,0,1,.05448-.49508c-.09151-.28093-.17581-.563-.27345-.843a5.49619,5.49619,0,0,1-.3257-2.04321L243.6379,15.04484C241.95841,8.1432,240.42768,2.578,233.52446,2.55807L6.97936,1.61057c-6.90493-.02994-4.77681,13.52405-3.099,20.41571l8.63781,43.49443c116.49261-7.50008,150.186-20.98426,157.2019-32.80282.5096-.85771,5.129-8.86645,8.36427-7.97879,5.08849,1.39631-2.51561,22.33065,7.95926,33.90986,2.44068,2.69285,6.10219,5.14629,11.62255,6.98144,10.7135,3.57789,28.42938,4.82093,57.73426.941C255.341,65.72305,255.30254,64.87022,255.3088,64.00551Z"/><ellipse class="g" cx="161.12353" cy="88.48881" rx="19.01208" ry="23.28604" transform="translate(-17.33589 132.57164) rotate(-42.65089)"/><ellipse class="h" cx="170.03004" cy="84.67312" rx="19.06811" ry="24.13759" transform="translate(-14.665 129.02957) rotate(-39.97723)"/><ellipse class="i" cx="180.28848" cy="79.29704" rx="16.86212" ry="21.6971" transform="translate(-9.76581 130.98187) rotate(-38.95507)"/><path class="j" d="M156.60083,70.45785c-4.01811-.62726-11.50015.96388-16.92685-2.54087-4.45378-2.87641-5.33511-9.07712-4.84617-9.45635.72715-.564,7.014,5.81405,16.16144,4.96229a19.43254,19.43254,0,0,0,4.25652-.89653"/><path class="k" d="M162.4713,69.50234a39.73748,39.73748,0,0,1-17.28991,5.5385c-6.45118.52163-11.82507-.58362-11.90537-1.23212-.11942-.96444,11.61651.27094,17.19738-6.55065a12.25329,12.25329,0,0,0,2.02943-3.59974"/><path class="l" d="M157.357,60.00621a46.24967,46.24967,0,0,1,18.94177,2.49738c6.33741,2.24572,10.88885,5.426,10.65819,6.011-.343.87-10.83971-5.0731-19.33274-1.598a13.22025,13.22025,0,0,0-3.6173,2.2155"/><path class="m" d="M167.00426,68.24725a31.20637,31.20637,0,0,0,8.41415-13.73339c1.35985-5.08631.71886-9.28552-.01873-9.33278-1.09694-.07028-1.05451,9.12917-9.56921,13.68541a19.91647,19.91647,0,0,1-4.38547,1.68426"/><path class="n" d="M160.68807,60.27305a39.204,39.204,0,0,1,9.13572,13.551c2.00413,5.14409,2.27366,9.51685,1.7031,9.61818-.84852.15069-2.50848-9.33178-10.034-13.41913a15.07664,15.07664,0,0,0-3.75407-1.4226"/><ellipse class="o" cx="158.39863" cy="66.46819" rx="9.73767" ry="4.81653" transform="translate(-13.09998 56.65124) rotate(-19.48803)"/><path class="p" d="M155.39074,65.47961c2.89355-6.65444,1.68606-10.80064-.17536-13.429-1.18529-1.67368-3.08871-3.37155-2.30657-4.59252.87421-1.36469,4.89332-1.80566,6.66755-.56045,2.42028,1.69864-1.15887,5.25634.26208,11.617a17.22726,17.22726,0,0,0,2.11232,5.132"/><ellipse class="q" cx="105.13813" cy="88.35506" rx="19.76988" ry="22.39346" transform="translate(-32.17628 90.67759) rotate(-41.01173)"/><ellipse class="r" cx="114.98702" cy="93.18017" rx="20.37589" ry="22.58838" transform="translate(-32.15023 77.20559) rotate(-32.82342)"/><ellipse class="s" cx="127.10431" cy="98.22928" rx="18.2245" ry="20.07512" transform="translate(-31.15305 70.67739) rotate(-27.82176)"/><path class="t" d="M115.87711,75.55834c-2.5919-3.39377-9.59314-8.2836-10.99881-14.2441-1.15365-4.89188,3.05711-8.77782,3.73159-8.6009,1.0031.26312.80457,8.3693,8.50221,14.91416a27.0256,27.0256,0,0,0,3.97616,2.78631"/><path class="u" d="M121.13945,79.5467A56.62834,56.62834,0,0,1,103.4932,69.21159c-5.36637-4.65668-8.62288-9.33357-8.17339-9.73091.6685-.59092,8.70917,9.01227,18.373,9.74a14.785,14.785,0,0,0,4.39632-.31524"/><path class="v" d="M124.69648,70.72044a54.58658,54.58658,0,0,1,12.58076,15.76042c3.09763,6.00367,4.08679,11.12757,3.44848,11.25453-.94929.18881-4.32719-10.90721-13.59-15.593a19.149,19.149,0,0,0-4.52484-1.61471"/><path class="w" d="M125.61058,82.35836c4.4872.71993,11.13053,1.256,17.28833-.6897,5.05379-1.59687,7.87147-4.2622,7.34218-4.85-.78717-.87418-8.00605,3.92484-18.13772-.21732a28.69436,28.69436,0,0,1-4.69613-2.47663"/><path class="x" d="M127.04473,73.40272a27.44715,27.44715,0,0,1-3.66434,13.99856c-2.51544,4.196-5.75524,6.66754-6.27336,6.28429-.77055-.57,5.429-6.751,2.87043-14.61628a15.098,15.098,0,0,0-1.76217-3.60421"/><ellipse class="o" cx="120.40288" cy="74.86416" rx="4.26578" ry="10.99489" transform="translate(-2.53066 145.49589) rotate(-61.75216)"/><path class="y" d="M118.87173,72.05472c7.46793-1.23805,9.80869-4.30857,10.45075-7.09208.40885-1.77244.28516-4.10588,1.84836-4.14117,1.74721-.03944,5.18192,2.80159,5.56317,4.80182.52009,2.72858-5.03344,1.83847-8.95583,6.21943a11.975,11.975,0,0,0-2.42276,4.27233"/><ellipse class="z" cx="155.04068" cy="112.42518" rx="19.01208" ry="23.28604" transform="translate(-35.16244 134.7816) rotate(-42.65089)"/><ellipse class="aa" cx="163.94719" cy="108.60949" rx="19.06811" ry="24.13759" transform="translate(-31.46528 130.71537) rotate(-39.97723)"/><ellipse class="ab" cx="174.20563" cy="103.23341" rx="16.86212" ry="21.6971" transform="translate(-26.16746 132.48002) rotate(-38.95507)"/><path class="ac" d="M150.518,94.39423c-4.01811-.62727-11.50016.96388-16.92686-2.54088-4.45378-2.87641-5.3351-9.07712-4.84617-9.45635.72715-.564,7.014,5.814,16.16144,4.96229a19.43319,19.43319,0,0,0,4.25652-.89652"/><path class="ad" d="M156.38844,93.43871a39.73734,39.73734,0,0,1-17.28991,5.5385c-6.45117.52163-11.82506-.58362-11.90536-1.23212-.11942-.96444,11.6165.27094,17.19737-6.55065A12.253,12.253,0,0,0,146.42,87.59471"/><path class="ae" d="M151.27418,83.94258A46.24982,46.24982,0,0,1,170.216,86.44c6.33741,2.24572,10.88885,5.426,10.65819,6.011-.343.87-10.83971-5.0731-19.33273-1.598a13.21986,13.21986,0,0,0-3.6173,2.21549"/><path class="af" d="M160.92141,92.18362a31.20642,31.20642,0,0,0,8.41415-13.73338c1.35984-5.08631.71886-9.28553-.01873-9.33279-1.09694-.07028-1.05452,9.12917-9.56921,13.68541a19.91725,19.91725,0,0,1-4.38547,1.68427"/><path class="ag" d="M154.60521,84.20942a39.2037,39.2037,0,0,1,9.13572,13.551c2.00413,5.14409,2.27366,9.51685,1.70311,9.61818-.84853.1507-2.50849-9.33178-10.034-13.41913a15.07625,15.07625,0,0,0-3.75406-1.42259"/><ellipse class="o" cx="152.31578" cy="90.40456" rx="9.73767" ry="4.81653" transform="translate(-21.43387 55.99322) rotate(-19.48803)"/><path class="ah" d="M149.30788,89.416c2.89355-6.65445,1.68606-10.80065-.17536-13.429-1.18529-1.67367-3.08871-3.37155-2.30656-4.59252.8742-1.36469,4.89332-1.80566,6.66754-.56045,2.42028,1.69864-1.15886,5.25634.26208,11.61705a17.22716,17.22716,0,0,0,2.11233,5.132"/><g class="ai"><polygon class="aj" points="80.066 90.444 24.624 90.444 10.03 1.263 65.472 1.263 80.066 90.444"/><polygon class="aj" points="80.066 90.444 24.624 90.444 10.03 1.263 65.472 1.263 80.066 90.444"/><polygon class="ak" points="77.837 114.342 34.922 114.342 17.346 6.946 60.262 6.946 77.837 114.342"/><ellipse class="aj" cx="59.052" cy="122.83377" rx="61.13757" ry="72.72965" transform="matrix(0.77016, -0.63785, 0.63785, 0.77016, -64.77678, 65.89779)"/></g><path class="al" d="M47.63966,79.52653,49.333,90.05H46.01856L44.169,78.74332q-.731-4.46337-3.7832-4.46484h-2.5L37.709,77.99039h2.58692l.52636,3.21778h-3.168a3.17259,3.17259,0,0,1-2.05664-.75391,2.95715,2.95715,0,0,1-1.10351-1.85645,3.67824,3.67824,0,0,1-.0459-.46289l.0918-7.07421H40.0918Q46.2544,71.06071,47.63966,79.52653Z"/><path class="al" d="M67.21973,81.23746a4.34226,4.34226,0,0,1-2.06933,4.55176,8.76742,8.76742,0,0,1-5.17481,1.53613,11.11565,11.11565,0,0,1-5.64843-1.53613,6.469,6.469,0,0,1-3.55958-4.55176l-1.665-10.17675H52.416l1.59864,9.7705a3.16625,3.16625,0,0,0,.168.667q3.06885-.7837,2.68067-3.16016l-1.19141-7.27734h3.31348l1.25781,7.68261q.56689,3.47169-3.32519,5.13184a9.34591,9.34591,0,0,0,2.42382.23144,6.09791,6.09791,0,0,0,3.57032-.85547,2.29828,2.29828,0,0,0,.92773-2.41992l-1.59863-9.7705h3.31347Z"/><path class="al" d="M31.42383,59.97574c.544-.02636,1.03321-.041,1.46875-.041a6.39821,6.39821,0,0,1,1.09668.0791,3.805,3.805,0,0,1,.85059.25488,2.631,2.631,0,0,1,.709.45117,2.71662,2.71662,0,0,1,.81055,1.61817l.86426,5.27637h-.97559l-.86621-5.28809q-.25488-1.56592-2.36035-1.56543c-.42285,0-.91113.01367-1.46191.042Z"/><path class="al" d="M42.375,61.383a1.92012,1.92012,0,0,0-.60645-.458,1.87331,1.87331,0,0,0-.82519-.1748,4.76382,4.76382,0,0,0-.80762.05859l-.13086-.79785a3.801,3.801,0,0,1,.82617-.07617,3.12147,3.12147,0,0,1,.93945.14062,2.85224,2.85224,0,0,1,.8584.44922,3.52808,3.52808,0,0,1,.73535.75781,5.88857,5.88857,0,0,1,.958,2.55176,6.31484,6.31484,0,0,1,.085,1.4502,3.3934,3.3934,0,0,1-.24023,1.10254,2.28045,2.28045,0,0,1-.51953.75586,2.01977,2.01977,0,0,1-.73828.44824,2.785,2.785,0,0,1-.90528.1416,3.22945,3.22945,0,0,1-.95215-.1416,3.00991,3.00991,0,0,1-.88378-.44824,3.6271,3.6271,0,0,1-.76758-.75586,4.65866,4.65866,0,0,1-.60059-1.10254,6.9378,6.9378,0,0,1-.39062-1.4502l-.61914-3.78222h1.01074l.61914,3.78222a5.65753,5.65753,0,0,0,.74023,2.11524,2.101,2.101,0,0,0,.72266.71289,1.81781,1.81781,0,0,0,.93457.25488,1.70028,1.70028,0,0,0,.81543-.17285,1.2296,1.2296,0,0,0,.4834-.46094,2.04857,2.04857,0,0,0,.23535-.69726,5.41236,5.41236,0,0,0-.0459-1.752q-.08349-.51123-.19238-.9248a5.05031,5.05031,0,0,0-.30078-.82813A2.8298,2.8298,0,0,0,42.375,61.383Z"/><path class="al" d="M47.72266,59.93473a3.134,3.134,0,0,1,2.31836.96777,5.28346,5.28346,0,0,1,1.27637,2.93164,6.316,6.316,0,0,1,.085,1.4502,3.4191,3.4191,0,0,1-.24023,1.10254,2.28048,2.28048,0,0,1-.51954.75586,2.0196,2.0196,0,0,1-.73828.44824,2.78486,2.78486,0,0,1-.90527.1416,3.22464,3.22464,0,0,1-.95215-.1416,3.02681,3.02681,0,0,1-.88476-.44824,3.67359,3.67359,0,0,1-.76758-.75586,4.7298,4.7298,0,0,1-.60059-1.10254,6.99944,6.99944,0,0,1-.38965-1.4502,5.83723,5.83723,0,0,1-.05371-1.85644,2.64,2.64,0,0,1,.42969-1.16309l-.74512.0459-.13574-.82617Q46.124,59.93473,47.72266,59.93473ZM46.36329,62.133a6.09507,6.09507,0,0,0,.03418,1.59473,7.85705,7.85705,0,0,0,.29687,1.252,4.53757,4.53757,0,0,0,.46192.97266,2.09815,2.09815,0,0,0,.72168.71,1.91645,1.91645,0,0,0,.9873.25488,1.50884,1.50884,0,0,0,.90527-.25488,1.31464,1.31464,0,0,0,.48829-.71289,5.98061,5.98061,0,0,0-.916-4.55469,1.91428,1.91428,0,0,0-.63867-.4541,2.01974,2.01974,0,0,0-.84473-.17383l-1.05078.01172A2.725,2.725,0,0,0,46.36329,62.133Z"/><path class="al" d="M57.37012,60.05192l.40235,2.457a7.45378,7.45378,0,0,1,.09375.82812,3.438,3.438,0,0,1-.04981.73633,1.43219,1.43219,0,0,1-.93945,1.12012l1.86035,2.4209H57.6377l-2.36914-3.16016-1.11133-1.33691a1.007,1.007,0,0,0-.3125.17675,1.61513,1.61513,0,0,0-.31054,1.51172l.459,2.8086h-.97559l-.40234-2.45606a3.50674,3.50674,0,0,1,.07031-1.90527,1.45825,1.45825,0,0,1,.34961-.47168,1.7185,1.7185,0,0,1,.59766-.34863l-1.84668-2.38086h1.10449l2.21875,2.9248,1.23047,1.51953a1.204,1.204,0,0,0,.38379-.36328,1.353,1.353,0,0,0,.1582-.50976,2.61359,2.61359,0,0,0-.02832-.7627l-.46-2.80859Z"/><path class="al" d="M62.11231,59.93473a2.39416,2.39416,0,0,1,1.77539.66894,3.27746,3.27746,0,0,1,.85645,1.84082l.84668,5.16993H63.00391l-.124-.75684h1.61133l-.71582-4.373A1.77258,1.77258,0,0,0,61.90528,60.756a1.46008,1.46008,0,0,0-.52832.0957,1.41371,1.41371,0,0,0-.41113.23242,2.22068,2.22068,0,0,0-.46289.51563l-.05469.09375.41016,5.9209H59.877L59.47755,61.799c-.002-.01465-.00977-.0586-.02051-.12891a4.75646,4.75646,0,0,0-.1709-.54,4.05963,4.05963,0,0,0-.32227-.71484l-.21289-.36328h.98145a3.18953,3.18953,0,0,1,.40137.79687h.041a2.008,2.008,0,0,1,.63672-.59766,2.54191,2.54191,0,0,1,.55273-.21679A2.7053,2.7053,0,0,1,62.11231,59.93473Z"/><path class="aj" d="M48.72284,21.90643c.54158,3.3094-1.90267,8.42423-5.95034,8.42423s-8.166-5.11483-8.70756-8.42423S35.38938,9.94881,39.43705,9.94881,48.18126,18.597,48.72284,21.90643Z"/><path class="aj" d="M45.58419,44.02018a130.7318,130.7318,0,0,0,2.66056,12.95654H44.73169c-.08624-4.30375-.1346-8.72578-.59908-12.78414A64.56693,64.56693,0,0,0,40.7868,30.08082q-.58264-1.663-1.29869-3.45935l4.90154,1.84608q.00037.71539.01344,1.52644A106.78791,106.78791,0,0,0,45.58419,44.02018Z"/><path class="aj" d="M60.239,13.91872,57.40515,35.69806c-.10967.84287-1.16789.8917-1.568.06921a23.091,23.091,0,0,1-2.34516-9.8331c-.05505-5.56253,2.014-10.212,5.32858-13.05007C59.39958,12.38828,60.348,13.081,60.239,13.91872Z"/><path class="aj" d="M56.122,47.21791c-.20791,4.35794-.13358,8.40423.04363,12.03435l-2.99789-.63488c.66606-3.8533,1.38479-7.80523,1.68591-11.50807A61.385,61.385,0,0,0,54.42384,33.921q-.21139-1.5882-.5137-3.31946l3.86549,2.532q-.12264.638-.25087,1.36359A101.32118,101.32118,0,0,0,56.122,47.21791Z"/><polygon class="aj" points="27.73 28.435 26.725 28.611 25.721 28.787 23.383 20.211 21.046 11.636 24.388 20.036 27.73 28.435"/><polygon class="aj" points="31.282 27.807 30.277 27.982 29.272 28.158 26.935 19.583 24.598 11.008 27.94 19.407 31.282 27.807"/><polygon class="aj" points="29.481 28.114 28.476 28.29 27.471 28.465 25.134 19.89 22.797 11.315 26.139 19.715 29.481 28.114"/><polygon class="aj" points="32.984 27.526 31.979 27.702 30.974 27.878 28.637 19.302 26.299 10.727 29.642 19.127 32.984 27.526"/><polygon class="aj" points="32.159 34.742 28.925 31.741 25.691 28.74 29.361 28.048 33.031 27.356 32.595 31.049 32.159 34.742"/><path class="aj" d="M36.75017,44.25964c1.70348,4.228,3.46627,8.04653,5.12264,11.42805l-2.29963.59695c-1.17953-3.93155-2.36513-7.978-3.72822-11.62026a84.34843,84.34843,0,0,0-5.87267-12.37085q-.81536-1.42582-1.75284-2.95129l3.69026.85983q.18693.65591.40713,1.39735C33.26635,34.79021,34.68853,39.14078,36.75017,44.25964Z"/><path class="am" d="M78.169,51.34879a5.164,5.164,0,0,1-.90234.09473l-.1416-.86719c.43847-.0459.68164-.0752.72949-.085q1.26855-.26367,1.09277-1.33984l-.88379-5.39942-1.23828.34082-.14551-.8916q2.44337-.71778,4.29786-1.10156a8.62011,8.62011,0,0,1,2.7207-.19141,2.44252,2.44252,0,0,1,1.76367.9043,2.17883,2.17883,0,0,1,.38574.96094l.93262,5.69726-1.48145.30762-.93457-5.71q-.27686-1.69044-3.44433-1.03321-.39111.08058-1.39649.32813l.87305,5.33691a2.06043,2.06043,0,0,1-.38379,1.69043A3.05986,3.05986,0,0,1,78.169,51.34879Z"/><path class="am" d="M91.04,48.58707l-1.47266.30567-1.33594-8.166,1.47266-.30566Z"/><path class="am" d="M93.31348,45.26188l-.88476-5.40625,1.47265-.30469.709,4.33008-.99512,1.31836Z"/><path class="am" d="M98.42188,39.35953a6.06147,6.06147,0,0,0-1.06347.33789l-.13575-.82812a8.992,8.992,0,0,1,1.56543-.46387q2.77-.57422,3.125,1.59766l.67578,4.12793a6.16748,6.16748,0,0,1,.08106,1.03027,4.51576,4.51576,0,0,1-.05176.77637l-.04883.25879-5.27148,1.09277-.13379-.81641,3.958-.82031a3.46682,3.46682,0,0,0-.01563-1.21387l-.66113-4.03906a1.2356,1.2356,0,0,0-.6416-1.00586A2.26648,2.26648,0,0,0,98.42188,39.35953Z"/><path class="am" d="M103.84571,37.45524q1.40333-.38966,3.3125-.78516a5.31366,5.31366,0,0,1,2.919.00586,2.13082,2.13082,0,0,1,1.24218,1.81445l.79883,4.88086,1.30469-.27051.13379.81641-8.36914,1.73633-.13379-.81641,5.59082-1.16015-.80078-4.89356a1.36,1.36,0,0,0-.835-1.20508,3.95792,3.95792,0,0,0-1.96192.03711q-1.37548.28564-2.60644.61328l-.44922.11914Z"/><path class="am" d="M115.72852,35.76969a6.179,6.179,0,0,0-1.06445.33789l-.13574-.82812a9.03154,9.03154,0,0,1,1.5664-.4629q2.77-.57422,3.124,1.59766l1.00195,6.12109-1.21582.252-.39356-1.34473-.07128.01465a2.51673,2.51673,0,0,1-.165.30957,4.05016,4.05016,0,0,1-.26953.39941,4.10851,4.10851,0,0,1-.36622.40039,4.32327,4.32327,0,0,1-.4873.40918,3.85416,3.85416,0,0,1-1.38574.59375,7.03521,7.03521,0,0,1-1.25586.17579l.05566-1.00684a6.4149,6.4149,0,0,0,1.22949-.16992,3.05028,3.05028,0,0,0,1.2627-.64063,2.86889,2.86889,0,0,0,.99219-1.45019,2.28853,2.28853,0,0,0,.04883-.99219l-.43848-2.67676a1.217,1.217,0,0,0-.65039-1.0039A2.28706,2.28706,0,0,0,115.72852,35.76969Z"/><path class="am" d="M123.18067,33.47867l1.96973,3.39942q.38085.76024,1.62011,3.17285a4.0744,4.0744,0,0,0,2.38868-4.12891l-.1377-3.64843,1.47266-.30567.14746,3.64746a5.26225,5.26225,0,0,1-.10449,1.46485,4.88771,4.88771,0,0,1-.35547,1.05273,4.99183,4.99183,0,0,1-.59668.89649,5.35764,5.35764,0,0,1-.92383.88476,8.53887,8.53887,0,0,1-1.34473.80859,12.25222,12.25222,0,0,1-1.82324.71875l-3.23047,1.01172-.13574-.83007,3.40723-1.10645-3.87989-6.72168Z"/><path class="am" d="M144.61036,37.255l.03515.21484-1.46484.30372-.03516-.21485a4.0667,4.0667,0,0,1,.08692-1.31836q.1626-.854.24023-1.22363.1421-.75732.3877-1.78223l.76074-3.36523-6.94922,1.44141-.13183-.81055,8.42187-1.74707.13281.81054-.80273,3.50489q-.13476.62988-.22461,1.03808c-.05957.27149-.11816.54883-.17676.82813-.05762.28027-.10449.52246-.13769.72656q-.05127.3047-.09864.63477A3.55811,3.55811,0,0,0,144.61036,37.255Zm-3.75,4.22754-1.46387.30371-1.30957-8.00293,1.46387-.30371Z"/><path class="am" d="M151.7627,27.4191a4.76106,4.76106,0,0,1,3.43262.36719,3.847,3.847,0,0,1,1.7207,2.917,5.15152,5.15152,0,0,1,.02637,1.61524,3.7937,3.7937,0,0,1-.44043,1.32031,3.9735,3.9735,0,0,1-.83789,1.01855,4.69616,4.69616,0,0,1-1.14551.73926,6.56127,6.56127,0,0,1-1.37793.44239,6.3829,6.3829,0,0,1-1.42676.13964,4.32689,4.32689,0,0,1-1.30371-.23144,3.50443,3.50443,0,0,1-1.10547-.61524,3.41512,3.41512,0,0,1-.8291-1.05761,5.53723,5.53723,0,0,1-.43847-3.60157,3.55216,3.55216,0,0,1,.73144-1.45117l-1.12793.28711-.14648-.89355Q149.34865,27.92008,151.7627,27.4191Zm-2.207,2.91211a5.17913,5.17913,0,0,0-.05957,1.794,5.66179,5.66179,0,0,0,.3584,1.32129,3.29155,3.29155,0,0,0,.62891.957,2.04173,2.04173,0,0,0,1.04.57617,3.3932,3.3932,0,0,0,1.47364-.02051,3.56379,3.56379,0,0,0,1.38379-.57226,2.292,2.292,0,0,0,.78808-.959,4.26525,4.26525,0,0,0,.22071-2.4082,3.40655,3.40655,0,0,0-1.28321-2.457,2.2563,2.2563,0,0,0-.93164-.31348,3.746,3.746,0,0,0-1.26465.06836l-1.58593.34277A3.48357,3.48357,0,0,0,149.55567,30.33121Z"/><path class="am" d="M157.43262,26.28922q1.23487-.30322,2.21973-.50684a13.60763,13.60763,0,0,1,1.65137-.25488,6.61649,6.61649,0,0,1,1.26562.02246,3.19443,3.19443,0,0,1,1.03809.29,2.01431,2.01431,0,0,1,1.11133,1.5752l.93261,5.69726-1.47363.30567-.93457-5.71q-.27685-1.69044-3.45312-1.03125-.958.19921-2.21192.50488Z"/><rect class="an" x="179.56129" y="136.21061" width="61.76742" height="37.82463"/><rect class="aj" x="202.4193" y="139.02558" width="4.67319" height="32.19469"/><rect class="aj" x="207.90522" y="139.02558" width="2.3366" height="32.19469"/><rect class="aj" x="217.42939" y="139.02558" width="1.1683" height="32.19469"/><rect class="aj" x="213.91894" y="139.02558" width="2.95725" height="32.19469"/><rect class="aj" x="210.74977" y="139.02558" width="2.3366" height="32.19469"/><rect class="aj" x="219.68979" y="139.02558" width="4.67319" height="32.19469"/><rect class="aj" x="225.17571" y="139.02558" width="2.3366" height="32.19469"/><rect class="aj" x="234.69988" y="139.02558" width="1.1683" height="32.19469"/><rect class="aj" x="231.18943" y="139.02558" width="2.95725" height="32.19469"/><rect class="aj" x="228.02026" y="139.02558" width="2.3366" height="32.19469"/><rect class="aj" x="185.32658" y="139.02558" width="4.67319" height="32.19469"/><rect class="aj" x="190.81251" y="139.02558" width="2.3366" height="32.19469"/><rect class="aj" x="200.33668" y="139.02558" width="1.1683" height="32.19469"/><rect class="aj" x="196.82623" y="139.02558" width="2.95725" height="32.19469"/><rect class="aj" x="193.65706" y="139.02558" width="2.3366" height="32.19469"/><ellipse class="ao" cx="245.02698" cy="111.9671" rx="18.11841" ry="17.35803"/><path class="ap" d="M250.00108,99.1157a13.83991,13.83991,0,1,0,6.11632,4.40275"/><line class="aq" x1="242.26336" y1="109.71824" x2="240.94294" y2="107.3977"/><path class="aq" d="M245.96642,116.68893H247.1a3.00076,3.00076,0,0,0,3.00076-3.00075v-.62681c0-2.4896-2.01822-5.35248-4.50782-5.35248-4.243,0-4.40119,5.48952-5.47431,8.54693-.36706.80654-.55227,1.75623-1.54241,2.00957-1.44342.36932-2.32365-1.22582-2.74973-2.33883a10.75933,10.75933,0,0,1-.77263-3.80357,10.22381,10.22381,0,1,1,7.405,9.838"/></svg>